<svg width="28" height="26" fill="none" xmlns="http://www.w3.org/2000/svg"><path d="M10.009 18.134a1.711 1.711 0 10-.001-3.422 1.711 1.711 0 000 3.422zm7.983 0a1.711 1.711 0 100-3.422 1.711 1.711 0 000 3.422z" fill="#2C8ECC"/><path d="M26.546 14.711a3.415 3.415 0 00-2.857-3.365c-1.394-4.016-5.2-6.903-9.688-6.903-4.49 0-8.295 2.887-9.689 6.903a3.415 3.415 0 00-2.857 3.365 3.415 3.415 0 002.857 3.366c1.394 4.016 5.2 6.902 9.689 6.902s8.294-2.886 9.688-6.902a3.415 3.415 0 002.857-3.366z" stroke="#2C8ECC" stroke-width="2" stroke-miterlimit="10" stroke-linecap="square"/><path d="M14 7.866c-.285-4.088 1.902-6.608 5.703-6.845" stroke="#2C8ECC" stroke-width="2" stroke-miterlimit="10"/></svg>