<svg width="25" height="25" fill="none" xmlns="http://www.w3.org/2000/svg"><path d="M14.146 6.62L6.999 1.873a2.013 2.013 0 00-2.533.25L2.08 4.499l8.516 5.657m7.808.707l4.765 7.12c.53.794.425 1.85-.251 2.525l-2.385 2.376-5.678-8.485" stroke="#2C8ECC" stroke-width="2" stroke-miterlimit="10"/><path d="M5.917 15.804l-4.338-.338C.65 15.395.134 16.514.793 17.17l2.614 2.586 2.51-3.952zm3.27 3.258l.34 4.322c.07.926-1.052 1.44-1.71.784L5.22 21.563l3.966-2.501z" fill="#2C8ECC"/><path d="M11.88 17.362l-7.85 4.952c-.896.536-1.914-.48-1.377-1.372l4.97-7.822 9.814-9.778a3.018 3.018 0 014.258 0 2.992 2.992 0 010 4.243l-9.814 9.777z" stroke="#2C8ECC" stroke-width="2" stroke-miterlimit="10" stroke-linecap="square"/></svg>