<svg width="26" height="26" fill="none" xmlns="http://www.w3.org/2000/svg"><path d="M13.001 25c-2.162-1.727-2.3-7.41 1.104-8.727 1.806-.7 2.391 3.204 5.934 2.227.686-.188 2.3.773 1.712 2.239M6.648 5.168a6.61 6.61 0 011.808 1.98c.447.74 1.442 2.803.53 3.968-1.03 1.317-4.014 1.76-4.014 2.975 0 .913 1.308 1.956 2.007 2.975 1.05 1.533.573 3.018 0 3.966-.297.492-.796.89-1.323 1.204" stroke="#2C8ECC" stroke-width="2" stroke-miterlimit="10"/><path d="M23.82 11.91c.145.704.22 1.434.22 2.18C24.04 20.117 19.099 25 13 25 6.905 25 1.96 20.116 1.96 14.09 1.96 8.067 6.905 3.183 13 3.183c.546 0 1.083.04 1.607.114" stroke="#2C8ECC" stroke-width="2" stroke-miterlimit="10"/><path d="M18.521 9.727V13m0-3.273c2.439 0 4.416-1.953 4.416-4.363S20.96 1 18.521 1s-4.416 1.954-4.416 4.364 1.977 4.363 4.416 4.363z" stroke="#2C8ECC" stroke-width="2" stroke-miterlimit="10" stroke-linecap="square"/></svg>