<svg width="28" height="27" fill="none" xmlns="http://www.w3.org/2000/svg"><path d="M17.422 12.228C17.422 17.078 9.439 25 9.439 25s-7.984-7.921-7.984-12.772c0-4.974 4.125-7.86 7.984-7.86 3.858 0 7.983 2.886 7.983 7.86z" stroke="#2C8ECC" stroke-width="2" stroke-miterlimit="10" stroke-linecap="square"/><path d="M14.432 2.123A8.31 8.31 0 0118.562 1c3.859 0 7.984 2.886 7.984 7.86 0 4.85-7.983 12.772-7.983 12.772m-9.124-7.158c1.26 0 2.28-1.006 2.28-2.246S10.7 9.983 9.44 9.983s-2.281 1.005-2.281 2.245c0 1.24 1.021 2.246 2.28 2.246z" stroke="#2C8ECC" stroke-width="2" stroke-miterlimit="10" stroke-linecap="square"/></svg>