<svg width="32" height="32" fill="none" xmlns="http://www.w3.org/2000/svg"><path d="M18.48 13.653S19.548 7.62 15.193 5a7.167 7.167 0 01-.857 2.97c-.5.92-1.195 1.73-2.043 2.374-1.86 1.573-5.361 5.101-5.324 8.874a8.395 8.395 0 001.316 4.567A8.875 8.875 0 0011.907 27a5.318 5.318 0 01.6-2.087 5.523 5.523 0 011.396-1.7c.49-.363.9-.815 1.206-1.33a4.348 4.348 0 00.577-1.675A8.262 8.262 0 0118.828 23a7.833 7.833 0 011.297 3.92v.022a8.342 8.342 0 003.481-2.846 7.876 7.876 0 001.421-4.174c.095-3.06-.975-6.049-3.01-8.404" stroke="#2C8ECC" stroke-width="2" stroke-miterlimit="10" stroke-linecap="square"/></svg>