<svg width="15" height="15" viewBox="0 0 15 15" fill="none" xmlns="http://www.w3.org/2000/svg">
<path d="M10.9688 0.28125C10.5938 -0.09375 10.0312 -0.09375 9.65625 0.28125L0.28125 9.65625C0.09375 9.84375 0 10.0312 0 10.3125V14.0625C0 14.625 0.375 15 0.9375 15H4.6875C4.96875 15 5.15625 14.9062 5.34375 14.7188L14.7188 5.34375C15.0938 4.96875 15.0938 4.40625 14.7188 4.03125L10.9688 0.28125ZM4.3125 13.125H1.875V10.6875L7.5 5.0625L9.9375 7.5L4.3125 13.125ZM11.25 6.1875L8.8125 3.75L10.3125 2.25L12.75 4.6875L11.25 6.1875Z" fill="currentColor"/>
</svg>
