<svg width="240" height="240" viewBox="0 0 24 24" fill="none" xmlns="http://www.w3.org/2000/svg">
  <path d="M3 1h14v4h4v18H3V1zm16 1.41421L19.5858 3H19v-.58579z" fill="#fff" stroke="#9BD2F4" stroke-width="2"/>
  <rect x="1" y="9" width="22" height="10" rx="0.1" fill="#fff" stroke="#9BD2F4" stroke-width="2"/>
  <path d="M4.48788 17c-.05334 0-.09867-.0187-.136-.056-.03734-.0373-.056-.0827-.056-.136V11.6c0-.0587.016-.1067.048-.144.03733-.0373.08533-.056.144-.056h1.952c1.568 0 2.368.7253 2.4 2.176.01066.3093.016.5173.016.624 0 .1013-.00534.3067-.016.616-.02134.7467-.22134 1.2987-.6 1.656-.37867.352-.96534.528-1.76.528h-1.992zm1.952-.92c.448 0 .77066-.0987.968-.296.19733-.2027.30133-.5333.312-.992.01066-.32.016-.52.016-.6 0-.0853-.00534-.2827-.016-.592-.01067-.4373-.12267-.76-.336-.968-.208-.208-.536-.312-.984-.312h-.992v3.76h1.032zm5.63302 1c-.7254 0-1.2907-.184-1.696-.552-.40536-.368-.61869-.9147-.64002-1.64-.00534-.1547-.008-.3813-.008-.68 0-.304.00266-.5333.008-.688.02133-.7093.24-1.2533.65602-1.632.416-.3787.976-.568 1.68-.568s1.264.1893 1.68.568c.4213.3787.6426.9227.664 1.632.0106.3093.016.5387.016.688 0 .144-.0054.3707-.016.68-.0267.7253-.2427 1.272-.648 1.64-.4054.368-.9707.552-1.696.552zm0-.92c.3573 0 .6426-.1067.856-.32.2133-.2187.328-.5493.344-.992.0106-.32.016-.536.016-.648 0-.1227-.0054-.3387-.016-.648-.016-.4427-.1307-.7707-.344-.984-.2134-.2187-.4987-.328-.856-.328-.352 0-.6347.1093-.848.328-.2134.2133-.328.5413-.344.984-.0054.1547-.008.3707-.008.648 0 .272.0026.488.008.648.016.4427.128.7733.336.992.2133.2133.4986.32.856.32zm5.5705.92c-.736 0-1.3067-.1893-1.712-.568-.4-.3787-.6134-.912-.64-1.6-.0054-.144-.008-.3787-.008-.704 0-.3307.0026-.5707.008-.72.0266-.6827.2426-1.2133.648-1.592.4106-.384.9786-.576 1.704-.576.4746 0 .888.0827 1.24.248.352.16.624.3813.816.664.192.2773.2933.592.304.944v.016c0 .0427-.0187.08-.056.112-.032.0267-.0694.04-.112.04h-.76c-.064 0-.112-.0133-.144-.04-.032-.0267-.0587-.0773-.08-.152-.0854-.336-.2267-.5707-.424-.704-.1974-.1387-.4614-.208-.792-.208-.768 0-1.168.4293-1.2 1.288-.0054.144-.008.3653-.008.664s.0026.5253.008.68c.032.8587.432 1.288 1.2 1.288.3306 0 .5946-.0693.792-.208.2026-.1387.344-.3733.424-.704.016-.0747.04-.1253.072-.152.0373-.0267.088-.04.152-.04h.76c.048 0 .088.016.12.048.0373.032.0533.072.048.12-.0107.352-.112.6693-.304.952-.192.2773-.464.4987-.816.664-.352.16-.7654.24-1.24.24z" fill="#2C8ECC"/>
</svg>
