<svg width="13" height="16" viewBox="0 0 13 16" fill="none" xmlns="http://www.w3.org/2000/svg">
<path d="M6.08454 7.82505C7.86346 7.82505 9.3057 6.07337 9.3057 3.91255C9.3057 1.75168 8.8322 0 6.08454 0C3.33688 0 2.86328 1.75168 2.86328 3.91255C2.86328 6.07337 4.30552 7.82505 6.08454 7.82505Z" fill="currentColor"/>
<path d="M12.1612 13.641C12.1016 9.87679 11.61 8.80419 7.848 8.12524C7.848 8.12524 7.31845 8.80003 6.08416 8.80003C4.84987 8.80003 4.32023 8.12524 4.32023 8.12524C0.599314 8.79679 0.0778057 9.85348 0.00923427 13.5187C0.00361141 13.818 0.00100571 13.8337 0 13.799C0.000228571 13.8641 0.000502755 13.9845 0.000502755 14.1945C0.000502755 14.1945 0.896137 16 6.08416 16C11.2721 16 12.1678 14.1945 12.1678 14.1945C12.1678 14.0596 12.1679 13.9658 12.168 13.9019C12.167 13.9234 12.165 13.8818 12.1612 13.641Z" fill="currentColor"/>
</svg>
