<svg width="32" height="32" viewBox="0 0 32 32" fill="none" xmlns="http://www.w3.org/2000/svg">
<path d="M23.5 20.8002C26.2 18.1002 26.2 13.8002 23.5 11.2002" stroke="#49CCC4" stroke-width="2" stroke-miterlimit="10" stroke-linecap="square"/>
<path d="M27.3984 24.6998C32.1984 19.8998 32.1984 12.0998 27.3984 7.2998" stroke="#49CCC4" stroke-width="2" stroke-miterlimit="10" stroke-linecap="square"/>
<path d="M8.50156 20.8002C5.80156 18.1002 5.80156 13.8002 8.50156 11.2002" stroke="#49CCC4" stroke-width="2" stroke-miterlimit="10" stroke-linecap="square"/>
<path d="M4.6 24.6998C-0.2 19.8998 -0.2 12.0998 4.6 7.2998" stroke="#49CCC4" stroke-width="2" stroke-miterlimit="10" stroke-linecap="square"/>
<path d="M16 19C17.6569 19 19 17.6569 19 16C19 14.3431 17.6569 13 16 13C14.3431 13 13 14.3431 13 16C13 17.6569 14.3431 19 16 19Z" stroke="#49CCC4" stroke-width="2" stroke-miterlimit="10" stroke-linecap="square"/>
</svg>
