<?xml version="1.0" standalone="no"?>
<!DOCTYPE svg PUBLIC "-//W3C//DTD SVG 20010904//EN"
 "http://www.w3.org/TR/2001/REC-SVG-20010904/DTD/svg10.dtd">
<svg version="1.0" xmlns="http://www.w3.org/2000/svg"
 width="200.000000pt" height="200.000000pt" viewBox="0 0 200.000000 200.000000"
 preserveAspectRatio="xMidYMid meet">
<metadata>
Created by potrace 1.11, written by Peter Selinger 2001-2013
</metadata>
<g transform="translate(0.000000,200.000000) scale(0.100000,-0.100000)"
fill="#000000" stroke="none">
<path d="M353 1595 c-157 -34 -271 -135 -324 -286 -21 -58 -23 -83 -25 -289
-2 -245 6 -308 50 -403 50 -104 160 -186 294 -217 122 -28 306 -10 419 41 62
28 148 116 179 183 44 95 52 162 49 396 -2 188 -5 223 -23 280 -46 140 -156
250 -287 285 -16 5 -37 10 -45 12 -41 12 -231 10 -287 -2z m263 -207 c58 -27
101 -79 121 -148 18 -61 25 -331 11 -433 -9 -67 -40 -132 -77 -165 -96 -83
-264 -79 -350 7 -62 62 -75 115 -76 326 -2 247 12 311 83 379 65 61 197 77
288 34z"/>
<path d="M1275 1592 c-16 -2 -35 -8 -41 -13 -17 -14 -15 -1146 2 -1163 19 -20
201 -16 214 4 6 9 10 209 10 493 l0 477 251 0 c153 0 258 4 270 10 16 9 19 22
19 89 0 56 -4 82 -14 91 -11 8 -106 12 -348 13 -183 1 -346 0 -363 -1z"/>
</g>
</svg>
