<svg width="400" height="165" fill="none" xmlns="http://www.w3.org/2000/svg"><path d="M86.03 162.708c-1.534 0-2.76-.458-3.68-1.375-.921-.916-1.381-2.139-1.381-3.666v-36.209H5.061c-1.534 0-2.76-.458-3.68-1.375C.46 119.167 0 117.944 0 116.417v-3.667c0-2.292.843-4.583 2.53-6.875L72.458 6.187c.767-1.222 1.917-2.138 3.45-2.75 1.534-.763 3.22-1.145 5.061-1.145H90.4c1.533 0 2.76.458 3.68 1.375.92.916 1.38 2.139 1.38 3.666v100.375h20.933c1.533 0 2.76.459 3.68 1.375.92.917 1.38 2.139 1.38 3.667v3.667c0 1.527-.46 2.75-1.38 3.666-.92.917-2.147 1.375-3.68 1.375H95.461v36.209c0 1.527-.46 2.75-1.38 3.666-.92.917-2.148 1.375-3.681 1.375h-4.37zm-5.061-55V18.563l-62.797 89.145h62.797zM200.289 165c-19.322 0-33.277-5.806-41.864-17.417-8.435-11.611-12.882-26.889-13.342-45.833l-.23-19.02.23-19.48c.46-18.944 4.907-34.222 13.342-45.833C167.012 5.806 180.967 0 200.289 0c19.322 0 33.201 5.806 41.635 17.417 8.588 11.61 13.111 26.889 13.571 45.833.154 4.278.23 10.77.23 19.48 0 8.555-.076 14.895-.23 19.02-.46 18.944-4.983 34.222-13.571 45.833C233.49 159.194 219.611 165 200.289 165zm0-13.75c13.188 0 23.156-4.354 29.904-13.062 6.9-8.862 10.504-21.389 10.811-37.584.153-4.43.23-10.541.23-18.333 0-7.792-.077-13.75-.23-17.875-.307-15.89-3.911-28.264-10.811-37.125-6.748-9.014-16.716-13.521-29.904-13.521-13.188 0-23.232 4.507-30.133 13.52-6.747 8.862-10.274 21.237-10.581 37.126l-.23 17.875.23 18.333c.307 16.195 3.834 28.722 10.581 37.584 6.901 8.708 16.945 13.062 30.133 13.062zm164.287 11.458c-1.533 0-2.76-.458-3.68-1.375-.92-.916-1.38-2.139-1.38-3.666v-36.209h-75.909c-1.533 0-2.76-.458-3.68-1.375-.92-.916-1.38-2.139-1.38-3.666v-3.667c0-2.292.843-4.583 2.53-6.875l69.928-99.688c.766-1.222 1.916-2.138 3.45-2.75 1.533-.763 3.22-1.145 5.061-1.145h9.431c1.533 0 2.76.458 3.68 1.375.92.916 1.38 2.139 1.38 3.666v100.375h20.932c1.534 0 2.761.459 3.681 1.375.92.917 1.38 2.139 1.38 3.667v3.667c0 1.527-.46 2.75-1.38 3.666-.92.917-2.147 1.375-3.681 1.375h-20.932v36.209c0 1.527-.46 2.75-1.38 3.666-.92.917-2.147 1.375-3.68 1.375h-4.371zm-5.06-55V18.563l-62.797 89.145h62.797z" fill="#354052"/></svg>