<svg width="24" height="24" viewBox="0 0 24 24" fill="none" xmlns="http://www.w3.org/2000/svg">
<path d="M20.4012 2.40002H19.2012V0H16.8012V2.40002H7.20119V0H4.80117V2.40002H3.60119C2.27521 2.40002 1.21321 3.474 1.21321 4.80003L1.20117 21.6C1.20117 22.926 2.27515 24 3.60119 24H20.4012C21.7272 24 22.8012 22.926 22.8012 21.6V4.79998C22.8012 3.474 21.7272 2.40002 20.4012 2.40002ZM20.4012 21.6H3.60119V8.39997H20.4012V21.6Z" fill="#2C8ECC"/>
<path d="M17.4362 12.072L16.1642 10.8L10.3082 16.6561L7.76422 14.112L6.49219 15.384L10.3082 19.2L17.4362 12.072Z" fill="#2C8ECC"/>
</svg>
