<svg width="181" height="29" fill="none" xmlns="http://www.w3.org/2000/svg"><g clip-path="url(#clip0_7020_145556)"><path d="M118.059.669h-14.728c-.163 0-.245.083-.245.25-.409 6.77-1.637 14.124-3.436 20.058v.25c.081.084.163.084.245.084h5.073c.081 0 .245-.083.245-.167 1.391-4.596 2.536-10.614 2.946-15.712h4.827v15.629c0 .167.082.25.245.25h4.828c.163 0 .245-.083.245-.25V1.003c0-.167-.082-.334-.245-.334zm62.263 0h-4.827c-.164 0-.246.083-.246.25v15.545c-1.063.334-2.127.418-3.272.418-3.191 0-3.928-1.003-3.928-5.349V1.003c0-.167-.081-.25-.245-.25h-4.827c-.164 0-.246.083-.246.25v11.199c0 7.02 2.291 9.778 8.264 9.778 3.354 0 7.2-.92 9.409-1.755.082 0 .164-.167.164-.25V1.002c0-.167-.082-.334-.246-.334zM78.459.752h-4.91c-.163 0-.245.084-.245.167-.736 3.093-2.29 8.274-4.418 13.706L63.976.835c0-.083-.163-.166-.245-.166h-4.909c-.082 0-.163.083-.245.083-.082.084-.082.167 0 .251l7.363 20.559c-.736 1.588-1.472 2.925-2.127 4.179-.49.919-.982 1.838-1.473 2.841-.081.084 0 .167 0 .25.082.084.164.168.246.168h5.318c.082 0 .164-.084.246-.167.9-1.755 2.045-4.262 3.109-6.77 3.109-7.521 5.645-14.541 7.527-20.976 0-.084 0-.168-.082-.251-.082-.084-.164-.084-.245-.084zm17.509 15.796c0-.084-.082-.167-.164-.167h-.245c-1.146.417-3.355.835-4.91.835-3.354 0-4.909-.92-4.909-6.184 0-4.179.491-6.185 4.91-6.185 1.227 0 2.454.167 3.927.669.163 0 .245 0 .327-.167a59.723 59.723 0 001.964-4.012v-.25c0-.084-.082-.168-.164-.168C94.74.251 92.368-.083 90.322-.083c-7.036 0-10.145 3.342-10.145 10.948 0 7.688 3.109 11.115 10.145 11.115 1.718 0 5.237-.418 6.873-1.087.164-.083.164-.167.164-.334l-1.391-4.011zM141.704.752h-4.909c-.082 0-.246.084-.246.167-.736 3.093-2.29 8.274-4.418 13.706L127.222.835c0-.083-.163-.166-.245-.166h-4.909c-.082 0-.164.083-.246.083-.082.084-.082.167 0 .251l7.364 20.559c-.737 1.588-1.473 2.841-2.127 4.179a88.27 88.27 0 00-1.473 2.841c-.082.084 0 .167 0 .25.082.084.163.168.245.168h5.318c.082 0 .164-.084.246-.167.9-1.755 2.045-4.262 3.109-6.77 3.109-7.521 5.645-14.541 7.445-20.976 0-.084 0-.168-.081-.251 0-.084-.082-.084-.164-.084zm18-.083h-14.236c-.164 0-.246.083-.246.25v20.142c0 .167.082.25.246.25h4.827c.164 0 .245-.083.245-.25V5.516h7.446c.082 0 .245-.084.245-.167.573-1.337 1.146-2.842 1.718-4.262V.836c-.081-.084-.163-.167-.245-.167z" fill="#EE3F58"/><path d="M26.177 17.383c-3.191 0-4.173-.919-4.173-6.351 0-5.85 1.064-6.352 4.173-6.352s4.254.502 4.254 6.352c0 5.515-1.063 6.351-4.254 6.351zm0-17.3c-6.955 0-9.655 3.01-9.655 10.865 0 7.94 2.7 11.032 9.655 11.032 6.954 0 9.736-3.092 9.736-11.032 0-7.772-2.782-10.864-9.736-10.864zm28.882 16.465c0-.084-.082-.168-.164-.168h-.245c-1.146.418-3.355.836-4.91.836-3.354 0-4.909-.92-4.909-6.184 0-4.179.491-6.185 4.91-6.185 1.227 0 2.454.167 3.927.669.081 0 .245 0 .327-.167a59.768 59.768 0 001.964-4.012v-.25c0-.084-.082-.168-.164-.168C53.913.334 51.54 0 49.495 0 42.459 0 39.35 3.343 39.35 10.948c0 7.689 3.109 11.115 10.145 11.115 1.718 0 5.236-.418 6.873-1.086.163-.084.163-.167.163-.334l-1.472-4.096zM15.049.667H.814c-.163 0-.245.168-.245.335v20.141c0 .167.082.25.245.25H5.64c.164 0 .246-.083.246-.25V5.516h7.445c.082 0 .164-.084.246-.167.572-1.337 1.145-2.842 1.718-4.263v-.25c-.082-.084-.164-.167-.245-.167z" fill="#0065B1"/></g><defs><clipPath id="clip0_7020_145556"><path fill="#fff" transform="translate(.568)" d="M0 0h180v29H0z"/></clipPath></defs></svg>