<svg width="24" height="24" viewBox="0 0 24 24" fill="none" xmlns="http://www.w3.org/2000/svg">
<path d="M0.1 12C0.1 5.43843 5.43843 0.1 12 0.1C18.5616 0.1 23.9 5.43843 23.9 12C23.9 18.5616 18.5616 23.9 12 23.9C5.43843 23.9 0.1 18.5616 0.1 12ZM2.45315 12C2.45315 17.2643 6.73597 21.5466 12 21.5466C17.264 21.5466 21.5469 17.2643 21.5469 12C21.5469 6.73571 17.264 2.4534 12 2.4534C6.73597 2.4534 2.45315 6.73571 2.45315 12Z" fill="white" stroke="#FCA844" stroke-width="0.2"/>
<path d="M18.2537 11.6295H12.8609V5.14535C12.8609 4.59969 12.4185 4.15729 11.8728 4.15729C11.3272 4.15729 10.8848 4.59969 10.8848 5.14535V12.6176C10.8848 13.1632 11.3272 13.6056 11.8728 13.6056H18.2537C18.7994 13.6056 19.2418 13.1632 19.2418 12.6176C19.2418 12.0719 18.7994 11.6295 18.2537 11.6295Z" fill="white"/>
</svg>
