<svg width="24" height="24" fill="none" xmlns="http://www.w3.org/2000/svg"><g clip-path="url(#clip0)"><path d="M23.506 6.239a3.007 3.007 0 00-2.116-2.116C19.512 3.61 12 3.61 12 3.61s-7.512 0-9.39.495A3.068 3.068 0 00.493 6.239C0 8.117 0 12.01 0 12.01s0 3.915.494 5.773a3.008 3.008 0 002.116 2.115c1.897.514 9.39.514 9.39.514s7.512 0 9.39-.494a3.007 3.007 0 002.116-2.115C24 15.926 24 12.03 24 12.03s.02-3.914-.494-5.792z" fill="red"/><path d="M9.607 15.61l6.247-3.599-6.247-3.598v7.196z" fill="#fff"/></g><defs><clipPath id="clip0"><path fill="#fff" d="M0 0h24v24H0z"/></clipPath></defs></svg>