<svg width="20" height="20" fill="none" xmlns="http://www.w3.org/2000/svg"><g clip-path="url(#clip0)" fill="#0E4CD3"><path d="M12.203 7.796a4.666 4.666 0 00-6.599 0l-4.239 4.242A4.666 4.666 0 004.665 20a4.636 4.636 0 003.296-1.36l3.5-3.5a.333.333 0 00-.237-.569h-.134a5.611 5.611 0 01-2.133-.413.333.333 0 00-.363.073l-2.516 2.52a2 2 0 01-2.83-2.83L7.504 9.67a2 2 0 012.827 0 1.366 1.366 0 001.873 0c.226-.227.363-.528.386-.847a1.333 1.333 0 00-.387-1.026z"/><path d="M18.631 1.367a4.666 4.666 0 00-6.599 0L8.536 4.859a.333.333 0 00.244.57h.123c.73-.001 1.454.14 2.13.417a.333.333 0 00.363-.073l2.51-2.507a2 2 0 112.829 2.83l-3.126 3.123-.027.03-1.093 1.086a2 2 0 01-2.826 0 1.367 1.367 0 00-1.873 0 1.333 1.333 0 000 1.88c.385.387.837.703 1.333.933.07.033.14.06.21.09.07.03.143.053.213.08.07.027.143.05.213.07l.197.053c.133.033.267.06.403.083.165.025.33.04.497.047h.253l.2-.023c.073-.004.15-.02.237-.02h.113l.23-.034.107-.02.193-.04h.037a4.665 4.665 0 002.162-1.226l4.243-4.243a4.666 4.666 0 000-6.598z"/></g><defs><clipPath id="clip0"><path fill="#fff" d="M0 0h20v20H0z"/></clipPath></defs></svg>