<svg width="24" height="24" viewBox="0 0 24 24" fill="none" xmlns="http://www.w3.org/2000/svg">
<path fill-rule="evenodd" clip-rule="evenodd" d="M0 12C0 5.38338 5.38338 0 12 0C18.6166 0 24 5.38338 24 12C24 18.6166 18.6166 24 12 24C5.38338 24 0 18.6166 0 12ZM2.18964 12C2.18964 17.4097 6.59059 21.8101 12 21.8101C17.4094 21.8101 21.8104 17.4097 21.8104 12C21.8104 6.59032 17.4094 2.18989 12 2.18989C6.59059 2.18989 2.18964 6.59032 2.18964 12Z" fill="#E55050"/>
<rect x="10.7305" y="5.89844" width="2.54237" height="8.13559" rx="1" fill="#E55050"/>
<rect x="10.7305" y="15.051" width="2.54237" height="3.05085" rx="1" fill="#E55050"/>
</svg>
