<svg width="12" height="12" fill="none" xmlns="http://www.w3.org/2000/svg"><path d="M9.795 8.133s-.876-1.46-.876-2.628v-1.46a2.92 2.92 0 10-5.84 0v1.46c0 1.168-.876 2.628-.876 2.628h7.592z" fill="#F3A8A8"/><path d="M9.795 8.133s-.876-1.46-.876-2.628v-1.46a2.92 2.92 0 10-5.84 0v1.46c0 1.168-.876 2.628-.876 2.628h7.592z" fill="#F3A8A8"/><path d="M9.795 8.133s-.876-1.46-.876-2.628v-1.46a2.92 2.92 0 10-5.84 0v1.46c0 1.168-.876 2.628-.876 2.628h7.592z" stroke="#F3A8A8" stroke-width="2" stroke-miterlimit="10" stroke-linecap="square"/><path d="M9.795 8.133s-.876-1.46-.876-2.628v-1.46a2.92 2.92 0 10-5.84 0v1.46c0 1.168-.876 2.628-.876 2.628h7.592z" stroke="#F3A8A8" stroke-width="2" stroke-miterlimit="10" stroke-linecap="square"/><path fill-rule="evenodd" clip-rule="evenodd" d="M3.991 10.232a2.03 2.03 0 004.018 0H3.991z" fill="#F3A8A8"/></svg>