<svg width="288" height="170" fill="none" xmlns="http://www.w3.org/2000/svg"><path d="M34.9 108.106l-.295-.336-.165.384-.305.258.028.596-.873-.162-.288.448-.649-.447-.009.637-.454.262.296.647.337-.401.4.314.656-.187.086-.452.31.319.41-.359.533.205.71-.231.002-.497-.384-.658.024-.299c-.209.079-.25.017-.37-.041zm-3.448-22.761l-.917-.086-1.068.548-.02 1.203.481.787 1.267.305.718-.767.37-.985-.831-1.005zm47.435-15.828l-1.418.33-.87 1.401.547 1.071 1.483-.046.284-.066.218-.35.283-.066.218-.35.066.284-.218.35.284-.065.217-.35-.263-1.138-.831-1.005zm14.56 3.504l.634.152.066.284.066.284.066.285.982.37.37-.984-.482-.787-.481-.787-.132-.569-.416-.502-.567.132.132.568-.284.066-.283.066.33 1.422zm-8.005 1.562l-.917-.086-1.2-.02-1.352.614.35.218.131.569-.567.131-.35-.218-.065-.284.217-.35-.916-.087-.851.198-.284.066-.349-.218-1.636.68-1.767.111-.35-.218-.065-.284.066.284.066.285-.284.065.066.285.132.568-.416-.502-.633-.153-.35-.218-.936 1.117-.87 1.4-1.55-.238-1.332-.589.086-.919.151-.634-.415-.503-.415-.502 1.002-.833.785-.482 1.615.523.218-.35.218-.35-.066-.285.283-.065-.198-.853-.197-.853-1.115-.939-1.332-.589-.481-.787-.35-.218.198.853.33 1.421-1.372 1.817-1.154 1.467.198.853.198.852-.937 1.117-.435.7.066.285.132.568 1.53 1.442 1.246 1.507.415.503.35.218.066.284.567-.132-.066-.284.501-.416.567-.132.633.152.7.437 1.984-.462 2.335-.243.501-.416.218-.35.35.218.065.284.501-.416.567-.132 1.682.807 2.031 1.025 9.694 3.138.35.218.35.218 1.635-.68 1.853-1.03-.066-.284.152-.635.35.219.283-.067.5-.416.502-.416.501-.416.501-.416.218-.35.284-.066.283-.066.633.152.37-.985-.132-.568-.35-.218-.765-.721.218-.35.217-.35.436-.701-.132-.569-1.18-1.223-1.399-.873-1.681-.807-.35-.218-.35-.219-.217.35-.218.35-.349-.218-.284.066-.217.35.396 1.706.112 1.771-.35-.218-.283.066-.502.416-.633-.152-.283.066-.152.634-.785.483-.415-.503.151-.634.502-.416.283-.066-.132-.569-.415-.503.283-.065-2.05.177-1.636.68-.765-.72-1.833-.173-1.069.548.066.284-.217.35-.416-.502-.567.132-.218.35-.283.066.218-.35-.066-.285-.066-.284-.633-.152-.567.132.217-.35-.066-.285.284-.066.283-.066.633.153.152-.635.152-.634.283-.066.218-.35-.066-.285-.284.066.568-.132.567-.132zm-44.275 25.579l.218-.35-.917-.087-.217.35.35.219.566-.132zm2.051-.178l-.283.066-.218.35-.983-.37.264 1.137-.085.919-.436.7-.066-.284-.066-.285-.066-.284-.784.482-.35-.218.218-.35.283-.066-.679-1.64-.567.132-.501.417.35.218-.218.35-.218.35-.567.132.066.284.066.285-.152.634.198.853.132.568.35.219-.72.766-.652 1.051.066.284.066.284.132.569 1.048.654.785-.482 1.57-.964 1.549.239 1.438-1.533 1.787-1.315-.066-.284.151-.634-1.463-1.158-.33-1.421-1.049-.655zm33.955 26.553l.198.853-.303 1.269.35.218.349.219-.568.132-.283.065-.284.066-.217.351-.284.066-.633-.153-.152.635-.217.35-.284.066-.066-.284-.066-.285-.35-.218-.5.416-.132-.568.217-.35-1.048-.655-.785.482-.218.35.066.284-.283.066.066.285 1.028 1.857.066.285.567-.132.568-.132.066.284.35.218 1.7-.395 1.418-.33-.369.984-.653 1.051-.151.634-.35-.218-.35-.218-.217.35-.567.132-.284.066-.283.066-.521 1.619-.521 1.619-.218.35-.435.701.066.284.066.284-.284.066.066.284.35.219.065.284.066.284.284-.066.218-.35.982.371.983.37-.436.701-.435.7.284-.066 1.2.02 1.068-.548.086-.918-.132-.569.218-.35.283-.066.218-.35.284-.066 1.266.304.982.371-.83-1.005-.765-.721.435-.7.567-.132-.633-.152-.7-.437.284-.066.218-.35.218-.35-.35-.219.284-.066.283-.066.284-.066.283-.066.066.285.35.218.916.086.633.153.066.284.35.218.218-.35.85-.198.917.086-.066-.284-.066-.284-.35-.218.436-.701-.132-.568-.983-.371-1.332-.589.436-.7.217-.35.152-.635-.066-.284.283-.066.218-.35.284-.066.283-.066.02-1.203-.33-1.421-.415-.503-.066-.284-.35-.218-.633-.153-.283.066-.218.351-1.616-.523-1.681-.807-.066-.285-.284.066-.283.066-.218.35zm-23.963-2.813l-.416-.502-1.2-.021-.132-.568-.983-.371-.764-.721-.74 1.97-.632-.153-1.135.264.548 1.071-.02 1.203.416.503.131.568-.587 1.335-.718.767 1.18 1.223 1.701-.396.35.218.066.285.37-.985.237-1.553.283-.066.567-.132.502-.416.283-.066.633.152.567-.132.7.437.982.37-.066-.284.284-.066.283-.066.284-.066.369-.985.152-.634-.765-.721-.198-.853-.416-.502-.85.198-.567.132-.7-.437zm46.974-4.935l-1.069.548-.217.35.066.284-.567.132-.634-.152-.567.132-.85.198-.35-.219-.283.066-.502.416-.151.635-.851.198-.917-.087.132.569-.217.35.132.569.131.568-.5.416-.568.132-.567.132-.066-.284-.85.198-.502.416-.303 1.269.046 1.487.066.284.283-.066-.217.351-.284.066-.283.066-.086.918.198.853.633.152.633.153.132.568.132.569.283-.066.567-.132.066.284.35.218.217-.35.35.218.765.721.481.787.35.218.633.152.284-.066.48.787.832 1.005.283-.066-.066-.284.35.218.066.285.283-.066.633.152.7.436.415.503.567-.132.218-.35-.132-.569.283-.066.502-.416-.35-.218-.066-.284.284-.066.283-.066-.066-.284-.349-.219.217-.35.502-.416-.066-.284.217-.351.284-.066-.066-.284-.066-.284.218-.35.283-.066-.066-.284-.066-.285-.066-.284.633.152.785-.482-.745-1.924-.066-.284-.283.066-.568.132-.349-.218.218-.35.501-.417-.198-.852-.198-.853.719-.766.719-.767.349.219.416.502-.218.35.132.569.567-.132.633.152.633.152.983.371.217-.35.568-.132 2.116.107 2.071-1.381-.699-.436-.851.198-.349-.219-.35-.218-.982-.371-.633-.152-.132-.568.086-.919-.568.132-.699-.437.218-.35-.066-.284-.349-.219-.284.066-.547-1.071-.765-.72-.35-.219-.283.066-.35-.218-.916-.086-.284.066-.567.132-.35-.219-.415-.502-.567.132-.218.35-.369.985zm-69.087-6.397l-.454.105-.02.304-.245.357-.227.053-.208-.252-.746-.125-.718-.133-.085.02-.048.31-.567.132-.416.397-.076.317-.133.33.529 1.375.887.992.378.212.35.218.075.582.226.846.614.456.434.199.54-.125.047-.311.16-.337.228-.053.226-.053.303-.37.454-.105.862-2.597-.16-.562.293-.668.284-.066-.35-.218-.066-.284-.132-.569-.066-.284-.425.099-.793-.714-.34.079-.332.377-.283.066z" fill="#E3E8EE"/><path d="M87.308 107.103l-.982-.37-.983-.371-.132-.569-.066-.284-.35-.218-.065-.284-.501.416.066.284-.587 1.335-.304 1.269.066.284.066.284-1.088 1.751-1.088 1.751-.501.417-.501.416-.653 1.05.897 1.29-.37.984.198.853.066.284-.653 1.051-1.352.614-.085.919.131.568-.85.198-.7-.436-.435.7-.369.985-1.418.329-.5.417.065.284-.086.919-.435.7.066.284.132.569.283-.066.35.218 1.266.305.983.37.283-.066.218-.35.284-.066.283-.066.066.284 1.682.808 1.615.522.218-.35.283-.066.633.153.35.218.066.284.415.503.72-.767.784-.482.633.152.7.437.283-.066.283-.066.35.218.699.437.719-.767 1.417-.329-.151.634.283-.066.284-.066.218-.35-.284.066-.066-.284-.046-1.488.303-1.268.501-.417.851-.197.066.284.567-.132.567-.132.502-.416-.132-.569-.132-.568.152-.635-.066-.284-.132-.568-.35-.219-.33-1.421-.263-1.137-.983-.37-1.049-.655.086-.919.02-1.203-.132-.568-.35-.219-.197-.852-.132-.569.02-1.203.303-1.269-.765-.721-.415-.502-1.313-1.792zm-49.328 6.382l-.632-.152.066.284-.284.066-.283.066-.284.066-.85.198-.502.416-.283.066-.35-.218-.218.35-.5.416-.398.092-.862 2.598.33.522.133.568.623-.145.719.133.046.588.246.542.633.153.85-.198.416.502.35.218.567-.132.217-.35 1.9.457.283-.066.284-.066.217-.35-.066-.284.35.218.567-.132-.416-.502-.567.132.502-.417.567-.132.217-.35.502-.416-.132-.568.151-.635-.132-.568-.633-.153-.283.066.217-.35-.066-.284-.066-.284-1.463-1.158-1.115-.939-.567.132zm-10.831.723l-1.2-.021-1.2-.02-.048.31-.198.047-.558.429-.454.106-.048.31.047.588-.614.443-.18.641.434.199.548.172.066.284.132.568.803.113.605.159.16.562.255.839.35.219.349.218-.02.304.132.568.227-.052.199-.046.15.264.2-.046.87-.502.405.205-.046-.588-.095-.278.076-.317.038-.608 1.06-.846-.227-.846-.075-.582-.35-.218-.377-.212-.954-1.276-.462-1.09zm84.673 9.662l-2.07 1.381-2.117-.107-.567.132-.218.35-.983-.371-.633-.152-.633-.152-.567.132-.132-.569.218-.35-.416-.503-.349-.218-.719.767-.719.766.264 1.137.132.568-.501.417-.218.35.35.218.567-.132.283-.066.066.284.811 2.208-.85.198-.633-.152.066.284.066.284.065.285-.283.066-.218.35.066.284.066.284-.283.066-.218.351.066.284-.501.416-.218.35.35.218-.218.351-.284.066.066.284.35.218-.501.416-.284.066.132.569.765.721.046 1.487.132.568.284-.066-.587 1.335.415.503.35.218.349.218.284-.066.217-.35.284-.066.066.284.283-.066-.066-.284.218-.35.198.853.264 1.137.501-.417-.066-.284.633.152.699.437.349.218.568-.132.066.285-.218.35-.633-.152-.369.984.415.503.501-.416 1.616.522.283-.066 1.003-.832.851-.198.435-.7.567-.132.086-.919.151-.634.218-.35-.066-.285-.481-.786-.416-.503-.046-1.487.435-.701-.349-.218-.132-.568.283-.066.284-.066.435-.701.501-.416.851-.198.284-.066-.132-.568-.416-.503.152-.634.501-.416-.066-.285-.066-.284.152-.634.218-.351-.132-.568-.35-.218-.415-.503.217-.35-.065-.284-.066-.285-.416-.502-.066-.284-.066-.285-.132-.568-.349-.218-.066-.285.283-.066-.065-.284-.132-.568.283-.066-.132-.569-.066-.284zM30.088 91.055l-.066-.284-.851.198-.501.416-.416-.502-.463-.192-.472.41-.454.105-1.286.898.462 1.09.482.788-.19.343-.34.08.038.29.009.298-.785.482-.01.601-.378.688.188.555.5.483.464.191 1.72.2 1.625-.079.605.159.35.218.784-.482.785-.482.217-.35.218-.35.983.37.765.72.283-.065.35.218.633.153.217-.35.284-.067.633.153.416.502.283-.066.633.153-.198-.853-.197-.853-.35-.218-.283.066-.066-.284-.284.066-.132-.569.086-.919-.765-.72-.416-.503-.197-.853-.7-.436-.065-.285-.35-.218-.567.132-.567.132-.132-.569-.132-.568-.35-.218-.349-.219-.066-.284-.501.416-.501.417-.633-.153z" fill="#E3E8EE"/><path d="M32.6 117.733l-.454.105-.303.37-.227.053-.227.053-.16.337-.048.311-.539.125-.435-.199-.614-.456-.557.43-.502.416-.038.608-.076.317.16.562-.019.304-.406-.205-.87.502.302.529.671.443.86.099.747.126.065.285-.028.006.321.225.34-.079.388.509-.02.304.841.404.964.674.473-.409.387-.39-.679-1.64.729-1.368 1.05-1.143-.246-.542-.046-.588-.719-.132-.623.145-.132-.569-.33-.522z" fill="#E3E8EE"/><path d="M23.747 117.696l-.066-.285-.548-.172-.435-.198-.709.165-.113.026-.17.04-.142.033-.133.33-.642-.45-.407.694-.218.35-.576-.165-.02.304.01.297-.577.734.68.74.85.701-.02.304-.075.318.142-.033.15.264-.14.033-.077.317.67.444.653-.152.17-.04.199-.046.387.509.378.212 1.464.258 1.9.457.32.225.388.509.265-.661.18-.641.435.199.34-.079.085-.02-.066-.284.104-.324-.122-.271-.671-.443-.302-.529-.199.046-.15-.265-.2.047-.226.052-.066-.284.02-.304-.416-.502-.35-.219-.254-.839-.16-.562-.605-.159-.803-.113-.132-.568zm66.126 9.482l-1.352.614-.785.482-.699-.437-.35-.218-.283.066-.283.066-.7-.437-.632-.152-.785.482-.719.767.33 1.421-.02 1.203-.284.066-.283.066-.218.35-.283.066.066.284-.152.635-.218.35-.435.7 1.332.589.983.371.132.568-.502.416.35.219.066.284.066.284.066.284 1.484-.045 1.483-.046.633.152.35.219.218-.35.217-.351.567-.132.917.087.35.218 2.334-.243 2.334-.244.218-.35.218-.35.283-.066.633.152.218-.35.284-.066-.831-1.005-.482-.787-.283.066-.633-.152-.35-.219-.481-.786-.765-.721-.35-.218-.217.35-.35-.219-.066-.284-.567.132-.284.066-.131-.568-.132-.569-.633-.152-.633-.152-.264-1.137.151-.635.152-.634zM.217 89.317l.68-.159-.68.159zm1.21-.582l.274-.363-.274.363-.246.357.028-.006.218-.35zm3.005.2l-1.682.092-.529-.476-.52-.179-.274.363-.218.35.114-.026.51.78-.719-.132-.916-.086 1.718 1.996L3.74 93.29l1.058.953.142-.033.113-.027.246-.356.927-.516-.717-1.93-.283-.833L5 89.702l-.208-.251-.17.04-.199.046-.246.356-.246.357-.642-.45-.33-.522.141-.033.199-.046.879-.204.255-.06zm43.381 19.267l-.633-.152-.633-.152-.415-.503-.416-.503-.217.351-.501.416-2.25-.675-1.549-.239-1.286.898.482.787-.02 1.203.567-.132.567-.132.416.503.415.502 1.048.655.284-.066.132.569.066.284.633.152.633.152.284-.066.35.219.217-.35.435-.701.633.152.633.153.501-.416.152-.635.501-.416.284-.066-.066-.284-.765-.721-.85.198.217-.35.151-.635z" fill="#E3E8EE"/><path d="M21.406 110.45l-.217.351-.312.072-.199.046-.085.02-.284.066-.283.066-.605-.159-.595.139-.68-.741-.917-.086-.19.343.048.589-.104.323-.199.047-.293.667-.322.674-.124.628-.198.046.293.232.009.297.17-.04.775.12.473-.41.32.225.303.529.605.159.52.179.878.694.283.833-.237.654.141.866.407-.694.642.45.133-.33.076-.318.236.245.113-.026.643-.449.246-.357.615-.443-.047-.588-.019-.595.52.179.558-.43.198-.046.048-.31-.916-.986.152-.634.387-.39-.613-1.355-.434-1.098-.926.516-.993.23zm16.307 31.258l-.368.086-.378-.212.01.298-.058.013-.292-.231-.369.085-.416.397.415.502.368.813.407.206.292.231-.302.37-.124.628.283.833.416.502.737-.171.727.43-.482.112-.558.429.188 1.454.15 1.164-.954.522-1.05.244.123.271.35.218-.048.311-.019.304.35.218.264.238-.898.508-.058.913.18.257.113-.026.227-.053.227-.052.264.238.265.238.066.284.085-.02.085-.02.113-.026.01.297.056-.013.199-.046.104-.324.954.377.095.278.028-.007.246-.356.085-.02.057-.013.009.297.132-.33.218-.351.236.245.038.291-.161.337-.048.311.275-.364.274-.363.662-.753.757-.476.207.251-1.038-2.155.17-.04.473.49.567-.132-.178-2.056-.528-2.274-.699-.436-.586-.463-.217.35-.35-.218.058-.912.35-.681-.311-.826-.482-.787.549-.727-.416-.502-.301-.529-.917-.087-.907.211zM29.16 156.88l-.18-.258-.359.383-.558.429-.255.06.293.231.69.139-.266 1.56-.029.007-.028.006-.048.311-.841.495-.86-.099-.18-.258-.17.04-.368.085-.142.033.151.265.01.297.396-.092.586.463.274.535.122.271.378.212.444.496.53-.423.623-.145.378.212.048-.311.142-.033.425-.099.454-.105.151-.635.285-.965.642-.449.558-.429-.047-.589-.273-.535-.482.112-.482.112-.038-.291.02-.304-.37.086-.462-.192-.095-.277-.122-.271-.142.033-.284.065-.226.053-.293-.231zm40.445-42.362l-.634-.153-.35-.218-.065-.284-.35-.218-.283.066-.284.065-.633-.152-.699-.436-.936 1.116-.238 1.553-.5.417-.568.131-.283.066-.634-.152-.369.985-.02 1.203-.217.35-.568.132-.02 1.203-.085.919.35.218-.284.066-.501.416.35.218.283-.066.699.437.567-.132.284-.066.066.284.283-.066.35.218.5-.416-.065-.284-.35-.218.502-.416.633.152-.284.066.132.568.132.569.217-.35.633.152-.718.766-.851.198.415.503.284-.066.699.436.415.503.633.152.502-.416.784-.482.785-.482-.415-.503-.482-.787-.283.066-.218.351-.33-1.422.218-.35.284-.066.217-.35-.066-.284.35.218.218-.35.54-2.822.258-2.756z" fill="#E3E8EE"/><path d="M26.766 157.137l-.36.383-.34.079-.292-.231-.284.066-.246.356-.236-.244-.293-.232-.558.43-.586.436-.321-.225-.255.059.755 1.322.16.562.888.093 1.059.054.142-.033.368-.086.596-.139.029-.905-.35-.218.18-.642.322-.674.142-.033.085-.019.69.139-.312-.827-.84-.403-.209.648.066.284zm21.853-37.738l-.785.482-.501.416-.284.066-.066-.284-.501.416-.501.416-.831-1.005-1.029-1.857-.633-.153-.567.132-.35-.218-.699-.437.066.285.132.568-.5.416-.219.35-.567.132-.567.132.633.153.416.502-.633-.152-.284.066.066.284-.501.416.765.721.699.437.217-.351.218-.35.83 1.005 1.247 1.508.567-.132.436-.701 1.048.655 1.266.305 1.135-.264.633.152.738-1.969.02-1.203-.283.066-.066-.284-.284.066-.35-.219.218-.35-.35-.218zM47.11 65.226l-1.464-1.157-.389 2.187-.804 1.685-.284.066-.567.132-.719.767-.284.066.066.284-.217.35-.785.482-.086.919.35.218-.218.35-.653 1.051-.02 1.203-.784.482-.851.198.178 2.056.244 2.34-3.554 1.426-3.904 1.207.131.569.765.72-.066-.284.35.219.283-.066.851-.198.85-.198.218-.35.944 2.776-.126 3.325.567-.132.567-.132.568-.132.35.218.566-.132-.415-.502-.066-.285.283-.066.7.437.698.437.567-.132.35.218.547 1.071.35.218.086-.918-.614-1.356-.046-1.487.066.284.284-.066.151-.634.152-.634.198.852.284-.066.085-.918.152-.635.066.284.066.285.066.284.151-.635.218-.35-.086.919-.303 1.269.283-.066.152-.635.066.285.633.152.304-1.269-.066-.284-.284.066.066.284-.066-.284-.066-.285-.218.35.086-.918.086-.919.877 2.493-.956 2.32-.086.918-.02 1.203.284-.066.283-.066.7.436 1.048.655.218-.35.217-.35.284-.066.066.284.369-.985.086-.918-.066-.284.435-.701.435-.7-.765-.721-.547-1.071.435-.7.152-.635.086-.919.085-.918.35.218.35.218.5-.416.436-.7-.132-.569.152-.634-.132-.569-.066-.284-.284.066-.283.066-.198-.853-.132-.568.218-.35.804-1.686.152-.634.086-.919.283-.066.35.218.435-.7.218-.35.066.284.283-.066-.112-1.771-.963-1.574.284-.066.567-.132-.415-.502-.416-.503.218-.35-.284.066-.35-.218-.784.482-.482-.787.086-.919-1.464-1.157zm-10.852 77.42l-.416-.503-.453.106-.397.092-.132-.568-.491-.185-.067.614-.237.654-1.18-.324-1.258.892-.105.324.548.172.851-.198-.2.945-.661.753.009.297.01.298-.71.165-.737.171-.095.622-.246.356-.113.027-.208-.251-.36.383-.576-.166-1.34-1.785-1.418-.569-.7.462-.954.522.264.238.284-.066.037.291.123.271.274-.363.369-.086.151.264-.104.324.794-.185.907-.211.453.794.359.515.557.47.472.489.047.589.085.879.302.529.529.476.981 1.269.557 1.369.264.238.52.178 1.18 1.224.794.714.312-.073.264.238.161-.337.17-.039.747-.773.87-.502.133-.33.283-.066-.066-.285-.264-.238-.264-.238-.227.053-.227.053-.18-.258-.113.026.057-.912.899-.508-.265-.238-.35-.219.02-.304.047-.31-.35-.219-.122-.271 1.05-.244.954-.522-.15-1.163-.188-1.454.558-.429.482-.113-.727-.43-.738.172-.415-.503-.283-.833.123-.627.303-.37-.293-.232-.406-.205-.368-.813z" fill="#E3E8EE"/><path d="M28.104 157.725l-.293-.231-.368.086-.151-.265-.142.033-.322.674-.18.641.35.218-.03.906-.359.383.973.073.842-.495.047-.311.057-.013.332-1.275-.756-.424zm111.34-8.825l-.284.066-.349-.218-.35-.219-.217.351-.284.066-.349-.219-.699-.436-.785.482-.152.634.416.503-.436.7-.349-.218-.567.132-.284.066-.349-.218-.35-.219-.151.635-.152.634-.284.066-.283.066-.218.35-.218.351-.85.198-1.134.263-.502.417-.217.35-.633-.153-.502.417.699.436.699.437.066.284.132.568.066.285-.85.198.896 1.289 1.115.939.481.787.482.787.349.218.284-.066.633.152.349.218 1.069-.548.784-.482.066.284-.217.351 1.879 1.66.567-.132.567-.132.502-.417.151-.634 1.484-.046.284-.066.283-.066.284-.065.217-.351.284-.066.349.219.37-.985.151-.634-.415-.503-.066-.284-.567.132-.066-.285.719-.766.567-.132-.132-.568-.633-.153-.132-.568-.132-.569-.283.066-.35-.218-.198-.853-.547-1.071-.218.35-.501.417-.916-.087-.765-.72.217-.351.218-.35-.066-.284-.132-.569.501-.416.435-.7-.131-.569-.066-.284-.284.066zm-67.949-24.936l-.35-.219-.065-.284-.85.198-.917-.086-.785.482-.785.482-.567.132-.567.132-1.003.832-1.068.548-.35-.218.066.284-.217.35.35.219.131.568-.151.635-.218.35-.567.132.066.284-.152.635-.303 1.268-.086.919.198.853.198.853.35.218.349.218.066.284.35.219.283-.066-.086.918.132.569.415.502.066.285-.283.066-.284.066.481.786.482.787.284-.066.435-.7.916.086-.369.985-.435.7.35.218.349.219-.238 1.553.284-.066.415.502.35.219.567-.132.567-.132.633.152.35.218 1.2.021.303-1.269.568-.132.151-.634-.066-.285.284-.066-.066-.284-.066-.284.435-.701.218-.35.52-1.619.522-1.619.283-.066.284-.066.501-.416.284-.066.633.152.066.284.151-.634.653-1.051.37-.984-1.484.045-1.636.68-.35-.218-.065-.284-.567.132-.567.132-.066-.285-1.03-1.857-.065-.285.283-.066-.065-.284.217-.35.785-.482.983.37-.152.635.132.568.501-.416.35.218.065.285.066.284.284-.066.218-.35.151-.635.633.153.284-.066.217-.351.284-.065.284-.066.567-.132-.35-.219-.35-.218.304-1.269-.198-.853-.283.066-.983-.37-1.266-.305-.35-.218-.283.066-.132-.569-.066-.284-.567.132-.567.132-.066-.284-.481-.787-.284.066-.35-.218zm-52.54 22.409l-.34-.82-.7.462-1.03-.06-.585-.463-.35-.218-.16.337.15.265.208.251.642.45.586.462.17-.039.123-.628.312-.073.396.807.113.873-.652.151-.454 1.005.122.271.151.264-.217.35-.369.086-.01-.297-.178-.258-.161.337-.284.066-.047.311.538.773.699.437.5-.417.172-.938.255-.059.16-.337.238-.655.558-.429.046.588.019.595.283-.066.17-.039.076-.318.076-.317.104-.324.275-.363-.614-1.355-.991-.668zM3.957 138.64l.494-1.256-.914-1.312-.634-.185-.151-.364 1.314-.237 1.424-.041 1.092.555-.423-1.077.918.669.18.362 1.027.573.652.956-.131.933.225 1.652.567.022.38-.148.23.459.548-.008.905.758-.838.207-.186.582-1.413-.71-.43-.613-.664.09-1.461-.211-.974-.075-1.174.31-.563-1.891z" fill="#E3E8EE"/><path d="M4.523 140.531l-.835-.332-.495-.967.767-.592.563 1.891zm78.664-57.633l-2.031-1.026-1.682-.807-.567.132-.567.132-.35-.218-.217.35-.501.416-2.335.243-1.985.462-.587 1.335-.587 1.335-.086.919.568-.132.349.218-.086.919-.085.918.415.503.066.284-.218.35-.217.35-.35-.218-.699-.436-.283.066-.218.35-.35-.218-.066-.285-.283.066-.567.132-.35-.218-.5.416-.35-.218-.132-.569-2.315-.96-2.183-.39.33 1.421.83 1.005.33 1.421-.369.985.132.569.416.502-.785.482-.567.132-.587 1.335-.02 1.203.35.218.283-.066.218-.35.35.218.632.153-.066-.285.152-.634.785-.482.35.218.217-.35.283-.066.416.503.415.502-.87 1.4-1.154 1.468-.086.918-.152.635-1.57.964-.566.132-.502.416-.52 1.619.131.569.066.284-1.068.548-.37.985.7.436.415.503.132.568.482.787-.218.35.132.569.718-.767.436-.7.283-.066.284-.066-.066-.284 1.266.304.917.087 1.068-.548.85-.198.067.284.5-.416-.48-.787.237-1.553 1.833.173.284-.066.283-.066.7.436-.152.635.982.37.502-.416.764.721.634.152.567-.132.785-.482.349.218.066.285.218-.35.567-.132.283-.066.35.218.501-.416.785-.482 2.097 1.309 2.901-.375-.066-.284.502-.417.151-.634.086-.919.567-.132.152-.634-.35-.218-.066-.285.304-1.269.303-1.269.87-1.4.871-1.401-.112-1.772.218-.35.5-.416.218-.35.284-.066.501-.416.567-.132.066.284.416.502.501-.416.501-.416.501-.416-.066-.284.785-.482L93 91.7l.851-.198.633.152.653-1.05.785-.483-.066-.284.435-.7.85-.198 1.07-.549.283-.066.283-.066.284-.065.284-.066.217-.35.152-.635 1.286-.898.936-1.117-.481-.787-.765-.72.02-1.204.283-.066.218-.35-.633-.152-.284.066-.283.066-.218.35-.501.416-.501.416-.502.417-.5.416-.284.066-.35-.218-.152.634.066.284-1.853 1.03-1.635.68-.35-.218-.35-.218-9.693-3.137z" fill="#E3E8EE"/><path d="M61.921 100.726l-1.483.046-.436.7-.936 1.117-.633-.152-.502.416.132.568.35.219.567-.132.284-.066-.218.35-.218.35.416.503-.435.7-.152.635-.086.918.198.853-.501.416-.284.066-.283.066-.284.066-.284.066.066.284-.633-.152-.283.066-.719.766-.501.417 1.114.939 1.115.939-.218.35-.501.416-.501.416-1.267-.304-.217.35-.152.634-.217.35-.218.351.35.218.349.218.415.503.851-.198.284-.066.35.218.283-.066.283-.066.35.219.633.152.066.284.217-.35.568-.132.066.284-.152.635.35.218.283-.066.132.568.066.285.066.284.35.218-.218.35-.218.351.917.086-.086.919.132.568.283-.066.066.284-.283.066.481.787.633.152.086-.918.02-1.203.567-.132.218-.35.02-1.203.369-.985.567-.132.35.218.566-.132.502-.416.171-1.837 1.002-.832.7.436.633.152.283-.066.284-.065.35.218.065.284.35.218.567-.132.218-.35.5-.416.086-.919.218-.35-.699-.436-.198-.853 1.22-1.183.587-1.335-1.332-.588-1.398-.874-.066-.284-.85.198-1.069.548-.917-.086-1.266-.305.066.284-.283.066-.284.066-.435.701-.72.766-.131-.568.218-.351-.482-.786-.132-.569-.415-.502-.7-.437.37-.985 1.069-.548-.066-.284-.132-.568.52-1.619-.698-.437-.482-.787.066.284zm-17.029 21.936l-.435.701-.567.132-1.247-1.508-.83-1.005-.218.35-.218.351-.983-.371-.48-.787-.568.132-.218.35-.151.635-.218.35.35.218.131.569-.5.416.48.787.33 1.421-.217.35-.502.416.7.437.982.371.416.502.35.218.566-.132.35.219.35.218.065.284.983.371.567-.132.35.218.131.569.785-.483.567-.131.633.152.35.218.719-.766.587-1.335-.132-.569-.416-.502.02-1.203-.547-1.071-1.267-.305-1.048-.655z" fill="#E3E8EE"/><path d="M37.729 120.135l-.218.35-.567.132-.35-.218-.415-.503-.85.198-.634-.152-1.05 1.143-.728 1.368.679 1.639-.388.39-.473.41.293.231.35.218-.01.602-.02.304.577.165.661.146.444.496.416.502.198-.046.227-.052.01.297.434.198 1.229-.885 1.286-.898.501-.416.218-.35-.33-1.422-.481-.786.217-.351.152-.634-.35-.218.218-.35.152-.635.217-.35-1.615-.523zm16.476-65.547l.032.142-.468.558-.93-.143-.613-.067-.23.293-.495.445-.39-.389-.29.038-.586.046.059.256.073.313-1.003.832-.587 1.335.066.284.066.285.046 1.487-.02 1.203-.784.482-1.135.264-1.371 1.817 1.464 1.157 1.18 1.223.198.853.481.787.785-.482.35.218.283-.066.35.218-.132-.568-.132-.569.151-.634-.065-.284-.066-.285-.132-.568.83 1.005.067.284-.284.066.132.569.198.852.283-.066.284-.066.613 1.356-.283.066.066.284.35.218.283-.066.132.569.197.853.765.72 1.115.94 1.18 1.223.831 1.005 3.034.193 1.635-.68 1.286-.899.218-.35-.132-.568.435-.7.37-.985-.416-.503-.35-.218.086-.919.086-.918-.284.065-.283.066-.198-.852-.198-.853-.35-.218.066.284-.745-1.924-.461-1.99-.198-.852-.066-.285-.416-.502-.283.066.218-.35-.35-.219-.066-.284-.283.066-.284.066-.481-.787-.416-.502-.633-.153-.501.417-.35-.219.502-.416.435-.7-.633-.153-.284.067.284-.066.217-.35-.35-.219-.632-.152.283-.066.218-.35-.35-.219-.066-.284.7.437.916.086-.481-.787-.548-1.07.066.283-.283.066-.284.066-.283.066.066.285-.35-.219-.066-.284-.415-.503-.066-.284-.218.35.066.285-.567.132-.475-.759-.006-.028zM28.893 82.046l-.5.416.349.218.35.219.566-.132.35.218-.284.066-.217.35.066.285-.284.065-.066-.284.33 1.421.415.503.567-.132.917.086.831 1.005-.37.985-.718.766-1.266-.304-.482-.787.086-.919-.699-.436-.218.35-.35-.218-.349-.219-.35-.218-.217.35-.283.066-.132-.568-.34.079-.133.33-.36.384.142-.033-.208.647-.576-.165-.416.396-.511.119.481.787.36.515.415.503.387.509.065 1.183.623.754.425-.099.502-.416.463.192.415.502.501-.416.851-.198.066.284.633.153.501-.416.501-.417.066.285.35.218.35.218.131.569.132.568.567-.132.567-.132.35.219.066.284.765.72.132.57.415.502.765.72.85-.197.634.152.218-.35.217-.35.567-.133.218-.35-.284.066-.066-.284.218-.35-.066-.284-.066-.285-.066-.284.719-.766.785-.483.435-.7-.066-.284.218-.35.567-.132.283-.066.502-.416-.35-.219-.547-1.07-.35-.219-.567.132-.699-.437-.699-.436-.283.066.066.284.415.503-.567.132-.35-.219-.567.132-.567.132-.567.132-.284.066-.35-.218-.434.7-.785.482-.765-.72-.85.197-.634-.152-.35-.218.284-.066.152-.635.152-.634.237-1.553.587-1.335-.132-.569-.066-.284-.765-.72-.198-.853-1.985.461-1.484.046z" fill="#E3E8EE"/><path d="M47.9 94.401l-.284.066-.633-.152-.066-.284-.066-.285-.35-.218-.283.066-.264-1.137.152-.634.085-.92.086-.918-1.048-.655-.7-.436-.283.066-.284.066.066.284-.784.482-1.069.548-.35-.218-.415-.503-.567.132-.217.35.066.285-.436.7-.785.482-.718.767.066.284.066.284.066.284-.218.35.066.285.283-.066-.217.35-.567.132-.218.35-.218.35-.633-.152-.85.198-.086.919.132.568.283-.066.066.285.284-.066.35.218.197.853.198.852.85-.197 1.2.02.067.284.066.284.066.285.198.852.217-.35.917.086-.198-.852.086-.919.35.218-.152.635.263 1.137.983.37.218-.35.283-.066 1.049.655.33 1.421 1.463 1.158 1.069-.549-.066-.284.217-.35.917.086.917.087.217-.351.218-.35.066.284.066.285.283-.066.35.218.066.284.132.569 1.2.02.066.284.35.219.633.152.415.503.415.502 2.315.959.284-.065.217-.351.633.153.284-.066.218-.351.217-.35.633.153.416.502.435-.7-.415-.503.217-.35.218-.35-.284.066-.567.132-.415-.503-.066-.284.5-.416.568-.132 1.002-.833.436-.7-.548-1.071-.633-.152-.132-.569-.066-.284-1.134.264-.567.132-1.114-.94-.765-.72-.502.416-.85.198-.066-.284-.132-.569-.567.132-.35-.218-.35-.218-.065-.285-.35-.218-.35-.218-.283.066-.066-.284-.567.131-.785.483-.132-.569-.35-.218-.349-.219-.35-.218-.349-.218-.283.066-.066-.284-.416-.503z" fill="#E3E8EE"/><path d="M50.316 102.228l-.35-.218-.283.066-.066-.284-.066-.285-.218.351-.217.35-.917-.087-.917-.086-.217.35.066.285-1.069.548-.151.634.066.284-1.788 1.315-1.437 1.533 2.248.675.502-.416.217-.351.416.503.415.502.633.153.633.152-.151.635-.218.35.85-.198.766.721 1.266.304 1.134-.264.435-.7.218-.35 1.049.655.132.568.283-.066.284-.066 1.2.021.501-.417.719-.766.283-.066.633.152-.065-.284.283-.066.284-.066.283-.066.284-.066.501-.416-.198-.853.086-.918.152-.635-.416-.502-.633-.153-.218.351-.217.35-.284.066-.633-.153-.217.351-.284.066-2.315-.96-.415-.502-.416-.503-.633-.152-.35-.218-.065-.285-1.2-.02-.132-.569-.066-.284zM25.374 88.257l-.36-.516-.48-.786-.426.998-.52.72-.143.033-.737.171-.322.674.265.238.207.251-.227.952-.463-.192.047-.31.02-.304-.17.04.009.297-.284.066-.293-.232-.444.403-.539.125.066.285.113-.027.038.291-.086.919-.52.72-.643.45.123.27.094.278-.511 1.018-.672 1.354-.028.007.094.278.293.23.35.22-.048.31.037.29.255-.059.5.483-.142.932-.16.337.425-.099.293.231.482-.112.84 1.303.132.568.208.252.595-.139.529.476.605-.74.577-.733-.027-.892-.132-.569.189-.344.19-.343-.208-.251-.029.006.331-.376.388-.39-.189-.556.379-.687.01-.601.785-.482-.01-.298-.037-.29.34-.08.19-.344-.482-.786-.462-1.091 1.286-.898-.623-.754-.066-1.183-.387-.51-.415-.502zm61.581-23.911l-.132-.569-.567.132.132.569.35.218-.02 1.203.653-1.05-.066-.285-.35-.218zm5.072-7.77l-.917-.087-.85.198.065.284.066.284-.284.066.067.285.065.284-.633-.153-.85.198.066.284.066.285.349.218-.283.066.065.284-.217.35-.719.767-.435.7-.35-.218-.066-.284-.35-.218-.5.416-.436.7-.085.919.197.852.284-.066.284-.065.066.284.217-.35.218-.35.066.284-.152.634.699.437-.02 1.203.35.218.415.502-.283.066-.284.066-.35-.218.067.284-.218.35-.284.066.132.569.416.502.567-.131.415.502.132.569.284-.066.283-.066-.066-.285.284-.066.415.503.416.502.35.219-.067-.285-.066-.284.218-.35.132.569.765.72-.066-.284-.066-.284.35.218.567-.132-.482-.787-.481-.786-.33-1.422-.046-1.487.02-1.203.303-1.269.284-.066.151-.634.152-.635.152-.634.35.218.5-.416-.066-.284-.349-.218.284-.066.633.152.217-.35-.066-.285-.283.066-.35-.218.917.087-.132-.569.284-.066.283-.066-.481-.787-.7-.436-.065-.284-.35-.219-.567.132-.283.066zm5.07-7.771l-.434.7.066.284.283-.066.066.285.35.218-.567.132-.502.416.284-.066.35.218.065.285.35.218-.633-.153-.917-.086-.218.35.416.503-.284.066-.283.066-.567.132.35.218.065.284-.284.066-.349-.218.132.568.415.503-.35-.218-.698-.437-.501.416.132.569-.066-.285-.633-.152-.502.416-.217.35-.35-.218.765.721 1.2.02.066.285-.85.198-.851.198-.501.416.066.284.283-.066.567-.132.7.437.415.502.217-.35.198.853.633.152.218-.35.066.284.218-.35.5-.416-.415-.503-.066-.284-.066-.284.482.786.567-.132.218-.35-.416-.502-.35-.218-.065-.285.633.153.415.502.066.284.152-.634.151-.635-.349-.218-.066-.284.284-.066-.066-.284.283-.066.066.284.132.568.132.569.218-.35.217-.35.501-.417.37-.984-.35-.219-.066-.284.284-.066.132.569.633.152.217-.35.152-.635.481.787.218-.35-.132-.569.284-.066.066.285.066.284.501-.416-.066-.285.349.219.218-.35-.066-.285-.349-.218.283-.066.284-.066.501-.416.785-.482.066.284.217-.35.284-.066.785-.482.85-.198.567-.132.284-.066 3.119-.726 2.77-.944.719-.766.369-.985.435-.7-.481-.787-1.55-.238-1.569.964.066.284-.218.35-.284.066-.065-.284-3.687.858-1.048-.655-.633-.153-.152.635-.785.482.284-.066-.066-.284-.567.132-.502.416-.633-.152-.85.197-.502.417-.283.066-.284.066.066.284-.85.198.131.568-.217.35-.35-.218-.35-.218-.217.35-.218.35-.5.416-.067-.284-.415-.502zM63.387 76.12l-.284.066-.217.35-.85.198-.786.482-.633-.152-.35-.218-.784.482-1.134.263-.937 1.117-.02 1.203-.02 1.203-.283.066-.35-.218-.349-.219.066.285-.283.066-.634-.153-.481-.787-.765-.72-.633-.153-.218.35-.066-.284.218-.35.567-.132-.613-1.355-1.115-.94-.5.417-.502.416.244 2.34.284-.066.633.152-.37.985-.652 1.05-.35-.218-.284.066.066.285-.765-.721-.83-1.005-.436.7-.501.416-.35-.218-.349-.218-.086.919-.085.918-.152.635-.435.7.547 1.071.765.72-.435.701-.436.7.066.285-.085.919-.37.984-.35-.218-.217.35-.218.35-.085.92-.086.918-.152.634.264 1.137.284-.066.35.219.065.284.066.284.633.152.284-.066.415.503.066.284.284-.066.35.219.349.218.35.218.349.218.132.569.85-.198.502-.416.065.284.284-.066.35.218.349.219.066.284.415.502.284-.066.633.153.066.284.066.284.85-.198.502-.416.765.721 1.18 1.223.501-.416 1.135-.264.066.285.198.852.567-.132.547 1.071 1.484-.045.415.502.7.437.5-.416.568-.132 1.57-.965.15-.634.087-.919 1.154-1.466.87-1.401-.415-.503-.416-.502-.283.066-.218.35-.284.066-.85.198-.152.634.066.284-.567.132-.35-.218-.283.066-.284.066-.35-.218.02-1.203.587-1.335.568-.132.784-.482-.415-.503-.132-.568.37-.985-.33-1.421-.831-1.005-.264-1.137 2.117.107 2.314.959.198.853.35.218.435-.7.416.502.5-.416.284-.066.066.284.35.219.217-.35.284-.067.699.437.35.218.217-.35.218-.35-.066-.284-.35-.219.02-1.203.086-.918-.35-.219-.567.132.086-.918.587-1.335.587-1.335-.7-.437-.632-.152-.568.132-.5.416.065.284-.567.132-.066-.284-.35-.218-.415-.503-1.246-1.507-1.53-1.442-.132-.569-.066-.284-1.154 1.467.152-.634-.35-.219-.35-.218.502-.416-1.662-2.01zm50.38-14.716l-.066-.285-.283.066-.284.066-1.286.899.198.852 1.2.02.785-.481-.066-.285-.132-.568-.066-.284zm5.335 6.248l-.263-1.137.085-.918-.132-.569-.349-.218-.086.918.046 1.488-.653 1.05-1.351.614-.218.35-.284.066-.151.635-.218.35-.218.35-.217.35.066.285.349.218.066.284-.152.635.548 1.07.264 1.138-.653 1.05-.436.7-.085.92-.152.634-.152.634.132.569.132.568-.152.635-.085.919.567-.132.283-.066.35.218.349.218.502-.416.567-.132 1.965.741 1.246 1.508.066.284-.217.35.481.787.198.853-.284.066-.283.066-.719.766-.086.919 1.398.873.983.37-.567.132-.633-.152-.502.416-.283.066-.066-.284-.132-.569-.415-.502-.066-.284.151-.635-.132-.568.218-.35.218-.35-.284.065-.066-.284.218-.35-.066-.284-.198-.853-.415-.503-.132-.568-.132-.569-1.418.33-1.702.396-.369.985-.151.634.197.853-.105 2.122-.435.7-.785.482-.086.919-.435.7-.785.482-.719.767-.633-.153-.218.35-.369.985-.851.198-.065-.284-.35-.218-1.2-.02-.983-.371-.633-.153-.415-.502-.482-.787-.198-.853 1.267.305 1.549.239-.217.35-.567.132.066.284.982.37 1.134-.263-.131-.569.151-.634.284-.066.501-.416.218-.35.283-.067-.066-.284-.066-.284 1.003-.832 1.002-.833.086-.918-.132-.569.719-.766.369-.985-.831-1.005-.679-1.64.521-1.618.237-1.554.172-1.837.217-.35.218-.35.455-1.904-.613-1.355-.33-1.421.871-1.401 1.042-3.238-.132-.569-.066-.284-.765-.72-1.55-.24-.633-.152-.633-.152-.284.066.218-.35-.284.066-.066-.285-1.022 2.036-.956 2.32-1.873 2.232-1.503 1.249.283-.066-.152.634-.283.066-.152.635.567-.132.35.218-.369.985-.304 1.269.132.568-.152.635-.349-.219-.284.066-.435.7-.086.92.066.284.218-.35.283-.067.416.503.415.502.284-.066.132.569-.218.35.33 1.421.699.437.066.284-1.24 2.386-.567.132.218-.35-.066-.285-.35-.218-.349-.218-.746-1.924-.765-.72-1.114-.94.284-.066.699.437.065.284.066.284-.066-.284-.83-1.005-1.333-.589-.501.416-.151.635-.284.066.765.72.415.503.132.568-.435.7-.435.701-.02 1.203.765.72.481.788-1.002.832-1.22 1.183-.218.35-.151.634-.284.066-.284.066-.283.066-.284.066-1.068.548-.85.198-.436.7.066.285-.785.482-.719.766.066.284-.633-.152-.85.198.481.787.132.568.415.503.066.284-.435.7-.02 1.204-.567.131-.152.635.416.502.917.087-.152.634.415.503.284-.066.284-.066.283-.066.35.218.5-.416.568-.132.066.284.35.219.217-.35.284-.067.916.087.983.37.35.219.632.152-.217.35-.502.416.765.721 1.049.655.501-.416.501-.416.917.086.284-.066.217-.35.567-.132.066.284.35.218.283-.066.699.437-.217.35-.152.635.198.852.415.503.699.436.264 1.137.198.853 1.484-.046 1.352-.614.765.721.481.787.699.437.633.152 1.484-.046 1.332.589 1.616.523.481.787.765.721.851-.198 1.134-.264.633.152.633.152 1.57-.964 1.002-.832.284-.066.066.284.132.569 1.048.654.567-.131.567-.132.765.72.765.721.567-.132.568-.132.699.437.764.721 1.221-1.183.586-1.335.152-.634-.066-.284.218-.351.151-.634-.633-.152-.349-.219-.132-.568.218-.35.567-.132.738-1.97-.112-1.771-.481-.787-.501.416-.633-.152-.416-.503-.567.132-.481-.786.283-.066.152-.635-.132-.568-.066-.284-.132-.569-.066-.284-.066-.284-.916-.087-.482-.787-.461-1.99.019-1.202-.613-1.356-.481-.786-.35-.219-.066-.284.436-.7-.066-.284-.35-.219-.132-.568-.066-.284-.066-.285 1.003-.832.237-1.553-.178-2.056-.046-1.487-.35-.218-.349-.219-.066-.284-.349-.218-.436.7-.567.132-.283.066-.699-.436-.983-.37-.481-.788-.416-.502-.132-.569-.066-.284.501-.416-.065-.284.217-.35 1.003-.833.435-.7.633.152.567-.132-.046-1.487-.396-1.706-.633-.152-.699-.436-.132-.569-.132-.568.567-.132.284-.066.435-.7-.198-.854-.699-.436-.699-.437-.415-.502-.415-.503-.851.198-.719.767.284-.066.283-.066.416.502.131.569-1.2-.02-.481-.787-1.068.548-.02 1.203.547 1.07.765.721.567-.132.699.437.046 1.487-.415-.502-.416-.503-1.899-.457-1.681-.807.217-.35.304-1.269-.416-.502.653-1.051.369-.985zm3.251-.157l.218-.35-.132-.569-.349-.218-1.286.898 1.266.305.283-.066zm-3.824-3.604l-1.201-.02.482.786.283-.066.152-.634.284-.066zm1.088-1.751l.349.218.218-.35-.633-.152-.218.35.284-.066zm39.218 80.153l-.568.131-1.286.899-.916-.087-.218.351-.283.066-.284.066-.066-.285-.283.066-.218.351-.567.131-.284.066-.151.635-.086.919-.501.416-.502.416-.956 2.319-1.721 1.599-2.051.178-1.833-.173-.416-.503-.633-.152-.785.482-.784.482.197.853.132.569-1.134.263-1.2-.02.264 1.137.197.853.35.218.284-.066.131.569.132.568.633.152.132.569-.567.132-.719.766.35.218.283-.065.066.284.416.502 1.068-.548 1.134-.264-.131-.568.151-.635 1.484-.045.501-.416.501-.417.568-.131.567-.132-.066-.285.217-.35.284-.066.066.284.283-.066.066.285.284-.066.501-.416.132.568.415.503 1.135-.264 1.484-.046.481.787.547 1.071 1.2.02 1.201.021.283-.066.218-.351 1.55.239.283-.066.284-.066.916.087.35.218.349.218 1.722-1.599.085-.918.086-.919-.283.066-.416-.503-.066-.284-.066-.284-.066-.284-.349-.219.237-1.553.587-1.335.284-.066.217-.35.436-.7.151-.635-.066-.284-.066-.284-.349-.218-.066-.285-.066-.284.218-.35-.198-.853-.132-.568.283-.066-.131-.569-.35-.218-.567.132-.567.132-1.682-.807-1.747-1.092.066.285z" fill="#E3E8EE"/><path d="M143.989 138.856l-.699-.437-.501.416-.851.198-1.048-.654-1.049-.655-.218.35.132.568.132.569.066.284-.086.919-.019 1.203.85-.198.699.436-.217.351-.218.35.416.502-.152.635-.284.066-.435.7.132.569.481.786-.151.635.415.502.481.787-.936 1.117-1.002.832-.436.7-.501.417.132.568.066.284-.218.351.066.284.482.787.916.086.502-.416.501-.416 1.2.02 1.134-.264-.132-.568-.197-.853.784-.482.785-.482.086-.919.435-.7.218-.351.567-.132.303-1.269-.066-.284.501-.416.436-.7-.066-.285-.35-.218-.349-.218-.066-.284-.35-.219.238-1.553-.963-1.573-.679-1.64-.917-.086z" fill="#E3E8EE"/><path d="M136.322 132.85l-.851.198-.851.198-.283.066-.218.35-.349-.218-.284.066-.435.7-.218.351-.283.066-.35-.219-.501.417-.567.131-.152.635.066.284.481.787.132.568.066.285.35.218-.152.634-.152.635.416.502.132.569-.218.35-.152.634.699.437.416.503.349.218.284-.066.132.568.349.219.35.218.349.218.198.853.416.502.633.153.349.218-.217.35-.152.635.066.284.283-.066.066.284-.217.35.415.503.198.853.699.436.35.219.283-.066.218-.351.349.219.35.218.283-.066.218-.35.132.568.132.569 1.002-.833.937-1.116-.482-.787-.415-.503.151-.634-.481-.787.152-.634.151-.635.502-.416-.066-.284-.416-.503.218-.35.217-.35-.699-.437-.85.198.019-1.203.37-.984-.35-.219-.132-.568-.132-.569.218-.35.653-1.05.785-.482-.066-.285-.877-2.492-.35-.218-.349-.219.151-.634.284-.066-.35-.218-.065-.284-1.135.263-.719.767-.633-.153-.633-.152-.217.35z" fill="#E3E8EE"/><path d="M114.758 130.078l-.633-.153-.699-.436-.152.634.066.284-.151.635.066.284.066.284-.502.417-.151.634.415.502.132.569-.284.066-.85.198-.501.416-.436.7-.283.066-.284.066.132.569.35.218-.436.701.046 1.487.416.502.481.787.066.284-.217.35-.152.635-.086.919.567-.132.567-.132.218-.35.218-.351.349.219.284-.066.283-.066.284-.066-.435.7-.501.416 1.246 1.508 1.596 1.726.151-.635.502-.416.349.218.066.285.501-.417.567-.131.917.086.851-.198.217-.35 1.788-1.315 1.569-.964.066.284.481.787.35.218.066.285.066.284.283-.066.35.218-.218.35-.283.066 1.813 1.376.653-1.051 1.22-1.182.132.568.567-.132-.132-.568.567-.132.567-.132.568-.132.567-.132.217-.35.719-.767.152-.634.218-.35-.132-.569-.416-.502.152-.635.152-.634-.35-.218-.066-.285-.132-.568-.481-.787-.066-.284.152-.635-.568.132-.567.132-.283.066-.35-.218-.086.919-.501.416-.283.066-.066-.284-.35-.219.218-.35.217-.35-.263-1.137-.066-.284-.132-.569-.284.066-.567.132-.217.35.065.284-.349-.218-.284.066-1.417.33-.513-1.079-2.086.186-1.925-1.936-2.251-.66.196-.356-3.663-.363z" fill="#E3E8EE"/><path d="M129.879 142.438l-.284.066-.85.198.132.568-.284.066-.415-.502-1.22 1.182-.653 1.051-1.53-1.442.217-.35-.349-.218-.284.066-.066-.284-.066-.285-.349-.218-.482-.787-.065-.284-1.57.964-1.787 1.315-.218.35-.85.198-.917-.086-.567.131-.218.351-.415-.503-.284.066-.218.35-.435.701 4.359 9.771 1.068-.548-.065-.285-.066-.284.283-.066.284-.066-.066-.284.217-.35.897 1.289.831 1.005 1.2.02.633.153.851-.198.284-.066-.066-.284.283-.066.284-.066.283-.066.218-.35 1.332.588.831 1.005.851-.197-.066-.285-.132-.568-.066-.284-.699-.437-.699-.437.501-.416.633.153-.066-.285.284-.066.501-.416 1.134-.264.851-.198.218-.35.217-.35.284-.066.283-.066.152-.634.152-.635.349.219.35.218.283-.066.568-.132.349.218.435-.7-.415-.503.152-.634.784-.482-.198-.853-.415-.503.218-.35-.066-.284-.35-.218.152-.635.152-.634-.284.066-.633-.153-.416-.502-.197-.853-.35-.218-.349-.218-.35-.219-.132-.568-.283.066-.633-.152-.132-.569-.699-.437-.719.767-.218.35-.567.132-.633-.152.066.284zm-95.055 13.724l-.794-.714-1.18-1.223-.52-.179-.264-.238-.445.403-.662.753-.463-.192-.36.383.171-.039.075.581-.539.126-.425.099.491.185.056.886.142-.033.123.271.094.277.463.192.369-.086-.02.305.038.29.482-.112.482-.112.274.536.047.588-.558.429-.643.449-.284.965-.152.635-.454.105-.425.099-.142.033-.047.311-.378-.212-.624.145-.53.423-.274.363-.294.668.897 1.289 1.001.966.66 1.943 1.02 1.56.68-.158.672-.456.964-.224.69-.76-.593-2.558-.31-2.624 1.287-1.797.643-.449-.18-.258-.312.072-.085.02-.084-.879-.084-.879-.756-1.322 1.06-.846z" fill="#E3E8EE"/><path d="M26.88 146.924l-.86-.099.105-.324-.151-.264-.369.085-.274.364-.123-.271-.037-.291-.284.066-.265-.238-.613-.457-.634-.152-.01.602-.075.317-.577-.166-.49-.185-.238.654-.029.906.453.793-.038.608.293.232-.294.667-.387.39-.18-.258-.142.033.293 1.13.585.463.567.767.397-.092.434.198-.047.311-.029.007-.623.145-.417.396.18.258.312-.073-.161.337-.209.648.653-.152.803.113.208.251.009.298.926.384.623-.146.671.444.378.211.142-.033-.161.337-.284.066.841.404.311.826.558-.429.36-.383.18.257.292.232.227-.053.283-.066-.056-.886-.491-.185.425-.099.54-.125-.076-.582-.17.04.36-.383.462.192.662-.754.445-.403-.557-1.368-.982-1.27-.529-.476-.302-.529-.018-.595-.113-.872-.472-.489-.557-.47-.359-.516-.387-.509-.907.211z" fill="#E3E8EE"/><path d="M24.606 154.643l-.208-.251-.803-.113-.652.152-.482.112-.312.073-.908 1.11 1.03.959.726 1.329.255-.06.321.225.587-.436.557-.429.293.231.236.245.246-.357.284-.066.293.232.34-.08.36-.383.142-.932.283-.066.161-.337-.142.033-.377-.211-.671-.443-.624.145-.926-.384-.009-.298z" fill="#E3E8EE"/><path d="M22.541 151.529l-.585-.463-.454.106.094.278-.889.806-.585-.463-.652-.748-.832.793-.804.786 1.454 1.759 1.956 1.343.907-1.11.313-.073.482-.112.208-.647.16-.337-.311.072-.18-.258.417-.396.623-.145.029-.007.047-.311-.434-.198-.397.092-.567-.767z" fill="#E3E8EE"/><path d="M21.696 140.941l-1.408-.272-.945-.08.076-.317.303-.37-.18-.258-.009-.297-.378-.212-.397.092.066.285-.02.304-.027.006-.322-.225-.207-.251-.463-.192-.369.086-.236-.245-.264-.238.395 1.706.415 1.401-.208-.251-.142.033-.16-.562-.066-.284-.302.37-.331.376-.066-.284.113-.026-.264-.238-.473.409-.445.403-.283.066-.34.079-.303.37-.454.106-.898-.39-.68-.741.047.588.123.271-.548-.172-.397.093.472.489.548 1.071-.067.615.189.555.264.238.199-.046.141-.033.226.846.104.575.991 1.567.632 1.95.584 2.261.936-.218.5.483.293.231.199-.046.775-.779.898-.509.586.463.586.463.889-.806-.095-.278.454-.105-.292-1.131.142-.033.18.258.387-.39.293-.667-.293-.231.039-.609-.453-.793.029-.905.236-.655.492.186.576.165.076-.317.01-.602.076-.317-.16-.562.17-.039.076-.317-.142.033-.34.079-.917-.986.076-.317.048-.31-.18-.258-.122-.271.198-.046.19-.344-.246-.542-.406-.205zm-3.084 4.612l.34.82.991.668.613 1.355-.274.363-.104.324-.076.317-.076.317-.17.04-.284.066-.018-.595-.047-.588-.558.429-.237.654-.16.337-.256.06-.236.654-.436.701-.699-.437-.538-.774.048-.31.217-.35.227-.053.18.258.009.297.368-.086.218-.35-.151-.264-.189-.556.52-.72.653-.152-.113-.872-.396-.807-.312.073-.123.628-.17.039-.586-.463-.642-.449-.208-.252-.151-.264.16-.337.35.218.586.463 1.03.06.7-.462z" fill="#E3E8EE"/><path d="M31.298 131.817l-.227.053-.133.33-1.153.568-1.229-.014-.784-.416-.71 1.064-1.256-.008-.133.331.132.568.227-.053.236.245-.425.099-.794.185-.02.304.152.264-.095.622-.133.33-.378.687-.672.456-1.039-.357-1.077-.649-.312.073-.283.066-.51.119-.577-.166-.577.733-.634.747.548.172.321.225.888.093.69.139.01.298-.17.039-.096.621-.236-.244-.283.066-.577-.166-.453.106.009.297.18.258-.303.37-.076.317.945.08 1.408.272.406.205.245.542-.19.343-.198.047.123.271.18.257-.048.311-.076.317.916.986.34-.08.142-.033-.076.318-.17.039.16.562-.075.317.633.153.614.456.954-.522.7-.462 1.417.569 1.341 1.785.576.166.36-.383.208.251.113-.027.246-.356.095-.622.737-.171.71-.165-.01-.297.057-.014.596-1.037.199-.945-.85.198-.549-.172.104-.324-.236-.245-.264-.238-.255.059-.199.047.076-.318-.066-.284-.227.053-.255.059-.01-.297-.102-1.474-.623-.754-.416-.502.076-.318.284-.066.274-.363.303-.37 1.002.067.888-.806-.254-.84-.274-.535-.236-.245-.113.026.596-1.037.634-.747-.614-1.355-.32-1.124zm26.169-5.19l-.764-.72-.086.918-.435.701-.284.066-.284.066-.217.35-.983-.371-.699-.436-.567.132-.633-.153-.284.066-.5.416-.568.132-.284.066-.237 1.553-.37.985.067.284.415.503.132.568.35.219.633.152.066.284.066.284.065.285.284-.066.066.284.132.568.35.219.547 1.071.481.786 2.203-.811.653-1.051 1.002-.832.218-.351.567-.132.435-.7.37-.985.5-.416.502-.416.303-1.269.785-.482-.7-.437-.283.066-.066-.284-.132-.568-.35-.219-.698-.436-.567.132-.502.416-.764-.721.065.284z" fill="#E3E8EE"/><path d="M59.724 118.314l-.501.416-.983-.371-.284.066-.283.066-.567.132.066.285-.284.066-.567.131-.501.417-.35-.219-.283.066-.502.417-.283.065.066.285-1.352.614.066.284.35.218-.086.919-1.135.264-.35-.218-.283.066-.217.35.132.568 1.2.021.415.502.7.437.566-.132.851-.198.415.502.198.853.765.721.765.721.7.436.5-.416.568-.132.699.437.415.502.066.285.066.284.284-.066.699.436.765.721.283-.066.066.284-.218.351.132.568.7.437.303-1.269.151-.635-.066-.284.284-.066-.284.066.568-.132.217-.35.152-.635-.132-.568-.066-.284-.283.066.283-.066-.35-.219.067.285-.066-.285.066.285.217-.35-.066-.285.35.219 1.068-.549 1.002-.832-.415-.502-.7-.437-.283.066-.415-.503.85-.197.72-.767-.634-.152-.217.35-.132-.568-.132-.569.284-.066-.634-.152-.5.416.349.218.066.285-.501.416-.35-.219-.283.066-.066-.284-.284.066-.567.132-.7-.437-.349-.218-.283.066.5-.416.218-.35-.283.066-.633-.153-.482-.786.284-.066-.066-.285-.283.066-.132-.568.085-.919-.916-.086z" fill="#E3E8EE"/><path d="M58.217 115.669l-.066-.284-.633-.152-.35-.219-.283.066-.217.35-.35-.218-.35-.218-.85.198-.416-.503-.349-.218-.35-.218-.982-.371-.85.198-.284.066-.218.35-.35-.218-.283.066-.152.634.416.503-.284.066-.152.634.35.219-.152.634.85-.198.35.218 1.484-.045.482.787.066.284.35.218.131.569.481.786.284-.066.284-.066.5-.416.568-.132.283-.066-.066-.284.568-.132.283-.066.284-.066.982.371.502-.416.217-.351.218-.35-.35-.218-.066-.284-.066-.285-.131-.568-.284.066-.35-.218.152-.635-.066-.284-.567.132-.218.35z" fill="#E3E8EE"/><path d="M52.262 117.054l-.35-.218-.85.198-.218.35-.501.416.197.853.416.502-.284.066-.567.132-.5.416.065.285-.284.066.066.284.284-.066-.02 1.203.765.721.983.37.217-.35.284-.066.35.218 1.134-.264.085-.918-.35-.219-.065-.284 1.352-.614-.066-.284.283-.066.568-.132-.482-.787-.132-.568-.35-.219-.065-.284-.481-.787-1.484.046z" fill="#E3E8EE"/><path d="M51.898 109.05l-.436.7-1.134.264-1.266-.305.066.285-.284.066-.5.416-.153.634-.5.416-.634-.152-.633-.152-.435.7-.218.35-.35-.218-.283.066.132.569-.218.35.066.284.284-.066-.567.132-.284.066-.85.198-.785.482-.719.766-1.068.549.066.284.066.284-.284.066.066.284.284-.066.633.153.131.568-.217.35.699.437.35.218.566-.132.634.153 1.028 1.857.831 1.005.501-.416.502-.416.066.284.283-.066.501-.416.785-.482.35.218-.218.35.35.219.283-.066.284-.066-.066-.284.5-.417.568-.132.284-.066-.416-.502-.198-.853.501-.416.218-.35.152-.635-.35-.218.152-.634.283-.066-.415-.503.152-.634.283-.066.35.218.217-.35.218-.35.917.086.982.371.218-.351.218-.35.151-.634.218-.351 1.266.305.501-.416.501-.416.218-.35-1.114-.94-1.115-.939-1.2-.02-.284.066-.283.066-.132-.569-1.049-.654-.217.35z" fill="#E3E8EE"/><path d="M41.578 109.653l-.633-.152-.567.132.02-1.203-.482-.787-1.068.548-1.049-.654-.132-.569-.066-.284-.52 1.619-.172 1.837.35.219.415.502.35.218.698.437-.171 1.837 1.114.939 1.464 1.158 1.069-.548.435-.701 1.134-.264.851-.197-.066-.285.284-.066.567-.132-.284.066-.066-.284.218-.35-.132-.569-.633-.152-.633-.152-.066-.284-.066-.285-.066-.284-.284.066-1.048-.655-.416-.502-.35-.219z" fill="#E3E8EE"/><path d="M32 104.382l-.222.346-.279.065-.526.426-.734.465-.211 1.254-.815 1.386.487.181.315-.074.385.518.419.501.936.076.617 1.356-.22.355-.093.619.8.716.422-.099.065.28.132.567.066.288.344.214-.279.065-.29.665.16.57.395-.091.5-.42.22-.355.345.223.288-.067.499-.42.853-.198.279-.065.287-.067.279-.064-.065-.28.63.148.575-.134.172-1.833-.698-.436-.354-.221-.42-.501-.343-.214.17-1.842.523-1.621.214-.344-.41-.503-.42-.5-.278.065-.575.133-.633-.156-.211.353-.288.067-.345-.224-.92-.089-.918-.081-.41-.502-.42-.501zm2.605 3.39l.296.339c.121.058.16.116.368.037l-.025.3.39.66-.008.495-.704.23-.54-.206-.409.36-.31-.317-.086.447-.656.191-.395-.316-.343.402-.291-.644.45-.266.012-.638.644.448.294-.448.872.167-.026-.601.3-.26.167-.38z" fill="#E3E8EE"/><path d="M30.8 109.463l-.415-.502-.387-.51-.312.073-.491-.185-2.052 1.076-.35-.218-.32-.225-.19.344-.482.112-.623-.754-.661-.146-.19.344-.132.33-.454.106-.416.396.5 1.382.547 1.071-.322.674-.217.35.916.985 1.2.021 1.2.02.133-.33.076-.318.416-.396.567-.132.047-.31.085-.02.719.132.746.126.142-.033.293.232.246-.357.019-.304.454-.106.283-.066.331-.376.274-.364.161-.337.152-.634-.547-1.071-1.011-.364.066.284zm-4.075 15.927l.388-.389-.075-.582-.387-.509-.322-.225-1.899-.457-1.464-.258-.444-.496-.321-.225-.199.046-.17.039-.652.152-.67-.443-.626 1.943.434.198.7.437.273.536.33.522.095.277 1.002.067 1.039.357-.028.007-.085.02.065 1.183.198.853.434.198.303-.37.604 1.058.944.979.133-.331.19-.343.15-.635.228-.951.284-.066.218-.351-.19-.555-.197-.853.397-.092.152-.635-.397.093-.5-.483.065.284zm96.651-59.93l.416.502.85-.198-.198-.852-.197-.853-.871 1.4zm4.564-11.248l.283-.066.066.285.35.218.02-1.203-.35-.218.066.284-.435.7zm-3.264-21.799l-.06-.256-.329-.133-.937-.171.673.322.033.143.059.255.561-.16zm3.31-7.63l-.903-.03-.508.388.35.218.283-.066.607.039.171-.55zm34.74 18.341l.35.218.066.285.633.152-.482-.787-.349-.218-.218.35zm-18.959 2.014l.567-.132.284-.066.369-.984-.567.131-.218.35-.218.35-.217.351zm-3.587-14.175l.092-.89-.699-.436-.917-.087-.316-.076-.488.473.171.74.62.095.336.161.079.341.053.228 1.069-.549zm6.337-1.024l-1.2-1.309-.706.823-.349 1.07-.205.407-.244.237.198-.436.211-.378-.013-.057-.02-.085-.251.208-.514.359-.297.009.983-.918.033-1.146-.923-.114-1.108.377-.271.123.033.142-.283.066-.257.18-.449.643.363.275.079.341-.27.123-.277.095-.205.407-.184.492-.258.18.033.142.066.284.304.02-.053-.228-.053-.227.264-.152.092.398.073.313.277-.095.31.048-.159.606.132.569.323.104.04.17.053.228.053.228.356.246.283-.066.218-.35.066.285.066.284.283-.066.567-.132.699.436.699.437 1.201.02.936-1.116-.415-.503-.132-.568-.409-.474-.007-.029.277-.094-.026-1.402-.033-1.43zm8.058 6.393l-.283.066.066.285-.218.35.284-.066.151-.635zm.548 1.071l.567-.131.218-.35-.35-.219-.283.066-.284.066-.218.35.066.284.284-.066zm-6.173-4.705l-.066-.284-.092-.398-.257.18-.218.35-.118.776.131.569.35.218-.284.066-.217.35.066.284.066.285.066.284-.284.066-.066-.285-.152.635-.151.634.198.853-.37.985-.086.919.7.436.718-.766.436-.7 1.134-.265 1.569-.964.785-.482.086-.919-.198-.852-.415-.503-.284.066.066.284-.284.066-.131-.568-.066-.285-.35-.218-.349-.218-.066-.284-.066-.285-.436.7-.369.986.066.284-.284.066-.065-.285.303-2.557-.64-.18-.29.037.119.512-.205.407zm15.372 12.152l.066.284-.415-.502-.132-.569-.35-.218-.567.132-.765-.72-.765-.722-.217.35-.35-.218-.283.066.065.285-.283.066-.284.065-.283.066-.567.132-.502.416-.349-.218-.284.066-.217.35-.304 1.27-.85.197.237-1.553-.264-1.137-.85.198-.851.198.218-.35-.066-.285-.785.483-.633-.153.501-.416.435-.7.218-.35.283-.066.218-.35-.699-.437-.917-.087-.349-.218-.066-.284-.567.132-.501.416-.284.066-1.24 2.385-.672 2.254.349.218.198.853-1.57.964-.349-.218-.567.132.066.284.765.721.415.502-.567.132-.416-.502-.501.416-.283.066.066.284-.218.35-.284.067.066.284-.567.132-.283.066-.218.35-.567.132.283-.066-.065-.285-.35-.218-.501.416-.218.35.152-.634.218-.35-1.834-.173-1.635.68-.218.35.633.153.567-.132.066.284-.501.416-.567.132-1.068.548-.785.483-.567.131-.851.198-.284.066-.501.416-1.002.833-.435.7-.851.198-.851.198.35.218.633.153-.218.35-.501.416-.152.634.132.569-.699-.437-.916-.086.065.284 1.049.655.699.437-.218.35-.349-.218-.35-.219-.217.35-.284.066-.283.067.699.436 1.048.655-.217.35.263 1.137.132.569-.283.066-.502.416-.283.066.217-.35.218-.35.218-.351-.066-.284-1.2-.02-.785.481-1.418.33-1.767.112-1.768.111-.283.066-.284.066-.283.066-.634-.152.066.284-.151.635-.218.35.35.218.066.284-.284.066.132.569.349.218-.085.919-.152.634.066.285.066.284-.218.35 1.049.655.982.37.198.853.198.853.983.37.547 1.072-.369.984-.37.985.416.502.31 2.625-.501.416-.502.416 1.313 1.792.547 1.07-.284.067-.066-.285-.633-.152-.349-.218-.132-.569-.132-.568-.415-.503-.35-.218.475-3.106-.415-.503-.634-.152.218-.35-.066-.285-.066-.284.719-.766.587-1.335-.983-.37-1.483.045-.482-.787-.481-.787-1.115-.939-1.048-.654-.567.131-.284.066.416.503.415.502.699.437.699.436.198.853-.435.7-.218.35-.066-.283-.567.132.132.568.132.569.699.436.699.437.329 1.42.047 1.488-.568.132-.633-.152-.435.7-.936 1.117-.284.066.066.284-.501.416.066.284.132.569.415.502.481.787.983.37.699.437.066.285.284-.067.501-.416.435-.7.35.218.066.284.349.219.35.218.112 1.771.112 1.772-.238 1.553-1.002.832.066.285.066.284.132.568.415.503-.066-.284.066.284-.435.7.066.284.415.503.416.502.613 1.356-.02 1.203.462 1.99.481.786.917.087.066.284.066.284.132.569.131.568.066.284-.151.635-.284.066.482.786.567-.132.415.503.633.152.501-.416.482.787.112 1.771-.739 1.97-.567.132-.217.35.131.568.35.219.633.152-.152.634-.217.351.066.284-.152.634-.587 1.335-1.154 1.467.745 1.924 1.266.304.699.437-1.721 1.599-2.137 1.096.528 2.274.33 1.421 1.549.239.785-.483 1.2.021.917.086.633.152.066.285.35.218.283-.066.699.437.198.852.415.503.917.086.765.721-.501.416-.435.701-.37.984.198.853 1.398.873 1.181 1.223-.218.351-.284.066.132.568-.217.35-.284.066-.283.066-.304 1.269-.152.635.066.284.066.284.35.218-.284.066-.151.635.349.218.35.218.877 2.493.066.284-.785.482-.653 1.051 1.049.654 1.048.655.851-.198.501-.416.699.437.917.086.679 1.64.963 1.573-.238 1.553.35.218.066.285.349.218.35.218.066.285-.436.7-.501.416.066.284-.303 1.269-.567.132-.218.35-.435.701-.086.919.633.152.416.502 1.833.173 2.051-.177 1.721-1.599.956-2.32.501-.416.502-.416.085-.919.152-.634.567-.132.284-.066.217-.35.284-.066.066.284.283-.066.284-.066.218-.35.916.086 1.286-.898-.765-.721-.765-.721-.633-.152-.349-.218-.066-.285-.066-.284.719-.766.784-.482.284-.066.086-.919-.198-.853-.132-.568.218-.35.217-.351-.132-.568-.197-.853.87-1.401.719-.766.283-.066.218-.35-.349-.219-.198-.852-.132-.569-.416-.502-.633-.153.238-1.553.521-1.619.916.086.851-.197.633.152 1.134-.264.02-1.203.218-.35.283-.066.284-.066.066.284 1.029 1.858 1.266.305-.132-.569-.066-.284-.066-.284-.066-.285-.283.066.606-2.537 1.939-1.949-.066-.285.152-.634.719-.766.567-.132.349.218.066.284.132.569.633.152.567-.132-.217.35.066.284.567-.131.349.218.35.218.283-.066.37-.985-.066-.284.435-.7.086-.919-.765-.721-.699-.436.217-.35.218-.351-.066-.284.284-.066.283-.066.284-.066-.066-.284-.066-.284-.066-.285-.066-.284-.699-.436-.917-.087-1.094-2.142-.047-1.487-.065-.284.501-.416.217-.351 1.154-1.466.805-1.685-.132-.569-.349-.218.151-.635.218-.35-.481-.787-.482-.786.02-1.203.521-1.619-.35-.219.502-.416.349.218.35.219.217-.35.218-.35.501-.417.284-.066-.264-1.137-1.134.264-1.201-.02-.349-.219-.35-.218-.283.066-.284.066-.831-1.005.37-.985-.198-.852.369-.985.218-.35.151-.635-.699-.436-.699-.437-.415-.502-.198-.853-.132-.569-.415-.502-.264-1.137-.198-.853-.349-.218-.35-.218.435-.7.719-.767-.442-3.193-.461-1.99-.462-1.99-.765-.72-.547-1.071-.066-.284.152-.635.283-.066-.066-.284.633.152.567-.132.436-.7.784-.482.917.086.567-.132.37-.984-.264-1.137.501-.416.218-.35-.132-.57.085-.918.937-1.117.936-1.116-.066-.284-.481-.787-.831-1.005-.264-1.137-.547-1.071-.699-.437-.633-.152-.35-.218-.131-.569-.066-.284-.35-.218-.547-1.071.02-1.203-.35-.218-.066-.285-.066-.284-.066-.284-.283.066-.35-.218.435-.7.086-.92.218-.35-.132-.568.217-.35-.501.416-.217.35-.633-.152-.719.766.066.284.132.569.567-.132.784-.482.066.284-.217.35-.284.066-.369.985-.501.416-.35-.218-.151.634-.502.416.132.569.066.284-.633-.152-.349-.219.066.285-.284.066-.851.197-.85.198-.086.919-.653 1.05-.284.067.152-.635.435-.7-.132-.569.152-.634.785-.482.086-.919-.35-.218-.633-.153-.284.066 1.768-.111.87-1.401.284-.066.152-.634.151-.635.435-.7.436-.7.085-.92 1.438-1.532-.066-.284.218-.35.369-.985.653-1.05-.046-1.488-.633-.152-.416-.503.066.284-.217.35-.198-.852.283-.066.633.152.066.284.066.285.152-.635-.33-1.421-.283.066-.284.066-.198-.853-.699-.436.132.568zm-25.719-16.815l-.27.122-.244.237.31.048.303.019.343.19.35.218-.277.095-.29.037.019.085.027.114.297-.01.29-.037.356.247.323.105.521-.331.224-.322 2.203-.812.25-.208-.164-.71-.192-.825.488-.473.205-.407-.073-.313-.356-.246-.013-.057-.317-.076-.877-1.205-.527-.985-.574.103.092.398-1.233 1.126-.923 1.173.112.484.31.047.059.256-.217.35.072.313-.211.379-.25.208-.251.208.053.227.329.133.02.085-.283.067-.014-.057zm-1.674-4.644l-.198.436.059.256.284-.066.626.123.402-.842-1.173.093zm8.262 25.31l-.633-.152.416.502.633.153-.066-.284-.066-.285-.284.066zm-80.375 86.404l.086-.919-.284.066-.349-.218-.066-.285-.35-.218-.349-.218-.198-.853-.198-.853.152-.634-.066-.284-.699-.437-.132-.568.218-.351-.066-.284-.284.066-.765-.721-.718.767-.37.984-.5.417-.502.416-.37.984-.435.701-.567.132-.217.35-1.003.832-.653 1.051-2.202.812.066.284.765.721.132.568.982.371 1.418-.33.132.569.198.852.916.087.7.436.415.503.132.568.547 1.071.547 1.071-.217.35.132.569.5-.416.152-.635.35.219.284-.066.066.284.131.568.7.437.415.502.567-.131.284-.066.217-.351.218-.35 1.2.021 1.266.304.416.503.066.284.567-.132.5-.416.35.218.35.218.284-.066.283-.066.481.787-.151.635 1.88 1.66.85-.198.435-.701.416.503.066.284 2.182.391 1.372-1.817-1.18-1.223-1.115-.939.284-.066-.066-.285-.416-.502-.132-.569-.283.066.37-.984.5-.417-1.048-.654-.917-.087-.217.35-.284.066-.066-.284-.066-.284-.35-.218-.151.634-.567.132-.587 1.335-1.2-.02-.066-.285-.633-.152-.567.132-.568.132-.35-.218-.415-.503-.283.066.237-1.553-.35-.218-.349-.219.435-.7.37-.985-.983-.37-.37.984-.283.066-.547-1.071-.481-.786.35.218.283-.066-.132-.569-.35-.218-.198-.853.066.285z" fill="#E3E8EE"/><path d="M44.578 129.027l-.35-.218-.633-.152-.982-.371-.066-.284-.35-.218-.35-.219-.566.132-.35-.218-.415-.503-.917-.086-.765-.721-1.002.833-1.513.951.254.839-.133 1.23.434 1.097.813.41.85-.198.066.284.35.219.567-.132.066.284.066.284.283-.066.35.219.481.786-.37.985-.5.416.35.219.283-.066.066.284.35.218.217-.35.283-.066.35.218.132.569.633.152.567-.132.481.787.831 1.005.066.284 1.18 1.223.396 1.706 1.286-.898.086-.919.086-.919.283-.066.066.284.35.219.567-.132.85-.198.218-.35.152-.635 2.4.041.502-.416.5-.416.35.218.284-.066-.066-.284-.066-.285-.547-1.071-.482-.786-.35-.219-.131-.568-.066-.284-.066-.285-.284.066-.066-.284-.066-.284-.633-.152-.35-.219-.131-.568-.481-.787-.066-.284-.35-.218-1.767.111-1.115-.939-.35-.218-.632-.153-.567.132-.785.483-.132-.569.066.284z" fill="#E3E8EE"/><path d="M38.6 131.616l-.067-.284-.85.198-.813-.411-.434-1.097-.69-.139-.803-.113-.378-.212-.387-.509-.368.086-.36.383-.746-.126-.71.165.104.575.217.549-.463.707-.558.429.32 1.124.613 1.355-.633.747-.597 1.037.114-.026.236.245.274.535.254.84-.889.806-1.001-.067-.303.37-.274.364-.284.066-.076.317.416.502.623.754.037 1.19.075.582.255-.06.227-.053.066.285-.076.317.198-.046.256-.06.264.238.236.245 1.258-.892 1.18.325.238-.655.066-.614.492.185.131.569.398-.093.453-.105.416-.397.369-.085.293.231.056-.013-.009-.298.378.212.369-.086.907-.211.917.087.302.528.415.503.502-.416.217-.35.567-.132.284-.066-.132-.569.086-.918.936-1.117 1.352-.614.218-.35.217-.351-.066-.284-.83-1.005-.482-.787-.567.132-.633-.152-.132-.568-.35-.219-.283.066-.218.35-.35-.218-.065-.284-.284.066-.35-.218.502-.417.37-.984-.482-.787-.35-.218-.283.066-.066-.285-.066-.284-.567.132-.35-.218z" fill="#E3E8EE"/><path d="M29.93 122.847l-.066-.284-.746-.126-.86-.099.122.271-.104.324.066.284-.085.02-.34.079-.435-.199-.18.641-.265.661.075.582-.388.39.435.198.397-.092-.152.634-.397.093.198.852.189.556-.218.35-.283.066-.228.951-.086.919-.227.053-.16.337.707 1.633.576.165.293.232.784.417 1.229.013 1.153-.568.133-.33.227-.053.558-.429.463-.707-.217-.549-.103-.575.709-.165.746.126.36-.383.368-.086.387.509.378.212.803.113.69.139.133-1.229-.254-.84-.435-.198-.009-.298-.227.053-.198.046-.416-.502-.444-.496-.66-.146-.577-.166.019-.304.01-.601-.35-.218-.293-.232-.963-.675-.84-.403.018-.304-.387-.509-.34.079-.321-.225.028-.007zm-1.087-18.619l-1.144-.034-1.569.066-1.435-1.164-1.521-1.145-.529-.476-.595.139-.303.37-.492.713-.653 1.051-.539.125.104.576.122.271.086-.02.094.277-.255.06-.218.35-.123.628.084.879.245.542.038.291-.218.35-.274.364.236.244.378.212.283.833-.218.35.189.555-.048.311.114-.026.198-.047.312-.072.218-.35.992-.231.927-.515.416-.397.454-.105.132-.331.19-.343.661.145.623.754.482-.112.19-.344.32.225.35.219 2.052-1.077.814-1.388.218-1.249-.435-.198-.557-.47-.18-.258-.216-.548z" fill="#E3E8EE"/><path d="M33.304 97.197l-.983-.37-.217.35-.218.35-.785.482-.784.482-.284.066-.35-.218-.32-.225-1.626.079-1.72-.2-.463-.191-.5-.483-.388.39-.331.376.028-.006.208.251-.19.344-.189.343.132.569-.038.608-.606.74-.51 1.018 1.52 1.144 1.436 1.164 1.569-.066 1.143.034.217.549.18.257.556.47.463.192.7-.462.53-.423.283-.066.218-.35.415.502.416.503.916.086.917.086.35.219.217-.351.218-.35.633.152.633.153.284-.066.415.502.132.569.587-1.335.785-.482-.416-.503-.066-.284-.198-.853.152-.634-.066-.284.218-.351.217-.35.568-.132-.066-.284-.35-.218.501-.416.567-.132-.112-1.772-1.2-.02-.916-.087-.568.132-.35-.218-.349-.218-.633-.152-.283.066-.218.35-.633-.153-.35-.218-.283.066-.765-.72zm41.59 9.2l-.699-.437-.699-.436-.567.132-.633-.153-.35-.218.152-.634-.699-.437-.283.066-.284.066-1.833-.173-.238 1.553.482.787-.501.416 1.463 1.158 1.267.304-.587 1.335-1.22 1.183.198.852.699.437-.218.35-.086.919-.501.416-.152.635-.257 2.756-.54 2.822-.218.35-.35-.218.066.284-.218.35-.283.066-.218.35.33 1.421.218-.35.283-.066.482.787.415.503.917.086.85-.198.066.284.35.219.35.218.283-.066.481.787.066.284.567-.132.568-.132.435-.7.086-.919-.066-.284.567-.132 1.352-.614.369-.985.435-.7.7.436.85-.198-.132-.568.086-.919 1.352-.614.653-1.051-.066-.284-.198-.853.37-.984-.898-1.29.653-1.05.501-.416.502-.417 1.088-1.751 1.088-1.751-.066-.284-.066-.284.303-1.269.653-1.051-2.967.091-2.032-1.025-.85.198-.501.416-.284.066-.35-.218-.217.35-.567.132-.066-.284-.284.066-.85.198-.502.416zm36.177-1.226l-.699-.437-1.418.33-1.483.046-.198-.853-.264-1.137-.633-.152-.482-.787-.197-.853.217-.35.152-.634-.699-.437-.284.066-.349-.218-.066-.284-.567.132-.218.35-.283.066-.851.198-.567.131-.501.417-1.049-.655-.765-.721.501-.416.218-.35-.633-.153-.35-.218-.982-.37-.917-.087-.283.066-.218.35-.35-.218-.066-.284-.567.132-.501.416-.35-.218-.283.066-.284.066-.283.066-.416-.503.152-.634-.917-.087-.415-.502.152-.635.567-.132.086-.918.369-.985-.066-.284-.35-.219-.197-.852-.482-.787-.501.416-.785.482.066.284.066.285-.567.132-.501.416-.501.416-.416-.503-.066-.284-.567.132-.501.416-.284.066-.217.35-.502.417-.217.35.112 1.771-.87 1.401-.871 1.401-.303 1.269-.238 1.553.066.284.284-.066-.152.635-.567.132-.086.918-.152.635.066.284.35.218.066.285.132.568.982.371.983.37 1.312 1.792.416.503.765.72-.304 1.269-.02 1.203-.151.635.198.852.633.153.132.568-.02 1.203-.02 1.203.983.371.982.37.264 1.137.33 1.421.131.569.35.218.917.087.85-.198.152-.635.501-.416.284-.066.066.284.85-.198.851-.197.633.152.284-.066.217-.35.218-.351 1.068-.548.37-.984.217-.351.567-.131.416.502.066.284.851-.198.283-.066.917.087.349.218.35.218.283-.066.765.721.548 1.071.283-.066.35.218-.218.351.066.284.699.437.284-.066.197.852-.151.635.982.37.917.087.349.218.35.218.851-.198.699.437.87-1.401.871-1.401.85-.198.851-.198.521-1.619.02-1.203.218-.35.283-.066.152-.634-.416-.503-.066-.284.284-.066.35.218 1.2.021 1.2.02.349.218.35.219.501-.417.284-.066.283-.066.132.569.699.437 1.134-.264 1.069-.548.132.568.415.503.567-.132.567-.132.35.218.633.152.218-.35.283-.066.719-.766.501-.416.983.37.633.152 2.42-1.162 1.438-1.532-.416-.503-1.266-.305-.745-1.923-.831-1.005-.699-.437-.567.132-.567.132-.765-.721-.765-.721-.567.132-.567.132-1.049-.655-.066-.284-.415-.502-1.286.898-1.286.898-.633-.152-.633-.152-1.135.263-.85.198-.699-.436-.548-1.071-1.615-.523-1.333-.589-1.483.046-.633-.153-.699-.436-.765-.721.283-.066z" fill="#E3E8EE"/><path d="M126.126 117.247l-.633-.152-.567.132-.284.066-.415-.503-.416-.503-1.068.549-1.134.263-.699-.436-.132-.569-.284.066-.283.066-.502.417-.349-.219-.35-.218-1.2-.02-1.2-.021-.35-.218.066.284.132.569-.152.634-.283.066-.218.35-.019 1.203-.521 1.619-.568.132-1.134.264-.87 1.401-.871 1.401.066.284.132.569-.284.065.132.569.066.284-.283.066.066.284.349.219.132.568.066.284.066.285.415.502.066.284.066.285-.217.35.415.502.35.219.699.436.633.153 3.666.345-.217.35 2.248.675 1.946 1.945 2.051-.178.547 1.071 1.701-.396.35.218-.066-.284.218-.35.567-.132.283-.066.416.503-.218.35.264 1.137-.218.35-.217.35.283-.066.066.285.35.218.501-.416.086-.919.349.218.284-.066.567-.132.567-.132.567-.132.501-.416.35.219.283-.066.218-.351.435-.7.284-.066.349.218.218-.35.283-.066.851-.198.851-.198.218-.35.633.152.633.153.718-.767 1.135-.264.085-.918.304-1.269.283-.066.284-.066.218-.35-.132-.569.283-.066-.066-.284-.896-1.289-1.399-.873-.197-.853.085-.919.719-.766.501-.416-.765-.721-.916-.086-.416-.503-.197-.853-.7-.436-.283.066-.35-.219-.066-.284-.633-.152-1.2-.021-.916-.086-1.069.548-1.266-.304-.33-1.422-.527-2.274-.917-.086-.982-.371-.502.417-.718.766-.284.066-.218.35-.633-.152.284-.066zm47.713-19.787l-.851.198.264 1.137-.283.066-.502.416-.217.35-.218.35-.349-.218-.284.066-.567.132.066.284-.238 1.553.047 1.488.415.502.481.787-.217.35-.152.635.35.218.131.568-.804 1.685-1.088 1.751-.567.132-.218.351.066.284.046 1.487 1.095 2.142.916.086.699.437.066.284.066.284.066.285.066.284-.283.066-.284.066-.283.066.065.284-.217.35-.218.35.699.437.765.721-.086.919-.435.7.066.284-.369.985-.284.066-.349-.218-.35-.219-.567.132-.066-.284-.066-.284-.283.066-.633-.153-.132-.568-.066-.284-.35-.219-.785.482-.501.417-.151.634.066.284-1.939 1.949-.607 2.538.349.218-.217.351.349.218.132.568-1.266-.304-.963-1.574-.132-.568-.283.066-.284.066-.217.35-.02 1.203-1.134.264-.634-.153-.85.198-.917-.086-.521 1.619-.237 1.553.349.218.699.437.132.568.198.853.349.218-.217.351-.284.066-.719.766-.87 1.401-.086.919.416.502-.218.35-.218.351.132.568-.085.919.197.852-.283.066-.785.483-.719.766.066.284.066.284.35.219.633.152.765.721.765.721.567-.132 1.681.807 1.682.807.567-.132.567-.132.35.218.132.569.349.218.937-1.116.87-1.401.416.502.481.787 1.332.589 1.616.523.481.787.416.502.283-.066.218-.35 2.38 1.244.132.568.416.503.349.218.699.436.132.569-.151.634.567-.132.217-.35 1.135-.264.652-1.05.268-.345 1.169-.691.805-.736.777-.746.145-1.802 3.098-2.231.552-1.308.392-1.003.624-.334-.784-1.221-.987-3.474-.783-2.016.06-1.98.132-1.06.283-.066-.415-.503-.633-.152-.066-.285-.35-.218-.283.066-.614-1.355.436-.701.718-.766.35.218.283-.066.152-.634.435-.7.35.218.066.284.283-.066.35.218.851-.198.567-.131.719-.767.151-.634.35.218.349.218.284-.066.567-.132.567-.132.501-.416.132.569.699.436.567-.132.502-.416 1.2.021 1.286-.899 1.022-2.035 1.2.02.066.285-.283.066.349.218.567-.132.284-.066.633.152.217-.35.436-.7.349.218.284-.066-.198-.853-.198-.853-.283.066-.284.066-.745-1.923-.066-.285.283-.066-.065-.284-.132-.568.283-.066.218-.35-.699-.437.435-.7.917.086.633.152 1.068-.548-.415-.502-.066-.285-.35-.218-.415-.502-.132-.569-.066-.284-.416-.503-.131-.568-.416-.503-1.418.33-1.418.33-.066-.284-.065-.285-.35-.218-.132-.568-.633-.153-.699-.436-.917-.086-1.134.263-.719.767-.501.416-.501.416-.086.919-.152.634-.283.066-.284.066-.738 1.97-1.088 1.751.085-.919-.633-.152-.415-.503-.066-.284-.435.7-.502.416-.283.066-.284.066-.283.066-.284.066-.283.066.066.284-.284.066-.917-.086-.151.635-1.352.614-.284.066-.283.066-.548-1.071-.329-1.422.217-.35.218-.35-.132-.569-.066-.284.171-1.837.238-1.553-1.049-.655-.613-1.355.435-.701.152-.634-.765-.721-.699-.437-.33-1.421-.745-1.924-1.048-.654-1.201-.021.653-1.05.218-.35-.482-.787-.415-.503z" fill="#E3E8EE"/><path d="M190.858 123.159l-.567.132-.699-.436-.132-.569-.217.35-.851.198-.284.066-.567.132-.349-.218-.35-.218-.151.634-.719.767-.567.131-.851.198-.35-.218-.283.066-.066-.284-.284.066-.501.416-.152.634-.283.066-.35-.218-.435.701-.719.766.614 1.355.567-.132.066.284.066.285.633.152.415.503-.283.066-.284.065.132.569-.04 2.406.811 2.208.582 1.974.378 1.301.21.363.538-.141.132.569-.151.634-.284.066-.284.066-.369.985-.587 1.334-3.073 2.213-.086.919-.085.919-1.722 1.598-1.068.549-.218.35-.652 1.05-1.135.264-.217.35-.284.066-.132-.568-.132-.569-.415-.502-.633-.152-.132-.569-.416-.502-2.38-1.244-.218.35-.283.066-.416-.502-.481-.787-1.616-.523-1.332-.589-.481-.787-.132-.568-1.154 1.467-.937 1.116-.349-.218-.284.066.132.568.198.853-.218.35.066.284.066.285.35.218.066.284.065.284.35.219.633.152 2.249.675 1.899.457.284-.066.349.219 1.2.02.917.086.396 1.706 2.163 1.594 2.684-.026 2.136-1.096.501-.416.284-.066 1.2.02 1.201.021.567-.132.283-.066.983.371.699.436.567-.132.633.152-.264-1.136.37-.985.567-.132.435-.701-.633-.152-.699-.436.152-.635.435-.7-.482-.787.152-.634 1.134-.264.917.086.435-.7.719-.767.851-.198.633.153.217-.351.436-.7.435-.7.501-.417.501-.416.086-.918.218-.351.283-.066.633.153.152-.635.501-.416 1.352-.614 1.154-1.467-.963-1.573-.83-1.005.501-.417-.066-.284 1.371-1.817 1.089-1.751.501-.416.501-.416.567-.132.501-.416-.461-1.99-1.682-.807-.982-.371-.198-.852-.066-.285-.416-.502-.066-.284-.415-.503-.066-.284-.132-.569-.349-.218-.35-.218-.284.066.502-.416-.416-.503.435-.7.284-.066.218-.351-1.484.046-1.022 2.035-1.286.899-1.2-.021-.502.416zm45.112-46.444l-.699-.437-.35-.218-.217.35-.218.35-.35-.218-.567.132-.151.635-.37.984-.349-.218-.35-.218-.217.35-.567.132-1.55-.239-1.134.264.112 1.772.395 1.705-.217.35-.502.416.066.285.066.284-.217.35-.218.35.066.285.066.284-.02 1.203.765.72.613 1.356.548 1.07.699.437.481.787-.217.35-.699-.436-.218.35-.218.35-.02 1.203-.936 1.117-.501.416-.284.066-.633-.152-.217.35.131.568.066.284-.217.35-1.286.899-1.286.898-.284.066-.283.066-.436.7-.151.635.112 1.772-.086.918.547 1.071-.567.132-.283.066.765.721.982.371-.217.35-.218.35.066.284.132.569-.501.416-.152.634.284-.066.283-.066.35.219.633.152.415.503.132.568-.218.35-.567.132.33 1.421.046 1.488 1.2.02.719-.766.35.218.283-.066.501-.416.218-.351.633.153.35.218.283-.066.284-.066-.086.919-.435.7.066.284.066.285-.436.7-.435.701-.217.35-.218.35.198.853.198.852-.719.767.264 1.137.916.086 1.134-.264.7.437.764.721.284-.066.284-.066.283-.066.284-.066.217-.35.502-.417 1.002-.832.435-.7.152-.635.567-.132.785-.482.217-.35.284-.066-.066-.284.917.086.547 1.071.264 1.137.415.503.132.568-.217.35-1.135.264-1.352.614.416.503.264 1.137-.502.416-.501.416-.217.35-.152.635.066.284.066.284-.719.767-.719.766.416.502.066.285-.152.634-.086.919.198.853.198.852.217-.35.35.218.066.285.283-.066.218-.351.35.219.065.284.284-.066.633.152.264 1.137.198.853.481.787.198.852 1.002-.832.284-.066.218-.35.151-.634.567-.132.633.152.502-.416.567-.132.349.218.765.721.567-.132.633.152.568-.132.283-.066.152-.634.567-.132.567-.132.284-.066.501-.416.415.502.416.503-.719.766-.152.635.416.502.349.219.699.436-.369.985-.218.35.33 1.421.613 1.355.436-.7-.132-.568.085-.919.37-.985.283-.066.35.219.217-.351.35.219.066.284.066.284.217-.35.218-.35.35.218.349.218 1.286-.898.936-1.117-.131-.568-.132-.569 1.002-.832.172-1.837-.568.132-.567.131-.349-.218-.066-.284-.35-.218-.349-.219-.066-.284.283-.066.284-.066.369-.984 1.003-.833.066.284.699.437.699.437-.152.634.132.568.633.153.851-.198-.027-2.69.106-2.122-.066-.284-.416-.503-.065-.284-.132-.568-.066-.285-.35-.218-.198-.853-.481-.786-.415-.503-.416-.502-.132-.569-.066-.284-2.341-3.65-.066-.284-.066-.284-.046-1.487-.547-1.071.152-.635-.35-.218-.218.35-.765-.721-.197-.852-.284.066-.349-.219-1.267-.304.284-.066.567-.132.152-.635-.416-.502-.567.132-.633-.153-.349-.218-.851.198-.983-.371-.066-.284-.633-.152-.283.066-.35-.218-.567.131-.218.351-.217.35-.785.482-.567.132.283-.066.416.503.264 1.136.263 1.137-.415-.502-.198-.853-.066-.284-.303 1.269-1.088 1.751-.198-.853.303-1.269-.283.066-.218.35-.283.066-.634-.152.218-.35.218-.35-.066-.285-.653 1.051.349.218.132.569.066.284-.283.066-.284.066.066.284-.897-1.289-1.18-1.223-1.787 1.314-1.55-.239.369-.984.152-.635.369-.984.086-.919.152-.634.217-.351.521-1.619-.112-1.771.218-.35.217-.351-.066-.284-.349-.218.152-.635-.198-.852.217-.35.238-1.554.303-1.269.152-.634-.132-.569.218-.35.151-.634-.132-.569-.197-.852.019-1.203.436-.7-.244-2.34.956-2.32.283-.066.218-.35.218-.35.217-.35 1.286-.9 1.22-1.182.284-.066.218-.35.283-.066.132.569.633.152.152-.634-.482-.787.567-.132.568-.132-.132-.569-.066-.284-1.049-.655-1.266-.304-1.134.264-.917-.087-.264-1.137.785-.482-.415-.502-.066-.285-.066-.284.217-.35-1.18-1.223-1.965-.742-1.068.548-1.352.615.197.852-.085.919zm3.355-53.808l-.284.067-.086.918 1.267.305.501-.416.435-.7-.349-.22-.416-.502-.567.132-.501.416zm3.752-19.896l-.718.766.052.228.04.17-.244.237-.231.293v1.288l.574 1.185.435.588.646.21.317.075.204-1.695.745-.653.218-.35-.079-.341.283-1.354-.567-1.156-.547.217-1.128.292zm20.655 1.427l-.178.52-.212.379-.217.35.297-.009.237-.265.6.01.62.096.013.057.066.284.066.284.567-.132.633.153-.283.066-.284.065.066.285.066.284-.284.066-.349-.218-.218.35-.283.066-.567.132-.132-.569-.633-.152-1.326-.56-.297.009-.283.066-.007-.029.06.256.085.37-.303-.02-.026-.113-.37-.304-.633-.152-.527.302-.218.35.884-.055-.225.321-.435.7-.415-.502-.356-.246-.225.321-.488.473-.349-.218-.297.01-.771.538-.719.767-.35-.219-.283.066-.501.416-.502.417-.349-.219-.633-.152-.785.482-.719.767-.851.197-.567.132-.217.35-.502.417-.065-.284.283-.067-.066-.284-.283.066-.502.416-.217.35-.501.417-.568.132-.217.35-.785.482-.785.482-.283.066.066.284.066.285-.35-.219-.283.066-.805 1.685-.218.35-.435.701-.283.066-.284.066.349.218.066.284-.567.133-.501.416-.218.35-.501.416-.719.766-.784.482.349.219.35.218.415.503.132.568.066.284.567-.132.218-.35 1.615.523.614 1.355-.152.635.132.568-.851.198-.699-.436-.785.482-.784.482-.699-.437-1.55-.238-.218.35.132.568.198.853-.435.7-.567.133-.502.416-.217.35-.435.7-.785.482-.633-.152.066.284-.218.35-.218.35-.283.067-.152.634.066.284-.218.35-.217.35.415.503.35.219.283-.066.35.218.415.502.284-.066.633.153.066.284.066.284.765.721.415.503-.501.416-.218.35-1.457 2.736-.956 2.32.349.218.35.218-.152.634.132.569 1.965.74 1.833.174.066.284-.217.35.831 1.005.765.72.85-.197.633.152.548 1.071.567-.132.283-.066.502-.416.283-.066.567-.132.633.153.284-.066 1.134-.264.719-.767.917.087.85-.198.284-.066.284-.066.435-.7.719-.767-.416-.502.435-.7.218-.351.501-.416.284-.066.283-.066.284-.066-.066-.284 1.002-.833.284-.066.501-.416.435-.7.218-.35.501-.417.567-.132.35.219.785-.482.784-.482.568-.132.349.218.567-.132.851-.198.613 1.355.679 1.64 1.069-.548 1.134-.264 1.2.02.917.087.283-.066.218-.35.284-.067.217-.35-.132-.568-.066-.285.284-.066.435-.7 2.111-3.786.349.218.633.152.501-.416.568-.132.065.285.35.218.086-.919-.264-1.137.171-1.837.172-1.838-.284.066-.283.066-.066-.284-.35-.218.284-.066-.066-.285.699.437 1.22-1.183 1.22-1.182-.35-.218-.065-.285-.198-.852-.917-.087-.917-.086-.131-.569-.785.483-.917-.087-1.616-.523-1.899-.457-.086.92-1.068.547-.699-.436-.349-.219-.086.92.066.283-.284.066-.283.066.066.285.066.284-.35-.218.218-.35-.284.065-.283.066-.568.132.066.284.416.503-.501.416-.218.35.152-.634.217-.35-.066-.285-.415-.502.283-.066 1.504-1.249-.349-.218-.066-.284.567-.132.567-.132.936-1.117.172-1.837-.679-1.64-.963-1.573-.851.198-1.2-.02-.482-.787.152-.635-.283.066-.35-.218.501-.416.35.218-.132-.568-.132-.569.765.72.481.788.568-.132.217-.35.284-.066.831 1.005.217-.35.218-.35.237-1.554.37-.985.501-.416.785-.482.982.37.633.153 1.069-.548.718-.767.218-.35.218-.35.916.086.785-.482-.066-.284-.066-.284-.349-.219-.066-.284.699.437.349.218.152-.634-.699-.437.283-.066.218-.35-.066-.284-.567.132-.501.416-.35-.219-.349-.218.066.284-.284.066.152-.634-.264-1.137-.349-.218-.35-.219-.633-.152-.284.066-.283.066-.567.132-.284.066.501-.416.502-.416.455-.616.138-.69-.046-.2-.547.217-.614-.067.521-.33.732-.71-.653-.238-.349-.218-.218-.938-.158-.682-.264.151-.231.293-.27.123-.277.095-.798.425-.521.33-1.411.36-.851.197-.402.843-.119.776-.231.293-.006-.028.02.085.336.162.053.227-.607-.038-.35-.219-.23.294z" fill="#E3E8EE"/><path d="M246.883 130.198l-.284.066-.567.132-.349-.218-.567.132-1.049-.655-.35-.218-.567.132-.501.416-.633-.153-.567.132-.152.635-.217.35-.284.066-.719.766-.283.066-.218.351-.086.918-.151.635.132.568.131.569.35.218.699.436.066.285.066.284.415.502.35.219.349.218.633.152.502-.416.283-.066 1.504-1.248.283-.066.284-.066.152-.635-.132-.568.501-.416.435-.701.284-.066.283-.066.304-1.269.718-.766.568-.132.567-.132.718-.766-.415-.503-.415-.502-.502.416-.283.066-.567.132-.284.066-.435.7zm35.055-6.058l-.501.417-.284.065-.283.066.066.285.065.284-.019 1.203-.02 1.203.349.218.284-.066-.264-1.137.02-1.203.435-.7.218-.35-.066-.285zm2.163 1.594l-.132-.568-.218.35-.217.35.567-.132zm.204-8.136l-.415-.503-.284.066-.085.919-.152.634-.567.132-.567.132.066.285.349.218-.151.634-.152.635.132.568-.152.635.066.284.066.284-.152.635.35.218-.046-1.487.217-.35.218-.351-.066-.284-.066-.284.435-.701.086-.918.435-.701.435-.7zm.864-5.294l-.217.35-.238 1.553.066.285-.217.35.633.152.105-2.122-.132-.568zm1.28-4.791l-.482-.787.198.853-.151.634.066.284.369-.984zm-.64-4.046l.132.569.218-.35-.066-.285-.284.066zm-.705-4.33l-.416-.502.35.218.066.285zm-1.075-3.344l.415.502.066.284.218-.35-.482-.787-.217.35zm-.119-5.665l-.132-.568-.283.066-.152.634.567-.132zm-.455 1.904l-.303 1.269.349.218.435-.7.086-.92-.198-.852-.415-.503-.35-.218-.217.35.415.503.198.853zm-20.239 19.687l-1.813-1.376-1.464-1.157-1.115-.939.066.284-.284.066-.066-.284-.065-.284-.634-.153-.699-.436-.613-1.356-.963-1.573-.066-.284.066.284-.283.066-.699-.437-.416-.502.284-.066.349.218.066.284.284-.066-1.464-1.157-1.115-.939-.066-.284-.065-.285-.983-.37-.35-.218.066.284.066.284-.283.066-.218.35.633.153.983.37.066.284.066.285-.066-.285.283-.066.132.569-.283.066.066.284.349.218-.086.919-.349-.218-.284.066-.501.416.132.568.415.503.35.218 1.029 1.858 1.028 1.858 1.333.589 1.681.807.482.787.263 1.137.699.436.416.503 2.888 4.72.066.284 1.332.589.831 1.005.481.787.264 1.137.699.437.416.502 1.094 2.142 1.53 1.442.218-.35-.132-.569-.613-1.355.02-1.203.349.218.785-.482.633.152.633.153.415.502.35.218-.897-1.289-.831-1.005-.217.35-.633-.152-.634-.152-.699-.437-1.332-.589-1.18-1.223-.679-1.64-.33-1.421-.415-.502-.132-.569.217-.35.152-.634 1.352-.614 1.55.238.633.152.349.219-.699-.437-.982-.37-.699-.437-.416-.502-2.097-1.31z" fill="#E3E8EE"/><path d="M230.463 110.95l.435-.7.086-.919-.284.066-.283.066-.35-.218-.633-.152-.217.35-.502.416-.283.066-.35-.218-.718.766-1.201-.02-.435.7-.851.198-.217.35.066.284-.501.417-.436.7.066.284-.217.35-.917-.086-.917-.086.066.284-.567.132-.283.066-.284.066-.152.634.066.284-.633-.152-.283.066-.502.416-.718.767-.851.198-.35-.219-.85.198-.785.482-1.484.046-.699-.437-.699-.436-1.484.045-1.701.396-.35-.218-.633-.152-.567.132-.567.131-.633-.152-.633-.152-.633-.152-1.069.548-1.002.832.264 1.137.283-.066.416.503.066.284.633.152.917.086-.502.417-.283.066.132.568.699.437.283-.066-.066-.285.502-.416.784-.482.765.721.482.787.283-.066.501-.416.897 1.289-.237 1.553.349.218.284-.066.982.371-.217.35-.218.35.066.285.066.284.066.284-.152.634 1.049.655.765.721.283-.066.284-.066.851-.198.501-.416.501-.416.284-.066.217-.35.633.152.633.152.218-.35.983.371.916.086-.066-.284 1.702-.396.349.218.066.285.284-.066.349.218.284-.066.066.284.066.284.283-.066.699.437.35.218.547 1.071 1.814 1.376.283-.066.066.284.35.218.132.569.699.437.765.72.349.219.481.786.284-.066.35.219.131.568 1.181 1.223 1.068-.548 1.069-.548.349.219.284-.066.283-.066.066.284.284-.066.217-.35.35.218-.066-.284.283-.066-.065-.285 1.332.589 2.051-.177.283-.066.152-.635.086-.918.217-.35-.198-.853-.481-.787-.198-.853-.264-1.137-.349-.218-.567.132-.066-.284-.35-.219-.217.351-.284.066-.066-.285-.066-.284-.283.066-.218.35-.198-.852-.198-.853.086-.919.152-.634-.066-.285-.416-.502.719-.766.719-.767.218-.35-.35-.218.152-.635.217-.35.502-.416.501-.416-.264-1.137-.415-.503 1.351-.614 1.135-.264.217-.35-.132-.568-.415-.503-.264-1.137-.481-.787-.917-.086-.283.066-.218.35-.785.482-.567.132-.152.635-.435.7-1.002.832-.501.417-.218.35-.284.066-.283.066-.284.066-.283.066-.765-.721-.699-.437-1.135.264-.916-.086-.264-1.137.719-.767-.198-.852-.198-.853.218-.35.217-.35.436-.701.435-.7-.066-.284-.066-.285z" fill="#E3E8EE"/><path d="M198.435 113.308l-.916-.086-.436.7.699.437-.217.35-.284.066.132.568.066.285-.284.066.066.284.746 1.924.283-.066.284-.066.198.852.197.853-.283.066-.35-.218-.435.7-.218.35-.633-.152-.283.066-.567.132-.284.066-.501.416.132.569-.218.35.284-.066.349.218.35.218.132.569-.218.35.284-.066.415.503.066.284.415.502-.217.351.481.786.983.371 1.681.807.528 2.274-.567.132-.785.482-.284.066-.501.416-1.088 1.751-1.372 1.817-.217.351-.218.35.831 1.005.963 1.573-1.154 1.467-1.636.68-.217.35-.436.701-.349-.218-.284.066-.151.634-.152.634-.501.417-.785.482-.152.634-.435.701-.218.35-.633-.152-.85.197-.719.767-.435.7-.284.066-.633-.152-1.134.264-.152.634.481.787.066.284-.501.416-.435.701.983.37.699.437-.502.416-.567.132-.369.985.264 1.137.699.436 1.398.873 2.051-.177 2.051-.178.283-.066.218-.35.349.218.567-.131.502-.417.718-.766 1.854-1.03 1.853-1.031.303-1.268 1.589-2.168 1.484-.045 1.266.304 1.135-.263 1.635-.681 1.616.523 2.051-.177.369-.985.653-1.05.719-.767.435-.7-.066-.284-.066-.285-.284.066-.066-.284.04-2.406-.026-2.69.587-1.335.303-1.269-.35-.218-.349-.218-.132-.569-.349-.218-.785.482-.482-.787.152-.634.653-1.051-.066-.284.218-.35 1.002-.833 1.22-1.182-.765-.721-1.048-.655.151-.634-.066-.284-.066-.285-.066-.284.218-.35.218-.35-.983-.371-.283.066-.35-.218.237-1.553-.896-1.29-.502.416-.283.066-.482-.786-.765-.721-.784.482-.502.416.066.284-.283.066-.699-.436-.132-.569.284-.066.217-.35-.633-.152-.633-.152-.35-.219-.131-.568-.284.066-.284.066.02-1.203-1.114-.939-.548-1.071-.283.066-.218.35-.831-1.005-.132-.569-.263-1.137-1.069.548-.633-.152zm61.207 13.922l-.85.198-.633-.152-.132-.569.151-.634-.415-.503-.699-.436-.35-.219-.718.767-.653 1.05-.284.066-.283.066.066.284.349.219.35.218.066.284.349.219.567-.132.567-.132-.171 1.837-1.003.832.132.569.132.568-.936 1.117-1.286.898-.35-.218-.349-.218-.218.35-.217.35-.066-.284-.066-.284-.35-.219-.218.351-.349-.219-.284.066-.369.985-.086.919.132.568-.435.701.33 1.421.395 1.705-.151.635.415.502-.217.35-.152.635.481.787-.435.7-2.269.528-.784.482-.02 1.203-.501.416-.218.35.415.503.416.502 1.246 1.508.68 1.639.349.219.066.284.178 2.055-.785.483-.151.634.283-.066.35.218.415.503.416.502.151-.634-.066-.284-.349-.219-.35-.218 1.135-.264.283-.066-.066-.284-.066-.284.02-1.203.369-.985-.349-.218.217-.35.284-.066.066.284.132.569.217-.351.218-.35.218-.35-.066-.284.481.786.132.569.284-.066-.066-.284.283-.066.35.218.217-.35.633.152.35.218-.132-.568.35.218.501-.416.435-.7 1.306-2.102.672-2.253.218-.35-.132-.569.284-.066-.066-.284-.198-.853.086-.919-.132-.568.435-.7-.046-1.488.171-1.837.172-1.837.237-1.554-.046-1.487-.112-1.771-.132-.569-.198-.852.02-1.203-.198-.853zm22.828-65.306l.692-.426.766.263 1.424-.508-.618-.386-.579.355-1.039-.111.028-.448-.668.73-.006.53zm3.421-2.403l.742-.156.212-.221.737-.242-.096-.133-1.717.577.122.175zm-14.889-4.437l-.567.132.066.284.132.569.264 1.137.264 1.137.066.284.283-.066-.066-.284-.132-.569.152-.634-.066-.284-.066-.285.218-.35.151-.634-.699-.437zm-3.02-18.17l-.217.35.066.283.131.569-.283.066-.284.066-.217.35-.218.35-.917-.086-1.2-.02-1.134.264-1.068.548-.68-1.64-.613-1.355-.851.198-.567.132-.349-.219-.567.132-.785.483-.785.482-.066-.285-.283.066-.568.132-.501.416-.217.35-.436.701-.501.416-.283.066-1.069.548.066.285-.217.35-.284.066-.283.066-.502.416-.217.35-.502.416.482.787.349.218.831 1.005.132.569.132.568.765.721 1.049.655.131.568.416.503.066.284.415.503.699.436 1.266.305.482.787-.218.35.35.218.283-.066.132.569.066.284.35.218.415.503.284-.066.217-.35-.066-.285.35.219.567-.132-.198-.853-.851.198-.83-1.005-.132-.569-.35-.218-.481-.787.719-.766.085-.919.851-.198.284-.066.283-.066-.435.7-.02 1.204.765.72.765.721.132.569.415.502.284-.066.284-.066.481.787.132.569.349.218.35.218-.152.635-.435.7.132.569.066.284-.218.35-.152.634.198.853.35.218.112 1.772.33 1.421-.218.35.066.285-.02 1.202.264 1.137.349.219.35.218.066.284-.218.35.198.853.198.853-.02 1.203-.02 1.203-.151.634-.218.35.066.285.132.568-.501.416-.502.416.633.153.765.72.396 1.706.046 1.487.963 1.574 1.246 1.507 5.223 4.477 6.291 3.93 1.181 1.223 1.398.873.982.37-.046-1.487-.329-1.42.217-.351.086-.919-.877-2.492-.699-.437-.284.066-.066-.284-.066-.284-.415-.503-.284.066-.349-.218.218-.35.633.152.389-2.188.501-.416.283-.066-.065-.284-1.682-.807-.963-1.573-.33-1.422.521-1.619.284-.066.35.218.303-1.268-.198-.853-.983-.37-.982-.371-1.312-1.792-.178-2.056-.066-.284-.35-.218.152-.635.349.219.198.852.567-.132.086-.918-1.682-.808-.066-.284-.217.35-.218.35-1.048-.654-.765-.721-.198-.853-.482-.787-.567.132-.567.132-.283.066-.218.35.35.219-.502.416-.633-.152-1.444-2.36-.33-1.422-.066-.284-.349-.218.283-.066-.065-.285-.284.066-.066-.284-.066-.284-.066-.284-.349-.219-.284.066-.613-1.355.303-1.269.218-.35-.35-.218.851-.198.633.152.086-.919-.633-.152-.066-.284.303-1.269.02-1.203.349.218 1.53 1.442-.197-.853-.264-1.137-.046-1.487.455-1.903 1.002-.833 1.286-.898 1.266.305.851-.198-.482-.787-.765-.72.152-.635.086-.919-.132-.569-.132-.568-.066-.284.218-.35-.416-.503-.283.066.217-.35.284-.066-.35-.218-.349-.219.284-.066.085-.918-.349-.219-.284.066.218-.35.217-.35-.197-.853-.284.066-.066-.284-.066-.284.284-.066.151-.635-.131-.568.217-.35-.349-.219-.066-.284-.567.132-.502.416-.699-.436-.349-.219-2.045 4.07-.501.417z" fill="#E3E8EE"/><path d="M245.236 45.8l-.283.065-.501.416-.284.066-.567.132-.547-1.07-.633-.153-.851.198.132.568-.501.416-.086.92-.152.634-.283.066-.633-.153-.218.35-.218.35-.785.483-1.068.548.066.284.066.284-.284.066-.283.066-.284.066.132.569.416.502-.152.635-.152.634.198.853.633.152-.369.985.33 1.421.699.437.633.152-.152.634.066.285.284-.066.065.284.066.284-.567.132-.085.919-.152.634-.218.35-.501.417.066.284-.152.634-.916-.086-1.266-.305-.152.635-.435.7-.568.132-.501.416.765.721-.086.919-.217.35-.35-.218-.217.35-.218.35-.501.416-.567.132-.086.919-.02 1.203.877 2.492.699.437.983.37.066.285-.152.634.35.218.132.569-.152.634.264 1.137 1.352-.614 1.068-.548 1.965.741 1.246 1.508-.283.066.066.284.132.568.349.219-.785.482.33 1.421.851-.198 1.134-.264 1.266.305 1.049.655.132.568.066.284.784-.482.284-.066.435-.7.435-.7.568-.132.784-.483-.349-.218-.284.066-.132-.568.284-.066-.066-.285-.198-.852.785-.482.785-.483.85-.197.284-.066-.284.066.066.284.284-.066.283-.066-.131-.569.718-.766.633.152.634.153.501-.417.283-.066.066.285-.283.066-.436.7-.501.416.482.787.283-.066.501-.416.37-.985.217-.35.567-.132.502-.416-.066-.284-.132-.569.152-.634.784-.482.567-.132.218-.35-.132-.57.567-.131.284-.066-.35-.218.284-.066.218-.35-.416-.503-.633-.152-.501.416-.218.35.066.284-.217.35-.284.067-.066-.285-.066-.284-.132-.568-.283.066-.35-.219-.066-.284.218-.35-.284.066-.066-.284-.066-.285-.066-.284-.066-.284-.131-.569.303-1.269-.046-1.487-.35-.218-.066-.284-.198-.853.152-.635-.415-.502-.416-.502.304-1.27.085-.918.568-.132.217-.35.739-1.97.85-.197.634.152.085-.919-.132-.568.699.436.416.503.132.568.132.569.349.218.35.218.066.285.349.218.218-.35.217-.35.416.502.481.787-.092-2.975-.158-3.258-.284.066-.415-.503-.35-.218-.066-.284-.132-.569-.283.066-.35-.218-.066-.284-.198-.853-1.266-.305-.982-.37-.132-.569-.066-.284-.416-.503-.131-.568-1.049-.655-.765-.72-.132-.57-.132-.568-.831-1.005-.633-.152-.501.416-.369.985-.284.066-.283.066-.851.198-1.2-.02-.719.766-.851.198-.633-.153-.283.066-.568.132z" fill="#E3E8EE"/><path d="M166.101 52.525l-.284.066-.284.066.066.284.132.568-.283.066.415.503.983.37.501-.416.152-.634-1.398-.873zm28.633-10.556l-.765-.72-.916-.087.699.436.982.371zm-4.352-5.878l-.264-1.137-.349-.218-.501.416.764.72.132.57.218-.35zm7.749 1.193l.547 1.071.349.219.568-.132-.264-1.137-1.2-.02zm5.612 2.29l.303-1.269-.066-.284-.349-.219-1.616-.523-1.418.33-.369.985.263 1.137-.151.634-.218.35-.217.35.567-.131.501-.416.501-.416.851-.198 1.352-.614.066.284zm-4.491-10.34l.217-.35-1.483.046-1.201-.02-.217.35-.501.416-1.267-.305-.916-.086.066.284.349.218-.283.066-.218.35.066.285.415.502.066.285.35.218-.917-.087-.916-.086-.633-.152-.284.066-.35-.219-.065-.284-.218.35-.152.635-.151.634-.218.35-.218.35.35.219.066.284.132.569-.152.634.283-.066.35.218.132.569.415.503.699.436.917.086.415.503.35.218 1.134-.264.284-.066-.198-.852-.198-.853.35.218.349.218.218-.35.217-.35.937-1.117.283-.066.568-.131.283-.066.218-.35.217-.35.218-.351-.633-.152-.567.132-1.332-.59-.831-1.004.653-1.05.066.283 2.229 1.879.587-1.335-.548-1.071.218-.35zm6.41-3.288l-.218.35-.916-.086-.785.482.066.284-.218.35-.633-.152-.066-.284-.851.197-.501.417.132.568-.218.35-.699-.436-.066-.284-.151.634.547 1.071 1.2.02 1.484-.045 1.57-.964.87-1.401-.132-.569-.415-.502zm21.089 5.879l-3.877 3.898-1.023 2.035-1.002.832-1.266-.304-1.266-.305-.567.132-.284.066-.567.132-1.2-.02.066.284-.218.35-.567.132-.35-.218.152-.635.501-.416-.699-.437-.982-.37-1.069.548-.785.482-.606 2.538-.673 2.253-.284.066-.131-.568-.35-.218.501-.416.218-.35-.35-.219-.131-.569.501-.416.151-.634-.501.416-1.22 1.183-.217.35-.218.35-.416-.502.653-1.051.284-.066.719-.767.784-.482-3.053 1.01-2.855 1.863-1.418.33-.501.416.349.218.633.152-.085.92-.785.481-.238 1.553.35.219.501-.416.066.284.066.284.349.218.416.503.132.568.633.153.132.568-.567.132.066.284.065.285-.349-.219-.35-.218-.283.066-.218.35-.283.066-.284.066.198.853.198.852-1.266-.304-2.051.177-.587 1.335-.937 1.117-1.2-.02-.982-.371-.416-.503.501-.416-.633-.152.31 2.624.442 3.193-.218.35-.349-.218-.35-.219.066.285-.283.066-.284.066-.349-.219-.066-.284-.284.066-.567.132-.765-.72-.765-.722-.284.066-.349-.218.218-.35.217-.35-.415-.503-.633-.152.349.218.066.284-.218.35-.699-.436-.415-.503-1.616-.522-.633-.153.284-.066.567-.132.699.437.699.436.851-.197.435-.7-.481-.788-.699-.436-.132-.569-.132-.568-.416-.503-.066-.284-.699-.437-.283.066-.284.066-2.031-1.025-.501.416-.501.416-.284.066-.567.132-.567.132-.983-.37-1.2-.02.066.283-.218.35-.237 1.554.547 1.07.264 1.138-.633-.153-.851.198.066.285-.283.066-.284.066-.501.416-.218.35-.916-.087-.633-.152-.851.198-.851.198-.633-.152-.132-.569.435-.7-.349-.218-.284.066-.567.131-.567.132-.851.198-.633-.152-.217.35-.284.066-.633-.152-.567.132-.218.35-.217.35-.502.416-.784.483.132.568.065.284-.699-.436.152-.635-.481-.787-.699-.436.066.284.132.569-.218.35-.851.198-.982-.37-.218.35-.086.918-.435.7.35.219.283-.066.066.284.066.284.066.285.349.218-.019 1.203.547 1.07.349.219.066.284.132.569.35.218.633.152.699.437.547 1.07.264 1.138.831 1.005.481.787.066.284-.936 1.117-.937 1.116-.085.919.132.568-.218.35-.501.417.263 1.137-.369.984-.567.132-.917-.086-.784.482-.436.7-.567.132-.633-.152.066.284-.283.066-.152.635.066.284.547 1.07.765.722.462 1.99.461 1.99.442 3.192-.719.766-.435.7.35.219.349.218.264 1.137.198.853.415.502.132.569.198.853.415.502.699.437.699.436-.151.635-.218.35-.369.984.197.853-.369.985.831 1.005.284-.066.283-.066.35.218.349.219 1.2.02 1.135-.264.85-.198.416.503.481.787-.217.35-.37.984.983.371 1.266.305.745 1.923.33 1.422.699.436.481.787-.085.919-.502.416.614 1.355 1.048.655-.237 1.553-.172 1.837.132.569.066.284.066.284-.217.351.046 1.487.547 1.071.284-.066.283-.066 1.352-.614.152-.635.916.087.284-.066-.066-.285.284-.066.349.219.218-.351.283-.065.567-.132.218-.351.435-.7.066.284.699.437.35.218-.086.919 1.088-1.751.739-1.97.283-.066.284-.066.152-.634.085-.919.502-.416.567-.132.653-1.05 1.134-.264.916.086.699.437.634.152.131.568.35.219.066.284.066.284 1.418-.33 1.483-.045.35.218.132.569.415.502.066.284.132.569.416.502.349.219.066.284.415.502.264 1.137.132.569.831 1.005.218-.35.283-.066.548 1.071 1.114.939 1.002-.833 1.069-.548.633.153.633.152.633.152.851-.198.283-.066.633.153.35.218 1.701-.396 1.484-.045.699.436.699.437 1.484-.046.785-.482.85-.198.633.152.568-.132.718-.766.502-.416.567-.132.349.218.218-.35-.132-.568.284-.066.567-.132.283-.066.218-.351.633.153.917.086.217-.35-.066-.284.436-.701.501-.416-.066-.284.217-.35.851-.198.435-.701-.046-1.487-.264-1.137.502-.416.217-.35-.132-.569-.415-.502-.633-.153-.35-.218-.283.066-.284.066.152-.634.501-.416-.132-.569-.066-.284.218-.35.218-.351-.983-.37-.765-.721.284-.066.567-.132-.548-1.071.086-.919-.112-1.771.152-.635.435-.7.283-.066.284-.066 1.286-.898 1.286-.898.218-.35-.066-.285-.066-.284.151-.635.284-.066.349.219.284-.066.501-.416 1.22-1.183.02-1.203-.066-.284.218-.35.699.436.217-.35-.481-.787-.415-.502-.831-1.005-.614-1.356-.765-.72.02-1.203-.066-.285.218-.35-.066-.284.218-.35-.066-.285-.066-.284.501-.416.217-.35-.395-1.706-.112-1.771 1.134-.264 1.55.239.567-.132.217-.35.35.218.349.218.37-.985.435-.7.567-.132.066.284.218-.35.217-.35.35.218.699.437.086-.919-.198-.853-.264-1.137.152-.634-.132-.569-.35-.218.152-.634-.066-.285-.699-.436-.983-.37-.877-2.493.02-1.203.086-.918.567-.132.501-.417.218-.35.218-.35.349.218.218-.35.085-.919-.765-.72.502-.417.567-.132.435-.7.152-.634 1.266.304.917.087.151-.635-.066-.284.501-.416.218-.35.152-.635.369-.985.284-.066-.066-.284-.066-.284-.284.066-.066-.284.152-.635-.35-.218-.982-.37-.33-1.422.369-.985-.633-.152-.197-.853.151-.634.152-.634-.416-.503-.131-.568.283-.066.284-.066.283-.066-.066-.285-.066-.284 1.069-.548.784-.482.218-.35.218-.35.633.152.283-.066.152-.635.086-.918.501-.416-.132-.569-.765-.72-.831-1.006.218-.35-.066-.284-1.833-.173-1.966-.741-.131-.569.151-.634-.349-.218-.35-.219.956-2.32 1.458-2.735.218-.35.501-.416-.416-.503-.765-.72-.066-.285-.066-.284-.633-.152-.283.066-.416-.503-.349-.218-.284.066-.349-.219-.416-.502-.151.634.066.285.065.284-.283.066-.066-.284-.284.066.198.852.132.569-.415-.503-.699-.436-.785.482-1.134.264-.482-.787-.831-1.005-3.317-.127zm-25.02 18.403l.633.152.501-.416-.066-.285-.349-.218-.501.416-.218.35z" fill="#E3E8EE"/></svg>