<svg width="12" height="16" fill="none" xmlns="http://www.w3.org/2000/svg"><path d="M4.586 15.954a.558.558 0 00.675-.207l5.91-8.54a.55.55 0 00.04-.58.575.575 0 00-.495-.302L7.05 6.297 8.112.677a.564.564 0 00-.317-.62.557.557 0 00-.675.165L.853 8.116a.547.547 0 00-.07.592c.097.193.29.317.51.317l4.05.027-1.088 6.282a.541.541 0 00.33.62zM2.45 7.909l4.133-5.207-.771 4.064a.584.584 0 00.124.468c.11.124.261.207.427.207l3.264.013-3.843 5.566.758-4.436a.542.542 0 00-.124-.455.516.516 0 00-.413-.192L2.45 7.909z" fill="#9BD2F4"/><path d="M2.45 7.909l4.133-5.207-.771 4.064a.584.584 0 00.124.468c.11.124.261.207.427.207l3.264.013-3.843 5.566.758-4.436a.542.542 0 00-.124-.455.516.516 0 00-.413-.192L2.45 7.909z" fill="#9BD2F4"/></svg>