<svg width="32" height="32" viewBox="0 0 32 32" fill="none" xmlns="http://www.w3.org/2000/svg">
<path d="M13 28C13 28.7956 13.3161 29.5587 13.8787 30.1213C14.4413 30.6839 15.2044 31 16 31C16.7956 31 17.5587 30.6839 18.1213 30.1213C18.6839 29.5587 19 28.7956 19 28" stroke="#E55050" stroke-width="2" stroke-miterlimit="10"/>
<path d="M29 25C29 25 26 20 26 16V11C26 8.34784 24.9464 5.8043 23.0711 3.92893C21.1957 2.05357 18.6522 1 16 1C13.3478 1 10.8043 2.05357 8.92893 3.92893C7.05357 5.8043 6 8.34784 6 11V16C6 20 3 25 3 25H29Z" stroke="#E55050" stroke-width="2" stroke-miterlimit="10" stroke-linecap="square"/>
</svg>
