<svg width="12" height="13" fill="none" xmlns="http://www.w3.org/2000/svg"><path d="M2.484 13a.454.454 0 01-.306-.108.454.454 0 01-.108-.306v-2.304H.684a.454.454 0 01-.306-.108.454.454 0 01-.108-.306v-.414a.39.39 0 01.108-.288.417.417 0 01.306-.126H2.07V8.014H.684a.454.454 0 01-.306-.108A.454.454 0 01.27 7.6v-.612A.39.39 0 01.378 6.7a.417.417 0 01.306-.126H2.07V.832c0-.132.036-.234.108-.306A.417.417 0 012.484.4h4.572c1.356 0 2.424.33 3.204.99.78.66 1.17 1.614 1.17 2.862 0 1.224-.39 2.16-1.17 2.808-.768.636-1.836.954-3.204.954H3.87V9.04h3.474a.36.36 0 01.288.126.36.36 0 01.126.288v.414c0 .12-.042.222-.126.306a.39.39 0 01-.288.108H3.87v2.304c0 .12-.042.222-.126.306a.454.454 0 01-.306.108h-.954zm4.482-6.426c.876 0 1.536-.198 1.98-.594.456-.396.684-.972.684-1.728s-.222-1.332-.666-1.728c-.444-.408-1.11-.612-1.998-.612H3.852v4.662h3.114z" fill="#707B8C"/></svg>