<svg width="24" height="24" fill="none" xmlns="http://www.w3.org/2000/svg"><path d="M3 1h14v4h4v18H3V1zm16 1.414l.586.586H19v-.586z" fill="#fff" stroke="#9BD2F4" stroke-width="2"/><mask id="a" fill="#fff"><rect y="8" width="24" height="12" rx="1"/></mask><rect y="8" width="24" height="12" rx="1" fill="#fff" stroke="#9BD2F4" stroke-width="4" mask="url(#a)"/><path d="M4.488 17a.185.185 0 01-.136-.056.185.185 0 01-.056-.136V11.6c0-.059.016-.107.048-.144a.195.195 0 01.144-.056H6.44c1.568 0 2.368.725 2.4 2.176.01.31.016.517.016.624 0 .101-.005.307-.016.616-.021.747-.221 1.299-.6 1.656-.379.352-.965.528-1.76.528H4.488zm1.952-.92c.448 0 .77-.099.968-.296.197-.203.301-.533.312-.992.01-.32.016-.52.016-.6 0-.085-.005-.283-.016-.592-.01-.437-.123-.76-.336-.968-.208-.208-.536-.312-.984-.312h-.992v3.76H6.44zm5.633 1c-.726 0-1.29-.184-1.696-.552-.405-.368-.619-.915-.64-1.64a21.366 21.366 0 01-.008-.68c0-.304.003-.533.008-.688.021-.71.24-1.253.656-1.632.416-.379.976-.568 1.68-.568s1.264.19 1.68.568c.421.379.643.923.664 1.632.01.31.016.539.016.688 0 .144-.005.37-.016.68-.027.725-.243 1.272-.648 1.64-.405.368-.97.552-1.696.552zm0-.92c.357 0 .643-.107.856-.32.213-.219.328-.55.344-.992.01-.32.016-.536.016-.648 0-.123-.005-.339-.016-.648-.016-.443-.13-.77-.344-.984-.213-.219-.499-.328-.856-.328-.352 0-.635.11-.848.328-.213.213-.328.541-.344.984-.005.155-.008.37-.008.648 0 .272.003.488.008.648.016.443.128.773.336.992.213.213.498.32.856.32zm5.57.92c-.736 0-1.306-.19-1.712-.568-.4-.379-.613-.912-.64-1.6a21.325 21.325 0 01-.008-.704c0-.33.003-.57.008-.72.027-.683.243-1.213.648-1.592.411-.384.979-.576 1.704-.576.475 0 .888.083 1.24.248.352.16.624.381.816.664.192.277.294.592.304.944v.016c0 .043-.018.08-.056.112a.17.17 0 01-.112.04h-.76c-.064 0-.112-.013-.144-.04-.032-.027-.058-.077-.08-.152-.085-.336-.226-.57-.424-.704-.197-.139-.461-.208-.792-.208-.768 0-1.168.43-1.2 1.288a20.75 20.75 0 00-.008.664c0 .299.003.525.008.68.032.859.432 1.288 1.2 1.288.331 0 .595-.07.792-.208.203-.139.344-.373.424-.704.016-.075.04-.125.072-.152a.257.257 0 01.152-.04h.76c.048 0 .088.016.12.048a.13.13 0 01.048.12c-.01.352-.112.67-.304.952a1.996 1.996 0 01-.816.664c-.352.16-.765.24-1.24.24z" fill="#2C8ECC"/></svg>