<svg width="16" height="17" fill="none" xmlns="http://www.w3.org/2000/svg"><path d="M14 2.074h-1.375v-.938A.626.626 0 0012 .511a.626.626 0 00-.625.625v.938H4.562v-.938a.626.626 0 00-.625-.625.626.626 0 00-.624.625v.938H2c-.813 0-1.5.625-1.5 1.5V14.01c0 .813.688 1.5 1.5 1.5h12c.813 0 1.5-.687 1.5-1.5V3.574c0-.875-.688-1.5-1.5-1.5zM4 4.01c.313 0 .625-.25.625-.625V3.26h6.813v.125a.626.626 0 001.25 0V3.26H14c.188 0 .375.188.375.375v1.438H1.687V3.636c0-.187.188-.375.375-.375h1.313v.125c0 .313.25.625.625.625zm10.313 9.938a.403.403 0 01-.376.375H2.063a.403.403 0 01-.376-.375V6.324h12.626v7.625z" fill="#0E4CD3"/></svg>