<svg width="12" height="12" viewBox="0 0 12 12" fill="none" xmlns="http://www.w3.org/2000/svg">
<path d="M9.79501 8.1329C9.79501 8.1329 8.91902 6.67292 8.91902 5.50493V4.04496C8.91902 3.27054 8.61139 2.52783 8.06379 1.98024C7.51619 1.43264 6.77349 1.125 5.99907 1.125C5.22465 1.125 4.48195 1.43264 3.93435 1.98024C3.38675 2.52783 3.07911 3.27054 3.07911 4.04496V5.50493C3.07911 6.67292 2.20312 8.1329 2.20312 8.1329H9.79501Z" fill="#F3A8A8"/>
<path d="M9.79501 8.1329C9.79501 8.1329 8.91902 6.67292 8.91902 5.50493V4.04496C8.91902 3.27054 8.61139 2.52783 8.06379 1.98024C7.51619 1.43264 6.77349 1.125 5.99907 1.125C5.22465 1.125 4.48195 1.43264 3.93435 1.98024C3.38675 2.52783 3.07911 3.27054 3.07911 4.04496V5.50493C3.07911 6.67292 2.20312 8.1329 2.20312 8.1329H9.79501Z" fill="#F3A8A8"/>
<path d="M9.79501 8.1329C9.79501 8.1329 8.91902 6.67292 8.91902 5.50493V4.04496C8.91902 3.27054 8.61139 2.52783 8.06379 1.98024C7.51619 1.43264 6.77349 1.125 5.99907 1.125C5.22465 1.125 4.48195 1.43264 3.93435 1.98024C3.38675 2.52783 3.07911 3.27054 3.07911 4.04496V5.50493C3.07911 6.67292 2.20312 8.1329 2.20312 8.1329H9.79501Z" stroke="#F3A8A8" stroke-width="2" stroke-miterlimit="10" stroke-linecap="square"/>
<path d="M9.79501 8.1329C9.79501 8.1329 8.91902 6.67292 8.91902 5.50493V4.04496C8.91902 3.27054 8.61139 2.52783 8.06379 1.98024C7.51619 1.43264 6.77349 1.125 5.99907 1.125C5.22465 1.125 4.48195 1.43264 3.93435 1.98024C3.38675 2.52783 3.07911 3.27054 3.07911 4.04496V5.50493C3.07911 6.67292 2.20312 8.1329 2.20312 8.1329H9.79501Z" stroke="#F3A8A8" stroke-width="2" stroke-miterlimit="10" stroke-linecap="square"/>
<path fill-rule="evenodd" clip-rule="evenodd" d="M3.99121 10.2319C4.05351 10.6629 4.25334 11.0654 4.56491 11.377C4.94561 11.7577 5.46195 11.9715 6.00034 11.9715C6.53873 11.9715 7.05507 11.7577 7.43577 11.377C7.74735 11.0654 7.94718 10.6629 8.00947 10.2319H3.99121Z" fill="#F3A8A8"/>
</svg>
