<svg width="17" height="17" viewBox="0 0 17 17" fill="none" xmlns="http://www.w3.org/2000/svg">
<path fill-rule="evenodd" clip-rule="evenodd" d="M12.7229 7.11147C12.7229 10.2106 10.2106 12.7229 7.11147 12.7229C4.01234 12.7229 1.5 10.2106 1.5 7.11147C1.5 4.01234 4.01234 1.5 7.11147 1.5C10.2106 1.5 12.7229 4.01234 12.7229 7.11147ZM11.5818 12.6426C10.3604 13.6309 8.80507 14.2229 7.11147 14.2229C3.18392 14.2229 0 11.039 0 7.11147C0 3.18392 3.18392 0 7.11147 0C11.039 0 14.2229 3.18392 14.2229 7.11147C14.2229 8.80513 13.6309 10.3605 12.6425 11.5819L16.0588 14.9982L14.9981 16.0589L11.5818 12.6426Z" fill="#2C8ECC"/>
</svg>
