<svg width="136" height="130" fill="none" xmlns="http://www.w3.org/2000/svg"><path fill-rule="evenodd" clip-rule="evenodd" d="M92.835 69.916c4.583-4.053 22.817-19.213 29.339-23.18 31.644-19.248 46.556 26.057 13.692 31.182-15.927 2.484-31.854 3.588-40.237 4.14-2.722.18-4.71-10.34-2.794-12.142zM65.73 65.432c-2.286-2.03-19.653-18.07-26.544-27.526-8.258-11.33-5.658-24.936 5.24-30.148 13.411-6.416 25.776 1.035 28.43 13.453 1.746 8.17 4.902 35.72 5.309 40.151 1.123 12.225-8.289 7.75-12.435 4.07zM123.5 32.8c-4.679 9.87-20.517 25.046-30.945 34.633-4.764 4.38-11.606-.412-11.735-2.209-1.189-16.418-3.353-39.737-1.118-48.29 3.644-13.95 19.699-20.146 32.21-15.177 11.753 4.666 17.349 18.89 11.588 31.043zM38.544 46.611c12.587 9.3 20.192 15.498 26.209 21.097 4.484 4.173.975 9.5-2.934 9.935-14.25 1.586-28.78 2.76-37.162 2.76-20.576 0-26.985-14.15-22.774-26.147 5.449-15.523 22.888-17.821 36.66-7.645zm40.6 88.224c.59 18.637-12.886 28.795-26.36 25.493-14.506-3.555-20.234-19.284-12.48-32.737 5.254-9.115 27.942-34.564 31.085-38.082 1.352-1.513 4.951 5.101 5.221 8.505.339 4.292 2.114 23.575 2.533 36.821zm22.352-51.121c10.618.276 19.279-.22 32.972.551 19.559 1.105 27.941 16.006 20.677 29.803-5.658 10.751-22.075 15.455-36.884 2.761-15.107-12.95-21.655-19.87-27.104-25.388-2.55-2.584 2.507-7.93 10.339-7.727zm-11.595 9.659c4.82 5.174 15.228 16.006 23.89 26.491 8.091 9.794 10.52 24.648-2.235 30.631-11.177 5.244-23.72.724-27.384-17.661-3.353-16.832-5.043-30.949-5.308-33.943-.238-2.674 9.578-7.085 11.037-5.518z" fill="url(#paint0_linear)"/><path fill-rule="evenodd" clip-rule="evenodd" d="M64.893 79.575c-7.051.682-31.445 3.395-41.075 7.45-27.033 11.384-2.777 46.278 16.766 30.08C56.23 104.134 68.72 89.64 71.599 85.646c0 0 .107-6.071-6.706-6.071z" fill="url(#paint1_linear)"/><g filter="url(#filter0_d)"><path d="M58.873 88.648c4.978 11.026 18.078 15.989 29.267 11.085 11.188-4.903 16.222-17.816 11.25-28.843-3.675-8.14-11.78-12.976-20.271-12.976-3.011 0-6.07.608-8.995 1.89-11.192 4.902-16.225 17.818-11.25 28.844z" fill="#000"/></g><path d="M58.873 88.648c4.978 11.026 18.078 15.989 29.267 11.085 11.188-4.903 16.222-17.816 11.25-28.843-3.675-8.14-11.78-12.976-20.271-12.976-3.011 0-6.07.608-8.995 1.89-11.192 4.902-16.225 17.818-11.25 28.844z" fill="url(#paint2_linear)"/><defs><linearGradient id="paint0_linear" x1="74.397" y1="-11.686" x2="74.397" y2="160.945" gradientUnits="userSpaceOnUse"><stop stop-color="#59CF32"/><stop offset="1" stop-color="#19A260"/></linearGradient><linearGradient id="paint1_linear" x1="8.232" y1="107.476" x2="67.036" y2="76.174" gradientUnits="userSpaceOnUse"><stop stop-color="#D32C3E"/><stop offset="1" stop-color="#DF5549"/></linearGradient><linearGradient id="paint2_linear" x1="79.131" y1="57.914" x2="79.131" y2="101.624" gradientUnits="userSpaceOnUse"><stop stop-color="#F5FD38"/><stop offset="1" stop-color="#FFD900"/></linearGradient><filter id="filter0_d" x="47.955" y="52.914" width="62.351" height="61.71" filterUnits="userSpaceOnUse" color-interpolation-filters="sRGB"><feFlood flood-opacity="0" result="BackgroundImageFix"/><feColorMatrix in="SourceAlpha" values="0 0 0 0 0 0 0 0 0 0 0 0 0 0 0 0 0 0 127 0"/><feOffset dy="4"/><feGaussianBlur stdDeviation="4.5"/><feColorMatrix values="0 0 0 0 0.247059 0 0 0 0 0.227451 0 0 0 0 0.0117647 0 0 0 0.08 0"/><feBlend in2="BackgroundImageFix" result="effect1_dropShadow"/><feBlend in="SourceGraphic" in2="effect1_dropShadow" result="shape"/></filter></defs></svg>