<svg width="125" height="132" fill="none" xmlns="http://www.w3.org/2000/svg"><g opacity=".05" fill="#2C8ECC"><path d="M136.568 23.432C121.458 8.322 101.369 0 80 0S38.542 8.322 23.432 23.432 0 58.632 0 80c0 21.369 8.322 41.458 23.432 56.568S58.632 160 80 160c21.369 0 41.458-8.322 56.568-23.432S160 101.369 160 80s-8.322-41.459-23.432-56.568zM80 147.074c-36.984 0-67.074-30.09-67.074-67.074 0-36.984 30.09-67.074 67.074-67.074 36.984 0 67.074 30.09 67.074 67.074 0 36.984-30.09 67.074-67.074 67.074z"/><path d="M79.994 73.537A6.463 6.463 0 0073.531 80v29.415a6.463 6.463 0 1012.926 0V80a6.463 6.463 0 00-6.463-6.463zm4.571-27.523a6.508 6.508 0 00-4.57-1.893c-1.7 0-3.367.69-4.57 1.893a6.507 6.507 0 00-1.894 4.57c0 1.701.69 3.367 1.893 4.57a6.51 6.51 0 004.57 1.894c1.701 0 3.367-.69 4.571-1.893a6.508 6.508 0 001.893-4.57c0-1.701-.69-3.367-1.893-4.57z"/></g></svg>