<svg width="1366" height="400" fill="none" xmlns="http://www.w3.org/2000/svg"><path d="M1366 .578H0v399.006h1366V.578z"/><g clip-path="url(#clip0)"><path d="M688.666 279.942s-18.021-12.337-6.268-23.939 16.479-1.545 28.208-16.22c11.729-14.675 13.324-13.13 21.94-5.405 8.617 7.726 11.771-10.809 24.295-10.039 12.524.769 8.616 9.27 20.369 9.27s7.062-9.27 20.375-11.585c13.313-2.314 3.92 8.495 21.94 8.495 18.021 0 33.694-13.13 37.613 1.545 3.92 14.675-7.062 44.788-7.062 44.788l-161.41 3.09z" fill="#9BD2F4"/><path d="M874.664 271.844H676.047s-41.344 2.432-42.963 25.896c-1.618 23.463 20.269 42.079 47.018 39.653 26.749-2.426 66.504-11.332 94.041 4.042 27.538 15.374 79.452 23.498 100.521 17.806 21.07-5.693 55.128-12.137 79.452-4.858 24.324 7.278 109.464 15.761 127.274 6.667 17.81-9.094 62.42-32.557 107.01-28.515 44.59 4.042 137-47.743 59.99-60.691-77.02-12.947-373.726 0-373.726 0z" fill="#2C8ECC"/><path d="M863.548 69.924s-5.25.352-6.298-3.666c-1.047-4.018 3.326-6.462 8.24-5.581 4.914.881 9.969.523 11.37-2.967 1.401-3.49 3.496-15.186 13.113-11.52 9.616 3.666 15.89 4.365 22.028.7 6.139-3.667 11.182-13.442 22.206-8.032 11.023 5.411 7.868 16.755 20.11 18.852 12.241 2.097 11.888-5.933 20.28-2.796 8.393 3.137 10.665 16.073-3.672 15.021-14.337-1.051-56.652-1.927-74.661-1.762-18.009.164-32.716 1.75-32.716 1.75zm38.566 138.36s-2.254 4.599-4.508 3.231c-2.254-1.369-3.237-.688-3.631 1.075-.395 1.762-3.92 2.443-5.297.781-1.377-1.663-2.06-.294-4.708-.094-2.649.2-3.331-3.819-4.903-5.387-1.571-1.569-10.005.787-11.47-3.425-1.466-4.212-3.431-1.956-5.197-3.619-1.765-1.662-7.062 1.269-7.256-2.743-.195-4.013-8.434-6.263-6.869-10.668 1.566-4.406-3.531-3.913-2.354-5.875 1.177-1.962-4.414-8.612 1.077-11.749 1.766-1.369-2.454-4.206-.194-6.556 2.26-2.35-3.337-6.756 0-10.475 3.337-3.718 0-4.6 1.177-6.85s4.708-2.449 4.908-6.849c.201-4.4-.1-7.737 5.786-8.712 3.625-1.275 1.765-6.562 4.608-7.15 2.843-.587 5.885-.781 7.651-2.444 1.765-1.662 3.137-6.168 5.885-4.893 2.749 1.275 2.548-3.037 5.097-1.469 2.548 1.569 2.354-4.993 5.397-2.35 3.042 2.644 10.393-4.599 13.33-1.175 2.937 3.425 5.591-.781 8.728 1.275 3.137 2.056 5.196 4.112 8.039 2.738 2.843-1.375 4.908.881 5.491 2.643.583 1.763 5.591-2.349 7.257.981 1.665 3.331 4.708.782 6.574 4.401 1.865 3.618 7.35 1.762 8.239 5.974.889 4.212 9.122 3.425 8.728 12.724-.394 9.3 2.354 10.375 1.665 11.938-.688 1.562 7.063 6.562 2.26 12.924-4.802 6.362.977 5.187-.688 9-1.666 3.812 1.565 6.562-1.277 11.061-2.843 4.5 1.277 11.45-7.063 12.337-6.279 1.175-1.93 10.245-11.57 6.95-3.531-.781-6.574 6.949-8.922 4.7-2.349-2.25-5.491 3.818-8.14 1.075-2.648-2.744-6.962 3.624-11.276-.294-4.314-3.919-4.096-6.127-6.574-3.031z" fill="#9BD2F4"/><path d="M900.444 268.792s-1.436-.264-3.266 1.563c-1.831 1.827-5.621 3.002-7.975 2.743-2.354-.258 4.184-2.743 6.274-8.747 2.089-6.004 4.573-8.5 3.79-15.938-.783-7.437 3.137-26.23 1.96-30.342-1.177-4.112-.195-16.837-3.137-19.186-2.943-2.35-13.466-7.567-19.216 7.049-1.965 4.958-2.483 1.304-.524-3.26 1.96-4.565 5.621-7.443 3.791-8.618-1.831-1.175-19.481 1.045-24.842-4.565-1.307-1.568 1.047-.652 1.047-.652s5.232 2.608 10.07 2.35c4.838-.259 18.957-1.439 23.271.91 4.313 2.35 8.104 4.442 7.45 2.479-.653-1.962-11.505-19.309-22.228-22.576-10.723-3.266-19.481-6.914-21.57-9.916-2.089-3.002 2.089 0 2.089 0a73.57 73.57 0 0016.867 5.481c2.096.129 1.178-2.091 1.178-2.091s-4.314-19.052-.259-27.928c2.089-2.35.523 3.002.523 3.002s-1.177 19.838 5.356 28.844c3.272 2.738 6.015 5.875 6.933 1.956.918-3.918 2.484-5.739 6.274-8.87 3.79-3.132 2.748-10.704.259-15.662-2.49-4.958 7.98-14.358 5.885-23.499-.394-2.479 1.006-.393 1.006-.393s2.849 3.983-.482 12.595c-.524 1.439 4.314 1.369 7.321-3.002 1.571-2.479.718 1.24.718 1.24s-1.766 4.699-8.298 4.893a5.758 5.758 0 00-2.878 1.962s-3.367 2.867-.23 7.96c1.86 3.525 1.86 7.831 1.86 7.831s2.554 1.957 5.691-.587.783.587.783.587-2.154 4.4-6.474 3.425c-1.565 4.4-5.685 7.437-6.368 9.987-.683 2.55-1.765 5.875 1.371 10.081 3.137 4.206 9.246 10.768 11.341 11.291 2.096.523 7.322-5.61 8.628-7.308 1.307-1.698-2.613-10.833-6.538-14.881-3.926-4.047 1.312-.387 1.312-.387s7.186 5.874 7.71 12.001c.129 1.569 5.361-3.131 4.967-5.61-.394-2.479-2.742-11.355-1.565-16.572 1.177-5.217-6.933-9.264-7.322-13.705-.388-4.442 1.042-.782 1.042-.782a12.923 12.923 0 004.249 6.298c2.354 1.762 2.554 2.544 3.143-.1.588-2.644 2.354-10.862 7.745-17.224 1.271-1.075.883.881.883.881s-5.591 5.481-6.668 20.943c-.395 7.149.682 18.699 2.06 19.186 1.377.488 6.862-2.25 10.099-6.949 3.237-4.7 6.862-7.344 9.805-13.212 2.942-5.869 1.177-9.2 1.665-10.281.489-1.081.689.493.689.493a18.51 18.51 0 01-5.003 16.931c-2.548 3.231 5.197-.587 5.197-.587s2.548-.394.783 1.274c-1.766 1.669-5.685 1.957-10.099 6.263-4.414 4.306-3.826 6.262-10.982 10.081-4.803 3.912-6.568 6.755-6.08 7.343.489.587 10.005-.787 13.236.388 3.231 1.174 10.988 5.968 15.79 1.862 1.566-1.375 1.566 0 .983.781-.582.781-4.614 5.875-16.279.194-4.413-1.269-15.59.394-18.632 3.131-3.043 2.738-3.626 12.466-3.626 12.466s2.872-3.654 6.015-5.222c3.143-1.569 9.016 1.568 10.193 3.395 1.177 1.827-1.83.259-1.83.259s-4.379-2.35-6.044-2.35c-1.666 0-7.063 6.068-8.334 10.374-1.271 4.306 1.566 12.496.653 17.037-.912 4.541-.129 21.877.913 23.574 1.041 1.698 2.095 14.223 3.272 15.656 1.177 1.434 4.443 3.267 5.885 4.441 1.442 1.175-.912 2.215-3.531.782a51.153 51.153 0 00-7.845-3.261c-1.307-.393-4.184 5.998-5.626 5.998-1.442 0-2.478-4.829-6.274-5.998z" fill="#116CA6"/><path d="M1206.68 220.407s-1.81 3.677-3.61 2.579c-1.8-1.099-2.58-.547-2.9.863-.31 1.41-3.13 1.951-4.23.623-1.09-1.328-1.65-.235-3.76-.077-2.11.159-2.66-3.048-3.92-4.3-1.25-1.251-7.99.623-9.16-2.737-1.17-3.361-2.74-1.569-4.16-2.897-1.41-1.327-5.64 1.017-5.79-2.191-.16-3.207-6.74-5.005-5.49-8.524 1.25-3.519-2.82-3.125-1.88-4.699.93-1.575-3.53-6.88.86-9.4 1.42-1.093-1.96-3.366-.16-5.24 1.81-1.874-2.66-5.399 0-8.365 2.66-2.967 0-3.678.95-5.476.94-1.797 3.76-1.956 3.92-5.475.15-3.519-.09-6.18 4.62-6.961 2.9-1.016 1.41-5.24 3.68-5.71 2.27-.47 4.71-.623 6.11-1.956 1.4-1.334 2.51-4.923 4.71-3.907s2.03-2.426 4.07-1.175c2.04 1.251 1.88-3.989 4.31-1.88 2.42 2.109 8.31-3.672 10.66-.934 2.34 2.738 4.46-.629 6.97 1.016s4.12 3.284 6.42 2.192c2.3-1.093 3.92.699 4.39 2.109.47 1.41 4.47-1.88 5.8.781s3.76.628 5.25 3.525c1.49 2.896 5.88 1.41 6.58 4.77.69 3.36 7.28 2.737 6.97 10.169-.31 7.431 1.88 8.289 1.33 9.54-.55 1.251 5.65 5.24 1.81 10.322-3.84 5.081.78 4.147-.55 7.196-1.34 3.049 1.25 5.24-1.02 8.812-2.27 3.572 1.02 9.153-5.64 9.858-5.02.94-1.54 8.183-9.25 5.551-2.82-.628-5.25 5.552-7.13 3.754-1.88-1.798-4.38 3.049-6.5.858s-5.56 2.896-9.01-.229c-3.44-3.126-3.28-4.859-5.25-2.385z" fill="#9BD2F4"/><path d="M1205.34 268.745s-1.18-.212-2.61 1.251c-1.43 1.463-4.49 2.397-6.37 2.185-1.88-.211 3.34-2.185 5.01-6.985 1.68-4.799 3.66-6.791 3.04-12.736-.63-5.945 2.5-20.96 1.56-24.244-.94-3.284-.16-13.453-2.51-15.327-2.34-1.874-10.76-6.051-15.36 5.628-1.56 3.965-1.98 1.045-.41-2.603 1.56-3.648 4.49-5.945 3.03-6.885-1.47-.94-15.57.834-19.85-3.648-1.05-1.251.84-.523.84-.523s4.18 2.086 8.04 1.88c3.86-.206 15.15-1.175 18.59.729 3.45 1.903 6.48 3.524 5.96 1.979-.52-1.545-9.19-15.432-17.76-18.041-8.57-2.608-15.57-5.528-17.24-7.924-1.67-2.397 1.67 0 1.67 0 4.3 1.998 8.83 3.47 13.48 4.382 1.67.106.94-1.668.94-1.668s-3.45-15.227-.21-22.324c1.67-1.874.42 2.397.42 2.397s-.94 15.861 4.28 23.046c2.61 2.191 4.81 4.7 5.54 1.568.73-3.131 1.98-4.593 5.01-7.096s2.2-8.548.21-12.513c-1.99-3.965 6.37-11.467 4.71-18.769-.31-1.98.8-.312.8-.312s2.28 3.184-.38 10.064c-.42 1.174 3.44 1.092 5.85-2.397 1.25-1.98.58.987.58.987s-1.41 3.754-6.63 3.912c-.91.271-1.71.817-2.3 1.563 0 0-2.69 2.297-.18 6.362a15.404 15.404 0 011.49 6.256s2.03 1.563 4.54-.47c2.51-2.032.63.47.63.47s-1.72 3.525-5.17 2.738c-1.26 3.525-4.55 5.945-5.09 7.978-.55 2.032-1.42 4.699 1.09 8.054 2.51 3.354 7.39 8.606 9.06 9.023 1.68.417 5.85-4.488 6.9-5.839 1.05-1.351-2.09-8.659-5.22-11.89-3.14-3.231 1.04-.312 1.04-.312s5.75 4.7 6.16 9.594c.11 1.251 4.29-2.503 3.97-4.483-.32-1.98-2.19-9.076-1.25-13.247.93-4.171-5.53-7.402-5.85-10.95-.32-3.549.83-.623.83-.623a10.394 10.394 0 003.4 5.029c1.88 1.41 2.04 2.038 2.51-.077.47-2.115 1.88-8.682 6.19-13.764 1.02-.858.7.705.7.705s-4.46 4.377-5.33 16.737c-.31 5.71.56 14.939 1.65 15.327 1.09.387 5.48-1.798 8.07-5.552 2.58-3.754 5.48-5.874 7.83-10.574 2.35-4.7.94-7.355 1.34-8.225.39-.869.55.388.55.388.51 2.406.41 4.902-.29 7.261a14.804 14.804 0 01-3.71 6.251c-2.04 2.585 4.15-.464 4.15-.464s2.04-.318.63 1.016c-1.41 1.333-4.55 1.563-8.07 5.005-3.53 3.443-3.06 5.005-8.78 8.054-3.83 3.125-5.25 5.393-4.86 5.875.39.481 8-.623 10.6.317 2.6.94 8.77 4.77 12.61 1.486 1.25-1.098 1.25 0 .78.623s-3.68 4.7-13.01.159c-3.53-1.017-12.45.311-14.88 2.502-2.43 2.191-2.9 9.987-2.9 9.987s2.3-2.937 4.81-4.171c2.51-1.234 7.21 1.251 8.14 2.708.94 1.457-1.46.212-1.46.212s-3.5-1.904-4.83-1.904-5.64 4.847-6.66 8.289c-1.02 3.443 1.25 9.987.52 13.635-.73 3.648-.1 17.483.73 18.834.84 1.352 1.67 11.368 2.62 12.513.94 1.146 3.53 2.609 4.7 3.525 1.18.917-.73 1.762-2.81.623a41.13 41.13 0 00-6.27-2.603c-1.05-.317-3.35 4.794-4.5 4.794s-2.02-3.813-5.05-4.758z" fill="#116CA6"/><path d="M787.75 214.769s-1.801 3.677-3.602 2.579c-1.801-1.099-2.59-.547-2.902.863-.312 1.41-3.131 1.956-4.231.623-1.101-1.334-1.642-.235-3.761-.076-2.119.158-2.66-3.049-3.914-4.301-1.253-1.251-7.992.623-9.169-2.737-1.177-3.36-2.743-1.563-4.155-2.896-1.413-1.334-5.638 1.016-5.797-2.186-.159-3.201-6.739-5.005-5.485-8.53 1.253-3.524-2.819-3.125-1.878-4.699.942-1.575-3.531-6.885.86-9.4 1.412-1.092-1.96-3.36-.153-5.24 1.806-1.88-2.666-5.393 0-8.365 2.666-2.973 0-3.678.935-5.475.936-1.798 3.761-1.957 3.92-5.476.159-3.518-.076-6.18 4.62-6.961 2.902-1.016 1.413-5.24 3.684-5.71 2.272-.47 4.708-.623 6.115-1.951 1.407-1.327 2.507-4.928 4.708-3.912s2.037-2.426 4.079-1.175c2.042 1.251 1.877-3.989 4.308-1.874 2.43 2.115 8.304-3.677 10.652-.94 2.349 2.738 4.467-.628 6.974 1.016 2.508 1.645 4.155 3.284 6.427 2.192 2.272-1.093 3.914.705 4.385 2.109.47 1.404 4.467-1.874 5.797.781 1.33 2.655 3.76.629 5.249 3.525 1.489 2.896 5.886 1.41 6.586 4.77.7 3.36 7.286 2.738 6.968 10.169-.318 7.431 1.884 8.289 1.336 9.54-.547 1.252 5.638 5.24 1.801 10.328-3.837 5.087.783 4.112-.547 7.19-1.33 3.079 1.253 5.24-1.018 8.812-2.272 3.572 1.018 9.147-5.644 9.852-5.015.94-1.542 8.183-9.246 5.551-2.819-.622-5.25 5.552-7.127 3.754-1.878-1.797-4.391 3.049-6.474.864-2.084-2.185-5.562 2.89-9.011-.235-3.448-3.125-3.313-4.852-5.29-2.379z" fill="#9BD2F4"/><path d="M786.42 263.116s-1.177-.211-2.613 1.251c-1.436 1.463-4.491 2.397-6.374 2.192-1.883-.206 3.343-2.192 5.014-6.991 1.672-4.8 3.655-6.791 3.031-12.736-.624-5.945 2.507-20.961 1.566-24.245-.942-3.284-.153-13.447-2.508-15.327-2.354-1.879-10.758-6.044-15.354 5.634-1.566 3.96-1.984 1.04-.418-2.608 1.565-3.648 4.49-5.945 3.031-6.885-1.46-.94-15.567.834-19.851-3.648-1.042-1.252.835-.523.835-.523s4.179 2.085 8.046 1.88c3.866-.206 15.148-1.146 18.591.728 3.443 1.874 6.474 3.525 5.956 1.98-.518-1.545-9.193-15.433-17.756-18.041-8.563-2.608-15.566-5.522-17.238-7.925-1.671-2.403 1.672 0 1.672 0 4.298 2 8.823 3.472 13.477 4.383 1.671.105.936-1.669.936-1.669s-3.443-15.227-.206-22.323c1.671-1.874.418 2.402.418 2.402s-.942 15.862 4.284 23.041c2.607 2.191 4.802 4.699 5.532 1.568.73-3.131 1.989-4.588 5.015-7.09 3.025-2.503 2.195-8.554.211-12.513-1.983-3.96 6.374-11.473 4.709-18.799-.318-1.986.8-.317.8-.317s2.278 3.184-.383 10.063c-.417 1.175 3.443 1.098 5.851-2.397 1.253-1.98.588.993.588.993s-1.407 3.754-6.633 3.906a4.597 4.597 0 00-2.295 1.569s-2.69 2.291-.182 6.356a15.263 15.263 0 011.489 6.257s2.036 1.568 4.543-.47c2.507-2.039.624.47.624.47s-1.725 3.525-5.167 2.737c-1.254 3.525-4.55 5.945-5.097 7.978-.547 2.033-1.407 4.7 1.1 8.054 2.508 3.354 7.386 8.606 9.058 9.024 1.671.417 5.85-4.483 6.898-5.84 1.047-1.357-2.09-8.659-5.227-11.89-3.137-3.231 1.048-.311 1.048-.311s5.744 4.699 6.162 9.593c.106 1.251 4.284-2.503 3.972-4.482-.311-1.98-2.195-9.077-1.253-13.248.942-4.171-5.538-7.402-5.85-10.944-.312-3.543.836-.629.836-.629a10.306 10.306 0 003.395 5.035c1.878 1.404 2.037 2.032 2.508-.082.47-2.115 1.877-8.677 6.185-13.765 1.018-.857.706.705.706.705s-4.467 4.383-5.297 16.737c-.311 5.71.548 14.939 1.642 15.327 1.095.388 5.486-1.798 8.075-5.552 2.59-3.753 5.479-5.874 7.833-10.574 2.355-4.7.942-7.349 1.33-8.224.389-.876.548.393.548.393a14.804 14.804 0 01-3.996 13.512c-2.037 2.579 4.155-.47 4.155-.47s2.036-.311.624 1.016c-1.413 1.328-4.544 1.563-8.069 5.005-3.525 3.443-3.055 5.006-8.775 8.054-3.837 3.132-5.25 5.399-4.856 5.875.395.476 7.993-.629 10.594.311 2.601.94 8.775 4.771 12.612 1.487 1.254-1.099 1.254 0 .789.622-.465.623-3.684 4.7-13.007.159-3.531-1.016-12.459.311-14.89 2.503-2.43 2.191-2.895 9.986-2.895 9.986s2.295-2.937 4.802-4.171c2.507-1.233 7.21 1.252 8.152 2.715.941 1.462-1.466.205-1.466.205s-3.496-1.903-4.832-1.903c-1.336 0-5.638 4.846-6.656 8.289-1.018 3.442 1.254 9.987.518 13.635-.736 3.648-.1 17.483.736 18.84.835 1.357 1.671 11.361 2.607 12.513.935 1.151 3.531 2.602 4.708 3.524 1.177.923-.73 1.763-2.819.629a40.346 40.346 0 00-6.268-2.608c-1.048-.312-3.343 4.793-4.49 4.793-1.148 0-2.066-3.801-5.091-4.729z" fill="#116CA6"/><path d="M818.153 305.267s78.015-2.885 105.241-1.927c27.225.958 59.7 0 57.422 6.732-2.277 6.733-66.98 4.8-81.805 6.727-14.825 1.927-62.52 14.892-83.436 6.244-20.917-8.647-64.15-8.171-69.005-18.74-4.856-10.568 71.583.964 71.583.964zm279.857-2.547s24.22-1.274 32.67-.851c8.45.423 18.53 0 17.83 2.974-.71 2.974-20.8 2.12-25.4 2.971-4.6.851-19.41 6.579-25.9 2.759-6.49-3.82-19.92-3.61-21.42-8.279-1.51-4.668 22.22.426 22.22.426z" fill="#000" opacity=".3"/><path d="M1091.71 107.781c-4.58-5.974-44.05-34.625-57.19-38.96a6.935 6.935 0 00-4.34 0c-13.14 4.335-52.611 32.986-57.19 38.96-4.902 6.398-17.72 60.197-17.72 68.851 0 8.653 1.135 89.922 3.772 93.688 2.307 3.29 144.308 3.29 146.618 0 2.64-3.766 3.77-85.029 3.77-93.688 0-8.66-12.82-62.447-17.72-68.851z" fill="#116CA6"/><path d="M1109.68 194.226c-.14-2.327-.29-4.612-.44-6.856-33.38.252-104.66-.429-154.299-1.034.165 2.238.324 4.529.495 6.873 35.259.429 117.184 1.334 154.244 1.017z" fill="#2C8ECC"/><path d="M957.266 254.14c.494 8.906 1.083 15.198 1.765 16.185 2.307 3.29 144.309 3.29 146.619 0 .76-1.093 1.4-8.665 1.91-19.087-37.1 4.788-126.7 3.372-150.294 2.902z" fill="#116CA6"/><path d="M1113.57 153.689c-3.39-7.149-13.95-47.032-20.35-51.92-5.72-4.37-42.38-29.12-57.68-36.786a7.071 7.071 0 00-6.38 0c-15.3 7.666-51.961 32.416-57.676 36.786-6.403 4.888-16.961 44.771-20.351 51.92-3.39 7.15-5.297 42.885-5.297 46.997 0 4.112 6.786 5.646 9.416 4.518 2.631-1.128 3.02-27.464 3.02-27.464.512-13.206 15.454-63.211 18.833-68.104 2.571-3.701 35.625-24.24 51.505-33.985a7.092 7.092 0 013.71-1.05c1.31 0 2.59.364 3.71 1.05 15.89 9.746 48.93 30.284 51.51 33.985 3.39 4.893 18.33 54.898 18.83 68.104 0 0 .38 26.336 3.02 27.464 2.64 1.128 9.42-.376 9.42-4.518 0-4.141-1.85-39.847-5.24-46.997zm-110.94 119.26l-2.48-1.052s-3.041-48.089.14-60.203c16.4-1.686 39.4-1.897 39.4-1.897l25.59 1.057s2.08 43.179-.14 60.826c-14.13 2.596-30.73 2.068-30.73 2.068l-5.1.047-26.68-.846z" fill="#9BD2F4"/><path d="M1076.13 203.147c-3.94.152-82.988.152-86.925 0-4.12-.159-5.75 1.598-5.432 3.989.318 2.39 1.283 3.665 4.797 3.348 2.942-.264 85.24-.264 88.19 0 3.53.317 4.47-.958 4.8-3.348.32-2.391-1.28-4.148-5.43-3.989zm-98.208-56.008v26.13c0 1.763 10.776 2.197 15.619 2.197 4.844 0 4.397-8.347 4.62-16.249.224-7.901 1.536-16.031-3.531-16.689-5.067-.658-16.708-3.314-16.708 4.611z" fill="#fff"/><path d="M982.979 149.205s-1.865 20.309-.329 20.861c1.536.552 10.122 2.526 10.893.329.771-2.197.989-21.301 0-22.183-.989-.881-10.011-1.973-10.564.993z" fill="#2C8ECC"/><path d="M1067.19 147.139v26.13c0 1.763 10.78 2.197 15.62 2.197s4.4-8.347 4.62-16.249c.22-7.901 1.54-16.031-3.53-16.689-5.07-.658-16.71-3.314-16.71 4.611z" fill="#fff"/><path d="M1072.25 149.205s-1.87 20.309-.33 20.861c1.53.552 10.12 2.526 10.89.329.77-2.197.99-21.301 0-22.183-.99-.881-10.01-1.973-10.56.993z" fill="#2C8ECC"/><path d="M1022.55 117.673v26.136c0 1.763 10.78 2.197 15.62 2.197 4.85 0 4.4-8.348 4.62-16.255.23-7.907 1.54-16.026-3.53-16.69-5.06-.663-16.71-3.289-16.71 4.612z" fill="#fff"/><path d="M1027.61 119.764s-1.86 20.308-.33 20.861c1.54.552 10.13 2.526 10.9.329.77-2.198.98-21.302 0-22.183-.99-.881-10.03-1.974-10.57.993z" fill="#2C8ECC"/><path d="M921.746 266.228s19.963-4.9 26.484-2.515c6.521 2.385 5.75 7.173 5.75 7.173l-28.838 1.909-3.396-6.567zm-61.619 14.853l14.619-1.657 49.86-21.918 6.033-10.392s-19.016-13.171-19.534-13.171c-.518 0-24.971-2.456-25.359-2.35-.389.106-18.633 10.851-19.534 12.143-.9 1.292-9.575 21.307-9.575 21.307l3.49 16.038zm-89.068-16.113l2.836-1.915s-.241-6.333 2.272-10.392c2.513-4.059 19.886-10.833 19.886-10.833s39.132 9.211 40.809 23.763c1.677 14.551-4.002 17.424-4.002 17.424h-20.657l-41.144-18.047z" fill="#21252B"/><path d="M829.918 230.792s1.318-26.771 2.154-29.638c.836-2.866 4.308-8.365 6.474-8.483 2.166-.117 2.837 2.75 2.837 2.75s-4.756 6.333-4.997 7.525c-.241 1.193-1.077 28.198-1.077 28.198l-5.391-.352z" fill="#2E2B47"/><path d="M846.449 200.962c.053-.358.153-7.413 2.908-8.723 2.754-1.31 25.465-1.087 29.691.469 4.226 1.557 2.754 4.788 2.46 5.147-.294.358-35.059 3.107-35.059 3.107zm13.16 82.27s2.848-.329 2.589-2.526c-1.035-5.81-.776-17.953-.776-17.953s2.978-17.435 20.704-27.375c16.885-8.43 36.448 1.803 44.905 7.231 0-6.068 0-11.808-.071-13.37-.147-3.437-14.601-7.708-36.394-3.637-21.293.259-40.391 13.6-45.317 7.778-5.297-6.209-16.279-6.403-16.279-6.403a12.974 12.974 0 00-2.23 0c-7.981.482-49.325 8.448-51.715 13.547-2.389 5.099-4.79 12.924-3.672 15.497 1.118 2.573 13.883-6.256 13.883-6.256 47.406-2.55 45.653 33.914 45.653 33.914l28.72-.447z" fill="#FCA844"/><path d="M839.734 250.784s1.066-37.122 5.562-46.521c4.496-9.399 38.649-2.708 38.649-2.708l3.225 22.805a2.174 2.174 0 01-1.677 2.426c-6.033 1.351-24.13 7.05-29.321 27.076-.636 3.778-15.319 4.095-16.438-3.078z" fill="#fff"/><path d="M936.341 275.653c-.395-1.175-1.042-1.128-1.825-2.479-.783-1.351-1.218-3.695-1.495-4.071-1.218-4.594.265-6.092.359-6.832a2.756 2.756 0 00-2.354-2.749c-1.812-.412-2.748-.981-3.213-2.35-.465-1.369-.212-2.127.465-3.267.677-1.139-.465-3.366-2.078-2.937-1.612.429-3.166-.517-4.202-.928-1.036-.411-3.007-2.279-2.595-3.525.412-1.245-.153-2.279-1.348-2.508-1.195-.229-1.507.335-3.06.335-1.554 0-3.82-.793-4.291-.741-4.584-1.245-5.149-3.278-5.744-3.73a2.757 2.757 0 00-3.531.646c-1.271 1.363-2.23 1.886-3.631 1.616-1.401-.27-1.948-.881-2.602-2.033-.653-1.151-3.154-1.281-3.595.317-.442 1.598-2.031 2.474-2.943 3.167-.912.693-3.478 1.463-4.349.482-.871-.982-2.06-1.005-2.855-.089-.794.917-.465 1.469-1.241 2.814-.777 1.346-2.596 2.902-2.784 3.331-3.378 3.349-5.421 2.814-6.109 3.108a2.743 2.743 0 00-1.213 3.39c.548 1.762.518 2.866-.417 3.947-.936 1.081-1.737 1.24-3.067 1.228-1.33-.012-2.683 2.086-1.518 3.272 1.165 1.187 1.13 2.99 1.289 4.112.159 1.123-.471 3.743-1.766 4.007-1.294.264-1.895 1.275-1.5 2.42.394 1.146 1.041 1.134 1.818 2.479.777 1.346 1.224 3.701 1.501 4.077 1.218 4.588-.265 6.092-.359 6.833a2.752 2.752 0 002.354 2.743c1.813.417 2.748.987 3.213 2.35.465 1.363.212 2.126-.465 3.266-.676 1.14.465 3.366 2.078 2.937 1.612-.428 3.166.517 4.202.935 1.036.417 3.007 2.279 2.595 3.524-.412 1.246.153 2.28 1.348 2.509 1.195.229 1.507-.335 3.06-.335 1.554 0 3.82.793 4.285.74 4.591 1.245 5.156 3.278 5.75 3.73a2.759 2.759 0 003.531-.646c1.265-1.363 2.231-1.886 3.631-1.615 1.401.27 1.948.881 2.596 2.032.647 1.152 3.154 1.281 3.602-.317.447-1.598 2.03-2.479 2.942-3.166.912-.688 3.478-1.463 4.349-.482.871.981 2.06 1.005 2.855.088.794-.916.465-1.469 1.242-2.814.776-1.345 2.595-2.902 2.783-3.337 3.378-3.342 5.421-2.808 6.109-3.101a2.749 2.749 0 001.213-3.39c-.548-1.762-.518-2.873.418-3.948.935-1.075 1.736-1.239 3.06-1.228 1.324.012 2.689-2.085 1.524-3.272-1.165-1.186-1.13-2.996-1.289-4.112-.159-1.116.471-3.742 1.766-4.001 1.295-.258 1.918-1.28 1.501-2.432z" fill="#354052"/><path d="M916.292 286.832c5.297-9.159 2.124-18.405-.865-23.129-2.99-4.723-9.752-7.519-17.762-7.419-8.01.1-14.125 7.419-14.125 7.419-7.916 12.719-1.177 25.725 6.474 29.585 7.651 3.86 20.969 2.696 26.278-6.456z" fill="#707B8C"/><path d="M893.673 271.352s2.248-2.703 5.203-2.738c2.954-.035 5.444.993 6.55 2.738 1.107 1.744 2.278 5.152.318 8.53-1.96 3.377-6.868 3.8-9.681 2.349-2.813-1.451-5.309-6.191-2.39-10.879z" fill="#C0D6EB" opacity=".3"/><path d="M783.95 251.225s15.802-1.763 23.941 2.708a38.438 38.438 0 0114.569 14.25 38.34 38.34 0 015.223 19.682c1.601 6.532 4.314 3.524 4.95-1.763.635-5.287 1.277-23.739-14.843-33.297-8.781-5.734-26.654-4.7-30.804-4.829-4.149-.129-7.497 3.537-3.036 3.249z" fill="#354052"/><path d="M774.614 268.667s-11.494 1.833-12.453-.635c-.959-2.467-1.312-6.291 5.297-6.174 6.609.118 13.766.476 13.766.476l-6.61 6.333z" fill="#505E7F"/><path d="M844.601 200.011s33.64-2.843 38.943-2.843c5.302 0 7.374-.776 6.862 1.422-.512 2.197-3.443 3.618-3.443 3.618s6.203 27.382 5.403 28.351c-.801.97-5.403 0-5.403 0s-5.032-26.159-6.944-27.317c-1.913-1.157-34.382 2.45-36.584.646-2.201-1.803-5.173-2.608 1.166-3.877z" fill="#354052"/><path d="M862.188 263.651s8.622-22.911 25.86-26.765c17.238-3.854 36.548 3.913 46.765 19.163 4.149 3.619 4.308-.364 2.554-4.03-1.754-3.666-11.812-24.374-43.893-23.575-27.931.952-32.369 30.907-32.369 30.907s-1.5 7.631 1.083 4.3z" fill="#354052"/><path d="M943.405 267.898s10.771 18.406 13.643 30.948c2.395 7.173 3.713-3.102 3.713-3.102s1.436-27.722-5.509-36.211c-6.944-8.489-16.625 1.081-11.847 8.365z" fill="#21252B"/><path d="M948.043 265.747s-.476-2.867 1.119-3.425c1.594-.558 3.113-.082 3.272 1.716.159 1.797-1.966 4.658-4.391 1.709z" fill="#F9F9FA"/><path d="M770.143 253.382s.96-9.082 3.431-10.926c2.472-1.845 4.155-.987 4.155-.987s1.766 7.502 1.278 8.753c-.489 1.251-9.14 5.205-8.864 3.16z" fill="#EAF4FA"/><path d="M821.801 284.058c-.301-.887-.801-.875-1.401-1.909s-.936-2.844-1.177-3.131c-.936-3.525.206-4.7.276-5.252a2.104 2.104 0 00-.489-1.385 2.115 2.115 0 00-1.276-.73c-1.395-.317-2.113-.758-2.472-1.763a2.566 2.566 0 01.359-2.508c.518-.875-.359-2.591-1.595-2.273-1.236.317-2.436-.394-3.237-.717-.8-.323-2.313-1.763-1.995-2.708a1.352 1.352 0 00-.033-1.224 1.368 1.368 0 00-1.003-.703c-.918-.182-1.177.258-2.354.258s-2.942-.587-3.296-.587c-3.531-.958-3.96-2.52-4.419-2.867a2.12 2.12 0 00-2.725.493c-.977 1.052-1.719 1.451-2.796 1.246a2.587 2.587 0 01-1.995-1.569c-.5-.887-2.425-.981-2.772.247s-1.56 1.903-2.236 2.432c-.677.529-2.678 1.128-3.349.37a1.378 1.378 0 00-2.195-.064c-.589.705-.353 1.128-.948 2.162-.594 1.033-2.001 2.232-2.142 2.567-2.596 2.573-4.167 2.162-4.708 2.385a2.11 2.11 0 00-.93 2.608c.418 1.363.4 2.203-.318 3.031a2.574 2.574 0 01-2.354.946c-1.018 0-2.066 1.604-1.177 2.515.888.91.871 2.302.994 3.154.124.852-.365 2.879-1.353 3.078a1.37 1.37 0 00-1.177 1.863c.3.881.8.869 1.4 1.903.601 1.034.936 2.843 1.177 3.137.936 3.525-.206 4.7-.276 5.252a2.113 2.113 0 001.765 2.115c1.395.317 2.113.752 2.472 1.792a2.568 2.568 0 01-.359 2.508c-.518.875.359 2.591 1.595 2.268 1.236-.323 2.437.399 3.237.716.8.318 2.313 1.763 1.995 2.709a1.361 1.361 0 00.033 1.225 1.367 1.367 0 001.003.707c.918.182 1.177-.258 2.354-.258s2.943.587 3.296.587c3.531.958 3.961 2.521 4.42 2.867a2.12 2.12 0 002.725-.493c.977-1.052 1.718-1.451 2.795-1.246a2.575 2.575 0 011.995 1.569c.501.887 2.425.981 2.772-.247.348-1.228 1.56-1.903 2.237-2.438.677-.535 2.678-1.122 3.348-.37a1.383 1.383 0 001.08.584 1.374 1.374 0 001.116-.514c.588-.704.353-1.127.947-2.161.595-1.034 2.001-2.233 2.142-2.568 2.596-2.573 4.167-2.161 4.709-2.385a2.123 2.123 0 00.93-2.608c-.424-1.369-.401-2.209.317-3.037a2.572 2.572 0 012.355-.94c1.018 0 2.065-1.61 1.177-2.514-.889-.905-.871-2.309-.995-3.155-.124-.846.365-2.879 1.354-3.078a1.368 1.368 0 001.177-1.892z" fill="#354052"/><path d="M807.329 293.288c4.391-7.572 1.766-15.215-.718-19.122-2.483-3.906-8.057-6.215-14.713-6.133-6.656.083-11.647 6.133-11.647 6.133-6.545 10.516-.959 21.272 5.344 24.456 6.303 3.184 17.35 2.233 21.734-5.334z" fill="#707B8C"/><path d="M788.622 280.491s1.854-2.238 4.296-2.268c2.443-.029 4.503.829 5.415 2.268a6.814 6.814 0 01.265 7.049c-1.619 2.791-5.68 3.143-8.004 1.968-2.325-1.174-4.373-5.14-1.972-9.017z" fill="#C0D6EB" opacity=".3"/><g clip-path="url(#clip1)"><path d="M1167.78 187.327c-5.64-18.249-20.52-33.111-38.78-38.754-6.4-1.976-12.99-3.011-19.4-3.011-13.08 0-25.7 4.045-36.24 11.947-15.63 11.475-24.95 29.818-24.95 49.195 0 13.357 4.24 26.056 12.24 36.685l48.95 62.709 48.96-62.709c11.95-15.991 15.34-36.403 9.22-56.062zm-58.18 52.299c-18.17 0-32.95-14.768-32.95-32.922 0-18.154 14.78-32.922 32.95-32.922s32.95 14.768 32.95 32.922c0 18.154-14.78 32.922-32.95 32.922z" fill="#FCA844"/><path d="M1076.65 206.704c0 18.154 14.78 32.922 32.95 32.922s32.95-14.768 32.95-32.922c0-18.155-14.78-32.923-32.95-32.923s-32.95 14.768-32.95 32.923z" fill="#fff"/></g><path d="M1074.56 131.704S1082.77 119 1108.08 119c25.32 0 33.53 12.704 33.53 12.704m-85.54-20.789s12.74-19.634 52.01-19.634c39.28 0 52.02 19.634 52.02 19.634m-124.84-26.563s17.84-26.563 72.82-26.563c54.99 0 72.83 26.563 72.83 26.563" stroke="#FCA844" stroke-width="5" stroke-linecap="round"/></g><defs><clipPath id="clip0"><path fill="#fff" transform="translate(633 37)" d="M0 0h645v328H0z"/></clipPath><clipPath id="clip1"><path fill="#fff" transform="translate(1028.32 145.562)" d="M0 0h160.672v160.535H0z"/></clipPath></defs></svg>