<svg width="645" height="328" fill="none" xmlns="http://www.w3.org/2000/svg"><path d="M55.664 242.942s-18.021-12.337-6.268-23.939 16.479-1.545 28.208-16.22c11.73-14.675 13.324-13.13 21.94-5.405 8.617 7.726 11.771-10.809 24.295-10.039 12.524.769 8.616 9.27 20.369 9.27s7.062-9.27 20.375-11.585c13.313-2.314 3.92 8.495 21.94 8.495 18.021 0 33.694-13.13 37.613 1.545 3.92 14.675-7.062 44.788-7.062 44.788l-161.41 3.09z" fill="#9BD2F4"/><path d="M241.662 234.844H43.045S1.701 237.276.082 260.74c-1.618 23.463 20.27 42.079 47.018 39.653 26.749-2.426 66.504-11.332 94.041 4.042 27.538 15.374 79.452 23.498 100.521 17.806 21.07-5.693 55.128-12.137 79.452-4.858 24.324 7.278 109.467 15.761 127.276 6.667 17.809-9.094 62.419-32.557 107.006-28.515 44.588 4.042 137.004-47.743 59.989-60.691-77.015-12.947-373.723 0-373.723 0z" fill="#2C8ECC"/><path d="M230.546 32.923s-5.25.353-6.298-3.665c-1.047-4.018 3.326-6.462 8.24-5.581 4.914.881 9.97.523 11.37-2.967 1.401-3.49 3.496-15.186 13.113-11.52 9.616 3.666 15.89 4.365 22.028.7 6.139-3.667 11.182-13.442 22.206-8.031 11.023 5.41 7.868 16.754 20.11 18.851 12.241 2.097 11.888-5.933 20.28-2.796 8.393 3.137 10.665 16.073-3.672 15.021-14.337-1.051-56.652-1.927-74.661-1.762-18.009.164-32.716 1.75-32.716 1.75zm38.566 138.361s-2.254 4.599-4.508 3.231c-2.254-1.369-3.237-.688-3.631 1.075-.394 1.762-3.92 2.443-5.297.781-1.377-1.663-2.06-.294-4.708-.094-2.649.2-3.331-3.819-4.903-5.387-1.571-1.569-10.005.787-11.47-3.425-1.466-4.212-3.431-1.956-5.197-3.619-1.765-1.662-7.062 1.269-7.256-2.743-.195-4.013-8.434-6.263-6.869-10.668 1.566-4.406-3.531-3.913-2.354-5.875 1.177-1.962-4.414-8.612 1.077-11.749 1.766-1.369-2.454-4.206-.194-6.556 2.26-2.35-3.337-6.756 0-10.475 3.337-3.718 0-4.6 1.177-6.85s4.708-2.449 4.908-6.849c.201-4.4-.1-7.737 5.786-8.712 3.625-1.275 1.765-6.562 4.608-7.15 2.843-.587 5.885-.781 7.651-2.444 1.765-1.662 3.137-6.168 5.885-4.893 2.749 1.275 2.549-3.037 5.097-1.469 2.548 1.569 2.354-4.993 5.397-2.35 3.042 2.644 10.393-4.6 13.33-1.175 2.937 3.425 5.591-.78 8.728 1.275 3.137 2.056 5.196 4.112 8.039 2.738 2.843-1.375 4.908.881 5.491 2.643.583 1.763 5.591-2.35 7.257.981 1.665 3.331 4.708.782 6.574 4.4 1.865 3.62 7.35 1.763 8.239 5.975.889 4.212 9.122 3.425 8.728 12.724-.394 9.3 2.354 10.375 1.665 11.938-.688 1.562 7.063 6.562 2.26 12.924-4.802 6.362.977 5.187-.688 9-1.666 3.812 1.565 6.562-1.277 11.061-2.843 4.5 1.277 11.45-7.063 12.337-6.279 1.175-1.93 10.245-11.57 6.95-3.531-.781-6.574 6.949-8.922 4.7-2.349-2.25-5.491 3.818-8.14 1.075-2.648-2.744-6.962 3.624-11.276-.294-4.314-3.919-4.096-6.127-6.574-3.031z" fill="#9BD2F4"/><path d="M267.44 231.792s-1.436-.264-3.266 1.563c-1.831 1.827-5.621 3.002-7.975 2.743-2.354-.258 4.185-2.743 6.274-8.747 2.089-6.004 4.573-8.5 3.79-15.938-.783-7.437 3.137-26.23 1.96-30.342-1.177-4.112-.194-16.837-3.137-19.186-2.943-2.35-13.466-7.567-19.216 7.049-1.965 4.958-2.483 1.304-.523-3.26 1.959-4.565 5.62-7.443 3.79-8.618-1.831-1.175-19.481 1.045-24.842-4.565-1.307-1.568 1.047-.652 1.047-.652s5.232 2.608 10.07 2.35c4.838-.259 18.957-1.439 23.271.91 4.314 2.35 8.104 4.442 7.45 2.479-.653-1.962-11.505-19.309-22.228-22.576-10.723-3.266-19.481-6.914-21.57-9.916-2.089-3.002 2.089 0 2.089 0a73.562 73.562 0 0016.868 5.481c2.095.129 1.177-2.091 1.177-2.091s-4.314-19.052-.259-27.928c2.089-2.35.523 3.002.523 3.002s-1.177 19.838 5.356 28.844c3.272 2.738 6.015 5.875 6.933 1.956.918-3.918 2.484-5.739 6.274-8.87 3.79-3.132 2.748-10.704.259-15.662-2.49-4.958 7.98-14.358 5.885-23.498-.394-2.48 1.006-.394 1.006-.394s2.849 3.983-.482 12.595c-.524 1.44 4.314 1.369 7.321-3.002 1.571-2.479.718 1.24.718 1.24s-1.766 4.699-8.298 4.893a5.758 5.758 0 00-2.878 1.962s-3.366 2.867-.23 7.96c1.86 3.525 1.86 7.831 1.86 7.831s2.554 1.957 5.691-.587.783.587.783.587-2.154 4.4-6.474 3.425c-1.565 4.4-5.685 7.437-6.368 9.987-.682 2.55-1.765 5.875 1.371 10.081 3.137 4.206 9.246 10.768 11.341 11.291 2.096.523 7.322-5.61 8.628-7.308 1.307-1.698-2.613-10.833-6.538-14.881-3.926-4.047 1.312-.387 1.312-.387s7.186 5.874 7.71 12.001c.129 1.569 5.361-3.131 4.967-5.61-.394-2.479-2.742-11.355-1.565-16.572 1.177-5.217-6.933-9.264-7.322-13.705-.388-4.442 1.042-.782 1.042-.782a12.923 12.923 0 004.249 6.298c2.354 1.762 2.554 2.544 3.143-.1s2.354-10.862 7.745-17.224c1.271-1.075.883.88.883.88s-5.591 5.482-6.668 20.944c-.395 7.149.682 18.699 2.06 19.186 1.377.488 6.862-2.25 10.099-6.949 3.237-4.7 6.862-7.344 9.805-13.212 2.942-5.869 1.177-9.2 1.665-10.281.489-1.081.689.493.689.493a18.51 18.51 0 01-5.003 16.931c-2.548 3.231 5.197-.587 5.197-.587s2.548-.394.783 1.274c-1.766 1.669-5.685 1.957-10.099 6.263-4.414 4.306-3.826 6.262-10.982 10.081-4.803 3.912-6.568 6.755-6.08 7.343.489.587 10.005-.787 13.236.388 3.231 1.174 10.988 5.968 15.79 1.862 1.566-1.375 1.566 0 .983.781-.582.781-4.614 5.875-16.278.194-4.414-1.269-15.591.394-18.633 3.131-3.043 2.738-3.626 12.466-3.626 12.466s2.872-3.654 6.015-5.222c3.143-1.569 9.016 1.568 10.193 3.395 1.178 1.827-1.83.259-1.83.259s-4.379-2.35-6.044-2.35c-1.666 0-7.062 6.068-8.334 10.374-1.271 4.306 1.566 12.496.654 17.037-.913 4.541-.13 21.877.912 23.574 1.042 1.698 2.095 14.223 3.272 15.656 1.177 1.434 4.443 3.267 5.885 4.441 1.442 1.175-.912 2.215-3.531.782a51.153 51.153 0 00-7.845-3.261c-1.306-.393-4.184 5.998-5.626 5.998-1.442 0-2.478-4.829-6.274-5.998z" fill="#116CA6"/><path d="M573.677 183.407s-1.807 3.677-3.608 2.579c-1.801-1.099-2.583-.547-2.895.863-.312 1.41-3.137 1.951-4.232.623-1.094-1.328-1.648-.235-3.761-.077-2.112.159-2.666-3.048-3.919-4.3-1.254-1.251-7.992.623-9.164-2.737-1.171-3.361-2.742-1.569-4.155-2.897-1.412-1.327-5.644 1.017-5.797-2.191-.153-3.207-6.738-5.005-5.485-8.524 1.254-3.519-2.819-3.125-1.883-4.699.936-1.575-3.531-6.88.865-9.4 1.413-1.093-1.96-3.366-.159-5.24s-2.66-5.399 0-8.365c2.66-2.967 0-3.678.942-5.476.942-1.797 3.761-1.956 3.919-5.475.159-3.519-.082-6.18 4.62-6.961 2.902-1.016 1.413-5.24 3.685-5.71 2.271-.47 4.708-.623 6.109-1.956 1.4-1.334 2.507-4.923 4.708-3.907s2.036-2.426 4.072-1.175c2.037 1.251 1.884-3.989 4.308-1.88 2.425 2.109 8.311-3.672 10.659-.934 2.348 2.738 4.467-.629 6.974 1.016 2.507 1.645 4.12 3.284 6.421 2.192 2.301-1.093 3.919.699 4.39 2.109.471 1.41 4.467-1.88 5.797.781s3.761.628 5.25 3.525c1.489 2.896 5.885 1.41 6.58 4.77.694 3.36 7.286 2.737 6.974 10.169-.312 7.431 1.883 8.289 1.33 9.54-.553 1.251 5.644 5.24 1.807 10.322-3.838 5.081.782 4.147-.554 7.196-1.336 3.049 1.254 5.24-1.018 8.812-2.271 3.572 1.018 9.153-5.638 9.858-5.014.94-1.542 8.183-9.246 5.551-2.819-.628-5.249 5.552-7.133 3.754-1.883-1.798-4.384 3.049-6.503.858-2.119-2.191-5.562 2.896-9.004-.229-3.443-3.126-3.279-4.859-5.256-2.385z" fill="#9BD2F4"/><path d="M572.34 231.745s-1.177-.212-2.608 1.251c-1.43 1.463-4.496 2.397-6.373 2.185-1.878-.211 3.343-2.185 5.014-6.985 1.671-4.799 3.655-6.791 3.031-12.736-.624-5.945 2.507-20.96 1.565-24.244-.941-3.284-.159-13.453-2.507-15.327-2.348-1.874-10.764-6.051-15.36 5.628-1.566 3.965-1.984 1.045-.418-2.603 1.565-3.648 4.496-5.945 3.031-6.885-1.466-.94-15.567.834-19.846-3.648-1.047-1.251.836-.523.836-.523s4.179 2.086 8.039 1.88c3.861-.206 15.149-1.175 18.598.729 3.449 1.903 6.474 3.524 5.956 1.979-.518-1.545-9.193-15.432-17.762-18.041-8.569-2.608-15.566-5.528-17.238-7.924-1.671-2.397 1.671 0 1.671 0a58.83 58.83 0 0013.478 4.382c1.671.106.941-1.668.941-1.668s-3.448-15.227-.211-22.324c1.671-1.874.417 2.397.417 2.397s-.935 15.861 4.285 23.046c2.613 2.191 4.808 4.7 5.538 1.568.73-3.131 1.983-4.593 5.014-7.096s2.196-8.548.206-12.513c-1.989-3.965 6.374-11.467 4.709-18.769-.312-1.98.806-.312.806-.312s2.277 3.184-.389 10.064c-.417 1.174 3.449 1.092 5.85-2.397 1.254-1.98.589.987.589.987s-1.413 3.754-6.633 3.912a4.598 4.598 0 00-2.301 1.563s-2.69 2.297-.182 6.362a15.258 15.258 0 011.489 6.256s2.036 1.563 4.543-.47c2.507-2.032.63.47.63.47s-1.725 3.525-5.173 2.738c-1.254 3.525-4.544 5.945-5.091 7.978-.548 2.032-1.413 4.699 1.094 8.054 2.508 3.354 7.392 8.606 9.064 9.023 1.671.417 5.85-4.488 6.897-5.839 1.048-1.351-2.089-8.659-5.226-11.89s1.048-.312 1.048-.312 5.744 4.7 6.162 9.594c.106 1.251 4.284-2.503 3.966-4.483-.317-1.98-2.189-9.076-1.253-13.247.936-4.171-5.532-7.402-5.85-10.95-.318-3.549.836-.623.836-.623a10.33 10.33 0 003.395 5.029c1.884 1.41 2.037 2.038 2.508-.077.47-2.115 1.883-8.682 6.191-13.764 1.018-.858.706.705.706.705s-4.467 4.377-5.332 16.737c-.312 5.71.553 14.939 1.648 15.327 1.095.387 5.485-1.798 8.069-5.552 2.583-3.754 5.485-5.874 7.833-10.574s.942-7.355 1.336-8.225c.394-.869.547.388.547.388a14.786 14.786 0 01-3.996 13.512c-2.036 2.585 4.155-.464 4.155-.464s2.037-.318.624 1.016c-1.412 1.333-4.544 1.563-8.069 5.005-3.525 3.443-3.054 5.005-8.775 8.054-3.837 3.125-5.249 5.393-4.861 5.875.388.481 7.992-.623 10.594.317 2.601.94 8.774 4.77 12.612 1.486 1.253-1.098 1.253 0 .782.623-.47.623-3.684 4.7-13.006.159-3.531-1.017-12.453.311-14.884 2.502-2.431 2.191-2.901 9.987-2.901 9.987s2.301-2.937 4.808-4.171c2.507-1.234 7.209 1.251 8.145 2.708.936 1.457-1.459.212-1.459.212s-3.502-1.904-4.832-1.904-5.644 4.847-6.662 8.289c-1.019 3.443 1.253 9.987.523 13.635-.729 3.648-.106 17.483.73 18.834.836 1.352 1.672 11.368 2.613 12.513.942 1.146 3.531 2.609 4.708 3.525 1.178.917-.729 1.762-2.819.623a40.888 40.888 0 00-6.267-2.603c-1.048-.317-3.343 4.794-4.497 4.794-1.153 0-2.018-3.813-5.049-4.758z" fill="#116CA6"/><path d="M154.748 177.769s-1.801 3.677-3.602 2.579c-1.801-1.099-2.59-.547-2.902.863-.312 1.41-3.131 1.956-4.231.623-1.101-1.334-1.642-.235-3.761-.076-2.119.158-2.66-3.049-3.914-4.301-1.253-1.251-7.992.623-9.169-2.737-1.177-3.36-2.743-1.563-4.155-2.896-1.412-1.334-5.638 1.016-5.797-2.186-.159-3.201-6.739-5.005-5.485-8.53 1.254-3.524-2.819-3.125-1.878-4.699.942-1.575-3.531-6.885.86-9.4 1.412-1.092-1.96-3.36-.153-5.24 1.806-1.88-2.666-5.393 0-8.365 2.666-2.973 0-3.678.936-5.475.935-1.798 3.76-1.957 3.919-5.476.159-3.518-.076-6.18 4.62-6.961 2.902-1.016 1.413-5.24 3.684-5.71 2.272-.47 4.708-.623 6.115-1.951 1.407-1.327 2.507-4.928 4.708-3.912s2.037-2.426 4.079-1.175c2.042 1.251 1.877-3.989 4.308-1.874 2.431 2.115 8.304-3.677 10.652-.94 2.349 2.738 4.467-.628 6.974 1.016 2.508 1.645 4.155 3.284 6.427 2.192 2.272-1.093 3.914.705 4.385 2.109.471 1.404 4.467-1.874 5.797.781 1.33 2.655 3.76.629 5.249 3.525 1.489 2.896 5.886 1.41 6.586 4.77.7 3.36 7.286 2.738 6.968 10.169-.317 7.431 1.884 8.289 1.336 9.54-.547 1.252 5.638 5.24 1.801 10.328-3.837 5.087.783 4.112-.547 7.19-1.33 3.079 1.253 5.24-1.018 8.812-2.272 3.572 1.018 9.147-5.644 9.852-5.015.94-1.542 8.183-9.246 5.551-2.819-.622-5.25 5.552-7.127 3.754-1.878-1.797-4.391 3.049-6.474.864-2.084-2.185-5.562 2.89-9.01-.235-3.449-3.125-3.314-4.852-5.291-2.379z" fill="#9BD2F4"/><path d="M153.418 226.116s-1.177-.211-2.613 1.251c-1.436 1.463-4.491 2.397-6.374 2.192-1.883-.206 3.343-2.192 5.014-6.991 1.672-4.8 3.655-6.791 3.031-12.736-.624-5.945 2.507-20.961 1.566-24.245-.942-3.284-.153-13.447-2.507-15.327-2.355-1.879-10.759-6.044-15.355 5.634-1.566 3.96-1.984 1.04-.418-2.608 1.565-3.648 4.49-5.945 3.031-6.885-1.46-.94-15.567.834-19.851-3.648-1.042-1.252.835-.523.835-.523s4.179 2.085 8.046 1.88c3.866-.206 15.148-1.146 18.591.728 3.443 1.874 6.474 3.525 5.956 1.98-.518-1.545-9.193-15.433-17.756-18.041-8.563-2.608-15.566-5.522-17.238-7.925-1.671-2.403 1.672 0 1.672 0 4.298 2 8.823 3.472 13.477 4.383 1.671.105.936-1.669.936-1.669s-3.443-15.227-.206-22.323c1.671-1.874.418 2.402.418 2.402s-.942 15.862 4.284 23.041c2.607 2.191 4.803 4.699 5.532 1.568.73-3.131 1.99-4.588 5.015-7.09 3.025-2.503 2.195-8.554.211-12.513-1.983-3.96 6.374-11.473 4.709-18.799-.318-1.986.8-.317.8-.317s2.278 3.184-.382 10.063c-.418 1.175 3.442 1.098 5.85-2.397 1.253-1.98.588.993.588.993s-1.407 3.754-6.633 3.906a4.597 4.597 0 00-2.295 1.569s-2.69 2.291-.182 6.356a15.263 15.263 0 011.489 6.257s2.036 1.568 4.543-.47c2.507-2.039.624.47.624.47s-1.725 3.525-5.167 2.737c-1.254 3.525-4.55 5.945-5.097 7.978-.547 2.033-1.407 4.7 1.101 8.054 2.507 3.354 7.386 8.606 9.057 9.024 1.671.417 5.85-4.483 6.898-5.84 1.047-1.357-2.09-8.659-5.227-11.89-3.136-3.231 1.048-.311 1.048-.311s5.744 4.699 6.162 9.593c.106 1.251 4.284-2.503 3.972-4.482-.311-1.98-2.195-9.077-1.253-13.248.942-4.171-5.538-7.402-5.85-10.944-.312-3.543.836-.629.836-.629a10.306 10.306 0 003.395 5.035c1.878 1.404 2.037 2.032 2.508-.082.47-2.115 1.877-8.677 6.185-13.765 1.018-.857.706.705.706.705s-4.467 4.383-5.297 16.737c-.311 5.71.548 14.939 1.643 15.327 1.094.388 5.485-1.798 8.074-5.552 2.59-3.753 5.479-5.874 7.833-10.574 2.355-4.7.942-7.349 1.331-8.224.388-.876.547.393.547.393a14.804 14.804 0 01-3.996 13.512c-2.037 2.579 4.155-.47 4.155-.47s2.036-.311.624 1.016c-1.413 1.328-4.544 1.563-8.069 5.005-3.525 3.443-3.055 5.006-8.775 8.054-3.837 3.132-5.25 5.399-4.856 5.875.395.476 7.993-.629 10.594.311 2.601.94 8.775 4.771 12.612 1.487 1.254-1.099 1.254 0 .789.622-.465.623-3.684 4.7-13.007.159-3.531-1.016-12.459.311-14.889 2.503-2.431 2.191-2.896 9.986-2.896 9.986s2.295-2.937 4.802-4.171c2.508-1.233 7.21 1.252 8.152 2.715.941 1.462-1.466.205-1.466.205s-3.496-1.903-4.832-1.903c-1.336 0-5.638 4.846-6.656 8.289-1.018 3.442 1.254 9.987.518 13.635-.736 3.648-.1 17.483.736 18.84.835 1.357 1.671 11.361 2.607 12.513.935 1.151 3.531 2.602 4.708 3.524 1.177.923-.73 1.763-2.819.629a40.346 40.346 0 00-6.268-2.608c-1.047-.312-3.343 4.793-4.49 4.793-1.148 0-2.066-3.801-5.091-4.729z" fill="#116CA6"/><path d="M185.153 268.267s78.015-2.885 105.241-1.927c27.225.958 59.7 0 57.422 6.732-2.277 6.733-66.98 4.8-81.805 6.727-14.825 1.927-62.52 14.892-83.436 6.244-20.917-8.647-64.15-8.171-69.005-18.74-4.856-10.568 71.583.964 71.583.964zm279.853-2.547s24.218-1.274 32.67-.851c8.452.423 18.533 0 17.826 2.974-.707 2.974-20.793 2.12-25.395 2.971s-19.408 6.579-25.902 2.759c-6.493-3.82-19.914-3.61-21.421-8.279-1.508-4.668 22.222.426 22.222.426z" fill="#000" opacity=".3"/><path d="M458.713 70.781c-4.585-5.974-44.052-34.625-57.2-38.96a6.907 6.907 0 00-4.331 0c-13.148 4.335-52.615 32.986-57.194 38.96-4.902 6.398-17.72 60.197-17.72 68.851 0 8.653 1.135 89.922 3.772 93.688 2.307 3.29 144.308 3.29 146.615 0 2.642-3.766 3.772-85.029 3.772-93.688 0-8.66-12.824-62.447-17.714-68.85z" fill="#116CA6"/><path d="M476.68 157.226c-.145-2.327-.294-4.612-.447-6.856-33.376.252-104.659-.429-154.295-1.034.164 2.238.323 4.529.494 6.873 35.259.429 117.188 1.334 154.248 1.017z" fill="#2C8ECC"/><path d="M324.262 217.14c.494 8.906 1.083 15.198 1.765 16.185 2.307 3.29 144.308 3.29 146.615 0 .765-1.093 1.401-8.665 1.919-19.087-37.107 4.788-126.705 3.372-150.299 2.902z" fill="#116CA6"/><path d="M480.565 116.689c-3.39-7.149-13.948-47.032-20.351-51.92-5.721-4.37-42.374-29.12-57.676-36.786a7.075 7.075 0 00-6.38 0c-15.302 7.666-51.961 32.416-57.676 36.786-6.403 4.888-16.961 44.771-20.351 51.92-3.39 7.15-5.297 42.885-5.297 46.997 0 4.112 6.786 5.646 9.416 4.518 2.631-1.128 3.02-27.464 3.02-27.464.512-13.206 15.454-63.21 18.833-68.104 2.571-3.701 35.623-24.24 51.508-33.985a7.07 7.07 0 017.415 0c15.891 9.746 48.937 30.284 51.509 33.985 3.389 4.893 18.332 54.898 18.832 68.104 0 0 .377 26.336 3.02 27.464 2.642 1.128 9.416-.376 9.416-4.518 0-4.141-1.842-39.847-5.238-46.997zm-110.938 119.26l-2.478-1.052s-3.042-48.089.142-60.203c16.396-1.686 39.402-1.897 39.402-1.897l25.589 1.057s2.077 43.179-.147 60.826c-14.125 2.596-30.727 2.068-30.727 2.068l-5.097.047-26.684-.846z" fill="#9BD2F4"/><path d="M443.123 166.147c-3.937.152-82.983.152-86.92 0-4.12-.159-5.75 1.598-5.432 3.989.318 2.39 1.283 3.665 4.797 3.348 2.942-.264 85.236-.264 88.191 0 3.531.317 4.473-.958 4.796-3.348.324-2.391-1.277-4.148-5.432-3.989zm-98.203-56.008v26.13c0 1.763 10.776 2.197 15.619 2.197 4.844 0 4.397-8.347 4.62-16.249.224-7.901 1.536-16.031-3.531-16.689-5.067-.658-16.708-3.314-16.708 4.611z" fill="#fff"/><path d="M349.975 112.205s-1.865 20.309-.329 20.861c1.536.552 10.122 2.526 10.893.329.771-2.197.989-21.301 0-22.183-.988-.881-10.011-1.973-10.564.993z" fill="#2C8ECC"/><path d="M434.188 110.139v26.13c0 1.763 10.776 2.197 15.619 2.197 4.844 0 4.396-8.347 4.62-16.249.224-7.901 1.542-16.031-3.531-16.689-5.073-.658-16.708-3.314-16.708 4.611z" fill="#fff"/><path d="M439.249 112.205s-1.871 20.309-.335 20.861c1.536.552 10.123 2.526 10.894.329.771-2.197.988-21.301 0-22.183-.989-.881-10.011-1.973-10.559.993z" fill="#2C8ECC"/><path d="M389.555 80.673v26.136c0 1.763 10.776 2.197 15.619 2.197 4.844 0 4.397-8.348 4.62-16.255.224-7.907 1.536-16.026-3.531-16.69-5.067-.663-16.708-3.29-16.708 4.612z" fill="#fff"/><path d="M394.61 82.764s-1.866 20.308-.33 20.861c1.537.552 10.123 2.526 10.894.329.771-2.198.989-21.302 0-22.183-.989-.881-10.023-1.974-10.564.993z" fill="#2C8ECC"/><path d="M288.744 229.228s19.963-4.9 26.484-2.515c6.521 2.385 5.75 7.173 5.75 7.173l-28.838 1.909-3.396-6.567zm-61.619 14.853l14.619-1.657 49.86-21.918 6.033-10.392s-19.016-13.171-19.534-13.171c-.518 0-24.971-2.456-25.359-2.35-.389.106-18.633 10.851-19.534 12.143-.9 1.292-9.575 21.307-9.575 21.307l3.49 16.038zm-89.068-16.113l2.836-1.915s-.241-6.333 2.272-10.392c2.513-4.059 19.887-10.833 19.887-10.833s39.131 9.211 40.808 23.763c1.677 14.551-4.002 17.424-4.002 17.424h-20.657l-41.144-18.047z" fill="#21252B"/><path d="M196.916 193.792s1.318-26.771 2.154-29.638c.836-2.866 4.308-8.365 6.474-8.483 2.166-.117 2.837 2.75 2.837 2.75s-4.756 6.333-4.997 7.525c-.241 1.193-1.077 28.198-1.077 28.198l-5.391-.352z" fill="#2E2B47"/><path d="M213.449 163.962c.053-.358.153-7.413 2.908-8.723 2.754-1.31 25.465-1.087 29.691.469 4.226 1.557 2.754 4.788 2.46 5.147-.294.358-35.059 3.107-35.059 3.107zm13.158 82.27s2.848-.329 2.59-2.526c-1.036-5.81-.777-17.953-.777-17.953s2.978-17.435 20.704-27.375c16.885-8.43 36.448 1.803 44.905 7.231 0-6.068 0-11.808-.071-13.37-.147-3.437-14.601-7.708-36.394-3.637-21.293.259-40.391 13.6-45.317 7.778-5.297-6.209-16.279-6.403-16.279-6.403a12.974 12.974 0 00-2.23 0c-7.981.482-49.325 8.448-51.715 13.547-2.389 5.099-4.79 12.924-3.672 15.497 1.118 2.573 13.883-6.256 13.883-6.256 47.407-2.55 45.653 33.914 45.653 33.914l28.72-.447z" fill="#FCA844"/><path d="M206.732 213.784s1.066-37.122 5.562-46.521c4.496-9.399 38.649-2.708 38.649-2.708l3.225 22.805a2.172 2.172 0 01-1.677 2.426c-6.033 1.351-24.13 7.05-29.321 27.076-.635 3.778-15.319 4.095-16.438-3.078z" fill="#fff"/><path d="M303.341 238.653c-.395-1.175-1.042-1.128-1.825-2.479-.783-1.351-1.218-3.695-1.495-4.071-1.218-4.594.265-6.092.359-6.832a2.756 2.756 0 00-2.354-2.749c-1.812-.412-2.748-.981-3.213-2.35-.465-1.369-.212-2.127.465-3.267.677-1.139-.465-3.366-2.078-2.937-1.612.429-3.166-.517-4.202-.928-1.036-.411-3.007-2.279-2.595-3.525.412-1.245-.153-2.279-1.348-2.508-1.195-.229-1.507.335-3.06.335-1.554 0-3.82-.793-4.291-.741-4.584-1.245-5.149-3.278-5.744-3.73a2.757 2.757 0 00-3.531.646c-1.271 1.363-2.23 1.886-3.631 1.616-1.401-.27-1.948-.881-2.602-2.033-.653-1.151-3.154-1.281-3.595.317-.442 1.598-2.031 2.474-2.943 3.167-.912.693-3.478 1.463-4.349.482-.871-.982-2.06-1.005-2.855-.089-.794.917-.465 1.469-1.241 2.814-.777 1.346-2.596 2.902-2.784 3.331-3.378 3.349-5.421 2.814-6.109 3.108a2.743 2.743 0 00-1.213 3.39c.548 1.762.518 2.866-.417 3.947-.936 1.081-1.737 1.24-3.067 1.228-1.33-.012-2.683 2.086-1.518 3.272 1.165 1.187 1.13 2.99 1.289 4.112.159 1.123-.471 3.743-1.766 4.007-1.294.264-1.895 1.275-1.5 2.42.394 1.146 1.041 1.134 1.818 2.479.777 1.346 1.224 3.701 1.501 4.077 1.218 4.588-.265 6.092-.359 6.833a2.752 2.752 0 002.354 2.743c1.813.417 2.748.987 3.213 2.35.465 1.363.212 2.126-.465 3.266-.676 1.14.465 3.366 2.078 2.937 1.612-.428 3.166.517 4.202.935 1.036.417 3.007 2.279 2.595 3.524-.412 1.246.153 2.28 1.348 2.509 1.195.229 1.507-.335 3.06-.335 1.554 0 3.82.793 4.285.74 4.591 1.245 5.156 3.278 5.75 3.73a2.759 2.759 0 003.531-.646c1.265-1.363 2.231-1.886 3.631-1.615 1.401.27 1.948.881 2.596 2.032.647 1.152 3.154 1.281 3.602-.317.447-1.598 2.03-2.479 2.942-3.166.912-.688 3.478-1.463 4.349-.482.871.981 2.06 1.005 2.855.088.794-.916.465-1.469 1.242-2.814.776-1.345 2.595-2.902 2.783-3.337 3.378-3.342 5.421-2.808 6.109-3.101a2.749 2.749 0 001.213-3.39c-.548-1.762-.518-2.873.418-3.948.935-1.075 1.736-1.239 3.06-1.228 1.324.012 2.689-2.085 1.524-3.272-1.165-1.186-1.13-2.996-1.289-4.112-.159-1.116.471-3.742 1.766-4.001 1.295-.258 1.918-1.28 1.501-2.432z" fill="#354052"/><path d="M283.29 249.832c5.297-9.159 2.124-18.405-.865-23.129-2.99-4.723-9.752-7.519-17.762-7.419-8.01.1-14.125 7.419-14.125 7.419-7.916 12.719-1.177 25.725 6.474 29.585 7.651 3.86 20.969 2.696 26.278-6.456z" fill="#707B8C"/><path d="M260.671 234.352s2.249-2.703 5.203-2.738c2.954-.035 5.444.993 6.55 2.738 1.107 1.744 2.278 5.152.318 8.53-1.96 3.377-6.868 3.8-9.681 2.349-2.813-1.451-5.309-6.191-2.39-10.879z" fill="#C0D6EB" opacity=".3"/><path d="M150.946 214.225s15.802-1.763 23.941 2.708a38.438 38.438 0 0114.569 14.25 38.34 38.34 0 015.223 19.682c1.601 6.532 4.314 3.524 4.95-1.763.636-5.287 1.277-23.739-14.843-33.297-8.781-5.734-26.654-4.7-30.804-4.829-4.149-.129-7.497 3.537-3.036 3.249z" fill="#354052"/><path d="M141.612 231.667s-11.494 1.833-12.453-.635c-.959-2.467-1.312-6.291 5.297-6.174 6.609.118 13.766.476 13.766.476l-6.61 6.333z" fill="#505E7F"/><path d="M211.601 163.011s33.64-2.843 38.943-2.843c5.302 0 7.374-.776 6.862 1.422-.512 2.197-3.443 3.618-3.443 3.618s6.203 27.382 5.403 28.351c-.801.97-5.403 0-5.403 0s-5.032-26.159-6.944-27.317c-1.913-1.157-34.382 2.45-36.584.646-2.201-1.803-5.173-2.608 1.166-3.877z" fill="#354052"/><path d="M229.186 226.651s8.622-22.911 25.86-26.765c17.238-3.854 36.548 3.913 46.765 19.163 4.149 3.619 4.308-.364 2.554-4.03-1.754-3.666-11.812-24.374-43.892-23.575-27.932.952-32.37 30.907-32.37 30.907s-1.5 7.631 1.083 4.3z" fill="#354052"/><path d="M310.403 230.898s10.771 18.406 13.643 30.948c2.395 7.173 3.713-3.102 3.713-3.102s1.436-27.722-5.508-36.211c-6.945-8.489-16.626 1.081-11.848 8.365z" fill="#21252B"/><path d="M315.039 228.747s-.476-2.867 1.119-3.425c1.595-.558 3.113-.082 3.272 1.716.159 1.797-1.966 4.658-4.391 1.709z" fill="#F9F9FA"/><path d="M137.139 216.382s.96-9.082 3.431-10.926c2.472-1.845 4.155-.987 4.155-.987s1.766 7.502 1.278 8.753c-.489 1.251-9.14 5.205-8.864 3.16z" fill="#EAF4FA"/><path d="M188.801 247.058c-.301-.887-.801-.875-1.401-1.909s-.936-2.844-1.177-3.131c-.936-3.525.206-4.7.276-5.252a2.104 2.104 0 00-.489-1.385 2.115 2.115 0 00-1.276-.73c-1.395-.317-2.113-.758-2.472-1.763a2.566 2.566 0 01.359-2.508c.518-.875-.359-2.591-1.595-2.273-1.236.317-2.436-.394-3.237-.717-.8-.323-2.313-1.763-1.995-2.708a1.352 1.352 0 00-.033-1.224 1.368 1.368 0 00-1.003-.703c-.918-.182-1.177.258-2.354.258s-2.942-.587-3.296-.587c-3.531-.958-3.96-2.52-4.419-2.867a2.12 2.12 0 00-2.725.493c-.977 1.052-1.719 1.451-2.796 1.246a2.587 2.587 0 01-1.995-1.569c-.5-.887-2.425-.981-2.772.247s-1.56 1.903-2.236 2.432c-.677.529-2.678 1.128-3.349.37a1.378 1.378 0 00-2.195-.064c-.589.705-.353 1.128-.948 2.162-.594 1.033-2.001 2.232-2.142 2.567-2.596 2.573-4.167 2.162-4.708 2.385a2.11 2.11 0 00-.93 2.608c.418 1.363.4 2.203-.318 3.031a2.574 2.574 0 01-2.354.946c-1.018 0-2.066 1.604-1.177 2.515.888.91.871 2.302.994 3.154.124.852-.365 2.879-1.353 3.078a1.37 1.37 0 00-1.177 1.863c.3.881.8.869 1.4 1.903.601 1.034.936 2.843 1.177 3.137.936 3.525-.206 4.7-.276 5.252a2.113 2.113 0 001.765 2.115c1.395.317 2.113.752 2.472 1.792a2.568 2.568 0 01-.359 2.508c-.518.875.359 2.591 1.595 2.268 1.236-.323 2.437.399 3.237.716.8.318 2.313 1.763 1.995 2.709a1.361 1.361 0 00.033 1.225 1.367 1.367 0 001.003.707c.918.182 1.177-.258 2.354-.258s2.943.587 3.296.587c3.531.958 3.961 2.521 4.42 2.867a2.12 2.12 0 002.725-.493c.977-1.052 1.718-1.451 2.795-1.246a2.575 2.575 0 011.995 1.569c.501.887 2.425.981 2.772-.247.348-1.228 1.56-1.903 2.237-2.438.677-.535 2.678-1.122 3.348-.37a1.383 1.383 0 001.08.584 1.374 1.374 0 001.116-.514c.588-.704.353-1.127.947-2.161.595-1.034 2.001-2.233 2.142-2.568 2.596-2.573 4.167-2.161 4.709-2.385a2.123 2.123 0 00.93-2.608c-.424-1.369-.401-2.209.317-3.037a2.572 2.572 0 012.355-.94c1.018 0 2.065-1.61 1.177-2.514-.889-.905-.871-2.309-.995-3.155-.124-.846.365-2.879 1.354-3.078a1.368 1.368 0 001.177-1.892z" fill="#354052"/><path d="M174.329 256.288c4.391-7.572 1.766-15.215-.718-19.122-2.483-3.906-8.057-6.215-14.713-6.133-6.656.083-11.647 6.133-11.647 6.133-6.545 10.516-.959 21.272 5.344 24.456 6.303 3.184 17.35 2.233 21.734-5.334z" fill="#707B8C"/><path d="M155.62 243.491s1.854-2.238 4.296-2.268c2.443-.029 4.503.829 5.415 2.268a6.814 6.814 0 01.265 7.049c-1.619 2.791-5.68 3.143-8.004 1.968-2.325-1.174-4.373-5.14-1.972-9.017z" fill="#C0D6EB" opacity=".3"/><g clip-path="url(#clip0_5657_136505)"><path d="M534.781 150.327c-5.649-18.249-20.524-33.111-38.788-38.754-6.401-1.976-12.992-3.011-19.393-3.011-13.086 0-25.701 4.045-36.245 11.947-15.629 11.475-24.949 29.818-24.949 49.195 0 13.357 4.237 26.056 12.239 36.685l48.955 62.709 48.954-62.709c11.956-15.991 15.346-36.403 9.227-56.062zM476.6 202.626c-18.17 0-32.951-14.768-32.951-32.922 0-18.154 14.781-32.922 32.951-32.922 18.169 0 32.95 14.768 32.95 32.922 0 18.154-14.781 32.922-32.95 32.922z" fill="#FCA844"/><path d="M443.648 169.704c0 18.154 14.781 32.922 32.951 32.922s32.95-14.768 32.95-32.922c0-18.155-14.78-32.923-32.95-32.923s-32.951 14.768-32.951 32.923z" fill="#fff"/></g><path d="M441.559 94.704S449.768 82 475.08 82s33.522 12.704 33.522 12.704m-85.538-20.789s12.739-19.634 52.017-19.634c39.277 0 52.016 19.634 52.016 19.634M402.258 47.352S420.092 20.79 475.08 20.79c54.989 0 72.823 26.563 72.823 26.563" stroke="#FCA844" stroke-width="5" stroke-linecap="round"/><defs><clipPath id="clip0_5657_136505"><path fill="#fff" transform="translate(395.322 108.562)" d="M0 0h160.672v160.535H0z"/></clipPath></defs></svg>