<svg width="410" height="300" viewBox="0 0 410 300" fill="none" xmlns="http://www.w3.org/2000/svg">
<path d="M293.228 71.144C293.749 69.1869 294.01 67.17 294.006 65.1449C294.006 55.7212 288.545 48.0796 281.81 48.0796C280.835 48.082 279.866 48.2437 278.943 48.5581C277.848 23.0512 266.673 3 253.048 3C240.082 3 229.315 21.1943 227.365 44.9566C217.71 51.5116 211.093 64.928 211.093 80.4157C211.093 87.8006 212.589 94.7119 215.219 100.636C206.26 106.152 200.553 114.474 200.553 123.783C200.553 140.395 218.723 153.863 241.137 153.863C257.913 153.863 272.305 146.317 278.494 135.554C280.234 135.967 282.015 136.175 283.803 136.175C299.058 136.175 311.423 121.168 311.423 102.66C311.433 88.162 303.845 75.8147 293.228 71.144Z" fill="#D5D6DA"/>
<path d="M293.228 71.1441C293.228 71.1441 266.358 60.6761 245.874 79.1197C225.39 97.5633 211.145 68.4773 217.982 54.9761C213.688 61.8675 211.102 70.7354 211.102 80.4158C211.102 87.7982 212.599 94.712 215.229 100.636C206.27 106.152 200.562 114.474 200.562 123.783C200.562 140.395 218.733 153.864 241.146 153.864C257.923 153.864 272.315 146.317 278.504 135.555C280.243 135.967 282.025 136.175 283.813 136.175C299.068 136.175 311.433 121.169 311.433 102.66C311.433 88.1621 303.845 75.8148 293.228 71.1441Z" fill="#B8C1C9"/>
<path d="M261.643 268.144C260.586 268.144 259.728 267.86 259.728 266.803V59.542C259.728 59.0343 259.93 58.5474 260.289 58.1884C260.648 57.8295 261.135 57.6278 261.643 57.6278C262.151 57.6278 262.638 57.8295 262.997 58.1884C263.356 58.5474 263.558 59.0343 263.558 59.542V266.803C263.558 267.86 262.7 268.144 261.643 268.144Z" fill="#131F2D"/>
<path d="M261.643 133.159C256.212 133.159 251.617 131.225 247.989 127.409C237.838 116.742 238.813 94.9461 238.86 94.0114C238.885 93.5048 239.111 93.029 239.488 92.6887C239.864 92.3484 240.36 92.1715 240.867 92.197C241.374 92.2224 241.85 92.4481 242.191 92.8244C242.531 93.2007 242.708 93.6967 242.682 94.2034C242.682 94.4127 241.747 115.291 250.766 124.765C253.684 127.83 257.249 129.318 261.643 129.318C262.151 129.318 262.638 129.52 262.997 129.879C263.356 130.238 263.558 130.725 263.558 131.233C263.558 131.74 263.356 132.227 262.997 132.586C262.638 132.945 262.151 133.147 261.643 133.147V133.159Z" fill="#131F2D"/>
<path d="M261.91 176.552C261.783 176.552 261.661 176.552 261.526 176.539C261.019 176.508 260.546 176.277 260.21 175.897C259.873 175.517 259.702 175.019 259.733 174.513C259.764 174.006 259.995 173.533 260.375 173.197C260.756 172.861 261.254 172.69 261.76 172.721C262.491 172.766 263.221 172.452 263.987 171.766C266.353 169.648 270.839 162.193 274.33 136.068C276.347 120.959 277.04 106.87 277.048 106.73C277.081 106.23 277.309 105.762 277.684 105.428C278.058 105.094 278.549 104.921 279.05 104.945C279.551 104.968 280.023 105.188 280.364 105.556C280.705 105.924 280.887 106.411 280.873 106.912C280.873 107.054 280.165 121.306 278.13 136.571C276.928 145.574 275.499 153.176 273.891 159.167C271.774 167.033 269.373 172.085 266.55 174.62C265.107 175.901 263.551 176.552 261.91 176.552Z" fill="#131F2D"/>
<path d="M140.222 296.856C140.222 296.856 135.593 292.094 137.186 289.378C138.779 286.663 141.466 295.208 141.466 295.208C141.466 295.208 140.073 285.109 142.96 284.933C145.847 284.757 142.96 295.208 142.96 295.208C142.96 295.208 144.025 292.77 145.074 292.621C146.124 292.472 145.82 294.686 143.953 296.856H140.222Z" fill="#EAEAEA"/>
<path d="M140.552 296.973C139.65 296.013 138.838 294.97 138.129 293.859C136.651 291.5 136.299 289.626 137.082 288.29C137.375 287.792 137.727 287.56 138.129 287.608C138.928 287.699 139.849 288.939 140.917 291.388C141.237 292.123 141.519 292.858 141.74 293.465C141.474 290.803 141.192 285.543 142.64 283.778C142.774 283.6 142.943 283.454 143.138 283.348C143.333 283.242 143.548 283.179 143.77 283.163C143.967 283.145 144.166 283.178 144.348 283.257C144.53 283.337 144.689 283.461 144.811 283.618C146.116 285.215 144.941 290.957 144.297 293.64C144.779 292.855 145.458 291.982 146.161 291.883C146.305 291.852 146.455 291.869 146.588 291.931C146.721 291.993 146.83 292.097 146.899 292.227C147.325 293.001 146.747 294.987 145.035 296.965L144.768 296.744C146.443 294.798 146.899 292.964 146.582 292.392C146.546 292.323 146.488 292.268 146.417 292.236C146.345 292.205 146.266 292.199 146.19 292.219C145.296 292.349 144.252 294.309 143.924 295.054L143.604 294.939C143.604 294.918 144.244 292.61 144.67 290.087C145.224 286.788 145.178 284.624 144.537 283.831C144.448 283.717 144.332 283.627 144.199 283.569C144.067 283.512 143.921 283.489 143.778 283.504C143.603 283.516 143.434 283.567 143.28 283.651C143.127 283.736 142.994 283.853 142.891 283.993C141.061 286.224 142.23 294.875 142.244 294.963L141.911 295.038C141.309 293.116 139.442 288.101 138.078 287.946C137.812 287.917 137.588 288.085 137.367 288.463C135.647 291.391 140.734 296.683 140.784 296.736L140.552 296.973Z" fill="#364154"/>
<path d="M214.423 272.477C214.423 272.477 209.795 267.715 211.387 265.003C212.98 262.29 215.667 270.83 215.667 270.83C215.667 270.83 214.274 260.733 217.161 260.557C220.048 260.381 217.161 270.83 217.161 270.83C217.161 270.83 218.226 268.394 219.276 268.242C220.325 268.091 220.021 270.308 218.154 272.477H214.423Z" fill="#EAEAEA"/>
<path d="M214.754 272.597C213.852 271.636 213.042 270.594 212.333 269.483C210.852 267.122 210.501 265.248 211.286 263.914C211.577 263.414 211.928 263.185 212.33 263.23C213.129 263.323 214.053 264.561 215.119 267.013C215.438 267.745 215.72 268.479 215.942 269.089C215.675 266.427 215.393 261.167 216.842 259.399C216.975 259.222 217.145 259.076 217.34 258.97C217.534 258.865 217.75 258.802 217.971 258.787C218.168 258.769 218.367 258.801 218.549 258.88C218.731 258.959 218.891 259.083 219.012 259.24C220.317 260.85 219.145 266.581 218.498 269.262C218.98 268.479 219.659 267.606 220.362 267.505C220.506 267.474 220.656 267.492 220.79 267.554C220.923 267.616 221.032 267.721 221.1 267.851C221.526 268.626 220.948 270.609 219.236 272.589L218.97 272.369C220.645 270.42 221.1 268.588 220.783 268.014C220.748 267.945 220.69 267.891 220.619 267.86C220.548 267.829 220.469 267.823 220.394 267.843C219.497 267.971 218.453 269.933 218.125 270.678L217.806 270.564C217.806 270.54 218.445 268.234 218.871 265.711C219.425 262.41 219.38 260.246 218.738 259.455C218.65 259.34 218.534 259.25 218.401 259.192C218.268 259.134 218.123 259.111 217.979 259.125C217.805 259.138 217.636 259.188 217.483 259.273C217.33 259.358 217.198 259.474 217.095 259.615C215.262 261.848 216.432 270.497 216.445 270.585L216.115 270.66C215.51 268.74 213.643 263.722 212.28 263.568C212.013 263.541 211.79 263.709 211.569 264.084C209.846 267.013 214.935 272.307 214.985 272.361L214.754 272.597Z" fill="#364154"/>
<path d="M238.144 294.497C238.144 294.497 233.516 289.735 235.108 287.023C236.701 284.31 239.388 292.85 239.388 292.85C239.388 292.85 237.995 282.75 240.882 282.574C243.769 282.399 240.882 292.85 240.882 292.85C240.882 292.85 241.947 290.411 242.997 290.262C244.046 290.113 243.742 292.328 241.878 294.497H238.144Z" fill="#EAEAEA"/>
<path d="M238.474 294.615C237.572 293.655 236.762 292.613 236.054 291.503C234.575 289.142 234.221 287.268 235.007 285.931C235.297 285.433 235.651 285.204 236.051 285.25C236.85 285.343 237.774 286.581 238.839 289.03C239.159 289.764 239.441 290.499 239.665 291.106C239.398 288.457 239.114 283.187 240.562 281.419C240.696 281.242 240.865 281.095 241.06 280.989C241.255 280.883 241.47 280.82 241.691 280.804C241.889 280.787 242.088 280.819 242.27 280.899C242.452 280.978 242.611 281.102 242.733 281.259C244.038 282.857 242.866 288.599 242.221 291.282C242.701 290.483 243.38 289.626 244.086 289.525C244.229 289.494 244.379 289.511 244.512 289.573C244.645 289.635 244.755 289.739 244.823 289.868C245.249 290.643 244.672 292.629 242.959 294.609L242.693 294.386C244.368 292.44 244.823 290.608 244.506 290.033C244.471 289.964 244.413 289.91 244.343 289.878C244.272 289.847 244.192 289.84 244.118 289.86C243.22 289.991 242.176 291.95 241.849 292.695L241.529 292.584C241.529 292.56 242.171 290.252 242.594 287.728C243.151 284.43 243.103 282.266 242.461 281.472C242.373 281.358 242.258 281.268 242.125 281.211C241.993 281.154 241.848 281.131 241.705 281.145C241.53 281.158 241.361 281.208 241.208 281.293C241.055 281.377 240.922 281.494 240.818 281.635C238.988 283.866 240.157 292.517 240.168 292.605L239.838 292.679C239.233 290.757 237.366 285.742 236.006 285.588C235.739 285.559 235.513 285.726 235.292 286.104C233.571 289.032 238.658 294.324 238.711 294.378L238.474 294.615Z" fill="#364154"/>
<path d="M337.297 274.224C337.297 274.224 332.668 269.462 334.261 266.749C335.853 264.036 338.541 272.576 338.541 272.576C338.541 272.576 337.148 262.477 340.035 262.301C342.921 262.125 340.035 272.576 340.035 272.576C340.035 272.576 341.1 270.138 342.149 269.989C343.198 269.84 342.895 272.054 341.031 274.224H337.297Z" fill="#EAEAEA"/>
<path d="M337.627 274.341C336.725 273.381 335.915 272.339 335.206 271.229C333.726 268.868 333.374 266.994 334.16 265.658C334.45 265.16 334.804 264.931 335.204 264.976C336.003 265.069 336.927 266.307 337.992 268.756C338.312 269.491 338.594 270.226 338.818 270.833C338.551 268.171 338.266 262.913 339.715 261.146C339.849 260.968 340.018 260.822 340.213 260.716C340.408 260.61 340.623 260.547 340.844 260.531C341.042 260.513 341.241 260.546 341.423 260.625C341.605 260.705 341.764 260.829 341.886 260.986C343.191 262.583 342.019 268.325 341.374 271.008C341.854 270.223 342.533 269.353 343.239 269.251C343.382 269.22 343.532 269.237 343.665 269.299C343.798 269.361 343.908 269.465 343.976 269.595C344.402 270.372 343.824 272.355 342.112 274.333L341.846 274.112C343.521 272.166 343.976 270.335 343.659 269.76C343.624 269.691 343.566 269.636 343.496 269.604C343.425 269.573 343.345 269.567 343.271 269.587C342.373 269.717 341.329 271.676 341.002 272.422L340.682 272.307C340.682 272.286 341.324 269.978 341.747 267.455C342.301 264.156 342.256 261.992 341.614 261.199C341.526 261.085 341.411 260.995 341.278 260.937C341.146 260.88 341.001 260.857 340.858 260.871C340.683 260.884 340.514 260.935 340.361 261.019C340.208 261.104 340.075 261.22 339.971 261.361C338.141 263.592 339.31 272.243 339.321 272.331L338.991 272.406C338.386 270.484 336.519 265.469 335.156 265.314C334.89 265.285 334.666 265.453 334.445 265.831C332.724 268.759 337.811 274.051 337.864 274.104L337.627 274.341Z" fill="#364154"/>
<path d="M23.674 288.689C23.674 288.689 19.8816 284.787 21.1839 282.566C22.4862 280.346 24.6913 287.342 24.6913 287.342C24.6913 287.342 23.5515 279.069 25.9163 278.925C28.2812 278.781 25.9163 287.342 25.9163 287.342C25.9163 287.342 26.7925 285.346 27.6501 285.212C28.5076 285.079 28.2599 286.903 26.7313 288.673L23.674 288.689Z" fill="#EAEAEA"/>
<path d="M23.9428 288.777C23.2041 287.989 22.5399 287.134 21.9587 286.224C20.747 284.291 20.4594 282.763 21.1012 281.661C21.3409 281.254 21.6338 281.065 21.9561 281.102C22.6219 281.177 23.3702 282.191 24.2437 284.201C24.51 284.803 24.7364 285.404 24.9175 285.902C24.7098 283.73 24.4674 279.412 25.6525 277.964C25.7621 277.819 25.9015 277.699 26.0614 277.612C26.2212 277.525 26.3979 277.474 26.5793 277.461C26.7413 277.446 26.9044 277.472 27.0534 277.538C27.2024 277.603 27.3325 277.705 27.4315 277.833C28.4968 279.164 27.5407 283.847 27.0134 286.046C27.4049 285.401 27.9642 284.688 28.5341 284.606C28.6519 284.581 28.7746 284.595 28.8836 284.645C28.9927 284.696 29.0822 284.781 29.1386 284.888C29.4849 285.521 29.0135 287.148 27.618 288.769L27.4076 288.588C28.7791 286.991 29.152 285.492 28.8936 285.021C28.8639 284.965 28.8163 284.921 28.7583 284.895C28.7003 284.869 28.6354 284.864 28.574 284.88C27.839 284.986 26.9761 286.594 26.7098 287.204L26.4435 287.11C26.4648 287.036 28.4995 279.601 27.2078 278.009C27.1357 277.916 27.0409 277.842 26.9322 277.795C26.8236 277.749 26.7049 277.731 26.5873 277.743C26.4444 277.753 26.3053 277.793 26.1797 277.862C26.0541 277.931 25.9451 278.027 25.8603 278.142C24.3609 279.971 25.3276 287.06 25.3276 287.132L25.0613 287.193C24.566 285.62 23.0373 281.51 21.9214 281.382C21.7084 281.361 21.5166 281.496 21.3355 281.805C19.9267 284.201 24.0946 288.54 24.1372 288.585L23.9428 288.777Z" fill="#364154"/>
<path d="M261.982 279.785C261.982 279.785 258.19 275.882 259.495 273.662C260.8 271.442 263.002 278.438 263.002 278.438C263.002 278.438 261.86 270.164 264.225 270.021C266.59 269.877 264.225 278.438 264.225 278.438C264.225 278.438 265.101 276.441 265.958 276.308C266.816 276.175 266.568 277.999 265.04 279.769L261.982 279.785Z" fill="#EAEAEA"/>
<path d="M262.251 279.883C261.513 279.095 260.849 278.24 260.267 277.33C259.056 275.398 258.768 273.87 259.41 272.768C259.649 272.361 259.942 272.172 260.267 272.209C260.93 272.283 261.679 273.298 262.552 275.307C262.819 275.909 263.045 276.508 263.226 277.008C263.018 274.836 262.776 270.518 263.964 269.07C264.073 268.925 264.212 268.805 264.371 268.718C264.531 268.632 264.707 268.58 264.888 268.567C265.05 268.553 265.213 268.58 265.363 268.645C265.512 268.71 265.643 268.811 265.743 268.94C266.808 270.271 265.849 274.953 265.322 277.152C265.716 276.508 266.273 275.795 266.843 275.712C266.96 275.687 267.083 275.701 267.192 275.752C267.301 275.803 267.391 275.888 267.447 275.994C267.796 276.628 267.322 278.254 265.927 279.875L265.716 279.694C267.088 278.097 267.461 276.598 267.202 276.127C267.175 276.069 267.127 276.023 267.069 275.997C267.01 275.971 266.944 275.967 266.883 275.986C266.148 276.093 265.285 277.7 265.018 278.31L264.752 278.217C264.771 278.142 266.805 270.707 265.514 269.116C265.441 269.023 265.346 268.949 265.238 268.903C265.129 268.856 265.011 268.838 264.893 268.849C264.751 268.86 264.612 268.902 264.487 268.971C264.362 269.041 264.254 269.136 264.169 269.251C262.669 271.08 263.636 278.169 263.636 278.241L263.37 278.299C262.875 276.729 261.346 272.619 260.23 272.491C260.02 272.467 259.828 272.605 259.647 272.914C258.235 275.31 262.406 279.649 262.446 279.694L262.251 279.883Z" fill="#364154"/>
<path d="M42.002 18.636H44.4707L44.4467 18.4443L43.7037 11.8852C43.6908 11.7833 43.6413 11.6896 43.5643 11.6215C43.4874 11.5534 43.3883 11.5156 43.2856 11.5152C43.2599 11.5125 43.234 11.5125 43.2084 11.5152C43.0718 11.5309 42.9434 11.5886 42.8409 11.6802C42.7205 11.7902 42.6454 11.9411 42.6305 12.1035L42.002 18.636Z" fill="#657285"/>
<path d="M44.2309 17.148H44.3188L43.7036 11.8826C43.6907 11.7807 43.6411 11.687 43.5642 11.6189C43.4873 11.5509 43.3882 11.5131 43.2855 11.5126C43.2598 11.51 43.2339 11.51 43.2083 11.5126C43.1848 11.5316 43.1626 11.5521 43.1417 11.5738C43.0297 11.6928 42.9669 11.8497 42.9659 12.013L42.9313 15.7984C42.9263 16.1491 43.06 16.4877 43.3034 16.7404C43.5467 16.9932 43.8801 17.1396 44.2309 17.148Z" fill="#657285"/>
<path d="M45.1868 47.8193H40.4277V257.176H45.1868V47.8193Z" fill="#657285"/>
<path d="M45.1869 47.8193H42.9897V257.176H45.1869V47.8193Z" fill="#657285"/>
<path d="M50.3856 223.769H35.2295V279.162H50.3856V223.769Z" fill="#657285"/>
<path d="M50.388 223.769H41.3545V279.162H50.388V223.769Z" fill="#657285"/>
<path d="M34.5264 21.7958C34.5264 24.3833 38.4253 26.4783 43.2349 26.4783C43.6025 26.4783 43.9647 26.4783 44.3189 26.4437C48.6172 26.1562 51.9462 24.1863 51.9462 21.7958C51.9462 19.4054 48.6172 17.4382 44.3189 17.1507C43.9647 17.1267 43.6025 17.1134 43.2349 17.1134C38.4226 17.1134 34.5264 19.211 34.5264 21.7958Z" fill="#657285"/>
<path d="M35.2479 51.948H50.404L55.7463 26.3131H30.7231L35.2479 51.948Z" fill="#657285"/>
<path d="M57.0993 24.3806H29.373V26.8403H57.0993V24.3806Z" fill="#657285"/>
<path d="M47.9035 223.769H38.2202L39.637 219.478C39.6987 219.292 39.8173 219.131 39.9761 219.016C40.1348 218.902 40.3256 218.841 40.5212 218.841H45.0486C45.289 218.841 45.524 218.912 45.7241 219.045C45.9242 219.178 46.0802 219.367 46.1725 219.589L47.9035 223.769Z" fill="#657285"/>
<path d="M38.979 21.5722H39.0429C39.1947 19.5837 41.3226 17.8933 44.3187 17.1506C48.4812 17.4168 51.7329 19.2802 51.9353 21.5722H53.3362L55.3176 24.3806H57.0886V26.8403H39.6688V24.3806H37.0908L38.979 21.5722Z" fill="#657285"/>
<path d="M53.9569 27.5616H32.585L36.7582 50.6038H49.0301L53.9569 27.5616Z" fill="#D5D6DA"/>
<path d="M51.368 22.0726C51.368 22.0726 49.7408 18.5295 46.5264 18.636C46.5264 18.636 48.5717 20.4515 48.3906 22.0726C48.2095 23.6938 51.368 22.0726 51.368 22.0726Z" fill="#657285"/>
<path d="M31.144 24.3805H55.3283L53.3469 21.5721H33.0242L31.144 24.3805Z" fill="#657285"/>
<path d="M52.5374 28.3655H47.6399L46.2124 49.885H47.6399L52.5374 28.3655Z" fill="#EDF2FE"/>
<path d="M204.586 267.393H207.638V247.072C207.638 243.365 209.111 239.811 211.733 237.19C214.355 234.569 217.911 233.096 221.62 233.096C225.328 233.096 228.884 234.569 231.506 237.19C234.128 239.811 235.601 243.365 235.601 247.072V267.393H238.653V247.072C238.653 242.557 236.859 238.227 233.665 235.034C230.471 231.842 226.139 230.048 221.622 230.048C217.105 230.048 212.773 231.842 209.58 235.034C206.386 238.227 204.591 242.557 204.591 247.072L204.586 267.393Z" fill="#364154"/>
<path d="M117.002 243.648C117.407 243.648 117.794 243.487 118.08 243.201C118.366 242.915 118.527 242.527 118.528 242.123V204.057C118.528 203.652 118.367 203.264 118.081 202.978C117.795 202.692 117.407 202.531 117.002 202.531C116.597 202.531 116.209 202.692 115.923 202.978C115.637 203.264 115.476 203.652 115.476 204.057V242.123C115.476 242.527 115.637 242.915 115.923 243.201C116.209 243.488 116.597 243.648 117.002 243.648Z" fill="#364154"/>
<path d="M211.047 243.648C211.451 243.648 211.839 243.488 212.126 243.201C212.412 242.915 212.573 242.527 212.573 242.123V204.057C212.573 203.652 212.412 203.264 212.126 202.978C211.839 202.692 211.451 202.531 211.047 202.531C210.642 202.531 210.254 202.692 209.967 202.978C209.681 203.264 209.521 203.652 209.521 204.057V242.123C209.521 242.527 209.682 242.915 209.968 243.201C210.254 243.487 210.642 243.648 211.047 243.648Z" fill="#364154"/>
<path d="M111.215 237.547H218.815C220.145 237.547 221.223 236.47 221.223 235.141V230.559C221.223 229.23 220.145 228.153 218.815 228.153H111.215C109.885 228.153 108.808 229.23 108.808 230.559V235.141C108.808 236.47 109.885 237.547 111.215 237.547Z" fill="#B8C1C9"/>
<path d="M114.189 244.032H234.655C235.162 244.032 235.647 243.831 236.006 243.473C236.364 243.115 236.565 242.629 236.565 242.123C236.565 241.872 236.516 241.624 236.42 241.392C236.324 241.16 236.184 240.949 236.007 240.772C235.829 240.594 235.619 240.453 235.387 240.357C235.155 240.261 234.906 240.212 234.655 240.212H114.189V244.032Z" fill="#B8C1C9"/>
<path d="M110.44 226.465H218.04C219.37 226.465 220.448 225.388 220.448 224.059V219.477C220.448 218.148 219.37 217.071 218.04 217.071H110.44C109.111 217.071 108.033 218.148 108.033 219.477V224.059C108.033 225.388 109.111 226.465 110.44 226.465Z" fill="#B8C1C9"/>
<path d="M109.396 214.981H216.996C218.326 214.981 219.404 213.904 219.404 212.575V207.994C219.404 206.665 218.326 205.587 216.996 205.587H109.396C108.067 205.587 106.989 206.665 106.989 207.994V212.575C106.989 213.904 108.067 214.981 109.396 214.981Z" fill="#B8C1C9"/>
<path d="M112.584 267.393H115.636V247.072C115.636 243.365 117.109 239.81 119.731 237.189C122.353 234.569 125.909 233.096 129.618 233.096C133.326 233.096 136.882 234.569 139.504 237.189C142.126 239.81 143.599 243.365 143.599 247.072V267.393H146.651V247.072C146.679 244.818 146.26 242.582 145.417 240.492C144.573 238.402 143.324 236.5 141.739 234.897C140.155 233.293 138.268 232.02 136.188 231.152C134.108 230.283 131.876 229.835 129.622 229.835C127.367 229.835 125.135 230.283 123.055 231.152C120.975 232.02 119.088 233.293 117.504 234.897C115.92 236.5 114.67 238.402 113.827 240.492C112.983 242.582 112.564 244.818 112.592 247.072L112.584 267.393Z" fill="#364154"/>
<path d="M239.849 163.232C240.578 161.92 242.568 166.014 242.568 166.014C242.568 166.014 241.09 162.777 241.566 161.579C241.955 160.626 243.809 163.358 244.549 164.507L244.581 164.486C243.955 163.302 242.53 160.381 243.191 159.593C243.942 158.702 246.096 162.689 246.485 163.405C243.335 156.029 247.399 160.198 249.148 163.592C249.457 162.83 252.424 161.169 252.911 161.3C253.471 161.452 252.192 163.879 251.958 164.406C251.38 165.695 251.673 167.004 252.565 168.194C252.911 168.658 245.497 172.046 245.497 172.046C244.364 171.053 243.349 169.932 242.472 168.705C242.351 168.584 242.245 168.449 242.155 168.303C242.038 168.114 241.873 167.862 241.689 167.577C240.823 166.195 239.438 163.97 239.849 163.232Z" fill="#F9A38F"/>
<path d="M268.062 160.246C268.062 160.246 260.872 173.822 258.712 172.041C256.552 170.26 253.074 166.238 253.074 166.238C253.074 166.238 245.218 169.552 244.392 172.85C244.392 172.85 251.165 186.762 262.142 186.623C273.12 186.485 275.17 163.642 275.17 163.642L268.062 160.246Z" fill="#4D83FA"/>
<path d="M327.174 204.93C326.683 203.159 325.988 201.451 325.105 199.84C325.105 199.84 318.061 199.88 317.72 200.497C316.921 201.924 316.018 205.087 315.259 206.527C314.931 207.152 313.97 209.327 314.548 209.737C315.054 210.091 316.641 208.72 317.317 207.98C317.901 212.596 320.825 219.068 320.314 209.311H320.33C320.473 210.294 321.272 215.759 322.513 215.053C323.608 214.428 323.2 210.493 322.982 208.875H323.025C323.392 210.499 324.375 214.401 325.225 213.472C326.29 212.309 325.946 207.983 325.946 207.983C325.946 207.983 326.508 213.499 327.904 212.306C328.854 211.491 327.699 207.086 327.371 205.537C327.33 205.327 327.264 205.123 327.174 204.93Z" fill="#F9A38F"/>
<path d="M311.398 200.285C311.358 201.882 301.643 202.51 289.629 202.148C277.615 201.786 268.012 200.127 268.057 198.533C268.103 196.938 277.767 196.004 289.781 196.377C301.794 196.749 311.451 198.69 311.398 200.285Z" fill="#131F2D"/>
<path d="M308.468 155.169C308.468 155.169 306.338 146.816 290.667 146.731C268.063 146.608 270.161 167.212 268.062 198.525C268.062 198.525 281.77 192.85 311.408 200.284C311.398 200.284 313.376 167.931 308.468 155.169Z" fill="#4D83FA"/>
<path d="M314.255 153.971L304.015 159.583C304.015 159.583 281.112 164.595 275.16 163.621C269.208 162.647 268.062 160.238 268.062 160.238C268.062 160.238 274.401 148.815 285.173 147.079C286.187 146.914 287.237 146.796 288.324 146.723C290.139 146.6 291.961 146.637 293.77 146.832C307.424 148.365 314.255 153.971 314.255 153.971Z" fill="#4D83FA"/>
<path d="M292.822 144.819L291.64 141.031L291.296 139.929L289.269 133.445L289.003 139.895L288.843 143.765L288.793 144.992C288.758 145.823 288.26 145.999 287.626 146.72C287.36 147.013 285.762 148.791 287.592 149.592C289.871 150.591 294.135 149.079 295.757 147.095C295.744 147.093 293.206 146.044 292.822 144.819Z" fill="#F9A38F"/>
<path d="M317.278 203.034C316.335 192.74 314.172 178.012 309.224 166.371C308.079 163.672 307.6 162.644 306.705 161.183C305.986 159.995 307.275 157.389 309.307 156.146C311.216 154.978 314.186 155.169 314.657 155.747C315.456 156.729 316.308 158.611 317.635 161.603C322.247 171.985 325.009 185.401 326.127 202.696L317.278 203.034Z" fill="#F9A38F"/>
<path d="M284.057 131.009C283.808 132.175 283.808 133.381 284.057 134.547C284.47 136.514 286.489 131.677 286.489 131.677L284.057 131.009Z" fill="#131F2D"/>
<path d="M295.347 136.663C295.868 132.86 293.714 129.424 290.536 128.989C287.357 128.554 284.358 131.284 283.837 135.087C283.316 138.89 285.47 142.326 288.648 142.761C291.826 143.196 294.825 140.466 295.347 136.663Z" fill="#F9A38F"/>
<path d="M289.272 135.572C289.257 135.562 289.244 135.549 289.235 135.534C289.226 135.519 289.22 135.502 289.219 135.484C289.216 135.453 289.226 135.423 289.246 135.399C289.266 135.376 289.294 135.361 289.325 135.359C289.604 135.318 289.889 135.372 290.135 135.51C290.381 135.649 290.574 135.865 290.683 136.125C290.69 136.139 290.694 136.154 290.695 136.169C290.696 136.184 290.694 136.199 290.689 136.214C290.684 136.228 290.676 136.241 290.666 136.253C290.656 136.264 290.644 136.273 290.63 136.28C290.602 136.292 290.571 136.293 290.542 136.284C290.513 136.275 290.489 136.255 290.473 136.229C290.177 135.899 289.782 135.674 289.346 135.59C289.32 135.592 289.294 135.586 289.272 135.572Z" fill="#080435"/>
<path d="M289.783 137.07C289.709 137.337 289.49 137.515 289.293 137.462C289.188 137.412 289.107 137.323 289.065 137.215C289.024 137.106 289.027 136.986 289.072 136.879C289.144 136.613 289.365 136.434 289.562 136.487C289.667 136.538 289.748 136.626 289.789 136.735C289.83 136.843 289.828 136.963 289.783 137.07Z" fill="#080435"/>
<path d="M284.915 135.226C284.9 135.223 284.887 135.216 284.876 135.205C284.865 135.195 284.857 135.182 284.854 135.167C284.843 135.14 284.842 135.109 284.85 135.081C284.858 135.053 284.875 135.028 284.899 135.01C284.985 134.937 285.086 134.882 285.194 134.85C285.302 134.817 285.416 134.806 285.529 134.819C285.641 134.832 285.75 134.867 285.848 134.923C285.946 134.98 286.032 135.055 286.1 135.146C286.118 135.169 286.127 135.198 286.127 135.227C286.127 135.256 286.118 135.285 286.1 135.308C286.093 135.319 286.085 135.327 286.074 135.334C286.064 135.341 286.053 135.345 286.04 135.347C286.028 135.349 286.016 135.348 286.004 135.344C285.992 135.341 285.981 135.335 285.972 135.327C285.823 135.239 285.657 135.183 285.485 135.163C285.313 135.144 285.139 135.16 284.974 135.212C284.956 135.224 284.935 135.229 284.915 135.226Z" fill="#080435"/>
<path d="M285.991 136.423C286.025 136.69 285.89 136.956 285.687 136.956C285.485 136.956 285.293 136.777 285.258 136.501C285.224 136.224 285.357 135.968 285.559 135.955C285.762 135.942 285.956 136.157 285.991 136.423Z" fill="#080435"/>
<path d="M299.208 134.81C299.208 134.81 297.267 138.966 294.513 139.272C294.513 139.272 296.739 136.104 292.047 134.171C292.047 134.171 296.356 133.495 299.208 134.81Z" fill="#131F2D"/>
<path d="M295.325 137.102C295.067 137.286 294.747 137.362 294.434 137.312C294.122 137.262 293.841 137.091 293.653 136.836C293.576 136.7 293.528 136.55 293.51 136.394C293.491 136.239 293.504 136.082 293.547 135.931C293.59 135.781 293.662 135.64 293.759 135.518C293.856 135.395 293.977 135.293 294.114 135.218C294.372 135.034 294.691 134.959 295.004 135.009C295.317 135.059 295.598 135.229 295.786 135.484C295.863 135.62 295.912 135.77 295.93 135.926C295.949 136.081 295.936 136.239 295.893 136.389C295.85 136.54 295.778 136.68 295.681 136.803C295.583 136.925 295.462 137.027 295.325 137.102Z" fill="#F9A38F"/>
<path d="M292.047 134.172C292.047 134.172 292.423 137.661 291.706 138.322C290.99 138.982 286.265 139.264 284.058 138.417C284.036 139.508 284.405 140.571 285.1 141.412C285.794 142.254 286.767 142.82 287.842 143.007C288.588 143.134 289.351 143.134 290.098 143.007C291.642 142.74 293.144 142.104 293.781 140.683C293.973 140.251 293.411 137.592 293.411 137.592C293.411 137.592 293.198 136.03 294.114 135.218C294.114 135.212 293.056 134.27 292.047 134.172Z" fill="#131F2D"/>
<path d="M292.047 134.171C292.047 134.171 292.433 131.733 290.507 131.56C288.582 131.387 286.38 131.065 285.623 131.56C284.867 132.055 283.964 134.001 283.964 134.001C283.964 134.001 282.899 130.344 284.843 128.778C286.787 127.213 292.96 125.155 296.904 127.879C300.848 130.602 299.208 134.8 299.208 134.8C299.208 134.8 296.393 133.958 292.047 134.171Z" fill="#131F2D"/>
<path d="M294.721 127.879C294.721 127.879 297.626 125.499 296.969 123.737C296.311 121.974 293.24 122.533 292.047 122.81C290.854 123.087 290.657 125.19 291.61 126.537C292.564 127.884 294.721 127.879 294.721 127.879Z" fill="#131F2D"/>
<path d="M290.244 277.069C289.565 277.032 288.889 277.185 288.293 277.512C287.697 277.838 287.204 278.325 286.87 278.917C286.549 279.527 286.029 280.01 285.397 280.285C283.298 281.15 277.221 281.936 279.493 283.911C280.795 285.048 286.95 284.313 288.673 284.313C290.396 284.313 292.036 285.063 293.325 283.911C294.098 283.221 294.028 281.039 293.805 279.194C293.768 278.875 293.668 278.566 293.512 278.285C293.355 278.004 293.145 277.757 292.893 277.558C292.641 277.358 292.352 277.21 292.043 277.122C291.734 277.035 291.41 277.008 291.091 277.046C290.889 277.072 290.685 277.083 290.481 277.08L290.244 277.069Z" fill="#131F2D"/>
<path d="M311.664 276.34C311.664 276.34 311.586 279.415 309.488 280.283C307.389 281.15 301.312 281.933 303.584 283.911C304.886 285.047 311.04 284.313 312.764 284.313C314.487 284.313 316.127 285.063 317.416 283.911C318.833 282.644 317.416 276.34 317.416 276.34C317.416 276.34 315.919 277.112 314.572 277.077C312.638 277.03 311.664 276.34 311.664 276.34Z" fill="#131F2D"/>
<path d="M274.566 198.98C274.107 199.026 273.678 199.227 273.348 199.549C273.019 199.871 272.808 200.296 272.752 200.753C272.523 202.616 272.486 206.58 273.618 214.787C275.279 226.846 281.562 270.843 282.606 276.708C282.981 278.805 283.405 280.096 286.473 280.538L290.545 280.458C293.858 280.937 295.133 277.408 295.157 275.15L292.494 207.373L303.088 199.356C297.481 198.707 291.841 198.373 286.196 198.357C282.311 198.369 278.429 198.576 274.566 198.98Z" fill="#364154"/>
<path d="M284.534 201.214L307.885 275.619C308.35 277.129 309.279 278.454 310.54 279.405C311.801 280.357 313.33 280.888 314.91 280.921L316.314 280.945C317.097 280.951 317.872 280.783 318.582 280.454C319.293 280.124 319.921 279.641 320.422 279.039C320.924 278.438 321.285 277.732 321.481 276.974C321.677 276.216 321.702 275.424 321.555 274.655L308.772 204.743C308.585 203.913 308.111 200.239 307.304 200.008C302.934 198.754 284.105 198.136 284.534 201.214Z" fill="#364154"/>
<path d="M294.971 234.472L289.951 219.328C288.838 215.943 286.507 213.091 283.41 211.326L283.605 210.986C286.786 212.801 289.179 215.732 290.321 219.211L295.344 234.353L294.971 234.472Z" fill="#020202"/>
<path d="M300.745 148.623C300.745 148.623 303.182 146.39 300.252 145.602C299.094 145.291 297.368 142.456 295.757 142.7C294.146 142.945 293.195 151.943 286.729 154.727C286.729 154.727 285.131 156.101 287.727 156.04C290.324 155.978 300.745 148.623 300.745 148.623Z" fill="#0B40B3"/>
<path d="M286.728 154.727C286.728 154.727 283.493 151.57 284.065 148.623C284.638 145.677 282.984 143.158 282.182 144.489C281.381 145.82 280.454 144.992 280.27 146.661C280.087 148.331 282.585 156.529 284.851 156.529C287.117 156.529 286.728 154.727 286.728 154.727Z" fill="#0B40B3"/>
<path d="M287.461 155.348C287.461 155.348 289.552 156.279 288.777 158.489C288.002 160.698 289.086 161.59 289.086 161.59C289.086 161.59 286.55 161.712 286.244 159.346C286.164 158.632 286.23 157.909 286.439 157.221C286.649 156.534 286.996 155.896 287.461 155.348Z" fill="#0B40B3"/>
<path d="M286.273 155.348C286.273 155.348 283.61 156.245 283.503 157.959C283.397 159.673 284.91 160.089 285.445 159.061C285.98 158.034 287.091 156.042 287.091 156.042L286.273 155.348Z" fill="#0B40B3"/>
<path d="M293.781 140.683C293.781 140.683 293.762 143.079 292.047 144.428C290.332 145.778 291.467 146.949 289.957 148.863C288.446 150.777 290.244 150.817 287.56 152.209C284.875 153.601 282.872 152.34 283.397 150.21C283.922 148.08 281.602 148.645 282.697 145.951C283.791 143.257 284.59 144.907 283.666 142.038C282.742 139.168 284.047 138.423 284.047 138.423C284.047 138.423 285.525 138.524 286.71 138.737C287.895 138.95 288.976 138.574 289.807 138.841C290.638 139.107 293.781 140.683 293.781 140.683Z" fill="#131F2D"/>
<path d="M285.224 139.677C286.462 139.976 287.741 140.076 289.011 139.972C289.011 139.972 288.72 141.79 286.72 141.428C285.565 141.215 285.224 139.677 285.224 139.677Z" fill="white"/>
<path d="M326.128 198.98C326.128 198.98 320.026 199.63 316.865 198.98C316.865 198.98 316.455 200.577 317.115 201.328C317.115 201.328 324.426 201.876 326.128 201.328C326.128 201.328 327.377 200.12 326.128 198.98Z" fill="#131F2D"/>
<path d="M322.162 202.662H322.274C323.48 202.662 324.458 201.684 324.458 200.479V200.069C324.458 198.863 323.48 197.886 322.274 197.886H322.162C320.956 197.886 319.978 198.863 319.978 200.069V200.479C319.978 201.684 320.956 202.662 322.162 202.662Z" fill="#131F2D"/>
<path d="M314.255 153.971C314.255 153.971 319.427 157.006 324.46 176.95C329.494 196.893 325.709 197.255 325.709 197.255C325.709 197.255 318.921 197.386 316.737 196.614C314.553 195.842 313.387 177.98 309.033 170.702C304.678 163.424 303.12 152.305 314.255 153.971Z" fill="#4D83FA"/>
<path d="M285.434 169.014C285.859 169.014 286.204 168.672 286.204 168.25C286.204 167.828 285.859 167.486 285.434 167.486C285.009 167.486 284.665 167.828 284.665 168.25C284.665 168.672 285.009 169.014 285.434 169.014Z" fill="#131F2D"/>
<path d="M285.434 178.331C285.859 178.331 286.204 177.989 286.204 177.567C286.204 177.145 285.859 176.803 285.434 176.803C285.009 176.803 284.665 177.145 284.665 177.567C284.665 177.989 285.009 178.331 285.434 178.331Z" fill="#131F2D"/>
<path d="M285.434 189.371C285.859 189.371 286.204 189.028 286.204 188.607C286.204 188.185 285.859 187.843 285.434 187.843C285.009 187.843 284.665 188.185 284.665 188.607C284.665 189.028 285.009 189.371 285.434 189.371Z" fill="#131F2D"/>
<path d="M251.945 131.366C251.945 131.366 261.029 124.889 262.864 125.571C264.89 126.327 272.235 137.363 274.281 145.504C275.434 150.088 274.03 151.062 271.724 151.868L261.596 155.419L251.945 131.366Z" fill="#364154"/>
<path d="M253.141 131.23C252.129 131.1 245.069 132.662 240.16 129.792C234.869 126.697 231.638 119.043 228.131 121.466C224.727 123.816 231.431 137.47 231.841 138.292C231.843 138.297 231.845 138.303 231.845 138.309C231.846 138.315 231.845 138.321 231.843 138.326C231.841 138.332 231.838 138.337 231.834 138.341C231.83 138.345 231.825 138.348 231.819 138.351C231.042 138.705 221.06 143.523 219.161 146.739C217.031 150.322 220.991 152.595 220.991 152.595C220.107 153.367 217.262 157.727 223.92 159.905C223.935 159.911 223.947 159.923 223.954 159.938C223.961 159.952 223.962 159.969 223.958 159.985C223.71 161.034 222.03 166.03 229.385 165.732C229.385 165.732 228.869 171.027 234.011 170.292C239.154 169.557 260.558 157.632 261.586 155.499C264.073 150.33 257.54 131.792 253.141 131.23Z" fill="#0B40B3"/>
<path d="M269.053 182.771H268.848C269.176 176.649 271.133 165.772 271.152 165.663L271.354 165.7C271.336 165.798 269.381 176.667 269.053 182.771Z" fill="#131F2D"/>
<path d="M311.533 176.825C310.665 173.071 308.093 167.585 308.071 167.529L308.26 167.441C308.284 167.497 310.868 173.002 311.739 176.779L311.533 176.825Z" fill="#131F2D"/>
<path d="M109.385 156C114.323 158.366 119.684 170.044 119.684 170.044C119.684 170.044 113.601 173.138 113.292 173.239C112.983 173.34 101.127 160.698 101.127 160.698C101.127 160.698 107.244 154.972 109.385 156Z" fill="#F9A38F"/>
<path d="M95.9471 274.956C95.9471 274.956 96.0989 277.868 98.0936 278.637C100.088 279.407 105.817 279.995 103.745 281.928C102.546 283.038 96.7487 282.497 95.1162 282.543C93.4836 282.588 91.971 283.341 90.7299 282.276C89.3637 281.11 90.5355 275.089 90.5355 275.089C90.5355 275.089 91.963 275.786 93.2306 275.717C95.0469 275.645 95.9471 274.956 95.9471 274.956Z" fill="#131F2D"/>
<path d="M110.594 186.495C110.594 186.495 111.343 199.646 107.824 225.004C105.281 243.31 102.197 261.771 100.677 270.622C100.43 272.145 99.677 273.541 98.5397 274.585C97.4024 275.628 95.9468 276.259 94.4074 276.375L92.7216 276.486C89.3314 276.715 86.4951 273.872 86.6496 270.401L89.3128 210.719L89.8454 191.087L110.594 186.495Z" fill="#657285"/>
<path d="M77.2464 275.459C77.2464 275.459 77.3982 278.387 79.3929 279.143C81.3876 279.899 87.1294 280.501 85.0442 282.431C83.8457 283.541 78.048 283 76.4155 283.046C74.783 283.091 73.2703 283.844 72.0292 282.779C70.663 281.616 71.8348 275.592 71.8348 275.592C71.8348 275.592 73.2623 276.287 74.53 276.22C76.3516 276.135 77.2464 275.459 77.2464 275.459Z" fill="#131F2D"/>
<path d="M91.9018 187.001C91.9018 187.001 92.6501 200.149 89.1294 225.507C86.5887 243.813 83.5048 262.274 81.9841 271.128C81.7367 272.651 80.9838 274.046 79.8466 275.089C78.7094 276.132 77.2541 276.762 75.715 276.878L74.0292 276.992C70.639 277.219 67.8027 274.378 67.9572 270.904L70.6204 211.225L71.153 191.59L91.9018 187.001Z" fill="#657285"/>
<path d="M69.3497 202.041C69.4349 203.639 79.0569 203.998 90.9213 203.309C102.786 202.619 112.24 200.721 112.157 199.132C112.075 197.543 102.49 196.872 90.6204 197.564C78.7506 198.256 69.2671 200.455 69.3497 202.041Z" fill="#131F2D"/>
<path d="M71.0461 157.014C71.0461 157.014 72.9103 148.634 88.4179 148.133C110.765 147.409 109.249 167.992 112.16 199.132C112.16 199.132 90.0558 196.614 69.3283 201.65C69.3283 201.642 66.5346 169.861 71.0461 157.014Z" fill="#4D83FA"/>
<path d="M65.2939 155.973L75.5658 161.297C75.5658 161.297 97.7846 162.711 103.644 161.585C109.503 160.458 110.999 156.093 110.999 156.093C110.999 156.093 104.557 149.781 93.8591 148.339C92.8525 148.2 91.8138 148.11 90.7352 148.072C88.9368 148.003 87.1358 148.092 85.353 148.339C71.8933 150.207 65.2939 155.973 65.2939 155.973Z" fill="#4D83FA"/>
<path d="M86.2371 146.286L87.3024 142.48L87.614 141.372L89.4409 134.858L89.8777 141.276L90.144 145.131L90.2266 146.35C90.2825 147.178 90.7938 147.338 91.4277 148.04C91.694 148.325 93.3292 150.053 91.5395 150.902C89.3104 151.967 85.0547 150.564 83.4009 148.631C83.4089 148.629 85.8909 147.516 86.2371 146.286Z" fill="#F9A38F"/>
<path d="M110.328 200.468C110.328 200.468 97.3559 197.029 70.8387 202.944L70.7349 206.782L109.852 207.11L110.328 200.468Z" fill="#657285"/>
<path d="M65.0886 156.213C64.2657 157.453 66.1353 160.184 69.2592 162.317C72.3831 164.449 75.5815 165.17 76.4018 163.93C77.2221 162.689 75.3552 159.958 72.2446 157.826C69.134 155.694 65.9089 154.972 65.0886 156.213Z" fill="#131F2D"/>
<path d="M93.2199 131.238C93.6972 132.329 93.9395 133.508 93.931 134.698C93.931 136.7 91.0015 132.38 91.0015 132.38L93.2199 131.238Z" fill="#131F2D"/>
<path d="M91.1112 143.623C94.1107 142.585 95.5276 138.813 94.2759 135.198C93.0243 131.583 89.578 129.494 86.5785 130.532C83.579 131.569 82.1621 135.341 83.4138 138.956C84.6655 142.571 88.1117 144.66 91.1112 143.623Z" fill="#F9A38F"/>
<path d="M82.8759 137.041L85.5391 136.2C85.8294 136.111 86.0959 135.957 86.3186 135.751C86.5413 135.544 86.7146 135.29 86.8254 135.007C87.2036 134.02 87.7841 133.431 90.3461 133.005C93.5872 132.473 95.3182 130.112 95.3209 128.358C95.3236 126.603 93.4354 125.741 91.9893 126.891C90.5432 128.041 90.8201 125.89 89.2222 125.997C86.2368 126.196 86.1516 128.544 83.7601 128.962C80.6229 129.494 75.5229 133.021 79.2993 137.962L82.8759 137.041Z" fill="#131F2D"/>
<path d="M89.0841 136.732C89.0975 136.72 89.1076 136.705 89.1137 136.687C89.1197 136.67 89.1214 136.652 89.1188 136.634C89.1175 136.619 89.1131 136.604 89.1059 136.59C89.0986 136.577 89.0887 136.565 89.0767 136.556C89.0648 136.546 89.051 136.539 89.0362 136.535C89.0215 136.531 89.006 136.53 88.9909 136.533C88.7121 136.55 88.4468 136.659 88.2367 136.843C88.0266 137.027 87.8835 137.276 87.8298 137.55C87.8257 137.564 87.8247 137.58 87.8266 137.595C87.8286 137.61 87.8336 137.625 87.8412 137.639C87.8489 137.652 87.8591 137.664 87.8713 137.673C87.8835 137.682 87.8975 137.689 87.9123 137.693C87.9418 137.698 87.9721 137.693 87.9978 137.678C88.0236 137.663 88.0433 137.639 88.0535 137.611C88.2729 137.23 88.6118 136.933 89.0176 136.764C89.0427 136.761 89.0662 136.75 89.0841 136.732Z" fill="#080435"/>
<path d="M88.8896 138.287C89.0175 138.534 89.2651 138.66 89.4436 138.569C89.5204 138.489 89.5705 138.388 89.5869 138.278C89.6033 138.169 89.5853 138.057 89.5352 137.959C89.4851 137.86 89.4055 137.779 89.3075 137.728C89.2094 137.677 89.0978 137.657 88.9882 137.672C88.8961 137.742 88.8346 137.845 88.8162 137.96C88.7979 138.074 88.8242 138.191 88.8896 138.287Z" fill="#080435"/>
<path d="M93.2356 135.526C93.2496 135.521 93.2617 135.511 93.2706 135.499C93.2796 135.487 93.285 135.472 93.2862 135.457C93.2904 135.428 93.2852 135.398 93.2714 135.371C93.2575 135.345 93.2357 135.324 93.209 135.311C93.1108 135.257 93.0026 135.224 92.8911 135.214C92.7796 135.203 92.6672 135.216 92.5609 135.251C92.4545 135.286 92.3564 135.342 92.2728 135.417C92.1891 135.491 92.1216 135.582 92.0745 135.683C92.0623 135.71 92.0586 135.739 92.0638 135.768C92.0691 135.797 92.083 135.823 92.1038 135.843C92.112 135.852 92.1221 135.86 92.1333 135.865C92.1446 135.87 92.1567 135.872 92.169 135.872C92.1813 135.872 92.1935 135.87 92.2047 135.865C92.216 135.86 92.226 135.852 92.2343 135.843C92.361 135.729 92.5104 135.642 92.6728 135.589C92.8352 135.535 93.007 135.517 93.177 135.534C93.1868 135.538 93.1971 135.539 93.2073 135.537C93.2174 135.536 93.2271 135.532 93.2356 135.526Z" fill="#080435"/>
<path d="M92.4371 136.908C92.4584 137.174 92.6395 137.398 92.8392 137.382C93.039 137.366 93.1855 137.116 93.1642 136.85C93.1428 136.583 92.9618 136.36 92.762 136.376C92.5623 136.392 92.4158 136.631 92.4371 136.908Z" fill="#080435"/>
<path d="M79.3047 137.962C79.3047 137.962 82.0211 141.636 84.7509 141.385C84.7509 141.385 81.9572 138.723 86.1171 135.918C86.1171 135.918 81.8081 136.117 79.3047 137.962Z" fill="#131F2D"/>
<path d="M83.5288 139.432C83.7388 139.485 83.9598 139.476 84.1651 139.407C84.3704 139.338 84.5513 139.211 84.6861 139.041C84.8208 138.872 84.9036 138.667 84.9245 138.451C84.9454 138.236 84.9035 138.019 84.8039 137.826C84.7042 137.634 84.5511 137.474 84.3629 137.367C84.1747 137.26 83.9594 137.209 83.7431 137.221C83.5267 137.233 83.3185 137.308 83.1435 137.435C82.9684 137.563 82.834 137.739 82.7565 137.941C82.6627 138.241 82.6911 138.566 82.8358 138.845C82.9804 139.124 83.2295 139.335 83.5288 139.432Z" fill="#F9A38F"/>
<path d="M86.1171 135.918C86.1171 135.918 86.4527 139.397 87.2783 139.897C88.1038 140.398 92.7404 139.738 94.7085 138.473C94.9502 139.531 94.8051 140.64 94.2995 141.6C93.7939 142.56 92.9612 143.307 91.9521 143.707C91.2537 143.977 90.5142 144.125 89.7657 144.146C88.2157 144.194 86.6338 143.88 85.731 142.613C85.4646 142.229 85.4646 139.519 85.4646 139.519C85.4646 139.519 85.3554 137.954 84.3062 137.345C84.3221 137.345 85.1584 136.213 86.1171 135.918Z" fill="#131F2D"/>
<path d="M91.3396 126.721C91.1605 126.723 90.9852 126.669 90.8385 126.566C90.6918 126.463 90.5811 126.317 90.522 126.148L90.6711 126.103C90.6711 126.127 90.8682 126.707 91.6032 126.532L91.6405 126.683C91.542 126.708 91.441 126.72 91.3396 126.721Z" fill="#131F2D"/>
<path d="M91.0788 131.917L91.0415 131.847C91.6069 131.535 92.1418 131.171 92.6394 130.759C93.3531 130.162 94.1787 129.255 94.0642 128.32C94.0003 127.815 93.8485 127.5 93.6008 127.362C93.2014 127.141 92.6128 127.413 92.0935 127.65L91.8618 127.756L91.8298 127.684L92.0615 127.58C92.5941 127.333 93.204 127.048 93.6381 127.296C93.9044 127.447 94.0749 127.78 94.1415 128.312C94.3732 130.157 91.212 131.845 91.0788 131.917Z" fill="white"/>
<path d="M82.5566 129.87V129.79C85.9921 129.556 87.2172 127.349 87.2305 127.325L87.2971 127.362C87.2811 127.386 86.0374 129.63 82.5566 129.87Z" fill="white"/>
<path d="M90.0879 140.683C90.0879 140.683 92.2717 140.813 93.5314 140.038C93.5234 140.033 92.5913 143.403 90.0879 140.683Z" fill="white"/>
<path d="M94.2745 171.152C94.2745 171.152 79.7522 167.545 77.8028 169.288C75.6483 171.229 71.9198 188.609 73.3792 199.771C74.1995 206.056 76.4286 206.577 79.7043 206.45L94.0854 205.891L94.2745 171.152Z" fill="#364154"/>
<path d="M92.6766 171.482C93.8777 170.822 103.452 169.296 108.158 163.302C113.236 156.836 113.484 145.703 119.077 146.997C124.478 148.253 122.84 168.583 122.736 169.81C122.735 169.818 122.736 169.825 122.738 169.833C122.741 169.84 122.744 169.847 122.749 169.852C122.754 169.858 122.76 169.863 122.767 169.866C122.774 169.869 122.782 169.871 122.789 169.871C123.932 169.93 138.768 171.032 142.71 174.107C147.115 177.53 143.306 182.303 143.306 182.303C144.79 182.835 150.481 186.868 143.256 192.858C143.242 192.874 143.234 192.896 143.234 192.918C143.234 192.939 143.242 192.961 143.256 192.977C144.084 194.159 148.641 199.569 139.317 202.827C139.317 202.827 142.568 209.176 135.791 210.789C129.013 212.402 96.4264 208.05 94.0961 205.901C88.4502 200.684 87.4675 174.346 92.6766 171.482Z" fill="#0B40B3"/>
<path d="M65.2939 193.986C65.2939 193.986 67.001 185.88 67.6429 185.71C69.1183 185.313 72.2022 185.191 73.6829 184.824C74.3274 184.664 76.5245 184.278 76.7669 184.896C76.9773 185.428 75.3741 186.573 74.5458 187.025C78.6178 188.59 84.0267 191.947 75.0784 190.046V190.062C75.9413 190.414 81.3955 192.37 80.9854 193.645C80.6738 194.614 75.5099 192.94 74.0851 192.378L74.0638 192.416C75.4646 193.113 79.7603 194.633 79.2969 195.716C78.9028 196.64 72.9053 194.652 72.9053 194.652C72.9053 194.652 77.699 196.768 76.5885 197.412C75.5738 198.003 71.0331 196.148 69.6642 195.589C68.2501 195.003 65.2939 193.986 65.2939 193.986Z" fill="#F9A38F"/>
<path d="M107.132 160.735C106.429 158.438 104.203 155.587 104.171 155.558L104.371 155.401C104.392 155.43 106.658 158.329 107.375 160.661L107.132 160.735Z" fill="#131F2D"/>
<path d="M88.5592 230.658L88.3062 230.623C88.3221 230.514 89.7629 219.738 90.8495 215.868C91.936 211.997 96.9934 208.59 97.044 208.558L97.1852 208.768C97.1346 208.803 92.1651 212.122 91.0945 215.937C90.0239 219.752 88.5751 230.559 88.5592 230.658Z" fill="#131F2D"/>
<path d="M129.218 169.296C129.218 169.296 131.729 169.64 131.418 171.54C131.021 173.965 128.904 175.419 128.661 174.325C128.613 174.109 128.999 171.817 128.999 171.817C128.999 171.817 126.778 176.532 125.745 175.776C124.712 175.02 126.693 170.984 126.693 170.984C126.693 170.984 124.003 175.387 123.295 174.421C122.586 173.454 124.36 169.781 124.36 169.781C124.36 169.781 122.014 174.213 121.223 173.074C120.432 171.934 122.208 169.863 122.714 168.836C123.194 167.864 124.11 167.83 125.215 168.317C125.215 168.317 126.629 168.274 127.263 168.743C127.505 168.921 127.892 168.804 128.107 168.86C128.487 168.98 128.858 169.126 129.218 169.296Z" fill="#F9A38F"/>
<path d="M51.5067 177.876C56.4682 166.264 65.0756 157.288 65.2247 157.113C65.2247 157.113 66.8812 155.723 69.832 157.986C75.1823 162.088 74.892 164.558 74.892 164.558C74.892 164.558 62.8678 180.511 61.4057 182.891C60.431 184.472 50.0979 181.174 51.5067 177.876Z" fill="#F9A38F"/>
<path d="M69.9731 185.332C69.9731 185.332 64.1141 182.513 59.8211 176.984C57.3417 173.79 51.5067 177.876 51.5067 177.876C51.5067 177.876 48.5505 183.298 52.0606 187.901C55.2964 192.144 65.2939 193.986 65.2939 193.986L69.9731 185.332Z" fill="#F9A38F"/>
<path d="M63.1341 180.644C63.1198 180.645 63.1055 180.642 63.0922 180.636C63.079 180.631 63.0669 180.623 63.0569 180.612C60.7905 178.185 57.174 178.182 57.142 178.185C57.1284 178.185 57.1148 178.183 57.102 178.179C57.0892 178.174 57.0776 178.166 57.0679 178.157C57.0581 178.147 57.0504 178.136 57.0453 178.123C57.0402 178.111 57.0377 178.097 57.0381 178.084C57.0381 178.056 57.0487 178.03 57.0676 178.011C57.0865 177.992 57.1122 177.98 57.1393 177.98C57.1766 177.98 60.8811 177.98 63.2087 180.471C63.2186 180.481 63.2265 180.492 63.2319 180.505C63.2373 180.517 63.2401 180.531 63.2401 180.545C63.2401 180.558 63.2373 180.572 63.2319 180.584C63.2265 180.597 63.2186 180.608 63.2087 180.618C63.1988 180.627 63.187 180.634 63.1742 180.639C63.1614 180.644 63.1477 180.645 63.1341 180.644Z" fill="#E59562"/>
<path d="M353.542 173.345L352.04 161.366L353.934 159.271C353.888 159.271 347.395 161.451 341.827 158.864C334.436 155.427 328.245 149.079 325.882 139.615L318.055 141.894C326.628 171.894 352.9 173.372 353.542 173.345Z" fill="#F9A38F"/>
<path d="M316.505 132.766C317.658 131.808 318.034 136.344 318.034 136.344C318.034 136.344 317.818 132.787 318.702 131.848C319.408 131.1 320.151 134.315 320.426 135.657H320.463C320.308 134.326 320.034 131.089 320.937 130.599C321.959 130.037 322.535 134.536 322.628 135.343C322.362 127.328 324.644 132.681 325.046 136.479C325.608 135.881 328.977 135.415 329.382 135.702C329.848 136.046 327.784 137.848 327.368 138.255C326.364 139.248 326.167 140.574 326.569 142.003C326.724 142.562 318.58 143.041 318.58 143.041C317.888 141.704 317.352 140.292 316.982 138.833C316.913 138.677 316.863 138.513 316.833 138.346C316.79 138.125 316.729 137.832 316.66 137.499C316.338 135.891 315.853 133.306 316.505 132.766Z" fill="#F9A38F"/>
<path d="M357.292 282.22C357.292 282.22 357.215 285.308 355.108 286.181C353.002 287.055 346.895 287.837 349.175 289.823C350.485 290.965 356.656 290.228 358.397 290.228C360.139 290.228 361.774 290.981 363.068 289.823C364.493 288.551 363.068 282.218 363.068 282.218C363.068 282.218 361.566 282.995 360.214 282.96C358.269 282.91 357.292 282.22 357.292 282.22Z" fill="#131F2D"/>
<path d="M381.495 282.218C381.495 282.218 381.418 285.308 379.311 286.179C377.205 287.049 371.095 287.837 373.378 289.823C374.688 290.962 380.858 290.228 382.6 290.228C384.342 290.228 385.977 290.981 387.271 289.823C388.696 288.551 387.271 282.218 387.271 282.218C387.271 282.218 385.769 282.995 384.416 282.96C382.467 282.91 381.495 282.218 381.495 282.218Z" fill="#131F2D"/>
<path d="M341.63 197.527C341.63 197.527 341.241 210.459 345.401 235.266C348.405 253.176 351.952 271.224 353.691 279.875C353.982 281.369 354.767 282.722 355.92 283.716C357.073 284.71 358.527 285.288 360.048 285.356L361.718 285.423C362.519 285.45 363.317 285.307 364.059 285.004C364.801 284.702 365.47 284.245 366.024 283.666C366.577 283.086 367.001 282.396 367.269 281.641C367.537 280.886 367.642 280.083 367.577 279.284L363.356 220.75L362.315 201.485L341.63 197.527Z" fill="#4D83FA"/>
<path d="M379.692 208.907C379.5 210.48 370.528 210.291 359.543 208.907C348.557 207.523 340.008 205.18 340.2 203.583C340.392 201.986 349.255 201.818 360.238 203.197C371.221 204.576 379.884 207.334 379.692 208.907Z" fill="#131F2D"/>
<path d="M354.243 206.764L377.695 281.502C378.162 283.017 379.095 284.347 380.361 285.303C381.628 286.259 383.163 286.792 384.749 286.826L386.158 286.85C386.945 286.855 387.723 286.686 388.436 286.355C389.15 286.024 389.781 285.539 390.284 284.935C390.788 284.331 391.152 283.623 391.349 282.862C391.546 282.101 391.573 281.305 391.426 280.533L378.595 210.312C378.505 209.905 378.308 209.529 378.023 209.225C377.738 208.92 377.376 208.698 376.976 208.582C372.579 207.318 353.809 203.673 354.243 206.764Z" fill="#4D83FA"/>
<path d="M381.188 203.628L375.862 197.505C375.958 197.447 386.395 190.909 385.396 181.6C384.864 176.75 381.934 172.845 376.68 169.999C374.061 168.604 371.252 167.599 368.341 167.018L369.593 159.069C373.372 159.789 377.02 161.079 380.411 162.897C388.019 167.012 392.47 173.178 393.279 180.732C393.934 186.831 391.785 192.895 387.063 198.269C383.684 202.119 383.836 202.35 381.188 203.628Z" fill="#F9A38F"/>
<path d="M376.025 165.881C376.025 165.881 372.917 157.187 361.787 157.568C350.658 157.948 342.28 172.454 340.2 203.596C340.2 203.596 358.402 199.638 379.727 208.875C379.727 208.875 380.906 178.573 376.025 165.881Z" fill="#657285"/>
<path d="M384.754 164.039L375.966 170.356C375.966 170.356 352.629 178.8 348.325 175.44C341.177 169.85 345.164 159.468 345.164 159.468C345.164 159.468 348.908 159.828 358.954 157.922C359.894 157.749 360.844 157.632 361.798 157.57C363.437 157.46 365.083 157.496 366.717 157.677C376.315 158.704 384.754 164.039 384.754 164.039Z" fill="#657285"/>
<path d="M384.755 164.039C385.231 164.723 383.649 166.701 381.218 168.437C378.786 170.172 376.424 171.043 375.955 170.358C375.487 169.674 377.063 167.696 379.492 165.961C381.921 164.225 384.278 163.355 384.755 164.039Z" fill="#131F2D"/>
<path d="M366.685 157.674C366.103 157.616 365.546 157.405 365.073 157.061C364.6 156.717 364.227 156.253 363.992 155.718L362.509 152.305L362.08 151.315L359.55 145.49L359.99 151.525L360.256 155.151L360.331 156.183C360.358 156.591 360.233 156.993 359.98 157.314C359.727 157.635 359.364 157.85 358.962 157.919H358.946C358.496 158.646 357.881 160.12 359.745 160.706C361.926 161.396 365.455 159.692 366.722 157.674H366.685Z" fill="#F9A38F"/>
<path d="M380.158 194.798C380.158 194.798 376.864 191.809 374.264 192.072C371.665 192.336 368.544 194.623 370.19 194.798C371.836 194.974 374.003 194.623 374.003 194.623C374.003 194.623 369.409 195.592 370.104 196.558C370.8 197.524 374.784 196.646 374.784 196.646C374.784 196.646 369.409 198.23 370.363 198.932C371.316 199.635 375.391 198.4 375.391 198.4C375.391 198.4 370.451 200.072 371.577 200.862C372.704 201.653 375.652 199.457 376.344 200.423C377.037 201.389 378.339 205.175 381.284 203.591L380.158 194.798Z" fill="#F9A38F"/>
<path d="M364.725 240.166L359.681 224.956C358.562 221.557 356.222 218.693 353.113 216.919L353.305 216.579C356.501 218.398 358.906 221.339 360.053 224.831L365.097 240.039L364.725 240.166Z" fill="#020202"/>
<path d="M377.58 170.476C377.58 170.476 377.093 169.022 379.3 167.406C381.508 165.79 384.368 165.439 384.368 165.439L384.949 168.21L381.828 169.563L377.58 170.476Z" fill="#F9A38F"/>
<path d="M366.43 144.495C366.43 144.495 366.195 145.488 366.768 147.516C367.609 150.487 364.187 151.727 363.306 150.881C363.196 150.774 363.34 145.722 363.34 145.722L364.435 145.078L366.43 144.495Z" fill="#131F2D"/>
<path d="M362.53 152.207V152.305C362.386 154.251 360.288 155.161 360.288 155.161L360.021 151.536C360.663 151.304 361.577 151.065 362.112 151.325C362.36 151.451 362.53 151.725 362.53 152.207Z" fill="#131F2D"/>
<path d="M359.276 153.452C362.434 153.452 364.994 150.319 364.994 146.454C364.994 142.589 362.434 139.456 359.276 139.456C356.118 139.456 353.558 142.589 353.558 146.454C353.558 150.319 356.118 153.452 359.276 153.452Z" fill="#F9A38F"/>
<path d="M357.01 141.085C357.17 141.298 356.269 144.899 362.991 145.759C369.713 146.619 365.676 138.526 360.717 138.343C353.553 138.077 352.512 142.868 353.199 144.577C353.886 146.286 357.01 141.085 357.01 141.085Z" fill="#131F2D"/>
<path d="M367.372 136.658C367.372 136.658 364.352 138.662 366.674 140.55C368.996 142.437 375.388 143.26 373.644 146.443C371.899 149.627 370.392 154.341 373.529 154.93C376.666 155.518 378.64 155.284 379.921 157.759C381.202 160.235 386.89 158.702 386.424 155.755C385.958 152.808 390.837 150.215 388.746 147.503C386.656 144.79 381.556 142.445 380.267 138.897C378.978 135.348 369.811 135.125 367.372 136.658Z" fill="#131F2D"/>
<path d="M362.264 144.612C362.264 144.612 365.013 147.484 364.059 150.423C364.059 150.423 365.657 148.695 365.689 148.051C365.721 147.407 365.3 145.078 365.3 145.078L362.264 144.612Z" fill="#131F2D"/>
<path d="M364.23 147.511C363.58 148.123 362.674 148.187 362.206 147.652C361.737 147.117 361.881 146.182 362.528 145.57C363.175 144.958 364.081 144.894 364.552 145.429C365.023 145.964 364.877 146.896 364.23 147.511Z" fill="#F9A38F"/>
<path d="M385.029 158.72C385.012 158.724 384.995 158.724 384.979 158.72C384.18 158.411 383.687 158.018 383.508 157.52C383.242 156.766 383.703 155.941 384.198 155.068C384.63 154.301 385.08 153.511 384.971 152.8C384.845 151.962 383.732 151.765 382.555 151.557C381.564 151.381 380.536 151.2 380.132 150.569C380.034 150.4 379.974 150.212 379.954 150.018C379.935 149.824 379.957 149.628 380.02 149.443C380.148 148.948 380.307 148.504 380.462 148.075C381.122 146.228 381.644 144.769 378.725 141.42C374.978 137.134 371.878 136.929 369.085 137.342C368.757 137.392 367.929 137.813 367.934 138.191C367.934 138.383 368.201 138.867 370.627 139.168C371.746 139.493 372.781 140.06 373.658 140.827C374.536 141.595 375.234 142.545 375.705 143.611C376.576 145.549 375.338 147.62 374.344 149.286C373.676 150.402 373.101 151.365 373.279 152.012C373.319 152.138 373.385 152.254 373.472 152.353C373.56 152.451 373.667 152.53 373.788 152.584C374.48 152.923 375.209 153.18 375.961 153.351C377.852 153.86 379.807 154.384 380.052 157.762C380.057 157.781 380.058 157.801 380.054 157.821C380.051 157.841 380.043 157.859 380.031 157.875C380.02 157.892 380.005 157.905 379.988 157.915C379.97 157.925 379.951 157.931 379.931 157.932C379.911 157.934 379.891 157.931 379.873 157.924C379.854 157.917 379.837 157.906 379.823 157.892C379.809 157.878 379.799 157.861 379.792 157.842C379.786 157.823 379.783 157.803 379.785 157.783C379.554 154.589 377.857 154.139 375.892 153.612C375.119 153.434 374.37 153.166 373.66 152.813C373.508 152.741 373.373 152.638 373.263 152.51C373.153 152.383 373.07 152.234 373.021 152.073C372.81 151.315 373.415 150.306 374.113 149.145C375.125 147.449 376.273 145.527 375.46 143.72C375.009 142.695 374.338 141.781 373.496 141.042C372.654 140.304 371.66 139.759 370.584 139.445C368.632 139.203 367.673 138.795 367.655 138.202C367.636 137.608 368.677 137.137 369.037 137.084C371.905 136.655 375.09 136.865 378.92 141.25C381.945 144.71 381.399 146.236 380.709 148.171C380.555 148.594 380.4 149.033 380.273 149.518C380.22 149.666 380.2 149.824 380.213 149.981C380.227 150.138 380.273 150.291 380.35 150.428C380.693 150.961 381.66 151.131 382.595 151.296C383.815 151.512 385.074 151.733 385.231 152.765C385.354 153.564 384.883 154.4 384.433 155.206C383.982 156.013 383.535 156.804 383.761 157.435C383.913 157.852 384.342 158.193 385.077 158.473C385.11 158.482 385.138 158.502 385.156 158.531C385.174 158.56 385.181 158.594 385.175 158.628C385.169 158.661 385.151 158.691 385.124 158.712C385.097 158.732 385.063 158.742 385.029 158.739V158.72Z" fill="white"/>
<path d="M363.045 143.637C362.267 143.612 361.506 143.403 360.824 143.028C360.143 142.653 359.559 142.122 359.122 141.479C359.11 141.464 359.102 141.446 359.098 141.428C359.093 141.41 359.093 141.391 359.096 141.372C359.099 141.353 359.106 141.336 359.117 141.32C359.128 141.304 359.141 141.291 359.157 141.281C359.173 141.271 359.191 141.264 359.21 141.262C359.229 141.259 359.248 141.26 359.266 141.265C359.284 141.27 359.301 141.279 359.316 141.291C359.33 141.303 359.342 141.318 359.351 141.335C359.351 141.353 360.616 143.315 363.05 143.366C363.081 143.372 363.108 143.389 363.128 143.413C363.148 143.437 363.159 143.468 363.159 143.499C363.159 143.53 363.148 143.561 363.128 143.585C363.108 143.609 363.081 143.626 363.05 143.632L363.045 143.637Z" fill="white"/>
<path d="M374.038 194.721L373.972 194.54C374.025 194.521 375.303 194.058 375.993 194.553L375.881 194.71C375.263 194.266 374.049 194.721 374.038 194.721Z" fill="#E9845C"/>
<path d="M374.818 196.736L374.749 196.558C374.8 196.537 376.019 196.068 377.13 196.558L377.053 196.733C376.014 196.276 374.832 196.731 374.818 196.736Z" fill="#E9845C"/>
<path d="M375.426 198.496L375.356 198.315C375.42 198.291 376.917 197.745 377.62 198.331L377.498 198.48C376.88 197.963 375.439 198.49 375.426 198.496Z" fill="#E9845C"/>
<path d="M341.827 205.007C341.827 205.007 346.932 204.301 354.61 204.863C362.02 205.437 369.366 206.641 376.571 208.462L372.792 209.096L349.188 210.022L344.437 206.157L341.827 205.007Z" fill="#4D83FA"/>
<path d="M356.118 150.982C357.446 150.979 358.764 150.764 360.025 150.346C360.025 150.346 360.187 152.257 358.072 152.385C356.842 152.459 356.118 150.982 356.118 150.982Z" fill="#E9633E"/>
<path d="M356.118 150.982C356.118 150.982 356.592 151.371 357.694 151.368C358.797 151.365 360.025 150.346 360.025 150.346C360.025 150.346 357.67 150.987 356.118 150.982Z" fill="white"/>
<path d="M358.722 146.523C358.703 146.518 358.685 146.508 358.669 146.495C358.654 146.481 358.642 146.465 358.634 146.446C358.622 146.414 358.623 146.378 358.637 146.347C358.651 146.315 358.677 146.291 358.709 146.278C358.991 146.146 359.31 146.111 359.614 146.178C359.919 146.245 360.192 146.412 360.392 146.651C360.404 146.663 360.413 146.677 360.42 146.692C360.426 146.708 360.43 146.725 360.43 146.741C360.43 146.758 360.426 146.775 360.42 146.79C360.413 146.806 360.404 146.82 360.392 146.832C360.366 146.854 360.334 146.866 360.3 146.866C360.266 146.866 360.234 146.854 360.208 146.832C359.789 146.577 359.298 146.468 358.81 146.521C358.782 146.53 358.751 146.531 358.722 146.523Z" fill="#080435"/>
<path d="M359.75 147.939C359.75 148.248 359.587 148.504 359.361 148.509C359.135 148.514 358.946 148.275 358.935 147.976C358.924 147.678 359.1 147.412 359.326 147.407C359.553 147.402 359.742 147.633 359.75 147.939Z" fill="#080435"/>
<path d="M354.08 147.194C354.06 147.196 354.04 147.194 354.021 147.188C354.002 147.181 353.985 147.171 353.971 147.157C353.959 147.145 353.949 147.131 353.942 147.115C353.936 147.1 353.932 147.083 353.932 147.066C353.932 147.049 353.936 147.032 353.942 147.017C353.949 147.001 353.959 146.987 353.971 146.976C354.182 146.746 354.463 146.593 354.771 146.54C355.078 146.487 355.394 146.537 355.67 146.683C355.701 146.697 355.726 146.722 355.738 146.754C355.751 146.786 355.75 146.822 355.737 146.853C355.719 146.882 355.693 146.904 355.662 146.917C355.63 146.929 355.596 146.93 355.563 146.92C355.079 146.842 354.583 146.927 354.152 147.159C354.133 147.179 354.107 147.191 354.08 147.194Z" fill="#080435"/>
<path d="M355.577 148.118C355.644 148.227 355.667 148.358 355.64 148.483C355.613 148.609 355.539 148.719 355.433 148.791C355.228 148.882 354.959 148.73 354.831 148.448C354.763 148.339 354.739 148.208 354.765 148.082C354.792 147.957 354.866 147.846 354.972 147.774C355.098 147.743 355.23 147.762 355.343 147.826C355.455 147.89 355.539 147.994 355.577 148.118Z" fill="#080435"/>
<path d="M345.859 173.21C345.843 173.212 345.827 173.212 345.811 173.21C345.778 173.196 345.751 173.171 345.736 173.138C345.722 173.105 345.721 173.067 345.734 173.034C346.635 170.864 347.651 168.744 348.778 166.682C348.786 166.667 348.798 166.653 348.811 166.641C348.825 166.63 348.841 166.622 348.858 166.616C348.875 166.611 348.893 166.609 348.911 166.611C348.929 166.613 348.946 166.618 348.962 166.626C348.977 166.635 348.991 166.646 349.003 166.66C349.014 166.674 349.022 166.69 349.028 166.707C349.033 166.724 349.035 166.742 349.033 166.759C349.031 166.777 349.026 166.794 349.018 166.81C347.895 168.862 346.883 170.972 345.987 173.132C345.975 173.156 345.957 173.176 345.935 173.19C345.912 173.204 345.886 173.211 345.859 173.21Z" fill="#131F2D"/>
<path d="M347.351 96.1743C347.351 96.1743 361.678 91.8619 363.71 93.5123C365.958 95.3411 370.533 112.519 369.623 123.739C369.111 130.056 366.909 130.687 363.633 130.719L349.231 130.865L347.351 96.1743Z" fill="#364154"/>
<path d="M348.967 96.4246C347.737 95.8257 338.099 94.7689 333.103 89.0136C327.715 82.8032 326.913 71.7107 321.411 73.2627C316.085 74.7827 318.708 95.0058 318.873 96.2276C318.874 96.2352 318.874 96.2429 318.872 96.2503C318.87 96.2576 318.867 96.2645 318.862 96.2705C318.857 96.2765 318.851 96.2814 318.844 96.2851C318.838 96.2887 318.83 96.2909 318.823 96.2915C317.683 96.406 302.932 98.2294 299.134 101.496C294.902 105.132 298.939 109.711 298.939 109.711C297.485 110.31 291.997 114.622 299.507 120.252C299.524 120.266 299.534 120.286 299.537 120.308C299.539 120.33 299.533 120.352 299.52 120.369C298.753 121.594 294.46 127.218 303.936 130.003C303.936 130.003 301.006 136.503 307.848 137.784C314.689 139.064 347.012 133.133 349.236 130.863C354.621 125.384 354.312 99.0307 348.967 96.4246Z" fill="#4D83FA"/>
<path d="M187.935 137.544C187.935 137.544 190.865 136.365 192.766 139.141C194.668 141.918 194.503 140.302 197.435 143.459C200.367 146.616 195.595 148.251 196.599 150.913C197.603 153.575 199.949 153.724 199.241 157.23C198.532 160.735 195.715 159.529 195.858 161.755C196.002 163.98 197.56 166.014 195.011 166.517C192.463 167.02 191.714 166.887 190.268 170.119C188.822 173.351 184.279 170.518 180.849 171.868C177.419 173.217 168.508 172.714 167.938 170.71C167.368 168.705 160.422 167.606 163.802 161.979C165.666 158.883 162.782 159.607 162.361 155.563C162.017 152.252 166.42 152.88 164.614 149.917C163.815 148.586 163.333 144.984 166.417 142.73C169.501 140.475 168.947 135.867 173.701 136.722C178.455 137.576 178.926 135.753 181.741 134.895C184.556 134.038 186.135 137.834 187.935 137.544Z" fill="#131F2D"/>
<path d="M195.03 174.237L190.079 163.214L187.374 162.415C187.413 162.394 194.093 160.882 197.494 155.779C202.021 149.004 204.01 140.363 201.108 131.052L208.988 128.935C217.27 159.016 195.592 173.923 195.03 174.237Z" fill="#F9A38F"/>
<path d="M183.387 283.184C183.387 283.184 183.459 286.213 185.395 287.068C187.331 287.922 192.943 288.694 190.847 290.643C189.643 291.761 183.973 291.037 182.372 291.037C180.772 291.037 179.267 291.777 178.079 290.643C176.769 289.395 178.079 283.189 178.079 283.189C178.079 283.189 179.462 283.951 180.703 283.916C182.5 283.863 183.387 283.184 183.387 283.184Z" fill="#131F2D"/>
<path d="M158.342 280.171C158.342 280.171 157.304 282.995 158.782 284.574C160.26 286.152 165.155 289.155 162.51 290.097C160.992 290.63 156.023 287.656 154.547 287.004C153.072 286.352 151.413 286.418 150.728 284.874C149.975 283.189 153.445 277.99 153.445 277.99C153.445 277.99 154.441 279.258 155.599 279.734C157.269 280.437 158.342 280.171 158.342 280.171Z" fill="#131F2D"/>
<path d="M197.778 200.117C197.778 200.117 197.643 214.082 196.58 238.716C195.749 258.034 195.92 275.935 194.322 284.422C193.749 287.457 172.593 285.91 172.819 282.558L177.826 222.877L178.782 203.977L197.778 200.117Z" fill="#4D83FA"/>
<path d="M162.542 210.855C162.582 212.407 170.798 213.035 180.977 212.684C191.155 212.333 199.171 210.802 199.134 209.247C199.097 207.693 191.001 206.703 180.833 207.054C170.665 207.405 162.502 209.301 162.542 210.855Z" fill="#131F2D"/>
<path d="M186.196 210.453L167.402 284.414C166.5 287.481 145.855 278.869 146.414 275.611L163.813 212.652C163.885 212.262 164.062 211.899 164.323 211.6C164.585 211.301 164.921 211.078 165.299 210.954C169.341 209.719 186.593 207.421 186.196 210.453Z" fill="#4D83FA"/>
<path d="M164.825 167.513C164.825 167.513 172.814 162.074 182.996 162.937C197.14 164.135 196.612 166.903 199.134 209.255C199.134 209.255 182.822 203.74 162.516 210.826C162.526 210.818 161.602 188.226 164.825 167.513Z" fill="#657285"/>
<path d="M169.291 160.243L168.012 173.321C168.012 173.321 192.186 181.536 194.713 177.2C200.716 166.903 191.139 160.243 191.139 160.243C191.139 160.243 187.089 162.327 182.649 162.237C181.174 162.208 178.337 161.912 176.846 161.8C173.368 161.539 169.291 160.243 169.291 160.243Z" fill="#657285"/>
<path d="M175.466 252.891L175.102 252.808L180.838 226.931C181.846 223.561 184.053 220.677 187.043 218.823L187.235 219.142C184.328 220.946 182.182 223.751 181.2 227.027L175.466 252.891Z" fill="#020202"/>
<path d="M176.846 161.8C177.346 161.678 177.805 161.424 178.175 161.065C178.544 160.706 178.811 160.255 178.947 159.759L179.879 156.516L180.146 155.577L181.744 150.045L181.946 155.561L182.066 158.869L182.101 159.814C182.13 160.584 182.34 162.072 182.649 162.237C182.649 162.237 184.561 163.139 183.041 163.858C181.254 164.699 178.095 163.507 176.83 161.806L176.846 161.8Z" fill="#F9A38F"/>
<path d="M179.866 156.428C179.866 156.458 179.866 156.487 179.866 156.516C180.175 158.268 182.045 158.88 182.045 158.88L181.925 155.571C181.358 155.422 180.559 155.305 180.13 155.587C179.928 155.728 179.802 155.994 179.866 156.428Z" fill="#131F2D"/>
<path d="M182.622 157.246C185.311 157.012 187.244 153.978 186.939 150.469C186.634 146.96 184.207 144.304 181.519 144.537C178.83 144.77 176.897 147.804 177.202 151.314C177.506 154.823 179.933 157.479 182.622 157.246Z" fill="#F9A38F"/>
<path d="M185.115 154.687C183.987 154.818 182.845 154.755 181.738 154.501C181.738 154.501 181.781 156.25 183.603 156.154C184.631 156.098 185.115 154.687 185.115 154.687Z" fill="white"/>
<path d="M182.545 150.897C182.562 150.891 182.577 150.88 182.589 150.867C182.6 150.853 182.608 150.837 182.612 150.82C182.62 150.79 182.617 150.759 182.602 150.732C182.588 150.705 182.564 150.685 182.535 150.676C182.28 150.585 182.001 150.585 181.747 150.678C181.493 150.77 181.279 150.948 181.142 151.182C181.123 151.206 181.115 151.238 181.119 151.268C181.123 151.299 181.139 151.327 181.163 151.347C181.187 151.362 181.216 151.369 181.245 151.364C181.273 151.36 181.299 151.345 181.318 151.323C181.643 151.053 182.053 150.904 182.476 150.902C182.487 150.906 182.499 150.907 182.511 150.906C182.523 150.906 182.535 150.902 182.545 150.897Z" fill="#080435"/>
<path d="M181.808 152.286C181.829 152.553 182 152.779 182.191 152.763C182.383 152.747 182.524 152.497 182.503 152.23C182.482 151.964 182.308 151.735 182.117 151.751C181.925 151.767 181.787 152.007 181.808 152.286Z" fill="#080435"/>
<path d="M186.551 151.043C186.569 151.044 186.586 151.04 186.602 151.032C186.618 151.024 186.631 151.012 186.641 150.998C186.66 150.973 186.668 150.942 186.664 150.912C186.661 150.881 186.646 150.853 186.623 150.833C186.427 150.648 186.172 150.538 185.903 150.521C185.634 150.504 185.368 150.581 185.15 150.74C185.125 150.757 185.107 150.782 185.1 150.812C185.093 150.842 185.098 150.873 185.113 150.899C185.129 150.924 185.153 150.941 185.181 150.949C185.209 150.957 185.238 150.954 185.265 150.942C185.669 150.825 186.101 150.853 186.487 151.019C186.505 151.034 186.527 151.043 186.551 151.043Z" fill="#080435"/>
<path d="M185.368 152.028C185.288 152.294 185.368 152.56 185.555 152.627C185.741 152.694 185.951 152.523 186.031 152.254C186.08 152.15 186.088 152.031 186.054 151.921C186.02 151.811 185.947 151.717 185.848 151.658C185.664 151.597 185.451 151.762 185.368 152.028Z" fill="#080435"/>
<path d="M169.339 160.267C167.525 159.977 166.59 162.202 165.586 166.435C164.582 170.667 164.374 172.432 166.188 172.72C168.002 173.007 169.791 171.266 170.843 167.042C171.613 163.94 171.152 160.557 169.339 160.267Z" fill="#131F2D"/>
<path d="M166.614 210.616C166.614 210.616 184.956 205.947 197.598 210.448L194.466 212.367L182.822 213.065L166.614 210.616Z" fill="#4D83FA"/>
<path d="M177.405 152.409C178.015 152.901 178.79 152.867 179.136 152.334C179.483 151.802 179.275 150.971 178.665 150.471C178.055 149.97 177.283 150.013 176.934 150.545C176.585 151.078 176.798 151.919 177.405 152.409Z" fill="#F9A38F"/>
<path d="M183.959 146.164C183.959 146.164 183.901 147.993 182.058 148.027C182.058 148.027 182.257 149.515 180.433 149.329C180.433 149.329 180.67 150.322 179.413 150.559C179.413 150.559 178.995 151.592 177.522 151.139C176.05 150.686 175.024 147.745 176.396 146.031C177.767 144.316 181.557 142.671 183.954 143.635C186.351 144.599 188.082 149.616 187.504 149.968C186.926 150.319 185.557 150.149 185.373 149.017C185.373 149.017 184.111 148.631 184.351 147.42C184.143 147.029 184.01 146.603 183.959 146.164Z" fill="#131F2D"/>
<path d="M177.659 156.572H177.573C176.708 156.532 175.885 155.907 175.776 155.209C175.576 153.921 176.673 152.747 176.721 152.699C176.745 152.676 176.778 152.662 176.812 152.662C176.845 152.662 176.878 152.676 176.902 152.699C176.914 152.711 176.924 152.725 176.93 152.74C176.937 152.756 176.94 152.773 176.94 152.789C176.94 152.806 176.937 152.823 176.93 152.838C176.924 152.854 176.914 152.868 176.902 152.88C176.902 152.893 175.837 154.014 176.026 155.175C176.117 155.76 176.825 156.285 177.581 156.319C178.42 156.359 179.051 155.787 179.315 154.746C179.512 153.961 179.443 153.311 179.113 152.819C178.75 152.342 178.22 152.022 177.629 151.922C177.594 151.917 177.562 151.899 177.54 151.87C177.518 151.842 177.509 151.807 177.513 151.771C177.518 151.736 177.536 151.704 177.565 151.682C177.593 151.66 177.629 151.651 177.664 151.655C178.327 151.763 178.922 152.124 179.323 152.662C179.699 153.218 179.781 153.937 179.563 154.791C179.174 156.37 178.157 156.572 177.659 156.572Z" fill="#4D83FA"/>
<path d="M185.571 157.304C185.255 157.304 184.943 157.241 184.652 157.118C184.634 157.112 184.618 157.102 184.604 157.09C184.591 157.077 184.58 157.062 184.573 157.044C184.565 157.027 184.562 157.009 184.563 156.99C184.563 156.971 184.568 156.953 184.576 156.936C184.584 156.92 184.596 156.905 184.611 156.893C184.625 156.881 184.642 156.873 184.66 156.868C184.678 156.863 184.697 156.862 184.715 156.866C184.734 156.869 184.751 156.876 184.767 156.886C185.176 157.071 185.638 157.105 186.07 156.982C186.502 156.858 186.876 156.586 187.126 156.213C187.414 155.846 187.573 155.395 187.58 154.929C187.587 154.463 187.44 154.008 187.163 153.633C187.143 153.607 187.133 153.573 187.138 153.539C187.142 153.505 187.159 153.474 187.186 153.454C187.213 153.433 187.247 153.424 187.281 153.428C187.314 153.432 187.345 153.449 187.366 153.476C187.671 153.898 187.832 154.407 187.826 154.927C187.82 155.448 187.646 155.953 187.331 156.367C187.137 156.655 186.874 156.891 186.567 157.054C186.261 157.218 185.918 157.303 185.571 157.304Z" fill="#4D83FA"/>
<path d="M175.871 135.718C175.502 135.718 175.133 135.679 174.771 135.604C174.738 135.597 174.709 135.577 174.69 135.548C174.671 135.52 174.664 135.485 174.67 135.452C174.673 135.435 174.68 135.419 174.689 135.404C174.699 135.39 174.711 135.378 174.726 135.368C174.74 135.359 174.756 135.352 174.773 135.349C174.79 135.346 174.808 135.347 174.825 135.351C175.658 135.527 176.523 135.485 177.336 135.227C178.148 134.97 178.879 134.506 179.459 133.881C179.469 133.868 179.482 133.857 179.497 133.849C179.512 133.841 179.528 133.836 179.545 133.835C179.562 133.833 179.579 133.834 179.595 133.839C179.611 133.844 179.627 133.852 179.64 133.863C179.653 133.873 179.664 133.887 179.672 133.901C179.68 133.916 179.685 133.933 179.687 133.949C179.688 133.966 179.687 133.983 179.682 133.999C179.677 134.016 179.669 134.031 179.658 134.044C179.174 134.566 178.589 134.983 177.937 135.271C177.286 135.559 176.583 135.711 175.871 135.718Z" fill="#131F2D"/>
<path d="M196.73 141.748C196.714 141.75 196.697 141.75 196.682 141.748C195.181 141.058 193.883 139.996 192.911 138.662C191.209 136.309 189.355 136.66 188.636 136.919C187.486 137.337 186.57 136.495 186.532 136.458C186.52 136.446 186.511 136.432 186.504 136.417C186.498 136.401 186.495 136.384 186.495 136.368C186.495 136.351 186.498 136.334 186.504 136.319C186.511 136.303 186.52 136.289 186.532 136.277C186.557 136.254 186.59 136.24 186.624 136.24C186.658 136.24 186.691 136.254 186.716 136.277C186.716 136.277 187.555 137.046 188.556 136.684C189.331 136.402 191.323 136.022 193.129 138.516C194.078 139.806 195.336 140.838 196.788 141.516C196.817 141.526 196.841 141.547 196.856 141.574C196.871 141.6 196.875 141.632 196.869 141.661C196.863 141.691 196.847 141.718 196.822 141.737C196.798 141.756 196.768 141.765 196.738 141.763L196.73 141.748Z" fill="#131F2D"/>
<path d="M163.219 152.64C163.199 152.64 163.179 152.635 163.161 152.627C163.143 152.618 163.127 152.605 163.115 152.59C163.095 152.562 163.086 152.528 163.091 152.494C163.096 152.46 163.114 152.429 163.141 152.409C164.313 151.528 164.036 150.931 162.984 149.174C161.884 147.338 163.517 145.182 163.586 145.096C163.596 145.083 163.609 145.072 163.624 145.063C163.639 145.055 163.655 145.05 163.672 145.048C163.689 145.046 163.706 145.047 163.722 145.052C163.739 145.057 163.754 145.064 163.767 145.075C163.794 145.096 163.812 145.127 163.816 145.161C163.821 145.195 163.812 145.229 163.791 145.256C163.775 145.275 162.193 147.356 163.205 149.041C164.271 150.828 164.654 151.592 163.296 152.614C163.274 152.631 163.247 152.641 163.219 152.64Z" fill="#131F2D"/>
<path d="M162.59 162.346C162.573 162.346 162.555 162.343 162.539 162.336C162.523 162.329 162.509 162.319 162.497 162.306C162.485 162.294 162.476 162.28 162.469 162.265C162.463 162.249 162.459 162.232 162.459 162.216C162.459 162.199 162.463 162.182 162.469 162.167C162.476 162.151 162.485 162.137 162.497 162.125C163.922 160.794 162.851 159.463 162.803 159.397C162.782 159.37 162.772 159.336 162.776 159.302C162.779 159.268 162.796 159.237 162.822 159.215C162.835 159.205 162.85 159.197 162.866 159.192C162.883 159.187 162.9 159.185 162.916 159.187C162.933 159.189 162.95 159.194 162.964 159.202C162.979 159.21 162.992 159.221 163.003 159.234C163.361 159.689 163.527 160.266 163.465 160.841C163.403 161.417 163.119 161.945 162.673 162.314C162.65 162.334 162.621 162.345 162.59 162.346Z" fill="#764678"/>
<path d="M169.866 146.643C169.846 146.642 169.827 146.638 169.809 146.629C169.792 146.62 169.777 146.608 169.765 146.592C169.252 145.892 169.012 145.029 169.088 144.165C169.195 143.347 169.655 142.621 170.457 142.006C171.789 140.994 172.625 141.13 173.522 141.271C174.42 141.412 175.32 141.559 176.843 140.611C178.492 139.586 179.711 139.669 180.446 139.919C180.92 140.068 181.344 140.344 181.672 140.717C181.687 140.745 181.692 140.777 181.686 140.807C181.679 140.838 181.662 140.866 181.637 140.885C181.612 140.904 181.581 140.913 181.55 140.911C181.519 140.909 181.489 140.896 181.466 140.874C181.408 140.795 179.946 138.971 176.979 140.816C175.381 141.814 174.369 141.654 173.482 141.513C172.595 141.372 171.844 141.247 170.614 142.195C169.868 142.767 169.44 143.435 169.344 144.181C169.28 144.978 169.502 145.772 169.97 146.422C169.99 146.449 169.999 146.484 169.995 146.517C169.99 146.551 169.973 146.582 169.946 146.603C169.924 146.624 169.896 146.638 169.866 146.643Z" fill="white"/>
<path d="M193.686 155.097H193.664C193.648 155.095 193.632 155.089 193.617 155.08C193.603 155.071 193.59 155.06 193.581 155.046C193.571 155.033 193.564 155.017 193.56 155.001C193.556 154.984 193.555 154.967 193.558 154.951C193.739 153.849 193.182 153.62 192.263 153.266C191.816 153.103 191.385 152.9 190.974 152.659C190.639 152.454 190.476 152.26 190.466 152.049C190.447 151.751 190.732 151.517 191.07 151.251C191.526 150.886 192.042 150.473 192.008 149.797C191.962 148.943 191.531 148.882 190.881 148.786C190.39 148.752 189.915 148.592 189.504 148.32C188.91 147.87 188.892 147.282 188.892 146.805C188.892 146.329 188.857 146.078 188.455 146.025C187.315 145.876 186.988 144.569 186.974 144.513C186.966 144.48 186.972 144.446 186.989 144.417C187.007 144.388 187.035 144.367 187.068 144.359C187.101 144.351 187.136 144.357 187.165 144.375C187.195 144.393 187.216 144.421 187.225 144.455C187.225 144.455 187.526 145.645 188.487 145.786C189.126 145.868 189.14 146.347 189.15 146.81C189.161 147.274 189.174 147.753 189.683 148.118C190.061 148.362 190.496 148.507 190.945 148.538C191.608 148.634 192.234 148.724 192.277 149.789C192.319 150.588 191.723 151.072 191.246 151.456C190.98 151.671 190.713 151.876 190.735 152.041C190.735 152.158 190.873 152.307 191.124 152.449C191.52 152.683 191.937 152.879 192.37 153.034C193.302 153.402 194.04 153.692 193.827 154.999C193.819 155.03 193.801 155.056 193.775 155.075C193.749 155.093 193.717 155.101 193.686 155.097Z" fill="white"/>
<path d="M170.063 160.035C170.046 160.035 170.029 160.031 170.014 160.024C169.998 160.018 169.984 160.008 169.972 159.995C169.961 159.983 169.952 159.968 169.946 159.952C169.94 159.936 169.937 159.919 169.938 159.902C169.959 158.883 169.123 158.167 168.383 157.538C167.791 157.033 167.28 156.599 167.317 156.082C167.333 155.76 167.562 155.454 168.018 155.143C168.7 154.677 169.099 154.131 169.203 153.524C169.275 152.964 169.141 152.397 168.827 151.927C168.807 151.9 168.799 151.866 168.804 151.832C168.809 151.799 168.827 151.769 168.854 151.749C168.882 151.728 168.916 151.72 168.95 151.725C168.984 151.73 169.014 151.748 169.035 151.775C169.395 152.301 169.546 152.943 169.456 153.575C169.341 154.256 168.905 154.858 168.162 155.366C167.778 155.632 167.586 155.872 167.573 156.106C167.554 156.495 168.018 156.905 168.558 157.352C169.301 157.988 170.228 158.776 170.202 159.918C170.2 159.935 170.196 159.951 170.188 159.966C170.18 159.981 170.17 159.995 170.157 160.006C170.144 160.017 170.129 160.025 170.113 160.03C170.097 160.035 170.08 160.037 170.063 160.035Z" fill="white"/>
<path d="M152.292 142.751C153.61 138.111 155.948 132.822 156.02 132.673L162.385 137.134L158.191 135.468L162.793 136.157C161.509 139.224 158.388 149.409 161.315 155.127C162.572 157.581 164.798 159.213 168.106 160.102C168.349 160.168 168.573 160.289 168.762 160.456C168.951 160.622 169.099 160.83 169.195 161.063C170.055 163.21 170.187 165.579 169.571 167.808C168.721 170.798 167.072 170.798 167.072 170.798C160.902 169.339 147.136 160.898 152.292 142.751Z" fill="#F9A38F"/>
<path d="M205.576 120.326C204.09 120.108 206.13 124.176 206.13 124.176C206.13 124.176 204.463 121.029 203.219 120.686C202.226 120.42 203.265 123.545 203.728 124.831H203.693C203.132 123.614 201.683 120.704 200.652 120.75C199.488 120.803 201.342 124.94 201.675 125.682C197.736 118.695 198.57 124.455 200.199 127.908C199.4 127.687 196.282 129.031 196.09 129.505C195.872 130.037 198.575 130.506 199.137 130.639C200.511 130.966 201.371 131.997 201.773 133.426C201.93 133.982 209.134 130.165 209.134 130.165C209.034 128.661 208.76 127.174 208.319 125.733C208.299 125.564 208.257 125.397 208.197 125.238C208.117 125.028 208.018 124.745 207.901 124.439C207.337 122.901 206.413 120.452 205.576 120.326Z" fill="#F9A38F"/>
<path d="M201.941 128.927C202.778 129.17 203.646 129.287 204.517 129.274C205.646 129.191 206.115 130.29 206.115 130.29L201.941 128.927Z" fill="#F9A38F"/>
<path d="M159.4 124.777C160.878 124.575 158.809 128.595 158.809 128.595C158.809 128.595 160.497 125.485 161.738 125.158C162.726 124.892 161.661 127.998 161.187 129.271H161.221C161.794 128.068 163.264 125.195 164.284 125.251C165.44 125.315 163.557 129.404 163.219 130.139C167.214 123.241 166.313 128.954 164.66 132.367C165.459 132.156 167.136 131.919 167.323 132.383C167.536 132.915 165.917 133.98 165.416 134.265C164.26 134.917 162.236 136.676 161.07 137.305C160.564 137.571 155.765 134.507 155.765 134.507C155.88 133.014 156.167 131.539 156.62 130.112C156.644 129.944 156.687 129.78 156.747 129.622C156.827 129.414 156.931 129.135 157.048 128.824C157.624 127.317 158.569 124.892 159.4 124.777Z" fill="#F9A38F"/>
<path d="M156.891 98.6234C156.891 98.6234 141.932 98.9668 140.512 101.171C138.944 103.607 139.926 121.357 144.273 131.739C146.72 137.595 149.01 137.504 152.134 136.53L165.874 132.202L156.891 98.6234Z" fill="#364154"/>
<path d="M155.437 99.3633C156.42 98.4103 165.256 94.4174 168.22 87.3844C171.416 79.811 168.732 69.0034 174.447 68.7878C179.989 68.5775 183.768 88.6196 183.986 89.8308C183.989 89.8459 183.998 89.8592 184.011 89.8677C184.024 89.8762 184.04 89.8792 184.055 89.876C185.174 89.6311 199.768 86.7934 204.389 88.7181C209.539 90.8636 207.121 96.4671 207.121 96.4671C208.692 96.5869 215.246 98.9853 209.856 106.665C209.85 106.674 209.846 106.684 209.844 106.695C209.842 106.706 209.842 106.717 209.844 106.727C209.847 106.738 209.851 106.748 209.857 106.757C209.863 106.766 209.871 106.774 209.88 106.78C210.988 107.706 216.804 111.723 208.671 117.31C208.671 117.31 213.481 122.578 207.366 125.919C201.252 129.26 168.692 133.639 165.877 132.18C159.064 128.645 151.165 103.497 155.437 99.3633Z" fill="#4D83FA"/>
<path d="M121.591 271.676C121.591 271.676 116.962 266.914 118.555 264.201C120.147 261.489 122.845 270.029 122.845 270.029C122.845 270.029 121.452 259.932 124.339 259.756C127.226 259.58 124.339 270.029 124.339 270.029C124.339 270.029 125.404 267.593 126.454 267.441C127.503 267.289 127.199 269.509 125.335 271.676H121.591Z" fill="#EAEAEA"/>
<path d="M121.921 271.796C121.019 270.835 120.209 269.792 119.5 268.682C118.019 266.32 117.668 264.446 118.453 263.113C118.744 262.615 119.095 262.383 119.497 262.431C120.296 262.522 121.22 263.762 122.286 266.211C122.605 266.946 122.887 267.681 123.111 268.288C122.845 265.639 122.56 260.366 124.009 258.598C124.142 258.421 124.312 258.275 124.507 258.169C124.702 258.064 124.917 258.001 125.138 257.986C125.336 257.968 125.535 258 125.717 258.079C125.899 258.159 126.058 258.283 126.179 258.441C127.484 260.038 126.312 265.78 125.665 268.463C126.147 267.665 126.826 266.805 127.529 266.706C127.673 266.675 127.823 266.692 127.956 266.754C128.089 266.816 128.198 266.92 128.267 267.05C128.693 267.824 128.115 269.81 126.403 271.788L126.137 271.567C127.812 269.621 128.267 267.787 127.95 267.215C127.915 267.146 127.858 267.09 127.787 267.059C127.716 267.027 127.636 267.021 127.561 267.042C126.664 267.172 125.62 269.131 125.292 269.877L124.973 269.762C124.973 269.741 125.612 267.433 126.038 264.91C126.592 261.609 126.547 259.447 125.905 258.654C125.817 258.54 125.701 258.45 125.569 258.392C125.437 258.335 125.292 258.312 125.149 258.326C124.974 258.339 124.805 258.389 124.652 258.473C124.499 258.557 124.366 258.673 124.262 258.814C122.429 261.047 123.599 269.698 123.612 269.784L123.282 269.858C122.677 267.939 120.81 262.937 119.447 262.769C119.18 262.74 118.957 262.908 118.736 263.286C117.015 266.214 122.102 271.506 122.155 271.559L121.921 271.796Z" fill="#364154"/>
</svg>
