<svg width="410" height="300" fill="none" xmlns="http://www.w3.org/2000/svg"><path d="M293.228 71.144c.521-1.957.782-3.974.778-6 0-9.423-5.461-17.064-12.196-17.064a8.963 8.963 0 00-2.867.478C277.848 23.051 266.673 3 253.048 3c-12.966 0-23.733 18.194-25.683 41.957-9.655 6.555-16.272 19.971-16.272 35.459 0 7.385 1.496 14.296 4.126 20.22-8.959 5.516-14.666 13.838-14.666 23.147 0 16.612 18.17 30.08 40.584 30.08 16.776 0 31.168-7.546 37.357-18.309 1.74.413 3.521.621 5.309.621 15.255 0 27.62-15.007 27.62-33.515.01-14.498-7.578-26.845-18.195-31.516z" fill="#D5D6DA"/><path d="M293.228 71.144s-26.87-10.468-47.354 7.976c-20.484 18.443-34.729-10.643-27.892-24.144-4.294 6.892-6.88 15.76-6.88 25.44 0 7.382 1.497 14.296 4.127 20.22-8.959 5.516-14.667 13.838-14.667 23.147 0 16.612 18.171 30.081 40.584 30.081 16.777 0 31.169-7.547 37.358-18.309a23.03 23.03 0 005.309.62c15.255 0 27.62-15.006 27.62-33.515 0-14.498-7.588-26.845-18.205-31.516z" fill="#B8C1C9"/><path d="M261.643 268.144c-1.057 0-1.915-.284-1.915-1.341V59.542a1.915 1.915 0 013.83 0v207.261c0 1.057-.858 1.341-1.915 1.341z" fill="#131F2D"/><path d="M261.643 133.159c-5.431 0-10.026-1.934-13.654-5.75-10.151-10.667-9.176-32.463-9.129-33.398a1.912 1.912 0 113.822.192c0 .21-.935 21.088 8.084 30.562 2.918 3.065 6.483 4.553 10.877 4.553a1.915 1.915 0 010 3.829v.012zm.267 43.393c-.127 0-.249 0-.384-.013a1.912 1.912 0 11.234-3.818c.731.045 1.461-.269 2.227-.955 2.366-2.118 6.852-9.573 10.343-35.698 2.017-15.109 2.71-29.198 2.718-29.338a1.912 1.912 0 012.002-1.785 1.912 1.912 0 011.823 1.967c0 .142-.708 14.394-2.743 29.659-1.202 9.003-2.631 16.605-4.239 22.596-2.117 7.866-4.518 12.918-7.341 15.453-1.443 1.281-2.999 1.932-4.64 1.932z" fill="#131F2D"/><path d="M140.222 296.856s-4.629-4.762-3.036-7.478c1.593-2.715 4.28 5.83 4.28 5.83s-1.393-10.099 1.494-10.275c2.887-.176 0 10.275 0 10.275s1.065-2.438 2.114-2.587c1.05-.149.746 2.065-1.121 4.235h-3.731z" fill="#EAEAEA"/><path d="M140.552 296.973a21.222 21.222 0 01-2.423-3.114c-1.478-2.359-1.83-4.233-1.047-5.569.293-.498.645-.73 1.047-.682.799.091 1.72 1.331 2.788 3.78.32.735.602 1.47.823 2.077-.266-2.662-.548-7.922.9-9.687a1.547 1.547 0 011.13-.615 1.183 1.183 0 011.041.455c1.305 1.597.13 7.339-.514 10.022.482-.785 1.161-1.658 1.864-1.757a.675.675 0 01.738.344c.426.774-.152 2.76-1.864 4.738l-.267-.221c1.675-1.946 2.131-3.78 1.814-4.352a.347.347 0 00-.165-.156.347.347 0 00-.227-.017c-.894.13-1.938 2.09-2.266 2.835l-.32-.115c0-.021.64-2.329 1.066-4.852.554-3.299.508-5.463-.133-6.256a.844.844 0 00-.759-.327 1.212 1.212 0 00-.887.489c-1.83 2.231-.661 10.882-.647 10.97l-.333.075c-.602-1.922-2.469-6.937-3.833-7.092-.266-.029-.49.139-.711.517-1.72 2.928 3.367 8.22 3.417 8.273l-.232.237z" fill="#364154"/><path d="M214.423 272.477s-4.628-4.762-3.036-7.474c1.593-2.713 4.28 5.827 4.28 5.827s-1.393-10.097 1.494-10.273c2.887-.176 0 10.273 0 10.273s1.065-2.436 2.115-2.588c1.049-.151.745 2.066-1.122 4.235h-3.731z" fill="#EAEAEA"/><path d="M214.754 272.597a21.262 21.262 0 01-2.421-3.114c-1.481-2.361-1.832-4.235-1.047-5.569.291-.5.642-.729 1.044-.684.799.093 1.723 1.331 2.789 3.783.319.732.601 1.466.823 2.076-.267-2.662-.549-7.922.9-9.69a1.546 1.546 0 011.129-.612 1.182 1.182 0 011.041.453c1.305 1.61.133 7.341-.514 10.022.482-.783 1.161-1.656 1.864-1.757a.679.679 0 01.738.346c.426.775-.152 2.758-1.864 4.738l-.266-.22c1.675-1.949 2.13-3.781 1.813-4.355a.341.341 0 00-.389-.171c-.897.128-1.941 2.09-2.269 2.835l-.319-.114c0-.024.639-2.33 1.065-4.853.554-3.301.509-5.465-.133-6.256a.852.852 0 00-.759-.33 1.205 1.205 0 00-.884.49c-1.833 2.233-.663 10.882-.65 10.97l-.33.075c-.605-1.92-2.472-6.938-3.835-7.092-.267-.027-.49.141-.711.516-1.723 2.929 3.366 8.223 3.416 8.277l-.231.236z" fill="#364154"/><path d="M238.144 294.497s-4.628-4.762-3.036-7.474c1.593-2.713 4.28 5.827 4.28 5.827s-1.393-10.1 1.494-10.276c2.887-.175 0 10.276 0 10.276s1.065-2.439 2.115-2.588c1.049-.149.745 2.066-1.119 4.235h-3.734z" fill="#EAEAEA"/><path d="M238.474 294.615a21.17 21.17 0 01-2.42-3.112c-1.479-2.361-1.833-4.235-1.047-5.572.29-.498.644-.727 1.044-.681.799.093 1.723 1.331 2.788 3.78.32.734.602 1.469.826 2.076-.267-2.649-.551-7.919.897-9.687a1.56 1.56 0 011.129-.615 1.186 1.186 0 011.042.455c1.305 1.598.133 7.34-.512 10.023.48-.799 1.159-1.656 1.865-1.757a.672.672 0 01.737.343c.426.775-.151 2.761-1.864 4.741l-.266-.223c1.675-1.946 2.13-3.778 1.813-4.353a.34.34 0 00-.388-.173c-.898.131-1.942 2.09-2.269 2.835l-.32-.111c0-.024.642-2.332 1.065-4.856.557-3.298.509-5.462-.133-6.256a.845.845 0 00-.756-.327 1.205 1.205 0 00-.887.49c-1.83 2.231-.661 10.882-.65 10.97l-.33.074c-.605-1.922-2.472-6.937-3.832-7.091-.267-.029-.493.138-.714.516-1.721 2.928 3.366 8.22 3.419 8.274l-.237.237z" fill="#364154"/><path d="M337.297 274.224s-4.629-4.762-3.036-7.475c1.592-2.713 4.28 5.827 4.28 5.827s-1.393-10.099 1.494-10.275c2.886-.176 0 10.275 0 10.275s1.065-2.438 2.114-2.587c1.049-.149.746 2.065-1.118 4.235h-3.734z" fill="#EAEAEA"/><path d="M337.627 274.341a21.245 21.245 0 01-2.421-3.112c-1.48-2.361-1.832-4.235-1.046-5.571.29-.498.644-.727 1.044-.682.799.093 1.723 1.331 2.788 3.78.32.735.602 1.47.826 2.077-.267-2.662-.552-7.92.897-9.687a1.547 1.547 0 011.129-.615 1.185 1.185 0 011.042.455c1.305 1.597.133 7.339-.512 10.022.48-.785 1.159-1.655 1.865-1.757a.672.672 0 01.737.344c.426.777-.152 2.76-1.864 4.738l-.266-.221c1.675-1.946 2.13-3.777 1.813-4.352a.343.343 0 00-.163-.156.342.342 0 00-.225-.017c-.898.13-1.942 2.089-2.269 2.835l-.32-.115c0-.021.642-2.329 1.065-4.852.554-3.299.509-5.463-.133-6.256a.856.856 0 00-.756-.328 1.22 1.22 0 00-.887.49c-1.83 2.231-.661 10.882-.65 10.97l-.33.075c-.605-1.922-2.472-6.937-3.835-7.092-.266-.029-.49.139-.711.517-1.721 2.928 3.366 8.22 3.419 8.273l-.237.237z" fill="#364154"/><path d="M23.674 288.689s-3.792-3.902-2.49-6.123c1.302-2.22 3.507 4.776 3.507 4.776s-1.14-8.273 1.225-8.417c2.365-.144 0 8.417 0 8.417s.877-1.996 1.734-2.13c.858-.133.61 1.691-.919 3.461l-3.057.016z" fill="#EAEAEA"/><path d="M23.943 288.777a17.53 17.53 0 01-1.984-2.553c-1.212-1.933-1.5-3.461-.858-4.563.24-.407.533-.596.855-.559.666.075 1.414 1.089 2.288 3.099.266.602.492 1.203.674 1.701-.208-2.172-.45-6.49.735-7.938a1.278 1.278 0 01.926-.503.968.968 0 01.852.372c1.066 1.331.11 6.014-.418 8.213.392-.645.951-1.358 1.521-1.44a.552.552 0 01.605.282c.346.633-.125 2.26-1.521 3.881l-.21-.181c1.371-1.597 1.744-3.096 1.486-3.567a.284.284 0 00-.32-.141c-.735.106-1.598 1.714-1.864 2.324l-.267-.094c.022-.074 2.056-7.509.765-9.101a.701.701 0 00-.276-.214.702.702 0 00-.345-.052.989.989 0 00-.727.399c-1.5 1.829-.532 8.918-.532 8.99l-.267.061c-.495-1.573-2.024-5.683-3.14-5.811-.213-.021-.404.114-.585.423-1.41 2.396 2.759 6.735 2.801 6.78l-.194.192z" fill="#364154"/><path d="M261.982 279.785s-3.792-3.903-2.487-6.123c1.305-2.22 3.507 4.776 3.507 4.776s-1.142-8.274 1.223-8.417c2.365-.144 0 8.417 0 8.417s.876-1.997 1.733-2.13c.858-.133.61 1.691-.918 3.461l-3.058.016z" fill="#EAEAEA"/><path d="M262.251 279.883a17.633 17.633 0 01-1.984-2.553c-1.211-1.932-1.499-3.46-.857-4.562.239-.407.532-.596.857-.559.663.074 1.412 1.089 2.285 3.098.267.602.493 1.201.674 1.701-.208-2.172-.45-6.49.738-7.938a1.275 1.275 0 01.924-.503.982.982 0 01.855.373c1.065 1.331.106 6.013-.421 8.212.394-.644.951-1.357 1.521-1.44a.553.553 0 01.604.282c.349.634-.125 2.26-1.52 3.881l-.211-.181c1.372-1.597 1.745-3.096 1.486-3.567a.267.267 0 00-.319-.141c-.735.107-1.598 1.714-1.865 2.324l-.266-.093c.019-.075 2.053-7.51.762-9.101a.702.702 0 00-.621-.267 1.003 1.003 0 00-.724.402c-1.5 1.829-.533 8.918-.533 8.99l-.266.058c-.495-1.57-2.024-5.68-3.14-5.808-.21-.024-.402.114-.583.423-1.412 2.396 2.759 6.735 2.799 6.78l-.195.189z" fill="#364154"/><path d="M42.002 18.636h2.469l-.024-.192-.743-6.559a.423.423 0 00-.418-.37.369.369 0 00-.078 0 .654.654 0 00-.578.588l-.628 6.533z" fill="#657285"/><path d="M44.23 17.148h.089l-.615-5.265a.423.423 0 00-.419-.37.383.383 0 00-.077 0 .647.647 0 00-.242.5l-.035 3.785a1.33 1.33 0 001.3 1.35zm.957 30.672h-4.76v209.356h4.76V47.819z" fill="#657285"/><path d="M45.187 47.82H42.99v209.356h2.197V47.819z" fill="#657285"/><path d="M50.386 223.769H35.229v55.393h15.157v-55.393z" fill="#657285"/><path d="M50.388 223.769h-9.033v55.393h9.033v-55.393zM34.526 21.796c0 2.587 3.9 4.682 8.709 4.682.367 0 .73 0 1.084-.034 4.298-.288 7.627-2.258 7.627-4.648 0-2.39-3.329-4.358-7.627-4.645a16.044 16.044 0 00-1.084-.038c-4.812 0-8.709 2.098-8.709 4.683z" fill="#657285"/><path d="M35.248 51.948h15.156l5.342-25.635H30.723l4.525 25.635z" fill="#657285"/><path d="M57.1 24.38H29.372v2.46h27.726v-2.46zm-9.196 199.389H38.22l1.417-4.291a.933.933 0 01.884-.637h4.528a1.22 1.22 0 011.123.748l1.732 4.18z" fill="#657285"/><path d="M38.979 21.572h.064c.152-1.988 2.28-3.679 5.276-4.421 4.162.266 7.414 2.13 7.616 4.421h1.401l1.982 2.809h1.77v2.46h-17.42v-2.46h-2.577l1.888-2.809z" fill="#657285"/><path d="M53.957 27.562H32.585l4.173 23.042H49.03l4.927-23.042z" fill="#D5D6DA"/><path d="M51.368 22.073s-1.627-3.544-4.842-3.437c0 0 2.046 1.816 1.865 3.437-.181 1.62 2.977 0 2.977 0z" fill="#657285"/><path d="M31.144 24.38h24.184l-1.981-2.808H33.024l-1.88 2.809z" fill="#657285"/><path d="M52.537 28.366H47.64l-1.428 21.519h1.428l4.897-21.52z" fill="#EDF2FE"/><path d="M204.586 267.393h3.052v-20.321c0-3.707 1.473-7.261 4.095-9.882a13.985 13.985 0 0119.773 0 13.971 13.971 0 014.095 9.882v20.321h3.052v-20.321c0-4.515-1.794-8.845-4.988-12.038a17.038 17.038 0 00-24.085 0 17.022 17.022 0 00-4.989 12.038l-.005 20.321zm-87.584-23.745a1.53 1.53 0 001.526-1.525v-38.066a1.526 1.526 0 00-3.052 0v38.066a1.525 1.525 0 001.526 1.525z" fill="#364154"/><path d="M211.047 243.648a1.525 1.525 0 001.526-1.525v-38.066a1.526 1.526 0 00-3.052 0v38.066a1.525 1.525 0 001.526 1.525z" fill="#364154"/><path d="M111.215 237.547h107.6a2.407 2.407 0 002.408-2.406v-4.582a2.407 2.407 0 00-2.408-2.406h-107.6a2.406 2.406 0 00-2.407 2.406v4.582a2.406 2.406 0 002.407 2.406zm2.974 6.485h120.466a1.912 1.912 0 001.91-1.909 1.91 1.91 0 00-1.91-1.911H114.189v3.82zm-3.749-17.567h107.6a2.407 2.407 0 002.408-2.406v-4.582a2.407 2.407 0 00-2.408-2.406h-107.6a2.407 2.407 0 00-2.407 2.406v4.582a2.407 2.407 0 002.407 2.406zm-1.044-11.484h107.6a2.407 2.407 0 002.408-2.406v-4.581a2.408 2.408 0 00-2.408-2.407h-107.6a2.407 2.407 0 00-2.407 2.407v4.581a2.407 2.407 0 002.407 2.406z" fill="#B8C1C9"/><path d="M112.584 267.393h3.052v-20.321a13.974 13.974 0 0113.982-13.976 13.974 13.974 0 0113.981 13.976v20.321h3.052v-20.321a17.022 17.022 0 00-17.029-17.237 17.035 17.035 0 00-15.795 10.657 17.005 17.005 0 00-1.235 6.58l-.008 20.321z" fill="#364154"/><path d="M239.849 163.232c.729-1.312 2.719 2.782 2.719 2.782s-1.478-3.237-1.002-4.435c.389-.953 2.243 1.779 2.983 2.928l.032-.021c-.626-1.184-2.051-4.105-1.39-4.893.751-.891 2.905 3.096 3.294 3.812-3.15-7.376.914-3.207 2.663.187.309-.762 3.276-2.423 3.763-2.292.56.152-.719 2.579-.953 3.106-.578 1.289-.285 2.598.607 3.788.346.464-7.068 3.852-7.068 3.852a19.588 19.588 0 01-3.025-3.341 2.201 2.201 0 01-.317-.402c-.117-.189-.282-.441-.466-.726-.866-1.382-2.251-3.607-1.84-4.345z" fill="#F9A38F"/><path d="M268.062 160.246s-7.19 13.576-9.35 11.795c-2.16-1.781-5.638-5.803-5.638-5.803s-7.856 3.314-8.682 6.612c0 0 6.773 13.912 17.75 13.773 10.978-.138 13.028-22.981 13.028-22.981l-7.108-3.396z" fill="#4D83FA"/><path d="M327.174 204.93a23.847 23.847 0 00-2.069-5.09s-7.044.04-7.385.657c-.799 1.427-1.702 4.59-2.461 6.03-.328.625-1.289 2.8-.711 3.21.506.354 2.093-1.017 2.769-1.757.584 4.616 3.508 11.088 2.997 1.331h.016c.143.983.942 6.448 2.183 5.742 1.095-.625.687-4.56.469-6.178h.043c.367 1.624 1.35 5.526 2.2 4.597 1.065-1.163.721-5.489.721-5.489s.562 5.516 1.958 4.323c.95-.815-.205-5.22-.533-6.769a2.628 2.628 0 00-.197-.607z" fill="#F9A38F"/><path d="M311.398 200.285c-.04 1.597-9.755 2.225-21.769 1.863-12.014-.362-21.617-2.021-21.572-3.615.046-1.595 9.71-2.529 21.724-2.156 12.013.372 21.67 2.313 21.617 3.908z" fill="#131F2D"/><path d="M308.468 155.169s-2.13-8.353-17.801-8.438c-22.604-.123-20.506 20.481-22.605 51.794 0 0 13.708-5.675 43.346 1.759-.01 0 1.968-32.353-2.94-45.115z" fill="#4D83FA"/><path d="M314.255 153.971l-10.24 5.612s-22.903 5.012-28.855 4.038c-5.952-.974-7.098-3.383-7.098-3.383s6.339-11.423 17.111-13.159a33.66 33.66 0 013.151-.356 31.156 31.156 0 015.446.109c13.654 1.533 20.485 7.139 20.485 7.139z" fill="#4D83FA"/><path d="M292.822 144.819l-1.182-3.788-.344-1.102-2.027-6.484-.266 6.45-.16 3.87-.05 1.227c-.035.831-.533 1.007-1.167 1.728-.266.293-1.864 2.071-.034 2.872 2.279.999 6.543-.513 8.165-2.497-.013-.002-2.551-1.051-2.935-2.276zm24.456 58.215c-.943-10.294-3.106-25.022-8.054-36.663-1.145-2.699-1.624-3.727-2.519-5.188-.719-1.188.57-3.794 2.602-5.037 1.909-1.168 4.879-.977 5.35-.399.799.982 1.651 2.864 2.978 5.856 4.612 10.382 7.374 23.798 8.492 41.093l-8.849.338z" fill="#F9A38F"/><path d="M284.057 131.009a8.472 8.472 0 000 3.538c.413 1.967 2.432-2.87 2.432-2.87l-2.432-.668z" fill="#131F2D"/><path d="M295.347 136.663c.521-3.803-1.633-7.239-4.811-7.674-3.179-.435-6.178 2.295-6.699 6.098-.521 3.803 1.633 7.239 4.811 7.674 3.178.435 6.177-2.295 6.699-6.098z" fill="#F9A38F"/><path d="M289.272 135.572a.122.122 0 01-.037-.038.11.11 0 01-.016-.05.115.115 0 01.106-.125 1.277 1.277 0 011.358.766.116.116 0 01.006.089.13.13 0 01-.023.039.122.122 0 01-.036.027.125.125 0 01-.157-.051 2.03 2.03 0 00-1.127-.639.12.12 0 01-.074-.018zm.511 1.498c-.074.267-.293.445-.49.392a.456.456 0 01-.228-.247.454.454 0 01.007-.336c.072-.266.293-.445.49-.392a.452.452 0 01.221.583zm-4.868-1.844a.075.075 0 01-.039-.021.07.07 0 01-.022-.038.133.133 0 01.045-.157.824.824 0 011.201.136.132.132 0 01.027.081.132.132 0 01-.027.081.08.08 0 01-.026.026.078.078 0 01-.034.013.074.074 0 01-.036-.003 1.24 1.24 0 00-1.03-.132.084.084 0 01-.059.014zm1.076 1.197c.034.267-.101.533-.304.533-.202 0-.394-.179-.429-.455-.034-.277.099-.533.301-.546.203-.013.397.202.432.468z" fill="#080435"/><path d="M299.208 134.81s-1.941 4.156-4.695 4.462c0 0 2.226-3.168-2.466-5.101 0 0 4.309-.676 7.161.639z" fill="#131F2D"/><path d="M295.325 137.102a1.207 1.207 0 01-1.672-.266 1.167 1.167 0 01-.143-.442 1.17 1.17 0 01.249-.876c.097-.123.218-.225.355-.3a1.204 1.204 0 011.672.266c.077.136.126.286.144.442a1.197 1.197 0 01-.249.877 1.191 1.191 0 01-.356.299z" fill="#F9A38F"/><path d="M292.047 134.172s.376 3.489-.341 4.15c-.716.66-5.441.942-7.648.095a4.569 4.569 0 003.784 4.59 6.727 6.727 0 002.256 0c1.544-.267 3.046-.903 3.683-2.324.192-.432-.37-3.091-.37-3.091s-.213-1.562.703-2.374c0-.006-1.058-.948-2.067-1.046z" fill="#131F2D"/><path d="M292.047 134.171s.386-2.438-1.54-2.611c-1.925-.173-4.127-.495-4.884 0-.756.495-1.659 2.441-1.659 2.441s-1.065-3.657.879-5.223c1.944-1.565 8.117-3.623 12.061-.899 3.944 2.723 2.304 6.921 2.304 6.921s-2.815-.842-7.161-.629z" fill="#131F2D"/><path d="M294.721 127.879s2.905-2.38 2.248-4.142c-.658-1.763-3.729-1.204-4.922-.927-1.193.277-1.39 2.38-.437 3.727.954 1.347 3.111 1.342 3.111 1.342zm-4.477 149.19a3.644 3.644 0 00-3.374 1.848 3.033 3.033 0 01-1.473 1.368c-2.099.865-8.176 1.651-5.904 3.626 1.302 1.137 7.457.402 9.18.402 1.723 0 3.363.75 4.652-.402.773-.69.703-2.872.48-4.717a2.457 2.457 0 00-.912-1.636 2.444 2.444 0 00-1.802-.512 4.286 4.286 0 01-.61.034l-.237-.011zm21.42-.729s-.078 3.075-2.176 3.943c-2.099.867-8.176 1.65-5.904 3.628 1.302 1.136 7.456.402 9.18.402 1.723 0 3.363.75 4.652-.402 1.417-1.267 0-7.571 0-7.571s-1.497.772-2.844.737c-1.934-.047-2.908-.737-2.908-.737z" fill="#131F2D"/><path d="M274.566 198.98a2.035 2.035 0 00-1.814 1.773c-.229 1.863-.266 5.827.866 14.034 1.661 12.059 7.944 56.056 8.988 61.921.375 2.097.799 3.388 3.867 3.83l4.072-.08c3.313.479 4.588-3.05 4.612-5.308l-2.663-67.777 10.594-8.017a150.631 150.631 0 00-16.892-.999c-3.885.012-7.767.219-11.63.623z" fill="#364154"/><path d="M284.534 201.214l23.351 74.405a7.514 7.514 0 007.025 5.302l1.404.024a5.3 5.3 0 004.108-1.906 5.284 5.284 0 001.133-4.384l-12.783-69.912c-.187-.83-.661-4.504-1.468-4.735-4.37-1.254-23.199-1.872-22.77 1.206z" fill="#364154"/><path d="M294.971 234.472l-5.02-15.144a14.381 14.381 0 00-6.541-8.002l.195-.34a14.775 14.775 0 016.716 8.225l5.023 15.142-.373.119z" fill="#020202"/><path d="M300.745 148.623s2.437-2.233-.493-3.021c-1.158-.311-2.884-3.146-4.495-2.902-1.611.245-2.562 9.243-9.028 12.027 0 0-1.598 1.374.998 1.313 2.597-.062 13.018-7.417 13.018-7.417z" fill="#0B40B3"/><path d="M286.728 154.727s-3.235-3.157-2.663-6.104c.573-2.946-1.081-5.465-1.883-4.134-.801 1.331-1.728.503-1.912 2.172-.183 1.67 2.315 9.868 4.581 9.868 2.266 0 1.877-1.802 1.877-1.802zm.733.621s2.091.931 1.316 3.141c-.775 2.209.309 3.101.309 3.101s-2.536.122-2.842-2.244a5.28 5.28 0 011.217-3.998z" fill="#0B40B3"/><path d="M286.273 155.348s-2.663.897-2.77 2.611c-.106 1.714 1.407 2.13 1.942 1.102.535-1.027 1.646-3.019 1.646-3.019l-.818-.694z" fill="#0B40B3"/><path d="M293.781 140.683s-.019 2.396-1.734 3.745c-1.715 1.35-.58 2.521-2.09 4.435-1.511 1.914.287 1.954-2.397 3.346-2.685 1.392-4.688.131-4.163-1.999.525-2.13-1.795-1.565-.7-4.259 1.094-2.694 1.893-1.044.969-3.913-.924-2.87.381-3.615.381-3.615s1.478.101 2.663.314c1.185.213 2.266-.163 3.097.104.831.266 3.974 1.842 3.974 1.842z" fill="#131F2D"/><path d="M285.224 139.677c1.238.299 2.517.399 3.787.295 0 0-.291 1.818-2.291 1.456-1.155-.213-1.496-1.751-1.496-1.751z" fill="#fff"/><path d="M326.128 198.98s-6.102.65-9.263 0c0 0-.41 1.597.25 2.348 0 0 7.311.548 9.013 0 0 0 1.249-1.208 0-2.348z" fill="#131F2D"/><path d="M322.162 202.662h.112a2.184 2.184 0 002.184-2.183v-.41a2.183 2.183 0 00-2.184-2.183h-.112a2.183 2.183 0 00-2.184 2.183v.41c0 1.205.978 2.183 2.184 2.183z" fill="#131F2D"/><path d="M314.255 153.971s5.172 3.035 10.205 22.979c5.034 19.943 1.249 20.305 1.249 20.305s-6.788.131-8.972-.641c-2.184-.772-3.35-18.634-7.704-25.912-4.355-7.278-5.913-18.397 5.222-16.731z" fill="#4D83FA"/><path d="M285.434 169.014c.425 0 .77-.342.77-.764a.767.767 0 00-.77-.764.766.766 0 00-.769.764c0 .422.344.764.769.764zm0 9.317c.425 0 .77-.342.77-.764a.767.767 0 00-.77-.764.766.766 0 00-.769.764c0 .422.344.764.769.764zm0 11.04c.425 0 .77-.343.77-.764a.767.767 0 00-.77-.764.766.766 0 00-.769.764c0 .421.344.764.769.764z" fill="#131F2D"/><path d="M251.945 131.366s9.084-6.477 10.919-5.795c2.026.756 9.371 11.792 11.417 19.933 1.153 4.584-.251 5.558-2.557 6.364l-10.128 3.551-9.651-24.053z" fill="#364154"/><path d="M253.141 131.23c-1.012-.13-8.072 1.432-12.981-1.438-5.291-3.095-8.522-10.749-12.029-8.326-3.404 2.35 3.3 16.004 3.71 16.826a.047.047 0 01.004.017.032.032 0 01-.002.017.038.038 0 01-.009.015.056.056 0 01-.015.01c-.777.354-10.759 5.172-12.658 8.388-2.13 3.583 1.83 5.856 1.83 5.856-.884.772-3.729 5.132 2.929 7.31a.064.064 0 01.034.033.069.069 0 01.004.047c-.248 1.049-1.928 6.045 5.427 5.747 0 0-.516 5.295 4.626 4.56 5.143-.735 26.547-12.66 27.575-14.793 2.487-5.169-4.046-23.707-8.445-24.269z" fill="#0B40B3"/><path d="M269.053 182.771h-.205c.328-6.122 2.285-16.999 2.304-17.108l.202.037c-.018.098-1.973 10.967-2.301 17.071zm42.48-5.946c-.868-3.754-3.44-9.24-3.462-9.296l.189-.088c.024.056 2.608 5.561 3.479 9.338l-.206.046z" fill="#131F2D"/><path d="M109.385 156c4.938 2.366 10.299 14.044 10.299 14.044s-6.083 3.094-6.392 3.195c-.309.101-12.165-12.541-12.165-12.541s6.117-5.726 8.258-4.698z" fill="#F9A38F"/><path d="M95.947 274.956s.152 2.912 2.147 3.681c1.994.77 7.723 1.358 5.651 3.291-1.199 1.11-6.996.569-8.629.615-1.632.045-3.145.798-4.386-.267-1.366-1.166-.195-7.187-.195-7.187s1.428.697 2.696.628c1.816-.072 2.716-.761 2.716-.761z" fill="#131F2D"/><path d="M110.594 186.495s.749 13.151-2.77 38.509c-2.543 18.306-5.627 36.767-7.147 45.618a6.874 6.874 0 01-6.27 5.753l-1.685.111c-3.39.229-6.227-2.614-6.072-6.085l2.663-59.682.532-19.632 20.749-4.592z" fill="#657285"/><path d="M77.246 275.459s.152 2.928 2.147 3.684c1.995.756 7.736 1.358 5.651 3.288-1.198 1.11-6.996.569-8.629.615-1.632.045-3.145.798-4.386-.267-1.366-1.163-.194-7.187-.194-7.187s1.427.695 2.695.628c1.822-.085 2.716-.761 2.716-.761z" fill="#131F2D"/><path d="M91.902 187.001s.748 13.148-2.773 38.506c-2.54 18.306-5.624 36.767-7.145 45.621a6.869 6.869 0 01-6.269 5.75l-1.686.114c-3.39.227-6.226-2.614-6.072-6.088l2.663-59.679.533-19.635 20.749-4.589z" fill="#657285"/><path d="M69.35 202.041c.085 1.598 9.707 1.957 21.571 1.268 11.865-.69 21.319-2.588 21.236-4.177-.082-1.589-9.667-2.26-21.537-1.568-11.87.692-21.353 2.891-21.27 4.477z" fill="#131F2D"/><path d="M71.046 157.014s1.864-8.38 17.372-8.881c22.347-.724 20.831 19.859 23.742 50.999 0 0-22.104-2.518-42.832 2.518 0-.008-2.793-31.789 1.718-44.636z" fill="#4D83FA"/><path d="M65.294 155.973l10.272 5.324s22.219 1.414 28.078.288c5.859-1.127 7.355-5.492 7.355-5.492s-6.442-6.312-17.14-7.754a30.704 30.704 0 00-3.124-.267 30.65 30.65 0 00-5.382.267c-13.46 1.868-20.06 7.634-20.06 7.634z" fill="#4D83FA"/><path d="M86.237 146.286l1.065-3.806.312-1.108 1.827-6.514.437 6.418.266 3.855.083 1.219c.055.828.567.988 1.2 1.69.267.285 1.902 2.013.112 2.862-2.229 1.065-6.484-.338-8.138-2.271.008-.002 2.49-1.115 2.836-2.345z" fill="#F9A38F"/><path d="M110.328 200.468s-12.972-3.439-39.49 2.476l-.103 3.838 39.117.328.476-6.642z" fill="#657285"/><path d="M65.089 156.213c-.823 1.24 1.046 3.971 4.17 6.104 3.124 2.132 6.323 2.853 7.143 1.613.82-1.241-1.047-3.972-4.157-6.104-3.111-2.132-6.336-2.854-7.156-1.613zm28.131-24.975c.477 1.091.72 2.27.711 3.46 0 2.002-2.93-2.318-2.93-2.318l2.219-1.142z" fill="#131F2D"/><path d="M91.111 143.623c3-1.038 4.417-4.81 3.165-8.425-1.252-3.615-4.698-5.704-7.697-4.666-3 1.037-4.417 4.809-3.165 8.424 1.251 3.615 4.698 5.704 7.697 4.667z" fill="#F9A38F"/><path d="M82.876 137.041l2.663-.841a2.022 2.022 0 001.286-1.193c.379-.987.96-1.576 3.521-2.002 3.241-.532 4.972-2.893 4.975-4.647.003-1.755-1.886-2.617-3.332-1.467s-1.169-1.001-2.767-.894c-2.985.199-3.07 2.547-5.462 2.965-3.137.532-8.237 4.059-4.46 9l3.576-.921z" fill="#131F2D"/><path d="M89.084 136.732a.11.11 0 00.035-.098.11.11 0 00-.042-.078.105.105 0 00-.086-.023 1.261 1.261 0 00-1.161 1.017.113.113 0 00-.003.045c.002.015.007.03.014.044a.115.115 0 00.071.054.127.127 0 00.141-.082c.22-.381.559-.678.965-.847a.112.112 0 00.066-.032zm-.194 1.555c.127.247.375.373.554.282a.533.533 0 00-.456-.897.45.45 0 00-.098.615zm4.346-2.761a.082.082 0 00.05-.069.14.14 0 00-.077-.146.81.81 0 00-.648-.06.81.81 0 00-.487.432.143.143 0 00-.01.085.135.135 0 00.04.075.091.091 0 00.03.022.087.087 0 00.035.007.087.087 0 00.036-.007.092.092 0 00.03-.022 1.224 1.224 0 01.972-.306.06.06 0 00.029-.011zm-.799 1.382c.021.266.203.49.402.474.2-.016.347-.266.325-.532-.021-.267-.202-.49-.402-.474-.2.016-.346.255-.325.532z" fill="#080435"/><path d="M79.305 137.962s2.716 3.674 5.446 3.423c0 0-2.794-2.662 1.366-5.467 0 0-4.309.199-6.812 2.044z" fill="#131F2D"/><path d="M83.529 139.432a1.13 1.13 0 001.157-.391 1.12 1.12 0 00.118-1.215 1.124 1.124 0 00-2.047.115 1.191 1.191 0 00.772 1.491z" fill="#F9A38F"/><path d="M86.117 135.918s.336 3.479 1.161 3.979c.826.501 5.462-.159 7.43-1.424a4.54 4.54 0 01-2.756 5.234 6.574 6.574 0 01-2.186.439c-1.55.048-3.132-.266-4.035-1.533-.266-.384-.266-3.094-.266-3.094s-.11-1.565-1.159-2.174c.016 0 .852-1.132 1.811-1.427zm5.223-9.197a.855.855 0 01-.818-.573l.15-.045c0 .024.196.604.931.429l.038.151a1.28 1.28 0 01-.301.038z" fill="#131F2D"/><path d="M91.079 131.917l-.037-.07c.565-.312 1.1-.676 1.597-1.088.714-.597 1.54-1.504 1.425-2.439-.064-.505-.215-.82-.463-.958-.4-.221-.988.051-1.507.288l-.232.106-.032-.072.231-.104c.533-.247 1.143-.532 1.577-.284.266.151.437.484.503 1.016.232 1.845-2.929 3.533-3.062 3.605zm-8.522-2.047v-.08c3.435-.234 4.66-2.441 4.674-2.465l.066.037c-.016.024-1.26 2.268-4.74 2.508zm7.531 10.813s2.184.13 3.443-.645c-.008-.005-.94 3.365-3.443.645z" fill="#fff"/><path d="M94.275 171.152s-14.523-3.607-16.472-1.864c-2.155 1.941-5.883 19.321-4.424 30.483.82 6.285 3.05 6.806 6.325 6.679l14.381-.559.19-34.739z" fill="#364154"/><path d="M92.677 171.482c1.2-.66 10.775-2.186 15.481-8.18 5.078-6.466 5.326-17.599 10.919-16.305 5.401 1.256 3.763 21.586 3.659 22.813a.06.06 0 00.002.023.06.06 0 00.029.033.059.059 0 00.022.005c1.143.059 15.979 1.161 19.921 4.236 4.405 3.423.596 8.196.596 8.196 1.484.532 7.175 4.565-.05 10.555a.092.092 0 000 .119c.828 1.182 5.385 6.592-3.939 9.85 0 0 3.251 6.349-3.526 7.962-6.778 1.613-39.365-2.739-41.695-4.888-5.646-5.217-6.629-31.555-1.42-34.419z" fill="#0B40B3"/><path d="M65.294 193.986s1.707-8.106 2.349-8.276c1.475-.397 4.56-.519 6.04-.886.644-.16 2.841-.546 3.084.072.21.532-1.393 1.677-2.221 2.129 4.072 1.565 9.48 4.922.532 3.021v.016c.863.352 6.317 2.308 5.907 3.583-.311.969-5.475-.705-6.9-1.267l-.021.038c1.4.697 5.696 2.217 5.233 3.3-.394.924-6.392-1.064-6.392-1.064s4.794 2.116 3.683 2.76c-1.014.591-5.555-1.264-6.924-1.823-1.414-.586-4.37-1.603-4.37-1.603z" fill="#F9A38F"/><path d="M107.132 160.735c-.703-2.297-2.929-5.148-2.961-5.177l.2-.157c.021.029 2.287 2.928 3.004 5.26l-.243.074zM88.56 230.658l-.254-.035c.016-.109 1.457-10.885 2.544-14.755 1.086-3.871 6.143-7.278 6.194-7.31l.141.21c-.05.035-5.02 3.354-6.09 7.169-1.071 3.815-2.52 14.622-2.536 14.721z" fill="#131F2D"/><path d="M129.218 169.296s2.511.344 2.2 2.244c-.397 2.425-2.514 3.879-2.757 2.785-.048-.216.338-2.508.338-2.508s-2.221 4.715-3.254 3.959c-1.033-.756.948-4.792.948-4.792s-2.69 4.403-3.398 3.437c-.709-.967 1.065-4.64 1.065-4.64s-2.346 4.432-3.137 3.293c-.791-1.14.985-3.211 1.491-4.238.48-.972 1.396-1.006 2.501-.519 0 0 1.414-.043 2.048.426.242.178.629.061.844.117.38.12.751.266 1.111.436zm-77.711 8.58c4.961-11.612 13.569-20.588 13.718-20.763 0 0 1.656-1.39 4.607.873 5.35 4.102 5.06 6.572 5.06 6.572s-12.024 15.953-13.486 18.333c-.975 1.581-11.308-1.717-9.9-5.015z" fill="#F9A38F"/><path d="M69.973 185.332s-5.859-2.819-10.152-8.348c-2.48-3.194-8.314.892-8.314.892s-2.956 5.422.554 10.025c3.235 4.243 13.233 6.085 13.233 6.085l4.68-8.654z" fill="#F9A38F"/><path d="M63.134 180.644a.087.087 0 01-.042-.008.091.091 0 01-.035-.024c-2.267-2.427-5.883-2.43-5.915-2.427a.135.135 0 01-.04-.006.1.1 0 01-.064-.095.103.103 0 01.101-.104c.038 0 3.742 0 6.07 2.491a.105.105 0 01.031.074.105.105 0 01-.031.073.111.111 0 01-.035.021.09.09 0 01-.04.005z" fill="#E59562"/><path d="M353.542 173.345l-1.502-11.979 1.894-2.095c-.046 0-6.539 2.18-12.107-.407-7.391-3.437-13.582-9.785-15.945-19.249l-7.827 2.279c8.573 30 34.845 31.478 35.487 31.451z" fill="#F9A38F"/><path d="M316.505 132.766c1.153-.958 1.529 3.578 1.529 3.578s-.216-3.557.668-4.496c.706-.748 1.449 2.467 1.724 3.809h.037c-.155-1.331-.429-4.568.474-5.058 1.022-.562 1.598 3.937 1.691 4.744-.266-8.015 2.016-2.662 2.418 1.136.562-.598 3.931-1.064 4.336-.777.466.344-1.598 2.146-2.014 2.553-1.004.993-1.201 2.319-.799 3.748.155.559-7.989 1.038-7.989 1.038a19.678 19.678 0 01-1.598-4.208 2.142 2.142 0 01-.149-.487c-.043-.221-.104-.514-.173-.847-.322-1.608-.807-4.193-.155-4.733z" fill="#F9A38F"/><path d="M357.292 282.22s-.077 3.088-2.184 3.961c-2.106.874-8.213 1.656-5.933 3.642 1.31 1.142 7.481.405 9.222.405 1.742 0 3.377.753 4.671-.405 1.425-1.272 0-7.605 0-7.605s-1.502.777-2.854.742c-1.945-.05-2.922-.74-2.922-.74zm24.203-.002s-.077 3.09-2.184 3.961c-2.106.87-8.216 1.658-5.933 3.644 1.31 1.139 7.48.405 9.222.405 1.742 0 3.377.753 4.671-.405 1.425-1.272 0-7.605 0-7.605s-1.502.777-2.855.742c-1.949-.05-2.921-.742-2.921-.742z" fill="#131F2D"/><path d="M341.63 197.527s-.389 12.932 3.771 37.739c3.004 17.91 6.551 35.958 8.29 44.609a6.784 6.784 0 006.357 5.481l1.67.067a5.687 5.687 0 005.859-6.139l-4.221-58.534-1.041-19.265-20.685-3.958z" fill="#4D83FA"/><path d="M379.692 208.907c-.192 1.573-9.164 1.384-20.149 0-10.986-1.384-19.535-3.727-19.343-5.324.192-1.597 9.055-1.765 20.038-.386s19.646 4.137 19.454 5.71z" fill="#131F2D"/><path d="M354.243 206.764l23.452 74.738a7.551 7.551 0 007.054 5.324l1.409.024a5.33 5.33 0 005.191-3.988 5.324 5.324 0 00.077-2.329l-12.831-70.221a2.322 2.322 0 00-1.619-1.73c-4.397-1.264-23.167-4.909-22.733-1.818z" fill="#4D83FA"/><path d="M381.188 203.628l-5.326-6.123c.096-.058 10.533-6.596 9.534-15.905-.532-4.85-3.462-8.755-8.716-11.601a30.391 30.391 0 00-8.339-2.981l1.252-7.949a37.91 37.91 0 0110.818 3.828c7.608 4.115 12.059 10.281 12.868 17.835.655 6.099-1.494 12.163-6.216 17.537-3.379 3.85-3.227 4.081-5.875 5.359z" fill="#F9A38F"/><path d="M376.025 165.881s-3.108-8.694-14.238-8.313c-11.129.38-19.507 14.886-21.587 46.028 0 0 18.202-3.958 39.527 5.279 0 0 1.179-30.302-3.702-42.994z" fill="#657285"/><path d="M384.754 164.039l-8.788 6.317s-23.337 8.444-27.641 5.084c-7.148-5.59-3.161-15.972-3.161-15.972s3.744.36 13.79-1.546c.94-.173 1.89-.29 2.844-.352a27.78 27.78 0 014.919.107c9.598 1.027 18.037 6.362 18.037 6.362z" fill="#657285"/><path d="M384.755 164.039c.476.684-1.106 2.662-3.537 4.398-2.432 1.735-4.794 2.606-5.263 1.921-.468-.684 1.108-2.662 3.537-4.397 2.429-1.736 4.786-2.606 5.263-1.922z" fill="#131F2D"/><path d="M366.685 157.674a3.297 3.297 0 01-2.693-1.956l-1.483-3.413-.429-.99-2.53-5.825.44 6.035.266 3.626.075 1.032a1.65 1.65 0 01-1.369 1.736h-.016c-.45.727-1.065 2.201.799 2.787 2.181.69 5.71-1.014 6.977-3.032h-.037zm13.473 37.124s-3.294-2.989-5.894-2.726c-2.599.264-5.72 2.551-4.074 2.726 1.646.176 3.813-.175 3.813-.175s-4.594.969-3.899 1.935c.696.966 4.68.088 4.68.088s-5.375 1.584-4.421 2.286c.953.703 5.028-.532 5.028-.532s-4.94 1.672-3.814 2.462c1.127.791 4.075-1.405 4.767-.439.693.966 1.995 4.752 4.94 3.168l-1.126-8.793z" fill="#F9A38F"/><path d="M364.725 240.166l-5.044-15.21a14.46 14.46 0 00-6.568-8.037l.192-.34a14.815 14.815 0 016.748 8.252l5.044 15.208-.372.127z" fill="#020202"/><path d="M377.58 170.476s-.487-1.454 1.72-3.07c2.208-1.616 5.068-1.967 5.068-1.967l.581 2.771-3.121 1.353-4.248.913z" fill="#F9A38F"/><path d="M366.43 144.495s-.235.993.338 3.021c.841 2.971-2.581 4.211-3.462 3.365-.11-.107.034-5.159.034-5.159l1.095-.644 1.995-.583zm-3.9 7.712v.098c-.144 1.946-2.242 2.856-2.242 2.856l-.267-3.625c.642-.232 1.556-.471 2.091-.211.248.126.418.4.418.882z" fill="#131F2D"/><path d="M359.276 153.452c3.158 0 5.718-3.133 5.718-6.998s-2.56-6.998-5.718-6.998-5.718 3.133-5.718 6.998 2.56 6.998 5.718 6.998z" fill="#F9A38F"/><path d="M357.01 141.085c.16.213-.741 3.814 5.981 4.674 6.722.86 2.685-7.233-2.274-7.416-7.164-.266-8.205 4.525-7.518 6.234.687 1.709 3.811-3.492 3.811-3.492z" fill="#131F2D"/><path d="M367.372 136.658s-3.02 2.004-.698 3.892c2.322 1.887 8.714 2.71 6.97 5.893-1.745 3.184-3.252 7.898-.115 8.487 3.137.588 5.111.354 6.392 2.829 1.281 2.476 6.969.943 6.503-2.004-.466-2.947 4.413-5.54 2.322-8.252-2.09-2.713-7.19-5.058-8.479-8.606-1.289-3.549-10.456-3.772-12.895-2.239zm-5.108 7.954s2.749 2.872 1.795 5.811c0 0 1.598-1.728 1.63-2.372.032-.644-.389-2.973-.389-2.973l-3.036-.466z" fill="#131F2D"/><path d="M364.23 147.511c-.65.612-1.556.676-2.024.141-.469-.535-.325-1.47.322-2.082.647-.612 1.553-.676 2.024-.141.471.535.325 1.467-.322 2.082z" fill="#F9A38F"/><path d="M385.029 158.72a.106.106 0 01-.05 0c-.799-.309-1.292-.702-1.471-1.2-.266-.754.195-1.579.69-2.452.432-.767.882-1.557.773-2.268-.126-.838-1.239-1.035-2.416-1.243-.991-.176-2.019-.357-2.423-.988a1.38 1.38 0 01-.112-1.126c.128-.495.287-.939.442-1.368.66-1.847 1.182-3.306-1.737-6.655-3.747-4.286-6.847-4.491-9.64-4.078-.328.05-1.156.471-1.151.849 0 .192.267.676 2.693.977a7.992 7.992 0 015.078 4.443c.871 1.938-.367 4.009-1.361 5.675-.668 1.116-1.243 2.079-1.065 2.726a.939.939 0 00.509.572 9.956 9.956 0 002.173.767c1.891.509 3.846 1.033 4.091 4.411a.13.13 0 01.002.059.118.118 0 01-.023.054.13.13 0 01-.1.057.138.138 0 01-.108-.04.136.136 0 01-.038-.109c-.231-3.194-1.928-3.644-3.893-4.171a10.107 10.107 0 01-2.232-.799 1.204 1.204 0 01-.639-.74c-.211-.758.394-1.767 1.092-2.928 1.012-1.696 2.16-3.618 1.347-5.425a7.68 7.68 0 00-4.876-4.275c-1.952-.242-2.911-.65-2.929-1.243-.019-.594 1.022-1.065 1.382-1.118 2.868-.429 6.053-.219 9.883 4.166 3.025 3.46 2.479 4.986 1.789 6.921-.154.423-.309.862-.436 1.347a1.103 1.103 0 00.077.91c.343.533 1.31.703 2.245.868 1.22.216 2.479.437 2.636 1.469.123.799-.348 1.635-.798 2.441-.451.807-.898 1.598-.672 2.229.152.417.581.758 1.316 1.038a.133.133 0 01.079.058.137.137 0 01-.032.181.14.14 0 01-.095.027v-.019zm-21.984-15.083a4.94 4.94 0 01-3.923-2.158.126.126 0 01-.024-.051.132.132 0 01.019-.108.135.135 0 01.199-.029.151.151 0 01.035.044c0 .018 1.265 1.98 3.699 2.031a.135.135 0 01.109.133.135.135 0 01-.109.133l-.005.005z" fill="#fff"/><path d="M374.038 194.721l-.066-.181c.053-.019 1.331-.482 2.021.013l-.112.157c-.618-.444-1.832.011-1.843.011zm.78 2.015l-.069-.178c.051-.021 1.27-.49 2.381 0l-.077.175c-1.039-.457-2.221-.002-2.235.003zm.608 1.76l-.07-.181c.064-.024 1.561-.57 2.264.016l-.122.149c-.618-.517-2.059.01-2.072.016z" fill="#E9845C"/><path d="M341.827 205.007s5.105-.706 12.783-.144c7.41.574 14.756 1.778 21.961 3.599l-3.779.634-23.604.926-4.751-3.865-2.61-1.15z" fill="#4D83FA"/><path d="M356.118 150.982a12.504 12.504 0 003.907-.636s.162 1.911-1.953 2.039c-1.23.074-1.954-1.403-1.954-1.403z" fill="#E9633E"/><path d="M356.118 150.982s.474.389 1.576.386c1.103-.003 2.331-1.022 2.331-1.022s-2.355.641-3.907.636z" fill="#fff"/><path d="M358.722 146.523a.143.143 0 01-.053-.028.142.142 0 01-.035-.049.13.13 0 01.075-.168 1.418 1.418 0 011.683.373.142.142 0 01.028.041c.006.016.01.033.01.049a.134.134 0 01-.038.091.141.141 0 01-.184 0 2.225 2.225 0 00-1.398-.311.155.155 0 01-.088.002zm1.028 1.416c0 .309-.163.565-.389.57-.226.005-.415-.234-.426-.533-.011-.298.165-.564.391-.569.227-.005.416.226.424.532zm-5.67-.745c-.02.002-.04 0-.059-.006a.136.136 0 01-.079-.073.134.134 0 01-.01-.049.122.122 0 01.039-.09 1.409 1.409 0 011.699-.293.13.13 0 01.067.17.161.161 0 01-.075.064.153.153 0 01-.099.003 2.23 2.23 0 00-1.411.239.117.117 0 01-.072.035zm1.497.924a.497.497 0 01-.144.673c-.205.091-.474-.061-.602-.343a.5.5 0 01-.066-.366.5.5 0 01.207-.308.506.506 0 01.605.344z" fill="#080435"/><path d="M345.859 173.21a.193.193 0 01-.048 0 .143.143 0 01-.075-.072.139.139 0 01-.002-.104 66.072 66.072 0 013.044-6.352.16.16 0 01.033-.041.135.135 0 01.1-.03.15.15 0 01.051.015c.015.009.029.02.041.034a.132.132 0 01.03.099.15.15 0 01-.015.051 65.227 65.227 0 00-3.031 6.322.136.136 0 01-.128.078z" fill="#131F2D"/><path d="M347.351 96.174s14.327-4.312 16.359-2.662c2.248 1.83 6.823 19.007 5.913 30.227-.512 6.317-2.714 6.948-5.99 6.98l-14.402.146-1.88-34.69z" fill="#364154"/><path d="M348.967 96.425c-1.23-.6-10.868-1.656-15.864-7.411-5.388-6.21-6.19-17.303-11.692-15.751-5.326 1.52-2.703 21.743-2.538 22.965a.058.058 0 01-.001.022.052.052 0 01-.028.035.051.051 0 01-.021.007c-1.14.114-15.891 1.937-19.689 5.204-4.232 3.636-.195 8.215-.195 8.215-1.454.599-6.942 4.911.568 10.541a.086.086 0 01.03.056.088.088 0 01-.017.061c-.767 1.225-5.06 6.849 4.416 9.634 0 0-2.93 6.5 3.912 7.781 6.841 1.28 39.164-4.651 41.388-6.921 5.385-5.479 5.076-31.832-.269-34.438z" fill="#4D83FA"/><path d="M187.935 137.544s2.93-1.179 4.831 1.597c1.902 2.777 1.737 1.161 4.669 4.318 2.932 3.157-1.84 4.792-.836 7.454s3.35 2.811 2.642 6.317c-.709 3.505-3.526 2.299-3.383 4.525.144 2.225 1.702 4.259-.847 4.762-2.548.503-3.297.37-4.743 3.602-1.446 3.232-5.989.399-9.419 1.749-3.43 1.349-12.341.846-12.911-1.158-.57-2.005-7.516-3.104-4.136-8.731 1.864-3.096-1.02-2.372-1.441-6.416-.344-3.311 4.059-2.683 2.253-5.646-.799-1.331-1.281-4.933 1.803-7.187 3.084-2.255 2.53-6.863 7.284-6.008 4.754.854 5.225-.969 8.04-1.827 2.815-.857 4.394 2.939 6.194 2.649z" fill="#131F2D"/><path d="M195.03 174.237l-4.951-11.023-2.705-.799c.039-.021 6.719-1.533 10.12-6.636 4.527-6.775 6.516-15.416 3.614-24.727l7.88-2.117c8.282 30.081-13.396 44.988-13.958 45.302z" fill="#F9A38F"/><path d="M183.387 283.184s.072 3.029 2.008 3.884c1.936.854 7.548 1.626 5.452 3.575-1.204 1.118-6.874.394-8.475.394-1.6 0-3.105.74-4.293-.394-1.31-1.248 0-7.454 0-7.454s1.383.762 2.624.727c1.797-.053 2.684-.732 2.684-.732zm-25.045-3.013s-1.038 2.824.44 4.403c1.478 1.578 6.373 4.581 3.728 5.523-1.518.533-6.487-2.441-7.963-3.093-1.475-.652-3.134-.586-3.819-2.13-.753-1.685 2.717-6.884 2.717-6.884s.996 1.268 2.154 1.744c1.67.703 2.743.437 2.743.437z" fill="#131F2D"/><path d="M197.778 200.117s-.135 13.965-1.198 38.599c-.831 19.318-.66 37.219-2.258 45.706-.573 3.035-21.729 1.488-21.503-1.864l5.007-59.681.956-18.9 18.996-3.86z" fill="#4D83FA"/><path d="M162.542 210.855c.04 1.552 8.256 2.18 18.435 1.829 10.178-.351 18.194-1.882 18.157-3.437-.037-1.554-8.133-2.544-18.301-2.193s-18.331 2.247-18.291 3.801z" fill="#131F2D"/><path d="M186.196 210.453l-18.794 73.961c-.902 3.067-21.547-5.545-20.988-8.803l17.399-62.959a2.211 2.211 0 011.486-1.698c4.042-1.235 21.294-3.533 20.897-.501z" fill="#4D83FA"/><path d="M164.825 167.513s7.989-5.439 18.171-4.576c14.144 1.198 13.616 3.966 16.138 46.318 0 0-16.312-5.515-36.618 1.571.01-.008-.914-22.6 2.309-43.313z" fill="#657285"/><path d="M169.291 160.243l-1.279 13.078s24.174 8.215 26.701 3.879c6.003-10.297-3.574-16.957-3.574-16.957s-4.05 2.084-8.49 1.994c-1.475-.029-4.312-.325-5.803-.437-3.478-.261-7.555-1.557-7.555-1.557z" fill="#657285"/><path d="M175.466 252.891l-.364-.083 5.736-25.877a14.393 14.393 0 016.205-8.108l.192.319a14.016 14.016 0 00-6.035 7.885l-5.734 25.864z" fill="#020202"/><path d="M176.846 161.8a2.895 2.895 0 002.101-2.041l.932-3.243.267-.939 1.598-5.532.202 5.516.12 3.308.035.945c.029.77.239 2.258.548 2.423 0 0 1.912.902.392 1.621-1.787.841-4.946-.351-6.211-2.052l.016-.006z" fill="#F9A38F"/><path d="M179.866 156.428v.088c.309 1.752 2.179 2.364 2.179 2.364l-.12-3.309c-.567-.149-1.366-.266-1.795.016-.202.141-.328.407-.264.841z" fill="#131F2D"/><path d="M182.622 157.246c2.689-.234 4.622-3.268 4.317-6.777-.305-3.509-2.732-6.165-5.42-5.932-2.689.233-4.622 3.267-4.317 6.777.304 3.509 2.731 6.165 5.42 5.932z" fill="#F9A38F"/><path d="M185.115 154.687a9.961 9.961 0 01-3.377-.186s.043 1.749 1.865 1.653c1.028-.056 1.512-1.467 1.512-1.467z" fill="#fff"/><path d="M182.545 150.897a.112.112 0 00.044-.03.121.121 0 00.023-.047.117.117 0 00-.01-.088.113.113 0 00-.067-.056 1.16 1.16 0 00-1.393.506.116.116 0 00-.023.086c.004.031.02.059.044.079a.12.12 0 00.155-.024c.325-.27.735-.419 1.158-.421a.082.082 0 00.035.004.078.078 0 00.034-.009zm-.737 1.389c.021.267.192.493.383.477.192-.016.333-.266.312-.533-.021-.266-.195-.495-.386-.479-.192.016-.33.256-.309.535zm4.743-1.243a.1.1 0 00.051-.011.107.107 0 00.039-.034.117.117 0 00.023-.086.12.12 0 00-.041-.079 1.155 1.155 0 00-1.473-.093.12.12 0 00-.037.159c.016.025.04.042.068.05a.122.122 0 00.084-.007 1.815 1.815 0 011.222.077.1.1 0 00.064.024zm-1.183.985c-.08.266 0 .532.187.599.186.067.396-.104.476-.373a.462.462 0 00-.183-.596c-.184-.061-.397.104-.48.37z" fill="#080435"/><path d="M169.339 160.267c-1.814-.29-2.749 1.935-3.753 6.168-1.004 4.232-1.212 5.997.602 6.285 1.814.287 3.603-1.454 4.655-5.678.77-3.102.309-6.485-1.504-6.775z" fill="#131F2D"/><path d="M166.614 210.616s18.342-4.669 30.984-.168l-3.132 1.919-11.644.698-16.208-2.449z" fill="#4D83FA"/><path d="M177.405 152.409c.61.492 1.385.458 1.731-.075.347-.532.139-1.363-.471-1.863-.61-.501-1.382-.458-1.731.074-.349.533-.136 1.374.471 1.864z" fill="#F9A38F"/><path d="M183.959 146.164s-.058 1.829-1.901 1.863c0 0 .199 1.488-1.625 1.302 0 0 .237.993-1.02 1.23 0 0-.418 1.033-1.891.58-1.472-.453-2.498-3.394-1.126-5.108 1.371-1.715 5.161-3.36 7.558-2.396 2.397.964 4.128 5.981 3.55 6.333-.578.351-1.947.181-2.131-.951 0 0-1.262-.386-1.022-1.597a3.546 3.546 0 01-.392-1.256z" fill="#131F2D"/><path d="M177.659 156.572h-.086c-.865-.04-1.688-.665-1.797-1.363-.2-1.288.897-2.462.945-2.51a.133.133 0 01.091-.037c.033 0 .066.014.09.037a.125.125 0 01.028.139.12.12 0 01-.028.042c0 .013-1.065 1.134-.876 2.295.091.585.799 1.11 1.555 1.144.839.04 1.47-.532 1.734-1.573.197-.785.128-1.435-.202-1.927a2.358 2.358 0 00-1.484-.897.135.135 0 01-.064-.24.135.135 0 01.099-.027 2.588 2.588 0 011.659 1.007c.376.556.458 1.275.24 2.129-.389 1.579-1.406 1.781-1.904 1.781zm7.912.732c-.316 0-.628-.063-.919-.186a.144.144 0 01-.048-.028.133.133 0 01-.031-.046.11.11 0 01-.01-.054.126.126 0 01.048-.097.127.127 0 01.104-.027c.019.003.036.01.052.02a1.9 1.9 0 002.359-.673 2.131 2.131 0 00.037-2.58.125.125 0 01-.025-.094.123.123 0 01.048-.085.13.13 0 01.18.022 2.43 2.43 0 01-.035 2.891 2.123 2.123 0 01-1.76.937z" fill="#4D83FA"/><path d="M175.871 135.718c-.369 0-.738-.039-1.1-.114a.129.129 0 01-.081-.056.13.13 0 01-.001-.144.13.13 0 01.084-.055.13.13 0 01.052.002 4.93 4.93 0 004.634-1.47.118.118 0 01.086-.046.12.12 0 01.05.004.13.13 0 01.092.11.14.14 0 01-.005.05.122.122 0 01-.024.045 5.223 5.223 0 01-3.787 1.674zm20.859 6.03a.193.193 0 01-.048 0 9.653 9.653 0 01-3.771-3.086c-1.702-2.353-3.556-2.002-4.275-1.743-1.15.418-2.066-.424-2.104-.461a.142.142 0 01-.028-.041.141.141 0 010-.098.134.134 0 01.028-.042.137.137 0 01.092-.037c.034 0 .067.014.092.037 0 0 .839.769 1.84.407.775-.282 2.767-.662 4.573 1.832a9.569 9.569 0 003.659 3 .126.126 0 01.081.145.125.125 0 01-.131.102l-.008-.015zm-33.511 10.892a.144.144 0 01-.058-.013.14.14 0 01-.046-.037.132.132 0 01-.024-.096.13.13 0 01.05-.085c1.172-.881.895-1.478-.157-3.235-1.1-1.836.533-3.992.602-4.078a.135.135 0 01.038-.033.134.134 0 01.098-.011.129.129 0 01.094.109.125.125 0 01-.025.095c-.016.019-1.598 2.1-.586 3.785 1.066 1.787 1.449 2.551.091 3.573a.12.12 0 01-.077.026z" fill="#131F2D"/><path d="M162.59 162.346a.125.125 0 01-.093-.04.142.142 0 01-.028-.041.143.143 0 01-.01-.049.134.134 0 01.038-.091c1.425-1.331.354-2.662.306-2.728a.13.13 0 01-.027-.095.13.13 0 01.046-.087.142.142 0 01.044-.023.129.129 0 01.137.042 2.215 2.215 0 01-.33 3.08.132.132 0 01-.083.032z" fill="#764678"/><path d="M169.866 146.643a.13.13 0 01-.101-.051 3.576 3.576 0 01-.677-2.427c.107-.818.567-1.544 1.369-2.159 1.332-1.012 2.168-.876 3.065-.735.898.141 1.798.288 3.321-.66 1.649-1.025 2.868-.942 3.603-.692.474.149.898.425 1.226.798.015.028.02.06.014.09a.13.13 0 01-.136.104.134.134 0 01-.084-.037c-.058-.079-1.52-1.903-4.487-.058-1.598.998-2.61.838-3.497.697-.887-.141-1.638-.266-2.868.682-.746.572-1.174 1.24-1.27 1.986a3.373 3.373 0 00.626 2.241c.02.027.029.062.025.095a.133.133 0 01-.049.086.152.152 0 01-.08.04zm23.82 8.454h-.022a.122.122 0 01-.083-.051.124.124 0 01-.023-.095c.181-1.102-.376-1.331-1.295-1.685a7.893 7.893 0 01-1.289-.607c-.335-.205-.498-.399-.508-.61-.019-.298.266-.532.604-.798.456-.365.972-.778.938-1.454-.046-.854-.477-.915-1.127-1.011a2.853 2.853 0 01-1.377-.466c-.594-.45-.612-1.038-.612-1.515 0-.476-.035-.727-.437-.78-1.14-.149-1.467-1.456-1.481-1.512a.129.129 0 01.094-.154.127.127 0 01.097.016c.03.018.051.046.06.08 0 0 .301 1.19 1.262 1.331.639.082.653.561.663 1.024.011.464.024.943.533 1.308.378.244.813.389 1.262.42.663.096 1.289.186 1.332 1.251.042.799-.554 1.283-1.031 1.667-.266.215-.533.42-.511.585 0 .117.138.266.389.408.396.234.813.43 1.246.585.932.368 1.67.658 1.457 1.965a.128.128 0 01-.141.098zm-23.623 4.938a.117.117 0 01-.049-.011.11.11 0 01-.042-.029.134.134 0 01-.034-.093c.021-1.019-.815-1.735-1.555-2.364-.592-.505-1.103-.939-1.066-1.456.016-.322.245-.628.701-.939.682-.466 1.081-1.012 1.185-1.619a2.338 2.338 0 00-.376-1.597.128.128 0 01.027-.178.127.127 0 01.096-.024.132.132 0 01.085.05 2.55 2.55 0 01.421 1.8c-.115.681-.551 1.283-1.294 1.791-.384.266-.576.506-.589.74-.019.389.445.799.985 1.246.743.636 1.67 1.424 1.644 2.566a.133.133 0 01-.045.088.126.126 0 01-.094.029z" fill="#fff"/><path d="M152.292 142.751c1.318-4.64 3.656-9.929 3.728-10.078l6.365 4.461-4.194-1.666 4.602.689c-1.284 3.067-4.405 13.252-1.478 18.97 1.257 2.454 3.483 4.086 6.791 4.975a1.639 1.639 0 011.089.961c.86 2.147.992 4.516.376 6.745-.85 2.99-2.499 2.99-2.499 2.99-6.17-1.459-19.936-9.9-14.78-28.047zm53.284-22.425c-1.486-.218.554 3.85.554 3.85s-1.667-3.147-2.911-3.49c-.993-.266.046 2.859.509 4.145h-.035c-.561-1.217-2.01-4.127-3.041-4.081-1.164.053.69 4.19 1.023 4.932-3.939-6.987-3.105-1.227-1.476 2.226-.799-.221-3.917 1.123-4.109 1.597-.218.532 2.485 1.001 3.047 1.134 1.374.327 2.234 1.358 2.636 2.787.157.556 7.361-3.261 7.361-3.261a19.585 19.585 0 00-.815-4.432 2.109 2.109 0 00-.122-.495c-.08-.21-.179-.493-.296-.799-.564-1.538-1.488-3.987-2.325-4.113z" fill="#F9A38F"/><path d="M201.941 128.927c.837.243 1.705.36 2.576.347 1.129-.083 1.598 1.016 1.598 1.016l-4.174-1.363zm-42.541-4.15c1.478-.202-.591 3.818-.591 3.818s1.688-3.11 2.929-3.437c.988-.266-.077 2.84-.551 4.113h.034c.573-1.203 2.043-4.076 3.063-4.02 1.156.064-.727 4.153-1.065 4.888 3.995-6.898 3.094-1.185 1.441 2.228.799-.211 2.476-.448 2.663.016.213.532-1.406 1.597-1.907 1.882-1.156.652-3.18 2.411-4.346 3.04-.506.266-5.305-2.798-5.305-2.798.115-1.493.402-2.968.855-4.395.024-.168.067-.332.127-.49.08-.208.184-.487.301-.798.576-1.507 1.521-3.932 2.352-4.047z" fill="#F9A38F"/><path d="M156.891 98.623s-14.959.344-16.379 2.548c-1.568 2.436-.586 20.186 3.761 30.568 2.447 5.856 4.737 5.765 7.861 4.791l13.74-4.328-8.983-33.579z" fill="#364154"/><path d="M155.437 99.363c.983-.953 9.819-4.946 12.783-11.979 3.196-7.573.512-18.38 6.227-18.596 5.542-.21 9.321 19.832 9.539 21.043a.059.059 0 00.069.045c1.119-.245 15.713-3.083 20.334-1.158 5.15 2.146 2.732 7.75 2.732 7.75 1.571.119 8.125 2.517 2.735 10.197a.086.086 0 00-.012.062.101.101 0 00.013.03.084.084 0 00.023.023c1.108.926 6.924 4.943-1.209 10.53 0 0 4.81 5.268-1.305 8.609-6.114 3.341-38.674 7.72-41.489 6.261-6.813-3.535-14.712-28.683-10.44-32.817z" fill="#4D83FA"/><path d="M121.591 271.676s-4.629-4.762-3.036-7.475c1.592-2.712 4.29 5.828 4.29 5.828s-1.393-10.097 1.494-10.273c2.887-.176 0 10.273 0 10.273s1.065-2.436 2.115-2.588c1.049-.152.745 2.068-1.119 4.235h-3.744z" fill="#EAEAEA"/><path d="M121.921 271.796a21.316 21.316 0 01-2.421-3.114c-1.481-2.362-1.832-4.236-1.047-5.569.291-.498.642-.73 1.044-.682.799.091 1.723 1.331 2.789 3.78.319.735.601 1.47.825 2.077-.266-2.649-.551-7.922.898-9.69a1.546 1.546 0 011.129-.612 1.178 1.178 0 011.041.455c1.305 1.597.133 7.339-.514 10.022.482-.798 1.161-1.658 1.864-1.757a.675.675 0 01.738.344c.426.774-.152 2.76-1.864 4.738l-.266-.221c1.675-1.946 2.13-3.78 1.813-4.352a.334.334 0 00-.389-.173c-.897.13-1.941 2.089-2.269 2.835l-.319-.115c0-.021.639-2.329 1.065-4.852.554-3.301.509-5.463-.133-6.256a.852.852 0 00-.756-.328 1.219 1.219 0 00-.887.488c-1.833 2.233-.663 10.884-.65 10.97l-.33.074c-.605-1.919-2.472-6.921-3.835-7.089-.267-.029-.49.139-.711.517-1.721 2.928 3.366 8.22 3.419 8.273l-.234.237z" fill="#364154"/></svg>