<svg width="518" height="276" fill="none" xmlns="http://www.w3.org/2000/svg"><g clip-path="url(#clip0_334_4250)"><path opacity=".5" d="M502.572 273.861l-.12.213c-.284.508-.58 1.023-.882 1.541l-461.068-.139s-.45-.499-1.253-1.45l-.14-.168a172.723 172.723 0 01-11.064-14.93c-12.87-19.376-30.713-53.672-27.72-91.739a103.74 103.74 0 018.113-32.878c14.4-33.659 57.368-56.343 96.077-56.8 14.97-.177 29.33 2.975 41.133 10.115 2.093 1.265 4.725 2.242 7.788 2.912 2.828.593 5.704.932 8.594 1.013 25.142.88 66.028-13.207 90.278-48.656 12.877-18.83 32.646-31.153 55.367-37.571 1.058-.298 2.124-.584 3.195-.858a140.808 140.808 0 0115.878-3.071c.974-.132 1.95-.254 2.928-.366 23.977-2.767 49.659.094 73.22 8.007a167.762 167.762 0 019.19 3.389c44.325 17.851 78.81 54.306 75.78 105.208a111.015 111.015 0 01-.54 6.107 117.978 117.978 0 01-2.034 12.001 132.53 132.53 0 01-1.842 7.295c-18.279 64.527 54.759 67.44 19.122 130.825z" fill="#D8E9FF"/><path d="M502.572 273.861l-358.883.039 3.092-106.669v-28.985h13.424v-22.635h26.778v19.214h8.178V99.293h1.78v-2.486h.326v2.486h6.446v-2.486h.326v2.486h9.144v-2.486h.325v2.486h5.754v-2.486h.325v2.486h2.35v33.17h9.04v-5.366l10.661.045v-8.69h2.141v-1.718h.286v1.718h9.877v-1.722h.283v1.722h1.988v17.286h12.692v6.363h7.051v-3.693h6.545V123.74h3.254v-6.841h.491v6.841h7.81v-12.822h.768v12.822h5.213V98.574h1.54v-1.903h.247v1.916h11.419v-1.916h.247v1.916h2.083v13.409h1.468v-11.221h16.228l.371.204v17.098h2.519v-2.466h29.229v19.214h8.927V99.293h1.952v-2.486h.351v2.486h7.052v-2.486h.349v2.486h9.98v-2.486h.352v2.486h6.28v-2.486h.348v2.486h2.581v33.17h9.863v-5.366l11.634.045v-8.69h2.343v-1.722h.326v1.722h10.781v-1.722h.325v1.722H441v17.289h13.849v6.36h7.703v-3.693h7.14V123.74h3.56v-6.841h.54v6.841h8.481v-12.822h.839v12.822h4.195a117.978 117.978 0 01-2.034 12.001 132.53 132.53 0 01-1.842 7.295c-18.259 64.527 54.778 67.44 19.141 130.825z" fill="#DCEAFB"/><path d="M412.076 12.425v261.432h-9.186V9.036a166.724 166.724 0 019.186 3.389z" fill="#A8CCFF"/><path d="M153.436 90.532v183.503H39.249l-.14-.168a172.554 172.554 0 01-11.064-14.929c-12.87-19.386-30.713-53.682-27.72-91.749a103.74 103.74 0 018.113-32.878c14.4-33.659 57.369-56.343 96.077-56.8 14.846.163 28.992 3.35 40.74 10.115 2.199 1.265 4.965 2.242 8.181 2.906z" fill="#C9E0FF"/><path d="M329.676 1.03v32.195c0 2.511-.615 4.557-1.366 4.557h-.196c-.751 0-1.366-2.046-1.366-4.557V1.395c.974-.132 1.95-.254 2.928-.366z" fill="#97C0F8"/><path d="M327.451 30.037c-10.671 0-19.321 9.098-19.321 20.315h38.638c0-11.217-8.657-20.315-19.317-20.315z" fill="#A8CCFF"/><path opacity=".5" d="M328.999 30.286a7.998 7.998 0 00-1.695-.184c-6.951 0-12.587 9.062-12.587 20.25h3.381c0-10.256 4.741-18.732 10.901-20.066z" fill="#D8E9FF"/><path d="M454.673 243.895s-5.141-5.965-.325-9.755c0 0 3.521-2.119 6.394-1.941 0 0-4.071 6.796-2.753 7.463 1.318.666 3.99-7.891 3.99-7.891s8.018-.773 10.596.46c0 0-6.854 5.58-5.412 5.913 1.442.333 8.848-5.146 8.848-5.146s7.465 1.265 7.065 5.793c-.4 4.528-2.968 5.926-4.097 5.806-1.129-.12-7.742-2.631-7.888-1.712-.147.919 3.836 3.932 6.622 4.075 0 0-5.259 5.77-8.757 4.104-3.498-1.667-3.794-4.305-5.975-5.295-2.18-.991-4.041-.971-3.14.022.901.994 4.846 1.991 6.092 4.182 1.246 2.191 2.362 3.673-1.253 3.133-3.615-.541-9.499-3.175-9.763-6.192l-.244-3.019z" fill="#6CA3EA"/><path d="M479.422 238.908s-20.27-.78-24.732 4.987a14.59 14.59 0 01-4.035 5.635l-.475 1.294s3.511-3.683 4.767-3.906c-.01-.01-1.982-7.153 24.475-8.01z" fill="#6CA3EA"/><path d="M450.638 249.526s-4.35 3.198-4.653 8.917l.787.071s1.39-5.913 3.905-8.224c2.516-2.311-.039-.764-.039-.764zm-13.924-13.133s8.181-4.554 4.364-10.735c0 0-3.053-3.796-6.326-4.774 0 0 1.744 9.221 0 9.437-1.745.217-1.198-10.411-1.198-10.411s-8.614-4.12-11.995-3.796c0 0 5.343 9 3.599 8.783-1.744-.217-7.742-9.327-7.742-9.327s-8.835-1.618-10.25 3.579c-1.416 5.198.872 7.81 2.18 8.133 1.308.324 9.704.217 9.486 1.295-.218 1.078-5.887 2.822-9.05 1.845 0 0 3.489 8.566 8.071 8.133 4.581-.434 5.997-3.237 8.831-3.47 2.835-.233 4.908.541 3.489 1.295-1.419.754-6.216.249-8.507 2.185-2.291 1.935-4.142 3.129.111 3.996 4.253.868 11.884.324 13.411-2.912l1.526-3.256z" fill="#6CA3EA"/><path d="M411.185 220.777s22.896 7.373 25.512 15.616c0 0-.107 3.686 2.184 7.916v1.618s-2.402-5.531-3.71-6.291c0 .01 5.122-7.146-23.986-18.859z" fill="#6CA3EA"/><path d="M438.881 244.309s3.531 5.334 1.516 11.826l-.908-.243s.882-7.152-.976-10.748c-1.858-3.595.368-.835.368-.835z" fill="#6CA3EA"/><path d="M449.711 230.108s-10.781-6.004-5.75-14.153c0 0 4.025-5.003 8.337-6.288 0 0-2.301 12.149 0 12.437 2.301.288 1.578-13.725 1.578-13.725s11.357-5.431 15.812-5.004c0 0-7.042 11.865-4.741 11.58 2.301-.285 10.205-12.298 10.205-12.298s11.64-2.146 13.508 4.715c1.868 6.861-1.148 10.292-2.873 10.722-1.725.431-12.792.285-12.506 1.716.286 1.43 7.761 3.715 11.93 2.43 0 0-4.598 11.292-10.635 10.719-6.036-.573-7.904-4.288-11.643-4.573-3.739-.285-6.466.715-4.599 1.715 1.868 1 8.191.324 11.211 2.881 3.02 2.557 5.461 4.123-.143 5.269-5.604 1.145-15.669.427-17.68-3.861l-2.011-4.282z" fill="#97C0F8"/><path d="M483.343 209.528s-30.183 9.709-33.632 20.583c0 0 .143 4.855-2.877 10.434v2.146s3.163-7.292 4.881-8.292c.007 0-6.749-9.434 31.628-24.871z" fill="#97C0F8"/><path d="M446.834 240.545s-4.653 7.039-1.985 15.59l1.198-.324s-1.162-9.424 1.272-14.165c2.434-4.742-.485-1.101-.485-1.101z" fill="#97C0F8"/><path d="M449.346 274.692a21.173 21.173 0 0014.932-6.151 20.943 20.943 0 006.185-14.85H428.23c0 5.57 2.225 10.912 6.185 14.85a21.172 21.172 0 0014.931 6.151z" fill="#97C0F8"/><path d="M454.543 274.531c-2.972.371-5.99.109-8.853-.768a21.176 21.176 0 01-7.752-4.321 21.02 21.02 0 01-5.279-7.11 20.9 20.9 0 01-1.871-8.641h5.275a20.93 20.93 0 005.279 13.894 21.156 21.156 0 0013.201 6.946z" fill="#A8CCFF"/><path d="M470.941 253.691h-43.407v.645h43.407v-.645z" fill="#97C0F8"/><path d="M351.04 273.66l-20.739-85.654 1.452-3.37 20.556 89.001a.355.355 0 01-.071.309.37.37 0 01-.287.138h-.325a.57.57 0 01-.586-.424zm-93.633.437a.692.692 0 01-.665-.504.7.7 0 01-.015-.295l6.112-36.844h2.619l-7.305 37.022a.776.776 0 01-.746.621zm58.612 0a.686.686 0 01-.527-.243.685.685 0 01-.153-.556l6.111-36.844h2.603l-7.273 37.022a.776.776 0 01-.761.621z" fill="#6CA3EA"/><path d="M330.233 236.532h-72.988l15.122-94.283h72.992l-15.126 94.283z" fill="#F3FAFF"/><path d="M335.697 235.814h-83.828v2.773h83.828v-2.773z" fill="#6CA3EA"/><path d="M301.274 161.978a15.192 15.192 0 01-.326 2.195c-1.519 6.735-7.553 11.9-14.37 11.91-7.543 0-13.193-6.282-12.617-14.059.576-7.777 7.16-14.095 14.703-14.108a12.552 12.552 0 016.228 1.606 12.283 12.283 0 013.225 2.628c.513.588.97 1.222 1.367 1.893.238.395.455.802.651 1.22a13.326 13.326 0 011.07 3.77c.092.683.132 1.371.121 2.059-.02.291-.033.585-.052.886z" fill="#B8D0FC"/><path d="M300.119 155.26l-12.503 6.741s5.158-9.036 7.277-12.483a12.319 12.319 0 013.225 2.628 12.896 12.896 0 012.001 3.114z" fill="#fff"/><path d="M301.417 153.554l-11.419 6.149s4.712-8.253 6.645-11.402a11.18 11.18 0 012.929 2.399c.469.537.887 1.117 1.249 1.731.219.364.418.739.596 1.123z" fill="#364154"/><path d="M324.424 229.367h-60.079l6.079-34.478h60.079l-6.079 34.478zm-59.594-.353h59.227l5.958-33.778h-59.226l-5.959 33.778z" fill="#B8D0FC"/><path d="M320.841 224.638h-53.28s9.437-5.039 12.04-4.777c2.603.263 6.32 2.305 8.715 2.386 2.395.081 4.992-7.075 7.657-6.739 2.665.337 3.671 6.667 5.054 6.049 1.383-.618 5.532-.886 7.914 0 2.382.887 5.857-2.819 7.969-2.702 2.112.116 3.931 5.783 3.931 5.783zm-40.469-10.133h-10.179l.098-.537 10.175.003-.094.534zm-.202 1.149h-10.179l.095-.537h10.179l-.095.537z" fill="#364154"/><path d="M270.609 207.356h53.281s-7.673-5.039-10.361-4.758c-2.688.282-7.13 2.302-9.554 2.382-2.425.081-2.496-7.074-5.282-6.738-2.785.337-6.02 6.664-7.185 6.046-1.165-.618-5.207-.887-7.918 0-2.71.887-4.881-2.819-7.012-2.703-2.132.117-5.969 5.771-5.969 5.771zm12.637-9.143H273.07l.094-.537h10.176l-.094.537zm-.202 1.146h-10.176l.095-.537h10.175l-.094.537zm-8.982-9.279h-2.336l2.03-10.89h2.337l-2.031 10.89zm3.183 0h-2.337l1.575-8.437h2.337l-1.575 8.437zm3.186 0h-2.34l1.643-8.796h2.337l-1.64 8.796zm3.182 0h-2.336l1.246-6.693h2.337l-1.247 6.693zm3.183 0h-2.337l1.338-7.178h2.336l-1.337 7.178zm3.183 0h-2.337l1.038-5.567h2.337l-1.038 5.567z" fill="#B8D0FC"/><path d="M305.325 190.08h-2.336l2.027-10.89h2.34l-2.031 10.89zm3.183 0h-2.337l1.572-8.437h2.337l-1.572 8.437zm3.183 0h-2.337l1.64-8.796h2.337l-1.64 8.796zm3.182 0h-2.336l1.249-6.693h2.337l-1.25 6.693zm3.186 0h-2.336l1.337-7.178h2.337l-1.338 7.178zm3.183 0h-2.337l1.038-5.567h2.337l-1.038 5.567z" fill="#364154"/><path d="M316.575 154.528h-7.608l.198-1.035h7.605l-.195 1.035zm9.333 0h-8.399l.196-1.035h8.399l-.196 1.035zm5.988 0h-5.356l.195-1.035h5.356l-.195 1.035zm4.999 0h-4.133l.195-1.035h4.133l-.195 1.035zm-21.153 4.421h-7.608l.195-1.035h7.608l-.195 1.035zm9.33 0h-8.399l.195-1.035h8.399l-.195 1.035zm5.988 0h-5.353l.195-1.035h5.353l-.195 1.035zm4.998 0h-4.13l.195-1.035h4.133l-.198 1.035zm-14.963-6.838h-11.669l.195-1.036h11.673l-.199 1.036zm7.839 0h-6.726l.195-1.036h6.73l-.199 1.036zm8.422 0h-7.471l.195-1.036h7.472l-.196 1.036zm-17.146 4.702h-11.673l.195-1.039h11.673l-.195 1.039zm7.839 0h-6.729l.195-1.039h6.73l-.196 1.039zm8.419 0h-7.471l.195-1.039h7.471l-.195 1.039zm-21.562 6.56h-7.609l.196-1.035h7.608l-.195 1.035zm9.333 0h-8.403l.199-1.035h8.399l-.195 1.035zm5.984 0h-5.353l.195-1.035h5.357l-.199 1.035zm5.002 0h-4.133l.196-1.035h4.132l-.195 1.035zm-15.851-2.139h-11.673l.195-1.036h11.673l-.195 1.036zm7.839 0h-6.726l.195-1.036h6.727l-.196 1.036zm8.422 0h-7.471l.195-1.036h7.472l-.196 1.036zm-21.513 6.285h-7.605l.195-1.039h7.608l-.198 1.039zm9.333 0h-8.399l.195-1.039h8.399l-.195 1.039zm5.987 0h-5.356l.195-1.039h5.357l-.196 1.039zm4.998 0h-4.132l.198-1.039h4.133l-.199 1.039zm-15.851-2.139H306.92l.195-1.036h11.673l-.199 1.036zm7.843 0h-6.729l.195-1.036h6.73l-.196 1.036zm8.418 0h-7.471l.195-1.036h7.472l-.196 1.036zm-38.037 15.428h-3.727l.098-.505h3.723l-.094.505zm4.565 0h-4.11l.094-.505h4.114l-.098.505zm-4.976 2.165h-3.722l.094-.508h3.723l-.095.508zm4.569 0h-4.113l.098-.508h4.11l-.095.508zm-1.949-3.346h-5.711l.094-.509h5.715l-.098.509zm3.84 0h-3.293l.094-.509h3.294l-.095.509zm-4.273 2.301h-5.711l.094-.508h5.711l-.094.508zm3.837 0h-3.293l.097-.508h3.29l-.094.508zm24.211-1.12h-3.722l.097-.505h3.723l-.098.505zm4.569 0h-4.11l.095-.505h4.11l-.095.505zm-4.976 2.165h-3.723l.095-.508h3.723l-.095.508zm4.566 0h-4.11l.094-.508h4.114l-.098.508zm-1.946-3.346h-5.711l.094-.509h5.714l-.097.509zm3.84 0h-3.294l.095-.509h3.293l-.094.509zm-4.273 2.301h-5.714l.097-.508h5.711l-.094.508zm3.837 0h-3.294l.095-.508h3.293l-.094.508z" fill="#B8D0FC"/><path d="M346.449 272.699c-.13 1.77-2.646 1.79-5.5 1.463-2.854-.327-2.092.388-6.088.443-3.997.055-5.373-1.259-5.565-1.825-.173-.505 1.751-.929 3.811-1.427l.777-.191c2.321-.589 3.857-2.314 5.858-3.823 1.881-1.43 4.305-6.602 4.305-6.602l5.458-.246s-2.298 4.638-3.16 6.635c-.508 1.175-.293 2.621-.072 3.728.14.605.199 1.225.176 1.845z" fill="#F9A38F"/><path d="M340.949 274.162c-2.85-.324-2.092.388-6.088.443-3.997.055-5.373-1.259-5.565-1.825-.173-.505 1.751-.929 3.811-1.427l.022.038a11.253 11.253 0 005.858 1.043c2.681-.266 5.415-1.379 7.267-1.58.144.604.207 1.224.188 1.845-.123 1.77-2.639 1.79-5.493 1.463z" fill="#131F2D"/><path d="M384.139 273.065c-.13 1.773-2.646 1.796-5.5 1.469-2.854-.327-2.092.392-6.088.45-3.997.058-5.373-1.253-5.565-1.819-.173-.505 1.751-.932 3.807-1.431.261-.061.518-.129.778-.194 2.32-.589 3.856-2.317 5.858-3.828 1.877-1.431 0-9.901 0-9.901l6.004-.582s-.29 7.12-.287 10.376c0 1.278.596 2.508.817 3.618.14.604.199 1.223.176 1.842z" fill="#F9A38F"/><path d="M378.639 274.534c-2.85-.324-2.092.392-6.088.45-3.997.058-5.373-1.253-5.565-1.819-.173-.505 1.751-.932 3.807-1.431l.026.036a11.22 11.22 0 005.858 1.039c2.681-.269 5.415-1.385 7.267-1.586a7.05 7.05 0 01.192 1.842c-.14 1.773-2.643 1.796-5.497 1.469zm-12.018-147.865c-1.034-4.226.463-6.197 1.816-7.243.651-1.556 1.37-2.676 2.119-3.1 1.367-.77 3-.855 4.142-.79a1.944 1.944 0 00-.872-.411c.71-.103 2.278.596 2.278.596 9.864-3.78 11.413 10.66 11.204 14.016-.208 3.357-.175 7.308 4.953 9.952 9.792 5.043-3.254 24.053-3.254 24.053.247-2.712-12.333-17.02-18.894-21.305-1.598-2.34-2.167-6.473-2.209-6.796.276 3.278.839 5.116 1.344 6.149-2.975-2.741-3.421-9.315-2.627-15.121z" fill="#131F2D"/><path d="M370.517 142.647c-.033.017 3.169 1.67 5.578 1.013 2.278-.611 3.745-3.534 3.713-3.54-.977-.191-1.237-1.502-1.214-7.12l-.436.084-7.29 1.434s.163 2.285.17 4.433c.006 1.793-.105 3.506-.521 3.696z" fill="#F9A38F"/><path d="M370.868 134.505s.163 2.285.169 4.434c4.081-.114 6.239-3.816 7.121-5.868l-7.29 1.434z" fill="#F9A38F"/><path d="M341.196 263.611a1.766 1.766 0 00.239 1.558 1.786 1.786 0 001.388.759l2.851.133 3.013.094a2.437 2.437 0 001.953-.887c2.405-2.935 9.811-12.719 14.318-26.933.127-.402.261-.803.404-1.211 2.965-8.605 9.112-19.418 12.366-29.179.517-1.557.976-3.023 1.396-4.408.133-.447.264-.88.384-1.294 2.389-8.257 3.082-13.674 3.72-19.464l-23.405.188s-4.959 38.079-18.627 80.644z" fill="#00A3FE"/><path d="M363.068 169.587c.059 11.075-1.627 15.829-1.627 15.829s10.019 5.062 21.93 1.334l8.519-2.402c-.198-.449-1.855-7.861-2.05-8.272-2.512-5.369-3.199-7.625-3.498-9.275a35.045 35.045 0 01-.29-9.279 74.225 74.225 0 012.89-14.564c-3.254-.735-6.284-2.026-9.662-3.285-.777.971-3.153 1.968-5.206 1.923-2.373-.052-3.141-1.062-3.017-2.166a83.655 83.655 0 00-4.556 2.722c-2.148 3.712-6.508 7.318-6.834 13.011-.078 1.378 3.398 14.101 3.401 14.424z" fill="#fff"/><path d="M383.195 170.807c1.022 1.441 2.984 10.195 7.866 11.295-2.516-6.239-4.426-8.974-4.726-10.89a47.19 47.19 0 01-.289-10.781c-1.627-2.848-2.851-4.799-2.851-4.799-.13-.46-2.603-8.049-3.387-1.266-.785 6.784 2.235 14.833 3.387 16.441z" fill="#4B9BA9"/><path d="M369.505 136.544s9.655.155 9.661-5.826c.007-5.981 1.25-10-4.907-10.324-6.157-.324-7.364 1.926-7.856 3.923-.491 1.996.589 12.029 3.102 12.227z" fill="#F9A38F"/><path d="M369.863 120.229s2.642 7.02 6.697 8.055c4.055 1.036 5.818-.042 5.818-.042a11.421 11.421 0 01-3.758-6.751s-6.766-4.602-8.757-1.262z" fill="#131F2D"/><path d="M370.517 120.799s-1.975 1.566-2.457 3.09c-.482 1.525-.697 4.657-1.627 4.554 0 0-1.992-4.771.244-7.47 2.388-2.844 3.84-.174 3.84-.174z" fill="#131F2D"/><path d="M354.314 177.261l-4.563 13.826 2.604 1.039 7.537-12.218-5.578-2.647z" fill="#F9A38F"/><path d="M366.609 141.314s-5.38 2.123-6.935 5.431c-1.556 3.307-3.905 25.499-4.852 27.778-.947 2.278-1.627 4.084-1.627 4.084s2.711 2.266 5.438 2.44c2.727.175 7.976-39.733 7.976-39.733z" fill="#657285"/><path d="M371.044 139.408s-5.588 13.725-5.75 16.505c-.163 2.781-.651 45.42-.651 45.42s.325 1.942-3.45 1.143c-3.775-.8-4.764-1.635-4.764-1.635s3.612-26.302 2.626-35.451c-.986-9.15 7.56-24.073 7.56-24.073l4.429-1.909z" fill="#657285"/><path d="M345.667 266.061l3.274.1a1.888 1.888 0 001.517-.683c2.199-2.647 9.873-12.566 14.478-27.143.127-.402.26-.803.403-1.211 2.965-8.605 9.112-19.418 12.366-29.179.517-1.557.976-3.023 1.396-4.408.134-.447.264-.88.384-1.295l-3.446-2.589s-10.348 16.665-13.551 32.364c-2.792 13.577-13.937 29.969-16.821 34.044z" fill="#079ADB"/><path d="M375.671 233.432c-.055 7.214.287 23.302 1.172 31.156.038.348.204.669.466.902.262.233.601.361.953.361h2.44c1.032 0 1.8 0 2.314-.017a.93.93 0 00.905-.754c2.427-12.298 4.165-22.499 5.438-31.321 1.064-7.386 2.011-13.716 2.74-19.166.728-5.451 1.239-10.075 1.425-13.956.026-.611.049-1.207.058-1.783.01-.576 0-1.146 0-1.693l-20.221-1.958c.263 13.36 2.343 33.798 2.31 38.229z" fill="#00A3FE"/><path d="M380.703 265.851h2.147c.262-.004.515-.097.716-.263.2-.167.337-.398.388-.653 2.411-12.218 4.139-22.38 5.405-31.164 1.064-7.385 2.011-13.715 2.74-19.165.729-5.451 1.24-10.075 1.425-13.956l-7.423 4.34s4.738 1.66 2.929 14.24c-1.809 12.58-5.812 44.841-8.327 46.621z" fill="#079ADB"/><path d="M379.765 200.511s1.426 5.12 6.352 4.466c4.927-.653 11.937-3.595 11.937-3.595s-2.106-6.619-4.725-15.312c-3.17-10.528-7.094-24.098-8.943-32.655a51.959 51.959 0 01-1.005-5.826l-4.091-7.887s-6.095 13.593-6.424 17.037c-.328 3.443 6.899 43.772 6.899 43.772z" fill="#657285"/><path d="M384.669 156.214l-5.395-16.525s6.814 2.013 10.238 3.732c0 0 2.138 2.741 3.459 9.062 0 0 1.399 15.188-1.722 20.742 0 0-9.857 1.961-25.626-3.431v-3.592s17.247.9 20.781 1.295l-1.735-11.283z" fill="#F9A38F"/><path d="M379.967 163.917c.221 5.554 1.536 16.337 13.251 22.108l.094.045c-3.169-10.528-7.094-24.098-8.942-32.655-2.155 3.198-4.524 7.434-4.403 10.502z" fill="#5C6877"/><path d="M379.274 139.689s10.003.699 12.411 6.036c2.408 5.337 3.176 23.092.111 28.319 0 0-4.231 1.197-11.689-.191l-.277-.052s-2.382-5.8-.244-6.945c0 0 6.297.323 5.64-1.741-.658-2.065-5.952-25.426-5.952-25.426z" fill="#657285"/><path d="M354.194 168.422l.293.942 16.414-5.078a.62.62 0 00.111-.576.464.464 0 00-.404-.366l-16.414 5.078zm-1.188.89l1.188-.89.292.945-1.48-.055z" fill="#B53C37"/><path d="M350.399 190.711s-4.162 2.288-4.712 4.033c-.55 1.744-.169 5.392.492 5.34.66-.052 1.646-3.926 2.193-4.207.547-.282 1.302-1.088 1.302-.489 0 .599-.547 1.689-.274 1.851.274.162 1.152-1.524 1.754-1.851.602-.327.856-3.023 1.442-3.745.586-.721-2.197-.932-2.197-.932zm15.224-24.509s-3.726-2.266-5.288-1.942c-1.562.324-5.533 3.217-3.629 3.838 1.904.622 3.466-.029 4.205.421.738.45 1.278 1.275 4.712 1.266 3.433-.01 0-3.583 0-3.583z" fill="#F9A38F"/><g opacity=".6" fill="#6CA3EA"><path opacity=".6" d="M185.275 274.091h-.062a.653.653 0 01-.651-.648l.976-42.144 2.88-.324-2.457 42.481a.696.696 0 01-.686.635zm-16.785 0h-.062a.645.645 0 01-.651-.648l.976-42.144 2.88-.324-2.447 42.462a.7.7 0 01-.696.654zm46.313 0h.062a.653.653 0 00.651-.648l-.976-42.144-2.88-.324 2.457 42.481a.698.698 0 00.686.635zm-48.22-45.417v-28.878a9.137 9.137 0 01.703-3.522 9.192 9.192 0 012.005-2.986 9.255 9.255 0 013.002-1.996 9.309 9.309 0 013.541-.701h20.921a9.276 9.276 0 016.544 2.697 9.192 9.192 0 012.005 2.986 9.137 9.137 0 01.703 3.522v29.988l-39.424-1.11z"/><path opacity=".6" d="M166.583 228.674h43.173v4.56h-38.585a4.598 4.598 0 01-3.242-1.335 4.549 4.549 0 01-1.343-3.225h-.003z"/><path opacity=".6" d="M214.361 228.674h-30.089a2.285 2.285 0 00-2.291 2.279v.003a2.285 2.285 0 002.291 2.278h30.089a2.285 2.285 0 002.291-2.278v-.003a2.285 2.285 0 00-2.291-2.279z"/></g><path d="M237.462 257.294c.293 1.453 2.373 1.21 4.696.647 2.324-.563 1.774.107 5.08-.259s4.312-1.592 4.413-2.081c.091-.434-1.546-.586-3.3-.786l-.651-.081c-1.982-.246-3.43-1.515-5.23-2.56-1.702-.971-4.23-5.014-4.23-5.014l-4.536.356s2.378 3.596 3.299 5.159c.544.923.515 2.136.446 3.078a5.721 5.721 0 00.013 1.541z" fill="#F9A38F"/><path d="M242.158 257.941c2.324-.566 1.774.107 5.08-.259s4.312-1.592 4.413-2.081c.091-.434-1.546-.586-3.3-.786v.032a9.375 9.375 0 01-4.735 1.466c-2.245.052-4.624-.586-6.183-.56a5.682 5.682 0 00.036 1.541c.286 1.443 2.366 1.2 4.689.647z" fill="#131F2D"/><path d="M198.474 263.766c-.902 1.178.65 2.57 2.619 3.929 1.969 1.36 1.094 1.392 3.557 3.619 2.464 2.226 4.048 2.162 4.484 1.912.436-.249-.579-1.54-1.584-2.98-.131-.178-.254-.363-.381-.547-1.123-1.638-1.126-3.56-1.526-5.593-.384-1.922 2.775-8.994 2.775-8.994l-5.073-.647s-.651 4.269-1.233 5.991c-.326 1.013-1.744 1.679-2.499 2.249-.427.3-.81.658-1.139 1.061z" fill="#F9A38F"/><path d="M201.11 267.708c1.952 1.36 1.093 1.392 3.557 3.619 2.463 2.226 4.048 2.162 4.484 1.912.436-.249-.579-1.54-1.585-2.98h-.039a9.33 9.33 0 01-4.23-2.564c-1.527-1.637-2.604-3.835-3.661-4.974a5.703 5.703 0 00-1.139 1.049c-.924 1.187.634 2.586 2.613 3.938z" fill="#131F2D"/><path d="M219.2 227.629l-4.634 12.405-6.053 16.198a9.837 9.837 0 01-3.215-.291 13.985 13.985 0 01-3.108-1.505s1.679-17.393 4.813-27.377c.804-2.563 1.705-4.634 2.698-5.803 4.858-5.712 9.499 6.373 9.499 6.373z" fill="#2C3747"/><path d="M214.488 207.929c-3.036-.971-12.187-.395-20.889 1.294l-1.331-2.32-18.796-1.46s-6.206 13.684-2.805 22.399c.498 1.295 1.49 2.104 3.179 2.13h15.093c9.346 0 19.779-6.389 21.13-6.657 2.209-.44 3.094 3.955 5.301 8.566 2.206 4.612 20.768 20.435 20.768 20.435s2.851.029 4.029-.411c1.269-.473 1.731-1.087 1.731-1.087s-20.563-40.692-27.41-42.889z" fill="#364154"/><path d="M185.685 150.337c-2.646-.628-6.238.107-6.834.178-7.136.829-8.731 11.852-8.2 14.936.976 5.683-1.767 7.285-5.044 11.832-6.567 9.114-2.031 16.619 3.316 18.48 3.208 1.114 7.579-1.922 7.579-1.922.081.029 11.347-10.68 16.921-15.859 9.369-3.848-.999-26.049-7.738-27.645z" fill="#131F2D"/><path d="M187.211 176.332c.036 0-2.903 1.919-5.301 1.518-2.252-.376-4.638-3.301-4.605-3.311.908-.275 1.715-1.333 1.146-6.797l.429.043 7.198.686s.062 2.226.267 4.307c.173 1.761.446 3.408.866 3.554z" fill="#F9A38F"/><path d="M186.079 168.48s.061 2.227.266 4.308c-3.96.285-6.41-3.094-7.465-4.994l7.199.686z" fill="#F9A38F"/><path d="M187.598 170.322s-9.333 1.084-9.919-4.706c-.586-5.79-2.193-9.55 3.743-10.489 5.935-.939 7.318 1.155 7.985 3.042.667 1.887.602 11.719-1.809 12.153z" fill="#F9A38F"/><path d="M188.291 155.195s-4.507 6.415-8.33 7.813c-3.824 1.398-5.637.517-5.637.517a15.673 15.673 0 002.428-5.938c.085-.498.303-.965.63-1.351a2.85 2.85 0 011.231-.847c2.744-.955 8.035-2.411 9.678-.194z" fill="#131F2D"/><path d="M184.568 155.671s2.408 1.369 3.372 2.589c.963 1.22 1.92 4.317 1.776 5.699 0 0 1.517-6.586-.914-8.984-2.577-2.541-4.234.696-4.234.696z" fill="#131F2D"/><path d="M194.39 191.695c-.283 18.745-.078 14.829-2.142 16.609-.497.427-1.894.683-3.732.803-5.78.382-15.946-.567-16.326-1.618-1.335-3.677-.391-4.819-1.504-10.444a44.745 44.745 0 00-.429-1.942c-.928-3.864-1.829-5.178 1.461-11.389 2.984-5.625 6.205-10.117 6.485-9.952 7.872 4.648 8.383.667 8.383.667s7.94 8.12 7.804 17.266z" fill="#00A3FE"/><path d="M214.566 240.034l-6.183 16.871s-2.226.722-3.844.489a4.826 4.826 0 01-2.554-1.136s1.891-19.215 5.024-29.199l7.557 12.975z" fill="#364154"/><path d="M186.589 174.406s8.1 1.366 9.05 4.835c.95 3.47 7.908 22.584 7.908 22.584s-5.477 2.013-7.381.12c-1.903-1.894-6.619-17.554-6.619-17.554l-2.958-9.985z" fill="#00A3FE"/><path d="M188.516 209.107c-5.78.382-15.946-.567-16.327-1.618-1.334-3.677-.39-4.819-1.503-10.444l2.711-6.149s-.384 7.026 2.193 9.311 10.557 4.414 11.81 6.327a6.917 6.917 0 011.116 2.573z" fill="#079ADB"/><path d="M188.988 205.107s1.721 1.475 2.209 1.595c.252.074.52.074.772 0l-1.256-1.463-1.725-.132zm-.684-1.741l4.361 1.119a.732.732 0 01-.251.273.735.735 0 01-.354.112 9.905 9.905 0 01-1.82-.123l-1.936-1.381z" fill="#F9A38F"/><path d="M180.914 205.757s6.222-2.754 7.39-2.391c1.169.362 4.166 1.941 4.634 2.589.469.647-2.453-.081-3.365-.14-.592-.035-1.952.771-2.645 1.162-2.867 1.638-4.859 1.492-4.859 1.492l-1.155-2.712z" fill="#F9A38F"/><path d="M178.203 173.74s-8.806 1.64-10.436 4.068c-3.557 5.294-11.132 27.234-6.889 30.176 4.777 3.311 21.741.867 21.741.867s.563-2.625-.221-3.883c-.784-1.259-13.55-3.34-14.139-3.92-.589-.579 5.821-9.062 5.138-10.68-2.187-5.194 4.806-16.628 4.806-16.628z" fill="#00A3FE"/><path d="M213.004 204.822s6.16 1.654 6.794 2.589c.635.935 1.875 3.858 1.82 4.618-.056.761-1.735-1.501-2.363-2.081-.41-.375-1.887-.595-2.603-.712-1.832-.294-2.714-1.129-3.401-1.543a1.872 1.872 0 00-1.019-.227l.772-2.644z" fill="#F9A38F"/><path d="M219.258 209.094s.375 2.084.651 2.46c.136.202.328.361.553.456l-.042-1.799-1.162-1.117zm.54-1.667l2.503 3.376a.666.666 0 01-.651-.078 9.025 9.025 0 01-1.25-1.159l-.602-2.139zm-6.557.282s.57 1.378 1.712 1.874c1.142.495 1.975 1.236 2.161.971.185-.266-.866-1.674-.866-1.674l-3.007-1.171z" fill="#F9A38F"/><path d="M201.91 197.304l12.958 8.146s-1.36 1.812-1.815 1.977c-2.399.874-13.19.036-16.886-5.482l5.743-4.641z" fill="#00A3FE"/><path d="M196.775 206.159c.765 0 8.37-.525 8.37-.525s-.218 1.34.253 2.059l-7.413 1.407-1.523-.443.313-2.498z" fill="#FDDBBA"/><path d="M184.09 207.372l12.691-1.213s-.445 2.333 1.211 2.941l-13.993 1.02s-1.113-1.579.091-2.748z" fill="#FF912B"/><path d="M205.125 205.799l-8.571.648s.062-.295.221-.298c.159-.003 8.516-.609 8.516-.609l-.029.233-.137.026zm-7.139 3.301l7.549-1.427-.068-.194-8.048 1.534.567.087z" fill="#FF912B"/><path d="M110.129 274.023h-.069a.722.722 0 01-.716-.732l1.087-47.067 3.196-.372-2.727 47.436a.775.775 0 01-.771.735zm-18.63 0h-.056a.72.72 0 01-.667-.453.713.713 0 01-.049-.279l1.074-47.067 3.196-.372-2.727 47.436a.775.775 0 01-.771.735zm51.409 0h.069a.719.719 0 00.667-.453.72.72 0 00.049-.279l-1.084-47.067-3.199-.372 2.727 47.436a.767.767 0 00.771.735zM89.38 223.311v-32.247a10.195 10.195 0 01.773-3.922 10.246 10.246 0 012.223-3.33 10.32 10.32 0 017.274-3.02h23.225a10.325 10.325 0 017.275 3.02 10.21 10.21 0 012.996 7.252v33.481l-43.766-1.234z" fill="#6CA3EA"/><path d="M89.38 223.311h47.928v5.091h-42.81a5.132 5.132 0 01-3.619-1.491 5.076 5.076 0 01-1.5-3.6z" fill="#6CA3EA"/><path d="M142.4 223.311h-33.365a2.554 2.554 0 00-2.561 2.546 2.553 2.553 0 002.561 2.545H142.4a2.553 2.553 0 002.562-2.545 2.554 2.554 0 00-2.562-2.546z" fill="#6CA3EA"/><path d="M124.438 168.878s-1.953 1.648-2.366 5.913c-.326 3.237 1.952 28.38 3.638 30.38 4.784 5.622 10.778 3.237 13.127 4.101l2.213-1.981s-7.787-5.715-8.379-7.583c-2.281-7.178-.876-28.117-8.233-30.83z" fill="#657285"/><path d="M123.041 148.373s.131-4.612-5.984-5.518c-6.115-.907-7.81.517-8.845 2.068-1.035 1.55-2.987 7.887-2.792 10.405.195 2.518 7.159 5.637 7.055 7.12-.104 1.482 10.566-14.075 10.566-14.075z" fill="#131F2D"/><path d="M151.405 270.045c-.198 1.56 1.936 2.016 4.423 2.233 2.486.217 1.715.706 5.105 1.456 3.391.751 4.794-.145 5.057-.601.264-.457-1.331-1.114-2.993-1.907l-.632-.304c-1.871-.916-2.876-2.683-4.305-4.337-1.351-1.569-2.512-6.472-2.512-6.472l-4.602-1.172s1.146 4.418 1.533 6.301c.225 1.107-.212 2.321-.592 3.237a6.138 6.138 0 00-.482 1.566z" fill="#F9A38F"/><path d="M155.827 272.278c2.487.217 1.715.706 5.106 1.456 3.391.751 4.794-.145 5.057-.601.264-.457-1.331-1.114-2.994-1.907l-.029.029a9.592 9.592 0 01-5.171-.126c-2.235-.705-4.37-2.149-5.909-2.647a6.116 6.116 0 00-.482 1.563c-.199 1.56 1.936 2.016 4.422 2.233z" fill="#131F2D"/><path d="M116.946 206.515s30.769 3.171 35.839 7.858c5.07 4.686 4.168 48.322 4.168 48.322-.79.813-1.37.796-2.619.696-1.198-.091-3.638-1.117-3.638-1.117s-6.59-21.428-6.672-26.389c-.081-4.962-1.122-13.379-3.215-13.878-2.092-.498-27.01 2.266-29.733-5.541-2.724-7.806 1.803-14.262 1.803-14.262l4.067 4.311z" fill="#079ADB"/><path d="M102.576 214.385c1.327.884 3.7 2.246 7.683 2.386 7.127.259 16.02-.586 17.771-2.23.456-.424.677-1.13.739-2.02.195-2.722-1.113-7.194-1.988-10.9-.57-2.405-.957-4.482-.651-5.547.976-3.236 3.973-9.823 4.23-11.975.257-2.152-2.34-13.771-5.932-15.211-3.593-1.44-17.462 0-17.462 0-5.415 1.094-5.643 12.583-3.844 22.36.046.253.092.502.14.751 1.959 9.917-4.39 19.917-.686 22.386z" fill="#657285"/><path d="M120.49 170.992c-.098.631-1.832 1.654-5.532.683-3.557-.932-3.99-2.088-3.99-2.842 0-.9 1.543-2.113 1.523-7.644l.427.084 7.159 1.408s-.163 2.243-.169 4.353c.006 1.773.745 2.909.582 3.958z" fill="#F9A38F"/><path d="M120.08 162.681s-.163 2.243-.169 4.353c-4.006-.11-6.125-3.748-6.994-5.761l7.163 1.408z" fill="#F9A38F"/><path d="M121.424 164.681s-9.479.155-9.479-5.719c0-5.874-1.234-9.806 4.819-10.156 6.053-.349 7.231 1.894 7.713 3.852.481 1.958-.586 11.832-3.053 12.023z" fill="#F9A38F"/><path d="M121.073 148.664s-2.604 6.89-6.58 7.91c-3.977 1.019-5.711-.046-5.711-.046a11.19 11.19 0 003.69-6.628s6.632-4.518 8.601-1.236z" fill="#131F2D"/><path d="M120.428 149.224s1.953 1.537 2.412 3.032c.458 1.496.686 4.577 1.588 4.47 0 0 1.952-4.683-.241-7.334-2.33-2.809-3.759-.168-3.759-.168z" fill="#131F2D"/><path d="M128.297 271.327c-.023 1.569 2.151 1.78 4.647 1.712 2.496-.068 1.78.505 5.233.861 3.453.356 4.748-.693 4.956-1.178.189-.431-1.445-.952-3.186-1.551l-.651-.23c-1.952-.695-3.16-2.336-4.764-3.818-1.526-1.415 1.819-8.195 1.819-8.195l-4.393-2.162s-.833 4.855-1.907 9.091c-.277 1.094-1.181 2.913-1.455 3.861a6.129 6.129 0 00-.299 1.609z" fill="#F9A38F"/><path d="M102.765 213.217c1.327.884 3.511 3.414 7.484 3.56a3565.885 3565.885 0 0018.51-4.249c.196-2.722-1.113-7.195-1.988-10.9-5.207 1.576-12.919-3.793-15.516-5.917-2.727-2.229-2.642-9.657-2.642-9.657l-5.49 5.178c.045.253.091.502.14.751 1.959 9.933-4.202 18.765-.498 21.234z" fill="#5C6877"/><path d="M132.944 273.039c2.493-.072 1.78.505 5.233.861 3.453.356 4.748-.693 4.956-1.178.189-.431-1.445-.952-3.186-1.551l-.026.033a9.623 9.623 0 01-5.151.466c-2.301-.444-4.582-1.619-6.167-1.942a6.148 6.148 0 00-.306 1.618c-.023 1.55 2.151 1.761 4.647 1.693z" fill="#131F2D"/><path d="M110.317 208.379c7.811-.22 31.143 1.618 35.624 4.993 5.532 4.137-10.241 48.87-10.241 48.87-.801.085-1.606.123-2.411.113-2.503-.281-3.521-1.042-3.521-1.042s.058-26.331 1.9-31.367c1.702-4.654 2.747-6.298.615-6.576-2.131-.279-28.738 3.097-30.96-4.89-1.735-6.24.83-12.017.83-12.017s.95 2.12 8.164 1.916z" fill="#00A3FE"/><path d="M106.976 168.878s-5.425.46-5.858 4.726c-.325 3.236-2.681 26.214-.976 28.208 4.78 5.622 20.729 6.816 23.079 7.667l.65-2.657s-17.022-8.531-16.765-10.47c.257-1.938 5.076-28.241-.13-27.474z" fill="#657285"/><path d="M111.167 145.175s.387-2.463-3.043-3.097c-3.43-.635-3.495 6.615-3.863 8.363-.367 1.747.55 2.793 1.859 2.912 1.308.12 5.047-8.178 5.047-8.178z" fill="#131F2D"/><path d="M124.057 206.705s4.849-1.365 6.004-1.048c1.155.317 5.112 2.913 4.556 3.634-.557.722-4.042-.424-5.646-.21s-2.844 1.003-4 .832a13.58 13.58 0 01-2.362-.622l1.448-2.586z" fill="#F9A38F"/><path d="M124.057 206.706s2.372-1.214 3.049-1.903a.183.183 0 01.071-.045.195.195 0 01.083-.009.186.186 0 01.139.086c.182.285.351.832-.482 1.375-1.197.787-2.86.496-2.86.496zm16.993.585s5.031.275 6.021.949c.989.673 3.882 4.417 3.124 4.906-.759.489-3.684-1.706-5.272-2.02-1.588-.314-3.017.03-4.055-.504a13.389 13.389 0 01-2.031-1.35l2.213-1.981z" fill="#F9A38F"/><path d="M106.484 274.447H86.012c-.976-1.195-.622-5.603-.472-7.043.03-.291.052-.459.052-.459s6.99-5.561 7.95-1.295a5.1 5.1 0 00.104.395c1.21 3.981 6.636 5.793 9.763 6.295 2.043.307 2.798 1.359 3.075 2.107z" fill="#131F2D"/><path d="M50.29 209.181c.74 0 35.068 6.408 40.746 13.399 2.838 3.492 3.255 43.824 3.255 43.824s-3.512 4.327-11.09 1.816c0 0-5.559-27.594-5.149-35.963.114-2.314-23.453-.324-27.768-1.447-4.315-1.123-14.849-10.444-12.535-14.991 2.314-4.547 12.542-6.638 12.542-6.638z" fill="#2C3747"/><path d="M75.498 206.382s2.196 1.883 4.448 2.417c1.11.239 2.2.569 3.254.988 2.038.932 5.907 5.084 5.533 5.501-1.152 1.324-5.796-2.123-6.685-1.88-.888.243 1.455 2.246.528 2.793-.488.282-1.403-1.45-2.262-1.693-1.158-.323-1.926-2.071-2.278-2.187-.674-.233-3.495-2.748-3.495-2.748l.957-3.191z" fill="#F9A38F"/><path d="M115.524 274.447H95.062c-.977-1.195-.622-5.603-.475-7.043l.052-.459s6.993-5.561 7.953-1.295c.029.136.065.265.104.395 1.207 3.981 6.635 5.793 9.763 6.295 2.043.307 2.795 1.359 3.065 2.107z" fill="#131F2D"/><path d="M60.74 208.275c.738 0 35.067 6.411 40.746 13.402 2.837 3.492 3.254 43.824 3.254 43.824s-3.505 4.327-11.084 1.825c0 0-5.558-27.596-5.148-35.966.114-2.314-23.456-.323-27.768-1.443-4.312-1.12-14.856-10.454-12.532-15.001 2.323-4.547 12.532-6.641 12.532-6.641z" fill="#364154"/><path d="M58.592 166.788a33.372 33.372 0 01-7.299-1.583c-2.795-.903-5.05-2.22-3.6-4.764 1.342-2.343 3.509-7.579 3.362-11.916l5.207 4.171 3.537 2.836a41.532 41.532 0 01-.4 4.599c-.071.534-.153 1.11-.25 1.725a1.246 1.246 0 00.579 1.258l.081.049a1.964 1.964 0 01.83 2.29c-.14.419-.42.779-.79 1.021a1.983 1.983 0 01-1.257.314z" fill="#F9A38F"/><path d="M59.796 154.842s.182.605-.13 2.845c-3.154-.511-6.099-3.01-6.099-3.01 1.605-.44 2.187-2.165 3.385-2.003l2.844 2.168z" fill="#F9A38F"/><path d="M62.712 155.347s-12.125 2.003-13.264-5.528c-1.139-7.531-3.469-12.34 4.23-13.939 7.7-1.599 9.636 1.052 10.632 3.473.996 2.421 1.526 15.285-1.598 15.994z" fill="#F9A38F"/><path d="M66.087 136.026c.52 1.812-.873 4.023-3.212 4.748-3.473 1.081-2.708 5.317-4.27 5.259-1.562-.059-2.193-2.434-3.58-.534-1.19 1.618.977 3.54.84 4.427-.257 1.528-2.662 4.648-4.826 4.489-2.164-.159-6.215-10.389-5.405-13.554.81-3.165 4.051-6.505 7.117-6.965 3.065-.459 7.328.858 8.311.858.983 0 4.741.294 5.025 1.272z" fill="#131F2D"/><path d="M69.093 206.019c-.202 1.738-.57 2.913-1.149 3.305a100.434 100.434 0 01-6.879 4.181c-9.486 5.263-22.47 10.337-25.113 1.447-3.104-10.441-1.064-30.047 1.979-42.225 1.75-7.014 6.596-14.377 9.873-14.37 5.578 0 13.603 1.476 16.844 9.424 1.253 3.078 3.095 13.749 4.035 23.519.563 5.826.804 11.328.41 14.719z" fill="#00A3FE"/><path d="M47.241 158.425l1.263-2.832s11.204 1.136 13.105 7.538c0 0-8.66-4.57-14.368-4.706z" fill="#016EB9"/><path d="M69.094 206.019c-.202 1.738-.57 2.913-1.15 3.305a100.459 100.459 0 01-6.879 4.181c-2.792-1.686-8.522-5.712-9.863-10.46-1.75-6.204-.524-13.839-.524-13.839l18.416 16.813z" fill="#079ADB"/><path d="M49.513 167.969s.976 26.668 2.496 31.94c2.603 8.994 26.316 12.195 26.316 12.195s1.4-1.576.775-4.191c0 0-14.179-11.114-14.592-13.231-.413-2.116 3.088-16.454-.918-21.667-4.006-5.214-11.386-9.726-14.077-5.046z" fill="#00A3FE"/><path d="M19.78 274.181h-.08a1.061 1.061 0 01-1.07-1.129l4.26-42.32 3.716.324-6.105 42.552a.685.685 0 01-.723.573zm21.93 0h-.079a1.061 1.061 0 01-1.07-1.129l4.26-42.32 3.719.324-6.121 42.552a.69.69 0 01-.71.573zm41.171 0h.078a1.061 1.061 0 001.071-1.129l-4.26-42.32-3.72.324 6.119 42.546a.69.69 0 00.712.579zm-61.898-49.442l-4.045-35.345c-.53-5.094 1.185-10.081 8.575-10.47l13.017-.786c7.706-.324 11.184 6.062 12.16 10.974l7.72 38.837-37.427-3.21z" fill="#6CA3EA"/><path d="M79.568 231.351H24.455a3.426 3.426 0 01-2.416-.989 3.389 3.389 0 01-1-2.4v-3.388h58.53c.903 0 1.77.357 2.409.992a3.378 3.378 0 010 4.792 3.415 3.415 0 01-2.41.993z" fill="#6CA3EA"/><path d="M55.364 231.351H24.065c-.802 0-1.57-.317-2.138-.881a3 3 0 01-.885-2.126v-3.767h34.322c.802 0 1.57.317 2.138.881.567.563.885 1.328.885 2.126v.757a2.989 2.989 0 01-.884 2.128 3.043 3.043 0 01-2.139.882zM516.946 273.9H3.918c-.582 0-1.054.469-1.054 1.048v.003c0 .58.472 1.049 1.054 1.049h513.028c.582 0 1.054-.469 1.054-1.049v-.003c0-.579-.472-1.048-1.054-1.048zM111.014 94.878h-17.15a3.073 3.073 0 00-3.081 3.065v16.363a3.073 3.073 0 003.081 3.065h17.15a3.073 3.073 0 003.082-3.065V97.943a3.074 3.074 0 00-3.082-3.065z" fill="#6CA3EA"/><path d="M110.269 95.852H94.606a2.807 2.807 0 00-2.814 2.8v14.946a2.807 2.807 0 002.814 2.799h15.663a2.807 2.807 0 002.815-2.799V98.652c0-1.546-1.261-2.8-2.815-2.8z" fill="#DCEAFF"/><path d="M102.439 98.386a.48.48 0 00.482-.478.48.48 0 00-.963 0 .48.48 0 00.481.478zm3.414.198a.479.479 0 01.476-.246.482.482 0 01.404.624.476.476 0 01-.421.33.485.485 0 01-.5-.347.475.475 0 01.041-.361zm3.339 2.638a.478.478 0 01.533.012.48.48 0 11-.533-.012zm1.653 4.084a.49.49 0 01.488.485.488.488 0 11-.834-.343.491.491 0 01.346-.142zm-1.188 5.557a.481.481 0 00.482-.479.48.48 0 00-.482-.479.48.48 0 00-.482.479c0 .264.216.479.482.479zm-2.691 2.204a.48.48 0 01-.342.82.483.483 0 01-.342-.141.482.482 0 01.684-.679zm-4.527 2.039a.481.481 0 00.482-.479.48.48 0 00-.482-.479.48.48 0 100 .958zM99.01 98.584a.48.48 0 00-.476-.248.483.483 0 00-.41.343.477.477 0 00.423.611.483.483 0 00.463-.706zm-3.336 2.638a.489.489 0 00-.54.007.48.48 0 00.188.871.479.479 0 00.495-.212.48.48 0 00-.143-.666zm-1.657 4.084a.482.482 0 10.184.927.483.483 0 00.157-.787.482.482 0 00-.34-.14zm1.185 5.557a.48.48 0 100-.958.48.48 0 100 .958zm2.691 2.204a.476.476 0 00.074.736.487.487 0 00.535 0 .48.48 0 00.205-.491.476.476 0 00-.287-.35.49.49 0 00-.37 0 .475.475 0 00-.157.105zm4.416-7.282a.48.48 0 01.823-.334.474.474 0 01.103.521.477.477 0 01-.629.258.473.473 0 01-.297-.445z" fill="#6CA3EA"/><path d="M102.858 99.785h-.132v6h.132v-6z" fill="#6CA3EA"/><path d="M105.805 103.126l-3.197 2.496.245.31 3.197-2.496-.245-.31z" fill="#6CA3EA"/></g><defs><clipPath id="clip0_334_4250"><path fill="#fff" d="M0 0h518v276H0z"/></clipPath></defs></svg>