<svg width="152" height="130" viewBox="0 0 152 130" fill="none" xmlns="http://www.w3.org/2000/svg">
<path d="M14.9179 91.4274H4.00275V140.605C3.96276 142.769 4.35893 144.918 5.16758 146.925C5.97623 148.932 7.18075 150.755 8.70914 152.285C10.2375 153.815 12.0584 155.021 14.0629 155.831C16.0674 156.641 18.2144 157.037 20.3755 156.997" stroke="#2C8ECC" stroke-width="8" stroke-miterlimit="10" stroke-linecap="square"/>
<path d="M36.7467 4V140.604C36.7867 142.768 36.3906 144.917 35.5819 146.924C34.7733 148.931 33.5687 150.754 32.0404 152.284C30.512 153.815 28.6911 155.021 26.6866 155.83C24.6821 156.64 22.5351 157.037 20.374 156.996H145.898C148.059 157.037 150.206 156.64 152.211 155.83C154.215 155.021 156.036 153.815 157.564 152.284C159.093 150.754 160.297 148.931 161.106 146.924C161.915 144.917 162.311 142.768 162.271 140.604V4H36.7467Z" stroke="#2C8ECC" stroke-width="8" stroke-miterlimit="10" stroke-linecap="square"/>
<path d="M135.896 30.3792H62.0342V67.31H135.896V30.3792Z" stroke="#2C8ECC" stroke-width="8" stroke-miterlimit="10" stroke-linecap="square"/>
<path d="M135.896 125.344H62.0342" stroke="#2C8ECC" stroke-width="8" stroke-miterlimit="10" stroke-linecap="square"/>
<path d="M135.896 98.9651H62.0342" stroke="#2C8ECC" stroke-width="8" stroke-miterlimit="10" stroke-linecap="square"/>
</svg>
