<svg width="465" height="149" fill="none" xmlns="http://www.w3.org/2000/svg"><mask id="a" maskUnits="userSpaceOnUse" x="219.302" y="18.401" width="246" height="107" fill="#000"><path fill="#fff" d="M219.302 18.4h246v107h-246z"/><path fill-rule="evenodd" clip-rule="evenodd" d="M457.175 73.508v-2.45h3.871v-6.995h-3.871v-2.63h7.039v22.03h-3.168v-9.955h-3.871zm0-12.076v2.631h-.854A2.84 2.84 0 00453.429 66a2.831 2.831 0 00-.125 1.232v.598a2.991 2.991 0 003.287 3.229h.584v2.45h-.225c-2.751 0-4.095 2.841-4.156 9.956h-3.227c0-7.922 1.613-10.612 4.842-11.33a4.456 4.456 0 01-4.245-4.754v-1.195a4.972 4.972 0 013.445-4.535 4.971 4.971 0 011.995-.218h1.571zm-18.276 52.196v-2.392h3.454l-3.454-10.741v-3.19h1.779l7.413 22.032h-3.109l-1.854-5.709h-4.229zm0-35.874v-2.392h1.764l-1.764-5.484v-8.446h.09l7.412 22.032h-3.108l-1.854-5.71h-2.54zm0-30.164V25.56h2.497v22.03h-2.497zm0-22.031V47.59h-.672v-9.955h-3.871v-2.45h3.871V28.19h-3.871v-2.631h4.543zm0 35.873v8.446l-1.764-5.487-2.779 9.025v-9.209l.895-2.775h3.648zm0 13.93v2.392h-4.543v-2.392h4.543zm0 21.944v3.189l-.074-.23-3.379 10.971h3.453v2.392h-4.081l-.462 1.402v-9.718l2.585-8.006h1.958zm-4.543-71.747v2.63h-.854a2.839 2.839 0 00-3.017 3.17v.597a2.992 2.992 0 003.288 3.229h.583v2.45h-.225c-2.75 0-4.095 2.84-4.156 9.955h-3.227c0-7.92 1.614-10.612 4.842-11.329a4.455 4.455 0 01-4.245-4.755v-1.194a4.989 4.989 0 011.698-3.547 4.976 4.976 0 013.743-1.206h1.57zm0 38.648v9.209l-.6 1.946h.6v2.392h-1.228l-1.882 5.71h-3.109l6.219-19.257zm0 41.105v9.718l-1.421 4.307h-3.108l4.529-14.025zm-16.094 14.025v-2.451h1.076c2.81 0 3.885-1.674 3.885-4.305a3.645 3.645 0 00-1.097-3.02 3.65 3.65 0 00-3.058-.986h-.806v-2.422h.867c2.003 0 2.78-1.345 2.78-3.107 0-1.884-.927-3.29-2.811-3.29h-.836v-2.45h.777c4.064 0 5.859 2.361 5.859 4.992a4.29 4.29 0 01-3.23 4.843 5.262 5.262 0 014.784 5.649c0 4.305-2.66 6.547-7.563 6.547h-.627zm0-45.798v-2.481h2.466v-9.626h3.169v22.032h-3.169v-9.925h-2.466zm0-31.659V31.777l5.32 15.813h-3.108l-1.854-5.71h-.358zm0-10.103V41.88h-3.871v-2.39h3.454l-3.454-10.74v-3.19h1.779l2.092 6.218zm0 39.28v2.482h-3.871v-2.481h3.871zm0 26.249v2.45h-3.647v6.397h3.647v2.422h-3.647v8.311h3.647v2.451h-3.871V97.306h3.871zm-3.871-71.747v3.19l-.074-.231-3.379 10.97h3.453v2.392h-4.081l-1.883 5.71h-3.108l7.114-22.031h1.958zm0 45.499v2.481h-2.571v9.925h-3.169V61.432h3.169v9.626h2.571zm0 26.248v22.031h-2.856V97.306h2.856zm-55.38 16.322v-2.392h3.453l-3.453-10.738v-3.192h1.779l7.413 22.031h-3.109l-1.853-5.709h-4.23zm0-30.836V78.93a6.072 6.072 0 00.358-2.223 4.906 4.906 0 00-.358-1.952v-3.21a5.223 5.223 0 013.587 5.371 5.764 5.764 0 01-3.587 5.876zm0-12v-8.354a4.647 4.647 0 012.032 3.986 4.498 4.498 0 01-2.032 4.368zm0-23.202V25.56h3.035v22.03h-3.035zm0-27.553v-.636h.044c0 .213-.014.425-.044.636zm23.119 26.955v-2.48c-1.365.642-2.856.97-4.365.956-4.604 0-6.936-2.332-6.936-8.64v-.298c0-5.71 2.063-8.55 6.248-8.55a12.472 12.472 0 015.053.807v-2.81a12.598 12.598 0 00-4.724-.717c-6.308 0-9.864 4.155-9.864 10.971v.897c0 7.713 4.454 10.821 9.445 10.821 1.768.119 3.536-.21 5.143-.957zm16.465-21.433c0 7.653-.866 9.625-4.005 9.625h-3.885V25.56h-3.17v22.03h3.17v-9.955h4.064c2.751 0 4.097 2.84 4.156 9.955h3.228c0-7.92-1.613-10.612-4.842-11.329 2.78-.568 4.424-2.182 4.424-10.702h-3.14zm-16.809 57.905V81.04h-10.313v-7.533h7.921v-2.42h-7.921v-7.205h9.863v-2.45h-12.944v22.03h13.394zm20.204 0V61.432h-3.168v9.626h-8.909v-9.626h-3.169v22.032h3.169v-9.925h8.909v9.925h3.168zm-17.798 16.442v-2.6h-14.049v2.6h5.44v19.431h3.168v-19.43h5.441zm4.359 19.431V97.306h3.169v15.753L401.735 98.5v-1.194h3.139v22.031h-3.169v-15.874l-9.985 14.378v1.496h-3.169zm-29.54-99.936v.636a4.924 4.924 0 01-4.603 4.101v-2.251a2.63 2.63 0 002.466-2.486h2.137zm0 6.158V47.59h-.135V31.716l-4.468 6.435v-4.858l4.498-6.54V25.56h.105zm0 36.88v8.353a5.178 5.178 0 01-1.196.475c.406.057.807.15 1.196.279v3.21a3.698 3.698 0 00-3.798-2.054h-.805V70.28h.866c2.004 0 2.78-1.345 2.78-3.107 0-1.884-.927-3.29-2.81-3.29h-.836v-2.45h.776a6.752 6.752 0 013.827 1.005zm0 16.49v3.863c-1.269.478-2.62.707-3.977.672h-.626v-2.452h1.075a3.366 3.366 0 003.528-2.083zm0 18.377v3.192l-.074-.233-3.379 10.971h3.453v2.392h-4.081l-.522 1.583v-9.714l2.645-8.191h1.958zm-4.603-75.42v2.252c-.134.01-.269.017-.405.017a4.785 4.785 0 01-5.051-4.754h2.151a2.737 2.737 0 002.871 2.51c.145 0 .29-.008.434-.024zm0 11.407v4.858l-5.516 7.944v1.495h-3.169V25.56h3.169v15.754l5.516-8.02zm0 28.14v2.45h-3.647v6.397h3.647v2.422h-3.647v8.31h3.647v2.452h-6.728V61.432h6.728zm0 44.064v9.714l-1.36 4.126h-3.11l4.47-13.84zm-83.43 3.916v-2.482h4.066v-9.625h3.167v22.031h-3.167v-9.924h-4.066zm0-25.95v-2.48h3.303v-19.55h3.078v19.55h7.295v-19.55h3.079v19.55h1.674v7.981h-2.571v-5.5h-15.858zm0-35.514v-2.273c3.616 0 5.47-1.883 5.47-8.698v-.599c0-5.8-1.404-8.669-5.47-8.669v-2.45c5.947 0 8.729 3.885 8.729 10.821v1.196c0 7.653-3.438 10.672-8.729 10.672zm27.527-.957v-2.48c-1.364.642-2.857.97-4.365.956-4.604 0-6.935-2.332-6.935-8.64v-.298c0-5.71 2.063-8.55 6.247-8.55a12.469 12.469 0 015.053.807v-2.81a12.598 12.598 0 00-4.724-.717c-6.308 0-9.864 4.155-9.864 10.971v.897c0 7.713 4.454 10.821 9.445 10.821a10.52 10.52 0 005.143-.957zm18.828 0v-2.48a10.03 10.03 0 01-4.364.956c-4.605 0-6.936-2.332-6.936-8.64v-.298c0-5.71 2.063-8.55 6.247-8.55a12.469 12.469 0 015.053.807v-2.81a12.592 12.592 0 00-4.723-.717c-6.308 0-9.865 4.155-9.865 10.971v.897c0 7.713 4.455 10.821 9.445 10.821a10.53 10.53 0 005.143-.957zm5.406.598V25.56h3.169v15.754l10.014-14.56V25.56h3.14v22.03h-3.17V31.716l-9.984 14.38v1.494h-3.169zm-14.953 35.874V81.04h-10.312v-7.533h7.921v-2.42h-7.921v-7.205h9.864v-2.45h-12.944v22.03h13.392zm18.382-.598v-2.481a10.04 10.04 0 01-4.365.957c-4.604 0-6.936-2.333-6.936-8.64v-.299c0-5.71 2.063-8.55 6.248-8.55a12.477 12.477 0 015.053.808v-2.81a12.606 12.606 0 00-4.725-.718c-6.307 0-9.863 4.156-9.863 10.971V73c0 7.714 4.454 10.823 9.445 10.823 1.768.118 3.536-.21 5.143-.957zm17.154-18.833v-2.6h-14.05v2.6h5.44v19.43h3.168v-19.43h5.442zm-58.449 55.304V97.306h3.169v15.753L298.056 98.5v-1.194h3.14v22.031h-3.17v-15.874l-9.984 14.378v1.496h-3.169zm36.943 0v5.501h2.571v-7.982h-1.672v-19.55h-3.17v19.55h-8.519v-19.55h-3.169v22.031h13.959zm7.559 0V97.306h3.17v15.753L342.559 98.5v-1.194h3.139v22.031h-3.169v-15.874l-9.984 14.378v1.496h-3.17zm-71.128-86.394v-1.376a5.766 5.766 0 00-1.795-4.453 5.779 5.779 0 00-4.543-1.555h-.716v2.6h.806a3.01 3.01 0 012.991 3.347v1.526a2.703 2.703 0 01-.669 2.163 2.695 2.695 0 01-2.082.886h-1.046v2.57h1.106a5.576 5.576 0 005.948-5.708zm12.731-7.683v2.45h-.001c-3.856 0-5.47 2.362-5.47 8.67v.538c0 6.547 1.913 8.758 5.47 8.758h.001v2.273h-.001c-5.232 0-8.729-3.259-8.729-10.613v-1.255c0-6.666 2.84-10.821 8.729-10.821h.001zm0 55.723v2.48h-7.071v-22.03h3.08v19.55h3.991zm0 25.949v2.481h-4.843v9.924h-3.17V97.306h3.17v9.625l4.843.001zm-19.785-.673v-4.891l1.972-2.868v-1.194h3.139v22.031h-3.17v-15.874l-1.941 2.796zm0-22.809v-2.44c2.664-.077 3.692-1.733 3.692-4.303a3.592 3.592 0 00-.929-2.844 3.585 3.585 0 00-2.763-1.146v-2.431a6.287 6.287 0 016.921 6.63c0 4.113-2.43 6.344-6.921 6.534zm0-19.567v-2.45h5.604v2.45h-5.604zm0-38.324h-6.937V47.59h3.14v-8.938h3.797v-2.57h-3.797V28.16h3.797v-2.601zm0 35.873v2.45h-4.918v6.398h4.513l.405.006v2.43a6.938 6.938 0 00-.463-.014h-4.455v8.31h4.723l.195-.003v2.441c-.21.01-.424.014-.643.014h-7.384V61.432h8.027zm0 39.936v4.891l-8.042 11.582v1.496h-3.17V97.306h3.17v15.753l8.042-11.691zm-22.162-17.545V81.55c3.618 0 5.471-1.882 5.471-8.698v-.6c0-5.799-1.405-8.668-5.471-8.668v-2.45c5.949 0 8.731 3.885 8.731 10.82v1.197c0 7.653-3.439 10.672-8.731 10.672zm0-22.69v2.45c-3.856 0-5.47 2.362-5.47 8.67v.538c0 6.547 1.912 8.759 5.47 8.759v2.273c-5.232 0-8.729-3.26-8.729-10.613v-1.256c0-6.665 2.841-10.82 8.729-10.82z"/></mask><path fill-rule="evenodd" clip-rule="evenodd" d="M457.175 73.508v-2.45h3.871v-6.995h-3.871v-2.63h7.039v22.03h-3.168v-9.955h-3.871zm0-12.076v2.631h-.854A2.84 2.84 0 00453.429 66a2.831 2.831 0 00-.125 1.232v.598a2.991 2.991 0 003.287 3.229h.584v2.45h-.225c-2.751 0-4.095 2.841-4.156 9.956h-3.227c0-7.922 1.613-10.612 4.842-11.33a4.456 4.456 0 01-4.245-4.754v-1.195a4.972 4.972 0 013.445-4.535 4.971 4.971 0 011.995-.218h1.571zm-18.276 52.196v-2.392h3.454l-3.454-10.741v-3.19h1.779l7.413 22.032h-3.109l-1.854-5.709h-4.229zm0-35.874v-2.392h1.764l-1.764-5.484v-8.446h.09l7.412 22.032h-3.108l-1.854-5.71h-2.54zm0-30.164V25.56h2.497v22.03h-2.497zm0-22.031V47.59h-.672v-9.955h-3.871v-2.45h3.871V28.19h-3.871v-2.631h4.543zm0 35.873v8.446l-1.764-5.487-2.779 9.025v-9.209l.895-2.775h3.648zm0 13.93v2.392h-4.543v-2.392h4.543zm0 21.944v3.189l-.074-.23-3.379 10.971h3.453v2.392h-4.081l-.462 1.402v-9.718l2.585-8.006h1.958zm-4.543-71.747v2.63h-.854a2.839 2.839 0 00-3.017 3.17v.597a2.992 2.992 0 003.288 3.229h.583v2.45h-.225c-2.75 0-4.095 2.84-4.156 9.955h-3.227c0-7.92 1.614-10.612 4.842-11.329a4.455 4.455 0 01-4.245-4.755v-1.194a4.989 4.989 0 011.698-3.547 4.976 4.976 0 013.743-1.206h1.57zm0 38.648v9.209l-.6 1.946h.6v2.392h-1.228l-1.882 5.71h-3.109l6.219-19.257zm0 41.105v9.718l-1.421 4.307h-3.108l4.529-14.025zm-16.094 14.025v-2.451h1.076c2.81 0 3.885-1.674 3.885-4.305a3.645 3.645 0 00-1.097-3.02 3.65 3.65 0 00-3.058-.986h-.806v-2.422h.867c2.003 0 2.78-1.345 2.78-3.107 0-1.884-.927-3.29-2.811-3.29h-.836v-2.45h.777c4.064 0 5.859 2.361 5.859 4.992a4.29 4.29 0 01-3.23 4.843 5.262 5.262 0 014.784 5.649c0 4.305-2.66 6.547-7.563 6.547h-.627zm0-45.798v-2.481h2.466v-9.626h3.169v22.032h-3.169v-9.925h-2.466zm0-31.659V31.777l5.32 15.813h-3.108l-1.854-5.71h-.358zm0-10.103V41.88h-3.871v-2.39h3.454l-3.454-10.74v-3.19h1.779l2.092 6.218zm0 39.28v2.482h-3.871v-2.481h3.871zm0 26.249v2.45h-3.647v6.397h3.647v2.422h-3.647v8.311h3.647v2.451h-3.871V97.306h3.871zm-3.871-71.747v3.19l-.074-.231-3.379 10.97h3.453v2.392h-4.081l-1.883 5.71h-3.108l7.114-22.031h1.958zm0 45.499v2.481h-2.571v9.925h-3.169V61.432h3.169v9.626h2.571zm0 26.248v22.031h-2.856V97.306h2.856zm-55.38 16.322v-2.392h3.453l-3.453-10.738v-3.192h1.779l7.413 22.031h-3.109l-1.853-5.709h-4.23zm0-30.836V78.93a6.072 6.072 0 00.358-2.223 4.906 4.906 0 00-.358-1.952v-3.21a5.223 5.223 0 013.587 5.371 5.764 5.764 0 01-3.587 5.876zm0-12v-8.354a4.647 4.647 0 012.032 3.986 4.498 4.498 0 01-2.032 4.368zm0-23.202V25.56h3.035v22.03h-3.035zm0-27.553v-.636h.044c0 .213-.014.425-.044.636zm23.119 26.955v-2.48c-1.365.642-2.856.97-4.365.956-4.604 0-6.936-2.332-6.936-8.64v-.298c0-5.71 2.063-8.55 6.248-8.55a12.472 12.472 0 015.053.807v-2.81a12.598 12.598 0 00-4.724-.717c-6.308 0-9.864 4.155-9.864 10.971v.897c0 7.713 4.454 10.821 9.445 10.821 1.768.119 3.536-.21 5.143-.957zm16.465-21.433c0 7.653-.866 9.625-4.005 9.625h-3.885V25.56h-3.17v22.03h3.17v-9.955h4.064c2.751 0 4.097 2.84 4.156 9.955h3.228c0-7.92-1.613-10.612-4.842-11.329 2.78-.568 4.424-2.182 4.424-10.702h-3.14zm-16.809 57.905V81.04h-10.313v-7.533h7.921v-2.42h-7.921v-7.205h9.863v-2.45h-12.944v22.03h13.394zm20.204 0V61.432h-3.168v9.626h-8.909v-9.626h-3.169v22.032h3.169v-9.925h8.909v9.925h3.168zm-17.798 16.442v-2.6h-14.049v2.6h5.44v19.431h3.168v-19.43h5.441zm4.359 19.431V97.306h3.169v15.753L401.735 98.5v-1.194h3.139v22.031h-3.169v-15.874l-9.985 14.378v1.496h-3.169zm-29.54-99.936v.636a4.924 4.924 0 01-4.603 4.101v-2.251a2.63 2.63 0 002.466-2.486h2.137zm0 6.158V47.59h-.135V31.716l-4.468 6.435v-4.858l4.498-6.54V25.56h.105zm0 36.88v8.353a5.178 5.178 0 01-1.196.475c.406.057.807.15 1.196.279v3.21a3.698 3.698 0 00-3.798-2.054h-.805V70.28h.866c2.004 0 2.78-1.345 2.78-3.107 0-1.884-.927-3.29-2.81-3.29h-.836v-2.45h.776a6.752 6.752 0 013.827 1.005zm0 16.49v3.863c-1.269.478-2.62.707-3.977.672h-.626v-2.452h1.075a3.366 3.366 0 003.528-2.083zm0 18.377v3.192l-.074-.233-3.379 10.971h3.453v2.392h-4.081l-.522 1.583v-9.714l2.645-8.191h1.958zm-4.603-75.42v2.252c-.134.01-.269.017-.405.017a4.785 4.785 0 01-5.051-4.754h2.151a2.737 2.737 0 002.871 2.51c.145 0 .29-.008.434-.024zm0 11.407v4.858l-5.516 7.944v1.495h-3.169V25.56h3.169v15.754l5.516-8.02zm0 28.14v2.45h-3.647v6.397h3.647v2.422h-3.647v8.31h3.647v2.452h-6.728V61.432h6.728zm0 44.064v9.714l-1.36 4.126h-3.11l4.47-13.84zm-83.43 3.916v-2.482h4.066v-9.625h3.167v22.031h-3.167v-9.924h-4.066zm0-25.95v-2.48h3.303v-19.55h3.078v19.55h7.295v-19.55h3.079v19.55h1.674v7.981h-2.571v-5.5h-15.858zm0-35.514v-2.273c3.616 0 5.47-1.883 5.47-8.698v-.599c0-5.8-1.404-8.669-5.47-8.669v-2.45c5.947 0 8.729 3.885 8.729 10.821v1.196c0 7.653-3.438 10.672-8.729 10.672zm27.527-.957v-2.48c-1.364.642-2.857.97-4.365.956-4.604 0-6.935-2.332-6.935-8.64v-.298c0-5.71 2.063-8.55 6.247-8.55a12.469 12.469 0 015.053.807v-2.81a12.598 12.598 0 00-4.724-.717c-6.308 0-9.864 4.155-9.864 10.971v.897c0 7.713 4.454 10.821 9.445 10.821a10.52 10.52 0 005.143-.957zm18.828 0v-2.48a10.03 10.03 0 01-4.364.956c-4.605 0-6.936-2.332-6.936-8.64v-.298c0-5.71 2.063-8.55 6.247-8.55a12.469 12.469 0 015.053.807v-2.81a12.592 12.592 0 00-4.723-.717c-6.308 0-9.865 4.155-9.865 10.971v.897c0 7.713 4.455 10.821 9.445 10.821a10.53 10.53 0 005.143-.957zm5.406.598V25.56h3.169v15.754l10.014-14.56V25.56h3.14v22.03h-3.17V31.716l-9.984 14.38v1.494h-3.169zm-14.953 35.874V81.04h-10.312v-7.533h7.921v-2.42h-7.921v-7.205h9.864v-2.45h-12.944v22.03h13.392zm18.382-.598v-2.481a10.04 10.04 0 01-4.365.957c-4.604 0-6.936-2.333-6.936-8.64v-.299c0-5.71 2.063-8.55 6.248-8.55a12.477 12.477 0 015.053.808v-2.81a12.606 12.606 0 00-4.725-.718c-6.307 0-9.863 4.156-9.863 10.971V73c0 7.714 4.454 10.823 9.445 10.823 1.768.118 3.536-.21 5.143-.957zm17.154-18.833v-2.6h-14.05v2.6h5.44v19.43h3.168v-19.43h5.442zm-58.449 55.304V97.306h3.169v15.753L298.056 98.5v-1.194h3.14v22.031h-3.17v-15.874l-9.984 14.378v1.496h-3.169zm36.943 0v5.501h2.571v-7.982h-1.672v-19.55h-3.17v19.55h-8.519v-19.55h-3.169v22.031h13.959zm7.559 0V97.306h3.17v15.753L342.559 98.5v-1.194h3.139v22.031h-3.169v-15.874l-9.984 14.378v1.496h-3.17zm-71.128-86.394v-1.376a5.766 5.766 0 00-1.795-4.453 5.779 5.779 0 00-4.543-1.555h-.716v2.6h.806a3.01 3.01 0 012.991 3.347v1.526a2.703 2.703 0 01-.669 2.163 2.695 2.695 0 01-2.082.886h-1.046v2.57h1.106a5.576 5.576 0 005.948-5.708zm12.731-7.683v2.45h-.001c-3.856 0-5.47 2.362-5.47 8.67v.538c0 6.547 1.913 8.758 5.47 8.758h.001v2.273h-.001c-5.232 0-8.729-3.259-8.729-10.613v-1.255c0-6.666 2.84-10.821 8.729-10.821h.001zm0 55.723v2.48h-7.071v-22.03h3.08v19.55h3.991zm0 25.949v2.481h-4.843v9.924h-3.17V97.306h3.17v9.625l4.843.001zm-19.785-.673v-4.891l1.972-2.868v-1.194h3.139v22.031h-3.17v-15.874l-1.941 2.796zm0-22.809v-2.44c2.664-.077 3.692-1.733 3.692-4.303a3.592 3.592 0 00-.929-2.844 3.585 3.585 0 00-2.763-1.146v-2.431a6.287 6.287 0 016.921 6.63c0 4.113-2.43 6.344-6.921 6.534zm0-19.567v-2.45h5.604v2.45h-5.604zm0-38.324h-6.937V47.59h3.14v-8.938h3.797v-2.57h-3.797V28.16h3.797v-2.601zm0 35.873v2.45h-4.918v6.398h4.513l.405.006v2.43a6.938 6.938 0 00-.463-.014h-4.455v8.31h4.723l.195-.003v2.441c-.21.01-.424.014-.643.014h-7.384V61.432h8.027zm0 39.936v4.891l-8.042 11.582v1.496h-3.17V97.306h3.17v15.753l8.042-11.691zm-22.162-17.545V81.55c3.618 0 5.471-1.882 5.471-8.698v-.6c0-5.799-1.405-8.668-5.471-8.668v-2.45c5.949 0 8.731 3.885 8.731 10.82v1.197c0 7.653-3.439 10.672-8.731 10.672zm0-22.69v2.45c-3.856 0-5.47 2.362-5.47 8.67v.538c0 6.547 1.912 8.759 5.47 8.759v2.273c-5.232 0-8.729-3.26-8.729-10.613v-1.256c0-6.665 2.841-10.82 8.729-10.82z" fill="#2779A8"/><path clip-rule="evenodd" d="M457.175 73.508v-2.45h3.871v-6.995h-3.871v-2.63h7.039v22.03h-3.168v-9.955h-3.871zm0-12.076v2.631h-.854A2.84 2.84 0 00453.429 66a2.831 2.831 0 00-.125 1.232v.598a2.991 2.991 0 003.287 3.229h.584v2.45h-.225c-2.751 0-4.095 2.841-4.156 9.956h-3.227c0-7.922 1.613-10.612 4.842-11.33a4.456 4.456 0 01-4.245-4.754v-1.195a4.972 4.972 0 013.445-4.535 4.971 4.971 0 011.995-.218h1.571zm-18.276 52.196v-2.392h3.454l-3.454-10.741v-3.19h1.779l7.413 22.032h-3.109l-1.854-5.709h-4.229zm0-35.874v-2.392h1.764l-1.764-5.484v-8.446h.09l7.412 22.032h-3.108l-1.854-5.71h-2.54zm0-30.164V25.56h2.497v22.03h-2.497zm0-22.031V47.59h-.672v-9.955h-3.871v-2.45h3.871V28.19h-3.871v-2.631h4.543zm0 35.873v8.446l-1.764-5.487-2.779 9.025v-9.209l.895-2.775h3.648zm0 13.93v2.392h-4.543v-2.392h4.543zm0 21.944v3.189l-.074-.23-3.379 10.971h3.453v2.392h-4.081l-.462 1.402v-9.718l2.585-8.006h1.958zm-4.543-71.747v2.63h-.854a2.839 2.839 0 00-3.017 3.17v.597a2.992 2.992 0 003.288 3.229h.583v2.45h-.225c-2.75 0-4.095 2.84-4.156 9.955h-3.227c0-7.92 1.614-10.612 4.842-11.329a4.455 4.455 0 01-4.245-4.755v-1.194a4.989 4.989 0 011.698-3.547 4.976 4.976 0 013.743-1.206h1.57zm0 38.648v9.209l-.6 1.946h.6v2.392h-1.228l-1.882 5.71h-3.109l6.219-19.257zm0 41.105v9.718l-1.421 4.307h-3.108l4.529-14.025zm-16.094 14.025v-2.451h1.076c2.81 0 3.885-1.674 3.885-4.305a3.645 3.645 0 00-1.097-3.02 3.65 3.65 0 00-3.058-.986h-.806v-2.422h.867c2.003 0 2.78-1.345 2.78-3.107 0-1.884-.927-3.29-2.811-3.29h-.836v-2.45h.777c4.064 0 5.859 2.361 5.859 4.992a4.29 4.29 0 01-3.23 4.843 5.262 5.262 0 014.784 5.649c0 4.305-2.66 6.547-7.563 6.547h-.627zm0-45.798v-2.481h2.466v-9.626h3.169v22.032h-3.169v-9.925h-2.466zm0-31.659V31.777l5.32 15.813h-3.108l-1.854-5.71h-.358zm0-10.103V41.88h-3.871v-2.39h3.454l-3.454-10.74v-3.19h1.779l2.092 6.218v0zm0 39.28v2.482h-3.871v-2.481h3.871zm0 26.249v2.45h-3.647v6.397h3.647v2.422h-3.647v8.311h3.647v2.451h-3.871V97.306h3.871zm-3.871-71.747v3.19l-.074-.231-3.379 10.97h3.453v2.392h-4.081l-1.883 5.71h-3.108l7.114-22.031h1.958zm0 45.499v2.481h-2.571v9.925h-3.169V61.432h3.169v9.626h2.571zm0 26.248v22.031h-2.856V97.306h2.856zm-55.38 16.322v-2.392h3.453l-3.453-10.738v-3.192h1.779l7.413 22.031h-3.109l-1.853-5.709h-4.23zm0-30.836V78.93a6.072 6.072 0 00.358-2.223 4.906 4.906 0 00-.358-1.952v-3.21a5.223 5.223 0 013.587 5.371 5.764 5.764 0 01-3.587 5.876zm0-12v-8.354a4.647 4.647 0 012.032 3.986 4.498 4.498 0 01-2.032 4.368zm0-23.202V25.56h3.035v22.03h-3.035zm0-27.553v-.636h.044c0 .213-.014.425-.044.636zm23.119 26.955v-2.48c-1.365.642-2.856.97-4.365.956-4.604 0-6.936-2.332-6.936-8.64v-.298c0-5.71 2.063-8.55 6.248-8.55a12.472 12.472 0 015.053.807v-2.81a12.598 12.598 0 00-4.724-.717c-6.308 0-9.864 4.155-9.864 10.971v.897c0 7.713 4.454 10.821 9.445 10.821 1.768.119 3.536-.21 5.143-.957zm16.465-21.433c0 7.653-.866 9.625-4.005 9.625h-3.885V25.56h-3.17v22.03h3.17v-9.955h4.064c2.751 0 4.097 2.84 4.156 9.955h3.228c0-7.92-1.613-10.612-4.842-11.329 2.78-.568 4.424-2.182 4.424-10.702h-3.14zm-16.809 57.905V81.04h-10.313v-7.533h7.921v-2.42h-7.921v-7.205h9.863v-2.45h-12.944v22.03h13.394zm20.204 0V61.432h-3.168v9.626h-8.909v-9.626h-3.169v22.032h3.169v-9.925h8.909v9.925h3.168zm-17.798 16.442v-2.6h-14.049v2.6h5.44v19.431h3.168v-19.43h5.441zm4.359 19.431V97.306h3.169v15.753L401.735 98.5v-1.194h3.139v22.031h-3.169v-15.874l-9.985 14.378v1.496h-3.169zm-29.54-99.936v.636a4.924 4.924 0 01-4.603 4.101v-2.251a2.63 2.63 0 002.466-2.486h2.137zm0 6.158V47.59h-.135V31.716l-4.468 6.435v-4.858l4.498-6.54V25.56h.105zm0 36.88v8.353a5.178 5.178 0 01-1.196.475c.406.057.807.15 1.196.279v3.21a3.698 3.698 0 00-3.798-2.054h-.805V70.28h.866c2.004 0 2.78-1.345 2.78-3.107 0-1.884-.927-3.29-2.81-3.29h-.836v-2.45h.776a6.752 6.752 0 013.827 1.005zm0 16.49v3.863c-1.269.478-2.62.707-3.977.672h-.626v-2.452h1.075a3.366 3.366 0 003.528-2.083v0zm0 18.377v3.192l-.074-.233-3.379 10.971h3.453v2.392h-4.081l-.522 1.583v-9.714l2.645-8.191h1.958zm-4.603-75.42v2.252c-.134.01-.269.017-.405.017a4.785 4.785 0 01-5.051-4.754h2.151a2.737 2.737 0 002.871 2.51c.145 0 .29-.008.434-.024zm0 11.407v4.858l-5.516 7.944v1.495h-3.169V25.56h3.169v15.754l5.516-8.02v0zm0 28.14v2.45h-3.647v6.397h3.647v2.422h-3.647v8.31h3.647v2.452h-6.728V61.432h6.728zm0 44.064v9.714l-1.36 4.126h-3.11l4.47-13.84zm-83.43 3.916v-2.482h4.066v-9.625h3.167v22.031h-3.167v-9.924h-4.066zm0-25.95v-2.48h3.303v-19.55h3.078v19.55h7.295v-19.55h3.079v19.55h1.674v7.981h-2.571v-5.5h-15.858zm0-35.514v-2.273c3.616 0 5.47-1.883 5.47-8.698v-.599c0-5.8-1.404-8.669-5.47-8.669v-2.45c5.947 0 8.729 3.885 8.729 10.821v1.196c0 7.653-3.438 10.672-8.729 10.672zm27.527-.957v-2.48c-1.364.642-2.857.97-4.365.956-4.604 0-6.935-2.332-6.935-8.64v-.298c0-5.71 2.063-8.55 6.247-8.55a12.469 12.469 0 015.053.807v-2.81a12.598 12.598 0 00-4.724-.717c-6.308 0-9.864 4.155-9.864 10.971v.897c0 7.713 4.454 10.821 9.445 10.821a10.52 10.52 0 005.143-.957zm18.828 0v-2.48a10.03 10.03 0 01-4.364.956c-4.605 0-6.936-2.332-6.936-8.64v-.298c0-5.71 2.063-8.55 6.247-8.55a12.469 12.469 0 015.053.807v-2.81a12.592 12.592 0 00-4.723-.717c-6.308 0-9.865 4.155-9.865 10.971v.897c0 7.713 4.455 10.821 9.445 10.821a10.53 10.53 0 005.143-.957zm5.406.598V25.56h3.169v15.754l10.014-14.56V25.56h3.14v22.03h-3.17V31.716l-9.984 14.38v1.494h-3.169zm-14.953 35.874V81.04h-10.312v-7.533h7.921v-2.42h-7.921v-7.205h9.864v-2.45h-12.944v22.03h13.392zm18.382-.598v-2.481a10.04 10.04 0 01-4.365.957c-4.604 0-6.936-2.333-6.936-8.64v-.299c0-5.71 2.063-8.55 6.248-8.55a12.477 12.477 0 015.053.808v-2.81a12.606 12.606 0 00-4.725-.718c-6.307 0-9.863 4.156-9.863 10.971V73c0 7.714 4.454 10.823 9.445 10.823 1.768.118 3.536-.21 5.143-.957zm17.154-18.833v-2.6h-14.05v2.6h5.44v19.43h3.168v-19.43h5.442zm-58.449 55.304V97.306h3.169v15.753L298.056 98.5v-1.194h3.14v22.031h-3.17v-15.874l-9.984 14.378v1.496h-3.169zm36.943 0v5.501h2.571v-7.982h-1.672v-19.55h-3.17v19.55h-8.519v-19.55h-3.169v22.031h13.959zm7.559 0V97.306h3.17v15.753L342.559 98.5v-1.194h3.139v22.031h-3.169v-15.874l-9.984 14.378v1.496h-3.17zm-71.128-86.394v-1.376a5.766 5.766 0 00-1.795-4.453 5.779 5.779 0 00-4.543-1.555h-.716v2.6h.806a3.01 3.01 0 012.991 3.347v1.526a2.703 2.703 0 01-.669 2.163 2.695 2.695 0 01-2.082.886h-1.046v2.57h1.106a5.576 5.576 0 005.948-5.708zm12.731-7.683v2.45h-.001c-3.856 0-5.47 2.362-5.47 8.67v.538c0 6.547 1.913 8.758 5.47 8.758h.001v2.273h-.001c-5.232 0-8.729-3.259-8.729-10.613v-1.255c0-6.666 2.84-10.821 8.729-10.821h.001zm0 55.723v2.48h-7.071v-22.03h3.08v19.55h3.991zm0 25.949v2.481h-4.843v9.924h-3.17V97.306h3.17v9.625l4.843.001zm-19.785-.673v-4.891l1.972-2.868v-1.194h3.139v22.031h-3.17v-15.874l-1.941 2.796zm0-22.809v-2.44c2.664-.077 3.692-1.733 3.692-4.303a3.592 3.592 0 00-.929-2.844 3.585 3.585 0 00-2.763-1.146v-2.431a6.287 6.287 0 016.921 6.63c0 4.113-2.43 6.344-6.921 6.534zm0-19.567v-2.45h5.604v2.45h-5.604zm0-38.324h-6.937V47.59h3.14v-8.938h3.797v-2.57h-3.797V28.16h3.797v-2.601zm0 35.873v2.45h-4.918v6.398h4.513l.405.006v2.43a6.938 6.938 0 00-.463-.014h-4.455v8.31h4.723l.195-.003v2.441c-.21.01-.424.014-.643.014h-7.384V61.432h8.027zm0 39.936v4.891l-8.042 11.582v1.496h-3.17V97.306h3.17v15.753l8.042-11.691zm-22.162-17.545V81.55c3.618 0 5.471-1.882 5.471-8.698v-.6c0-5.799-1.405-8.668-5.471-8.668v-2.45c5.949 0 8.731 3.885 8.731 10.82v1.197c0 7.653-3.439 10.672-8.731 10.672zm0-22.69v2.45c-3.856 0-5.47 2.362-5.47 8.67v.538c0 6.547 1.912 8.759 5.47 8.759v2.273c-5.232 0-8.729-3.26-8.729-10.613v-1.256c0-6.665 2.841-10.82 8.729-10.82z" stroke="#2779A8" stroke-width="1.032" mask="url(#a)"/><path fill-rule="evenodd" clip-rule="evenodd" d="M96.16 29.308a4.465 4.465 0 118.041-3.889 331.466 331.466 0 0140.014 82.316 4.466 4.466 0 01-8.041 3.889 295.83 295.83 0 00-32.383-70.777L9.68 116.082l2.083 4.289 102.501-51.28c6.576 13.637 12.668 28.405 18.381 44.058l-50.316 9.284c5.836 21.735-25.614 36.041-41.592 18.001a4.448 4.448 0 01-.576-4.919 4.454 4.454 0 017.362-.852c9.52 11.202 29.829-.675 26.11-10.625l-55.145 10.175.21.429a4.454 4.454 0 01-8.02 3.875L.444 117.449a4.454 4.454 0 017.782-4.303l89.738-81.214a338.819 338.819 0 00-1.803-2.625z" fill="#2779A8"/><path fill-rule="evenodd" clip-rule="evenodd" d="M134.275 53.257a2.926 2.926 0 01-.934-2.047 2.937 2.937 0 013.97-2.846c.361.137.692.343.973.608a38.595 38.595 0 0112.223 28.135 2.95 2.95 0 01-5.9 0 32.597 32.597 0 00-10.332-23.85z" fill="#D3D4D6"/><path fill-rule="evenodd" clip-rule="evenodd" d="M131.845 26.756a3.249 3.249 0 01.925-5.936 3.255 3.255 0 012.46.387 67.496 67.496 0 0127.61 82.72 3.247 3.247 0 01-6.033-2.394 61.063 61.063 0 00-24.962-74.777z" fill="#2779A8"/><path fill-rule="evenodd" clip-rule="evenodd" d="M130.213 6.25a3.249 3.249 0 012.469-6.008 85.103 85.103 0 0152.472 82.734 85.09 85.09 0 01-8.634 33.459 3.242 3.242 0 01-5.979-.376 3.242 3.242 0 01.15-2.475 78.637 78.637 0 003-62.43A78.658 78.658 0 00130.213 6.25z" fill="#ED1C24"/></svg>