<svg xmlns="http://www.w3.org/2000/svg"><defs>
<clipPath id="clip0">
<rect width="18" height="18" fill="white"/>
</clipPath>
</defs><symbol id="icon-arrow" viewBox="0 0 33 12">
<path d="M32.5303 6.53033C32.8232 6.23744 32.8232 5.76257 32.5303 5.46967L27.7574 0.696702C27.4645 0.403808 26.9896 0.403808 26.6967 0.696701C26.4038 0.989595 26.4038 1.46447 26.6967 1.75736L30.9393 6L26.6967 10.2426C26.4038 10.5355 26.4038 11.0104 26.6967 11.3033C26.9896 11.5962 27.4645 11.5962 27.7574 11.3033L32.5303 6.53033ZM-6.55671e-08 6.75L32 6.75L32 5.25L6.55671e-08 5.25L-6.55671e-08 6.75Z" fill="currentColor"/>
</symbol><symbol id="icon-glasses" viewBox="0 0 18 18">
<g clip-path="url(#clip0)">
<path d="M1.05469 8.32644V5.61027C1.05469 4.02719 2.33578 2.74927 3.91641 2.74927C4.2075 2.74927 4.4434 2.51302 4.4434 2.22192C4.4434 1.93083 4.20715 1.69458 3.9157 1.69458C1.74937 1.69458 0 3.44782 0 5.61027V9.33085C0.300234 8.94695 0.656016 8.60804 1.05469 8.32644Z" fill="#707B8C"/>
<path d="M14.0836 1.69458C13.7925 1.69458 13.5566 1.93083 13.5566 2.22192C13.5566 2.51302 13.7929 2.74927 14.0843 2.74927C15.6671 2.74927 16.9454 4.03 16.9454 5.61027V8.32644C17.344 8.60804 17.6998 8.94695 18 9.33085V5.61027C18 3.4436 16.2468 1.69458 14.0836 1.69458Z" fill="#707B8C"/>
<path d="M14.0836 8.47266C12.3048 8.47266 10.7994 9.66473 10.3238 11.2919C9.94897 10.9921 9.48716 10.8289 9 10.8289C8.51284 10.8289 8.05099 10.9921 7.67616 11.2919C7.20056 9.66477 5.69521 8.47266 3.91641 8.47266C1.7569 8.47266 0 10.2296 0 12.3891C0 14.5486 1.7569 16.3055 3.91641 16.3055C6.00036 16.3055 7.70913 14.6693 7.82617 12.6141L8.24347 12.1968C8.44548 11.9948 8.71414 11.8836 9 11.8836C9.28586 11.8836 9.55448 11.9948 9.75653 12.1968L10.1738 12.614C10.2908 14.6692 11.9996 16.3054 14.0836 16.3054C16.2431 16.3054 18 14.5485 18 12.389C18 10.2295 16.2431 8.47266 14.0836 8.47266Z" fill="#707B8C"/>
</g>

</symbol><symbol id="icon-paginator-next" viewBox="0 0 18 10">
<path d="M0 4.9983C0 5.42909 0.343729 5.77826 0.76781 5.77826L15.3919 5.77826L12.5394 8.67135C12.2403 8.97517 12.2403 9.46945 12.5394 9.77327C12.6867 9.92291 12.8831 10 13.0795 10C13.276 10 13.4724 9.92291 13.6197 9.77327L17.7757 5.55152C18.0748 5.2477 18.0748 4.75343 17.7757 4.44961L13.6197 0.227865C13.3206 -0.0759554 12.834 -0.0759554 12.5349 0.227865C12.2358 0.531685 12.2358 1.02596 12.5349 1.32978L15.383 4.22288L0.76781 4.22288C0.343729 4.22288 0 4.56751 0 4.9983Z" fill="currentColor"/>
</symbol><symbol id="icon-paginator-prev" viewBox="0 0 18 10">
<path d="M18 5.0017C18 4.57091 17.6563 4.22174 17.2322 4.22174L2.6081 4.22174L5.4606 1.32865C5.75969 1.02483 5.75969 0.530552 5.4606 0.226731C5.31329 0.0770884 5.11687 0 4.92045 0C4.72404 0 4.52762 0.0770884 4.38031 0.226731L0.224316 4.44848C-0.0747738 4.7523 -0.0747738 5.24657 0.224316 5.55039L4.38031 9.77213C4.6794 10.076 5.16597 10.076 5.46506 9.77213C5.76415 9.46831 5.76415 8.97404 5.46506 8.67022L2.61702 5.77712L17.2322 5.77712C17.6563 5.77712 18 5.43249 18 5.0017Z" fill="currentColor"/>
</symbol><symbol id="icon-user" viewBox="0 0 14 16">
<path d="M6.99958 7.82505C8.7785 7.82505 10.2207 6.07337 10.2207 3.91255C10.2207 1.75168 9.74723 0 6.99958 0C4.25192 0 3.77832 1.75168 3.77832 3.91255C3.77832 6.07337 5.22056 7.82505 6.99958 7.82505Z" fill="#2C8ECC"/>
<path d="M0.91567 13.7992C0.915124 13.6674 0.914577 13.762 0.91567 13.7992V13.7992Z" fill="#2C8ECC"/>
<path d="M13.0835 13.9019C13.0852 13.8658 13.0841 13.6516 13.0835 13.9019V13.9019Z" fill="#2C8ECC"/>
<path d="M13.0768 13.641C13.0171 9.87679 12.5255 8.80419 8.76353 8.12524C8.76353 8.12524 8.23397 8.80003 6.99969 8.80003C5.7654 8.80003 5.23576 8.12524 5.23576 8.12524C1.51484 8.79679 0.993333 9.85348 0.924762 13.5187C0.919139 13.818 0.916533 13.8337 0.915527 13.799C0.915756 13.8641 0.91603 13.9845 0.91603 14.1945C0.91603 14.1945 1.81166 16 6.99969 16C12.1876 16 13.0833 14.1945 13.0833 14.1945C13.0833 14.0596 13.0834 13.9658 13.0836 13.9019C13.0826 13.9234 13.0806 13.8818 13.0768 13.641Z" fill="#2C8ECC"/>
</symbol></svg>