<svg xmlns="http://www.w3.org/2000/svg"><defs>
<clipPath id="clip0">
<rect width="20" height="20" fill="white"/>
</clipPath>

<clipPath id="clip0">
<rect width="32" height="32" fill="white" transform="translate(0 0.5)"/>
</clipPath>

<clipPath id="clip0">
<rect width="24" height="24" fill="white"/>
</clipPath>
</defs><symbol id="icon-arrow-big" viewBox="0 0 8 14">
<path fill-rule="evenodd" clip-rule="evenodd" d="M8 11.9833L3.02703 7L8 2.01667L6.48649 0.5L1.92713e-07 7L6.48649 13.5L8 11.9833Z" fill="currentColor"/>
</symbol><symbol id="icon-arrow" viewBox="0 0 33 12">
<path d="M32.5303 6.53033C32.8232 6.23744 32.8232 5.76257 32.5303 5.46967L27.7574 0.696702C27.4645 0.403808 26.9896 0.403808 26.6967 0.696701C26.4038 0.989595 26.4038 1.46447 26.6967 1.75736L30.9393 6L26.6967 10.2426C26.4038 10.5355 26.4038 11.0104 26.6967 11.3033C26.9896 11.5962 27.4645 11.5962 27.7574 11.3033L32.5303 6.53033ZM-6.55671e-08 6.75L32 6.75L32 5.25L6.55671e-08 5.25L-6.55671e-08 6.75Z" fill="currentColor"/>
</symbol><symbol id="icon-attention" viewBox="0 0 20 18">
<path d="M19.7824 15.5587L11.3896 0.81409C10.7719 -0.271165 9.22838 -0.271561 8.61041 0.81409L0.217518 15.5587C-0.400216 16.644 0.37119 18 1.60713 18H18.3928C19.6283 18 20.4004 16.6444 19.7824 15.5587ZM18.3928 16.5086H1.60713C1.50283 16.5086 1.43865 16.3962 1.49092 16.3044L9.88377 1.55979C9.93592 1.46815 10.0639 1.46795 10.1162 1.55979L18.509 16.3044C18.5612 16.3961 18.4974 16.5086 18.3928 16.5086Z" fill="#9BD2F4"/>
<path d="M9.99887 6.18652C9.59285 6.18652 9.26367 6.52041 9.26367 6.93223V11.2069C9.26367 11.6187 9.59285 11.9526 9.99887 11.9526C10.4049 11.9526 10.7341 11.6187 10.7341 11.2069V6.93223C10.7341 6.52041 10.4049 6.18652 9.99887 6.18652Z" fill="#9BD2F4"/>
<path d="M9.99887 12.9214C9.59285 12.9214 9.26367 13.2553 9.26367 13.6671V14.1124C9.26367 14.5242 9.59285 14.8581 9.99887 14.8581C10.4049 14.8581 10.7341 14.5242 10.7341 14.1124V13.6671C10.7341 13.2552 10.4049 12.9214 9.99887 12.9214Z" fill="#9BD2F4"/>
</symbol><symbol id="icon-calendar" viewBox="0 0 22 24">
<path d="M19.4012 2.40002H18.2012V0H15.8012V2.40002H6.20119V0H3.80117V2.40002H2.60119C1.27521 2.40002 0.213209 3.474 0.213209 4.80003L0.201172 21.6C0.201172 22.926 1.27515 24 2.60119 24H19.4012C20.7272 24 21.8012 22.926 21.8012 21.6V4.79998C21.8012 3.474 20.7272 2.40002 19.4012 2.40002ZM19.4012 21.6H2.60119V8.39997H19.4012V21.6Z" fill="#2C8ECC"/>
<path d="M16.4362 12.072L15.1642 10.8L9.30819 16.6561L6.76422 14.112L5.49219 15.384L9.30819 19.2L16.4362 12.072Z" fill="#2C8ECC"/>
</symbol><symbol id="icon-category-1" viewBox="0 0 28 23">
<path d="M13.9995 3.27368V21.8176" stroke="#2C8ECC" stroke-width="2" stroke-miterlimit="10"/>
<path d="M20.021 1.0918C16.7366 1.0918 13.9997 2.50986 13.9997 4.36426C13.9997 2.50986 11.2627 1.0918 7.97835 1.0918C4.694 1.0918 1.95703 2.50986 1.95703 4.36426V22.9082C1.95703 21.0538 4.694 19.6357 7.97835 19.6357C11.2627 19.6357 13.9997 21.0538 13.9997 22.9082C13.9997 21.0538 16.7366 19.6357 20.021 19.6357C23.3054 19.6357 26.0423 21.0538 26.0423 22.9082V4.36426C26.0423 2.50986 23.3054 1.0918 20.021 1.0918Z" stroke="#2C8ECC" stroke-width="2" stroke-miterlimit="10" stroke-linecap="square"/>
</symbol><symbol id="icon-category-10" viewBox="0 0 22 28">
<path d="M11.0005 8.375V15.125" stroke="#2C8ECC" stroke-width="2" stroke-miterlimit="10" stroke-linecap="square"/>
<path d="M8.74219 10.625H13.2585" stroke="#2C8ECC" stroke-width="2" stroke-miterlimit="10" stroke-linecap="square"/>
<path d="M16.646 26.375H5.35505L1.96777 10.6249L5.35505 1.625H16.646L20.0332 10.6249L16.646 26.375Z" stroke="#2C8ECC" stroke-width="2" stroke-miterlimit="10" stroke-linecap="square"/>
</symbol><symbol id="icon-category-11" viewBox="0 0 28 27">
<path d="M17.422 12.2281C17.422 17.0786 9.43855 25 9.43855 25C9.43855 25 1.45508 17.0786 1.45508 12.2281C1.45508 7.25402 5.58025 4.36841 9.43855 4.36841C13.2968 4.36841 17.422 7.25402 17.422 12.2281Z" stroke="#2C8ECC" stroke-width="2" stroke-miterlimit="10" stroke-linecap="square"/>
<path d="M14.4316 2.12281C15.6999 1.38737 17.1494 1 18.5625 1C22.4208 1 26.546 3.88561 26.546 8.85965C26.546 13.7102 18.5625 21.6316 18.5625 21.6316" stroke="#2C8ECC" stroke-width="2" stroke-miterlimit="10" stroke-linecap="square"/>
<path d="M9.43871 14.4737C10.6985 14.4737 11.7197 13.4683 11.7197 12.2281C11.7197 10.9879 10.6985 9.98251 9.43871 9.98251C8.17895 9.98251 7.15771 10.9879 7.15771 12.2281C7.15771 13.4683 8.17895 14.4737 9.43871 14.4737Z" stroke="#2C8ECC" stroke-width="2" stroke-miterlimit="10" stroke-linecap="square"/>
</symbol><symbol id="icon-category-12" viewBox="0 0 28 26">
<path d="M20.5692 6.45455V1H7.43066V9.72727" stroke="#2C8ECC" stroke-width="2" stroke-miterlimit="10" stroke-linecap="square"/>
<path d="M11.8096 25H16.1891" stroke="#2C8ECC" stroke-width="2" stroke-miterlimit="10" stroke-linecap="square"/>
<path d="M11.8099 13H1.95605V25H11.8099V13Z" stroke="#2C8ECC" stroke-width="2" stroke-miterlimit="10" stroke-linecap="square"/>
<path d="M26.0433 9.72726H16.1895V25H26.0433V9.72726Z" stroke="#2C8ECC" stroke-width="2" stroke-miterlimit="10" stroke-linecap="square"/>
<path d="M20.5693 14.0909H21.6642" stroke="#2C8ECC" stroke-width="2" stroke-miterlimit="10" stroke-linecap="square"/>
<path d="M20.5693 17.3636H21.6642" stroke="#2C8ECC" stroke-width="2" stroke-miterlimit="10" stroke-linecap="square"/>
<path d="M20.5693 20.6364H21.6642" stroke="#2C8ECC" stroke-width="2" stroke-miterlimit="10" stroke-linecap="square"/>
<path d="M6.33594 20.6364H7.43081" stroke="#2C8ECC" stroke-width="2" stroke-miterlimit="10" stroke-linecap="square"/>
<path d="M6.33594 17.3636H7.43081" stroke="#2C8ECC" stroke-width="2" stroke-miterlimit="10" stroke-linecap="square"/>
</symbol><symbol id="icon-category-13" viewBox="0 0 26 25">
<path d="M18.2465 7.23809L13.0002 2L7.75391 7.23809" stroke="#2C8ECC" stroke-width="2" stroke-miterlimit="10"/>
<path d="M6.7041 24L17.1967 14.5714L24.5415 20.8572" stroke="#2C8ECC" stroke-width="2" stroke-miterlimit="10"/>
<path d="M24.5416 7.23813H1.45801V24H24.5416V7.23813Z" stroke="#2C8ECC" stroke-width="2" stroke-miterlimit="10" stroke-linecap="square"/>
<path d="M7.75378 15.6191C8.91276 15.6191 9.85229 14.681 9.85229 13.5238C9.85229 12.3667 8.91276 11.4286 7.75378 11.4286C6.59481 11.4286 5.65527 12.3667 5.65527 13.5238C5.65527 14.681 6.59481 15.6191 7.75378 15.6191Z" stroke="#2C8ECC" stroke-width="2" stroke-miterlimit="10" stroke-linecap="square"/>
</symbol><symbol id="icon-category-14" viewBox="0 0 26 26">
<path d="M15.0984 24.5V20.3182C15.0984 19.1682 14.1541 18.2273 12.9999 18.2273C11.8457 18.2273 10.9014 19.1682 10.9014 20.3182V24.5" stroke="#2C8ECC" stroke-width="2" stroke-miterlimit="10" stroke-linecap="square"/>
<path d="M1.45801 17.1818V14.0454" stroke="#2C8ECC" stroke-width="2" stroke-miterlimit="10" stroke-linecap="square"/>
<path d="M24.542 17.1818V14.0455" stroke="#2C8ECC" stroke-width="2" stroke-miterlimit="10" stroke-linecap="square"/>
<path d="M5.86488 17.1818H1.45801V24.5H4.60577" stroke="#2C8ECC" stroke-width="2" stroke-miterlimit="10"/>
<path d="M20.1348 17.1818H24.5416V24.5H21.3939" stroke="#2C8ECC" stroke-width="2" stroke-miterlimit="10"/>
<path d="M18.2458 8.81818H7.75324L4.60547 22.4091V24.5H21.3936V22.4091L18.2458 8.81818Z" stroke="#2C8ECC" stroke-width="2" stroke-miterlimit="10" stroke-linecap="square"/>
<path d="M21.3936 1.5V8.81818H4.60547V1.5" stroke="#2C8ECC" stroke-width="2" stroke-miterlimit="10" stroke-linecap="square"/>
<path d="M8.80273 1.5V3.59091" stroke="#2C8ECC" stroke-width="2" stroke-miterlimit="10" stroke-linecap="square"/>
<path d="M13 3.59091V1.5" stroke="#2C8ECC" stroke-width="2" stroke-miterlimit="10" stroke-linecap="square"/>
<path d="M17.1973 1.5V3.59091" stroke="#2C8ECC" stroke-width="2" stroke-miterlimit="10" stroke-linecap="square"/>
<path d="M4.60547 3.59091H21.3936" stroke="#2C8ECC" stroke-width="2" stroke-miterlimit="10" stroke-linecap="square"/>
</symbol><symbol id="icon-category-15" viewBox="0 0 28 26">
<path d="M14 7.54546V1H18.3795V3.18182H14" stroke="#2C8ECC" stroke-width="2" stroke-miterlimit="10" stroke-linecap="square"/>
<path d="M15.095 13H12.9053V15.1818H15.095V13Z" fill="#2C8ECC"/>
<path d="M16.1891 25V19.5454H11.8096V25" stroke="#2C8ECC" stroke-width="2" stroke-miterlimit="10" stroke-linecap="square"/>
<path d="M7.43097 16.2727H5.24121V18.4545H7.43097V16.2727Z" fill="#2C8ECC"/>
<path d="M22.7591 16.2727H20.5693V18.4545H22.7591V16.2727Z" fill="#2C8ECC"/>
<path d="M19.4741 11.9091L13.9997 7.54543L8.52531 11.9091H1.95605V25H26.0433V11.9091H19.4741Z" stroke="#2C8ECC" stroke-width="2" stroke-miterlimit="10" stroke-linecap="square"/>
</symbol><symbol id="icon-category-16" viewBox="0 0 22 26">
<path d="M13.4807 10.6531C13.4807 10.6531 14.547 4.62006 10.1916 2C10.1265 3.03655 9.8347 4.04828 9.33516 4.96916C8.83563 5.89005 8.13959 6.69939 7.29248 7.34439C5.43137 8.9173 1.93076 12.4455 1.96807 16.218C1.95561 17.8283 2.41132 19.4099 3.28389 20.7848C4.15645 22.1596 5.41123 23.2732 6.90691 24C6.96067 23.2729 7.16486 22.5633 7.50753 21.913C7.8502 21.2626 8.32447 20.6844 8.90258 20.2122C9.39273 19.8504 9.80287 19.3983 10.109 18.8824C10.4152 18.3665 10.6112 17.7972 10.6857 17.2076C11.9671 17.8615 13.0498 18.8238 13.828 20.0004C14.6061 21.1769 15.0529 22.5274 15.1248 23.9196V23.9424C16.5362 23.3202 17.7411 22.3352 18.6063 21.0962C19.4716 19.8573 19.9634 18.4126 20.0274 16.9219C20.1224 13.8617 19.0517 10.8734 17.0164 8.51755" stroke="#2C8ECC" stroke-width="2" stroke-miterlimit="10" stroke-linecap="square"/>
</symbol><symbol id="icon-category-17" viewBox="0 0 26 24">
<path d="M21.0299 8.99998V21C21.0299 21.5304 20.8184 22.0391 20.4419 22.4142C20.0655 22.7893 19.555 23 19.0226 23H6.97895C6.44659 23 5.93603 22.7893 5.5596 22.4142C5.18316 22.0391 4.97168 21.5304 4.97168 21V8.99998" stroke="#2C8ECC" stroke-width="2" stroke-miterlimit="10" stroke-linecap="square"/>
<path d="M1.96094 4.99999H24.0409" stroke="#2C8ECC" stroke-width="2" stroke-miterlimit="10" stroke-linecap="square"/>
<path d="M13.001 12V18" stroke="#2C8ECC" stroke-width="2" stroke-miterlimit="10" stroke-linecap="square"/>
<path d="M8.98633 12V18" stroke="#2C8ECC" stroke-width="2" stroke-miterlimit="10" stroke-linecap="square"/>
<path d="M17.0156 12V18" stroke="#2C8ECC" stroke-width="2" stroke-miterlimit="10" stroke-linecap="square"/>
<path d="M8.98633 5V1H17.0154V5" stroke="#2C8ECC" stroke-width="2" stroke-miterlimit="10"/>
</symbol><symbol id="icon-category-18" viewBox="0 0 24 25">
<path d="M11.9998 11.993C13.4549 11.993 14.6344 10.8243 14.6344 9.38276C14.6344 7.94117 13.4549 6.77254 11.9998 6.77254C10.5448 6.77254 9.36523 7.94117 9.36523 9.38276C9.36523 10.8243 10.5448 11.993 11.9998 11.993Z" fill="#2C8ECC"/>
<path d="M19.4521 16.7655C21.4284 14.8075 22.5387 12.1518 22.5387 9.38275C22.5387 6.61369 21.4284 3.95804 19.4521 2" stroke="#2C8ECC" stroke-width="2" stroke-miterlimit="10" stroke-linecap="square"/>
<path d="M16.4717 13.8128C17.0589 13.2311 17.5248 12.5404 17.8426 11.7803C18.1604 11.0202 18.324 10.2055 18.324 9.38274C18.324 8.55998 18.1604 7.74528 17.8426 6.98516C17.5248 6.22504 17.0589 5.5344 16.4717 4.95267" stroke="#2C8ECC" stroke-width="2" stroke-miterlimit="10" stroke-linecap="square"/>
<path d="M4.54844 16.7655C2.57217 14.8075 1.46191 12.1518 1.46191 9.38275C1.46191 6.61369 2.57217 3.95804 4.54844 2" stroke="#2C8ECC" stroke-width="2" stroke-miterlimit="10" stroke-linecap="square"/>
<path d="M7.5291 13.8128C6.94184 13.2311 6.476 12.5404 6.15817 11.7803C5.84034 11.0202 5.67676 10.2055 5.67676 9.38274C5.67676 8.55998 5.84034 7.74528 6.15817 6.98516C6.476 6.22504 6.94184 5.5344 7.5291 4.95267" stroke="#2C8ECC" stroke-width="2" stroke-miterlimit="10" stroke-linecap="square"/>
<path d="M12 9.38272V24" stroke="#2C8ECC" stroke-width="2" stroke-miterlimit="10" stroke-linecap="square"/>
<path d="M7.78418 24H16.2148" stroke="#2C8ECC" stroke-width="2" stroke-miterlimit="10" stroke-linecap="square"/>
</symbol><symbol id="icon-category-19" viewBox="0 0 26 24">
<path d="M21.0304 4.5C19.1235 6.5 18.0195 9.1 18.0195 12C18.0195 14.9 19.1235 17.6 21.0304 19.5" stroke="#2C8ECC" stroke-width="2" stroke-miterlimit="10"/>
<path d="M4.97168 4.5C6.87859 6.5 7.98259 9.1 7.98259 12C7.98259 14.9 6.87859 17.6 4.97168 19.5" stroke="#2C8ECC" stroke-width="2" stroke-miterlimit="10"/>
<path d="M13.001 1V23" stroke="#2C8ECC" stroke-width="2" stroke-miterlimit="10"/>
<path d="M24.0409 12H1.96094" stroke="#2C8ECC" stroke-width="2" stroke-miterlimit="10"/>
<path d="M13.0009 23C19.0982 23 24.0409 18.0751 24.0409 12C24.0409 5.92487 19.0982 1 13.0009 1C6.90371 1 1.96094 5.92487 1.96094 12C1.96094 18.0751 6.90371 23 13.0009 23Z" stroke="#2C8ECC" stroke-width="2" stroke-miterlimit="10" stroke-linecap="square"/>
</symbol><symbol id="icon-category-2" viewBox="0 0 24 26">
<path d="M12.0005 19.545V24.9991" stroke="#2C8ECC" stroke-width="2" stroke-miterlimit="10"/>
<path d="M6.52686 24.9991H17.4747" stroke="#2C8ECC" stroke-width="2" stroke-miterlimit="10"/>
<path d="M18.5693 10.8182H17.9619C18.3381 10.1742 18.5693 9.4354 18.5693 8.63659C18.5693 6.22678 16.6087 4.27331 14.1902 4.27331C14.1715 4.27331 14.1542 4.27857 14.1356 4.27877C13.8703 2.42829 12.289 1.00085 10.3584 1.00085C8.24222 1.00085 6.52666 2.71019 6.52666 4.81872C6.52666 5.18897 6.59623 5.53976 6.69492 5.87831C5.29951 6.60782 4.33709 8.0483 4.33709 9.72741C4.33709 10.1421 4.41367 10.5352 4.52212 10.9152C2.54069 11.3329 1.05273 13.0829 1.05273 15.1815C1.05273 17.5912 3.01331 19.5448 5.43188 19.5448H18.5693C20.9879 19.5448 22.9485 17.5912 22.9485 15.1815C22.9485 12.7717 20.9879 10.8182 18.5693 10.8182Z" stroke="#2C8ECC" stroke-width="2" stroke-miterlimit="10" stroke-linecap="square"/>
</symbol><symbol id="icon-category-20" viewBox="0 0 25 25">
<path d="M14.1458 6.61978L6.99887 1.87279C6.20299 1.34379 5.14315 1.44879 4.4657 2.12279L2.08105 4.49878L10.5969 10.1558" stroke="#2C8ECC" stroke-width="2" stroke-miterlimit="10"/>
<path d="M18.4043 10.8628L23.1686 17.9838C23.6995 18.7768 23.5941 19.8328 22.9177 20.5078L20.533 22.8838L14.8555 14.3988" stroke="#2C8ECC" stroke-width="2" stroke-miterlimit="10"/>
<path d="M5.9171 15.8038L1.57938 15.4658C0.650012 15.3948 0.134142 16.5138 0.792528 17.1698L3.407 19.7558L5.9171 15.8038Z" fill="#2C8ECC"/>
<path d="M9.18708 19.0618L9.52631 23.3838C9.59756 24.3098 8.4745 24.8238 7.81611 24.1678L5.2207 21.5628L9.18708 19.0618Z" fill="#2C8ECC"/>
<path d="M11.8809 17.3618L4.03049 22.3138C3.13424 22.8498 2.11555 21.8348 2.6535 20.9418L7.62351 13.1198L17.4371 3.34177C18.6133 2.16977 20.5192 2.16977 21.6955 3.34177C22.8718 4.51377 22.8718 6.41277 21.6955 7.58477L11.8809 17.3618Z" stroke="#2C8ECC" stroke-width="2" stroke-miterlimit="10" stroke-linecap="square"/>
</symbol><symbol id="icon-category-21" viewBox="0 0 26 24">
<path d="M24.0409 8H17.0155V1H8.98639V8H1.96094V16H8.98639V23H17.0155V16H24.0409V8Z" stroke="#2C8ECC" stroke-width="2" stroke-miterlimit="10" stroke-linecap="square"/>
</symbol><symbol id="icon-category-3" viewBox="0 0 26 26">
<path d="M15.0967 20.3157L18.1919 23.399C18.5339 23.7466 18.942 24.0227 19.3924 24.2113C19.8428 24.3998 20.3265 24.4969 20.815 24.4969C21.3036 24.4969 21.7873 24.3998 22.2377 24.2113C22.6881 24.0227 23.0962 23.7466 23.4381 23.399V23.399C23.7871 23.0584 24.0644 22.6518 24.2536 22.2032C24.4429 21.7545 24.5404 21.2727 24.5404 20.786C24.5404 20.2994 24.4429 19.8176 24.2536 19.3689C24.0644 18.9203 23.7871 18.5137 23.4381 18.1731L21.3921 16.1351" stroke="#2C8ECC" stroke-width="2" stroke-miterlimit="10" stroke-linecap="square"/>
<path d="M10.8212 11.1453L7.22754 7.5647" stroke="#2C8ECC" stroke-width="2" stroke-miterlimit="10"/>
<path d="M5.0243 8.29652L7.2277 7.56491L7.96217 5.37006L5.0243 2.4436L2.08643 5.37006L5.0243 8.29652Z" stroke="#2C8ECC" stroke-width="2" stroke-miterlimit="10" stroke-linecap="square"/>
<path d="M24.202 5.60186L20.9724 8.80528L17.2004 5.06778L20.432 1.86331C19.6866 1.54135 18.8665 1.43033 18.0618 1.54244C16.5688 1.67019 15.1807 2.35986 14.1801 3.4711C13.1796 4.58233 12.6417 6.03159 12.6761 7.52391C12.6681 8.11056 12.7776 8.69291 12.9982 9.23693L2.65792 18.3121C2.29934 18.6306 2.00863 19.0176 1.80305 19.4501C1.59747 19.8826 1.4812 20.3519 1.46114 20.83C1.44108 21.3081 1.51763 21.7854 1.68627 22.2335C1.8549 22.6816 2.11217 23.0914 2.44282 23.4386V23.4386C2.7811 23.7911 3.19083 24.0677 3.64476 24.2503C4.09869 24.4328 4.58642 24.5169 5.07553 24.4972C5.56465 24.4774 6.04393 24.3541 6.48152 24.1356C6.91911 23.917 7.30498 23.6082 7.61347 23.2296L16.7691 12.9765C17.7477 13.2624 18.7768 13.3337 19.7857 13.1856C20.8488 12.9668 21.8319 12.4632 22.6289 11.7291C23.426 10.995 24.0069 10.0582 24.309 9.01954C24.6524 7.8997 24.6148 6.69821 24.202 5.60186V5.60186Z" stroke="#2C8ECC" stroke-width="2" stroke-miterlimit="10" stroke-linecap="square"/>
</symbol><symbol id="icon-category-4" viewBox="0 0 28 32">
<path d="M14.0005 29.0909V30.4" stroke="#2C8ECC" stroke-width="2" stroke-miterlimit="10" stroke-linecap="square"/>
<path d="M8.64795 25.1636V26.4727" stroke="#2C8ECC" stroke-width="2" stroke-miterlimit="10" stroke-linecap="square"/>
<path d="M19.353 25.1636V26.4727" stroke="#2C8ECC" stroke-width="2" stroke-miterlimit="10" stroke-linecap="square"/>
<path d="M24.037 19.9273H3.9643C2.89376 19.9273 1.95703 19.0109 1.95703 17.9637C1.95703 16.9164 2.89376 16 3.9643 16H24.037C25.1076 16 26.0443 16.9164 26.0443 17.9637C26.0443 19.0109 25.1076 19.9273 24.037 19.9273Z" stroke="#2C8ECC" stroke-width="2" stroke-miterlimit="10" stroke-linecap="square"/>
<path d="M14.0005 1.60001V5.52728" stroke="#2C8ECC" stroke-width="2" stroke-miterlimit="10" stroke-linecap="square"/>
<path d="M4.6333 16V14.6909C4.6333 9.58543 8.78166 5.52725 14.0006 5.52725C19.2195 5.52725 23.3678 9.58543 23.3678 14.6909V16" stroke="#2C8ECC" stroke-width="2" stroke-miterlimit="10" stroke-linecap="square"/>
</symbol><symbol id="icon-category-5" viewBox="0 0 28 26">
<path d="M10.0086 18.1339C10.9534 18.1339 11.7193 17.3677 11.7193 16.4226C11.7193 15.4775 10.9534 14.7113 10.0086 14.7113C9.06378 14.7113 8.29785 15.4775 8.29785 16.4226C8.29785 17.3677 9.06378 18.1339 10.0086 18.1339Z" fill="#2C8ECC"/>
<path d="M17.9925 18.1339C18.9373 18.1339 19.7032 17.3677 19.7032 16.4226C19.7032 15.4775 18.9373 14.7113 17.9925 14.7113C17.0477 14.7113 16.2817 15.4775 16.2817 16.4226C16.2817 17.3677 17.0477 18.1339 17.9925 18.1339Z" fill="#2C8ECC"/>
<path d="M26.546 14.7113C26.546 13.0148 25.3086 11.6161 23.689 11.3457C22.2954 7.32984 18.4895 4.44344 14.0005 4.44344C9.51154 4.44344 5.70571 7.32984 4.31202 11.3457C2.69252 11.6161 1.45508 13.0148 1.45508 14.7113C1.45508 16.4078 2.69252 17.8065 4.31202 18.0769C5.70571 22.0927 9.51154 24.9791 14.0005 24.9791C18.4895 24.9791 22.2954 22.0927 23.689 18.0769C25.3086 17.8065 26.546 16.4078 26.546 14.7113Z" stroke="#2C8ECC" stroke-width="2" stroke-miterlimit="10" stroke-linecap="square"/>
<path d="M14.0004 7.86607C13.7153 3.77832 15.9016 1.25813 19.7029 1.02083" stroke="#2C8ECC" stroke-width="2" stroke-miterlimit="10"/>
</symbol><symbol id="icon-category-6" viewBox="0 0 26 24">
<path d="M4.97168 13V5C4.97168 2.791 6.76919 1 8.98623 1C11.2033 1 13.0008 2.791 13.0008 5V19C13.0008 21.209 14.7983 23 17.0153 23C19.2323 23 21.0299 21.209 21.0299 19V11" stroke="#2C8ECC" stroke-width="2" stroke-miterlimit="10" stroke-linecap="square"/>
<path d="M21.03 7C22.6928 7 24.0409 5.65685 24.0409 4C24.0409 2.34315 22.6928 1 21.03 1C19.3671 1 18.019 2.34315 18.019 4C18.019 5.65685 19.3671 7 21.03 7Z" stroke="#2C8ECC" stroke-width="2" stroke-miterlimit="10" stroke-linecap="square"/>
<path d="M4.97185 23C6.63473 23 7.98276 21.6569 7.98276 20C7.98276 18.3432 6.63473 17 4.97185 17C3.30897 17 1.96094 18.3432 1.96094 20C1.96094 21.6569 3.30897 23 4.97185 23Z" stroke="#2C8ECC" stroke-width="2" stroke-miterlimit="10" stroke-linecap="square"/>
</symbol><symbol id="icon-category-7" viewBox="0 0 26 22">
<path d="M24.04 5H1.95996V21H24.04V5Z" stroke="#2C8ECC" stroke-width="2" stroke-miterlimit="10" stroke-linecap="square"/>
<path d="M13.0002 16C14.663 16 16.0111 14.6569 16.0111 13C16.0111 11.3431 14.663 10 13.0002 10C11.3373 10 9.98926 11.3431 9.98926 13C9.98926 14.6569 11.3373 16 13.0002 16Z" stroke="#2C8ECC" stroke-width="2" stroke-miterlimit="10" stroke-linecap="square"/>
<path d="M22.0327 1H3.96729" stroke="#2C8ECC" stroke-width="2" stroke-miterlimit="10" stroke-linecap="square"/>
</symbol><symbol id="icon-category-8" viewBox="0 0 22 28">
<path d="M1.46484 5.07143L10.9994 1.5L20.5339 5.07143V26.5H1.46484V5.07143Z" stroke="#2C8ECC" stroke-width="2" stroke-miterlimit="10" stroke-linecap="square"/>
<path d="M6.23193 9.83333V11.0238" stroke="#2C8ECC" stroke-width="2" stroke-miterlimit="10" stroke-linecap="square"/>
<path d="M10.9995 9.83333V11.0238" stroke="#2C8ECC" stroke-width="2" stroke-miterlimit="10" stroke-linecap="square"/>
<path d="M15.7666 9.83333V11.0238" stroke="#2C8ECC" stroke-width="2" stroke-miterlimit="10" stroke-linecap="square"/>
<path d="M6.23193 15.7857V16.9762" stroke="#2C8ECC" stroke-width="2" stroke-miterlimit="10" stroke-linecap="square"/>
<path d="M10.9995 15.7857V16.9762" stroke="#2C8ECC" stroke-width="2" stroke-miterlimit="10" stroke-linecap="square"/>
<path d="M15.7666 15.7857V16.9762" stroke="#2C8ECC" stroke-width="2" stroke-miterlimit="10" stroke-linecap="square"/>
<path d="M13.383 20.5476H8.61572V26.5H13.383V20.5476Z" fill="#2C8ECC"/>
</symbol><symbol id="icon-category-9" viewBox="0 0 26 26">
<path d="M13.001 25C10.8394 23.2731 10.7014 17.5905 14.105 16.2727C15.9112 15.5734 16.4963 19.4767 20.039 18.5004C20.7246 18.3116 22.3386 19.2727 21.7513 20.7389" stroke="#2C8ECC" stroke-width="2" stroke-miterlimit="10"/>
<path d="M6.64755 5.16833C7.34417 5.6767 7.94365 6.29852 8.4559 7.14724C8.90302 7.88797 9.89773 9.95088 8.98693 11.116C7.95579 12.4327 4.97168 12.8767 4.97168 14.0909C4.97168 15.004 6.27992 16.0469 6.97875 17.0658C8.02976 18.5985 7.55173 20.0843 6.97875 21.0323C6.68178 21.5243 6.18277 21.9225 5.65616 22.2356" stroke="#2C8ECC" stroke-width="2" stroke-miterlimit="10"/>
<path d="M23.8201 11.9091C23.9648 12.6138 24.0409 13.3436 24.0409 14.0909C24.0409 20.116 19.0983 25 13.0009 25C6.90355 25 1.96094 20.116 1.96094 14.0909C1.96094 8.06582 6.90355 3.18182 13.0009 3.18182C13.5463 3.18182 14.0829 3.2211 14.6073 3.29637" stroke="#2C8ECC" stroke-width="2" stroke-miterlimit="10"/>
<path d="M18.521 9.72726V13" stroke="#2C8ECC" stroke-width="2" stroke-miterlimit="10" stroke-linecap="square"/>
<path d="M18.521 9.72727C20.9599 9.72727 22.937 7.77361 22.937 5.36364C22.937 2.95367 20.9599 1 18.521 1C16.0821 1 14.105 2.95367 14.105 5.36364C14.105 7.77361 16.0821 9.72727 18.521 9.72727Z" stroke="#2C8ECC" stroke-width="2" stroke-miterlimit="10" stroke-linecap="square"/>
</symbol><symbol id="icon-clock" viewBox="0 0 16 16">
<g opacity="0.5">
<circle cx="8" cy="8" r="7.25" stroke="#707B8C" stroke-width="1.5"/>
<rect x="7.375" y="3.375" width="0.75" height="5.25" stroke="#707B8C" stroke-width="0.75"/>
<rect x="10.625" y="8.375" width="0.75" height="3.25" transform="rotate(90 10.625 8.375)" stroke="#707B8C" stroke-width="0.75"/>
</g>
</symbol><symbol id="icon-close" viewBox="0 0 18 18">
<path d="M1 1L17 17M17 1L1 17" stroke="#A6ABB3" stroke-width="2"/>
</symbol><symbol id="icon-cross" viewBox="0 0 18 18">
<path d="M1 1L17 17M17 1L1 17" stroke-width="2"/>
</symbol><symbol id="icon-discussion" viewBox="0 0 32 32">
<path d="M27.9661 1.93939H3.96932C3.17378 1.93939 2.41082 2.25683 1.84829 2.82188C1.28575 3.38692 0.969727 4.15329 0.969727 4.95238V21.0216C0.969727 21.8207 1.28575 22.5871 1.84829 23.1521C2.41082 23.7172 3.17378 24.0346 3.96932 24.0346H10.9684L15.9677 30.0606L20.967 24.0346H27.9661C28.7616 24.0346 29.5246 23.7172 30.0871 23.1521C30.6497 22.5871 30.9657 21.8207 30.9657 21.0216V4.95238C30.9657 4.15329 30.6497 3.38692 30.0871 2.82188C29.5246 2.25683 28.7616 1.93939 27.9661 1.93939V1.93939Z" stroke="#FCA844" stroke-width="2" stroke-miterlimit="10" stroke-linecap="square"/>
<path d="M7.53125 10.3757H23.4666" stroke="#FCA844" stroke-width="2" stroke-miterlimit="10" stroke-linecap="square"/>
<path d="M7.53125 16H16.905" stroke="#FCA844" stroke-width="2" stroke-miterlimit="10" stroke-linecap="square"/>
</symbol><symbol id="icon-doc-doc" viewBox="0 0 24 24">
<path d="M3 1H17V4V5H18H21V23H3V1ZM19 2.41421L19.5858 3H19V2.41421Z" fill="white" stroke="#9BD2F4" stroke-width="2"/>
<mask id="path-2-inside-1" fill="white">
<rect y="8" width="24" height="12" rx="1"/>
</mask>
<rect y="8" width="24" height="12" rx="1" fill="white" stroke="#9BD2F4" stroke-width="4" mask="url(#path-2-inside-1)"/>
<path d="M4.48788 17C4.43454 17 4.38921 16.9813 4.35188 16.944C4.31454 16.9067 4.29588 16.8613 4.29588 16.808V11.6C4.29588 11.5413 4.31188 11.4933 4.34388 11.456C4.38121 11.4187 4.42921 11.4 4.48788 11.4H6.43988C8.00788 11.4 8.80788 12.1253 8.83988 13.576C8.85054 13.8853 8.85588 14.0933 8.85588 14.2C8.85588 14.3013 8.85054 14.5067 8.83988 14.816C8.81854 15.5627 8.61854 16.1147 8.23988 16.472C7.86121 16.824 7.27454 17 6.47988 17H4.48788ZM6.43988 16.08C6.88788 16.08 7.21054 15.9813 7.40788 15.784C7.60521 15.5813 7.70921 15.2507 7.71988 14.792C7.73054 14.472 7.73588 14.272 7.73588 14.192C7.73588 14.1067 7.73054 13.9093 7.71988 13.6C7.70921 13.1627 7.59721 12.84 7.38388 12.632C7.17588 12.424 6.84788 12.32 6.39988 12.32H5.40788V16.08H6.43988ZM12.0729 17.08C11.3475 17.08 10.7822 16.896 10.3769 16.528C9.97154 16.16 9.75821 15.6133 9.73688 14.888C9.73154 14.7333 9.72888 14.5067 9.72888 14.208C9.72888 13.904 9.73154 13.6747 9.73688 13.52C9.75821 12.8107 9.97688 12.2667 10.3929 11.888C10.8089 11.5093 11.3689 11.32 12.0729 11.32C12.7769 11.32 13.3369 11.5093 13.7529 11.888C14.1742 12.2667 14.3955 12.8107 14.4169 13.52C14.4275 13.8293 14.4329 14.0587 14.4329 14.208C14.4329 14.352 14.4275 14.5787 14.4169 14.888C14.3902 15.6133 14.1742 16.16 13.7689 16.528C13.3635 16.896 12.7982 17.08 12.0729 17.08ZM12.0729 16.16C12.4302 16.16 12.7155 16.0533 12.9289 15.84C13.1422 15.6213 13.2569 15.2907 13.2729 14.848C13.2835 14.528 13.2889 14.312 13.2889 14.2C13.2889 14.0773 13.2835 13.8613 13.2729 13.552C13.2569 13.1093 13.1422 12.7813 12.9289 12.568C12.7155 12.3493 12.4302 12.24 12.0729 12.24C11.7209 12.24 11.4382 12.3493 11.2249 12.568C11.0115 12.7813 10.8969 13.1093 10.8809 13.552C10.8755 13.7067 10.8729 13.9227 10.8729 14.2C10.8729 14.472 10.8755 14.688 10.8809 14.848C10.8969 15.2907 11.0089 15.6213 11.2169 15.84C11.4302 16.0533 11.7155 16.16 12.0729 16.16ZM17.6434 17.08C16.9074 17.08 16.3367 16.8907 15.9314 16.512C15.5314 16.1333 15.318 15.6 15.2914 14.912C15.286 14.768 15.2834 14.5333 15.2834 14.208C15.2834 13.8773 15.286 13.6373 15.2914 13.488C15.318 12.8053 15.534 12.2747 15.9394 11.896C16.35 11.512 16.918 11.32 17.6434 11.32C18.118 11.32 18.5314 11.4027 18.8834 11.568C19.2354 11.728 19.5074 11.9493 19.6994 12.232C19.8914 12.5093 19.9927 12.824 20.0034 13.176V13.192C20.0034 13.2347 19.9847 13.272 19.9474 13.304C19.9154 13.3307 19.878 13.344 19.8354 13.344H19.0754C19.0114 13.344 18.9634 13.3307 18.9314 13.304C18.8994 13.2773 18.8727 13.2267 18.8514 13.152C18.766 12.816 18.6247 12.5813 18.4274 12.448C18.23 12.3093 17.966 12.24 17.6354 12.24C16.8674 12.24 16.4674 12.6693 16.4354 13.528C16.43 13.672 16.4274 13.8933 16.4274 14.192C16.4274 14.4907 16.43 14.7173 16.4354 14.872C16.4674 15.7307 16.8674 16.16 17.6354 16.16C17.966 16.16 18.23 16.0907 18.4274 15.952C18.63 15.8133 18.7714 15.5787 18.8514 15.248C18.8674 15.1733 18.8914 15.1227 18.9234 15.096C18.9607 15.0693 19.0114 15.056 19.0754 15.056H19.8354C19.8834 15.056 19.9234 15.072 19.9554 15.104C19.9927 15.136 20.0087 15.176 20.0034 15.224C19.9927 15.576 19.8914 15.8933 19.6994 16.176C19.5074 16.4533 19.2354 16.6747 18.8834 16.84C18.5314 17 18.118 17.08 17.6434 17.08Z" fill="#2C8ECC"/>
</symbol><symbol id="icon-doc-odt" viewBox="0 0 24 24">
<path d="M3 1H17V4V5H18H21V23H3V1ZM19 2.41421L19.5858 3H19V2.41421Z" fill="white" stroke="#9BD2F4" stroke-width="2"/>
<mask id="path-2-inside-1" fill="white">
<rect y="8" width="24" height="12" rx="1"/>
</mask>
<rect y="8" width="24" height="12" rx="1" fill="white" stroke="#9BD2F4" stroke-width="4" mask="url(#path-2-inside-1)"/>
<path d="M6.81116 17.08C6.08582 17.08 5.52049 16.896 5.11516 16.528C4.70982 16.16 4.49649 15.6133 4.47516 14.888C4.46982 14.7333 4.46716 14.5067 4.46716 14.208C4.46716 13.904 4.46982 13.6747 4.47516 13.52C4.49649 12.8107 4.71516 12.2667 5.13116 11.888C5.54716 11.5093 6.10716 11.32 6.81116 11.32C7.51516 11.32 8.07516 11.5093 8.49116 11.888C8.91249 12.2667 9.13382 12.8107 9.15516 13.52C9.16582 13.8293 9.17116 14.0587 9.17116 14.208C9.17116 14.352 9.16582 14.5787 9.15516 14.888C9.12849 15.6133 8.91249 16.16 8.50716 16.528C8.10182 16.896 7.53649 17.08 6.81116 17.08ZM6.81116 16.16C7.16849 16.16 7.45382 16.0533 7.66716 15.84C7.88049 15.6213 7.99516 15.2907 8.01116 14.848C8.02182 14.528 8.02716 14.312 8.02716 14.2C8.02716 14.0773 8.02182 13.8613 8.01116 13.552C7.99516 13.1093 7.88049 12.7813 7.66716 12.568C7.45382 12.3493 7.16849 12.24 6.81116 12.24C6.45916 12.24 6.17649 12.3493 5.96316 12.568C5.74982 12.7813 5.63516 13.1093 5.61916 13.552C5.61382 13.7067 5.61116 13.9227 5.61116 14.2C5.61116 14.472 5.61382 14.688 5.61916 14.848C5.63516 15.2907 5.74716 15.6213 5.95516 15.84C6.16849 16.0533 6.45382 16.16 6.81116 16.16ZM10.4137 17C10.3603 17 10.315 16.9813 10.2777 16.944C10.2403 16.9067 10.2217 16.8613 10.2217 16.808V11.6C10.2217 11.5413 10.2377 11.4933 10.2697 11.456C10.307 11.4187 10.355 11.4 10.4137 11.4H12.3657C13.9337 11.4 14.7337 12.1253 14.7657 13.576C14.7763 13.8853 14.7817 14.0933 14.7817 14.2C14.7817 14.3013 14.7763 14.5067 14.7657 14.816C14.7443 15.5627 14.5443 16.1147 14.1657 16.472C13.787 16.824 13.2003 17 12.4057 17H10.4137ZM12.3657 16.08C12.8137 16.08 13.1363 15.9813 13.3337 15.784C13.531 15.5813 13.635 15.2507 13.6457 14.792C13.6563 14.472 13.6617 14.272 13.6617 14.192C13.6617 14.1067 13.6563 13.9093 13.6457 13.6C13.635 13.1627 13.523 12.84 13.3097 12.632C13.1017 12.424 12.7737 12.32 12.3257 12.32H11.3337V16.08H12.3657ZM17.1691 17C17.1158 17 17.0704 16.9813 17.0331 16.944C16.9958 16.9067 16.9771 16.8613 16.9771 16.808V12.384H15.4971C15.4438 12.384 15.3984 12.3653 15.3611 12.328C15.3238 12.2907 15.3051 12.2453 15.3051 12.192V11.6C15.3051 11.5413 15.3211 11.4933 15.3531 11.456C15.3904 11.4187 15.4384 11.4 15.4971 11.4H19.5771C19.6358 11.4 19.6838 11.4187 19.7211 11.456C19.7584 11.4933 19.7771 11.5413 19.7771 11.6V12.192C19.7771 12.2453 19.7584 12.2907 19.7211 12.328C19.6838 12.3653 19.6358 12.384 19.5771 12.384H18.1051V16.808C18.1051 16.8613 18.0864 16.9067 18.0491 16.944C18.0118 16.9813 17.9638 17 17.9051 17H17.1691Z" fill="#2C8ECC"/>
</symbol><symbol id="icon-doc-pdf" viewBox="0 0 24 24">
<path d="M3 1H17V4V5H18H21V23H3V1ZM19 2.41421L19.5858 3H19V2.41421Z" fill="white" stroke="#9BD2F4" stroke-width="2"/>
<mask id="path-2-inside-1" fill="white">
<rect y="8" width="24" height="12" rx="1"/>
</mask>
<rect y="8" width="24" height="12" rx="1" fill="white" stroke="#9BD2F4" stroke-width="4" mask="url(#path-2-inside-1)"/>
<path d="M4.96444 17C4.9111 17 4.86577 16.9813 4.82844 16.944C4.7911 16.9067 4.77244 16.8613 4.77244 16.808V11.6C4.77244 11.5413 4.78844 11.4933 4.82044 11.456C4.85777 11.4187 4.90577 11.4 4.96444 11.4H7.10844C7.74844 11.4 8.25244 11.552 8.62044 11.856C8.98844 12.1547 9.17244 12.5947 9.17244 13.176C9.17244 13.7573 8.98844 14.1973 8.62044 14.496C8.25777 14.7893 7.75377 14.936 7.10844 14.936H5.91644V16.808C5.91644 16.8613 5.89777 16.9067 5.86044 16.944C5.82844 16.9813 5.7831 17 5.72444 17H4.96444ZM7.06844 14.048C7.37777 14.048 7.6151 13.976 7.78044 13.832C7.94577 13.6827 8.02844 13.464 8.02844 13.176C8.02844 12.8987 7.94844 12.6827 7.78844 12.528C7.62844 12.368 7.38844 12.288 7.06844 12.288H5.90044V14.048H7.06844ZM10.2379 17C10.1845 17 10.1392 16.9813 10.1019 16.944C10.0645 16.9067 10.0459 16.8613 10.0459 16.808V11.6C10.0459 11.5413 10.0619 11.4933 10.0939 11.456C10.1312 11.4187 10.1792 11.4 10.2379 11.4H12.1899C13.7579 11.4 14.5579 12.1253 14.5899 13.576C14.6005 13.8853 14.6059 14.0933 14.6059 14.2C14.6059 14.3013 14.6005 14.5067 14.5899 14.816C14.5685 15.5627 14.3685 16.1147 13.9899 16.472C13.6112 16.824 13.0245 17 12.2299 17H10.2379ZM12.1899 16.08C12.6379 16.08 12.9605 15.9813 13.1579 15.784C13.3552 15.5813 13.4592 15.2507 13.4699 14.792C13.4805 14.472 13.4859 14.272 13.4859 14.192C13.4859 14.1067 13.4805 13.9093 13.4699 13.6C13.4592 13.1627 13.3472 12.84 13.1339 12.632C12.9259 12.424 12.5979 12.32 12.1499 12.32H11.1579V16.08H12.1899ZM15.8629 17C15.8095 17 15.7642 16.9813 15.7269 16.944C15.6895 16.9067 15.6709 16.8613 15.6709 16.808V11.6C15.6709 11.5413 15.6869 11.4933 15.7189 11.456C15.7562 11.4187 15.8042 11.4 15.8629 11.4H19.3349C19.3935 11.4 19.4415 11.4187 19.4789 11.456C19.5162 11.4933 19.5349 11.5413 19.5349 11.6V12.16C19.5349 12.2187 19.5162 12.2667 19.4789 12.304C19.4415 12.336 19.3935 12.352 19.3349 12.352H16.7669V13.872H19.1749C19.2335 13.872 19.2815 13.8907 19.3189 13.928C19.3562 13.9653 19.3749 14.0133 19.3749 14.072V14.632C19.3749 14.6907 19.3562 14.7387 19.3189 14.776C19.2815 14.808 19.2335 14.824 19.1749 14.824H16.7669V16.808C16.7669 16.8667 16.7482 16.9147 16.7109 16.952C16.6735 16.984 16.6255 17 16.5669 17H15.8629Z" fill="#2C8ECC"/>
</symbol><symbol id="icon-glasses" viewBox="0 0 18 18">
<path d="M1.05469 8.3262V5.61003C1.05469 4.02695 2.33578 2.74902 3.91641 2.74902C4.2075 2.74902 4.4434 2.51277 4.4434 2.22168C4.4434 1.93059 4.20715 1.69434 3.9157 1.69434C1.74937 1.69434 0 3.44757 0 5.61003V9.33061C0.300234 8.9467 0.656016 8.6078 1.05469 8.3262Z" fill="#707B8C"/>
<path d="M14.0836 1.69434C13.7925 1.69434 13.5566 1.93059 13.5566 2.22168C13.5566 2.51277 13.7929 2.74902 14.0843 2.74902C15.6671 2.74902 16.9454 4.02976 16.9454 5.61003V8.3262C17.344 8.6078 17.6998 8.9467 18 9.33061V5.61003C18 3.44336 16.2468 1.69434 14.0836 1.69434Z" fill="#707B8C"/>
<path fill-rule="evenodd" clip-rule="evenodd" d="M10.3238 11.2919C10.7994 9.66473 12.3048 8.47266 14.0836 8.47266C16.2431 8.47266 18 10.2295 18 12.389C18 14.5485 16.2431 16.3054 14.0836 16.3054C11.9996 16.3054 10.2908 14.6692 10.1738 12.614L9.75653 12.1968C9.55448 11.9948 9.28586 11.8836 9 11.8836C8.71414 11.8836 8.44548 11.9948 8.24347 12.1968L7.82617 12.6141C7.70913 14.6693 6.00036 16.3055 3.91641 16.3055C1.7569 16.3055 0 14.5486 0 12.3891C0 10.2296 1.7569 8.47266 3.91641 8.47266C5.69521 8.47266 7.20056 9.66477 7.67616 11.2919C8.05099 10.9921 8.51284 10.8289 9 10.8289C9.48716 10.8289 9.94897 10.9921 10.3238 11.2919ZM6.76875 12.389C6.76875 13.9906 5.47038 15.289 3.86875 15.289C2.26712 15.289 0.96875 13.9906 0.96875 12.389C0.96875 10.7874 2.26712 9.48901 3.86875 9.48901C5.47038 9.48901 6.76875 10.7874 6.76875 12.389ZM16.9562 12.389C16.9562 13.9906 15.6579 15.289 14.0562 15.289C12.4546 15.289 11.1562 13.9906 11.1562 12.389C11.1562 10.7874 12.4546 9.48901 14.0562 9.48901C15.6579 9.48901 16.9562 10.7874 16.9562 12.389Z" fill="#707B8C"/>
</symbol><symbol id="icon-lightning" viewBox="0 0 12 16">
<path d="M4.58568 15.9539C4.65456 15.9815 4.72343 15.9952 4.79231 15.9952C4.97139 15.9952 5.15047 15.9126 5.26068 15.7473L11.1703 7.20648C11.2943 7.04118 11.3081 6.807 11.2117 6.62792C11.1152 6.44883 10.9224 6.32485 10.7158 6.32485L7.05149 6.2973L8.1122 0.676915C8.1673 0.428957 8.02954 0.167223 7.79536 0.057019C7.56118 -0.0531847 7.28567 0.0156926 7.12036 0.222325L0.852527 8.11567C0.714773 8.28097 0.687222 8.51515 0.78365 8.70801C0.880078 8.90087 1.07293 9.02485 1.29334 9.02485L5.34333 9.0524L4.25507 15.334C4.19997 15.5957 4.33772 15.8575 4.58568 15.9539ZM2.45048 7.90903L6.58312 2.70191L5.81169 6.76567C5.78414 6.93098 5.82547 7.09628 5.93567 7.23404C6.04588 7.35802 6.19741 7.44067 6.36271 7.44067L9.6275 7.45444L5.78414 13.0197L6.54179 8.58403C6.56934 8.41873 6.52802 8.25342 6.41781 8.12944C6.32139 8.00546 6.16986 7.93658 6.00455 7.93658L2.45048 7.90903Z" fill="#9BD2F4"/>
<path d="M2.45048 7.90903L6.58312 2.70191L5.81169 6.76567C5.78414 6.93098 5.82547 7.09628 5.93567 7.23404C6.04588 7.35802 6.19741 7.44067 6.36271 7.44067L9.6275 7.45444L5.78414 13.0197L6.54179 8.58403C6.56934 8.41873 6.52802 8.25342 6.41781 8.12944C6.32139 8.00546 6.16986 7.93658 6.00455 7.93658L2.45048 7.90903Z" fill="#9BD2F4"/>
</symbol><symbol id="icon-link" viewBox="0 0 20 20">
<g clip-path="url(#clip0)">
<path d="M12.2015 7.79552C11.9646 7.5572 11.7019 7.34595 11.4183 7.16563C10.6672 6.68467 9.79398 6.42909 8.90207 6.42909C7.66413 6.42678 6.47649 6.91865 5.60267 7.79552L1.36343 12.0381C0.491085 12.9121 0.000782076 14.0963 9.66007e-07 15.3312C-0.00163936 17.9081 2.08595 19.9983 4.66283 20C5.89886 20.0043 7.08541 19.5148 7.95892 18.6402L11.4583 15.1409C11.5219 15.0778 11.5574 14.9918 11.5569 14.9023C11.5558 14.7182 11.4057 14.5699 11.2217 14.571H11.0884C10.3572 14.5735 9.63265 14.4331 8.95542 14.1577C8.83064 14.1064 8.68723 14.1353 8.59217 14.231L6.07594 16.7506C5.2946 17.5319 4.02779 17.5319 3.24645 16.7506C2.4651 15.9692 2.4651 14.7024 3.24645 13.9211L7.50236 9.66851C8.28308 8.88876 9.54782 8.88876 10.3285 9.66851C10.8547 10.1637 11.6754 10.1637 12.2015 9.66851C12.4279 9.44195 12.5651 9.14145 12.5881 8.82198C12.6125 8.44021 12.4717 8.06633 12.2015 7.79552Z" fill="currentColor"/>
<path d="M18.6331 1.36666C16.8109 -0.455553 13.8565 -0.455553 12.0343 1.36666L8.53825 4.85935C8.44225 4.95582 8.41456 5.10091 8.46826 5.22597C8.52134 5.35137 8.64538 5.43187 8.78153 5.42925H8.90482C9.63508 5.42792 10.3585 5.56942 11.0344 5.84585C11.1592 5.89721 11.3026 5.86823 11.3977 5.77255L13.9072 3.26632C14.6886 2.48497 15.9554 2.48497 16.7367 3.26632C17.5181 4.04766 17.5181 5.31447 16.7367 6.09581L13.6106 9.21857L13.5839 9.24856L12.4908 10.335C11.7101 11.1148 10.4454 11.1148 9.66465 10.335C9.13849 9.83986 8.31778 9.83986 7.79167 10.335C7.56385 10.5633 7.4265 10.8664 7.40506 11.1882C7.38068 11.57 7.52148 11.9439 7.79167 12.2147C8.17742 12.6021 8.62874 12.918 9.12475 13.1479C9.19473 13.1812 9.26472 13.2079 9.33471 13.2378C9.4047 13.2678 9.478 13.2912 9.54799 13.3178C9.61798 13.3445 9.69128 13.3678 9.76127 13.3878L9.95792 13.4411C10.0912 13.4744 10.2245 13.5011 10.3612 13.5244C10.5257 13.5489 10.6915 13.5645 10.8578 13.5711H11.091H11.111L11.311 13.5478C11.3843 13.5445 11.461 13.5278 11.5476 13.5278H11.6609L11.8909 13.4945L11.9976 13.4745L12.1908 13.4345H12.2275C13.0462 13.2289 13.7937 12.805 14.3904 12.208L18.633 7.96547C20.4553 6.14326 20.4553 3.18887 18.6331 1.36666Z" fill="currentColor"/>
</g>

</symbol><symbol id="icon-news" viewBox="0 0 32 32">
<path d="M3.06942 18.0713H1.00052V27.3926C0.992942 27.8027 1.06803 28.2101 1.22131 28.5905C1.37458 28.9709 1.60289 29.3164 1.89259 29.6065C2.18228 29.8965 2.52742 30.1251 2.90736 30.2786C3.2873 30.432 3.69424 30.5072 4.10386 30.4996" stroke="#2374E7" stroke-width="2" stroke-miterlimit="10" stroke-linecap="square"/>
<path d="M7.20734 1.5V27.3924C7.21492 27.8025 7.13983 28.2099 6.98656 28.5903C6.83328 28.9707 6.60498 29.3163 6.31528 29.6063C6.02558 29.8964 5.68045 30.125 5.30051 30.2784C4.92057 30.4319 4.51363 30.5071 4.104 30.4995H27.8963C28.3059 30.5071 28.7128 30.4319 29.0928 30.2784C29.4727 30.125 29.8179 29.8964 30.1076 29.6063C30.3973 29.3163 30.6256 28.9707 30.7788 28.5903C30.9321 28.2099 31.0072 27.8025 30.9996 27.3924V1.5H7.20734Z" stroke="#2374E7" stroke-width="2" stroke-miterlimit="10" stroke-linecap="square"/>
<path d="M26 6.5H12V13.5H26V6.5Z" stroke="#2374E7" stroke-width="2" stroke-miterlimit="10" stroke-linecap="square"/>
<path d="M26 24.5H12" stroke="#2374E7" stroke-width="2" stroke-miterlimit="10" stroke-linecap="square"/>
<path d="M26 19.5H12" stroke="#2374E7" stroke-width="2" stroke-miterlimit="10" stroke-linecap="square"/>
</symbol><symbol id="icon-notification" viewBox="0 0 32 32">
<path d="M13 28C13 28.7956 13.3161 29.5587 13.8787 30.1213C14.4413 30.6839 15.2044 31 16 31C16.7956 31 17.5587 30.6839 18.1213 30.1213C18.6839 29.5587 19 28.7956 19 28" stroke="#E55050" stroke-width="2" stroke-miterlimit="10"/>
<path d="M29 25C29 25 26 20 26 16V11C26 8.34784 24.9464 5.8043 23.0711 3.92893C21.1957 2.05357 18.6522 1 16 1C13.3478 1 10.8043 2.05357 8.92893 3.92893C7.05357 5.8043 6 8.34784 6 11V16C6 20 3 25 3 25H29Z" stroke="#E55050" stroke-width="2" stroke-miterlimit="10" stroke-linecap="square"/>
</symbol><symbol id="icon-paginator-next" viewBox="0 0 18 10">
<path d="M0 4.9983C0 5.42909 0.343729 5.77826 0.76781 5.77826L15.3919 5.77826L12.5394 8.67135C12.2403 8.97517 12.2403 9.46945 12.5394 9.77327C12.6867 9.92291 12.8831 10 13.0795 10C13.276 10 13.4724 9.92291 13.6197 9.77327L17.7757 5.55152C18.0748 5.2477 18.0748 4.75343 17.7757 4.44961L13.6197 0.227865C13.3206 -0.0759554 12.834 -0.0759554 12.5349 0.227865C12.2358 0.531685 12.2358 1.02596 12.5349 1.32978L15.383 4.22288L0.76781 4.22288C0.343729 4.22288 0 4.56751 0 4.9983Z" fill="currentColor"/>
</symbol><symbol id="icon-paginator-prev" viewBox="0 0 18 10">
<path d="M18 5.0017C18 4.57091 17.6563 4.22174 17.2322 4.22174L2.6081 4.22174L5.4606 1.32865C5.75969 1.02483 5.75969 0.530552 5.4606 0.226731C5.31329 0.0770884 5.11687 0 4.92045 0C4.72404 0 4.52762 0.0770884 4.38031 0.226731L0.224316 4.44848C-0.0747738 4.7523 -0.0747738 5.24657 0.224316 5.55039L4.38031 9.77213C4.6794 10.076 5.16597 10.076 5.46506 9.77213C5.76415 9.46831 5.76415 8.97404 5.46506 8.67022L2.61702 5.77712L17.2322 5.77712C17.6563 5.77712 18 5.43249 18 5.0017Z" fill="currentColor"/>
</symbol><symbol id="icon-poll" viewBox="0 0 32 33">
<g clip-path="url(#clip0)">
<path d="M1.64258 21.0863L8.18803 26.5625L25.0001 4.5" stroke="#70BF56" stroke-width="2" stroke-miterlimit="10" stroke-linecap="square"/>
<path d="M32 13.5H27" stroke="#70BF56" stroke-width="2" stroke-miterlimit="10" stroke-linecap="square"/>
<path d="M32 20.5H22" stroke="#70BF56" stroke-width="2" stroke-miterlimit="10" stroke-linecap="square"/>
<path d="M32 27.5H16" stroke="#70BF56" stroke-width="2" stroke-miterlimit="10" stroke-linecap="square"/>
</g>

</symbol><symbol id="icon-projects" viewBox="0 0 28 32">
<path d="M23.2857 4.85718H1V30.8572H23.2857V4.85718Z" stroke="#2C8ECC" stroke-width="2" stroke-miterlimit="10" stroke-linecap="square"/>
<path d="M5.64307 12.2858H17.7145" stroke="#2C8ECC" stroke-width="2" stroke-miterlimit="10" stroke-linecap="square"/>
<path d="M5.64307 17.8572H17.7145" stroke="#2C8ECC" stroke-width="2" stroke-miterlimit="10" stroke-linecap="square"/>
<path d="M5.64307 23.4286H10.2859" stroke="#2C8ECC" stroke-width="2" stroke-miterlimit="10" stroke-linecap="square"/>
<path d="M3.99951 1.14288H26.9995V27.8857" stroke="#2C8ECC" stroke-width="2" stroke-miterlimit="10" stroke-linecap="square"/>
</symbol><symbol id="icon-star" viewBox="0 0 20 19">
<path d="M19.1298 6.47772L13.6222 5.95698C13.275 5.92542 12.9749 5.7045 12.8331 5.37312L10.8603 0.591753C10.5447 -0.197251 9.42405 -0.197251 9.10841 0.591753L7.15147 5.37312C7.02522 5.7045 6.70958 5.92542 6.36238 5.95698L0.85455 6.47772C0.0338988 6.55662 -0.297518 7.58233 0.31797 8.13463L4.46857 11.7798C4.73686 12.0165 4.84734 12.3637 4.76843 12.7109L3.52167 17.8234C3.33229 18.6284 4.20028 19.291 4.92624 18.8651L9.51874 16.1665C9.81859 15.993 10.1816 15.993 10.4814 16.1665L15.0741 18.8651C15.8 19.291 16.668 18.6442 16.4785 17.8234L15.2475 12.7109C15.1686 12.3637 15.2791 12.0165 15.5474 11.7798L19.698 8.13463C20.2977 7.58233 19.9505 6.55662 19.1298 6.47772Z" fill="currentColor"/>
</symbol><symbol id="icon-tick" viewBox="0 0 19 13">
<path d="M1 5.5L7 11.5L17.5 1" stroke-width="2"/>
</symbol><symbol id="icon-triangle-arrow" viewBox="0 0 8 14">
<path fill-rule="evenodd" clip-rule="evenodd" d="M8 11.9833L3.02703 7L8 2.01667L6.48649 0.5L1.92713e-07 7L6.48649 13.5L8 11.9833Z"/>
</symbol><symbol id="icon-user" viewBox="0 0 14 16">
<path d="M6.99958 7.82505C8.7785 7.82505 10.2207 6.07337 10.2207 3.91255C10.2207 1.75168 9.74723 0 6.99958 0C4.25192 0 3.77832 1.75168 3.77832 3.91255C3.77832 6.07337 5.22056 7.82505 6.99958 7.82505Z" fill="#2C8ECC"/>
<path d="M0.91567 13.7992C0.915124 13.6674 0.914577 13.762 0.91567 13.7992V13.7992Z" fill="#2C8ECC"/>
<path d="M13.0835 13.9019C13.0852 13.8658 13.0841 13.6516 13.0835 13.9019V13.9019Z" fill="#2C8ECC"/>
<path d="M13.0768 13.641C13.0171 9.87679 12.5255 8.80419 8.76353 8.12524C8.76353 8.12524 8.23397 8.80003 6.99969 8.80003C5.7654 8.80003 5.23576 8.12524 5.23576 8.12524C1.51484 8.79679 0.993333 9.85348 0.924762 13.5187C0.919139 13.818 0.916533 13.8337 0.915527 13.799C0.915756 13.8641 0.91603 13.9845 0.91603 14.1945C0.91603 14.1945 1.81166 16 6.99969 16C12.1876 16 13.0833 14.1945 13.0833 14.1945C13.0833 14.0596 13.0834 13.9658 13.0836 13.9019C13.0826 13.9234 13.0806 13.8818 13.0768 13.641Z" fill="#2C8ECC"/>
</symbol><symbol id="icon-youtube" viewBox="0 0 24 24">
<g clip-path="url(#clip0)">
<path d="M23.5055 6.23876C23.2288 5.21063 22.4182 4.4002 21.3903 4.12335C19.5122 3.60938 11.9998 3.60938 11.9998 3.60938C11.9998 3.60938 4.48753 3.60938 2.60943 4.10376C1.60125 4.38043 0.770871 5.21081 0.4942 6.23876C0 8.11668 0 12.0113 0 12.0113C0 12.0113 0 15.9255 0.4942 17.7839C0.771054 18.8118 1.58148 19.6224 2.60961 19.8993C4.50731 20.4133 12 20.4133 12 20.4133C12 20.4133 19.5122 20.4133 21.3903 19.9189C22.4184 19.6422 23.2288 18.8316 23.5057 17.8037C23.9999 15.9255 23.9999 12.0311 23.9999 12.0311C23.9999 12.0311 24.0197 8.11668 23.5055 6.23876Z" fill="#FF0000"/>
<path d="M9.60742 15.6094L15.8544 12.0114L9.60742 8.41333V15.6094Z" fill="white"/>
</g>

</symbol></svg>