<svg xmlns="http://www.w3.org/2000/svg"><defs>
<clipPath id="clip0">
<rect width="20" height="20" fill="white"/>
</clipPath>

<clipPath id="clip0">
<rect width="24" height="24" fill="white"/>
</clipPath>
</defs><symbol id="icon-arrow-big" viewBox="0 0 8 14">
<path fill-rule="evenodd" clip-rule="evenodd" d="M8 11.9833L3.02703 7L8 2.01667L6.48649 0.5L1.92713e-07 7L6.48649 13.5L8 11.9833Z" fill="currentColor"/>
</symbol><symbol id="icon-arrow" viewBox="0 0 33 12">
<path d="M32.5303 6.53033C32.8232 6.23744 32.8232 5.76257 32.5303 5.46967L27.7574 0.696702C27.4645 0.403808 26.9896 0.403808 26.6967 0.696701C26.4038 0.989595 26.4038 1.46447 26.6967 1.75736L30.9393 6L26.6967 10.2426C26.4038 10.5355 26.4038 11.0104 26.6967 11.3033C26.9896 11.5962 27.4645 11.5962 27.7574 11.3033L32.5303 6.53033ZM-6.55671e-08 6.75L32 6.75L32 5.25L6.55671e-08 5.25L-6.55671e-08 6.75Z" fill="currentColor"/>
</symbol><symbol id="icon-attention" viewBox="0 0 20 18">
<path d="M19.7824 15.5587L11.3896 0.81409C10.7719 -0.271165 9.22838 -0.271561 8.61041 0.81409L0.217518 15.5587C-0.400216 16.644 0.37119 18 1.60713 18H18.3928C19.6283 18 20.4004 16.6444 19.7824 15.5587ZM18.3928 16.5086H1.60713C1.50283 16.5086 1.43865 16.3962 1.49092 16.3044L9.88377 1.55979C9.93592 1.46815 10.0639 1.46795 10.1162 1.55979L18.509 16.3044C18.5612 16.3961 18.4974 16.5086 18.3928 16.5086Z" fill="#9BD2F4"/>
<path d="M9.99887 6.18652C9.59285 6.18652 9.26367 6.52041 9.26367 6.93223V11.2069C9.26367 11.6187 9.59285 11.9526 9.99887 11.9526C10.4049 11.9526 10.7341 11.6187 10.7341 11.2069V6.93223C10.7341 6.52041 10.4049 6.18652 9.99887 6.18652Z" fill="#9BD2F4"/>
<path d="M9.99887 12.9214C9.59285 12.9214 9.26367 13.2553 9.26367 13.6671V14.1124C9.26367 14.5242 9.59285 14.8581 9.99887 14.8581C10.4049 14.8581 10.7341 14.5242 10.7341 14.1124V13.6671C10.7341 13.2552 10.4049 12.9214 9.99887 12.9214Z" fill="#9BD2F4"/>
</symbol><symbol id="icon-calendar" viewBox="0 0 22 24">
<path d="M19.4012 2.40002H18.2012V0H15.8012V2.40002H6.20119V0H3.80117V2.40002H2.60119C1.27521 2.40002 0.213209 3.474 0.213209 4.80003L0.201172 21.6C0.201172 22.926 1.27515 24 2.60119 24H19.4012C20.7272 24 21.8012 22.926 21.8012 21.6V4.79998C21.8012 3.474 20.7272 2.40002 19.4012 2.40002ZM19.4012 21.6H2.60119V8.39997H19.4012V21.6Z" fill="#2C8ECC"/>
<path d="M16.4362 12.072L15.1642 10.8L9.30819 16.6561L6.76422 14.112L5.49219 15.384L9.30819 19.2L16.4362 12.072Z" fill="#2C8ECC"/>
</symbol><symbol id="icon-clock" viewBox="0 0 16 16">
<g opacity="0.5">
<circle cx="8" cy="8" r="7.25" stroke="#707B8C" stroke-width="1.5"/>
<rect x="7.375" y="3.375" width="0.75" height="5.25" stroke="#707B8C" stroke-width="0.75"/>
<rect x="10.625" y="8.375" width="0.75" height="3.25" transform="rotate(90 10.625 8.375)" stroke="#707B8C" stroke-width="0.75"/>
</g>
</symbol><symbol id="icon-cross" viewBox="0 0 18 18">
<path d="M1 1L17 17M17 1L1 17" stroke-width="2"/>
</symbol><symbol id="icon-doc-doc" viewBox="0 0 24 24">
<path d="M3 1H17V4V5H18H21V23H3V1ZM19 2.41421L19.5858 3H19V2.41421Z" fill="white" stroke="#9BD2F4" stroke-width="2"/>
<mask id="path-2-inside-1" fill="white">
<rect y="8" width="24" height="12" rx="1"/>
</mask>
<rect y="8" width="24" height="12" rx="1" fill="white" stroke="#9BD2F4" stroke-width="4" mask="url(#path-2-inside-1)"/>
<path d="M4.48788 17C4.43454 17 4.38921 16.9813 4.35188 16.944C4.31454 16.9067 4.29588 16.8613 4.29588 16.808V11.6C4.29588 11.5413 4.31188 11.4933 4.34388 11.456C4.38121 11.4187 4.42921 11.4 4.48788 11.4H6.43988C8.00788 11.4 8.80788 12.1253 8.83988 13.576C8.85054 13.8853 8.85588 14.0933 8.85588 14.2C8.85588 14.3013 8.85054 14.5067 8.83988 14.816C8.81854 15.5627 8.61854 16.1147 8.23988 16.472C7.86121 16.824 7.27454 17 6.47988 17H4.48788ZM6.43988 16.08C6.88788 16.08 7.21054 15.9813 7.40788 15.784C7.60521 15.5813 7.70921 15.2507 7.71988 14.792C7.73054 14.472 7.73588 14.272 7.73588 14.192C7.73588 14.1067 7.73054 13.9093 7.71988 13.6C7.70921 13.1627 7.59721 12.84 7.38388 12.632C7.17588 12.424 6.84788 12.32 6.39988 12.32H5.40788V16.08H6.43988ZM12.0729 17.08C11.3475 17.08 10.7822 16.896 10.3769 16.528C9.97154 16.16 9.75821 15.6133 9.73688 14.888C9.73154 14.7333 9.72888 14.5067 9.72888 14.208C9.72888 13.904 9.73154 13.6747 9.73688 13.52C9.75821 12.8107 9.97688 12.2667 10.3929 11.888C10.8089 11.5093 11.3689 11.32 12.0729 11.32C12.7769 11.32 13.3369 11.5093 13.7529 11.888C14.1742 12.2667 14.3955 12.8107 14.4169 13.52C14.4275 13.8293 14.4329 14.0587 14.4329 14.208C14.4329 14.352 14.4275 14.5787 14.4169 14.888C14.3902 15.6133 14.1742 16.16 13.7689 16.528C13.3635 16.896 12.7982 17.08 12.0729 17.08ZM12.0729 16.16C12.4302 16.16 12.7155 16.0533 12.9289 15.84C13.1422 15.6213 13.2569 15.2907 13.2729 14.848C13.2835 14.528 13.2889 14.312 13.2889 14.2C13.2889 14.0773 13.2835 13.8613 13.2729 13.552C13.2569 13.1093 13.1422 12.7813 12.9289 12.568C12.7155 12.3493 12.4302 12.24 12.0729 12.24C11.7209 12.24 11.4382 12.3493 11.2249 12.568C11.0115 12.7813 10.8969 13.1093 10.8809 13.552C10.8755 13.7067 10.8729 13.9227 10.8729 14.2C10.8729 14.472 10.8755 14.688 10.8809 14.848C10.8969 15.2907 11.0089 15.6213 11.2169 15.84C11.4302 16.0533 11.7155 16.16 12.0729 16.16ZM17.6434 17.08C16.9074 17.08 16.3367 16.8907 15.9314 16.512C15.5314 16.1333 15.318 15.6 15.2914 14.912C15.286 14.768 15.2834 14.5333 15.2834 14.208C15.2834 13.8773 15.286 13.6373 15.2914 13.488C15.318 12.8053 15.534 12.2747 15.9394 11.896C16.35 11.512 16.918 11.32 17.6434 11.32C18.118 11.32 18.5314 11.4027 18.8834 11.568C19.2354 11.728 19.5074 11.9493 19.6994 12.232C19.8914 12.5093 19.9927 12.824 20.0034 13.176V13.192C20.0034 13.2347 19.9847 13.272 19.9474 13.304C19.9154 13.3307 19.878 13.344 19.8354 13.344H19.0754C19.0114 13.344 18.9634 13.3307 18.9314 13.304C18.8994 13.2773 18.8727 13.2267 18.8514 13.152C18.766 12.816 18.6247 12.5813 18.4274 12.448C18.23 12.3093 17.966 12.24 17.6354 12.24C16.8674 12.24 16.4674 12.6693 16.4354 13.528C16.43 13.672 16.4274 13.8933 16.4274 14.192C16.4274 14.4907 16.43 14.7173 16.4354 14.872C16.4674 15.7307 16.8674 16.16 17.6354 16.16C17.966 16.16 18.23 16.0907 18.4274 15.952C18.63 15.8133 18.7714 15.5787 18.8514 15.248C18.8674 15.1733 18.8914 15.1227 18.9234 15.096C18.9607 15.0693 19.0114 15.056 19.0754 15.056H19.8354C19.8834 15.056 19.9234 15.072 19.9554 15.104C19.9927 15.136 20.0087 15.176 20.0034 15.224C19.9927 15.576 19.8914 15.8933 19.6994 16.176C19.5074 16.4533 19.2354 16.6747 18.8834 16.84C18.5314 17 18.118 17.08 17.6434 17.08Z" fill="#2C8ECC"/>
</symbol><symbol id="icon-doc-odt" viewBox="0 0 24 24">
<path d="M3 1H17V4V5H18H21V23H3V1ZM19 2.41421L19.5858 3H19V2.41421Z" fill="white" stroke="#9BD2F4" stroke-width="2"/>
<mask id="path-2-inside-1" fill="white">
<rect y="8" width="24" height="12" rx="1"/>
</mask>
<rect y="8" width="24" height="12" rx="1" fill="white" stroke="#9BD2F4" stroke-width="4" mask="url(#path-2-inside-1)"/>
<path d="M6.81116 17.08C6.08582 17.08 5.52049 16.896 5.11516 16.528C4.70982 16.16 4.49649 15.6133 4.47516 14.888C4.46982 14.7333 4.46716 14.5067 4.46716 14.208C4.46716 13.904 4.46982 13.6747 4.47516 13.52C4.49649 12.8107 4.71516 12.2667 5.13116 11.888C5.54716 11.5093 6.10716 11.32 6.81116 11.32C7.51516 11.32 8.07516 11.5093 8.49116 11.888C8.91249 12.2667 9.13382 12.8107 9.15516 13.52C9.16582 13.8293 9.17116 14.0587 9.17116 14.208C9.17116 14.352 9.16582 14.5787 9.15516 14.888C9.12849 15.6133 8.91249 16.16 8.50716 16.528C8.10182 16.896 7.53649 17.08 6.81116 17.08ZM6.81116 16.16C7.16849 16.16 7.45382 16.0533 7.66716 15.84C7.88049 15.6213 7.99516 15.2907 8.01116 14.848C8.02182 14.528 8.02716 14.312 8.02716 14.2C8.02716 14.0773 8.02182 13.8613 8.01116 13.552C7.99516 13.1093 7.88049 12.7813 7.66716 12.568C7.45382 12.3493 7.16849 12.24 6.81116 12.24C6.45916 12.24 6.17649 12.3493 5.96316 12.568C5.74982 12.7813 5.63516 13.1093 5.61916 13.552C5.61382 13.7067 5.61116 13.9227 5.61116 14.2C5.61116 14.472 5.61382 14.688 5.61916 14.848C5.63516 15.2907 5.74716 15.6213 5.95516 15.84C6.16849 16.0533 6.45382 16.16 6.81116 16.16ZM10.4137 17C10.3603 17 10.315 16.9813 10.2777 16.944C10.2403 16.9067 10.2217 16.8613 10.2217 16.808V11.6C10.2217 11.5413 10.2377 11.4933 10.2697 11.456C10.307 11.4187 10.355 11.4 10.4137 11.4H12.3657C13.9337 11.4 14.7337 12.1253 14.7657 13.576C14.7763 13.8853 14.7817 14.0933 14.7817 14.2C14.7817 14.3013 14.7763 14.5067 14.7657 14.816C14.7443 15.5627 14.5443 16.1147 14.1657 16.472C13.787 16.824 13.2003 17 12.4057 17H10.4137ZM12.3657 16.08C12.8137 16.08 13.1363 15.9813 13.3337 15.784C13.531 15.5813 13.635 15.2507 13.6457 14.792C13.6563 14.472 13.6617 14.272 13.6617 14.192C13.6617 14.1067 13.6563 13.9093 13.6457 13.6C13.635 13.1627 13.523 12.84 13.3097 12.632C13.1017 12.424 12.7737 12.32 12.3257 12.32H11.3337V16.08H12.3657ZM17.1691 17C17.1158 17 17.0704 16.9813 17.0331 16.944C16.9958 16.9067 16.9771 16.8613 16.9771 16.808V12.384H15.4971C15.4438 12.384 15.3984 12.3653 15.3611 12.328C15.3238 12.2907 15.3051 12.2453 15.3051 12.192V11.6C15.3051 11.5413 15.3211 11.4933 15.3531 11.456C15.3904 11.4187 15.4384 11.4 15.4971 11.4H19.5771C19.6358 11.4 19.6838 11.4187 19.7211 11.456C19.7584 11.4933 19.7771 11.5413 19.7771 11.6V12.192C19.7771 12.2453 19.7584 12.2907 19.7211 12.328C19.6838 12.3653 19.6358 12.384 19.5771 12.384H18.1051V16.808C18.1051 16.8613 18.0864 16.9067 18.0491 16.944C18.0118 16.9813 17.9638 17 17.9051 17H17.1691Z" fill="#2C8ECC"/>
</symbol><symbol id="icon-doc-pdf" viewBox="0 0 24 24">
<path d="M3 1H17V4V5H18H21V23H3V1ZM19 2.41421L19.5858 3H19V2.41421Z" fill="white" stroke="#9BD2F4" stroke-width="2"/>
<mask id="path-2-inside-1" fill="white">
<rect y="8" width="24" height="12" rx="1"/>
</mask>
<rect y="8" width="24" height="12" rx="1" fill="white" stroke="#9BD2F4" stroke-width="4" mask="url(#path-2-inside-1)"/>
<path d="M4.96444 17C4.9111 17 4.86577 16.9813 4.82844 16.944C4.7911 16.9067 4.77244 16.8613 4.77244 16.808V11.6C4.77244 11.5413 4.78844 11.4933 4.82044 11.456C4.85777 11.4187 4.90577 11.4 4.96444 11.4H7.10844C7.74844 11.4 8.25244 11.552 8.62044 11.856C8.98844 12.1547 9.17244 12.5947 9.17244 13.176C9.17244 13.7573 8.98844 14.1973 8.62044 14.496C8.25777 14.7893 7.75377 14.936 7.10844 14.936H5.91644V16.808C5.91644 16.8613 5.89777 16.9067 5.86044 16.944C5.82844 16.9813 5.7831 17 5.72444 17H4.96444ZM7.06844 14.048C7.37777 14.048 7.6151 13.976 7.78044 13.832C7.94577 13.6827 8.02844 13.464 8.02844 13.176C8.02844 12.8987 7.94844 12.6827 7.78844 12.528C7.62844 12.368 7.38844 12.288 7.06844 12.288H5.90044V14.048H7.06844ZM10.2379 17C10.1845 17 10.1392 16.9813 10.1019 16.944C10.0645 16.9067 10.0459 16.8613 10.0459 16.808V11.6C10.0459 11.5413 10.0619 11.4933 10.0939 11.456C10.1312 11.4187 10.1792 11.4 10.2379 11.4H12.1899C13.7579 11.4 14.5579 12.1253 14.5899 13.576C14.6005 13.8853 14.6059 14.0933 14.6059 14.2C14.6059 14.3013 14.6005 14.5067 14.5899 14.816C14.5685 15.5627 14.3685 16.1147 13.9899 16.472C13.6112 16.824 13.0245 17 12.2299 17H10.2379ZM12.1899 16.08C12.6379 16.08 12.9605 15.9813 13.1579 15.784C13.3552 15.5813 13.4592 15.2507 13.4699 14.792C13.4805 14.472 13.4859 14.272 13.4859 14.192C13.4859 14.1067 13.4805 13.9093 13.4699 13.6C13.4592 13.1627 13.3472 12.84 13.1339 12.632C12.9259 12.424 12.5979 12.32 12.1499 12.32H11.1579V16.08H12.1899ZM15.8629 17C15.8095 17 15.7642 16.9813 15.7269 16.944C15.6895 16.9067 15.6709 16.8613 15.6709 16.808V11.6C15.6709 11.5413 15.6869 11.4933 15.7189 11.456C15.7562 11.4187 15.8042 11.4 15.8629 11.4H19.3349C19.3935 11.4 19.4415 11.4187 19.4789 11.456C19.5162 11.4933 19.5349 11.5413 19.5349 11.6V12.16C19.5349 12.2187 19.5162 12.2667 19.4789 12.304C19.4415 12.336 19.3935 12.352 19.3349 12.352H16.7669V13.872H19.1749C19.2335 13.872 19.2815 13.8907 19.3189 13.928C19.3562 13.9653 19.3749 14.0133 19.3749 14.072V14.632C19.3749 14.6907 19.3562 14.7387 19.3189 14.776C19.2815 14.808 19.2335 14.824 19.1749 14.824H16.7669V16.808C16.7669 16.8667 16.7482 16.9147 16.7109 16.952C16.6735 16.984 16.6255 17 16.5669 17H15.8629Z" fill="#2C8ECC"/>
</symbol><symbol id="icon-glasses" viewBox="0 0 18 18">
<path d="M1.05469 8.3262V5.61003C1.05469 4.02695 2.33578 2.74902 3.91641 2.74902C4.2075 2.74902 4.4434 2.51277 4.4434 2.22168C4.4434 1.93059 4.20715 1.69434 3.9157 1.69434C1.74937 1.69434 0 3.44757 0 5.61003V9.33061C0.300234 8.9467 0.656016 8.6078 1.05469 8.3262Z" fill="#707B8C"/>
<path d="M14.0836 1.69434C13.7925 1.69434 13.5566 1.93059 13.5566 2.22168C13.5566 2.51277 13.7929 2.74902 14.0843 2.74902C15.6671 2.74902 16.9454 4.02976 16.9454 5.61003V8.3262C17.344 8.6078 17.6998 8.9467 18 9.33061V5.61003C18 3.44336 16.2468 1.69434 14.0836 1.69434Z" fill="#707B8C"/>
<path fill-rule="evenodd" clip-rule="evenodd" d="M10.3238 11.2919C10.7994 9.66473 12.3048 8.47266 14.0836 8.47266C16.2431 8.47266 18 10.2295 18 12.389C18 14.5485 16.2431 16.3054 14.0836 16.3054C11.9996 16.3054 10.2908 14.6692 10.1738 12.614L9.75653 12.1968C9.55448 11.9948 9.28586 11.8836 9 11.8836C8.71414 11.8836 8.44548 11.9948 8.24347 12.1968L7.82617 12.6141C7.70913 14.6693 6.00036 16.3055 3.91641 16.3055C1.7569 16.3055 0 14.5486 0 12.3891C0 10.2296 1.7569 8.47266 3.91641 8.47266C5.69521 8.47266 7.20056 9.66477 7.67616 11.2919C8.05099 10.9921 8.51284 10.8289 9 10.8289C9.48716 10.8289 9.94897 10.9921 10.3238 11.2919ZM6.76875 12.389C6.76875 13.9906 5.47038 15.289 3.86875 15.289C2.26712 15.289 0.96875 13.9906 0.96875 12.389C0.96875 10.7874 2.26712 9.48901 3.86875 9.48901C5.47038 9.48901 6.76875 10.7874 6.76875 12.389ZM16.9562 12.389C16.9562 13.9906 15.6579 15.289 14.0562 15.289C12.4546 15.289 11.1562 13.9906 11.1562 12.389C11.1562 10.7874 12.4546 9.48901 14.0562 9.48901C15.6579 9.48901 16.9562 10.7874 16.9562 12.389Z" fill="#707B8C"/>
</symbol><symbol id="icon-lightning" viewBox="0 0 12 16">
<path d="M4.58568 15.9539C4.65456 15.9815 4.72343 15.9952 4.79231 15.9952C4.97139 15.9952 5.15047 15.9126 5.26068 15.7473L11.1703 7.20648C11.2943 7.04118 11.3081 6.807 11.2117 6.62792C11.1152 6.44883 10.9224 6.32485 10.7158 6.32485L7.05149 6.2973L8.1122 0.676915C8.1673 0.428957 8.02954 0.167223 7.79536 0.057019C7.56118 -0.0531847 7.28567 0.0156926 7.12036 0.222325L0.852527 8.11567C0.714773 8.28097 0.687222 8.51515 0.78365 8.70801C0.880078 8.90087 1.07293 9.02485 1.29334 9.02485L5.34333 9.0524L4.25507 15.334C4.19997 15.5957 4.33772 15.8575 4.58568 15.9539ZM2.45048 7.90903L6.58312 2.70191L5.81169 6.76567C5.78414 6.93098 5.82547 7.09628 5.93567 7.23404C6.04588 7.35802 6.19741 7.44067 6.36271 7.44067L9.6275 7.45444L5.78414 13.0197L6.54179 8.58403C6.56934 8.41873 6.52802 8.25342 6.41781 8.12944C6.32139 8.00546 6.16986 7.93658 6.00455 7.93658L2.45048 7.90903Z" fill="#9BD2F4"/>
<path d="M2.45048 7.90903L6.58312 2.70191L5.81169 6.76567C5.78414 6.93098 5.82547 7.09628 5.93567 7.23404C6.04588 7.35802 6.19741 7.44067 6.36271 7.44067L9.6275 7.45444L5.78414 13.0197L6.54179 8.58403C6.56934 8.41873 6.52802 8.25342 6.41781 8.12944C6.32139 8.00546 6.16986 7.93658 6.00455 7.93658L2.45048 7.90903Z" fill="#9BD2F4"/>
</symbol><symbol id="icon-link" viewBox="0 0 20 20">
<g clip-path="url(#clip0)">
<path d="M12.2034 7.79552C11.9665 7.5572 11.7038 7.34595 11.4203 7.16563C10.6691 6.68467 9.79594 6.42909 8.90403 6.42909C7.66609 6.42678 6.47845 6.91865 5.60462 7.79552L1.36538 12.0381C0.493038 12.9121 0.0027352 14.0963 0.00195409 15.3312C0.000313761 17.9081 2.08791 19.9983 4.66479 20C5.90082 20.0043 7.08736 19.5148 7.96088 18.6402L11.4602 15.1409C11.5238 15.0778 11.5593 14.9918 11.5588 14.9023C11.5578 14.7182 11.4077 14.5699 11.2236 14.571H11.0903C10.3592 14.5735 9.6346 14.4331 8.95738 14.1577C8.83259 14.1064 8.68918 14.1353 8.59412 14.231L6.07789 16.7506C5.29655 17.5319 4.02975 17.5319 3.2484 16.7506C2.46706 15.9692 2.46706 14.7024 3.2484 13.9211L7.50432 9.66851C8.28504 8.88876 9.54977 8.88876 10.3305 9.66851C10.8566 10.1637 11.6774 10.1637 12.2035 9.66851C12.4298 9.44195 12.5671 9.14145 12.5901 8.82198C12.6144 8.44021 12.4736 8.06633 12.2034 7.79552Z" fill="#2C8ECC"/>
<path d="M18.6312 1.36666C16.8089 -0.455553 13.8546 -0.455553 12.0323 1.36666L8.5363 4.85935C8.4403 4.95582 8.41261 5.10091 8.46631 5.22597C8.51939 5.35137 8.64343 5.43187 8.77957 5.42925H8.90287C9.63313 5.42792 10.3566 5.56942 11.0325 5.84585C11.1573 5.89721 11.3007 5.86823 11.3957 5.77255L13.9053 3.26632C14.6866 2.48497 15.9534 2.48497 16.7348 3.26632C17.5161 4.04766 17.5161 5.31447 16.7348 6.09581L13.6087 9.21857L13.582 9.24856L12.4889 10.335C11.7081 11.1148 10.4434 11.1148 9.6627 10.335C9.13654 9.83986 8.31583 9.83986 7.78971 10.335C7.5619 10.5633 7.42454 10.8664 7.4031 11.1882C7.37873 11.57 7.51953 11.9439 7.78971 12.2147C8.17546 12.6021 8.62679 12.918 9.12279 13.1479C9.19278 13.1812 9.26277 13.2079 9.33276 13.2378C9.40274 13.2678 9.47605 13.2912 9.54604 13.3178C9.61602 13.3445 9.68933 13.3678 9.75932 13.3878L9.95596 13.4411C10.0893 13.4744 10.2226 13.5011 10.3592 13.5244C10.5238 13.5489 10.6895 13.5645 10.8558 13.5711H11.0891H11.1091L11.309 13.5478C11.3823 13.5445 11.459 13.5278 11.5457 13.5278H11.659L11.8889 13.4945L11.9956 13.4745L12.1889 13.4345H12.2256C13.0442 13.2289 13.7917 12.805 14.3885 12.208L18.631 7.96547C20.4534 6.14326 20.4534 3.18887 18.6312 1.36666Z" fill="#2C8ECC"/>
</g>

</symbol><symbol id="icon-paginator-next" viewBox="0 0 18 10">
<path d="M0 4.9983C0 5.42909 0.343729 5.77826 0.76781 5.77826L15.3919 5.77826L12.5394 8.67135C12.2403 8.97517 12.2403 9.46945 12.5394 9.77327C12.6867 9.92291 12.8831 10 13.0795 10C13.276 10 13.4724 9.92291 13.6197 9.77327L17.7757 5.55152C18.0748 5.2477 18.0748 4.75343 17.7757 4.44961L13.6197 0.227865C13.3206 -0.0759554 12.834 -0.0759554 12.5349 0.227865C12.2358 0.531685 12.2358 1.02596 12.5349 1.32978L15.383 4.22288L0.76781 4.22288C0.343729 4.22288 0 4.56751 0 4.9983Z" fill="currentColor"/>
</symbol><symbol id="icon-paginator-prev" viewBox="0 0 18 10">
<path d="M18 5.0017C18 4.57091 17.6563 4.22174 17.2322 4.22174L2.6081 4.22174L5.4606 1.32865C5.75969 1.02483 5.75969 0.530552 5.4606 0.226731C5.31329 0.0770884 5.11687 0 4.92045 0C4.72404 0 4.52762 0.0770884 4.38031 0.226731L0.224316 4.44848C-0.0747738 4.7523 -0.0747738 5.24657 0.224316 5.55039L4.38031 9.77213C4.6794 10.076 5.16597 10.076 5.46506 9.77213C5.76415 9.46831 5.76415 8.97404 5.46506 8.67022L2.61702 5.77712L17.2322 5.77712C17.6563 5.77712 18 5.43249 18 5.0017Z" fill="currentColor"/>
</symbol><symbol id="icon-star" viewBox="0 0 20 19">
<path d="M19.1298 6.47772L13.6222 5.95698C13.275 5.92542 12.9749 5.7045 12.8331 5.37312L10.8603 0.591753C10.5447 -0.197251 9.42405 -0.197251 9.10841 0.591753L7.15147 5.37312C7.02522 5.7045 6.70958 5.92542 6.36238 5.95698L0.85455 6.47772C0.0338988 6.55662 -0.297518 7.58233 0.31797 8.13463L4.46857 11.7798C4.73686 12.0165 4.84734 12.3637 4.76843 12.7109L3.52167 17.8234C3.33229 18.6284 4.20028 19.291 4.92624 18.8651L9.51874 16.1665C9.81859 15.993 10.1816 15.993 10.4814 16.1665L15.0741 18.8651C15.8 19.291 16.668 18.6442 16.4785 17.8234L15.2475 12.7109C15.1686 12.3637 15.2791 12.0165 15.5474 11.7798L19.698 8.13463C20.2977 7.58233 19.9505 6.55662 19.1298 6.47772Z" fill="currentColor"/>
</symbol><symbol id="icon-tick" viewBox="0 0 19 13">
<path d="M1 5.5L7 11.5L17.5 1" stroke-width="2"/>
</symbol><symbol id="icon-triangle-arrow" viewBox="0 0 8 14">
<path fill-rule="evenodd" clip-rule="evenodd" d="M8 11.9833L3.02703 7L8 2.01667L6.48649 0.5L1.92713e-07 7L6.48649 13.5L8 11.9833Z"/>
</symbol><symbol id="icon-user" viewBox="0 0 14 16">
<path d="M6.99958 7.82505C8.7785 7.82505 10.2207 6.07337 10.2207 3.91255C10.2207 1.75168 9.74723 0 6.99958 0C4.25192 0 3.77832 1.75168 3.77832 3.91255C3.77832 6.07337 5.22056 7.82505 6.99958 7.82505Z" fill="#2C8ECC"/>
<path d="M0.91567 13.7992C0.915124 13.6674 0.914577 13.762 0.91567 13.7992V13.7992Z" fill="#2C8ECC"/>
<path d="M13.0835 13.9019C13.0852 13.8658 13.0841 13.6516 13.0835 13.9019V13.9019Z" fill="#2C8ECC"/>
<path d="M13.0768 13.641C13.0171 9.87679 12.5255 8.80419 8.76353 8.12524C8.76353 8.12524 8.23397 8.80003 6.99969 8.80003C5.7654 8.80003 5.23576 8.12524 5.23576 8.12524C1.51484 8.79679 0.993333 9.85348 0.924762 13.5187C0.919139 13.818 0.916533 13.8337 0.915527 13.799C0.915756 13.8641 0.91603 13.9845 0.91603 14.1945C0.91603 14.1945 1.81166 16 6.99969 16C12.1876 16 13.0833 14.1945 13.0833 14.1945C13.0833 14.0596 13.0834 13.9658 13.0836 13.9019C13.0826 13.9234 13.0806 13.8818 13.0768 13.641Z" fill="#2C8ECC"/>
</symbol><symbol id="icon-youtube" viewBox="0 0 24 24">
<g clip-path="url(#clip0)">
<path d="M23.5055 6.23876C23.2288 5.21063 22.4182 4.4002 21.3903 4.12335C19.5122 3.60938 11.9998 3.60938 11.9998 3.60938C11.9998 3.60938 4.48753 3.60938 2.60943 4.10376C1.60125 4.38043 0.770871 5.21081 0.4942 6.23876C0 8.11668 0 12.0113 0 12.0113C0 12.0113 0 15.9255 0.4942 17.7839C0.771054 18.8118 1.58148 19.6224 2.60961 19.8993C4.50731 20.4133 12 20.4133 12 20.4133C12 20.4133 19.5122 20.4133 21.3903 19.9189C22.4184 19.6422 23.2288 18.8316 23.5057 17.8037C23.9999 15.9255 23.9999 12.0311 23.9999 12.0311C23.9999 12.0311 24.0197 8.11668 23.5055 6.23876Z" fill="#FF0000"/>
<path d="M9.60742 15.6094L15.8544 12.0114L9.60742 8.41333V15.6094Z" fill="white"/>
</g>

</symbol></svg>