<svg xmlns="http://www.w3.org/2000/svg"><defs>
<clipPath id="clip0">
<rect width="16" height="16" fill="white"/>
</clipPath>

<clipPath id="clip0_991_1162">
<rect width="31" height="31" fill="white" transform="translate(13 13.75)"/>
</clipPath>

<clipPath id="clip0_810_12989">
<rect width="12" height="12" fill="white" transform="matrix(-1 0 0 1 14.1201 2)"/>
</clipPath>

<clipPath id="clip0">
<rect width="20" height="20" fill="white"/>
</clipPath>

<clipPath id="clip0_751_40293">
<rect width="31" height="31" fill="white" transform="translate(13 14)"/>
</clipPath>

<clipPath id="clip0">
<rect width="32" height="32" fill="white" transform="translate(0 0.5)"/>
</clipPath>

        <clipPath id="clip0">
            <path fill="#fff" transform="matrix(-1 0 0 1 14 2)" d="M0 0h12v12H0z"/>
        </clipPath>
    
<clipPath id="clip0_991_2264">
<rect width="31" height="31" fill="white" transform="translate(13 13.75)"/>
</clipPath>

<clipPath id="clip0_991_571">
<rect width="31" height="31" fill="white" transform="translate(13 14)"/>
</clipPath>

<clipPath id="clip0">
<rect width="24" height="24" fill="white"/>
</clipPath>

<clipPath id="clip0">
<rect width="20" height="20" fill="white"/>
</clipPath>
</defs><symbol id="blue" viewBox="0 0 20 20">
<circle cx="10" cy="10" r="9.25" stroke="#2C8ECC" stroke-width="1.5"/>
<path d="M6 10L9.2 13L14 7" stroke="#2C8ECC" stroke-width="1.5"/>
</symbol><symbol id="checkbox-blue-2" viewBox="0 0 20 20">
<circle cx="10" cy="10" r="9.25" stroke="" stroke-width="1.5"/>
<path d="M6 10L9.2 13L14 7" stroke="" stroke-width="1.5"/>
</symbol><symbol id="checkbox-blue" viewBox="0 0 24 24">
<circle cx="12" cy="12" r="11.25" stroke="#2C8ECC" stroke-width="1.5"/>
<path d="M7 12L11 16L17 8" stroke="#2C8ECC" stroke-width="1.5"/>
</symbol><symbol id="checkbox-grey" viewBox="0 0 24 24">
<circle cx="12" cy="12" r="11.25" stroke="#A6ABB2" stroke-width="1.5"/>
<path d="M7 12L11 16L17 8" stroke="#A6ABB2" stroke-width="1.5"/>
</symbol><symbol id="checkbox-white" viewBox="0 0 24 24">
<path d="M0.1 12C0.1 5.43843 5.43843 0.1 12 0.1C18.5616 0.1 23.9 5.43843 23.9 12C23.9 18.5616 18.5616 23.9 12 23.9C5.43843 23.9 0.1 18.5616 0.1 12ZM2.45315 12C2.45315 17.2643 6.73597 21.5466 12 21.5466C17.264 21.5466 21.5469 17.2643 21.5469 12C21.5469 6.73571 17.264 2.4534 12 2.4534C6.73597 2.4534 2.45315 6.73571 2.45315 12Z" fill="white" stroke="#FCA844" stroke-width="0.2"/>
<path d="M8 12L11.2 15L16 9" stroke="white" stroke-width="2" stroke-linecap="round" stroke-linejoin="round"/>
</symbol><symbol id="icon-arrow-big" viewBox="0 0 8 14">
<path fill-rule="evenodd" clip-rule="evenodd" d="M8 11.9833L3.02703 7L8 2.01667L6.48649 0.5L1.92713e-07 7L6.48649 13.5L8 11.9833Z" fill="currentColor"/>
</symbol><symbol id="icon-arrow-down" viewBox="0 0 14 8">
<path fill-rule="evenodd" clip-rule="evenodd" d="M11.9833 0L7 4.97297L2.01667 0L0.5 1.51351L7 8L13.5 1.51351L11.9833 0Z" fill="#2C8ECC"/>
</symbol><symbol id="icon-arrow-small-left" viewBox="0 0 16 16">
<path d="M0.292892 7.29289C-0.0976315 7.68342 -0.0976315 8.31658 0.292892 8.70711L6.65685 15.0711C7.04738 15.4616 7.68054 15.4616 8.07107 15.0711C8.46159 14.6805 8.46159 14.0474 8.07107 13.6569L2.41421 8L8.07107 2.34315C8.46159 1.95262 8.46159 1.31946 8.07107 0.928932C7.68054 0.538408 7.04738 0.538408 6.65685 0.928932L0.292892 7.29289ZM16 7L0.999999 7V9L16 9V7Z" fill="currentColor"/>
</symbol><symbol id="icon-arrow-small-right" viewBox="0 0 16 16">
<path d="M15.7071 8.70711C16.0976 8.31658 16.0976 7.68342 15.7071 7.29289L9.34315 0.928933C8.95262 0.538409 8.31946 0.538409 7.92893 0.928933C7.53841 1.31946 7.53841 1.95262 7.92893 2.34315L13.5858 8L7.92893 13.6569C7.53841 14.0474 7.53841 14.6805 7.92893 15.0711C8.31946 15.4616 8.95262 15.4616 9.34315 15.0711L15.7071 8.70711ZM-8.74228e-08 9L15 9L15 7L8.74228e-08 7L-8.74228e-08 9Z" fill="currentColor"/>
</symbol><symbol id="icon-arrow" viewBox="0 0 33 12">
<path d="M32.5303 6.53033C32.8232 6.23744 32.8232 5.76257 32.5303 5.46967L27.7574 0.696702C27.4645 0.403808 26.9896 0.403808 26.6967 0.696701C26.4038 0.989595 26.4038 1.46447 26.6967 1.75736L30.9393 6L26.6967 10.2426C26.4038 10.5355 26.4038 11.0104 26.6967 11.3033C26.9896 11.5962 27.4645 11.5962 27.7574 11.3033L32.5303 6.53033ZM-6.55671e-08 6.75L32 6.75L32 5.25L6.55671e-08 5.25L-6.55671e-08 6.75Z" fill="currentColor"/>
</symbol><symbol id="icon-attention" viewBox="0 0 20 18">
<path d="M19.7824 15.5587L11.3896 0.81409C10.7719 -0.271165 9.22838 -0.271561 8.61041 0.81409L0.217518 15.5587C-0.400216 16.644 0.37119 18 1.60713 18H18.3928C19.6283 18 20.4004 16.6444 19.7824 15.5587ZM18.3928 16.5086H1.60713C1.50283 16.5086 1.43865 16.3962 1.49092 16.3044L9.88377 1.55979C9.93592 1.46815 10.0639 1.46795 10.1162 1.55979L18.509 16.3044C18.5612 16.3961 18.4974 16.5086 18.3928 16.5086Z" fill="#9BD2F4"/>
<path d="M9.99887 6.18652C9.59285 6.18652 9.26367 6.52041 9.26367 6.93223V11.2069C9.26367 11.6187 9.59285 11.9526 9.99887 11.9526C10.4049 11.9526 10.7341 11.6187 10.7341 11.2069V6.93223C10.7341 6.52041 10.4049 6.18652 9.99887 6.18652Z" fill="#9BD2F4"/>
<path d="M9.99887 12.9214C9.59285 12.9214 9.26367 13.2553 9.26367 13.6671V14.1124C9.26367 14.5242 9.59285 14.8581 9.99887 14.8581C10.4049 14.8581 10.7341 14.5242 10.7341 14.1124V13.6671C10.7341 13.2552 10.4049 12.9214 9.99887 12.9214Z" fill="#9BD2F4"/>
</symbol><symbol id="icon-ball"><path d="M24.03 8.5c-1.907 2-3.01 4.6-3.01 7.5 0 2.9 1.104 5.6 3.01 7.5M7.972 8.5c1.907 2 3.01 4.6 3.01 7.5 0 2.9-1.103 5.6-3.01 7.5M16.001 5v22M27.04 16H4.96" stroke="#2C8ECC" stroke-width="2" stroke-miterlimit="10"/><path d="M16 27c6.098 0 11.04-4.925 11.04-11S22.099 5 16 5C9.905 5 4.96 9.925 4.96 16S9.905 27 16 27z" stroke="#2C8ECC" stroke-width="2" stroke-miterlimit="10" stroke-linecap="square"/></symbol><symbol id="icon-blank-document" viewBox="0 0 17 16">
<path d="M13.3877 4.11918H10.2178V0.949585L11.8024 2.53449L13.3877 4.11918Z" fill="#0E4CD3"/>
<path d="M1.90527 16V0H8.8718V4.79199C8.8718 5.16287 9.17263 5.46386 9.54373 5.46386H14.3357V15.9999H1.90527V16Z" fill="#0E4CD3"/>
</symbol><symbol id="icon-btn-screen" viewBox="0 0 14 14">
<path d="M1 13V8.5M1 13H5.5M1 13L6 8M13 1H9M13 1V5M13 1L8 6" stroke="currentColor"/>
</symbol><symbol id="icon-calendar-empty" viewBox="0 0 17 16">
<path d="M14.1201 2.0625H12.7451V1.125C12.7451 0.8125 12.4951 0.5 12.1201 0.5C11.8076 0.5 11.4951 0.75 11.4951 1.125V2.0625H4.68262V1.125C4.68262 0.8125 4.43262 0.5 4.05762 0.5C3.74512 0.5 3.43262 0.75 3.43262 1.125V2.0625H2.12012C1.30762 2.0625 0.620117 2.6875 0.620117 3.5625V14C0.620117 14.8125 1.30762 15.5 2.12012 15.5H14.1201C14.9326 15.5 15.6201 14.8125 15.6201 14V3.5625C15.6201 2.6875 14.9326 2.0625 14.1201 2.0625ZM4.12012 4C4.43262 4 4.74512 3.75 4.74512 3.375V3.25H11.5576V3.375C11.5576 3.6875 11.8076 4 12.1826 4C12.4951 4 12.8076 3.75 12.8076 3.375V3.25H14.1201C14.3076 3.25 14.4951 3.4375 14.4951 3.625V5.0625H1.80762V3.625C1.80762 3.4375 1.99512 3.25 2.18262 3.25H3.49512V3.375C3.49512 3.6875 3.74512 4 4.12012 4ZM14.4326 13.9375C14.4326 14.125 14.2451 14.3125 14.0576 14.3125H2.18262C1.99512 14.3125 1.80762 14.125 1.80762 13.9375V9.375V6.3125H14.4326V13.9375Z" fill="currentColor"/>
</symbol><symbol id="icon-calendar" viewBox="0 0 22 24">
<path d="M19.4012 2.40002H18.2012V0H15.8012V2.40002H6.20119V0H3.80117V2.40002H2.60119C1.27521 2.40002 0.213209 3.474 0.213209 4.80003L0.201172 21.6C0.201172 22.926 1.27515 24 2.60119 24H19.4012C20.7272 24 21.8012 22.926 21.8012 21.6V4.79998C21.8012 3.474 20.7272 2.40002 19.4012 2.40002ZM19.4012 21.6H2.60119V8.39997H19.4012V21.6Z" fill="#2C8ECC"/>
<path d="M16.4362 12.072L15.1642 10.8L9.30819 16.6561L6.76422 14.112L5.49219 15.384L9.30819 19.2L16.4362 12.072Z" fill="#2C8ECC"/>
</symbol><symbol id="icon-cancel" viewBox="0 0 22 22">
<path d="M18.1945 18.1945C16.2719 20.117 13.719 21.175 11 21.175C8.281 21.175 5.72808 20.117 3.80555 18.1945C1.88302 16.2719 0.825 13.719 0.825 11C0.825 8.281 1.88302 5.72808 3.80555 3.80555C5.72808 1.88302 8.281 0.825001 11 0.825001C13.719 0.825001 16.2719 1.88302 18.1945 3.80555C20.117 5.72808 21.175 8.281 21.175 11C21.175 13.719 20.117 16.2719 18.1945 18.1945ZM17.1431 4.85691C15.5008 3.21464 13.3189 2.31136 11 2.31136C8.68111 2.31136 6.49918 3.21464 4.85691 4.85691C1.46986 8.24395 1.46986 13.756 4.85691 17.1431C6.49918 18.7854 8.68111 19.6886 11 19.6886C13.3189 19.6886 15.5008 18.7854 17.1431 17.1431C20.5301 13.756 20.5301 8.24395 17.1431 4.85691Z" fill="#E55050" stroke="#E55050" stroke-width="0.35"/>
<path d="M15.0128 15.0128C14.7298 15.2957 14.2745 15.2957 13.9916 15.0128L11 12.0216L8.00841 15.0128C7.72547 15.2957 7.27016 15.2957 6.98722 15.0128C6.70426 14.7299 6.70426 14.2746 6.98722 13.9917L9.97877 11.0005L6.98722 8.00925C6.70426 7.72633 6.70426 7.27103 6.98722 6.9881C7.12488 6.85045 7.31084 6.775 7.49597 6.775C7.67658 6.775 7.86481 6.84373 8.00608 6.98945L10.9963 9.97935L13.9879 6.9881C14.1256 6.85045 14.3115 6.775 14.4967 6.775C14.6819 6.775 14.8662 6.84439 15.0069 6.9896C15.2884 7.27263 15.2879 7.72683 15.0054 8.00925L12.021 11.0003L15.0128 13.9917C15.2957 14.2746 15.2957 14.7299 15.0128 15.0128Z" fill="#E55050" stroke="#E55050" stroke-width="0.45"/>
</symbol><symbol id="icon-category-1" viewBox="0 0 28 23">
<path d="M13.9995 3.27368V21.8176" stroke="#2C8ECC" stroke-width="2" stroke-miterlimit="10"/>
<path d="M20.021 1.0918C16.7366 1.0918 13.9997 2.50986 13.9997 4.36426C13.9997 2.50986 11.2627 1.0918 7.97835 1.0918C4.694 1.0918 1.95703 2.50986 1.95703 4.36426V22.9082C1.95703 21.0538 4.694 19.6357 7.97835 19.6357C11.2627 19.6357 13.9997 21.0538 13.9997 22.9082C13.9997 21.0538 16.7366 19.6357 20.021 19.6357C23.3054 19.6357 26.0423 21.0538 26.0423 22.9082V4.36426C26.0423 2.50986 23.3054 1.0918 20.021 1.0918Z" stroke="#2C8ECC" stroke-width="2" stroke-miterlimit="10" stroke-linecap="square"/>
</symbol><symbol id="icon-category-10" viewBox="0 0 22 28">
<path d="M11.0005 8.375V15.125" stroke="#2C8ECC" stroke-width="2" stroke-miterlimit="10" stroke-linecap="square"/>
<path d="M8.74219 10.625H13.2585" stroke="#2C8ECC" stroke-width="2" stroke-miterlimit="10" stroke-linecap="square"/>
<path d="M16.646 26.375H5.35505L1.96777 10.6249L5.35505 1.625H16.646L20.0332 10.6249L16.646 26.375Z" stroke="#2C8ECC" stroke-width="2" stroke-miterlimit="10" stroke-linecap="square"/>
</symbol><symbol id="icon-category-11" viewBox="0 0 28 27">
<path d="M17.422 12.2281C17.422 17.0786 9.43855 25 9.43855 25C9.43855 25 1.45508 17.0786 1.45508 12.2281C1.45508 7.25402 5.58025 4.36841 9.43855 4.36841C13.2968 4.36841 17.422 7.25402 17.422 12.2281Z" stroke="#2C8ECC" stroke-width="2" stroke-miterlimit="10" stroke-linecap="square"/>
<path d="M14.4316 2.12281C15.6999 1.38737 17.1494 1 18.5625 1C22.4208 1 26.546 3.88561 26.546 8.85965C26.546 13.7102 18.5625 21.6316 18.5625 21.6316" stroke="#2C8ECC" stroke-width="2" stroke-miterlimit="10" stroke-linecap="square"/>
<path d="M9.43871 14.4737C10.6985 14.4737 11.7197 13.4683 11.7197 12.2281C11.7197 10.9879 10.6985 9.98251 9.43871 9.98251C8.17895 9.98251 7.15771 10.9879 7.15771 12.2281C7.15771 13.4683 8.17895 14.4737 9.43871 14.4737Z" stroke="#2C8ECC" stroke-width="2" stroke-miterlimit="10" stroke-linecap="square"/>
</symbol><symbol id="icon-category-12" viewBox="0 0 28 26">
<path d="M20.5692 6.45455V1H7.43066V9.72727" stroke="#2C8ECC" stroke-width="2" stroke-miterlimit="10" stroke-linecap="square"/>
<path d="M11.8096 25H16.1891" stroke="#2C8ECC" stroke-width="2" stroke-miterlimit="10" stroke-linecap="square"/>
<path d="M11.8099 13H1.95605V25H11.8099V13Z" stroke="#2C8ECC" stroke-width="2" stroke-miterlimit="10" stroke-linecap="square"/>
<path d="M26.0433 9.72726H16.1895V25H26.0433V9.72726Z" stroke="#2C8ECC" stroke-width="2" stroke-miterlimit="10" stroke-linecap="square"/>
<path d="M20.5693 14.0909H21.6642" stroke="#2C8ECC" stroke-width="2" stroke-miterlimit="10" stroke-linecap="square"/>
<path d="M20.5693 17.3636H21.6642" stroke="#2C8ECC" stroke-width="2" stroke-miterlimit="10" stroke-linecap="square"/>
<path d="M20.5693 20.6364H21.6642" stroke="#2C8ECC" stroke-width="2" stroke-miterlimit="10" stroke-linecap="square"/>
<path d="M6.33594 20.6364H7.43081" stroke="#2C8ECC" stroke-width="2" stroke-miterlimit="10" stroke-linecap="square"/>
<path d="M6.33594 17.3636H7.43081" stroke="#2C8ECC" stroke-width="2" stroke-miterlimit="10" stroke-linecap="square"/>
</symbol><symbol id="icon-category-13" viewBox="0 0 26 25">
<path d="M18.2465 7.23809L13.0002 2L7.75391 7.23809" stroke="#2C8ECC" stroke-width="2" stroke-miterlimit="10"/>
<path d="M6.7041 24L17.1967 14.5714L24.5415 20.8572" stroke="#2C8ECC" stroke-width="2" stroke-miterlimit="10"/>
<path d="M24.5416 7.23813H1.45801V24H24.5416V7.23813Z" stroke="#2C8ECC" stroke-width="2" stroke-miterlimit="10" stroke-linecap="square"/>
<path d="M7.75378 15.6191C8.91276 15.6191 9.85229 14.681 9.85229 13.5238C9.85229 12.3667 8.91276 11.4286 7.75378 11.4286C6.59481 11.4286 5.65527 12.3667 5.65527 13.5238C5.65527 14.681 6.59481 15.6191 7.75378 15.6191Z" stroke="#2C8ECC" stroke-width="2" stroke-miterlimit="10" stroke-linecap="square"/>
</symbol><symbol id="icon-category-14" viewBox="0 0 26 26">
<path d="M15.0984 24.5V20.3182C15.0984 19.1682 14.1541 18.2273 12.9999 18.2273C11.8457 18.2273 10.9014 19.1682 10.9014 20.3182V24.5" stroke="#2C8ECC" stroke-width="2" stroke-miterlimit="10" stroke-linecap="square"/>
<path d="M1.45801 17.1818V14.0454" stroke="#2C8ECC" stroke-width="2" stroke-miterlimit="10" stroke-linecap="square"/>
<path d="M24.542 17.1818V14.0455" stroke="#2C8ECC" stroke-width="2" stroke-miterlimit="10" stroke-linecap="square"/>
<path d="M5.86488 17.1818H1.45801V24.5H4.60577" stroke="#2C8ECC" stroke-width="2" stroke-miterlimit="10"/>
<path d="M20.1348 17.1818H24.5416V24.5H21.3939" stroke="#2C8ECC" stroke-width="2" stroke-miterlimit="10"/>
<path d="M18.2458 8.81818H7.75324L4.60547 22.4091V24.5H21.3936V22.4091L18.2458 8.81818Z" stroke="#2C8ECC" stroke-width="2" stroke-miterlimit="10" stroke-linecap="square"/>
<path d="M21.3936 1.5V8.81818H4.60547V1.5" stroke="#2C8ECC" stroke-width="2" stroke-miterlimit="10" stroke-linecap="square"/>
<path d="M8.80273 1.5V3.59091" stroke="#2C8ECC" stroke-width="2" stroke-miterlimit="10" stroke-linecap="square"/>
<path d="M13 3.59091V1.5" stroke="#2C8ECC" stroke-width="2" stroke-miterlimit="10" stroke-linecap="square"/>
<path d="M17.1973 1.5V3.59091" stroke="#2C8ECC" stroke-width="2" stroke-miterlimit="10" stroke-linecap="square"/>
<path d="M4.60547 3.59091H21.3936" stroke="#2C8ECC" stroke-width="2" stroke-miterlimit="10" stroke-linecap="square"/>
</symbol><symbol id="icon-category-15" viewBox="0 0 28 26">
<path d="M14 7.54546V1H18.3795V3.18182H14" stroke="#2C8ECC" stroke-width="2" stroke-miterlimit="10" stroke-linecap="square"/>
<path d="M15.095 13H12.9053V15.1818H15.095V13Z" fill="#2C8ECC"/>
<path d="M16.1891 25V19.5454H11.8096V25" stroke="#2C8ECC" stroke-width="2" stroke-miterlimit="10" stroke-linecap="square"/>
<path d="M7.43097 16.2727H5.24121V18.4545H7.43097V16.2727Z" fill="#2C8ECC"/>
<path d="M22.7591 16.2727H20.5693V18.4545H22.7591V16.2727Z" fill="#2C8ECC"/>
<path d="M19.4741 11.9091L13.9997 7.54543L8.52531 11.9091H1.95605V25H26.0433V11.9091H19.4741Z" stroke="#2C8ECC" stroke-width="2" stroke-miterlimit="10" stroke-linecap="square"/>
</symbol><symbol id="icon-category-16" viewBox="0 0 22 26">
<path d="M13.4807 10.6531C13.4807 10.6531 14.547 4.62006 10.1916 2C10.1265 3.03655 9.8347 4.04828 9.33516 4.96916C8.83563 5.89005 8.13959 6.69939 7.29248 7.34439C5.43137 8.9173 1.93076 12.4455 1.96807 16.218C1.95561 17.8283 2.41132 19.4099 3.28389 20.7848C4.15645 22.1596 5.41123 23.2732 6.90691 24C6.96067 23.2729 7.16486 22.5633 7.50753 21.913C7.8502 21.2626 8.32447 20.6844 8.90258 20.2122C9.39273 19.8504 9.80287 19.3983 10.109 18.8824C10.4152 18.3665 10.6112 17.7972 10.6857 17.2076C11.9671 17.8615 13.0498 18.8238 13.828 20.0004C14.6061 21.1769 15.0529 22.5274 15.1248 23.9196V23.9424C16.5362 23.3202 17.7411 22.3352 18.6063 21.0962C19.4716 19.8573 19.9634 18.4126 20.0274 16.9219C20.1224 13.8617 19.0517 10.8734 17.0164 8.51755" stroke="#2C8ECC" stroke-width="2" stroke-miterlimit="10" stroke-linecap="square"/>
</symbol><symbol id="icon-category-17" viewBox="0 0 26 24">
<path d="M21.0299 8.99998V21C21.0299 21.5304 20.8184 22.0391 20.4419 22.4142C20.0655 22.7893 19.555 23 19.0226 23H6.97895C6.44659 23 5.93603 22.7893 5.5596 22.4142C5.18316 22.0391 4.97168 21.5304 4.97168 21V8.99998" stroke="#2C8ECC" stroke-width="2" stroke-miterlimit="10" stroke-linecap="square"/>
<path d="M1.96094 4.99999H24.0409" stroke="#2C8ECC" stroke-width="2" stroke-miterlimit="10" stroke-linecap="square"/>
<path d="M13.001 12V18" stroke="#2C8ECC" stroke-width="2" stroke-miterlimit="10" stroke-linecap="square"/>
<path d="M8.98633 12V18" stroke="#2C8ECC" stroke-width="2" stroke-miterlimit="10" stroke-linecap="square"/>
<path d="M17.0156 12V18" stroke="#2C8ECC" stroke-width="2" stroke-miterlimit="10" stroke-linecap="square"/>
<path d="M8.98633 5V1H17.0154V5" stroke="#2C8ECC" stroke-width="2" stroke-miterlimit="10"/>
</symbol><symbol id="icon-category-18" viewBox="0 0 24 25">
<path d="M11.9998 11.993C13.4549 11.993 14.6344 10.8243 14.6344 9.38276C14.6344 7.94117 13.4549 6.77254 11.9998 6.77254C10.5448 6.77254 9.36523 7.94117 9.36523 9.38276C9.36523 10.8243 10.5448 11.993 11.9998 11.993Z" fill="#2C8ECC"/>
<path d="M19.4521 16.7655C21.4284 14.8075 22.5387 12.1518 22.5387 9.38275C22.5387 6.61369 21.4284 3.95804 19.4521 2" stroke="#2C8ECC" stroke-width="2" stroke-miterlimit="10" stroke-linecap="square"/>
<path d="M16.4717 13.8128C17.0589 13.2311 17.5248 12.5404 17.8426 11.7803C18.1604 11.0202 18.324 10.2055 18.324 9.38274C18.324 8.55998 18.1604 7.74528 17.8426 6.98516C17.5248 6.22504 17.0589 5.5344 16.4717 4.95267" stroke="#2C8ECC" stroke-width="2" stroke-miterlimit="10" stroke-linecap="square"/>
<path d="M4.54844 16.7655C2.57217 14.8075 1.46191 12.1518 1.46191 9.38275C1.46191 6.61369 2.57217 3.95804 4.54844 2" stroke="#2C8ECC" stroke-width="2" stroke-miterlimit="10" stroke-linecap="square"/>
<path d="M7.5291 13.8128C6.94184 13.2311 6.476 12.5404 6.15817 11.7803C5.84034 11.0202 5.67676 10.2055 5.67676 9.38274C5.67676 8.55998 5.84034 7.74528 6.15817 6.98516C6.476 6.22504 6.94184 5.5344 7.5291 4.95267" stroke="#2C8ECC" stroke-width="2" stroke-miterlimit="10" stroke-linecap="square"/>
<path d="M12 9.38272V24" stroke="#2C8ECC" stroke-width="2" stroke-miterlimit="10" stroke-linecap="square"/>
<path d="M7.78418 24H16.2148" stroke="#2C8ECC" stroke-width="2" stroke-miterlimit="10" stroke-linecap="square"/>
</symbol><symbol id="icon-category-19" viewBox="0 0 26 24">
<path d="M21.0304 4.5C19.1235 6.5 18.0195 9.1 18.0195 12C18.0195 14.9 19.1235 17.6 21.0304 19.5" stroke="#2C8ECC" stroke-width="2" stroke-miterlimit="10"/>
<path d="M4.97168 4.5C6.87859 6.5 7.98259 9.1 7.98259 12C7.98259 14.9 6.87859 17.6 4.97168 19.5" stroke="#2C8ECC" stroke-width="2" stroke-miterlimit="10"/>
<path d="M13.001 1V23" stroke="#2C8ECC" stroke-width="2" stroke-miterlimit="10"/>
<path d="M24.0409 12H1.96094" stroke="#2C8ECC" stroke-width="2" stroke-miterlimit="10"/>
<path d="M13.0009 23C19.0982 23 24.0409 18.0751 24.0409 12C24.0409 5.92487 19.0982 1 13.0009 1C6.90371 1 1.96094 5.92487 1.96094 12C1.96094 18.0751 6.90371 23 13.0009 23Z" stroke="#2C8ECC" stroke-width="2" stroke-miterlimit="10" stroke-linecap="square"/>
</symbol><symbol id="icon-category-2" viewBox="0 0 24 26">
<path d="M12.0005 19.545V24.9991" stroke="#2C8ECC" stroke-width="2" stroke-miterlimit="10"/>
<path d="M6.52686 24.9991H17.4747" stroke="#2C8ECC" stroke-width="2" stroke-miterlimit="10"/>
<path d="M18.5693 10.8182H17.9619C18.3381 10.1742 18.5693 9.4354 18.5693 8.63659C18.5693 6.22678 16.6087 4.27331 14.1902 4.27331C14.1715 4.27331 14.1542 4.27857 14.1356 4.27877C13.8703 2.42829 12.289 1.00085 10.3584 1.00085C8.24222 1.00085 6.52666 2.71019 6.52666 4.81872C6.52666 5.18897 6.59623 5.53976 6.69492 5.87831C5.29951 6.60782 4.33709 8.0483 4.33709 9.72741C4.33709 10.1421 4.41367 10.5352 4.52212 10.9152C2.54069 11.3329 1.05273 13.0829 1.05273 15.1815C1.05273 17.5912 3.01331 19.5448 5.43188 19.5448H18.5693C20.9879 19.5448 22.9485 17.5912 22.9485 15.1815C22.9485 12.7717 20.9879 10.8182 18.5693 10.8182Z" stroke="#2C8ECC" stroke-width="2" stroke-miterlimit="10" stroke-linecap="square"/>
</symbol><symbol id="icon-category-20" viewBox="0 0 25 25">
<path d="M14.1458 6.61978L6.99887 1.87279C6.20299 1.34379 5.14315 1.44879 4.4657 2.12279L2.08105 4.49878L10.5969 10.1558" stroke="#2C8ECC" stroke-width="2" stroke-miterlimit="10"/>
<path d="M18.4043 10.8628L23.1686 17.9838C23.6995 18.7768 23.5941 19.8328 22.9177 20.5078L20.533 22.8838L14.8555 14.3988" stroke="#2C8ECC" stroke-width="2" stroke-miterlimit="10"/>
<path d="M5.9171 15.8038L1.57938 15.4658C0.650012 15.3948 0.134142 16.5138 0.792528 17.1698L3.407 19.7558L5.9171 15.8038Z" fill="#2C8ECC"/>
<path d="M9.18708 19.0618L9.52631 23.3838C9.59756 24.3098 8.4745 24.8238 7.81611 24.1678L5.2207 21.5628L9.18708 19.0618Z" fill="#2C8ECC"/>
<path d="M11.8809 17.3618L4.03049 22.3138C3.13424 22.8498 2.11555 21.8348 2.6535 20.9418L7.62351 13.1198L17.4371 3.34177C18.6133 2.16977 20.5192 2.16977 21.6955 3.34177C22.8718 4.51377 22.8718 6.41277 21.6955 7.58477L11.8809 17.3618Z" stroke="#2C8ECC" stroke-width="2" stroke-miterlimit="10" stroke-linecap="square"/>
</symbol><symbol id="icon-category-21" viewBox="0 0 26 24">
<path d="M24.0409 8H17.0155V1H8.98639V8H1.96094V16H8.98639V23H17.0155V16H24.0409V8Z" stroke="#2C8ECC" stroke-width="2" stroke-miterlimit="10" stroke-linecap="square"/>
</symbol><symbol id="icon-category-3" viewBox="0 0 26 26">
<path d="M15.0967 20.3157L18.1919 23.399C18.5339 23.7466 18.942 24.0227 19.3924 24.2113C19.8428 24.3998 20.3265 24.4969 20.815 24.4969C21.3036 24.4969 21.7873 24.3998 22.2377 24.2113C22.6881 24.0227 23.0962 23.7466 23.4381 23.399V23.399C23.7871 23.0584 24.0644 22.6518 24.2536 22.2032C24.4429 21.7545 24.5404 21.2727 24.5404 20.786C24.5404 20.2994 24.4429 19.8176 24.2536 19.3689C24.0644 18.9203 23.7871 18.5137 23.4381 18.1731L21.3921 16.1351" stroke="#2C8ECC" stroke-width="2" stroke-miterlimit="10" stroke-linecap="square"/>
<path d="M10.8212 11.1453L7.22754 7.5647" stroke="#2C8ECC" stroke-width="2" stroke-miterlimit="10"/>
<path d="M5.0243 8.29652L7.2277 7.56491L7.96217 5.37006L5.0243 2.4436L2.08643 5.37006L5.0243 8.29652Z" stroke="#2C8ECC" stroke-width="2" stroke-miterlimit="10" stroke-linecap="square"/>
<path d="M24.202 5.60186L20.9724 8.80528L17.2004 5.06778L20.432 1.86331C19.6866 1.54135 18.8665 1.43033 18.0618 1.54244C16.5688 1.67019 15.1807 2.35986 14.1801 3.4711C13.1796 4.58233 12.6417 6.03159 12.6761 7.52391C12.6681 8.11056 12.7776 8.69291 12.9982 9.23693L2.65792 18.3121C2.29934 18.6306 2.00863 19.0176 1.80305 19.4501C1.59747 19.8826 1.4812 20.3519 1.46114 20.83C1.44108 21.3081 1.51763 21.7854 1.68627 22.2335C1.8549 22.6816 2.11217 23.0914 2.44282 23.4386V23.4386C2.7811 23.7911 3.19083 24.0677 3.64476 24.2503C4.09869 24.4328 4.58642 24.5169 5.07553 24.4972C5.56465 24.4774 6.04393 24.3541 6.48152 24.1356C6.91911 23.917 7.30498 23.6082 7.61347 23.2296L16.7691 12.9765C17.7477 13.2624 18.7768 13.3337 19.7857 13.1856C20.8488 12.9668 21.8319 12.4632 22.6289 11.7291C23.426 10.995 24.0069 10.0582 24.309 9.01954C24.6524 7.8997 24.6148 6.69821 24.202 5.60186V5.60186Z" stroke="#2C8ECC" stroke-width="2" stroke-miterlimit="10" stroke-linecap="square"/>
</symbol><symbol id="icon-category-4" viewBox="0 0 28 32">
<path d="M14.0005 29.0909V30.4" stroke="#2C8ECC" stroke-width="2" stroke-miterlimit="10" stroke-linecap="square"/>
<path d="M8.64795 25.1636V26.4727" stroke="#2C8ECC" stroke-width="2" stroke-miterlimit="10" stroke-linecap="square"/>
<path d="M19.353 25.1636V26.4727" stroke="#2C8ECC" stroke-width="2" stroke-miterlimit="10" stroke-linecap="square"/>
<path d="M24.037 19.9273H3.9643C2.89376 19.9273 1.95703 19.0109 1.95703 17.9637C1.95703 16.9164 2.89376 16 3.9643 16H24.037C25.1076 16 26.0443 16.9164 26.0443 17.9637C26.0443 19.0109 25.1076 19.9273 24.037 19.9273Z" stroke="#2C8ECC" stroke-width="2" stroke-miterlimit="10" stroke-linecap="square"/>
<path d="M14.0005 1.60001V5.52728" stroke="#2C8ECC" stroke-width="2" stroke-miterlimit="10" stroke-linecap="square"/>
<path d="M4.6333 16V14.6909C4.6333 9.58543 8.78166 5.52725 14.0006 5.52725C19.2195 5.52725 23.3678 9.58543 23.3678 14.6909V16" stroke="#2C8ECC" stroke-width="2" stroke-miterlimit="10" stroke-linecap="square"/>
</symbol><symbol id="icon-category-5" viewBox="0 0 28 26">
<path d="M10.0086 18.1339C10.9534 18.1339 11.7193 17.3677 11.7193 16.4226C11.7193 15.4775 10.9534 14.7113 10.0086 14.7113C9.06378 14.7113 8.29785 15.4775 8.29785 16.4226C8.29785 17.3677 9.06378 18.1339 10.0086 18.1339Z" fill="#2C8ECC"/>
<path d="M17.9925 18.1339C18.9373 18.1339 19.7032 17.3677 19.7032 16.4226C19.7032 15.4775 18.9373 14.7113 17.9925 14.7113C17.0477 14.7113 16.2817 15.4775 16.2817 16.4226C16.2817 17.3677 17.0477 18.1339 17.9925 18.1339Z" fill="#2C8ECC"/>
<path d="M26.546 14.7113C26.546 13.0148 25.3086 11.6161 23.689 11.3457C22.2954 7.32984 18.4895 4.44344 14.0005 4.44344C9.51154 4.44344 5.70571 7.32984 4.31202 11.3457C2.69252 11.6161 1.45508 13.0148 1.45508 14.7113C1.45508 16.4078 2.69252 17.8065 4.31202 18.0769C5.70571 22.0927 9.51154 24.9791 14.0005 24.9791C18.4895 24.9791 22.2954 22.0927 23.689 18.0769C25.3086 17.8065 26.546 16.4078 26.546 14.7113Z" stroke="#2C8ECC" stroke-width="2" stroke-miterlimit="10" stroke-linecap="square"/>
<path d="M14.0004 7.86607C13.7153 3.77832 15.9016 1.25813 19.7029 1.02083" stroke="#2C8ECC" stroke-width="2" stroke-miterlimit="10"/>
</symbol><symbol id="icon-category-6" viewBox="0 0 26 24">
<path d="M4.97168 13V5C4.97168 2.791 6.76919 1 8.98623 1C11.2033 1 13.0008 2.791 13.0008 5V19C13.0008 21.209 14.7983 23 17.0153 23C19.2323 23 21.0299 21.209 21.0299 19V11" stroke="#2C8ECC" stroke-width="2" stroke-miterlimit="10" stroke-linecap="square"/>
<path d="M21.03 7C22.6928 7 24.0409 5.65685 24.0409 4C24.0409 2.34315 22.6928 1 21.03 1C19.3671 1 18.019 2.34315 18.019 4C18.019 5.65685 19.3671 7 21.03 7Z" stroke="#2C8ECC" stroke-width="2" stroke-miterlimit="10" stroke-linecap="square"/>
<path d="M4.97185 23C6.63473 23 7.98276 21.6569 7.98276 20C7.98276 18.3432 6.63473 17 4.97185 17C3.30897 17 1.96094 18.3432 1.96094 20C1.96094 21.6569 3.30897 23 4.97185 23Z" stroke="#2C8ECC" stroke-width="2" stroke-miterlimit="10" stroke-linecap="square"/>
</symbol><symbol id="icon-category-7" viewBox="0 0 26 22">
<path d="M24.04 5H1.95996V21H24.04V5Z" stroke="#2C8ECC" stroke-width="2" stroke-miterlimit="10" stroke-linecap="square"/>
<path d="M13.0002 16C14.663 16 16.0111 14.6569 16.0111 13C16.0111 11.3431 14.663 10 13.0002 10C11.3373 10 9.98926 11.3431 9.98926 13C9.98926 14.6569 11.3373 16 13.0002 16Z" stroke="#2C8ECC" stroke-width="2" stroke-miterlimit="10" stroke-linecap="square"/>
<path d="M22.0327 1H3.96729" stroke="#2C8ECC" stroke-width="2" stroke-miterlimit="10" stroke-linecap="square"/>
</symbol><symbol id="icon-category-8" viewBox="0 0 22 28">
<path d="M1.46484 5.07143L10.9994 1.5L20.5339 5.07143V26.5H1.46484V5.07143Z" stroke="#2C8ECC" stroke-width="2" stroke-miterlimit="10" stroke-linecap="square"/>
<path d="M6.23193 9.83333V11.0238" stroke="#2C8ECC" stroke-width="2" stroke-miterlimit="10" stroke-linecap="square"/>
<path d="M10.9995 9.83333V11.0238" stroke="#2C8ECC" stroke-width="2" stroke-miterlimit="10" stroke-linecap="square"/>
<path d="M15.7666 9.83333V11.0238" stroke="#2C8ECC" stroke-width="2" stroke-miterlimit="10" stroke-linecap="square"/>
<path d="M6.23193 15.7857V16.9762" stroke="#2C8ECC" stroke-width="2" stroke-miterlimit="10" stroke-linecap="square"/>
<path d="M10.9995 15.7857V16.9762" stroke="#2C8ECC" stroke-width="2" stroke-miterlimit="10" stroke-linecap="square"/>
<path d="M15.7666 15.7857V16.9762" stroke="#2C8ECC" stroke-width="2" stroke-miterlimit="10" stroke-linecap="square"/>
<path d="M13.383 20.5476H8.61572V26.5H13.383V20.5476Z" fill="#2C8ECC"/>
</symbol><symbol id="icon-category-9" viewBox="0 0 26 26">
<path d="M13.001 25C10.8394 23.2731 10.7014 17.5905 14.105 16.2727C15.9112 15.5734 16.4963 19.4767 20.039 18.5004C20.7246 18.3116 22.3386 19.2727 21.7513 20.7389" stroke="#2C8ECC" stroke-width="2" stroke-miterlimit="10"/>
<path d="M6.64755 5.16833C7.34417 5.6767 7.94365 6.29852 8.4559 7.14724C8.90302 7.88797 9.89773 9.95088 8.98693 11.116C7.95579 12.4327 4.97168 12.8767 4.97168 14.0909C4.97168 15.004 6.27992 16.0469 6.97875 17.0658C8.02976 18.5985 7.55173 20.0843 6.97875 21.0323C6.68178 21.5243 6.18277 21.9225 5.65616 22.2356" stroke="#2C8ECC" stroke-width="2" stroke-miterlimit="10"/>
<path d="M23.8201 11.9091C23.9648 12.6138 24.0409 13.3436 24.0409 14.0909C24.0409 20.116 19.0983 25 13.0009 25C6.90355 25 1.96094 20.116 1.96094 14.0909C1.96094 8.06582 6.90355 3.18182 13.0009 3.18182C13.5463 3.18182 14.0829 3.2211 14.6073 3.29637" stroke="#2C8ECC" stroke-width="2" stroke-miterlimit="10"/>
<path d="M18.521 9.72726V13" stroke="#2C8ECC" stroke-width="2" stroke-miterlimit="10" stroke-linecap="square"/>
<path d="M18.521 9.72727C20.9599 9.72727 22.937 7.77361 22.937 5.36364C22.937 2.95367 20.9599 1 18.521 1C16.0821 1 14.105 2.95367 14.105 5.36364C14.105 7.77361 16.0821 9.72727 18.521 9.72727Z" stroke="#2C8ECC" stroke-width="2" stroke-miterlimit="10" stroke-linecap="square"/>
</symbol><symbol id="icon-cheild"><path d="M12.009 21.136a1.711 1.711 0 10-.001-3.423 1.711 1.711 0 000 3.422zM19.992 21.136a1.711 1.711 0 100-3.423 1.711 1.711 0 000 3.422z" fill="#2C8ECC"/><path d="M28.546 17.711a3.415 3.415 0 00-2.857-3.365c-1.394-4.016-5.2-6.903-9.689-6.903s-8.294 2.887-9.688 6.903a3.415 3.415 0 00-2.857 3.365 3.415 3.415 0 002.857 3.366c1.394 4.016 5.2 6.902 9.688 6.902 4.49 0 8.295-2.886 9.689-6.902a3.415 3.415 0 002.857-3.366z" stroke="#2C8ECC" stroke-width="2" stroke-miterlimit="10" stroke-linecap="square"/><path d="M16 10.867c-.285-4.088 1.902-6.608 5.703-6.846" stroke="#2C8ECC" stroke-width="2" stroke-miterlimit="10"/></symbol><symbol id="icon-clock" viewBox="0 0 16 16">
  <circle cx="8" cy="8" r="7.25" stroke="currentColor" stroke-width="1.5"/>
  <rect x="7.375" y="3.375" width="0.75" height="5.25" stroke="currentColor" stroke-width="0.75"/>
  <rect x="10.625" y="8.375" width="0.75" height="3.25" transform="rotate(90 10.625 8.375)" stroke="currentColor" stroke-width="0.75"/>
</symbol><symbol id="icon-close" viewBox="0 0 18 18">
<path d="M1 1L17 17M17 1L1 17" stroke="currentColor" stroke-width="2"/>
</symbol><symbol id="icon-comments" viewBox="0 0 18 18">
<path d="M17 1H1V13H6.09091L9 17L11.9091 13H17V1Z" stroke="currentColor" stroke-width="2" stroke-miterlimit="10" stroke-linecap="round" stroke-linejoin="round"/>
<path d="M5.35938 5H12.6321" stroke="currentColor" stroke-width="2" stroke-miterlimit="10" stroke-linecap="round" stroke-linejoin="round"/>
<path d="M5.35938 9H9.72301" stroke="currentColor" stroke-width="2" stroke-miterlimit="10" stroke-linecap="round" stroke-linejoin="round"/>
</symbol><symbol id="icon-cross" viewBox="0 0 18 18">
<path d="M1 1L17 17M17 1L1 17" stroke-width="2"/>
</symbol><symbol id="icon-cultural-objects"><path d="M16 10.546V4h4.38v2.182H16" stroke="#2C8ECC" stroke-width="2" stroke-miterlimit="10" stroke-linecap="square"/><path d="M17.095 16h-2.19v2.182h2.19V16z" fill="#2C8ECC"/><path d="M18.19 28v-5.455h-4.38v5.454" stroke="#2C8ECC" stroke-width="2" stroke-miterlimit="10" stroke-linecap="square"/><path d="M9.431 19.273h-2.19v2.182h2.19v-2.182zM24.76 19.273h-2.19v2.182h2.19v-2.182z" fill="#2C8ECC"/><path d="M21.474 14.909L16 10.545l-5.475 4.364H3.956v13.09h24.087V14.91h-6.569z" stroke="#2C8ECC" stroke-width="2" stroke-miterlimit="10" stroke-linecap="square"/></symbol><symbol id="icon-culture"><path d="M18.097 27.5v-4.183A2.1 2.1 0 0016 21.227a2.1 2.1 0 00-2.099 2.09V27.5M4.457 20.181v-3.136M27.541 20.181v-3.136" stroke="#2C8ECC" stroke-width="2" stroke-miterlimit="10" stroke-linecap="square"/><path d="M8.864 20.182H4.457V27.5h3.148M23.135 20.182h4.407V27.5h-3.148" stroke="#2C8ECC" stroke-width="2" stroke-miterlimit="10"/><path d="M21.246 11.818H10.753L7.605 25.41V27.5h16.789v-2.09l-3.148-13.592zM24.394 4.5v7.318H7.605V4.5M11.803 4.5v2.09M15.998 6.59V4.5M20.195 4.5v2.09M7.605 6.592h16.789" stroke="#2C8ECC" stroke-width="2" stroke-miterlimit="10" stroke-linecap="square"/></symbol><symbol id="icon-debate" viewBox="0 0 32 30">
<path d="M29.8125 6.46973H25.6562V3.03223C25.6562 1.82604 24.6749 0.844727 23.4688 0.844727H8.53125C7.32506 0.844727 6.34375 1.82604 6.34375 3.03223V11.4072H2.1875C0.981313 11.4072 0 12.3885 0 13.5947V23.5322C0 24.7384 0.981313 25.7197 2.1875 25.7197H4.5625V27.5912C4.5625 28.1876 4.89406 28.7234 5.42788 28.9895C5.6505 29.1005 5.88925 29.1552 6.12669 29.1551C6.45856 29.1551 6.78769 29.0482 7.06531 28.839L11.205 25.7197H17.125C18.3312 25.7197 19.3125 24.7384 19.3125 23.5322V20.7822H20.795L24.9346 23.9015C25.2124 24.1108 25.5414 24.2177 25.8733 24.2176C26.1107 24.2176 26.3496 24.1629 26.5721 24.052C27.1059 23.7859 27.4375 23.2501 27.4375 22.6537V20.7822H29.8125C31.0187 20.7822 32 19.8009 32 18.5947V8.65723C32 7.45104 31.0187 6.46973 29.8125 6.46973ZM30.125 18.5947C30.125 18.767 29.9848 18.9072 29.8125 18.9072H26.5C25.9823 18.9072 25.5625 19.327 25.5625 19.8447V22.0269L21.6729 19.096C21.5103 18.9735 21.3123 18.9072 21.1087 18.9072H14.875C14.7027 18.9072 14.5625 18.767 14.5625 18.5947V8.65716C14.5625 8.48485 14.7027 8.34466 14.875 8.34466H29.8125C29.9848 8.34466 30.125 8.48485 30.125 8.65716V18.5947ZM17.125 23.8447H10.8913C10.6877 23.8447 10.4897 23.911 10.3271 24.0335L6.4375 26.9644V24.7822C6.4375 24.2645 6.01775 23.8447 5.5 23.8447H2.1875C2.01519 23.8447 1.875 23.7045 1.875 23.5322V13.5947C1.875 13.4224 2.01519 13.2822 2.1875 13.2822H12.6875V18.5947C12.6875 19.8009 13.6688 20.7822 14.875 20.7822H17.4375V23.5322C17.4375 23.7045 17.2973 23.8447 17.125 23.8447ZM8.53125 2.71973H23.4688C23.6411 2.71973 23.7812 2.85991 23.7812 3.03223V6.46973H14.875C13.6688 6.46973 12.6875 7.45104 12.6875 8.65723V11.4072H8.21875V3.03223C8.21875 2.85991 8.35894 2.71973 8.53125 2.71973Z" fill="#E55050"/>
</symbol><symbol id="icon-direct-line" viewBox="0 0 58 58">
<circle cx="29" cy="29" r="29" fill="#49CCC4"/>
<path d="M36.1743 33.5911C38.7568 31.0086 38.7568 26.8958 36.1743 24.4089" stroke="white" stroke-width="2" stroke-miterlimit="10" stroke-linecap="square"/>
<path d="M39.9028 37.3211C44.4939 32.73 44.4939 25.2695 39.9028 20.6784" stroke="white" stroke-width="2" stroke-miterlimit="10" stroke-linecap="square"/>
<path d="M21.8285 33.5911C19.246 31.0086 19.246 26.8958 21.8285 24.4089" stroke="white" stroke-width="2" stroke-miterlimit="10" stroke-linecap="square"/>
<path d="M18.0966 37.3212C13.5055 32.7301 13.5055 25.2696 18.0966 20.6785" stroke="white" stroke-width="2" stroke-miterlimit="10" stroke-linecap="square"/>
<path d="M29.0003 31.8695C30.5851 31.8695 31.8697 30.5848 31.8697 29.0001C31.8697 27.4153 30.5851 26.1306 29.0003 26.1306C27.4155 26.1306 26.1309 27.4153 26.1309 29.0001C26.1309 30.5848 27.4155 31.8695 29.0003 31.8695Z" stroke="white" stroke-width="2" stroke-miterlimit="10" stroke-linecap="square"/>
</symbol><symbol id="icon-discussion" viewBox="0 0 32 32">
<path d="M27.9661 1.93939H3.96932C3.17378 1.93939 2.41082 2.25683 1.84829 2.82188C1.28575 3.38692 0.969727 4.15329 0.969727 4.95238V21.0216C0.969727 21.8207 1.28575 22.5871 1.84829 23.1521C2.41082 23.7172 3.17378 24.0346 3.96932 24.0346H10.9684L15.9677 30.0606L20.967 24.0346H27.9661C28.7616 24.0346 29.5246 23.7172 30.0871 23.1521C30.6497 22.5871 30.9657 21.8207 30.9657 21.0216V4.95238C30.9657 4.15329 30.6497 3.38692 30.0871 2.82188C29.5246 2.25683 28.7616 1.93939 27.9661 1.93939V1.93939Z" stroke="#FCA844" stroke-width="2" stroke-miterlimit="10" stroke-linecap="square"/>
<path d="M7.53125 10.3757H23.4666" stroke="#FCA844" stroke-width="2" stroke-miterlimit="10" stroke-linecap="square"/>
<path d="M7.53125 16H16.905" stroke="#FCA844" stroke-width="2" stroke-miterlimit="10" stroke-linecap="square"/>
</symbol><symbol id="icon-doc-doc" viewBox="0 0 24 24">
  <path d="M3 1h14v4h4v18H3V1zm16 1.41421L19.5858 3H19v-.58579z" fill="#fff" stroke="#9BD2F4" stroke-width="2"/>
  <rect x="1" y="9" width="22" height="10" rx="0.1" fill="#fff" stroke="#9BD2F4" stroke-width="2"/>
  <path d="M4.48788 17c-.05334 0-.09867-.0187-.136-.056-.03734-.0373-.056-.0827-.056-.136V11.6c0-.0587.016-.1067.048-.144.03733-.0373.08533-.056.144-.056h1.952c1.568 0 2.368.7253 2.4 2.176.01066.3093.016.5173.016.624 0 .1013-.00534.3067-.016.616-.02134.7467-.22134 1.2987-.6 1.656-.37867.352-.96534.528-1.76.528h-1.992zm1.952-.92c.448 0 .77066-.0987.968-.296.19733-.2027.30133-.5333.312-.992.01066-.32.016-.52.016-.6 0-.0853-.00534-.2827-.016-.592-.01067-.4373-.12267-.76-.336-.968-.208-.208-.536-.312-.984-.312h-.992v3.76h1.032zm5.63302 1c-.7254 0-1.2907-.184-1.696-.552-.40536-.368-.61869-.9147-.64002-1.64-.00534-.1547-.008-.3813-.008-.68 0-.304.00266-.5333.008-.688.02133-.7093.24-1.2533.65602-1.632.416-.3787.976-.568 1.68-.568s1.264.1893 1.68.568c.4213.3787.6426.9227.664 1.632.0106.3093.016.5387.016.688 0 .144-.0054.3707-.016.68-.0267.7253-.2427 1.272-.648 1.64-.4054.368-.9707.552-1.696.552zm0-.92c.3573 0 .6426-.1067.856-.32.2133-.2187.328-.5493.344-.992.0106-.32.016-.536.016-.648 0-.1227-.0054-.3387-.016-.648-.016-.4427-.1307-.7707-.344-.984-.2134-.2187-.4987-.328-.856-.328-.352 0-.6347.1093-.848.328-.2134.2133-.328.5413-.344.984-.0054.1547-.008.3707-.008.648 0 .272.0026.488.008.648.016.4427.128.7733.336.992.2133.2133.4986.32.856.32zm5.5705.92c-.736 0-1.3067-.1893-1.712-.568-.4-.3787-.6134-.912-.64-1.6-.0054-.144-.008-.3787-.008-.704 0-.3307.0026-.5707.008-.72.0266-.6827.2426-1.2133.648-1.592.4106-.384.9786-.576 1.704-.576.4746 0 .888.0827 1.24.248.352.16.624.3813.816.664.192.2773.2933.592.304.944v.016c0 .0427-.0187.08-.056.112-.032.0267-.0694.04-.112.04h-.76c-.064 0-.112-.0133-.144-.04-.032-.0267-.0587-.0773-.08-.152-.0854-.336-.2267-.5707-.424-.704-.1974-.1387-.4614-.208-.792-.208-.768 0-1.168.4293-1.2 1.288-.0054.144-.008.3653-.008.664s.0026.5253.008.68c.032.8587.432 1.288 1.2 1.288.3306 0 .5946-.0693.792-.208.2026-.1387.344-.3733.424-.704.016-.0747.04-.1253.072-.152.0373-.0267.088-.04.152-.04h.76c.048 0 .088.016.12.048.0373.032.0533.072.048.12-.0107.352-.112.6693-.304.952-.192.2773-.464.4987-.816.664-.352.16-.7654.24-1.24.24z" fill="#2C8ECC"/>
</symbol><symbol id="icon-doc-odt" viewBox="0 0 24 24">
  <path d="M3 1h14v4h4v18H3V1zm16 1.41421L19.5858 3H19v-.58579z" fill="#fff" stroke="#9BD2F4" stroke-width="2"/>
  <rect x="1" y="9" width="22" height="10" rx="0.1" fill="#fff" stroke="#9BD2F4" stroke-width="2"/>
  <path d="M6.81116 17.08c-.72534 0-1.29067-.184-1.696-.552-.40534-.368-.61867-.9147-.64-1.64-.00534-.1547-.008-.3813-.008-.68 0-.304.00266-.5333.008-.688.02133-.7093.24-1.2533.656-1.632.416-.3787.976-.568 1.68-.568s1.264.1893 1.68.568c.42133.3787.64266.9227.664 1.632.01066.3093.016.5387.016.688 0 .144-.00534.3707-.016.68-.02667.7253-.24267 1.272-.648 1.64-.40534.368-.97067.552-1.696.552zm0-.92c.35733 0 .64266-.1067.856-.32.21333-.2187.328-.5493.344-.992.01066-.32.016-.536.016-.648 0-.1227-.00534-.3387-.016-.648-.016-.4427-.13067-.7707-.344-.984-.21334-.2187-.49867-.328-.856-.328-.352 0-.63467.1093-.848.328-.21334.2133-.328.5413-.344.984-.00534.1547-.008.3707-.008.648 0 .272.00266.488.008.648.016.4427.128.7733.336.992.21333.2133.49866.32.856.32zm3.60254.84c-.0534 0-.0987-.0187-.136-.056-.0374-.0373-.056-.0827-.056-.136V11.6c0-.0587.016-.1067.048-.144.0373-.0373.0853-.056.144-.056h1.952c1.568 0 2.368.7253 2.4 2.176.0106.3093.016.5173.016.624 0 .1013-.0054.3067-.016.616-.0214.7467-.2214 1.2987-.6 1.656-.3787.352-.9654.528-1.76.528h-1.992zm1.952-.92c.448 0 .7706-.0987.968-.296.1973-.2027.3013-.5333.312-.992.0106-.32.016-.52.016-.6 0-.0853-.0054-.2827-.016-.592-.0107-.4373-.1227-.76-.336-.968-.208-.208-.536-.312-.984-.312h-.992v3.76h1.032zm4.8034.92c-.0533 0-.0987-.0187-.136-.056-.0373-.0373-.056-.0827-.056-.136v-4.424h-1.48c-.0533 0-.0987-.0187-.136-.056-.0373-.0373-.056-.0827-.056-.136V11.6c0-.0587.016-.1067.048-.144.0373-.0373.0853-.056.144-.056h4.08c.0587 0 .1067.0187.144.056.0373.0373.056.0853.056.144v.592c0 .0533-.0187.0987-.056.136-.0373.0373-.0853.056-.144.056h-1.472v4.424c0 .0533-.0187.0987-.056.136-.0373.0373-.0853.056-.144.056h-.736z" fill="#2C8ECC"/>
</symbol><symbol id="icon-doc-pdf" viewBox="0 0 24 24">
  <path d="M3 1h14v4h4v18H3V1zm16 1.41421L19.5858 3H19v-.58579z" fill="#fff" stroke="#9BD2F4" stroke-width="2"/>
  <rect x="1" y="9" width="22" height="10" rx="0.1" fill="#fff" stroke="#9BD2F4" stroke-width="2"/>
  <path d="M4.96444 17c-.05334 0-.09867-.0187-.136-.056-.03734-.0373-.056-.0827-.056-.136V11.6c0-.0587.016-.1067.048-.144.03733-.0373.08533-.056.144-.056h2.144c.64 0 1.144.152 1.512.456.368.2987.552.7387.552 1.32s-.184 1.0213-.552 1.32c-.36267.2933-.86667.44-1.512.44h-1.192v1.872c0 .0533-.01867.0987-.056.136-.032.0373-.07734.056-.136.056h-.76zm2.104-2.952c.30933 0 .54666-.072.712-.216.16533-.1493.248-.368.248-.656 0-.2773-.08-.4933-.24-.648-.16-.16-.4-.24-.72-.24h-1.168v1.76h1.168zM10.2379 17c-.0534 0-.0987-.0187-.136-.056-.0374-.0373-.056-.0827-.056-.136V11.6c0-.0587.016-.1067.048-.144.0373-.0373.0853-.056.144-.056h1.952c1.568 0 2.368.7253 2.4 2.176.0106.3093.016.5173.016.624 0 .1013-.0054.3067-.016.616-.0214.7467-.2214 1.2987-.6 1.656-.3787.352-.9654.528-1.76.528h-1.992zm1.952-.92c.448 0 .7706-.0987.968-.296.1973-.2027.3013-.5333.312-.992.0106-.32.016-.52.016-.6 0-.0853-.0054-.2827-.016-.592-.0107-.4373-.1227-.76-.336-.968-.208-.208-.536-.312-.984-.312h-.992v3.76h1.032zm3.673.92c-.0534 0-.0987-.0187-.136-.056-.0374-.0373-.056-.0827-.056-.136V11.6c0-.0587.016-.1067.048-.144.0373-.0373.0853-.056.144-.056h3.472c.0586 0 .1066.0187.144.056.0373.0373.056.0853.056.144v.56c0 .0587-.0187.1067-.056.144-.0374.032-.0854.048-.144.048h-2.568v1.52h2.408c.0586 0 .1066.0187.144.056.0373.0373.056.0853.056.144v.56c0 .0587-.0187.1067-.056.144-.0374.032-.0854.048-.144.048h-2.408v1.984c0 .0587-.0187.1067-.056.144-.0374.032-.0854.048-.144.048h-.704z" fill="#2C8ECC"/>
</symbol><symbol id="icon-done" viewBox="0 0 12 12">
<path d="M0.65625 5.6498L4.14605 9.1396L11.3438 1.94189" stroke="currentColor" stroke-width="1.5"/>
</symbol><symbol id="icon-exclamation-2" viewBox="0 0 24 24">
<path fill-rule="evenodd" clip-rule="evenodd" d="M0.199219 12.0002C0.199219 5.49386 5.49288 0.200195 11.9992 0.200195C18.5056 0.200195 23.7992 5.49386 23.7992 12.0002C23.7992 18.5065 18.5056 23.8002 11.9992 23.8002C5.49288 23.8002 0.199219 18.5065 0.199219 12.0002ZM2.35237 12.0002C2.35237 17.3197 6.67996 21.6468 11.9992 21.6468C17.3185 21.6468 21.6461 17.3197 21.6461 12.0002C21.6461 6.68067 17.3185 2.35359 11.9992 2.35359C6.67996 2.35359 2.35237 6.68067 2.35237 12.0002Z" fill="CurrentColor"/>
<rect x="10.75" y="6.00024" width="2.5" height="8" rx="1" fill="CurrentColor"/>
<rect x="10.75" y="15.0002" width="2.5" height="3" rx="1" fill="CurrentColor"/>
</symbol><symbol id="icon-exclamation" viewBox="0 0 24 24">
<path fill-rule="evenodd" clip-rule="evenodd" d="M0.199219 12.0002C0.199219 5.49386 5.49288 0.200195 11.9992 0.200195C18.5056 0.200195 23.7992 5.49386 23.7992 12.0002C23.7992 18.5065 18.5056 23.8002 11.9992 23.8002C5.49288 23.8002 0.199219 18.5065 0.199219 12.0002ZM2.35237 12.0002C2.35237 17.3197 6.67996 21.6468 11.9992 21.6468C17.3185 21.6468 21.6461 17.3197 21.6461 12.0002C21.6461 6.68067 17.3185 2.35359 11.9992 2.35359C6.67996 2.35359 2.35237 6.68067 2.35237 12.0002Z" fill="#2C8ECC"/>
<rect x="10.75" y="6.00024" width="2.5" height="8" rx="1" fill="#2C8ECC"/>
<rect x="10.75" y="15.0002" width="2.5" height="3" rx="1" fill="#2C8ECC"/>
</symbol><symbol id="icon-eye" viewBox="0 0 16 16">
<g clip-path="url(#clip0)">
<path d="M8 3.23126C4.94303 3.23126 2.17081 4.90376 0.125192 7.62034C-0.0417306 7.8429 -0.0417306 8.15384 0.125192 8.3764C2.17081 11.0963 4.94303 12.7687 8 12.7687C11.057 12.7687 13.8292 11.0963 15.8748 8.37967C16.0417 8.15711 16.0417 7.84618 15.8748 7.62361C13.8292 4.90376 11.057 3.23126 8 3.23126ZM8.21929 11.3581C6.19004 11.4857 4.51427 9.81324 4.64191 7.78071C4.74665 6.10495 6.10494 4.74666 7.78071 4.64192C9.80996 4.51427 11.4857 6.18677 11.3581 8.2193C11.2501 9.89179 9.89179 11.2501 8.21929 11.3581ZM8.11783 9.80669C7.02465 9.87543 6.1213 8.97536 6.19331 7.88218C6.24895 6.97883 6.9821 6.24896 7.88545 6.19004C8.97862 6.12131 9.88197 7.02138 9.80996 8.11456C9.75105 9.02118 9.0179 9.75105 8.11783 9.80669Z" fill="currentColor"/>
</g>

</symbol><symbol id="icon-file-replace" viewBox="0 0 32 32">
<path d="M30 13H15V30H30V13Z" stroke="#FFA51D" stroke-width="2" stroke-miterlimit="10" stroke-linecap="round" stroke-linejoin="round"/>
<path d="M11 19H2V2H17V9" stroke="#FFA51D" stroke-width="2" stroke-miterlimit="10" stroke-linecap="round" stroke-linejoin="round"/>
<path d="M24 3C25.3261 3 26.5979 3.52678 27.5355 4.46447C28.4732 5.40215 29 6.67392 29 8" stroke="#FFA51D" stroke-width="2" stroke-miterlimit="10" stroke-linecap="round" stroke-linejoin="round"/>
<path d="M8 29C6.67392 29 5.40215 28.4732 4.46447 27.5355C3.52678 26.5979 3 25.3261 3 24" stroke="#FFA51D" stroke-width="2" stroke-miterlimit="10" stroke-linecap="round" stroke-linejoin="round"/>
</symbol><symbol id="icon-fire"><path d="M18.48 13.653S19.548 7.62 15.193 5a7.167 7.167 0 01-.857 2.97c-.5.92-1.195 1.73-2.043 2.374-1.86 1.573-5.361 5.101-5.324 8.874a8.395 8.395 0 001.316 4.567A8.875 8.875 0 0011.907 27a5.318 5.318 0 01.6-2.087 5.523 5.523 0 011.396-1.7c.49-.363.9-.815 1.206-1.33a4.348 4.348 0 00.577-1.675A8.262 8.262 0 0118.828 23a7.833 7.833 0 011.297 3.92v.022a8.342 8.342 0 003.481-2.846 7.876 7.876 0 001.421-4.174c.095-3.06-.975-6.049-3.01-8.404" stroke="#2C8ECC" stroke-width="2" stroke-miterlimit="10" stroke-linecap="square"/></symbol><symbol id="icon-forum" viewBox="0 0 58 58">
<circle cx="29" cy="29" r="29" fill="#FCA844"/>
<g clip-path="url(#clip0_991_1162)">
<path d="M40.0912 15.6285H16.8443C16.0737 15.6285 15.3345 15.936 14.7896 16.4834C14.2446 17.0308 13.9385 17.7732 13.9385 18.5473V34.1144C13.9385 34.8885 14.2446 35.6309 14.7896 36.1783C15.3345 36.7257 16.0737 37.0332 16.8443 37.0332H23.6247L28.4678 42.8709L33.3109 37.0332H40.0912C40.8619 37.0332 41.601 36.7257 42.146 36.1783C42.6909 35.6309 42.9971 34.8885 42.9971 34.1144V18.5473C42.9971 17.7732 42.6909 17.0308 42.146 16.4834C41.601 15.936 40.8619 15.6285 40.0912 15.6285V15.6285Z" stroke="white" stroke-width="2" stroke-miterlimit="10" stroke-linecap="square"/>
<path d="M20.2959 23.8012H35.7333" stroke="white" stroke-width="2" stroke-miterlimit="10" stroke-linecap="square"/>
<path d="M20.2959 29.2496H29.3767" stroke="white" stroke-width="2" stroke-miterlimit="10" stroke-linecap="square"/>
</g>

</symbol><symbol id="icon-full-screen" viewBox="0 0 24 24">
<!-- <rect x="0.5" y="0.5" width="23" height="23" rx="4.5" fill="white" stroke="#E3E8EE"/> -->
<path fill-rule="evenodd" clip-rule="evenodd" d="M14 5.5H18.5V10H17.5V7.20711L13.3536 11.3536L12.6464 10.6464L16.7929 6.5H14V5.5ZM11.3536 13.3536L7.20711 17.5H10.5V18.5H5.5V13.5H6.5V16.7929L10.6464 12.6464L11.3536 13.3536Z" fill="currentColor"/>
</symbol><symbol id="icon-glasses" viewBox="0 0 18 18">
<path d="M1.05469 8.3262V5.61003C1.05469 4.02695 2.33578 2.74902 3.91641 2.74902C4.2075 2.74902 4.4434 2.51277 4.4434 2.22168C4.4434 1.93059 4.20715 1.69434 3.9157 1.69434C1.74937 1.69434 0 3.44757 0 5.61003V9.33061C0.300234 8.9467 0.656016 8.6078 1.05469 8.3262Z" fill="currentColor"/>
<path d="M14.0836 1.69434C13.7925 1.69434 13.5566 1.93059 13.5566 2.22168C13.5566 2.51277 13.7929 2.74902 14.0843 2.74902C15.6671 2.74902 16.9454 4.02976 16.9454 5.61003V8.3262C17.344 8.6078 17.6998 8.9467 18 9.33061V5.61003C18 3.44336 16.2468 1.69434 14.0836 1.69434Z" fill="currentColor"/>
<path fill-rule="evenodd" clip-rule="evenodd" d="M10.3238 11.2919C10.7994 9.66473 12.3048 8.47266 14.0836 8.47266C16.2431 8.47266 18 10.2295 18 12.389C18 14.5485 16.2431 16.3054 14.0836 16.3054C11.9996 16.3054 10.2908 14.6692 10.1738 12.614L9.75653 12.1968C9.55448 11.9948 9.28586 11.8836 9 11.8836C8.71414 11.8836 8.44548 11.9948 8.24347 12.1968L7.82617 12.6141C7.70913 14.6693 6.00036 16.3055 3.91641 16.3055C1.7569 16.3055 0 14.5486 0 12.3891C0 10.2296 1.7569 8.47266 3.91641 8.47266C5.69521 8.47266 7.20056 9.66477 7.67616 11.2919C8.05099 10.9921 8.51284 10.8289 9 10.8289C9.48716 10.8289 9.94897 10.9921 10.3238 11.2919ZM6.76875 12.389C6.76875 13.9906 5.47038 15.289 3.86875 15.289C2.26712 15.289 0.96875 13.9906 0.96875 12.389C0.96875 10.7874 2.26712 9.48901 3.86875 9.48901C5.47038 9.48901 6.76875 10.7874 6.76875 12.389ZM16.9562 12.389C16.9562 13.9906 15.6579 15.289 14.0562 15.289C12.4546 15.289 11.1562 13.9906 11.1562 12.389C11.1562 10.7874 12.4546 9.48901 14.0562 9.48901C15.6579 9.48901 16.9562 10.7874 16.9562 12.389Z" fill="currentColor"/>
</symbol><symbol id="icon-hide" viewBox="0 0 17 16">
<circle cx="8.12012" cy="8" r="8" fill="#0E4CD3"/>
<g clip-path="url(#clip0_810_12989)">
<path d="M2.12011 7.99982C2.99549 5.37989 5.34768 3.49981 8.12011 3.49981C9.11255 3.49981 10.0485 3.74477 10.884 4.17532L12.3096 2.74982L13.3701 3.81036L3.93069 13.2498L2.87015 12.1892L4.09216 10.9672C3.20232 10.1942 2.5121 9.17281 2.12016 7.99978L2.12011 7.99982ZM8.12011 4.99982C6.46324 4.99982 5.12011 6.34296 5.12011 7.99982C5.12011 8.55609 5.2779 9.07144 5.54387 9.51552L6.67145 8.38795C6.63802 8.26431 6.62012 8.13426 6.62012 7.9998C6.62012 7.17134 7.2917 6.49981 8.12011 6.49981C8.25413 6.49981 8.38273 6.52004 8.50609 6.55328L9.62662 5.43275C9.18319 5.16736 8.67552 4.99982 8.12011 4.99982Z" fill="white"/>
<path d="M8.12012 11.0001C9.77698 11.0001 11.1201 9.65692 11.1201 8.00008C11.1201 7.7331 11.0741 7.479 11.0086 7.23265L12.6852 5.55609C13.3154 6.24624 13.8112 7.07558 14.1201 8.00008C13.2447 10.62 10.8925 12.5001 8.12012 12.5001C7.41076 12.5001 6.72962 12.3754 6.09295 12.1483L7.35267 10.8886C7.59904 10.9541 7.85317 11.0001 8.12012 11.0001Z" fill="white"/>
</g>

</symbol><symbol id="icon-improvement" viewBox="0 0 32 32">
<rect x="7.5" y="5.5" width="1" height="5" rx="0.5" stroke="#686778"/>
<rect x="7.5" y="13.5" width="1" height="5" rx="0.5" stroke="#686778"/>
<rect x="7.5" y="21.5" width="1" height="5" rx="0.5" stroke="#686778"/>
<rect x="13.5" y="5.5" width="1" height="5" rx="0.5" stroke="#686778"/>
<rect x="13.5" y="13.5" width="1" height="5" rx="0.5" stroke="#686778"/>
<rect x="0.5" y="0.5" width="21" height="1" rx="0.5" stroke="#686778"/>
<rect x="0.5" y="30.5" width="31" height="1" rx="0.5" stroke="#686778"/>
<path fill-rule="evenodd" clip-rule="evenodd" d="M4 2H18V22.1018C18.3407 22.0351 18.6937 22 19.0554 22C19.378 22 19.6937 22.0279 20 22.0813V2V0H18H4H2V2V30V32H4H10.15C10.0672 32 10 31.9328 10 31.85V30H4V2Z" fill="#686778"/>
<path fill-rule="evenodd" clip-rule="evenodd" d="M19.0554 24C17.8381 24 16.8219 24.618 16.2911 25.4687C15.8395 26.1927 15.007 26.578 14.17 26.4639C14.0768 26.4512 13.9803 26.4444 13.881 26.4444C12.7336 26.4444 12 27.2961 12 28.1111V30H26.1111V28.6109C26.1031 28.5817 26.0958 28.5523 26.0891 28.5226C25.9955 28.1072 25.5513 27.6667 24.877 27.6667C24.7831 27.6667 24.6937 27.6756 24.609 27.6917C23.5245 27.8979 22.4388 27.2498 22.129 26.1628C21.7926 24.982 20.5977 24 19.0554 24ZM14.5943 24.4101C14.5617 24.4624 14.5013 24.4906 14.4402 24.4822C14.2576 24.4573 14.0709 24.4444 13.881 24.4444C11.7376 24.4444 10 26.0861 10 28.1111V31.85C10 31.9328 10.0672 32 10.15 32H27.9611C28.044 32 28.1111 31.9328 28.1111 31.85V28.1469C28.1111 28.1271 28.0951 28.1111 28.0753 28.1111C28.0584 28.1111 28.0439 28.0993 28.0402 28.0828C27.729 26.7023 26.431 25.6667 24.877 25.6667C24.6573 25.6667 24.4428 25.6874 24.2354 25.7269C24.1548 25.7422 24.075 25.6936 24.0525 25.6147C23.4591 23.5325 21.4467 22 19.0554 22C17.1551 22 15.494 22.9678 14.5943 24.4101Z" fill="#686778"/>
<rect x="27.5" y="21.5" width="10" height="1" rx="0.5" transform="rotate(90 27.5 21.5)" stroke="#686778"/>
<rect x="23" y="8" width="8" height="14" rx="4" stroke="#686778" stroke-width="2"/>
</symbol><symbol id="icon-info" viewBox="0 0 18 18">
<circle cx="9" cy="9" r="7" fill="CurrentColor"/>
<path d="M9.79688 8L8.19687 8L8.19688 10.2229L8.19687 13L9.79688 13L9.79688 10.2229L9.79688 8Z" fill="white"/>
<path d="M9.79688 5L8.19688 5L8.19688 6.6L9.79688 6.6L9.79688 5Z" fill="white"/>
</symbol><symbol id="icon-landscape" viewBox="0 0 58 58">
<circle cx="29" cy="29" r="29" fill="#86909C"/>
<rect x="20.2656" y="19.0781" width="0.96875" height="4.84375" rx="0.484375" stroke="white" stroke-width="0.96875"/>
<rect x="20.2656" y="26.8281" width="0.96875" height="4.84375" rx="0.484375" stroke="white" stroke-width="0.96875"/>
<rect x="20.2656" y="34.5781" width="0.96875" height="4.84375" rx="0.484375" stroke="white" stroke-width="0.96875"/>
<rect x="26.0781" y="19.0781" width="0.96875" height="4.84375" rx="0.484375" stroke="white" stroke-width="0.96875"/>
<rect x="26.0781" y="26.8281" width="0.96875" height="4.84375" rx="0.484375" stroke="white" stroke-width="0.96875"/>
<rect x="13.4844" y="14.2344" width="20.3438" height="0.96875" rx="0.484375" stroke="white" stroke-width="0.96875"/>
<rect x="13.4844" y="43.2969" width="30.0312" height="0.96875" rx="0.484375" stroke="white" stroke-width="0.96875"/>
<path fill-rule="evenodd" clip-rule="evenodd" d="M16.9375 15.75H30.375V35.1737C30.7243 35.1009 31.0874 35.0625 31.4599 35.0625C31.7724 35.0625 32.0783 35.0895 32.375 35.1412V15.75V13.75H30.375H16.9375H14.9375V15.75V42.75V44.75H16.9375H22.8328C22.7526 44.75 22.6875 44.6849 22.6875 44.6047V42.75H16.9375V15.75Z" fill="white"/>
<path fill-rule="evenodd" clip-rule="evenodd" d="M31.4599 37C30.2807 37 29.2962 37.5987 28.7821 38.4228C28.3445 39.1242 27.5381 39.4975 26.7272 39.3869C26.6369 39.3746 26.5434 39.3681 26.4472 39.3681C25.3357 39.3681 24.625 40.1931 24.625 40.9826V42.8125H38.2951V41.4668C38.2874 41.4385 38.2803 41.41 38.2738 41.3812C38.1831 40.9789 37.7528 40.5522 37.0996 40.5522C37.0087 40.5522 36.922 40.5607 36.84 40.5763C35.7893 40.7761 34.7376 40.1483 34.4375 39.0952C34.1115 37.9513 32.9541 37 31.4599 37ZM27.1382 37.3973C27.1066 37.4479 27.0481 37.4752 26.989 37.4672C26.8121 37.443 26.6312 37.4306 26.4472 37.4306C24.3708 37.4306 22.6875 39.0209 22.6875 40.9826V44.6047C22.6875 44.6849 22.7526 44.75 22.8328 44.75H40.0873C40.1676 44.75 40.2326 44.6849 40.2326 44.6047V41.0173C40.2326 40.9982 40.2171 40.9826 40.198 40.9826C40.1816 40.9826 40.1675 40.9712 40.1639 40.9552C39.8625 39.6178 38.605 38.6147 37.0996 38.6147C36.8868 38.6147 36.679 38.6347 36.4781 38.6729C36.4 38.6877 36.3226 38.6406 36.3008 38.5642C35.726 36.5471 33.7765 35.0625 31.4599 35.0625C29.619 35.0625 28.0098 36 27.1382 37.3973Z" fill="white"/>
<rect x="39.6406" y="34.5781" width="9.6875" height="0.96875" rx="0.484375" transform="rotate(90 39.6406 34.5781)" stroke="white" stroke-width="0.96875"/>
<rect x="35.3125" y="21.5312" width="7.6875" height="13.5" rx="3.84375" stroke="white" stroke-width="2"/>
</symbol><symbol id="icon-lightning" viewBox="0 0 12 16">
<path d="M4.58568 15.9539C4.65456 15.9815 4.72343 15.9952 4.79231 15.9952C4.97139 15.9952 5.15047 15.9126 5.26068 15.7473L11.1703 7.20648C11.2943 7.04118 11.3081 6.807 11.2117 6.62792C11.1152 6.44883 10.9224 6.32485 10.7158 6.32485L7.05149 6.2973L8.1122 0.676915C8.1673 0.428957 8.02954 0.167223 7.79536 0.057019C7.56118 -0.0531847 7.28567 0.0156926 7.12036 0.222325L0.852527 8.11567C0.714773 8.28097 0.687222 8.51515 0.78365 8.70801C0.880078 8.90087 1.07293 9.02485 1.29334 9.02485L5.34333 9.0524L4.25507 15.334C4.19997 15.5957 4.33772 15.8575 4.58568 15.9539ZM2.45048 7.90903L6.58312 2.70191L5.81169 6.76567C5.78414 6.93098 5.82547 7.09628 5.93567 7.23404C6.04588 7.35802 6.19741 7.44067 6.36271 7.44067L9.6275 7.45444L5.78414 13.0197L6.54179 8.58403C6.56934 8.41873 6.52802 8.25342 6.41781 8.12944C6.32139 8.00546 6.16986 7.93658 6.00455 7.93658L2.45048 7.90903Z"/>
<path d="M2.45048 7.90903L6.58312 2.70191L5.81169 6.76567C5.78414 6.93098 5.82547 7.09628 5.93567 7.23404C6.04588 7.35802 6.19741 7.44067 6.36271 7.44067L9.6275 7.45444L5.78414 13.0197L6.54179 8.58403C6.56934 8.41873 6.52802 8.25342 6.41781 8.12944C6.32139 8.00546 6.16986 7.93658 6.00455 7.93658L2.45048 7.90903Z"/>
</symbol><symbol id="icon-link" viewBox="0 0 20 20">
<g clip-path="url(#clip0)">
<path d="M12.2015 7.79552C11.9646 7.5572 11.7019 7.34595 11.4183 7.16563C10.6672 6.68467 9.79398 6.42909 8.90207 6.42909C7.66413 6.42678 6.47649 6.91865 5.60267 7.79552L1.36343 12.0381C0.491085 12.9121 0.000782076 14.0963 9.66007e-07 15.3312C-0.00163936 17.9081 2.08595 19.9983 4.66283 20C5.89886 20.0043 7.08541 19.5148 7.95892 18.6402L11.4583 15.1409C11.5219 15.0778 11.5574 14.9918 11.5569 14.9023C11.5558 14.7182 11.4057 14.5699 11.2217 14.571H11.0884C10.3572 14.5735 9.63265 14.4331 8.95542 14.1577C8.83064 14.1064 8.68723 14.1353 8.59217 14.231L6.07594 16.7506C5.2946 17.5319 4.02779 17.5319 3.24645 16.7506C2.4651 15.9692 2.4651 14.7024 3.24645 13.9211L7.50236 9.66851C8.28308 8.88876 9.54782 8.88876 10.3285 9.66851C10.8547 10.1637 11.6754 10.1637 12.2015 9.66851C12.4279 9.44195 12.5651 9.14145 12.5881 8.82198C12.6125 8.44021 12.4717 8.06633 12.2015 7.79552Z" fill="currentColor"/>
<path d="M18.6331 1.36666C16.8109 -0.455553 13.8565 -0.455553 12.0343 1.36666L8.53825 4.85935C8.44225 4.95582 8.41456 5.10091 8.46826 5.22597C8.52134 5.35137 8.64538 5.43187 8.78153 5.42925H8.90482C9.63508 5.42792 10.3585 5.56942 11.0344 5.84585C11.1592 5.89721 11.3026 5.86823 11.3977 5.77255L13.9072 3.26632C14.6886 2.48497 15.9554 2.48497 16.7367 3.26632C17.5181 4.04766 17.5181 5.31447 16.7367 6.09581L13.6106 9.21857L13.5839 9.24856L12.4908 10.335C11.7101 11.1148 10.4454 11.1148 9.66465 10.335C9.13849 9.83986 8.31778 9.83986 7.79167 10.335C7.56385 10.5633 7.4265 10.8664 7.40506 11.1882C7.38068 11.57 7.52148 11.9439 7.79167 12.2147C8.17742 12.6021 8.62874 12.918 9.12475 13.1479C9.19473 13.1812 9.26472 13.2079 9.33471 13.2378C9.4047 13.2678 9.478 13.2912 9.54799 13.3178C9.61798 13.3445 9.69128 13.3678 9.76127 13.3878L9.95792 13.4411C10.0912 13.4744 10.2245 13.5011 10.3612 13.5244C10.5257 13.5489 10.6915 13.5645 10.8578 13.5711H11.091H11.111L11.311 13.5478C11.3843 13.5445 11.461 13.5278 11.5476 13.5278H11.6609L11.8909 13.4945L11.9976 13.4745L12.1908 13.4345H12.2275C13.0462 13.2289 13.7937 12.805 14.3904 12.208L18.633 7.96547C20.4553 6.14326 20.4553 3.18887 18.6331 1.36666Z" fill="currentColor"/>
</g>

</symbol><symbol id="icon-looking-glass" viewBox="0 0 17 16">
<path d="M15.6401 13.28L13.4001 11.04C14.1201 9.92 14.5201 8.64 14.5201 7.2C14.5201 3.2 11.3201 0 7.32012 0C3.32012 0 0.120117 3.2 0.120117 7.2C0.120117 11.2 3.32012 14.4 7.32012 14.4C8.76012 14.4 10.0401 14 11.1601 13.28L13.4001 15.52C14.0401 16.16 15.0001 16.16 15.6401 15.52C16.2801 14.88 16.2801 13.92 15.6401 13.28ZM7.32012 12.8C4.20012 12.8 1.72012 10.32 1.72012 7.2C1.72012 4.08 4.20012 1.6 7.32012 1.6C10.4401 1.6 12.9201 4.08 12.9201 7.2C12.9201 10.32 10.3601 12.8 7.32012 12.8Z" fill="#0E4CD3"/>
</symbol><symbol id="icon-man" viewBox="0 0 13 16">
<path d="M6.08454 7.82505C7.86346 7.82505 9.3057 6.07337 9.3057 3.91255C9.3057 1.75168 8.8322 0 6.08454 0C3.33688 0 2.86328 1.75168 2.86328 3.91255C2.86328 6.07337 4.30552 7.82505 6.08454 7.82505Z" fill="currentColor"/>
<path d="M12.1612 13.641C12.1016 9.87679 11.61 8.80419 7.848 8.12524C7.848 8.12524 7.31845 8.80003 6.08416 8.80003C4.84987 8.80003 4.32023 8.12524 4.32023 8.12524C0.599314 8.79679 0.0778057 9.85348 0.00923427 13.5187C0.00361141 13.818 0.00100571 13.8337 0 13.799C0.000228571 13.8641 0.000502755 13.9845 0.000502755 14.1945C0.000502755 14.1945 0.896137 16 6.08416 16C11.2721 16 12.1678 14.1945 12.1678 14.1945C12.1678 14.0596 12.1679 13.9658 12.168 13.9019C12.167 13.9234 12.165 13.8818 12.1612 13.641Z" fill="currentColor"/>
</symbol><symbol id="icon-news" viewBox="0 0 32 32">
<path d="M3.06942 18.0713H1.00052V27.3926C0.992942 27.8027 1.06803 28.2101 1.22131 28.5905C1.37458 28.9709 1.60289 29.3164 1.89259 29.6065C2.18228 29.8965 2.52742 30.1251 2.90736 30.2786C3.2873 30.432 3.69424 30.5072 4.10386 30.4996" stroke="#2374E7" stroke-width="2" stroke-miterlimit="10" stroke-linecap="square"/>
<path d="M7.20734 1.5V27.3924C7.21492 27.8025 7.13983 28.2099 6.98656 28.5903C6.83328 28.9707 6.60498 29.3163 6.31528 29.6063C6.02558 29.8964 5.68045 30.125 5.30051 30.2784C4.92057 30.4319 4.51363 30.5071 4.104 30.4995H27.8963C28.3059 30.5071 28.7128 30.4319 29.0928 30.2784C29.4727 30.125 29.8179 29.8964 30.1076 29.6063C30.3973 29.3163 30.6256 28.9707 30.7788 28.5903C30.9321 28.2099 31.0072 27.8025 30.9996 27.3924V1.5H7.20734Z" stroke="#2374E7" stroke-width="2" stroke-miterlimit="10" stroke-linecap="square"/>
<path d="M26 6.5H12V13.5H26V6.5Z" stroke="#2374E7" stroke-width="2" stroke-miterlimit="10" stroke-linecap="square"/>
<path d="M26 24.5H12" stroke="#2374E7" stroke-width="2" stroke-miterlimit="10" stroke-linecap="square"/>
<path d="M26 19.5H12" stroke="#2374E7" stroke-width="2" stroke-miterlimit="10" stroke-linecap="square"/>
</symbol><symbol id="icon-notification" viewBox="0 0 32 32">
<path d="M13 28C13 28.7956 13.3161 29.5587 13.8787 30.1213C14.4413 30.6839 15.2044 31 16 31C16.7956 31 17.5587 30.6839 18.1213 30.1213C18.6839 29.5587 19 28.7956 19 28" stroke="#E55050" stroke-width="2" stroke-miterlimit="10"/>
<path d="M29 25C29 25 26 20 26 16V11C26 8.34784 24.9464 5.8043 23.0711 3.92893C21.1957 2.05357 18.6522 1 16 1C13.3478 1 10.8043 2.05357 8.92893 3.92893C7.05357 5.8043 6 8.34784 6 11V16C6 20 3 25 3 25H29Z" stroke="#E55050" stroke-width="2" stroke-miterlimit="10" stroke-linecap="square"/>
</symbol><symbol id="icon-ok" viewBox="0 0 32 32">
<rect width="32" height="32" rx="5" fill="currentColor"/>
<path fill-rule="evenodd" clip-rule="evenodd" d="M16.614 10.5233C17.5388 10.8384 18.0217 11.8162 17.7025 12.7051C17.3751 13.594 16.3603 14.0626 15.4355 13.7556C14.5107 13.4404 14.0279 12.4626 14.3471 11.5738C14.6744 10.6768 15.6892 10.2081 16.614 10.5233ZM18.66 16.6566C18.9219 16.503 19.2083 16.3576 19.5111 16.3414C19.8303 16.3253 20.2395 16.495 20.4523 16.7132C20.9025 17.1818 20.9352 17.9657 20.4359 18.4102C20.3623 18.4829 20.2641 18.5556 20.1659 18.6122C19.282 19.1132 18.7746 19.3556 17.7598 19.5738C17.8907 19.6788 18.0299 19.8081 18.1444 19.9132C18.8319 20.5677 19.5275 21.2142 20.2068 21.8687C20.657 22.297 20.6733 22.9192 20.3459 23.4202C19.994 23.9536 19.2739 24.091 18.7091 23.7838C18.5619 23.703 18.4227 23.5899 18.2672 23.4445C17.5388 22.7414 16.8023 22.0465 16.0575 21.3596C15.9593 21.4485 15.7956 21.6182 15.6729 21.7394C15.0263 22.3698 14.3962 23.0081 13.7415 23.6303C13.2095 24.1556 12.4075 24.1071 11.8919 23.5738C11.5072 23.1778 11.4581 22.5394 11.8019 22.095C11.9983 21.8606 12.2192 21.6506 12.4402 21.4404C12.9394 20.9394 13.7823 20.1637 14.2407 19.6546C13.4141 19.396 12.4075 19.089 11.72 18.6041C11.1307 18.1838 11.0489 17.4727 11.4418 16.9071C11.5891 16.6889 11.8019 16.5354 12.1374 16.4546C12.5139 16.3657 12.8821 16.4465 13.2177 16.6242C14.2079 17.1657 15.0673 17.4404 16.3685 17.3515C17.1706 17.2546 17.9644 17.0526 18.66 16.6566ZM17.4488 8.2364C19.6831 8.996 20.8534 11.3556 20.0677 13.505C19.282 15.6546 16.835 16.7859 14.6007 16.0344C12.3665 15.2748 11.1963 12.9152 11.9819 10.7657C12.7675 8.60808 15.2146 7.47679 17.4488 8.2364Z" fill="white"/>
</symbol><symbol id="icon-oops" viewBox="0 0 58 58">
<circle cx="29" cy="29" r="29" fill="#E55050"/>
<g clip-path="url(#clip0_751_40293)">
<path d="M41.8809 21.2361H37.8545V17.906C37.8545 16.7375 36.9038 15.7869 35.7354 15.7869H21.2646C20.0962 15.7869 19.1455 16.7375 19.1455 17.906V26.0193H15.1191C13.9506 26.0193 13 26.97 13 28.1385V37.7654C13 38.9339 13.9506 39.8846 15.1191 39.8846H17.4199V41.6975C17.4199 42.2753 17.7411 42.7944 18.2583 43.0522C18.4739 43.1597 18.7052 43.2126 18.9352 43.2126C19.2567 43.2126 19.5756 43.109 19.8445 42.9063L23.8548 39.8845H29.5898C30.7583 39.8845 31.709 38.9338 31.709 37.7654V35.1013H33.1452L37.1554 38.1231C37.4245 38.3259 37.7432 38.4294 38.0648 38.4294C38.2947 38.4294 38.5262 38.3764 38.7417 38.269C39.2589 38.0112 39.5801 37.4921 39.5801 36.9143V35.1013H41.8809C43.0494 35.1013 44 34.1507 44 32.9822V23.3553C44 22.1868 43.0494 21.2361 41.8809 21.2361ZM42.1836 32.9822C42.1836 33.1491 42.0478 33.2849 41.8809 33.2849H38.6719C38.1703 33.2849 37.7637 33.6916 37.7637 34.1931V36.3071L33.9956 33.4678C33.8381 33.3491 33.6462 33.2849 33.449 33.2849H27.4102C27.2432 33.2849 27.1074 33.1491 27.1074 32.9821V23.3552C27.1074 23.1883 27.2432 23.0525 27.4102 23.0525H41.8809C42.0478 23.0525 42.1836 23.1883 42.1836 23.3552V32.9822ZM29.5898 38.0681H23.551C23.3538 38.0681 23.1619 38.1324 23.0044 38.2511L19.2363 41.0903V38.9763C19.2363 38.4748 18.8297 38.0681 18.3281 38.0681H15.1191C14.9522 38.0681 14.8164 37.9323 14.8164 37.7654V28.1385C14.8164 27.9715 14.9522 27.8357 15.1191 27.8357H25.291V32.9822C25.291 34.1507 26.2417 35.1013 27.4102 35.1013H29.8926V37.7654C29.8926 37.9323 29.7568 38.0681 29.5898 38.0681ZM21.2646 17.6033H35.7354C35.9023 17.6033 36.0381 17.7391 36.0381 17.906V21.2361H27.4102C26.2417 21.2361 25.291 22.1868 25.291 23.3553V26.0193H20.9619V17.906C20.9619 17.7391 21.0977 17.6033 21.2646 17.6033Z" fill="white"/>
</g>

</symbol><symbol id="icon-page" viewBox="0 0 20 24">
<path d="M1 1H15V4V5H16H19V23H1V1ZM17 2.41421L17.5858 3H17V2.41421Z" fill="white" stroke="#9BD2F4" stroke-width="2"/>
<rect x="4" y="8.5" width="12" height="2" rx="1" fill="#9BD2F4"/>
<rect x="4" y="12.5" width="12" height="2" rx="1" fill="#9BD2F4"/>
<rect x="4" y="16.5" width="7" height="2" rx="1" fill="#9BD2F4"/>
</symbol><symbol id="icon-pages" viewBox="0 0 32 32">
<path d="M25.2857 4.85645H3V30.8564H25.2857V4.85645Z" stroke="#2C8ECC" stroke-width="2" stroke-miterlimit="10" stroke-linecap="square"/>
<path d="M7.64258 12.2852H19.714" stroke="#2C8ECC" stroke-width="2" stroke-miterlimit="10" stroke-linecap="square"/>
<path d="M7.64258 17.8564H19.714" stroke="#2C8ECC" stroke-width="2" stroke-miterlimit="10" stroke-linecap="square"/>
<path d="M7.64258 23.4287H12.2854" stroke="#2C8ECC" stroke-width="2" stroke-miterlimit="10" stroke-linecap="square"/>
<path d="M6 1.14258H29V27.8854" stroke="#2C8ECC" stroke-width="2" stroke-miterlimit="10" stroke-linecap="square"/>
</symbol><symbol id="icon-paginator-next" viewBox="0 0 25 16">
<path d="M24.7071 8.70711C25.0976 8.31658 25.0976 7.68342 24.7071 7.2929L18.3431 0.928934C17.9526 0.538409 17.3195 0.538409 16.9289 0.928934C16.5384 1.31946 16.5384 1.95262 16.9289 2.34315L22.5858 8L16.9289 13.6569C16.5384 14.0474 16.5384 14.6805 16.9289 15.0711C17.3195 15.4616 17.9526 15.4616 18.3431 15.0711L24.7071 8.70711ZM-8.74228e-08 9L24 9L24 7L8.74228e-08 7L-8.74228e-08 9Z" fill="currentColor"/>
</symbol><symbol id="icon-paginator-prev" viewBox="0 0 25 16">
<path d="M0.292893 8.70711C-0.0976314 8.31658 -0.0976315 7.68342 0.292892 7.2929L6.65685 0.928934C7.04738 0.538409 7.68054 0.538409 8.07107 0.928934C8.46159 1.31946 8.46159 1.95262 8.07107 2.34315L2.41421 8L8.07107 13.6569C8.46159 14.0474 8.46159 14.6805 8.07107 15.0711C7.68054 15.4616 7.04738 15.4616 6.65686 15.0711L0.292893 8.70711ZM25 9L1 9L1 7L25 7L25 9Z" fill="currentColor"/>
</symbol><symbol id="icon-pencil" viewBox="0 0 15 15">
<path d="M10.9688 0.28125C10.5938 -0.09375 10.0312 -0.09375 9.65625 0.28125L0.28125 9.65625C0.09375 9.84375 0 10.0312 0 10.3125V14.0625C0 14.625 0.375 15 0.9375 15H4.6875C4.96875 15 5.15625 14.9062 5.34375 14.7188L14.7188 5.34375C15.0938 4.96875 15.0938 4.40625 14.7188 4.03125L10.9688 0.28125ZM4.3125 13.125H1.875V10.6875L7.5 5.0625L9.9375 7.5L4.3125 13.125ZM11.25 6.1875L8.8125 3.75L10.3125 2.25L12.75 4.6875L11.25 6.1875Z" fill="currentColor"/>
</symbol><symbol id="icon-personal" viewBox="0 0 16 16">
<path fill-rule="evenodd" clip-rule="evenodd" d="M8 16C12.4183 16 16 12.4183 16 8C16 3.58172 12.4183 0 8 0C3.58172 0 0 3.58172 0 8C0 12.4183 3.58172 16 8 16ZM8.00034 7.89063C9.16991 7.89063 10.1181 6.79584 10.1181 5.44533C10.1181 4.09479 9.80681 3 8.00034 3C6.19386 3 5.88249 4.09479 5.88249 5.44533C5.88249 6.79584 6.83071 7.89063 8.00034 7.89063ZM11.9955 11.5256C11.9563 9.17301 11.6331 8.50264 9.15974 8.0783C9.15974 8.0783 8.81158 8.50004 8.00009 8.50004C7.1886 8.50004 6.84038 8.0783 6.84038 8.0783C4.39402 8.49801 4.05115 9.15844 4.00607 11.4492C4.00237 11.6363 4.00066 11.6461 4 11.6244C4.00015 11.6651 4.00033 11.7403 4.00033 11.8715C4.00033 11.8715 4.58917 13 8.00009 13C11.4109 13 11.9998 11.8715 11.9998 11.8715L12 11.6887C11.9993 11.7021 11.998 11.6761 11.9955 11.5256Z" fill="currentColor"/>
</symbol><symbol id="icon-pin" viewBox="0 0 18 19">
<path fill-rule="evenodd" clip-rule="evenodd" d="M14.9369 7.25101C14.9369 8.73251 14.7122 9.75649 13.9213 11.0788C13.1059 12.442 11.6946 14.1121 9.22132 16.7685C6.74499 14.1118 5.33216 12.4417 4.51609 11.0784C3.72465 9.75627 3.5 8.73249 3.5 7.25101C3.5 4.57884 5.98737 1.99939 9.21843 1.99939C12.4495 1.99939 14.9369 4.57884 14.9369 7.25101ZM16.4369 7.25101C16.4369 10.6732 15.3237 12.4445 9.95051 18.1856C9.55754 18.6054 8.88616 18.6056 8.49296 18.186C3.11319 12.4446 2 10.6733 2 7.25101C2 3.67938 5.2318 0.49939 9.21843 0.49939C13.2051 0.49939 16.4369 3.67938 16.4369 7.25101ZM10.4255 7.71786C10.4255 8.38442 9.88515 8.92477 9.21859 8.92477C8.55203 8.92477 8.01168 8.38442 8.01168 7.71786C8.01168 7.0513 8.55203 6.51095 9.21859 6.51095C9.88515 6.51095 10.4255 7.0513 10.4255 7.71786ZM11.9255 7.71786C11.9255 9.21284 10.7136 10.4248 9.21859 10.4248C7.7236 10.4248 6.51168 9.21284 6.51168 7.71786C6.51168 6.22287 7.7236 5.01095 9.21859 5.01095C10.7136 5.01095 11.9255 6.22287 11.9255 7.71786Z" fill="currentColor"/>
</symbol><symbol id="icon-plus" viewBox="0 0 16 16">
<rect x="7.625" y="1.375" width="0.75" height="13.25" fill="currentColor" stroke="currentColor" stroke-width="0.75"/>
<rect x="14.625" y="7.625" width="0.75" height="13.25" transform="rotate(90 14.625 7.625)" fill="currentColor" stroke="currentColor" stroke-width="0.75"/>
</symbol><symbol id="icon-poll" viewBox="0 0 32 33">
<g clip-path="url(#clip0)">
<path d="M1.64258 21.0863L8.18803 26.5625L25.0001 4.5" stroke="#70BF56" stroke-width="2" stroke-miterlimit="10" stroke-linecap="square"/>
<path d="M32 13.5H27" stroke="#70BF56" stroke-width="2" stroke-miterlimit="10" stroke-linecap="square"/>
<path d="M32 20.5H22" stroke="#70BF56" stroke-width="2" stroke-miterlimit="10" stroke-linecap="square"/>
<path d="M32 27.5H16" stroke="#70BF56" stroke-width="2" stroke-miterlimit="10" stroke-linecap="square"/>
</g>

</symbol><symbol id="icon-privacy">
    <circle cx="8" cy="8" r="8" fill="currentColor"/>
    <g clip-path="url(#clip0)" fill="#fff">
        <path d="M2 8c.875-2.62 3.228-4.5 6-4.5.992 0 1.928.245 2.764.675L12.19 2.75l1.06 1.06-9.44 9.44-1.06-1.06 1.222-1.223A6.77 6.77 0 012 8zm6-3a3 3 0 00-3 3c0 .556.158 1.071.424 1.515L6.55 8.388A1.5 1.5 0 018 6.5c.134 0 .263.02.386.053l1.12-1.12A2.917 2.917 0 008 5zM8 11a3 3 0 003-3 2.97 2.97 0 00-.111-.767l1.676-1.677A6.84 6.84 0 0114 8c-.875 2.62-3.228 4.5-6 4.5a6.02 6.02 0 01-2.027-.352l1.26-1.26c.246.066.5.112.767.112z"/>
    </g>
    
</symbol><symbol id="icon-project" viewBox="0 0 58 58">
<circle cx="29" cy="29" r="29" fill="#2C8ECC"/>
<g clip-path="url(#clip0_991_2264)">
<path d="M37.4955 18.4556H15.9062V43.6431H37.4955V18.4556Z" stroke="white" stroke-width="2" stroke-miterlimit="10" stroke-linecap="square"/>
<path d="M20.4048 25.6524H32.099" stroke="white" stroke-width="2" stroke-miterlimit="10" stroke-linecap="square"/>
<path d="M20.4048 31.0494H32.099" stroke="white" stroke-width="2" stroke-miterlimit="10" stroke-linecap="square"/>
<path d="M20.4048 36.4471H24.9026" stroke="white" stroke-width="2" stroke-miterlimit="10" stroke-linecap="square"/>
<path d="M18.8125 14.8576H41.0938V40.7648" stroke="white" stroke-width="2" stroke-miterlimit="10" stroke-linecap="square"/>
</g>

</symbol><symbol id="icon-projects" viewBox="0 0 28 32">
<path d="M23.2857 4.85718H1V30.8572H23.2857V4.85718Z" stroke="#2C8ECC" stroke-width="2" stroke-miterlimit="10" stroke-linecap="square"/>
<path d="M5.64307 12.2858H17.7145" stroke="#2C8ECC" stroke-width="2" stroke-miterlimit="10" stroke-linecap="square"/>
<path d="M5.64307 17.8572H17.7145" stroke="#2C8ECC" stroke-width="2" stroke-miterlimit="10" stroke-linecap="square"/>
<path d="M5.64307 23.4286H10.2859" stroke="#2C8ECC" stroke-width="2" stroke-miterlimit="10" stroke-linecap="square"/>
<path d="M3.99951 1.14288H26.9995V27.8857" stroke="#2C8ECC" stroke-width="2" stroke-miterlimit="10" stroke-linecap="square"/>
</symbol><symbol id="icon-query" viewBox="0 0 58 58">
<circle cx="29" cy="29" r="29" fill="#70BF56"/>
<g clip-path="url(#clip0_991_571)">
<path d="M14.5894 33.943L20.9303 39.248L37.217 17.875" stroke="white" stroke-width="2" stroke-miterlimit="10" stroke-linecap="square"/>
<path d="M44 26.5938H39.1562" stroke="white" stroke-width="2" stroke-miterlimit="10" stroke-linecap="square"/>
<path d="M44 33.375H34.3125" stroke="white" stroke-width="2" stroke-miterlimit="10" stroke-linecap="square"/>
<path d="M44 40.1562H28.5" stroke="white" stroke-width="2" stroke-miterlimit="10" stroke-linecap="square"/>
</g>

</symbol><symbol id="icon-radio" viewBox="0 0 32 32">
<path d="M23.5 20.8002C26.2 18.1002 26.2 13.8002 23.5 11.2002" stroke="#49CCC4" stroke-width="2" stroke-miterlimit="10" stroke-linecap="square"/>
<path d="M27.3984 24.6998C32.1984 19.8998 32.1984 12.0998 27.3984 7.2998" stroke="#49CCC4" stroke-width="2" stroke-miterlimit="10" stroke-linecap="square"/>
<path d="M8.50156 20.8002C5.80156 18.1002 5.80156 13.8002 8.50156 11.2002" stroke="#49CCC4" stroke-width="2" stroke-miterlimit="10" stroke-linecap="square"/>
<path d="M4.6 24.6998C-0.2 19.8998 -0.2 12.0998 4.6 7.2998" stroke="#49CCC4" stroke-width="2" stroke-miterlimit="10" stroke-linecap="square"/>
<path d="M16 19C17.6569 19 19 17.6569 19 16C19 14.3431 17.6569 13 16 13C14.3431 13 13 14.3431 13 16C13 17.6569 14.3431 19 16 19Z" stroke="#49CCC4" stroke-width="2" stroke-miterlimit="10" stroke-linecap="square"/>
</symbol><symbol id="icon-rate" viewBox="0 0 58 58">
<circle cx="29" cy="29" r="29" fill="#60D2CC"/>
<mask id="path-2-inside-1_810_12370" fill="white">
<path fill-rule="evenodd" clip-rule="evenodd" d="M16 13.75C14.8954 13.75 14 14.6454 14 15.75V38.75C14 39.8546 14.8954 40.75 16 40.75H23.8904L27.5858 44.4454C28.3668 45.2265 29.6332 45.2265 30.4142 44.4454L34.1096 40.75H42C43.1046 40.75 44 39.8546 44 38.75V15.75C44 14.6454 43.1046 13.75 42 13.75H16Z"/>
</mask>
<path d="M23.8904 40.75L25.3046 39.3358L24.7188 38.75H23.8904V40.75ZM27.5858 44.4454L26.1716 45.8596H26.1716L27.5858 44.4454ZM30.4142 44.4454L29 43.0312H29L30.4142 44.4454ZM34.1096 40.75V38.75H33.2812L32.6954 39.3358L34.1096 40.75ZM16 15.75V15.75V11.75C13.7909 11.75 12 13.5409 12 15.75H16ZM16 38.75V15.75H12V38.75H16ZM16 38.75H16H12C12 40.9591 13.7909 42.75 16 42.75V38.75ZM23.8904 38.75H16V42.75H23.8904V38.75ZM29 43.0312L25.3046 39.3358L22.4762 42.1642L26.1716 45.8596L29 43.0312ZM29 43.0312H29L26.1716 45.8596C27.7337 47.4217 30.2663 47.4217 31.8284 45.8596L29 43.0312ZM32.6954 39.3358L29 43.0312L31.8284 45.8596L35.5238 42.1642L32.6954 39.3358ZM42 38.75H34.1096V42.75H42V38.75ZM42 38.75V42.75C44.2091 42.75 46 40.9591 46 38.75H42ZM42 15.75V38.75H46V15.75H42ZM42 15.75H46C46 13.5409 44.2091 11.75 42 11.75V15.75ZM16 15.75H42V11.75H16V15.75Z" fill="white" mask="url(#path-2-inside-1_810_12370)"/>
<path d="M32.8585 29.9823L33.8442 29.8132L32.8585 29.9823L33.5497 34.0122L29.9307 32.1095C29.348 31.8032 28.652 31.8032 28.0693 32.1095L24.4503 34.0122L25.1415 29.9823C25.2527 29.3335 25.0376 28.6715 24.5663 28.212L21.6384 25.3581L25.6846 24.7701C26.336 24.6755 26.8992 24.2663 27.1905 23.676L29 20.0096L30.8095 23.676C31.1008 24.2663 31.664 24.6755 32.3154 24.7701L36.3616 25.3581L33.4337 28.212C32.9624 28.6715 32.7473 29.3335 32.8585 29.9823Z" stroke="white" stroke-width="2"/>
</symbol><symbol id="icon-rating" viewBox="0 0 32 32">
<path d="M10.8904 27L12.3046 25.5858L11.7188 25H10.8904V27ZM14.5858 30.6954L13.1716 32.1096H13.1716L14.5858 30.6954ZM17.4142 30.6954L16 29.2812H16L17.4142 30.6954ZM21.1096 27V25H20.2812L19.6954 25.5858L21.1096 27ZM3 2V2V-2C0.790861 -2 -1 -0.209138 -1 2H3ZM3 25V2H-1V25H3ZM3 25H3H-1C-1 27.2091 0.790861 29 3 29V25ZM10.8904 25H3V29H10.8904V25ZM16 29.2812L12.3046 25.5858L9.47616 28.4142L13.1716 32.1096L16 29.2812ZM16 29.2812H16L13.1716 32.1096C14.7337 33.6717 17.2663 33.6717 18.8284 32.1096L16 29.2812ZM19.6954 25.5858L16 29.2812L18.8284 32.1096L22.5238 28.4142L19.6954 25.5858ZM29 25H21.1096V29H29V25ZM29 25V29C31.2091 29 33 27.2091 33 25H29ZM29 2V25H33V2H29ZM29 2H33C33 -0.209138 31.2091 -2 29 -2V2ZM3 2H29V-2H3V2Z" fill="#49CCC4"/>
<path d="M19.8585 16.2323L20.8442 16.0632L19.8585 16.2323L20.5497 20.2622L16.9307 18.3595C16.348 18.0532 15.652 18.0532 15.0693 18.3595L11.4503 20.2622L12.1415 16.2323C12.2527 15.5835 12.0376 14.9215 11.5663 14.462L8.6384 11.6081L12.6846 11.0201C13.336 10.9255 13.8992 10.5163 14.1905 9.92604L16 6.25955L17.8095 9.92604C18.1008 10.5163 18.664 10.9255 19.3154 11.0201L23.3616 11.6081L20.4337 14.462C19.9624 14.9215 19.7473 15.5835 19.8585 16.2323Z" stroke="#49CCC4" stroke-width="2"/>
</symbol><symbol id="icon-search" viewBox="0 0 22 24">
<path fill-rule="evenodd" clip-rule="evenodd" d="M16.5 11C16.5 14.5899 13.5899 17.5 10 17.5C6.41015 17.5 3.5 14.5899 3.5 11C3.5 7.41015 6.41015 4.5 10 4.5C13.5899 4.5 16.5 7.41015 16.5 11ZM15.1018 17.1624C13.717 18.3101 11.9391 19 10 19C5.58172 19 2 15.4183 2 11C2 6.58172 5.58172 3 10 3C14.4183 3 18 6.58172 18 11C18 12.9391 17.3101 14.717 16.1624 16.1018L19.9991 19.9384L18.9384 20.9991L15.1018 17.1624Z" fill="#0E4CD3"/>
</symbol><symbol id="icon-section" viewBox="0 0 32 28">
<rect y="1" width="32" height="9" rx="1" stroke="#586170" stroke-width="2"/>
<rect y="16" width="32" height="9" rx="1" stroke="#586170" stroke-width="2"/>
</symbol><symbol id="icon-show-all"><path fill-rule="evenodd" clip-rule="evenodd" d="M11.983 0L7 4.973 2.017 0 .5 1.514 7 8l6.5-6.486L11.983 0z" fill="#2C8ECC"/></symbol><symbol id="icon-sign-in" viewBox="0 0 18 19">
<path fill-rule="evenodd" clip-rule="evenodd" d="M13 17.5H6V18.5H13C14.6569 18.5 16 17.1569 16 15.5L16 3.5C16 1.84315 14.6569 0.5 13 0.5H6V1.5L13 1.5C14.1046 1.5 15 2.39543 15 3.5L15 15.5C15 16.6046 14.1046 17.5 13 17.5ZM7.46775 13.0389L8.17157 13.7427L8.87868 13.0356L11.7071 10.2072C12.0976 9.81664 12.0976 9.18347 11.7071 8.79295L8.87868 5.96452L8.17157 5.25742L7.46446 5.96452L7.46344 5.96555L8.17054 6.67266L8.17157 6.67163L10.5 9.00006L2 9.00006V10.0001L10.5066 10.0001L7.46775 13.0389Z" fill="currentColor"/>
</symbol><symbol id="icon-small-cross" viewBox="0 0 13 12">
<path d="M0.870117 0.75L11.3701 11.25M11.3701 0.75L0.870117 11.25" stroke="currentColor" stroke-width="2"/>
</symbol><symbol id="icon-star" viewBox="0 0 20 19">
<path d="M19.1298 6.47772L13.6222 5.95698C13.275 5.92542 12.9749 5.7045 12.8331 5.37312L10.8603 0.591753C10.5447 -0.197251 9.42405 -0.197251 9.10841 0.591753L7.15147 5.37312C7.02522 5.7045 6.70958 5.92542 6.36238 5.95698L0.85455 6.47772C0.0338988 6.55662 -0.297518 7.58233 0.31797 8.13463L4.46857 11.7798C4.73686 12.0165 4.84734 12.3637 4.76843 12.7109L3.52167 17.8234C3.33229 18.6284 4.20028 19.291 4.92624 18.8651L9.51874 16.1665C9.81859 15.993 10.1816 15.993 10.4814 16.1665L15.0741 18.8651C15.8 19.291 16.668 18.6442 16.4785 17.8234L15.2475 12.7109C15.1686 12.3637 15.2791 12.0165 15.5474 11.7798L19.698 8.13463C20.2977 7.58233 19.9505 6.55662 19.1298 6.47772Z" fill="currentColor"/>
</symbol><symbol id="icon-telegram" viewBox="0 0 32 32">
<rect width="32" height="32" rx="5" fill="currentColor"/>
<path fill-rule="evenodd" clip-rule="evenodd" d="M21.4675 22.6322L24 10.0812C24 9.2455 22.8319 9.75214 22.8373 9.75214L8.62418 15.2364C8.62418 15.2364 7.9499 15.4609 8.00298 15.8788C8.0561 16.2966 8.60298 16.4899 8.60298 16.4899L12.1761 17.6756L12.1822 17.6785C12.1815 17.6765 12.1813 17.6755 12.1813 17.6755L20.7665 12.3114C20.7665 12.3114 21.2603 12.0137 21.2443 12.3114C21.2443 12.3114 21.3346 12.3636 21.0691 12.6091C20.8036 12.8546 14.3263 18.5791 14.3263 18.5791L14.3125 18.6931L20.1401 23.0867C21.1118 23.5045 21.4675 22.6322 21.4675 22.6322Z" fill="white"/>
</symbol><symbol id="icon-tick" viewBox="0 0 19 13">
<path d="M1 5.5L7 11.5L17.5 1" stroke-width="2"/>
</symbol><symbol id="icon-trash" viewBox="0 0 16 16">
<path d="M7 7H5V13H7V7Z" fill="currentColor"/>
<path d="M11 7H9V13H11V7Z" fill="currentColor"/>
<path d="M12 1C12 0.4 11.6 0 11 0H5C4.4 0 4 0.4 4 1V3H0V5H1V15C1 15.6 1.4 16 2 16H14C14.6 16 15 15.6 15 15V5H16V3H12V1ZM6 2H10V3H6V2ZM13 5V14H3V5H13Z" fill="currentColor"/>
</symbol><symbol id="icon-triangle-arrow" viewBox="0 0 8 14">
<path fill-rule="evenodd" clip-rule="evenodd" d="M8 11.9833L3.02703 7L8 2.01667L6.48649 0.5L1.92713e-07 7L6.48649 13.5L8 11.9833Z"/>
</symbol><symbol id="icon-user" viewBox="0 0 14 16">
<path d="M6.99958 7.82505C8.7785 7.82505 10.2207 6.07337 10.2207 3.91255C10.2207 1.75168 9.74723 0 6.99958 0C4.25192 0 3.77832 1.75168 3.77832 3.91255C3.77832 6.07337 5.22056 7.82505 6.99958 7.82505Z" fill="#2C8ECC"/>
<path d="M0.91567 13.7992C0.915124 13.6674 0.914577 13.762 0.91567 13.7992V13.7992Z" fill="#2C8ECC"/>
<path d="M13.0835 13.9019C13.0852 13.8658 13.0841 13.6516 13.0835 13.9019V13.9019Z" fill="#2C8ECC"/>
<path d="M13.0768 13.641C13.0171 9.87679 12.5255 8.80419 8.76353 8.12524C8.76353 8.12524 8.23397 8.80003 6.99969 8.80003C5.7654 8.80003 5.23576 8.12524 5.23576 8.12524C1.51484 8.79679 0.993333 9.85348 0.924762 13.5187C0.919139 13.818 0.916533 13.8337 0.915527 13.799C0.915756 13.8641 0.91603 13.9845 0.91603 14.1945C0.91603 14.1945 1.81166 16 6.99969 16C12.1876 16 13.0833 14.1945 13.0833 14.1945C13.0833 14.0596 13.0834 13.9658 13.0836 13.9019C13.0826 13.9234 13.0806 13.8818 13.0768 13.641Z" fill="#2C8ECC"/>
</symbol><symbol id="icon-vk" viewBox="0 0 32 32">
<rect width="32" height="32" rx="5" fill="currentColor"/>
<path fill-rule="evenodd" clip-rule="evenodd" d="M23.9857 11.9221C24.1161 11.5149 23.9857 11.2189 23.4078 11.2189H21.4879C21.0033 11.2189 20.7796 11.478 20.6491 11.7555C20.6491 11.7555 19.6613 14.1242 18.2819 15.6601C17.8345 16.1043 17.6295 16.2523 17.3872 16.2523C17.2567 16.2523 17.0889 16.1043 17.0889 15.6972V11.9036C17.0889 11.4225 16.9398 11.2004 16.5297 11.2004H13.5101C13.2119 11.2004 13.0255 11.4225 13.0255 11.6445C13.0255 12.1071 13.7152 12.2181 13.7897 13.5135V16.3264C13.7897 16.937 13.6779 17.0481 13.4356 17.0481C12.7832 17.0481 11.1988 14.6609 10.2481 11.9406C10.0617 11.4039 9.87533 11.2004 9.39069 11.2004H7.4522C6.89301 11.2004 6.7998 11.4594 6.7998 11.737C6.7998 12.2367 7.4522 14.7534 9.83805 18.0844C11.4225 20.3605 13.6779 21.5819 15.7096 21.5819C16.9398 21.5819 17.0889 21.3043 17.0889 20.8417V19.1206C17.0889 18.5655 17.2008 18.4729 17.5922 18.4729C17.8718 18.4729 18.3751 18.621 19.5121 19.7129C20.8169 21.0082 21.0405 21.6004 21.7675 21.6004H23.6874C24.2466 21.6004 24.5076 21.3228 24.3585 20.7861C24.1907 20.2495 23.5569 19.4722 22.7368 18.547C22.2894 18.0289 21.6184 17.4552 21.4133 17.1776C21.1337 16.8075 21.2083 16.6594 21.4133 16.3264C21.3947 16.3264 23.7433 13.0324 23.9857 11.9221Z" fill="white"/>
</symbol><symbol id="icon-water-service"><path d="M14.001 29.09v1.309M8.648 25.164v1.31M19.354 25.164v1.31M24.037 19.927H3.964c-1.07 0-2.007-.916-2.007-1.963 0-1.048.937-1.964 2.007-1.964h20.073c1.07 0 2.007.916 2.007 1.964 0 1.047-.936 1.963-2.007 1.963zM14.001 1.6v3.927" stroke="#2C8ECC" stroke-width="2" stroke-miterlimit="10" stroke-linecap="square"/><path d="M4.633 16v-1.309c0-5.105 4.148-9.164 9.367-9.164 5.219 0 9.367 4.059 9.367 9.164v1.31" stroke="#2C8ECC" stroke-width="2" stroke-miterlimit="10" stroke-linecap="square"/></symbol><symbol id="icon-youtube" viewBox="0 0 24 24">
<g clip-path="url(#clip0)">
<path d="M23.5055 6.23876C23.2288 5.21063 22.4182 4.4002 21.3903 4.12335C19.5122 3.60938 11.9998 3.60938 11.9998 3.60938C11.9998 3.60938 4.48753 3.60938 2.60943 4.10376C1.60125 4.38043 0.770871 5.21081 0.4942 6.23876C0 8.11668 0 12.0113 0 12.0113C0 12.0113 0 15.9255 0.4942 17.7839C0.771054 18.8118 1.58148 19.6224 2.60961 19.8993C4.50731 20.4133 12 20.4133 12 20.4133C12 20.4133 19.5122 20.4133 21.3903 19.9189C22.4184 19.6422 23.2288 18.8316 23.5057 17.8037C23.9999 15.9255 23.9999 12.0311 23.9999 12.0311C23.9999 12.0311 24.0197 8.11668 23.5055 6.23876Z" fill="#FF0000"/>
<path d="M9.60742 15.6094L15.8544 12.0114L9.60742 8.41333V15.6094Z" fill="white"/>
</g>

</symbol><symbol id="icon-zoom">
  <path d="M15.52 13.28l-2.24-2.24C14 9.92 14.4 8.64 14.4 7.2c0-4-3.2-7.2-7.2-7.2S0 3.2 0 7.2s3.2 7.2 7.2 7.2c1.44 0 2.72-.4 3.84-1.12l2.24 2.24c.64.64 1.6.64 2.24 0 .64-.64.64-1.6 0-2.24zM7.2 12.8c-3.12 0-5.6-2.48-5.6-5.6 0-3.12 2.48-5.6 5.6-5.6 3.12 0 5.6 2.48 5.6 5.6 0 3.12-2.56 5.6-5.6 5.6z" fill="currentColor"/>
  <path d="M10.4 6.4H8V4c0-.48-.32-.8-.8-.8-.48 0-.8.4-.8.8v2.4H4c-.4 0-.8.32-.8.8 0 .48.32.8.8.8h2.4v2.4c0 .48.32.8.8.8.48 0 .8-.32.8-.8V8h2.4c.48 0 .8-.32.8-.8 0-.48-.4-.8-.8-.8z" fill="currentColor"/></symbol><symbol id="proposal-like" viewBox="0 0 20 20">
<g clip-path="url(#clip0)">
<path d="M1.45833 20H3.54167C4.34583 20 5 19.3458 5 18.5417V18.2367C6.26 18.8783 9.12167 20 13.7758 20H15.1092C17.0408 20 18.6808 18.6183 19.0083 16.715L19.9417 11.2983C20.14 10.1425 19.8208 8.9675 19.0675 8.0725C18.315 7.17917 17.2117 6.66667 16.0425 6.66667H12.2625C12.4983 6.03333 12.7342 5.11 12.7342 3.95833C12.7342 0.8275 10.9625 0 10.0258 0C8.29583 0 8.15083 1.61333 8.15083 3.125C8.15083 4.97 6.08167 6.50333 4.98917 7.185C4.93333 6.43167 4.30917 5.83333 3.54167 5.83333H1.45833C0.654167 5.83333 0 6.4875 0 7.29167V18.5417C0 19.3458 0.654167 20 1.45833 20ZM9.40084 3.125C9.40084 1.25 9.71833 1.25 10.0258 1.25C10.6125 1.25 11.4842 1.97167 11.4842 3.95833C11.4842 5.805 10.7608 6.93667 10.7558 6.945C10.6283 7.13667 10.6158 7.38333 10.725 7.58667C10.8333 7.79 11.0458 7.91667 11.2758 7.91667H16.0425C16.8425 7.91667 17.5967 8.26667 18.1117 8.8775C18.6275 9.48917 18.8458 10.2942 18.71 11.085L17.7767 16.5017C17.5525 17.8033 16.4308 18.7492 15.1092 18.7492H13.7758C8.10667 18.75 5.26667 16.9767 5 16.8008V8.62583C5.69417 8.2575 9.40084 6.14917 9.40084 3.125ZM1.25 7.29167C1.25 7.17667 1.34333 7.08333 1.45833 7.08333H3.54167C3.65667 7.08333 3.75 7.17667 3.75 7.29167V18.5417C3.75 18.655 3.655 18.75 3.54167 18.75H1.45833C1.34333 18.75 1.25 18.6567 1.25 18.5417V7.29167Z"/>
</g>

</symbol><symbol id="proposal-pin" viewBox="0 0 10 12">
<path d="M7.97129 1.23097C7.17753 0.437204 6.1221 0 4.99961 0C3.87691 0 2.8217 0.437204 2.02794 1.23097C0.558976 2.69971 0.376424 5.46319 1.63259 7.1375L4.99961 12L8.3616 7.14429C9.6228 5.46319 9.44025 2.69971 7.97129 1.23097ZM5.0384 5.6979C4.1927 5.6979 3.50435 5.00955 3.50435 4.16385C3.50435 3.31815 4.1927 2.6298 5.0384 2.6298C5.8841 2.6298 6.57245 3.31815 6.57245 4.16385C6.57245 5.00955 5.8841 5.6979 5.0384 5.6979Z" fill="#DCDEE0"/>
</symbol><symbol id="proposal-right-arrow" viewBox="0 0 16 16">
<path fill-rule="evenodd" clip-rule="evenodd" d="M4 12.9833L8.97297 8L4 3.01667L5.51351 1.5L12 8L5.51351 14.5L4 12.9833Z"/>
</symbol><symbol id="proposal-user" viewBox="0 0 10 12">
<path d="M4.99993 5.86879C6.33412 5.86879 7.4158 4.55503 7.4158 2.93441C7.4158 1.31376 7.06067 0 4.99993 0C2.93918 0 2.58398 1.31376 2.58398 2.93441C2.58398 4.55503 3.66566 5.86879 4.99993 5.86879Z" fill="#2C8ECC"/>
<path d="M9.5625 10.4267C9.56379 10.3996 9.56294 10.239 9.5625 10.4267V10.4267Z" fill="#2C8ECC"/>
<path d="M9.55647 10.2306C9.51173 7.40741 9.14302 6.60296 6.32155 6.09375C6.32155 6.09375 5.92438 6.59984 4.99867 6.59984C4.07295 6.59984 3.67572 6.09375 3.67572 6.09375C0.885032 6.59741 0.493901 7.38992 0.442473 10.1389C0.438255 10.3633 0.436301 10.3751 0.435547 10.3491C0.435718 10.3979 0.435924 10.4882 0.435924 10.6457C0.435924 10.6457 1.10765 11.9998 4.99867 11.9998C8.88962 11.9998 9.56141 10.6457 9.56141 10.6457C9.56141 10.5445 9.56148 10.4741 9.56158 10.4263C9.56083 10.4424 9.55932 10.4112 9.55647 10.2306Z" fill="#2C8ECC"/>
</symbol></svg>