<svg width="16" height="16" viewBox="0 0 16 16" fill="none" xmlns="http://www.w3.org/2000/svg">
<path d="M15 8C15 8.91925 14.8189 9.8295 14.4672 10.6788C14.1154 11.5281 13.5998 12.2997 12.9497 12.9497C12.2997 13.5998 11.5281 14.1154 10.6788 14.4672C9.8295 14.8189 8.91925 15 8 15C7.08075 15 6.17049 14.8189 5.32122 14.4672C4.47194 14.1154 3.70026 13.5998 3.05025 12.9497C2.40024 12.2997 1.88463 11.5281 1.53284 10.6788C1.18106 9.8295 1 8.91925 1 8C1 7.08075 1.18106 6.17049 1.53284 5.32122C1.88463 4.47194 2.40024 3.70026 3.05025 3.05025C3.70026 2.40024 4.47194 1.88463 5.32122 1.53284C6.1705 1.18106 7.08075 1 8 1C8.91925 1 9.82951 1.18106 10.6788 1.53284C11.5281 1.88463 12.2997 2.40024 12.9497 3.05025C13.5998 3.70026 14.1154 4.47194 14.4672 5.32122C14.8189 6.1705 15 7.08075 15 8L15 8Z" stroke="#E3E8EE" stroke-width="2"/>
<path d="M8 1C9.33114 1 10.6347 1.37955 11.7578 2.09414C12.8808 2.80872 13.7769 3.82872 14.3408 5.03451C14.9047 6.24029 15.1132 7.58188 14.9417 8.90192C14.7701 10.222 14.2258 11.4657 13.3725 12.4874C12.5191 13.509 11.3922 14.2662 10.1238 14.67C8.85539 15.0739 7.49814 15.1077 6.2112 14.7676C4.92425 14.4274 3.76098 13.7274 2.8578 12.7495C1.95462 11.7716 1.34898 10.5565 1.11191 9.24668" stroke="#2C8ECC" stroke-width="2"/>
</svg>
