<svg width="1366" height="400" viewBox="0 0 1366 400" fill="none" xmlns="http://www.w3.org/2000/svg">
<path d="M1366 0.578125H0V399.584H1366V0.578125Z" fill="none"/>
<g clip-path="url(#clip0)">
<path d="M688.666 279.942C688.666 279.942 670.645 267.605 682.398 256.003C694.151 244.401 698.877 254.458 710.606 239.783C722.335 225.108 723.93 226.653 732.546 234.378C741.163 242.104 744.317 223.569 756.841 224.339C769.365 225.108 765.457 233.609 777.21 233.609C788.963 233.609 784.272 224.339 797.585 222.024C810.898 219.71 801.505 230.519 819.525 230.519C837.546 230.519 853.219 217.389 857.138 232.064C861.058 246.739 850.076 276.852 850.076 276.852L688.666 279.942Z" fill="#9BD2F4"/>
<path d="M874.664 271.844H676.047C676.047 271.844 634.703 274.276 633.084 297.74C631.466 321.203 653.353 339.819 680.102 337.393C706.851 334.967 746.606 326.061 774.143 341.435C801.681 356.809 853.595 364.933 874.664 359.241C895.734 353.548 929.792 347.104 954.116 354.383C978.44 361.661 1063.58 370.144 1081.39 361.05C1099.2 351.956 1143.81 328.493 1188.4 332.535C1232.99 336.577 1325.4 284.792 1248.39 271.844C1171.37 258.897 874.664 271.844 874.664 271.844Z" fill="#2C8ECC"/>
<path d="M863.548 69.9235C863.548 69.9235 858.298 70.2759 857.25 66.2577C856.203 62.2395 860.576 59.7956 865.49 60.6768C870.404 61.558 875.459 61.1997 876.86 57.7102C878.261 54.2206 880.356 42.5243 889.973 46.19C899.589 49.8558 905.863 50.5549 912.001 46.8891C918.14 43.2234 923.183 33.448 934.207 38.8585C945.23 44.269 942.075 55.6129 954.317 57.7102C966.558 59.8074 966.205 51.7768 974.597 54.9138C982.99 58.0509 985.262 70.9868 970.925 69.9352C956.588 68.8837 914.273 68.0083 896.264 68.1728C878.255 68.3373 863.548 69.9235 863.548 69.9235Z" fill="#9BD2F4"/>
<path d="M902.114 208.284C902.114 208.284 899.86 212.883 897.606 211.515C895.352 210.146 894.369 210.827 893.975 212.59C893.58 214.352 890.055 215.033 888.678 213.371C887.301 211.708 886.618 213.077 883.97 213.277C881.321 213.477 880.639 209.458 879.067 207.89C877.496 206.321 869.062 208.677 867.597 204.465C866.131 200.253 864.166 202.509 862.4 200.846C860.635 199.184 855.338 202.115 855.144 198.103C854.949 194.09 846.71 191.84 848.275 187.435C849.841 183.029 844.744 183.522 845.921 181.56C847.098 179.598 841.507 172.948 846.998 169.811C848.764 168.442 844.544 165.605 846.804 163.255C849.064 160.905 843.467 156.499 846.804 152.78C850.141 149.062 846.804 148.18 847.981 145.93C849.158 143.68 852.689 143.481 852.889 139.081C853.09 134.681 852.789 131.344 858.675 130.369C862.3 129.094 860.44 123.807 863.283 123.219C866.126 122.632 869.168 122.438 870.934 120.775C872.699 119.113 874.071 114.607 876.819 115.882C879.568 117.157 879.367 112.845 881.916 114.413C884.464 115.982 884.27 109.42 887.313 112.063C890.355 114.707 897.706 107.464 900.643 110.888C903.58 114.313 906.234 110.107 909.371 112.163C912.508 114.219 914.567 116.275 917.41 114.901C920.253 113.526 922.318 115.782 922.901 117.544C923.484 119.307 928.492 115.195 930.158 118.525C931.823 121.856 934.866 119.307 936.732 122.926C938.597 126.544 944.082 124.688 944.971 128.9C945.86 133.112 954.093 132.325 953.699 141.624C953.305 150.924 956.053 151.999 955.364 153.562C954.676 155.124 962.427 160.124 957.624 166.486C952.822 172.848 958.601 171.673 956.936 175.486C955.27 179.298 958.501 182.048 955.659 186.547C952.816 191.047 956.936 197.997 948.596 198.884C942.317 200.059 946.666 209.129 937.026 205.834C933.495 205.053 930.452 212.783 928.104 210.534C925.755 208.284 922.613 214.352 919.964 211.609C917.316 208.865 913.002 215.233 908.688 211.315C904.374 207.396 904.592 205.188 902.114 208.284Z" fill="#9BD2F4"/>
<path d="M900.444 268.792C900.444 268.792 899.008 268.528 897.178 270.355C895.347 272.182 891.557 273.357 889.203 273.098C886.849 272.84 893.387 270.355 895.477 264.351C897.566 258.347 900.05 255.851 899.267 248.413C898.484 240.976 902.404 222.183 901.227 218.071C900.05 213.959 901.032 201.234 898.09 198.885C895.147 196.535 884.624 191.318 878.874 205.934C876.909 210.892 876.391 207.238 878.35 202.674C880.31 198.109 883.971 195.231 882.141 194.056C880.31 192.881 862.66 195.101 857.299 189.491C855.992 187.923 858.346 188.839 858.346 188.839C858.346 188.839 863.578 191.447 868.416 191.189C873.254 190.93 887.373 189.75 891.687 192.099C896 194.449 899.791 196.541 899.137 194.578C898.484 192.616 887.632 175.269 876.909 172.002C866.186 168.736 857.428 165.088 855.339 162.086C853.25 159.084 857.428 162.086 857.428 162.086C862.808 164.586 868.472 166.427 874.295 167.567C876.391 167.696 875.473 165.476 875.473 165.476C875.473 165.476 871.159 146.424 875.214 137.548C877.303 135.198 875.737 140.55 875.737 140.55C875.737 140.55 874.56 160.388 881.093 169.394C884.365 172.132 887.108 175.269 888.026 171.35C888.944 167.432 890.51 165.611 894.3 162.48C898.09 159.348 897.048 151.776 894.559 146.818C892.069 141.86 902.539 132.46 900.444 123.319C900.05 120.84 901.45 122.926 901.45 122.926C901.45 122.926 904.299 126.909 900.968 135.521C900.444 136.96 905.282 136.89 908.289 132.519C909.86 130.04 909.007 133.759 909.007 133.759C909.007 133.759 907.241 138.458 900.709 138.652C899.569 138.994 898.564 139.679 897.831 140.614C897.831 140.614 894.464 143.481 897.601 148.574C899.461 152.099 899.461 156.405 899.461 156.405C899.461 156.405 902.015 158.362 905.152 155.818C908.289 153.274 905.935 156.405 905.935 156.405C905.935 156.405 903.781 160.805 899.461 159.83C897.896 164.23 893.776 167.267 893.093 169.817C892.41 172.367 891.328 175.692 894.464 179.898C897.601 184.104 903.71 190.666 905.805 191.189C907.901 191.712 913.127 185.579 914.433 183.881C915.74 182.183 911.82 173.048 907.895 169C903.969 164.953 909.207 168.613 909.207 168.613C909.207 168.613 916.393 174.487 916.917 180.614C917.046 182.183 922.278 177.483 921.884 175.004C921.49 172.525 919.142 163.649 920.319 158.432C921.496 153.215 913.386 149.168 912.997 144.727C912.609 140.285 914.039 143.945 914.039 143.945C914.792 146.422 916.272 148.616 918.288 150.243C920.642 152.005 920.842 152.787 921.431 150.143C922.019 147.499 923.785 139.281 929.176 132.919C930.447 131.844 930.059 133.8 930.059 133.8C930.059 133.8 924.468 139.281 923.391 154.743C922.996 161.892 924.073 173.442 925.451 173.929C926.828 174.417 932.313 171.679 935.55 166.98C938.787 162.28 942.412 159.636 945.355 153.768C948.297 147.899 946.532 144.568 947.02 143.487C947.509 142.406 947.709 143.98 947.709 143.98C948.351 146.995 948.23 150.122 947.356 153.078C946.483 156.035 944.885 158.727 942.706 160.911C940.158 164.142 947.903 160.324 947.903 160.324C947.903 160.324 950.451 159.93 948.686 161.598C946.92 163.267 943.001 163.555 938.587 167.861C934.173 172.167 934.761 174.123 927.605 177.942C922.802 181.854 921.037 184.697 921.525 185.285C922.014 185.872 931.53 184.498 934.761 185.673C937.992 186.847 945.749 191.641 950.551 187.535C952.117 186.16 952.117 187.535 951.534 188.316C950.952 189.097 946.92 194.191 935.255 188.51C930.842 187.241 919.665 188.904 916.623 191.641C913.58 194.379 912.997 204.107 912.997 204.107C912.997 204.107 915.869 200.453 919.012 198.885C922.155 197.316 928.028 200.453 929.205 202.28C930.382 204.107 927.375 202.539 927.375 202.539C927.375 202.539 922.996 200.189 921.331 200.189C919.665 200.189 914.268 206.257 912.997 210.563C911.726 214.869 914.563 223.059 913.65 227.6C912.738 232.141 913.521 249.477 914.563 251.174C915.604 252.872 916.658 265.397 917.835 266.83C919.012 268.264 922.278 270.097 923.72 271.271C925.162 272.446 922.808 273.486 920.189 272.053C917.669 270.75 915.045 269.66 912.344 268.792C911.037 268.399 908.16 274.79 906.718 274.79C905.276 274.79 904.24 269.961 900.444 268.792Z" fill="#116CA6"/>
<path d="M1206.68 220.407C1206.68 220.407 1204.87 224.084 1203.07 222.986C1201.27 221.887 1200.49 222.439 1200.17 223.849C1199.86 225.259 1197.04 225.8 1195.94 224.472C1194.85 223.144 1194.29 224.237 1192.18 224.395C1190.07 224.554 1189.52 221.347 1188.26 220.095C1187.01 218.844 1180.27 220.718 1179.1 217.358C1177.93 213.997 1176.36 215.789 1174.94 214.461C1173.53 213.134 1169.3 215.478 1169.15 212.27C1168.99 209.063 1162.41 207.265 1163.66 203.746C1164.91 200.227 1160.84 200.621 1161.78 199.047C1162.71 197.472 1158.25 192.167 1162.64 189.647C1164.06 188.554 1160.68 186.281 1162.48 184.407C1164.29 182.533 1159.82 179.008 1162.48 176.042C1165.14 173.075 1162.48 172.364 1163.43 170.566C1164.37 168.769 1167.19 168.61 1167.35 165.091C1167.5 161.572 1167.26 158.911 1171.97 158.13C1174.87 157.114 1173.38 152.89 1175.65 152.42C1177.92 151.95 1180.36 151.797 1181.76 150.464C1183.16 149.13 1184.27 145.541 1186.47 146.557C1188.67 147.573 1188.5 144.131 1190.54 145.382C1192.58 146.633 1192.42 141.393 1194.85 143.502C1197.27 145.611 1203.16 139.83 1205.51 142.568C1207.85 145.306 1209.97 141.939 1212.48 143.584C1214.99 145.229 1216.6 146.868 1218.9 145.776C1221.2 144.683 1222.82 146.475 1223.29 147.885C1223.76 149.295 1227.76 146.005 1229.09 148.666C1230.42 151.327 1232.85 149.294 1234.34 152.191C1235.83 155.087 1240.22 153.601 1240.92 156.961C1241.61 160.321 1248.2 159.698 1247.89 167.13C1247.58 174.561 1249.77 175.419 1249.22 176.67C1248.67 177.921 1254.87 181.91 1251.03 186.992C1247.19 192.073 1251.81 191.139 1250.48 194.188C1249.14 197.237 1251.73 199.428 1249.46 203C1247.19 206.572 1250.48 212.153 1243.82 212.858C1238.8 213.798 1242.28 221.041 1234.57 218.409C1231.75 217.781 1229.32 223.961 1227.44 222.163C1225.56 220.365 1223.06 225.212 1220.94 223.021C1218.82 220.83 1215.38 225.917 1211.93 222.792C1208.49 219.666 1208.65 217.933 1206.68 220.407Z" fill="#9BD2F4"/>
<path d="M1205.34 268.745C1205.34 268.745 1204.16 268.533 1202.73 269.996C1201.3 271.459 1198.24 272.393 1196.36 272.181C1194.48 271.97 1199.7 269.996 1201.37 265.196C1203.05 260.397 1205.03 258.405 1204.41 252.46C1203.78 246.515 1206.91 231.5 1205.97 228.216C1205.03 224.932 1205.81 214.763 1203.46 212.889C1201.12 211.015 1192.7 206.838 1188.1 218.517C1186.54 222.482 1186.12 219.562 1187.69 215.914C1189.25 212.266 1192.18 209.969 1190.72 209.029C1189.25 208.089 1175.15 209.863 1170.87 205.381C1169.82 204.13 1171.71 204.858 1171.71 204.858C1171.71 204.858 1175.89 206.944 1179.75 206.738C1183.61 206.532 1194.9 205.563 1198.34 207.467C1201.79 209.37 1204.82 210.991 1204.3 209.446C1203.78 207.901 1195.11 194.014 1186.54 191.405C1177.97 188.797 1170.97 185.877 1169.3 183.481C1167.63 181.084 1170.97 183.481 1170.97 183.481C1175.27 185.479 1179.8 186.951 1184.45 187.863C1186.12 187.969 1185.39 186.195 1185.39 186.195C1185.39 186.195 1181.94 170.968 1185.18 163.871C1186.85 161.997 1185.6 166.268 1185.6 166.268C1185.6 166.268 1184.66 182.129 1189.88 189.314C1192.49 191.505 1194.69 194.014 1195.42 190.882C1196.15 187.751 1197.4 186.289 1200.43 183.786C1203.46 181.283 1202.63 175.238 1200.64 171.273C1198.65 167.308 1207.01 159.806 1205.35 152.504C1205.04 150.524 1206.15 152.192 1206.15 152.192C1206.15 152.192 1208.43 155.376 1205.77 162.256C1205.35 163.43 1209.21 163.348 1211.62 159.859C1212.87 157.879 1212.2 160.846 1212.2 160.846C1212.2 160.846 1210.79 164.6 1205.57 164.758C1204.66 165.029 1203.86 165.575 1203.27 166.321C1203.27 166.321 1200.58 168.618 1203.09 172.683C1204.02 174.639 1204.53 176.772 1204.58 178.939C1204.58 178.939 1206.61 180.502 1209.12 178.469C1211.63 176.437 1209.75 178.939 1209.75 178.939C1209.75 178.939 1208.03 182.464 1204.58 181.677C1203.32 185.202 1200.03 187.622 1199.49 189.655C1198.94 191.687 1198.07 194.354 1200.58 197.709C1203.09 201.063 1207.97 206.315 1209.64 206.732C1211.32 207.149 1215.49 202.244 1216.54 200.893C1217.59 199.542 1214.45 192.234 1211.32 189.003C1208.18 185.772 1212.36 188.691 1212.36 188.691C1212.36 188.691 1218.11 193.391 1218.52 198.285C1218.63 199.536 1222.81 195.782 1222.49 193.802C1222.17 191.822 1220.3 184.726 1221.24 180.555C1222.17 176.384 1215.71 173.153 1215.39 169.605C1215.07 166.056 1216.22 168.982 1216.22 168.982C1216.83 170.96 1218.01 172.711 1219.62 174.011C1221.5 175.421 1221.66 176.049 1222.13 173.934C1222.6 171.819 1224.01 165.252 1228.32 160.17C1229.34 159.312 1229.02 160.875 1229.02 160.875C1229.02 160.875 1224.56 165.252 1223.69 177.612C1223.38 183.322 1224.25 192.551 1225.34 192.939C1226.43 193.326 1230.82 191.141 1233.41 187.387C1235.99 183.633 1238.89 181.513 1241.24 176.813C1243.59 172.113 1242.18 169.458 1242.58 168.588C1242.97 167.719 1243.13 168.976 1243.13 168.976C1243.64 171.382 1243.54 173.878 1242.84 176.237C1242.14 178.596 1240.87 180.744 1239.13 182.488C1237.09 185.073 1243.28 182.024 1243.28 182.024C1243.28 182.024 1245.32 181.706 1243.91 183.04C1242.5 184.373 1239.36 184.603 1235.84 188.045C1232.31 191.488 1232.78 193.05 1227.06 196.099C1223.23 199.224 1221.81 201.492 1222.2 201.974C1222.59 202.455 1230.2 201.351 1232.8 202.291C1235.4 203.231 1241.57 207.061 1245.41 203.777C1246.66 202.679 1246.66 203.777 1246.19 204.4C1245.72 205.023 1242.51 209.1 1233.18 204.559C1229.65 203.542 1220.73 204.87 1218.3 207.061C1215.87 209.252 1215.4 217.048 1215.4 217.048C1215.4 217.048 1217.7 214.111 1220.21 212.877C1222.72 211.643 1227.42 214.128 1228.35 215.585C1229.29 217.042 1226.89 215.797 1226.89 215.797C1226.89 215.797 1223.39 213.893 1222.06 213.893C1220.73 213.893 1216.42 218.74 1215.4 222.182C1214.38 225.625 1216.65 232.169 1215.92 235.817C1215.19 239.465 1215.82 253.3 1216.65 254.651C1217.49 256.003 1218.32 266.019 1219.27 267.164C1220.21 268.31 1222.8 269.773 1223.97 270.689C1225.15 271.606 1223.24 272.451 1221.16 271.312C1219.14 270.272 1217.05 269.402 1214.89 268.709C1213.84 268.392 1211.54 273.503 1210.39 273.503C1209.24 273.503 1208.37 269.69 1205.34 268.745Z" fill="#116CA6"/>
<path d="M787.75 214.769C787.75 214.769 785.949 218.446 784.148 217.348C782.347 216.249 781.558 216.801 781.246 218.211C780.934 219.621 778.115 220.167 777.015 218.834C775.914 217.5 775.373 218.599 773.254 218.758C771.135 218.916 770.594 215.709 769.34 214.457C768.087 213.206 761.348 215.08 760.171 211.72C758.994 208.36 757.428 210.157 756.016 208.824C754.603 207.49 750.378 209.84 750.219 206.638C750.06 203.437 743.48 201.633 744.734 198.108C745.987 194.584 741.915 194.983 742.856 193.409C743.798 191.834 739.325 186.524 743.716 184.009C745.128 182.917 741.756 180.649 743.563 178.769C745.369 176.889 740.897 173.376 743.563 170.404C746.229 167.431 743.563 166.726 744.498 164.929C745.434 163.131 748.259 162.972 748.418 159.453C748.577 155.935 748.342 153.273 753.038 152.492C755.94 151.476 754.451 147.252 756.722 146.782C758.994 146.312 761.43 146.159 762.837 144.831C764.244 143.504 765.344 139.903 767.545 140.919C769.746 141.935 769.582 138.493 771.624 139.744C773.666 140.995 773.501 135.755 775.932 137.87C778.362 139.985 784.236 134.193 786.584 136.93C788.933 139.668 791.051 136.302 793.558 137.946C796.066 139.591 797.713 141.23 799.985 140.138C802.257 139.045 803.899 140.843 804.37 142.247C804.84 143.651 808.837 140.373 810.167 143.028C811.497 145.683 813.927 143.657 815.416 146.553C816.905 149.449 821.302 147.963 822.002 151.323C822.702 154.683 829.288 154.061 828.97 161.492C828.652 168.923 830.854 169.781 830.306 171.032C829.759 172.284 835.944 176.272 832.107 181.36C828.27 186.447 832.89 185.472 831.56 188.55C830.23 191.629 832.813 193.79 830.542 197.362C828.27 200.934 831.56 206.509 824.898 207.214C819.883 208.154 823.356 215.397 815.652 212.765C812.833 212.143 810.402 218.317 808.525 216.519C806.647 214.722 804.134 219.568 802.051 217.383C799.967 215.198 796.489 220.273 793.04 217.148C789.592 214.023 789.727 212.296 787.75 214.769Z" fill="#9BD2F4"/>
<path d="M786.42 263.116C786.42 263.116 785.243 262.905 783.807 264.367C782.371 265.83 779.316 266.764 777.433 266.559C775.55 266.353 780.776 264.367 782.447 259.568C784.119 254.768 786.102 252.777 785.478 246.832C784.854 240.887 787.985 225.871 787.044 222.587C786.102 219.303 786.891 209.14 784.536 207.26C782.182 205.381 773.778 201.216 769.182 212.894C767.616 216.854 767.198 213.934 768.764 210.286C770.329 206.638 773.254 204.341 771.795 203.401C770.335 202.461 756.228 204.235 751.944 199.753C750.902 198.501 752.779 199.23 752.779 199.23C752.779 199.23 756.958 201.315 760.825 201.11C764.691 200.904 775.973 199.964 779.416 201.838C782.859 203.712 785.89 205.363 785.372 203.818C784.854 202.273 776.179 188.385 767.616 185.777C759.053 183.169 752.05 180.255 750.378 177.852C748.707 175.449 752.05 177.852 752.05 177.852C756.348 179.852 760.873 181.324 765.527 182.235C767.198 182.34 766.463 180.566 766.463 180.566C766.463 180.566 763.02 165.339 766.257 158.243C767.928 156.369 766.675 160.645 766.675 160.645C766.675 160.645 765.733 176.507 770.959 183.686C773.566 185.877 775.761 188.385 776.491 185.254C777.221 182.123 778.48 180.666 781.506 178.164C784.531 175.661 783.701 169.61 781.717 165.651C779.734 161.691 788.091 154.178 786.426 146.852C786.108 144.866 787.226 146.535 787.226 146.535C787.226 146.535 789.504 149.719 786.843 156.598C786.426 157.773 790.286 157.696 792.694 154.201C793.947 152.221 793.282 155.194 793.282 155.194C793.282 155.194 791.875 158.948 786.649 159.1C785.74 159.374 784.938 159.922 784.354 160.669C784.354 160.669 781.664 162.96 784.172 167.025C785.107 168.982 785.615 171.114 785.661 173.282C785.661 173.282 787.697 174.85 790.204 172.812C792.711 170.773 790.828 173.282 790.828 173.282C790.828 173.282 789.103 176.807 785.661 176.019C784.407 179.544 781.111 181.964 780.564 183.997C780.017 186.03 779.157 188.697 781.664 192.051C784.172 195.405 789.05 200.657 790.722 201.075C792.393 201.492 796.572 196.592 797.62 195.235C798.667 193.878 795.53 186.576 792.393 183.345C789.256 180.114 793.441 183.034 793.441 183.034C793.441 183.034 799.185 187.733 799.603 192.627C799.709 193.878 803.887 190.124 803.575 188.145C803.264 186.165 801.38 179.068 802.322 174.897C803.264 170.726 796.784 167.495 796.472 163.953C796.16 160.41 797.308 163.324 797.308 163.324C797.908 165.305 799.091 167.059 800.703 168.359C802.581 169.763 802.74 170.391 803.211 168.277C803.681 166.162 805.088 159.6 809.396 154.512C810.414 153.655 810.102 155.217 810.102 155.217C810.102 155.217 805.635 159.6 804.805 171.954C804.494 177.664 805.353 186.893 806.447 187.281C807.542 187.669 811.933 185.483 814.522 181.729C817.112 177.976 820.001 175.855 822.355 171.155C824.71 166.455 823.297 163.806 823.685 162.931C824.074 162.055 824.233 163.324 824.233 163.324C824.743 165.731 824.645 168.226 823.947 170.585C823.25 172.944 821.974 175.092 820.237 176.836C818.2 179.415 824.392 176.366 824.392 176.366C824.392 176.366 826.428 176.055 825.016 177.382C823.603 178.71 820.472 178.945 816.947 182.387C813.422 185.83 813.892 187.393 808.172 190.441C804.335 193.573 802.922 195.84 803.316 196.316C803.711 196.792 811.309 195.687 813.91 196.627C816.511 197.567 822.685 201.398 826.522 198.114C827.776 197.015 827.776 198.114 827.311 198.736C826.846 199.359 823.627 203.436 814.304 198.895C810.773 197.879 801.845 199.206 799.414 201.398C796.984 203.589 796.519 211.384 796.519 211.384C796.519 211.384 798.814 208.447 801.321 207.213C803.828 205.98 808.531 208.465 809.473 209.928C810.414 211.39 808.007 210.133 808.007 210.133C808.007 210.133 804.511 208.23 803.175 208.23C801.839 208.23 797.537 213.076 796.519 216.519C795.501 219.961 797.773 226.506 797.037 230.154C796.301 233.802 796.937 247.637 797.773 248.994C798.608 250.351 799.444 260.355 800.38 261.507C801.315 262.658 803.911 264.109 805.088 265.031C806.265 265.954 804.358 266.794 802.269 265.66C800.257 264.616 798.16 263.744 796.001 263.052C794.953 262.74 792.658 267.845 791.511 267.845C790.363 267.845 789.445 264.044 786.42 263.116Z" fill="#116CA6"/>
<g style="mix-blend-mode:overlay" opacity="0.3">
<path d="M818.153 305.267C818.153 305.267 896.168 302.382 923.394 303.34C950.619 304.298 983.094 303.34 980.816 310.072C978.539 316.805 913.836 314.872 899.011 316.799C884.186 318.726 836.491 331.691 815.575 323.043C794.658 314.396 751.425 314.872 746.57 304.303C741.714 293.735 818.153 305.267 818.153 305.267Z" fill="black"/>
</g>
<g style="mix-blend-mode:overlay" opacity="0.3">
<path d="M1098.01 302.72C1098.01 302.72 1122.23 301.446 1130.68 301.869C1139.13 302.292 1149.21 301.869 1148.51 304.843C1147.8 307.817 1127.71 306.963 1123.11 307.814C1118.51 308.665 1103.7 314.393 1097.21 310.573C1090.72 306.753 1077.29 306.963 1075.79 302.294C1074.28 297.626 1098.01 302.72 1098.01 302.72Z" fill="black"/>
</g>
<path d="M1091.71 107.781C1087.13 101.807 1047.66 73.1563 1034.52 68.8209C1033.11 68.3566 1031.59 68.3566 1030.18 68.8209C1017.04 73.1563 977.569 101.807 972.99 107.781C968.088 114.179 955.27 167.978 955.27 176.632C955.27 185.285 956.405 266.554 959.042 270.32C961.349 273.61 1103.35 273.61 1105.66 270.32C1108.3 266.554 1109.43 185.291 1109.43 176.632C1109.43 167.972 1096.61 114.185 1091.71 107.781Z" fill="#116CA6"/>
<path d="M1109.68 194.226C1109.54 191.899 1109.39 189.614 1109.24 187.37C1075.86 187.622 1004.58 186.941 954.941 186.336C955.106 188.574 955.265 190.865 955.436 193.209C990.695 193.638 1072.62 194.543 1109.68 194.226Z" fill="#2C8ECC"/>
<path d="M957.266 254.14C957.76 263.046 958.349 269.338 959.031 270.325C961.338 273.615 1103.34 273.615 1105.65 270.325C1106.41 269.232 1107.05 261.66 1107.56 251.238C1070.46 256.026 980.86 254.61 957.266 254.14Z" fill="#116CA6"/>
<path d="M1113.57 153.689C1110.18 146.54 1099.62 106.657 1093.22 101.769C1087.5 97.3988 1050.84 72.6491 1035.54 64.9827C1034.55 64.483 1033.46 64.2227 1032.35 64.2227C1031.24 64.2227 1030.15 64.483 1029.16 64.9827C1013.86 72.6491 977.199 97.3988 971.484 101.769C965.081 106.657 954.523 146.54 951.133 153.689C947.743 160.839 945.836 196.574 945.836 200.686C945.836 204.798 952.622 206.332 955.252 205.204C957.883 204.076 958.272 177.74 958.272 177.74C958.784 164.534 973.726 114.529 977.105 109.636C979.676 105.935 1012.73 85.3969 1028.61 75.651C1029.73 74.9647 1031.01 74.6013 1032.32 74.6013C1033.63 74.6013 1034.91 74.9647 1036.03 75.651C1051.92 85.3969 1084.96 105.935 1087.54 109.636C1090.93 114.529 1105.87 164.534 1106.37 177.74C1106.37 177.74 1106.75 204.076 1109.39 205.204C1112.03 206.332 1118.81 204.828 1118.81 200.686C1118.81 196.545 1116.96 160.839 1113.57 153.689Z" fill="#9BD2F4"/>
<path d="M1002.63 272.949L1000.15 271.897C1000.15 271.897 997.109 223.808 1000.29 211.694C1016.69 210.008 1039.69 209.797 1039.69 209.797L1065.28 210.854C1065.28 210.854 1067.36 254.033 1065.14 271.68C1051.01 274.276 1034.41 273.748 1034.41 273.748L1029.31 273.795L1002.63 272.949Z" fill="#9BD2F4"/>
<path d="M1076.13 203.147C1072.19 203.299 993.142 203.299 989.205 203.147C985.085 202.988 983.455 204.745 983.773 207.136C984.091 209.526 985.056 210.801 988.57 210.484C991.512 210.22 1073.81 210.22 1076.76 210.484C1080.29 210.801 1081.23 209.526 1081.56 207.136C1081.88 204.745 1080.28 202.988 1076.13 203.147Z" fill="white"/>
<path d="M977.922 147.139V173.269C977.922 175.032 988.698 175.466 993.541 175.466C998.385 175.466 997.938 167.119 998.161 159.217C998.385 151.316 999.697 143.186 994.63 142.528C989.563 141.87 977.922 139.214 977.922 147.139Z" fill="white"/>
<path d="M982.979 149.205C982.979 149.205 981.114 169.514 982.65 170.066C984.186 170.618 992.772 172.592 993.543 170.395C994.314 168.198 994.532 149.094 993.543 148.212C992.554 147.331 983.532 146.239 982.979 149.205Z" fill="#2C8ECC"/>
<path d="M1067.19 147.139V173.269C1067.19 175.032 1077.97 175.466 1082.81 175.466C1087.65 175.466 1087.21 167.119 1087.43 159.217C1087.65 151.316 1088.97 143.186 1083.9 142.528C1078.83 141.87 1067.19 139.214 1067.19 147.139Z" fill="white"/>
<path d="M1072.25 149.205C1072.25 149.205 1070.38 169.514 1071.92 170.066C1073.45 170.618 1082.04 172.592 1082.81 170.395C1083.58 168.198 1083.8 149.094 1082.81 148.212C1081.82 147.331 1072.8 146.239 1072.25 149.205Z" fill="#2C8ECC"/>
<path d="M1022.55 117.673V143.809C1022.55 145.572 1033.33 146.006 1038.17 146.006C1043.02 146.006 1042.57 137.658 1042.79 129.751C1043.02 121.844 1044.33 113.725 1039.26 113.061C1034.2 112.398 1022.55 109.772 1022.55 117.673Z" fill="white"/>
<path d="M1027.61 119.764C1027.61 119.764 1025.75 140.072 1027.28 140.625C1028.82 141.177 1037.41 143.151 1038.18 140.954C1038.95 138.756 1039.16 119.652 1038.18 118.771C1037.19 117.89 1028.15 116.797 1027.61 119.764Z" fill="#2C8ECC"/>
<path d="M921.746 266.228C921.746 266.228 941.709 261.328 948.23 263.713C954.751 266.098 953.98 270.886 953.98 270.886L925.142 272.795L921.746 266.228Z" fill="#21252B"/>
<path d="M860.127 281.081L874.746 279.424L924.606 257.506L930.639 247.114C930.639 247.114 911.623 233.943 911.105 233.943C910.587 233.943 886.134 231.487 885.746 231.593C885.357 231.699 867.113 242.444 866.212 243.736C865.312 245.028 856.637 265.043 856.637 265.043L860.127 281.081Z" fill="#21252B"/>
<path d="M771.059 264.968L773.895 263.053C773.895 263.053 773.654 256.72 776.167 252.661C778.68 248.602 796.053 241.828 796.053 241.828C796.053 241.828 835.185 251.039 836.862 265.591C838.539 280.142 832.86 283.015 832.86 283.015H812.203L771.059 264.968Z" fill="#21252B"/>
<path d="M829.918 230.792C829.918 230.792 831.236 204.021 832.072 201.154C832.908 198.288 836.38 192.789 838.546 192.671C840.712 192.554 841.383 195.421 841.383 195.421C841.383 195.421 836.627 201.754 836.386 202.946C836.145 204.139 835.309 231.144 835.309 231.144L829.918 230.792Z" fill="#2E2B47"/>
<path d="M846.449 200.962C846.502 200.604 846.602 193.549 849.357 192.239C852.111 190.929 874.822 191.152 879.048 192.708C883.274 194.265 881.802 197.496 881.508 197.855C881.214 198.213 846.449 200.962 846.449 200.962Z" fill="#FCA844"/>
<path d="M859.609 283.232C859.609 283.232 862.457 282.903 862.198 280.706C861.163 274.896 861.422 262.753 861.422 262.753C861.422 262.753 864.4 245.318 882.126 235.378C899.011 226.948 918.574 237.181 927.031 242.609C927.031 236.541 927.031 230.801 926.96 229.239C926.813 225.802 912.359 221.531 890.566 225.602C869.273 225.861 850.175 239.202 845.249 233.38C839.952 227.171 828.97 226.977 828.97 226.977C828.228 226.913 827.482 226.913 826.74 226.977C818.759 227.459 777.415 235.425 775.025 240.524C772.636 245.623 770.235 253.448 771.353 256.021C772.471 258.594 785.236 249.765 785.236 249.765C832.642 247.215 830.889 283.679 830.889 283.679L859.609 283.232Z" fill="#FCA844"/>
<path d="M839.734 250.784C839.734 250.784 840.8 213.662 845.296 204.263C849.792 194.864 883.945 201.555 883.945 201.555L887.17 224.36C887.247 224.901 887.117 225.451 886.806 225.9C886.495 226.35 886.027 226.666 885.493 226.786C879.46 228.137 861.363 233.836 856.172 253.862C855.536 257.64 840.853 257.957 839.734 250.784Z" fill="white"/>
<path d="M936.341 275.653C935.946 274.478 935.299 274.525 934.516 273.174C933.733 271.823 933.298 269.479 933.021 269.103C931.803 264.509 933.286 263.011 933.38 262.271C933.386 261.606 933.151 260.962 932.718 260.457C932.286 259.952 931.685 259.619 931.026 259.522C929.214 259.11 928.278 258.541 927.813 257.172C927.348 255.803 927.601 255.045 928.278 253.905C928.955 252.766 927.813 250.539 926.2 250.968C924.588 251.397 923.034 250.451 921.998 250.04C920.962 249.629 918.991 247.761 919.403 246.515C919.815 245.27 919.25 244.236 918.055 244.007C916.86 243.778 916.548 244.342 914.995 244.342C913.441 244.342 911.175 243.549 910.704 243.601C906.12 242.356 905.555 240.323 904.96 239.871C904.391 239.54 903.723 239.422 903.075 239.541C902.427 239.66 901.843 240.006 901.429 240.517C900.158 241.88 899.199 242.403 897.798 242.133C896.397 241.863 895.85 241.252 895.196 240.1C894.543 238.949 892.042 238.819 891.601 240.417C891.159 242.015 889.57 242.891 888.658 243.584C887.746 244.277 885.18 245.047 884.309 244.066C883.438 243.084 882.249 243.061 881.454 243.977C880.66 244.894 880.989 245.446 880.213 246.791C879.436 248.137 877.617 249.693 877.429 250.122C874.051 253.471 872.008 252.936 871.32 253.23C870.742 253.554 870.302 254.076 870.079 254.699C869.856 255.321 869.866 256.004 870.107 256.62C870.655 258.382 870.625 259.486 869.69 260.567C868.754 261.648 867.953 261.807 866.623 261.795C865.293 261.783 863.94 263.881 865.105 265.067C866.27 266.254 866.235 268.057 866.394 269.179C866.553 270.302 865.923 272.922 864.628 273.186C863.334 273.45 862.733 274.461 863.128 275.606C863.522 276.752 864.169 276.74 864.946 278.085C865.723 279.431 866.17 281.786 866.447 282.162C867.665 286.75 866.182 288.254 866.088 288.995C866.082 289.658 866.317 290.302 866.75 290.806C867.183 291.311 867.784 291.642 868.442 291.738C870.255 292.155 871.19 292.725 871.655 294.088C872.12 295.451 871.867 296.214 871.19 297.354C870.514 298.494 871.655 300.72 873.268 300.291C874.88 299.863 876.434 300.808 877.47 301.226C878.506 301.643 880.477 303.505 880.065 304.75C879.653 305.996 880.218 307.03 881.413 307.259C882.608 307.488 882.92 306.924 884.473 306.924C886.027 306.924 888.293 307.717 888.758 307.664C893.349 308.909 893.914 310.942 894.508 311.394C895.077 311.726 895.746 311.843 896.393 311.725C897.041 311.606 897.625 311.26 898.039 310.748C899.304 309.385 900.27 308.862 901.67 309.133C903.071 309.403 903.618 310.014 904.266 311.165C904.913 312.317 907.42 312.446 907.868 310.848C908.315 309.25 909.898 308.369 910.81 307.682C911.722 306.994 914.288 306.219 915.159 307.2C916.03 308.181 917.219 308.205 918.014 307.288C918.808 306.372 918.479 305.819 919.256 304.474C920.032 303.129 921.851 301.572 922.039 301.137C925.417 297.795 927.46 298.329 928.148 298.036C928.725 297.71 929.165 297.189 929.387 296.566C929.61 295.944 929.601 295.262 929.361 294.646C928.813 292.884 928.843 291.773 929.779 290.698C930.714 289.623 931.515 289.459 932.839 289.47C934.163 289.482 935.528 287.385 934.363 286.198C933.198 285.012 933.233 283.202 933.074 282.086C932.915 280.97 933.545 278.344 934.84 278.085C936.135 277.827 936.758 276.805 936.341 275.653Z" fill="#354052"/>
<path d="M916.292 286.832C921.589 277.673 918.416 268.427 915.427 263.703C912.437 258.98 905.675 256.184 897.665 256.284C889.655 256.384 883.54 263.703 883.54 263.703C875.624 276.422 882.363 289.428 890.014 293.288C897.665 297.148 910.983 295.984 916.292 286.832Z" fill="#707B8C"/>
<g style="mix-blend-mode:overlay" opacity="0.3">
<path d="M893.673 271.352C893.673 271.352 895.921 268.649 898.876 268.614C901.83 268.579 904.32 269.607 905.426 271.352C906.533 273.096 907.704 276.504 905.744 279.882C903.784 283.259 898.876 283.682 896.063 282.231C893.25 280.78 890.754 276.04 893.673 271.352Z" fill="#C0D6EB"/>
</g>
<path d="M783.95 251.225C783.95 251.225 799.752 249.462 807.891 253.933C813.943 257.288 818.977 262.211 822.46 268.183C825.944 274.155 827.748 280.954 827.683 287.865C829.284 294.397 831.997 291.389 832.633 286.102C833.268 280.815 833.91 262.363 817.79 252.805C809.009 247.071 791.136 248.105 786.986 247.976C782.837 247.847 779.489 251.513 783.95 251.225Z" fill="#354052"/>
<path d="M774.614 268.667C774.614 268.667 763.12 270.5 762.161 268.032C761.202 265.565 760.849 261.741 767.458 261.858C774.067 261.976 781.224 262.334 781.224 262.334L774.614 268.667Z" fill="#505E7F"/>
<path d="M844.601 200.011C844.601 200.011 878.241 197.168 883.544 197.168C888.846 197.168 890.918 196.392 890.406 198.59C889.894 200.787 886.963 202.208 886.963 202.208C886.963 202.208 893.166 229.59 892.366 230.559C891.565 231.529 886.963 230.559 886.963 230.559C886.963 230.559 881.931 204.4 880.019 203.242C878.106 202.085 845.637 205.692 843.435 203.888C841.234 202.085 838.262 201.28 844.601 200.011Z" fill="#354052"/>
<path d="M862.188 263.651C862.188 263.651 870.81 240.74 888.048 236.886C905.286 233.032 924.596 240.799 934.813 256.049C938.962 259.668 939.121 255.685 937.367 252.019C935.613 248.353 925.555 227.645 893.474 228.444C865.543 229.396 861.105 259.351 861.105 259.351C861.105 259.351 859.605 266.982 862.188 263.651Z" fill="#354052"/>
<path d="M943.405 267.898C943.405 267.898 954.176 286.304 957.048 298.846C959.443 306.019 960.761 295.744 960.761 295.744C960.761 295.744 962.197 268.022 955.252 259.533C948.308 251.044 938.627 260.614 943.405 267.898Z" fill="#21252B"/>
<g style="mix-blend-mode:overlay">
<path d="M948.043 265.747C948.043 265.747 947.567 262.88 949.162 262.322C950.756 261.764 952.275 262.24 952.434 264.038C952.593 265.835 950.468 268.696 948.043 265.747Z" fill="#F9F9FA"/>
</g>
<path d="M770.143 253.382C770.143 253.382 771.103 244.3 773.574 242.456C776.046 240.611 777.729 241.469 777.729 241.469C777.729 241.469 779.495 248.971 779.007 250.222C778.518 251.473 769.867 255.427 770.143 253.382Z" fill="#EAF4FA"/>
<path d="M821.801 284.058C821.5 283.171 821 283.183 820.4 282.149C819.8 281.115 819.464 279.305 819.223 279.018C818.287 275.493 819.429 274.318 819.499 273.766C819.508 273.261 819.334 272.769 819.01 272.381C818.686 271.993 818.233 271.734 817.734 271.651C816.339 271.334 815.621 270.893 815.262 269.888C815.1 269.475 815.048 269.027 815.111 268.587C815.174 268.148 815.349 267.732 815.621 267.38C816.139 266.505 815.262 264.789 814.026 265.107C812.79 265.424 811.59 264.713 810.789 264.39C809.989 264.067 808.476 262.627 808.794 261.682C808.885 261.489 808.929 261.279 808.923 261.066C808.917 260.854 808.862 260.646 808.761 260.458C808.66 260.271 808.517 260.11 808.343 259.988C808.169 259.866 807.969 259.786 807.758 259.755C806.84 259.573 806.581 260.013 805.404 260.013C804.227 260.013 802.462 259.426 802.108 259.426C798.577 258.468 798.148 256.906 797.689 256.559C797.251 256.301 796.734 256.209 796.234 256.3C795.734 256.39 795.283 256.658 794.964 257.052C793.987 258.104 793.245 258.503 792.168 258.298C791.728 258.23 791.314 258.05 790.964 257.775C790.615 257.5 790.342 257.14 790.173 256.729C789.673 255.842 787.748 255.748 787.401 256.976C787.054 258.204 785.841 258.879 785.165 259.408C784.488 259.937 782.487 260.536 781.816 259.778C781.692 259.605 781.531 259.463 781.343 259.363C781.155 259.263 780.947 259.207 780.734 259.201C780.522 259.195 780.31 259.238 780.117 259.327C779.924 259.416 779.754 259.548 779.621 259.714C779.032 260.419 779.268 260.842 778.673 261.876C778.079 262.909 776.672 264.108 776.531 264.443C773.935 267.016 772.364 266.605 771.823 266.828C771.379 267.078 771.041 267.48 770.871 267.959C770.7 268.438 770.708 268.962 770.893 269.436C771.311 270.799 771.293 271.639 770.575 272.467C770.298 272.814 769.935 273.084 769.523 273.249C769.11 273.415 768.662 273.472 768.221 273.413C767.203 273.413 766.155 275.017 767.044 275.928C767.932 276.838 767.915 278.23 768.038 279.082C768.162 279.934 767.673 281.961 766.685 282.16C766.471 282.176 766.263 282.242 766.079 282.352C765.896 282.462 765.74 282.614 765.626 282.795C765.511 282.976 765.441 283.182 765.42 283.395C765.4 283.608 765.43 283.823 765.508 284.023C765.808 284.904 766.308 284.892 766.908 285.926C767.509 286.96 767.844 288.769 768.085 289.063C769.021 292.588 767.879 293.763 767.809 294.315C767.802 294.82 767.976 295.311 768.3 295.699C768.624 296.086 769.076 296.346 769.574 296.43C770.969 296.747 771.687 297.182 772.046 298.222C772.208 298.635 772.26 299.083 772.198 299.523C772.135 299.963 771.959 300.378 771.687 300.73C771.169 301.605 772.046 303.321 773.282 302.998C774.518 302.675 775.719 303.397 776.519 303.714C777.319 304.032 778.832 305.477 778.514 306.423C778.424 306.615 778.38 306.826 778.386 307.039C778.391 307.252 778.447 307.46 778.547 307.648C778.648 307.835 778.791 307.997 778.965 308.12C779.139 308.243 779.339 308.323 779.55 308.355C780.468 308.537 780.727 308.097 781.904 308.097C783.081 308.097 784.847 308.684 785.2 308.684C788.731 309.642 789.161 311.205 789.62 311.551C790.058 311.809 790.574 311.901 791.074 311.81C791.574 311.72 792.025 311.453 792.345 311.058C793.322 310.006 794.063 309.607 795.14 309.812C795.58 309.879 795.996 310.059 796.345 310.334C796.695 310.608 796.967 310.969 797.135 311.381C797.636 312.268 799.56 312.362 799.907 311.134C800.255 309.906 801.467 309.231 802.144 308.696C802.821 308.161 804.822 307.574 805.492 308.326C805.615 308.5 805.776 308.644 805.963 308.745C806.151 308.847 806.359 308.903 806.572 308.91C806.786 308.917 806.997 308.874 807.191 308.785C807.384 308.696 807.555 308.563 807.688 308.396C808.276 307.692 808.041 307.269 808.635 306.235C809.23 305.201 810.636 304.002 810.777 303.667C813.373 301.094 814.944 301.506 815.486 301.282C815.928 301.031 816.265 300.629 816.436 300.151C816.607 299.672 816.599 299.148 816.416 298.674C815.992 297.305 816.015 296.465 816.733 295.637C817.011 295.291 817.374 295.022 817.786 294.857C818.199 294.692 818.647 294.637 819.088 294.697C820.106 294.697 821.153 293.087 820.265 292.183C819.376 291.278 819.394 289.874 819.27 289.028C819.146 288.182 819.635 286.149 820.624 285.95C820.841 285.935 821.052 285.87 821.24 285.758C821.427 285.646 821.584 285.491 821.699 285.306C821.815 285.121 821.884 284.911 821.901 284.694C821.919 284.477 821.884 284.259 821.801 284.058Z" fill="#354052"/>
<path d="M807.329 293.288C811.72 285.716 809.095 278.073 806.611 274.166C804.128 270.26 798.554 267.951 791.898 268.033C785.242 268.116 780.251 274.166 780.251 274.166C773.706 284.682 779.292 295.438 785.595 298.622C791.898 301.806 802.945 300.855 807.329 293.288Z" fill="#707B8C"/>
<g style="mix-blend-mode:overlay" opacity="0.3">
<path d="M788.622 280.491C788.622 280.491 790.476 278.253 792.918 278.223C795.361 278.194 797.421 279.052 798.333 280.491C799.016 281.531 799.402 282.737 799.448 283.979C799.495 285.221 799.201 286.453 798.598 287.54C796.979 290.331 792.918 290.683 790.594 289.508C788.269 288.334 786.221 284.368 788.622 280.491Z" fill="#C0D6EB"/>
</g>
<g clip-path="url(#clip1)">
<path d="M1167.78 187.327C1162.14 169.078 1147.26 154.216 1129 148.573C1122.6 146.597 1116.01 145.562 1109.6 145.562C1096.52 145.562 1083.9 149.607 1073.36 157.509C1057.73 168.984 1048.41 187.327 1048.41 206.704C1048.41 220.061 1052.65 232.76 1060.65 243.389L1109.6 306.098L1158.56 243.389C1170.51 227.398 1173.9 206.986 1167.78 187.327ZM1109.6 239.626C1091.43 239.626 1076.65 224.858 1076.65 206.704C1076.65 188.55 1091.43 173.782 1109.6 173.782C1127.77 173.782 1142.55 188.55 1142.55 206.704C1142.55 224.858 1127.77 239.626 1109.6 239.626Z" fill="#FCA844"/>
<path d="M1076.65 206.704C1076.65 224.858 1091.43 239.626 1109.6 239.626C1127.77 239.626 1142.55 224.858 1142.55 206.704C1142.55 188.549 1127.77 173.781 1109.6 173.781C1091.43 173.781 1076.65 188.549 1076.65 206.704Z" fill="white"/>
</g>
<path d="M1074.56 131.704C1074.56 131.704 1082.77 119 1108.08 119C1133.4 119 1141.61 131.704 1141.61 131.704" stroke="#FCA844" stroke-width="5" stroke-linecap="round"/>
<path d="M1056.07 110.915C1056.07 110.915 1068.81 91.2813 1108.08 91.2813C1147.36 91.2813 1160.1 110.915 1160.1 110.915" stroke="#FCA844" stroke-width="5" stroke-linecap="round"/>
<path d="M1035.26 84.3524C1035.26 84.3524 1053.1 57.7891 1108.08 57.7891C1163.07 57.7891 1180.91 84.3524 1180.91 84.3524" stroke="#FCA844" stroke-width="5" stroke-linecap="round"/>
</g>
<defs>
<clipPath id="clip0">
<rect width="645" height="328" fill="white" transform="translate(633 37)"/>
</clipPath>
<clipPath id="clip1">
<rect width="160.672" height="160.535" fill="white" transform="translate(1028.32 145.562)"/>
</clipPath>
</defs>
</svg>
