<svg width="645" height="328" viewBox="0 0 645 328" fill="none" xmlns="http://www.w3.org/2000/svg">
<path d="M55.6637 242.942C55.6637 242.942 37.6429 230.605 49.3958 219.003C61.1488 207.401 65.8747 217.458 77.6041 202.783C89.3335 188.108 90.9284 189.653 99.5445 197.378C108.161 205.104 111.315 186.569 123.839 187.339C136.363 188.108 132.455 196.609 144.208 196.609C155.961 196.609 151.27 187.339 164.583 185.024C177.896 182.71 168.503 193.519 186.523 193.519C204.544 193.519 220.217 180.389 224.136 195.064C228.056 209.739 217.074 239.852 217.074 239.852L55.6637 242.942Z" fill="#9BD2F4"/>
<path d="M241.662 234.844H43.0451C43.0451 234.844 1.70086 237.276 0.0824008 260.74C-1.53606 284.203 20.3514 302.819 47.1001 300.393C73.8488 297.967 113.604 289.061 141.141 304.435C168.679 319.809 220.593 327.933 241.662 322.241C262.732 316.548 296.79 310.104 321.114 317.383C345.438 324.661 430.581 333.144 448.39 324.05C466.199 314.956 510.809 291.493 555.396 295.535C599.984 299.577 692.4 247.792 615.385 234.844C538.37 221.897 241.662 234.844 241.662 234.844Z" fill="#2C8ECC"/>
<path d="M230.546 32.9235C230.546 32.9235 225.296 33.2759 224.248 29.2577C223.201 25.2395 227.574 22.7956 232.488 23.6768C237.402 24.558 242.458 24.1997 243.858 20.7102C245.259 17.2206 247.354 5.52427 256.971 9.19003C266.587 12.8558 272.861 13.5549 278.999 9.88911C285.138 6.22335 290.181 -3.55199 301.205 1.85853C312.228 7.26904 309.073 18.6129 321.315 20.7102C333.556 22.8074 333.203 14.7768 341.595 17.9138C349.988 21.0509 352.26 33.9868 337.923 32.9352C323.586 31.8837 281.271 31.0083 263.262 31.1728C245.253 31.3373 230.546 32.9235 230.546 32.9235Z" fill="#9BD2F4"/>
<path d="M269.112 171.284C269.112 171.284 266.858 175.883 264.604 174.515C262.35 173.146 261.367 173.827 260.973 175.59C260.579 177.352 257.053 178.033 255.676 176.371C254.299 174.708 253.616 176.077 250.968 176.277C248.319 176.477 247.637 172.458 246.065 170.89C244.494 169.321 236.06 171.677 234.595 167.465C233.129 163.253 231.164 165.509 229.398 163.846C227.633 162.184 222.336 165.115 222.142 161.103C221.947 157.09 213.708 154.84 215.273 150.435C216.839 146.029 211.742 146.522 212.919 144.56C214.096 142.598 208.505 135.948 213.996 132.811C215.762 131.442 211.542 128.605 213.802 126.255C216.062 123.905 210.465 119.499 213.802 115.78C217.139 112.062 213.802 111.18 214.979 108.93C216.156 106.68 219.687 106.481 219.887 102.081C220.088 97.6806 219.787 94.3438 225.673 93.3686C229.298 92.0938 227.438 86.8067 230.281 86.2192C233.124 85.6318 236.166 85.4379 237.932 83.7754C239.697 82.1129 241.069 77.6071 243.817 78.8819C246.566 80.1567 246.366 75.8447 248.914 77.4132C251.462 78.9817 251.268 72.4198 254.311 75.0634C257.353 77.7069 264.704 70.4636 267.641 73.8885C270.578 77.3133 273.232 73.1071 276.369 75.1632C279.506 77.2193 281.565 79.2754 284.408 77.9008C287.251 76.5261 289.316 78.782 289.899 80.5444C290.482 82.3067 295.49 78.1945 297.156 81.5254C298.821 84.8563 301.864 82.3068 303.73 85.9255C305.595 89.5443 311.08 87.6878 311.969 91.8999C312.858 96.112 321.091 95.3249 320.697 104.624C320.303 113.924 323.051 114.999 322.362 116.562C321.674 118.124 329.425 123.124 324.622 129.486C319.82 135.848 325.599 134.673 323.934 138.486C322.268 142.298 325.499 145.048 322.657 149.547C319.814 154.047 323.934 160.997 315.594 161.884C309.315 163.059 313.664 172.129 304.024 168.834C300.493 168.053 297.45 175.783 295.102 173.534C292.753 171.284 289.611 177.352 286.962 174.609C284.314 171.865 280 178.233 275.686 174.315C271.372 170.396 271.59 168.188 269.112 171.284Z" fill="#9BD2F4"/>
<path d="M267.44 231.792C267.44 231.792 266.004 231.528 264.174 233.355C262.343 235.182 258.553 236.357 256.199 236.098C253.845 235.84 260.384 233.355 262.473 227.351C264.562 221.347 267.046 218.851 266.263 211.413C265.48 203.976 269.4 185.183 268.223 181.071C267.046 176.959 268.029 164.234 265.086 161.885C262.143 159.535 251.62 154.318 245.87 168.934C243.905 173.892 243.387 170.238 245.347 165.674C247.306 161.109 250.967 158.231 249.137 157.056C247.306 155.881 229.656 158.101 224.295 152.491C222.988 150.923 225.342 151.839 225.342 151.839C225.342 151.839 230.574 154.447 235.412 154.189C240.25 153.93 254.369 152.75 258.683 155.099C262.997 157.449 266.787 159.541 266.133 157.578C265.48 155.616 254.628 138.269 243.905 135.002C233.182 131.736 224.424 128.088 222.335 125.086C220.246 122.084 224.424 125.086 224.424 125.086C229.804 127.586 235.468 129.427 241.292 130.567C243.387 130.696 242.469 128.476 242.469 128.476C242.469 128.476 238.155 109.424 242.21 100.548C244.299 98.198 242.733 103.55 242.733 103.55C242.733 103.55 241.556 123.388 248.089 132.394C251.361 135.132 254.104 138.269 255.022 134.35C255.94 130.432 257.506 128.611 261.296 125.48C265.086 122.348 264.044 114.776 261.555 109.818C259.065 104.86 269.535 95.4603 267.44 86.3195C267.046 83.8404 268.446 85.9259 268.446 85.9259C268.446 85.9259 271.295 89.9089 267.964 98.521C267.44 99.9603 272.278 99.8898 275.285 95.5191C276.856 93.04 276.003 96.7586 276.003 96.7586C276.003 96.7586 274.237 101.458 267.705 101.652C266.565 101.994 265.56 102.679 264.827 103.614C264.827 103.614 261.461 106.481 264.597 111.574C266.457 115.099 266.457 119.405 266.457 119.405C266.457 119.405 269.011 121.362 272.148 118.818C275.285 116.274 272.931 119.405 272.931 119.405C272.931 119.405 270.777 123.805 266.457 122.83C264.892 127.23 260.772 130.267 260.089 132.817C259.407 135.367 258.324 138.692 261.46 142.898C264.597 147.104 270.706 153.666 272.801 154.189C274.897 154.712 280.123 148.579 281.429 146.881C282.736 145.183 278.816 136.048 274.891 132C270.965 127.953 276.203 131.613 276.203 131.613C276.203 131.613 283.389 137.487 283.913 143.614C284.042 145.183 289.274 140.483 288.88 138.004C288.486 135.525 286.138 126.649 287.315 121.432C288.492 116.215 280.382 112.168 279.993 107.727C279.605 103.285 281.035 106.945 281.035 106.945C281.788 109.422 283.268 111.616 285.284 113.243C287.638 115.005 287.838 115.787 288.427 113.143C289.016 110.499 290.781 102.281 296.172 95.9186C297.443 94.8436 297.055 96.7998 297.055 96.7998C297.055 96.7998 291.464 102.281 290.387 117.743C289.992 124.892 291.069 136.442 292.447 136.929C293.824 137.417 299.309 134.679 302.546 129.98C305.783 125.28 309.408 122.636 312.351 116.768C315.293 110.899 313.528 107.568 314.016 106.487C314.505 105.406 314.705 106.98 314.705 106.98C315.347 109.995 315.226 113.122 314.352 116.078C313.479 119.035 311.881 121.727 309.702 123.911C307.154 127.142 314.899 123.324 314.899 123.324C314.899 123.324 317.447 122.93 315.682 124.598C313.916 126.267 309.997 126.555 305.583 130.861C301.169 135.167 301.757 137.123 294.601 140.942C289.798 144.854 288.033 147.697 288.521 148.285C289.01 148.872 298.526 147.498 301.757 148.673C304.988 149.847 312.745 154.641 317.547 150.535C319.113 149.16 319.113 150.535 318.53 151.316C317.948 152.097 313.916 157.191 302.252 151.51C297.838 150.241 286.661 151.904 283.619 154.641C280.576 157.379 279.993 167.107 279.993 167.107C279.993 167.107 282.865 163.453 286.008 161.885C289.151 160.316 295.024 163.453 296.201 165.28C297.379 167.107 294.371 165.539 294.371 165.539C294.371 165.539 289.992 163.189 288.327 163.189C286.661 163.189 281.265 169.257 279.993 173.563C278.722 177.869 281.559 186.059 280.647 190.6C279.734 195.141 280.517 212.477 281.559 214.174C282.601 215.872 283.654 228.397 284.831 229.83C286.008 231.264 289.274 233.097 290.716 234.271C292.158 235.446 289.804 236.486 287.185 235.053C284.665 233.75 282.041 232.66 279.34 231.792C278.034 231.399 275.156 237.79 273.714 237.79C272.272 237.79 271.236 232.961 267.44 231.792Z" fill="#116CA6"/>
<path d="M573.677 183.407C573.677 183.407 571.87 187.084 570.069 185.986C568.268 184.887 567.486 185.439 567.174 186.849C566.862 188.259 564.037 188.8 562.942 187.472C561.848 186.144 561.294 187.237 559.181 187.395C557.069 187.554 556.515 184.347 555.262 183.095C554.008 181.844 547.27 183.718 546.098 180.358C544.927 176.997 543.356 178.789 541.943 177.461C540.531 176.134 536.299 178.478 536.146 175.27C535.993 172.063 529.408 170.265 530.661 166.746C531.915 163.227 527.842 163.621 528.778 162.047C529.714 160.472 525.247 155.167 529.643 152.647C531.056 151.554 527.683 149.281 529.484 147.407C531.285 145.533 526.824 142.008 529.484 139.042C532.144 136.075 529.484 135.364 530.426 133.566C531.368 131.769 534.187 131.61 534.345 128.091C534.504 124.572 534.263 121.911 538.965 121.13C541.867 120.114 540.378 115.89 542.65 115.42C544.921 114.95 547.358 114.797 548.759 113.464C550.159 112.13 551.266 108.541 553.467 109.557C555.668 110.573 555.503 107.131 557.539 108.382C559.576 109.633 559.423 104.393 561.847 106.502C564.272 108.611 570.158 102.83 572.506 105.568C574.854 108.306 576.973 104.939 579.48 106.584C581.987 108.229 583.6 109.868 585.901 108.776C588.202 107.683 589.82 109.475 590.291 110.885C590.762 112.295 594.758 109.005 596.088 111.666C597.418 114.327 599.849 112.294 601.338 115.191C602.827 118.087 607.223 116.601 607.918 119.961C608.612 123.321 615.204 122.698 614.892 130.13C614.58 137.561 616.775 138.419 616.222 139.67C615.669 140.921 621.866 144.91 618.029 149.992C614.191 155.073 618.811 154.139 617.475 157.188C616.139 160.237 618.729 162.428 616.457 166C614.186 169.572 617.475 175.153 610.819 175.858C605.805 176.798 609.277 184.041 601.573 181.409C598.754 180.781 596.324 186.961 594.44 185.163C592.557 183.365 590.056 188.212 587.937 186.021C585.818 183.83 582.375 188.917 578.933 185.792C575.49 182.666 575.654 180.933 573.677 183.407Z" fill="#9BD2F4"/>
<path d="M572.34 231.745C572.34 231.745 571.163 231.533 569.732 232.996C568.302 234.459 565.236 235.393 563.359 235.181C561.481 234.97 566.702 232.996 568.373 228.196C570.044 223.397 572.028 221.405 571.404 215.46C570.78 209.515 573.911 194.5 572.969 191.216C572.028 187.932 572.81 177.763 570.462 175.889C568.114 174.015 559.698 169.838 555.102 181.517C553.536 185.482 553.118 182.562 554.684 178.914C556.249 175.266 559.18 172.969 557.715 172.029C556.249 171.089 542.148 172.863 537.869 168.381C536.822 167.13 538.705 167.858 538.705 167.858C538.705 167.858 542.884 169.944 546.744 169.738C550.605 169.532 561.893 168.563 565.342 170.467C568.791 172.37 571.816 173.991 571.298 172.446C570.78 170.901 562.105 157.014 553.536 154.405C544.967 151.797 537.97 148.877 536.298 146.481C534.627 144.084 537.969 146.481 537.969 146.481C542.268 148.479 546.794 149.951 551.447 150.863C553.118 150.969 552.388 149.195 552.388 149.195C552.388 149.195 548.94 133.968 552.177 126.871C553.848 124.997 552.594 129.268 552.594 129.268C552.594 129.268 551.659 145.129 556.879 152.314C559.492 154.505 561.687 157.014 562.417 153.882C563.147 150.751 564.4 149.289 567.431 146.786C570.462 144.283 569.627 138.238 567.637 134.273C565.648 130.308 574.011 122.806 572.346 115.504C572.034 113.524 573.152 115.192 573.152 115.192C573.152 115.192 575.429 118.376 572.763 125.256C572.346 126.43 576.212 126.348 578.613 122.859C579.867 120.879 579.202 123.846 579.202 123.846C579.202 123.846 577.789 127.6 572.569 127.758C571.659 128.029 570.855 128.575 570.268 129.321C570.268 129.321 567.578 131.618 570.086 135.683C571.021 137.639 571.529 139.772 571.575 141.939C571.575 141.939 573.611 143.502 576.118 141.469C578.625 139.437 576.748 141.939 576.748 141.939C576.748 141.939 575.023 145.464 571.575 144.677C570.321 148.202 567.031 150.622 566.484 152.655C565.936 154.687 565.071 157.354 567.578 160.709C570.086 164.063 574.97 169.315 576.642 169.732C578.313 170.149 582.492 165.244 583.539 163.893C584.587 162.542 581.45 155.234 578.313 152.003C575.176 148.772 579.361 151.691 579.361 151.691C579.361 151.691 585.105 156.391 585.523 161.285C585.629 162.536 589.807 158.782 589.489 156.802C589.172 154.822 587.3 147.726 588.236 143.555C589.172 139.384 582.704 136.153 582.386 132.605C582.068 129.056 583.222 131.982 583.222 131.982C583.824 133.96 585.007 135.711 586.617 137.011C588.501 138.421 588.654 139.049 589.125 136.934C589.595 134.819 591.008 128.252 595.316 123.17C596.334 122.312 596.022 123.875 596.022 123.875C596.022 123.875 591.555 128.252 590.69 140.612C590.378 146.322 591.243 155.551 592.338 155.939C593.433 156.326 597.823 154.141 600.407 150.387C602.99 146.633 605.892 144.513 608.24 139.813C610.588 135.113 609.182 132.458 609.576 131.588C609.97 130.719 610.123 131.976 610.123 131.976C610.634 134.382 610.535 136.878 609.838 139.237C609.14 141.596 607.865 143.744 606.127 145.488C604.091 148.073 610.282 145.024 610.282 145.024C610.282 145.024 612.319 144.706 610.906 146.04C609.494 147.373 606.362 147.603 602.837 151.045C599.312 154.488 599.783 156.05 594.062 159.099C590.225 162.224 588.813 164.492 589.201 164.974C589.589 165.455 597.193 164.351 599.795 165.291C602.396 166.231 608.569 170.061 612.407 166.777C613.66 165.679 613.66 166.777 613.189 167.4C612.719 168.023 609.505 172.1 600.183 167.559C596.652 166.542 587.73 167.87 585.299 170.061C582.868 172.252 582.398 180.048 582.398 180.048C582.398 180.048 584.699 177.111 587.206 175.877C589.713 174.643 594.415 177.128 595.351 178.585C596.287 180.042 593.892 178.797 593.892 178.797C593.892 178.797 590.39 176.893 589.06 176.893C587.73 176.893 583.416 181.74 582.398 185.182C581.379 188.625 583.651 195.169 582.921 198.817C582.192 202.465 582.815 216.3 583.651 217.651C584.487 219.003 585.323 229.019 586.264 230.164C587.206 231.31 589.795 232.773 590.972 233.689C592.15 234.606 590.243 235.451 588.153 234.312C586.14 233.272 584.044 232.402 581.886 231.709C580.838 231.392 578.543 236.503 577.389 236.503C576.236 236.503 575.371 232.69 572.34 231.745Z" fill="#116CA6"/>
<path d="M154.748 177.769C154.748 177.769 152.947 181.446 151.146 180.348C149.345 179.249 148.556 179.801 148.244 181.211C147.932 182.621 145.113 183.167 144.013 181.834C142.912 180.5 142.371 181.599 140.252 181.758C138.133 181.916 137.592 178.709 136.338 177.457C135.085 176.206 128.346 178.08 127.169 174.72C125.992 171.36 124.426 173.157 123.014 171.824C121.602 170.49 117.376 172.84 117.217 169.638C117.058 166.437 110.478 164.633 111.732 161.108C112.986 157.584 108.913 157.983 109.854 156.409C110.796 154.834 106.323 149.524 110.714 147.009C112.126 145.917 108.754 143.649 110.561 141.769C112.367 139.889 107.895 136.376 110.561 133.404C113.227 130.431 110.561 129.726 111.497 127.929C112.432 126.131 115.257 125.972 115.416 122.453C115.575 118.935 115.34 116.273 120.036 115.492C122.938 114.476 121.449 110.252 123.72 109.782C125.992 109.312 128.428 109.159 129.835 107.831C131.242 106.504 132.342 102.903 134.543 103.919C136.744 104.935 136.58 101.493 138.622 102.744C140.664 103.995 140.499 98.7552 142.93 100.87C145.361 102.985 151.234 97.1926 153.582 99.9302C155.931 102.668 158.049 99.3016 160.556 100.946C163.064 102.591 164.711 104.23 166.983 103.138C169.255 102.045 170.897 103.843 171.368 105.247C171.839 106.651 175.835 103.373 177.165 106.028C178.495 108.683 180.925 106.657 182.414 109.553C183.903 112.449 188.3 110.963 189 114.323C189.7 117.683 196.286 117.061 195.968 124.492C195.651 131.923 197.852 132.781 197.304 134.032C196.757 135.284 202.942 139.272 199.105 144.36C195.268 149.447 199.888 148.472 198.558 151.55C197.228 154.629 199.811 156.79 197.54 160.362C195.268 163.934 198.558 169.509 191.896 170.214C186.881 171.154 190.354 178.397 182.65 175.765C179.831 175.143 177.4 181.317 175.523 179.519C173.645 177.722 171.132 182.568 169.049 180.383C166.965 178.198 163.487 183.273 160.039 180.148C156.59 177.023 156.725 175.296 154.748 177.769Z" fill="#9BD2F4"/>
<path d="M153.418 226.116C153.418 226.116 152.241 225.905 150.805 227.367C149.369 228.83 146.314 229.764 144.431 229.559C142.548 229.353 147.774 227.367 149.445 222.568C151.117 217.768 153.1 215.777 152.476 209.832C151.852 203.887 154.983 188.871 154.042 185.587C153.1 182.303 153.889 172.14 151.535 170.26C149.18 168.381 140.776 164.216 136.18 175.894C134.614 179.854 134.196 176.934 135.762 173.286C137.327 169.638 140.252 167.341 138.793 166.401C137.333 165.461 123.226 167.235 118.942 162.753C117.9 161.501 119.777 162.23 119.777 162.23C119.777 162.23 123.956 164.315 127.823 164.11C131.689 163.904 142.971 162.964 146.414 164.838C149.857 166.712 152.888 168.363 152.37 166.818C151.852 165.273 143.177 151.385 134.614 148.777C126.051 146.169 119.048 143.255 117.376 140.852C115.705 138.449 119.048 140.852 119.048 140.852C123.346 142.852 127.871 144.324 132.525 145.235C134.196 145.34 133.461 143.566 133.461 143.566C133.461 143.566 130.018 128.339 133.255 121.243C134.926 119.369 133.673 123.645 133.673 123.645C133.673 123.645 132.731 139.507 137.957 146.686C140.564 148.877 142.76 151.385 143.489 148.254C144.219 145.123 145.479 143.666 148.504 141.164C151.529 138.661 150.699 132.61 148.715 128.651C146.732 124.691 155.089 117.178 153.424 109.852C153.106 107.866 154.224 109.535 154.224 109.535C154.224 109.535 156.502 112.719 153.842 119.598C153.424 120.773 157.284 120.696 159.692 117.201C160.945 115.221 160.28 118.194 160.28 118.194C160.28 118.194 158.873 121.948 153.647 122.1C152.738 122.374 151.936 122.922 151.352 123.669C151.352 123.669 148.662 125.96 151.17 130.025C152.105 131.982 152.613 134.114 152.659 136.282C152.659 136.282 154.695 137.85 157.202 135.812C159.709 133.773 157.826 136.282 157.826 136.282C157.826 136.282 156.101 139.807 152.659 139.019C151.405 142.544 148.109 144.964 147.562 146.997C147.015 149.03 146.155 151.697 148.663 155.051C151.17 158.405 156.049 163.657 157.72 164.075C159.391 164.492 163.57 159.592 164.618 158.235C165.665 156.878 162.528 149.576 159.391 146.345C156.255 143.114 160.439 146.034 160.439 146.034C160.439 146.034 166.183 150.733 166.601 155.627C166.707 156.878 170.885 153.124 170.573 151.145C170.262 149.165 168.378 142.068 169.32 137.897C170.262 133.726 163.782 130.495 163.47 126.953C163.158 123.41 164.306 126.324 164.306 126.324C164.906 128.305 166.089 130.059 167.701 131.359C169.579 132.763 169.738 133.391 170.209 131.277C170.679 129.162 172.086 122.6 176.394 117.512C177.412 116.655 177.1 118.217 177.1 118.217C177.1 118.217 172.633 122.6 171.803 134.954C171.492 140.664 172.351 149.893 173.446 150.281C174.54 150.669 178.931 148.483 181.52 144.729C184.11 140.976 186.999 138.855 189.353 134.155C191.708 129.455 190.295 126.806 190.684 125.931C191.072 125.055 191.231 126.324 191.231 126.324C191.741 128.731 191.643 131.226 190.945 133.585C190.248 135.944 188.972 138.092 187.235 139.836C185.198 142.415 191.39 139.366 191.39 139.366C191.39 139.366 193.426 139.055 192.014 140.382C190.601 141.71 187.47 141.945 183.945 145.387C180.42 148.83 180.89 150.393 175.17 153.441C171.333 156.573 169.92 158.84 170.314 159.316C170.709 159.792 178.307 158.687 180.908 159.627C183.509 160.567 189.683 164.398 193.52 161.114C194.774 160.015 194.774 161.114 194.309 161.736C193.844 162.359 190.625 166.436 181.302 161.895C177.771 160.879 168.843 162.206 166.413 164.398C163.982 166.589 163.517 174.384 163.517 174.384C163.517 174.384 165.812 171.447 168.319 170.213C170.827 168.98 175.529 171.465 176.471 172.928C177.412 174.39 175.005 173.133 175.005 173.133C175.005 173.133 171.509 171.23 170.173 171.23C168.837 171.23 164.535 176.076 163.517 179.519C162.499 182.961 164.771 189.506 164.035 193.154C163.299 196.802 163.935 210.637 164.771 211.994C165.606 213.351 166.442 223.355 167.378 224.507C168.313 225.658 170.909 227.109 172.086 228.031C173.263 228.954 171.356 229.794 169.267 228.66C167.255 227.616 165.158 226.744 162.999 226.052C161.952 225.74 159.656 230.845 158.509 230.845C157.361 230.845 156.443 227.044 153.418 226.116Z" fill="#116CA6"/>
<g style="mix-blend-mode:overlay" opacity="0.3">
<path d="M185.153 268.267C185.153 268.267 263.168 265.382 290.394 266.34C317.619 267.298 350.094 266.34 347.816 273.072C345.539 279.805 280.836 277.872 266.011 279.799C251.186 281.726 203.491 294.691 182.575 286.043C161.658 277.396 118.425 277.872 113.57 267.303C108.714 256.735 185.153 268.267 185.153 268.267Z" fill="black"/>
</g>
<g style="mix-blend-mode:overlay" opacity="0.3">
<path d="M465.006 265.72C465.006 265.72 489.224 264.446 497.676 264.869C506.128 265.292 516.209 264.869 515.502 267.843C514.795 270.817 494.709 269.963 490.107 270.814C485.505 271.665 470.699 277.393 464.205 273.573C457.712 269.753 444.291 269.963 442.784 265.294C441.276 260.626 465.006 265.72 465.006 265.72Z" fill="black"/>
</g>
<path d="M458.713 70.7813C454.128 64.8068 414.661 36.1563 401.513 31.8209C400.107 31.3566 398.588 31.3566 397.182 31.8209C384.034 36.1563 344.567 64.8068 339.988 70.7813C335.086 77.1787 322.268 130.978 322.268 139.632C322.268 148.285 323.403 229.554 326.04 233.32C328.347 236.61 470.348 236.61 472.655 233.32C475.297 229.554 476.427 148.291 476.427 139.632C476.427 130.972 463.603 77.1846 458.713 70.7813Z" fill="#116CA6"/>
<path d="M476.68 157.226C476.535 154.899 476.386 152.614 476.233 150.37C442.857 150.622 371.574 149.941 321.938 149.336C322.102 151.574 322.261 153.865 322.432 156.209C357.691 156.638 439.62 157.543 476.68 157.226Z" fill="#2C8ECC"/>
<path d="M324.262 217.14C324.756 226.046 325.345 232.338 326.027 233.325C328.334 236.615 470.335 236.615 472.642 233.325C473.407 232.232 474.043 224.66 474.561 214.238C437.454 219.026 347.856 217.61 324.262 217.14Z" fill="#116CA6"/>
<path d="M480.565 116.689C477.175 109.54 466.617 69.6572 460.214 64.7695C454.493 60.3988 417.84 35.6491 402.538 27.9827C401.549 27.483 400.456 27.2227 399.348 27.2227C398.24 27.2227 397.147 27.483 396.158 27.9827C380.856 35.6491 344.197 60.3988 338.482 64.7695C332.079 69.6572 321.521 109.54 318.131 116.689C314.741 123.839 312.834 159.574 312.834 163.686C312.834 167.798 319.62 169.332 322.25 168.204C324.881 167.076 325.27 140.74 325.27 140.74C325.782 127.534 340.724 77.5291 344.103 72.6356C346.674 68.9346 379.726 48.3969 395.611 38.651C396.725 37.9647 398.009 37.6013 399.319 37.6013C400.628 37.6013 401.912 37.9647 403.026 38.651C418.917 48.3969 451.963 68.9346 454.535 72.6356C457.924 77.5291 472.867 127.534 473.367 140.74C473.367 140.74 473.744 167.076 476.387 168.204C479.029 169.332 485.803 167.828 485.803 163.686C485.803 159.545 483.961 123.839 480.565 116.689Z" fill="#9BD2F4"/>
<path d="M369.627 235.949L367.149 234.897C367.149 234.897 364.107 186.808 367.291 174.694C383.687 173.008 406.693 172.797 406.693 172.797L432.282 173.854C432.282 173.854 434.359 217.033 432.135 234.68C418.01 237.276 401.408 236.748 401.408 236.748L396.311 236.795L369.627 235.949Z" fill="#9BD2F4"/>
<path d="M443.123 166.147C439.186 166.299 360.14 166.299 356.203 166.147C352.083 165.988 350.453 167.745 350.771 170.136C351.089 172.526 352.054 173.801 355.568 173.484C358.51 173.22 440.804 173.22 443.759 173.484C447.29 173.801 448.232 172.526 448.555 170.136C448.879 167.745 447.278 165.988 443.123 166.147Z" fill="white"/>
<path d="M344.92 110.139V136.269C344.92 138.032 355.696 138.466 360.539 138.466C365.383 138.466 364.936 130.119 365.159 122.217C365.383 114.316 366.695 106.186 361.628 105.528C356.561 104.87 344.92 102.214 344.92 110.139Z" fill="white"/>
<path d="M349.975 112.205C349.975 112.205 348.11 132.514 349.646 133.066C351.182 133.618 359.768 135.592 360.539 133.395C361.31 131.198 361.528 112.094 360.539 111.212C359.551 110.331 350.528 109.239 349.975 112.205Z" fill="#2C8ECC"/>
<path d="M434.188 110.139V136.269C434.188 138.032 444.964 138.466 449.807 138.466C454.651 138.466 454.203 130.119 454.427 122.217C454.651 114.316 455.969 106.186 450.896 105.528C445.823 104.87 434.188 102.214 434.188 110.139Z" fill="white"/>
<path d="M439.249 112.205C439.249 112.205 437.378 132.514 438.914 133.066C440.45 133.618 449.037 135.592 449.808 133.395C450.579 131.198 450.796 112.094 449.808 111.212C448.819 110.331 439.797 109.239 439.249 112.205Z" fill="#2C8ECC"/>
<path d="M389.555 80.673V106.809C389.555 108.572 400.331 109.006 405.174 109.006C410.018 109.006 409.571 100.658 409.794 92.7513C410.018 84.8441 411.33 76.7253 406.263 76.0615C401.196 75.3977 389.555 72.7717 389.555 80.673Z" fill="white"/>
<path d="M394.61 82.7638C394.61 82.7638 392.744 103.072 394.28 103.625C395.817 104.177 404.403 106.151 405.174 103.954C405.945 101.756 406.163 82.6522 405.174 81.771C404.185 80.8898 395.151 79.7972 394.61 82.7638Z" fill="#2C8ECC"/>
<path d="M288.744 229.228C288.744 229.228 308.707 224.328 315.228 226.713C321.749 229.098 320.978 233.886 320.978 233.886L292.14 235.795L288.744 229.228Z" fill="#21252B"/>
<path d="M227.125 244.081L241.744 242.424L291.604 220.506L297.637 210.114C297.637 210.114 278.621 196.943 278.103 196.943C277.585 196.943 253.132 194.487 252.744 194.593C252.355 194.699 234.111 205.444 233.21 206.736C232.31 208.028 223.635 228.043 223.635 228.043L227.125 244.081Z" fill="#21252B"/>
<path d="M138.057 227.968L140.893 226.053C140.893 226.053 140.652 219.72 143.165 215.661C145.678 211.602 163.052 204.828 163.052 204.828C163.052 204.828 202.183 214.039 203.86 228.591C205.537 243.142 199.858 246.015 199.858 246.015H179.201L138.057 227.968Z" fill="#21252B"/>
<path d="M196.916 193.792C196.916 193.792 198.234 167.021 199.07 164.154C199.906 161.288 203.378 155.789 205.544 155.671C207.71 155.554 208.381 158.421 208.381 158.421C208.381 158.421 203.625 164.754 203.384 165.946C203.143 167.139 202.307 194.144 202.307 194.144L196.916 193.792Z" fill="#2E2B47"/>
<path d="M213.449 163.962C213.502 163.604 213.602 156.549 216.357 155.239C219.111 153.929 241.822 154.152 246.048 155.708C250.274 157.265 248.802 160.496 248.508 160.855C248.214 161.213 213.449 163.962 213.449 163.962Z" fill="#FCA844"/>
<path d="M226.607 246.232C226.607 246.232 229.455 245.903 229.197 243.706C228.161 237.896 228.42 225.753 228.42 225.753C228.42 225.753 231.398 208.318 249.124 198.378C266.009 189.948 285.572 200.181 294.029 205.609C294.029 199.541 294.029 193.801 293.958 192.239C293.811 188.802 279.357 184.531 257.564 188.602C236.271 188.861 217.173 202.202 212.247 196.38C206.95 190.171 195.968 189.977 195.968 189.977C195.226 189.913 194.48 189.913 193.738 189.977C185.757 190.459 144.413 198.425 142.023 203.524C139.634 208.623 137.233 216.448 138.351 219.021C139.469 221.594 152.234 212.765 152.234 212.765C199.641 210.215 197.887 246.679 197.887 246.679L226.607 246.232Z" fill="#FCA844"/>
<path d="M206.732 213.784C206.732 213.784 207.798 176.662 212.294 167.263C216.79 157.864 250.943 164.555 250.943 164.555L254.168 187.36C254.245 187.901 254.115 188.451 253.804 188.9C253.494 189.35 253.025 189.666 252.491 189.786C246.458 191.137 228.361 196.836 223.17 216.862C222.535 220.64 207.851 220.957 206.732 213.784Z" fill="white"/>
<path d="M303.341 238.653C302.946 237.478 302.299 237.525 301.516 236.174C300.733 234.823 300.298 232.479 300.021 232.103C298.803 227.509 300.286 226.011 300.38 225.271C300.386 224.606 300.151 223.962 299.718 223.457C299.286 222.952 298.685 222.619 298.026 222.522C296.214 222.11 295.278 221.541 294.813 220.172C294.348 218.803 294.601 218.045 295.278 216.905C295.955 215.766 294.813 213.539 293.2 213.968C291.588 214.397 290.034 213.451 288.998 213.04C287.962 212.629 285.991 210.761 286.403 209.515C286.815 208.27 286.25 207.236 285.055 207.007C283.86 206.778 283.548 207.342 281.995 207.342C280.441 207.342 278.175 206.549 277.704 206.601C273.12 205.356 272.555 203.323 271.96 202.871C271.391 202.54 270.723 202.422 270.075 202.541C269.427 202.66 268.843 203.006 268.429 203.517C267.158 204.88 266.199 205.403 264.798 205.133C263.397 204.863 262.85 204.252 262.196 203.1C261.543 201.949 259.042 201.819 258.601 203.417C258.159 205.015 256.57 205.891 255.658 206.584C254.746 207.277 252.18 208.047 251.309 207.066C250.438 206.084 249.249 206.061 248.454 206.977C247.66 207.894 247.989 208.446 247.213 209.791C246.436 211.137 244.617 212.693 244.429 213.122C241.051 216.471 239.008 215.936 238.32 216.23C237.742 216.554 237.302 217.076 237.079 217.699C236.856 218.321 236.866 219.004 237.107 219.62C237.655 221.382 237.625 222.486 236.69 223.567C235.754 224.648 234.953 224.807 233.623 224.795C232.293 224.783 230.94 226.881 232.105 228.067C233.27 229.254 233.235 231.057 233.394 232.179C233.553 233.302 232.923 235.922 231.628 236.186C230.334 236.45 229.733 237.461 230.128 238.606C230.522 239.752 231.169 239.74 231.946 241.085C232.723 242.431 233.17 244.786 233.447 245.162C234.665 249.75 233.182 251.254 233.088 251.995C233.082 252.658 233.317 253.302 233.75 253.806C234.183 254.311 234.784 254.642 235.442 254.738C237.255 255.155 238.19 255.725 238.655 257.088C239.12 258.451 238.867 259.214 238.19 260.354C237.514 261.494 238.655 263.72 240.268 263.291C241.88 262.863 243.434 263.808 244.47 264.226C245.506 264.643 247.477 266.505 247.065 267.75C246.653 268.996 247.218 270.03 248.413 270.259C249.608 270.488 249.92 269.924 251.473 269.924C253.027 269.924 255.293 270.717 255.758 270.664C260.349 271.909 260.914 273.942 261.508 274.394C262.077 274.726 262.746 274.843 263.393 274.725C264.041 274.606 264.625 274.26 265.039 273.748C266.304 272.385 267.27 271.862 268.67 272.133C270.071 272.403 270.618 273.014 271.266 274.165C271.913 275.317 274.42 275.446 274.868 273.848C275.315 272.25 276.898 271.369 277.81 270.682C278.722 269.994 281.288 269.219 282.159 270.2C283.03 271.181 284.219 271.205 285.014 270.288C285.808 269.372 285.479 268.819 286.256 267.474C287.032 266.129 288.851 264.572 289.039 264.137C292.417 260.795 294.46 261.329 295.148 261.036C295.725 260.71 296.165 260.189 296.387 259.566C296.61 258.944 296.601 258.262 296.361 257.646C295.813 255.884 295.843 254.773 296.779 253.698C297.714 252.623 298.515 252.459 299.839 252.47C301.163 252.482 302.528 250.385 301.363 249.198C300.198 248.012 300.233 246.202 300.074 245.086C299.915 243.97 300.545 241.344 301.84 241.085C303.135 240.827 303.758 239.805 303.341 238.653Z" fill="#354052"/>
<path d="M283.29 249.832C288.587 240.673 285.414 231.427 282.425 226.703C279.435 221.98 272.673 219.184 264.663 219.284C256.653 219.384 250.538 226.703 250.538 226.703C242.622 239.422 249.361 252.428 257.012 256.288C264.663 260.148 277.981 258.984 283.29 249.832Z" fill="#707B8C"/>
<g style="mix-blend-mode:overlay" opacity="0.3">
<path d="M260.671 234.352C260.671 234.352 262.92 231.649 265.874 231.614C268.828 231.579 271.318 232.607 272.424 234.352C273.531 236.096 274.702 239.504 272.742 242.882C270.782 246.259 265.874 246.682 263.061 245.231C260.248 243.78 257.752 239.04 260.671 234.352Z" fill="#C0D6EB"/>
</g>
<path d="M150.946 214.225C150.946 214.225 166.748 212.462 174.887 216.933C180.939 220.288 185.973 225.211 189.456 231.183C192.94 237.155 194.744 243.954 194.679 250.865C196.28 257.397 198.993 254.389 199.629 249.102C200.265 243.815 200.906 225.363 184.786 215.805C176.005 210.071 158.132 211.105 153.982 210.976C149.833 210.847 146.485 214.513 150.946 214.225Z" fill="#354052"/>
<path d="M141.612 231.667C141.612 231.667 130.118 233.5 129.159 231.032C128.2 228.565 127.847 224.741 134.456 224.858C141.065 224.976 148.222 225.334 148.222 225.334L141.612 231.667Z" fill="#505E7F"/>
<path d="M211.601 163.011C211.601 163.011 245.241 160.168 250.544 160.168C255.846 160.168 257.918 159.392 257.406 161.59C256.894 163.787 253.963 165.208 253.963 165.208C253.963 165.208 260.166 192.59 259.366 193.559C258.565 194.529 253.963 193.559 253.963 193.559C253.963 193.559 248.931 167.4 247.019 166.242C245.106 165.085 212.637 168.692 210.435 166.888C208.234 165.085 205.262 164.28 211.601 163.011Z" fill="#354052"/>
<path d="M229.186 226.651C229.186 226.651 237.808 203.74 255.046 199.886C272.284 196.032 291.594 203.799 301.811 219.049C305.96 222.668 306.119 218.685 304.365 215.019C302.611 211.353 292.553 190.645 260.473 191.444C232.541 192.396 228.103 222.351 228.103 222.351C228.103 222.351 226.603 229.982 229.186 226.651Z" fill="#354052"/>
<path d="M310.403 230.898C310.403 230.898 321.174 249.304 324.046 261.846C326.441 269.019 327.759 258.744 327.759 258.744C327.759 258.744 329.195 231.022 322.251 222.533C315.306 214.044 305.625 223.614 310.403 230.898Z" fill="#21252B"/>
<g style="mix-blend-mode:overlay">
<path d="M315.039 228.747C315.039 228.747 314.563 225.88 316.158 225.322C317.753 224.764 319.271 225.24 319.43 227.038C319.589 228.835 317.464 231.696 315.039 228.747Z" fill="#F9F9FA"/>
</g>
<path d="M137.139 216.382C137.139 216.382 138.099 207.3 140.57 205.456C143.042 203.611 144.725 204.469 144.725 204.469C144.725 204.469 146.491 211.971 146.003 213.222C145.514 214.473 136.863 218.427 137.139 216.382Z" fill="#EAF4FA"/>
<path d="M188.801 247.058C188.5 246.171 188 246.183 187.4 245.149C186.8 244.115 186.464 242.305 186.223 242.018C185.287 238.493 186.429 237.318 186.499 236.766C186.508 236.261 186.334 235.769 186.01 235.381C185.686 234.993 185.233 234.734 184.734 234.651C183.339 234.334 182.621 233.893 182.262 232.888C182.1 232.475 182.048 232.027 182.111 231.587C182.174 231.148 182.349 230.732 182.621 230.38C183.139 229.505 182.262 227.789 181.026 228.107C179.79 228.424 178.59 227.713 177.789 227.39C176.989 227.067 175.476 225.627 175.794 224.682C175.885 224.489 175.929 224.279 175.923 224.066C175.917 223.854 175.862 223.646 175.761 223.458C175.66 223.271 175.517 223.11 175.343 222.988C175.169 222.866 174.969 222.786 174.758 222.755C173.84 222.573 173.581 223.013 172.404 223.013C171.227 223.013 169.462 222.426 169.108 222.426C165.577 221.468 165.148 219.906 164.689 219.559C164.251 219.301 163.734 219.209 163.234 219.3C162.734 219.39 162.283 219.658 161.964 220.052C160.987 221.104 160.245 221.503 159.168 221.298C158.728 221.23 158.314 221.05 157.964 220.775C157.615 220.5 157.342 220.14 157.173 219.729C156.673 218.842 154.748 218.748 154.401 219.976C154.054 221.204 152.841 221.879 152.165 222.408C151.488 222.937 149.487 223.536 148.816 222.778C148.692 222.605 148.531 222.463 148.343 222.363C148.155 222.263 147.947 222.207 147.734 222.201C147.522 222.195 147.31 222.238 147.117 222.327C146.924 222.416 146.754 222.548 146.621 222.714C146.032 223.419 146.268 223.842 145.673 224.876C145.079 225.909 143.672 227.108 143.531 227.443C140.935 230.016 139.364 229.605 138.823 229.828C138.379 230.078 138.041 230.48 137.871 230.959C137.7 231.438 137.708 231.962 137.893 232.436C138.311 233.799 138.293 234.639 137.575 235.467C137.298 235.814 136.935 236.084 136.523 236.249C136.11 236.415 135.662 236.472 135.221 236.413C134.203 236.413 133.155 238.017 134.044 238.928C134.932 239.838 134.915 241.23 135.038 242.082C135.162 242.934 134.673 244.961 133.685 245.16C133.471 245.176 133.263 245.242 133.079 245.352C132.896 245.462 132.74 245.614 132.626 245.795C132.511 245.976 132.441 246.182 132.42 246.395C132.4 246.608 132.43 246.823 132.508 247.023C132.808 247.904 133.308 247.892 133.908 248.926C134.509 249.96 134.844 251.769 135.085 252.063C136.021 255.588 134.879 256.763 134.809 257.315C134.802 257.82 134.976 258.311 135.3 258.699C135.624 259.086 136.076 259.346 136.574 259.43C137.969 259.747 138.687 260.182 139.046 261.222C139.208 261.635 139.26 262.083 139.198 262.523C139.135 262.963 138.959 263.378 138.687 263.73C138.169 264.605 139.046 266.321 140.282 265.998C141.518 265.675 142.719 266.397 143.519 266.714C144.319 267.032 145.832 268.477 145.514 269.423C145.424 269.615 145.38 269.826 145.386 270.039C145.391 270.252 145.447 270.46 145.547 270.648C145.648 270.835 145.791 270.997 145.965 271.12C146.139 271.243 146.339 271.323 146.55 271.355C147.468 271.537 147.727 271.097 148.904 271.097C150.081 271.097 151.847 271.684 152.2 271.684C155.731 272.642 156.161 274.205 156.62 274.551C157.058 274.809 157.574 274.901 158.074 274.81C158.574 274.72 159.025 274.453 159.345 274.058C160.322 273.006 161.063 272.607 162.14 272.812C162.58 272.879 162.996 273.059 163.345 273.334C163.695 273.608 163.967 273.969 164.135 274.381C164.636 275.268 166.56 275.362 166.907 274.134C167.255 272.906 168.467 272.231 169.144 271.696C169.821 271.161 171.822 270.574 172.492 271.326C172.615 271.5 172.776 271.644 172.963 271.745C173.151 271.847 173.359 271.903 173.572 271.91C173.786 271.917 173.997 271.874 174.191 271.785C174.384 271.696 174.555 271.563 174.688 271.396C175.276 270.692 175.041 270.269 175.635 269.235C176.23 268.201 177.636 267.002 177.777 266.667C180.373 264.094 181.944 264.506 182.486 264.282C182.928 264.031 183.265 263.629 183.436 263.151C183.607 262.672 183.599 262.148 183.416 261.674C182.992 260.305 183.015 259.465 183.733 258.637C184.011 258.291 184.374 258.022 184.786 257.857C185.199 257.692 185.647 257.637 186.088 257.697C187.106 257.697 188.153 256.087 187.265 255.183C186.376 254.278 186.394 252.874 186.27 252.028C186.146 251.182 186.635 249.149 187.624 248.95C187.841 248.935 188.052 248.87 188.24 248.758C188.427 248.646 188.584 248.491 188.699 248.306C188.815 248.121 188.884 247.911 188.901 247.694C188.919 247.477 188.884 247.259 188.801 247.058Z" fill="#354052"/>
<path d="M174.329 256.288C178.72 248.716 176.095 241.073 173.611 237.166C171.128 233.26 165.554 230.951 158.898 231.033C152.242 231.116 147.251 237.166 147.251 237.166C140.706 247.682 146.292 258.438 152.595 261.622C158.898 264.806 169.945 263.855 174.329 256.288Z" fill="#707B8C"/>
<g style="mix-blend-mode:overlay" opacity="0.3">
<path d="M155.62 243.491C155.62 243.491 157.474 241.253 159.916 241.223C162.359 241.194 164.419 242.052 165.331 243.491C166.014 244.531 166.4 245.737 166.446 246.979C166.493 248.221 166.199 249.453 165.596 250.54C163.977 253.331 159.916 253.683 157.592 252.508C155.267 251.334 153.219 247.368 155.62 243.491Z" fill="#C0D6EB"/>
</g>
<g clip-path="url(#clip0_5657_136505)">
<path d="M534.781 150.327C529.132 132.078 514.257 117.216 495.993 111.573C489.592 109.597 483.001 108.562 476.6 108.562C463.514 108.562 450.899 112.607 440.355 120.509C424.726 131.984 415.406 150.327 415.406 169.704C415.406 183.061 419.643 195.76 427.645 206.389L476.6 269.098L525.554 206.389C537.51 190.398 540.9 169.986 534.781 150.327ZM476.6 202.626C458.43 202.626 443.649 187.858 443.649 169.704C443.649 151.55 458.43 136.782 476.6 136.782C494.769 136.782 509.55 151.55 509.55 169.704C509.55 187.858 494.769 202.626 476.6 202.626Z" fill="#FCA844"/>
<path d="M443.648 169.704C443.648 187.858 458.429 202.626 476.599 202.626C494.769 202.626 509.549 187.858 509.549 169.704C509.549 151.549 494.769 136.781 476.599 136.781C458.429 136.781 443.648 151.549 443.648 169.704Z" fill="white"/>
</g>
<path d="M441.559 94.7042C441.559 94.7042 449.768 82 475.08 82C500.392 82 508.602 94.7042 508.602 94.7042" stroke="#FCA844" stroke-width="5" stroke-linecap="round"/>
<path d="M423.064 73.915C423.064 73.915 435.803 54.2813 475.081 54.2813C514.358 54.2813 527.097 73.915 527.097 73.915" stroke="#FCA844" stroke-width="5" stroke-linecap="round"/>
<path d="M402.258 47.3524C402.258 47.3524 420.092 20.7891 475.08 20.7891C530.069 20.7891 547.903 47.3524 547.903 47.3524" stroke="#FCA844" stroke-width="5" stroke-linecap="round"/>
<defs>
<clipPath id="clip0_5657_136505">
<rect width="160.672" height="160.535" fill="white" transform="translate(395.322 108.562)"/>
</clipPath>
</defs>
</svg>
