<svg width="518" height="276" viewBox="0 0 518 276" fill="none" xmlns="http://www.w3.org/2000/svg">
<g clip-path="url(#clip0_334_4250)">
<path opacity="0.5" d="M502.572 273.861L502.452 274.074C502.168 274.582 501.872 275.097 501.57 275.615L40.5019 275.476C40.5019 275.476 40.0528 274.977 39.249 274.026L39.1091 273.858C35.1546 269.082 31.4612 264.098 28.0448 258.928C15.1745 239.552 -2.66829 205.256 0.325572 167.189C1.20984 155.863 3.95023 144.757 8.43829 134.311C22.8381 100.652 65.8065 77.9681 104.515 77.5117C119.485 77.3337 133.845 80.486 145.648 87.6255C147.741 88.8909 150.373 89.8683 153.436 90.5382C156.264 91.1312 159.14 91.4703 162.03 91.5512C187.172 92.4315 228.058 78.3435 252.308 42.8952C265.185 24.0659 284.954 11.7417 307.675 5.32387C308.733 5.02613 309.799 4.74024 310.87 4.46623C316.099 3.13924 321.4 2.11375 326.748 1.39489C327.722 1.26327 328.698 1.14137 329.676 1.02917C353.653 -1.73795 379.335 1.12303 402.896 9.03602C405.998 10.0781 409.061 11.2076 412.086 12.4245C456.411 30.2765 490.896 66.7313 487.866 117.633C487.745 119.642 487.565 121.678 487.326 123.74C486.855 127.773 486.176 131.778 485.292 135.741C484.758 138.147 484.144 140.578 483.45 143.036C465.171 207.563 538.209 210.476 502.572 273.861Z" fill="#D8E9FF"/>
<path d="M502.572 273.861L143.689 273.9L146.781 167.231V138.246H160.205V115.611H186.983V134.825H195.161V99.2927H196.941V96.8071H197.267V99.2927H203.713V96.8071H204.039V99.2927H213.183V96.8071H213.508V99.2927H219.262V96.8071H219.587V99.2927H221.937V132.463H230.977V127.097L241.638 127.142V118.452H243.779V116.734H244.065V118.452H253.942V116.73H254.225V118.452H256.213V135.738H268.905V142.101H275.956V138.408H282.501V123.74H285.755V116.899H286.246V123.74H294.056V110.918H294.824V123.74H300.037V123.562V121.944V120.394V117.831V116.187V113.63V111.996V109.432V107.662V105.102V102.837V100.273V98.5742H301.577V96.6712H301.824V98.5871H313.243V96.6712H313.49V98.5871H315.573V111.996H317.041V109.432V107.662V105.102V103.338V100.775H330.887H333.269L333.64 100.979V118.077H336.159V115.611H365.388V134.825H374.315V99.2927H376.267V96.8071H376.618V99.2927H383.67V96.8071H384.019V99.2927H393.999V96.8071H394.351V99.2927H400.631V96.8071H400.979V99.2927H403.56V132.463H413.423V127.097L425.057 127.142V118.452H427.4V116.73H427.726V118.452H438.507V116.73H438.832V118.452H441V135.741H454.849V142.101H462.552V138.408H469.692V123.74H473.252V116.899H473.792V123.74H482.273V110.918H483.112V123.74H487.307C486.836 127.773 486.157 131.778 485.273 135.741C484.739 138.147 484.125 140.578 483.431 143.036C465.172 207.563 538.209 210.476 502.572 273.861Z" fill="#DCEAFB"/>
<path d="M412.076 12.4245V273.857H402.89V9.03602C405.992 10.0781 409.054 11.2076 412.076 12.4245Z" fill="#A8CCFF"/>
<path d="M153.436 90.5318V274.035H39.249L39.1091 273.867C35.1546 269.092 31.4612 264.108 28.0448 258.938C15.1745 239.552 -2.66829 205.256 0.325572 167.189C1.20984 155.863 3.95023 144.757 8.43829 134.311C22.8381 100.652 65.8066 77.9681 104.515 77.5117C119.361 77.6735 133.507 80.8614 145.255 87.6255C147.454 88.8909 150.22 89.8683 153.436 90.5318Z" fill="#C9E0FF"/>
<path d="M329.676 1.02917V33.2249C329.676 35.7363 329.061 37.7817 328.31 37.7817H328.114C327.363 37.7817 326.748 35.7363 326.748 33.2249V1.39489C327.722 1.26327 328.698 1.14137 329.676 1.02917Z" fill="#97C0F8"/>
<path d="M327.451 30.037C316.78 30.037 308.13 39.1345 308.13 50.3519H346.768C346.768 39.1345 338.111 30.037 327.451 30.037Z" fill="#A8CCFF"/>
<path opacity="0.5" d="M328.999 30.2862C328.443 30.1645 327.874 30.1027 327.304 30.1017C320.353 30.1017 314.717 39.1636 314.717 50.3519H318.098C318.098 40.0957 322.839 31.6196 328.999 30.2862Z" fill="#D8E9FF"/>
<path d="M454.673 243.895C454.673 243.895 449.532 237.93 454.348 234.14C454.348 234.14 457.869 232.021 460.742 232.199C460.742 232.199 456.671 238.995 457.989 239.662C459.307 240.328 461.979 231.771 461.979 231.771C461.979 231.771 469.997 230.998 472.575 232.231C472.575 232.231 465.721 237.811 467.163 238.144C468.605 238.477 476.011 232.998 476.011 232.998C476.011 232.998 483.476 234.263 483.076 238.791C482.676 243.319 480.108 244.717 478.979 244.597C477.85 244.477 471.237 241.966 471.091 242.885C470.944 243.804 474.927 246.817 477.713 246.96C477.713 246.96 472.454 252.73 468.956 251.064C465.458 249.397 465.162 246.759 462.981 245.769C460.801 244.778 458.94 244.798 459.841 245.791C460.742 246.785 464.687 247.782 465.933 249.973C467.179 252.164 468.295 253.646 464.68 253.106C461.065 252.565 455.181 249.931 454.917 246.914L454.673 243.895Z" fill="#6CA3EA"/>
<path d="M479.422 238.908C479.422 238.908 459.152 238.128 454.69 243.895C453.819 246.068 452.435 248 450.655 249.53L450.18 250.824C450.18 250.824 453.691 247.141 454.947 246.918C454.937 246.908 452.965 239.765 479.422 238.908Z" fill="#6CA3EA"/>
<path d="M450.638 249.526C450.638 249.526 446.288 252.724 445.985 258.443L446.772 258.514C446.772 258.514 448.162 252.601 450.677 250.29C453.193 247.979 450.638 249.526 450.638 249.526Z" fill="#6CA3EA"/>
<path d="M436.714 236.393C436.714 236.393 444.895 231.839 441.078 225.658C441.078 225.658 438.025 221.862 434.752 220.884C434.752 220.884 436.496 230.105 434.752 230.321C433.007 230.538 433.554 219.91 433.554 219.91C433.554 219.91 424.94 215.79 421.559 216.114C421.559 216.114 426.902 225.114 425.158 224.897C423.414 224.68 417.416 215.57 417.416 215.57C417.416 215.57 408.581 213.952 407.166 219.149C405.75 224.347 408.038 226.959 409.346 227.282C410.654 227.606 419.05 227.499 418.832 228.577C418.614 229.655 412.945 231.399 409.782 230.422C409.782 230.422 413.271 238.988 417.853 238.555C422.434 238.121 423.85 235.318 426.684 235.085C429.519 234.852 431.592 235.626 430.173 236.38C428.754 237.134 423.957 236.629 421.666 238.565C419.375 240.5 417.524 241.694 421.777 242.561C426.03 243.429 433.661 242.885 435.188 239.649L436.714 236.393Z" fill="#6CA3EA"/>
<path d="M411.185 220.777C411.185 220.777 434.081 228.15 436.697 236.393C436.697 236.393 436.59 240.079 438.881 244.309V245.927C438.881 245.927 436.479 240.396 435.171 239.636C435.171 239.646 440.293 232.49 411.185 220.777Z" fill="#6CA3EA"/>
<path d="M438.881 244.309C438.881 244.309 442.412 249.643 440.397 256.135L439.489 255.892C439.489 255.892 440.371 248.74 438.513 245.144C436.655 241.549 438.881 244.309 438.881 244.309Z" fill="#6CA3EA"/>
<path d="M449.711 230.108C449.711 230.108 438.93 224.104 443.961 215.955C443.961 215.955 447.986 210.952 452.298 209.667C452.298 209.667 449.997 221.816 452.298 222.104C454.599 222.392 453.876 208.379 453.876 208.379C453.876 208.379 465.233 202.948 469.688 203.375C469.688 203.375 462.646 215.24 464.947 214.955C467.248 214.67 475.152 202.657 475.152 202.657C475.152 202.657 486.792 200.511 488.66 207.372C490.528 214.233 487.512 217.664 485.787 218.094C484.062 218.525 472.995 218.379 473.281 219.81C473.567 221.24 481.042 223.525 485.211 222.24C485.211 222.24 480.613 233.532 474.576 232.959C468.54 232.386 466.672 228.671 462.933 228.386C459.194 228.101 456.467 229.101 458.334 230.101C460.202 231.101 466.525 230.425 469.545 232.982C472.565 235.539 475.006 237.105 469.402 238.251C463.798 239.396 453.733 238.678 451.722 234.39L449.711 230.108Z" fill="#97C0F8"/>
<path d="M483.343 209.528C483.343 209.528 453.16 219.237 449.711 230.111C449.711 230.111 449.854 234.966 446.834 240.545V242.691C446.834 242.691 449.997 235.399 451.715 234.399C451.722 234.399 444.966 224.965 483.343 209.528Z" fill="#97C0F8"/>
<path d="M446.834 240.545C446.834 240.545 442.181 247.584 444.849 256.135L446.047 255.811C446.047 255.811 444.885 246.387 447.319 241.646C449.753 236.904 446.834 240.545 446.834 240.545Z" fill="#97C0F8"/>
<path d="M449.346 274.692C454.947 274.692 460.318 272.48 464.278 268.541C468.238 264.603 470.463 259.261 470.463 253.691H428.23C428.23 259.261 430.455 264.603 434.415 268.541C438.375 272.48 443.746 274.692 449.346 274.692Z" fill="#97C0F8"/>
<path d="M454.543 274.531C451.571 274.902 448.553 274.64 445.69 273.763C442.827 272.885 440.185 271.412 437.938 269.442C435.691 267.471 433.892 265.047 432.659 262.332C431.426 259.616 430.788 256.671 430.788 253.691H436.063C436.062 258.808 437.939 263.748 441.342 267.585C444.745 271.422 449.439 273.892 454.543 274.531Z" fill="#A8CCFF"/>
<path d="M470.941 253.691H427.534V254.336H470.941V253.691Z" fill="#97C0F8"/>
<path d="M351.04 273.66L330.301 188.006L331.753 184.636L352.309 273.637C352.322 273.691 352.322 273.747 352.309 273.8C352.297 273.853 352.273 273.903 352.238 273.946C352.204 273.989 352.16 274.024 352.111 274.048C352.061 274.072 352.007 274.084 351.951 274.084H351.626C351.494 274.091 351.364 274.053 351.257 273.976C351.15 273.899 351.074 273.787 351.04 273.66Z" fill="#6CA3EA"/>
<path d="M257.407 274.097C257.307 274.097 257.208 274.075 257.117 274.033C257.026 273.991 256.946 273.93 256.881 273.854C256.816 273.778 256.769 273.689 256.742 273.593C256.716 273.497 256.711 273.396 256.727 273.298L262.839 236.454H265.458L258.153 273.476C258.118 273.648 258.025 273.803 257.89 273.916C257.754 274.029 257.584 274.093 257.407 274.097Z" fill="#6CA3EA"/>
<path d="M316.019 274.097C315.918 274.097 315.819 274.075 315.729 274.033C315.638 273.991 315.557 273.93 315.492 273.854C315.428 273.778 315.38 273.689 315.354 273.593C315.327 273.497 315.322 273.396 315.339 273.298L321.45 236.454H324.053L316.78 273.476C316.745 273.651 316.65 273.808 316.511 273.921C316.372 274.035 316.198 274.097 316.019 274.097Z" fill="#6CA3EA"/>
<path d="M330.233 236.532H257.245L272.367 142.249H345.359L330.233 236.532Z" fill="#F3FAFF"/>
<path d="M335.697 235.814H251.869V238.587H335.697V235.814Z" fill="#6CA3EA"/>
<path d="M301.274 161.978C301.219 162.717 301.11 163.45 300.948 164.173C299.429 170.908 293.395 176.073 286.578 176.083C279.035 176.083 273.385 169.801 273.961 162.024C274.537 154.247 281.121 147.929 288.664 147.916C290.845 147.902 292.993 148.455 294.892 149.522C296.11 150.209 297.2 151.098 298.117 152.15C298.63 152.738 299.087 153.372 299.484 154.043C299.722 154.438 299.939 154.845 300.135 155.263C300.676 156.461 301.036 157.731 301.205 159.033C301.297 159.716 301.337 160.404 301.326 161.092C301.306 161.383 301.293 161.677 301.274 161.978Z" fill="#B8D0FC"/>
<path d="M300.119 155.26L287.616 162.001C287.616 162.001 292.774 152.965 294.893 149.518C296.11 150.206 297.201 151.094 298.118 152.146C298.63 152.735 299.087 153.369 299.484 154.04C299.716 154.435 299.928 154.843 300.119 155.26Z" fill="white"/>
<path d="M301.417 153.554L289.998 159.703C289.998 159.703 294.71 151.45 296.643 148.301C297.749 148.929 298.74 149.74 299.572 150.7C300.041 151.237 300.459 151.817 300.821 152.431C301.04 152.795 301.239 153.17 301.417 153.554Z" fill="#364154"/>
<path d="M324.424 229.367H264.345L270.424 194.889H330.503L324.424 229.367ZM264.83 229.014H324.057L330.015 195.236H270.789L264.83 229.014Z" fill="#B8D0FC"/>
<path d="M320.841 224.638H267.561C267.561 224.638 276.998 219.599 279.601 219.861C282.204 220.124 285.921 222.166 288.316 222.247C290.711 222.328 293.308 215.172 295.973 215.508C298.638 215.845 299.644 222.175 301.027 221.557C302.41 220.939 306.559 220.671 308.941 221.557C311.323 222.444 314.798 218.738 316.91 218.855C319.022 218.971 320.841 224.638 320.841 224.638Z" fill="#364154"/>
<path d="M280.372 214.505H270.193L270.291 213.968L280.466 213.971L280.372 214.505Z" fill="#364154"/>
<path d="M280.17 215.654H269.991L270.086 215.117H280.265L280.17 215.654Z" fill="#364154"/>
<path d="M270.609 207.356H323.89C323.89 207.356 316.217 202.317 313.529 202.598C310.841 202.88 306.399 204.9 303.975 204.98C301.55 205.061 301.479 197.906 298.693 198.242C295.908 198.579 292.673 204.906 291.508 204.288C290.343 203.67 286.301 203.401 283.59 204.288C280.88 205.175 278.709 201.469 276.578 201.585C274.446 201.702 270.609 207.356 270.609 207.356Z" fill="#B8D0FC"/>
<path d="M283.246 198.213H273.07L273.164 197.676H283.34L283.246 198.213Z" fill="#B8D0FC"/>
<path d="M283.044 199.359H272.868L272.963 198.822H283.138L283.044 199.359Z" fill="#B8D0FC"/>
<path d="M274.062 190.08H271.726L273.756 179.19H276.093L274.062 190.08Z" fill="#B8D0FC"/>
<path d="M277.245 190.08H274.908L276.483 181.643H278.82L277.245 190.08Z" fill="#B8D0FC"/>
<path d="M280.431 190.08H278.091L279.734 181.284H282.071L280.431 190.08Z" fill="#B8D0FC"/>
<path d="M283.613 190.08H281.277L282.523 183.387H284.86L283.613 190.08Z" fill="#B8D0FC"/>
<path d="M286.796 190.08H284.459L285.797 182.902H288.133L286.796 190.08Z" fill="#B8D0FC"/>
<path d="M289.979 190.08H287.642L288.68 184.513H291.017L289.979 190.08Z" fill="#B8D0FC"/>
<path d="M305.325 190.08H302.989L305.016 179.19H307.356L305.325 190.08Z" fill="#364154"/>
<path d="M308.508 190.08H306.171L307.743 181.643H310.08L308.508 190.08Z" fill="#364154"/>
<path d="M311.691 190.08H309.354L310.994 181.284H313.331L311.691 190.08Z" fill="#364154"/>
<path d="M314.873 190.08H312.537L313.786 183.387H316.123L314.873 190.08Z" fill="#364154"/>
<path d="M318.059 190.08H315.723L317.06 182.902H319.397L318.059 190.08Z" fill="#364154"/>
<path d="M321.242 190.08H318.905L319.943 184.513H322.28L321.242 190.08Z" fill="#364154"/>
<path d="M316.575 154.528H308.967L309.165 153.493H316.77L316.575 154.528Z" fill="#B8D0FC"/>
<path d="M325.908 154.528H317.509L317.705 153.493H326.104L325.908 154.528Z" fill="#B8D0FC"/>
<path d="M331.896 154.528H326.54L326.735 153.493H332.091L331.896 154.528Z" fill="#B8D0FC"/>
<path d="M336.895 154.528H332.762L332.957 153.493H337.09L336.895 154.528Z" fill="#B8D0FC"/>
<path d="M315.742 158.949H308.134L308.329 157.914H315.937L315.742 158.949Z" fill="#B8D0FC"/>
<path d="M325.072 158.949H316.673L316.868 157.914H325.267L325.072 158.949Z" fill="#B8D0FC"/>
<path d="M331.06 158.949H325.707L325.902 157.914H331.255L331.06 158.949Z" fill="#B8D0FC"/>
<path d="M336.058 158.949H331.928L332.123 157.914H336.256L336.058 158.949Z" fill="#B8D0FC"/>
<path d="M321.095 152.111H309.426L309.621 151.075H321.294L321.095 152.111Z" fill="#B8D0FC"/>
<path d="M328.934 152.111H322.208L322.403 151.075H329.133L328.934 152.111Z" fill="#B8D0FC"/>
<path d="M337.356 152.111H329.885L330.08 151.075H337.552L337.356 152.111Z" fill="#B8D0FC"/>
<path d="M320.21 156.813H308.537L308.732 155.774H320.405L320.21 156.813Z" fill="#B8D0FC"/>
<path d="M328.049 156.813H321.32L321.515 155.774H328.245L328.049 156.813Z" fill="#B8D0FC"/>
<path d="M336.468 156.813H328.997L329.192 155.774H336.663L336.468 156.813Z" fill="#B8D0FC"/>
<path d="M314.906 163.373H307.297L307.493 162.338H315.101L314.906 163.373Z" fill="#B8D0FC"/>
<path d="M324.239 163.373H315.836L316.035 162.338H324.434L324.239 163.373Z" fill="#B8D0FC"/>
<path d="M330.223 163.373H324.87L325.065 162.338H330.422L330.223 163.373Z" fill="#B8D0FC"/>
<path d="M335.225 163.373H331.092L331.288 162.338H335.42L335.225 163.373Z" fill="#B8D0FC"/>
<path d="M319.374 161.234H307.701L307.896 160.198H319.569L319.374 161.234Z" fill="#B8D0FC"/>
<path d="M327.213 161.234H320.487L320.682 160.198H327.409L327.213 161.234Z" fill="#B8D0FC"/>
<path d="M335.635 161.234H328.164L328.359 160.198H335.831L335.635 161.234Z" fill="#B8D0FC"/>
<path d="M314.122 167.519H306.517L306.712 166.48H314.32L314.122 167.519Z" fill="#B8D0FC"/>
<path d="M323.455 167.519H315.056L315.251 166.48H323.65L323.455 167.519Z" fill="#B8D0FC"/>
<path d="M329.442 167.519H324.086L324.281 166.48H329.638L329.442 167.519Z" fill="#B8D0FC"/>
<path d="M334.44 167.519H330.308L330.506 166.48H334.639L334.44 167.519Z" fill="#B8D0FC"/>
<path d="M318.589 165.38H306.92L307.115 164.344H318.788L318.589 165.38Z" fill="#B8D0FC"/>
<path d="M326.432 165.38H319.703L319.898 164.344H326.628L326.432 165.38Z" fill="#B8D0FC"/>
<path d="M334.85 165.38H327.379L327.574 164.344H335.046L334.85 165.38Z" fill="#B8D0FC"/>
<path d="M296.813 180.808H293.086L293.184 180.303H296.907L296.813 180.808Z" fill="#B8D0FC"/>
<path d="M301.378 180.808H297.268L297.362 180.303H301.476L301.378 180.808Z" fill="#B8D0FC"/>
<path d="M296.402 182.973H292.68L292.774 182.465H296.497L296.402 182.973Z" fill="#B8D0FC"/>
<path d="M300.971 182.973H296.858L296.956 182.465H301.066L300.971 182.973Z" fill="#B8D0FC"/>
<path d="M299.022 179.627H293.311L293.405 179.118H299.12L299.022 179.627Z" fill="#B8D0FC"/>
<path d="M302.862 179.627H299.569L299.663 179.118H302.957L302.862 179.627Z" fill="#B8D0FC"/>
<path d="M298.589 181.928H292.878L292.972 181.42H298.683L298.589 181.928Z" fill="#B8D0FC"/>
<path d="M302.426 181.928H299.133L299.23 181.42H302.52L302.426 181.928Z" fill="#B8D0FC"/>
<path d="M326.637 180.808H322.915L323.012 180.303H326.735L326.637 180.808Z" fill="#B8D0FC"/>
<path d="M331.206 180.808H327.096L327.191 180.303H331.301L331.206 180.808Z" fill="#B8D0FC"/>
<path d="M326.23 182.973H322.507L322.602 182.465H326.325L326.23 182.973Z" fill="#B8D0FC"/>
<path d="M330.796 182.973H326.686L326.78 182.465H330.894L330.796 182.973Z" fill="#B8D0FC"/>
<path d="M328.85 179.627H323.139L323.233 179.118H328.947L328.85 179.627Z" fill="#B8D0FC"/>
<path d="M332.69 179.627H329.396L329.491 179.118H332.784L332.69 179.627Z" fill="#B8D0FC"/>
<path d="M328.417 181.928H322.703L322.8 181.42H328.511L328.417 181.928Z" fill="#B8D0FC"/>
<path d="M332.254 181.928H328.96L329.055 181.42H332.348L332.254 181.928Z" fill="#B8D0FC"/>
<path d="M346.449 272.699C346.319 274.469 343.803 274.489 340.949 274.162C338.095 273.835 338.857 274.55 334.861 274.605C330.864 274.66 329.488 273.346 329.296 272.78C329.123 272.275 331.047 271.851 333.107 271.353L333.884 271.162C336.205 270.573 337.741 268.848 339.742 267.339C341.623 265.909 344.047 260.737 344.047 260.737L349.505 260.491C349.505 260.491 347.207 265.129 346.345 267.126C345.837 268.301 346.052 269.747 346.273 270.854C346.413 271.459 346.472 272.079 346.449 272.699Z" fill="#F9A38F"/>
<path d="M340.949 274.162C338.099 273.838 338.857 274.55 334.861 274.605C330.864 274.66 329.488 273.346 329.296 272.78C329.123 272.275 331.047 271.851 333.107 271.353L333.129 271.391C334.952 272.258 336.976 272.618 338.987 272.434C341.668 272.168 344.402 271.055 346.254 270.854C346.398 271.458 346.461 272.078 346.442 272.699C346.319 274.469 343.803 274.489 340.949 274.162Z" fill="#131F2D"/>
<path d="M384.139 273.065C384.009 274.838 381.493 274.861 378.639 274.534C375.785 274.207 376.547 274.926 372.551 274.984C368.554 275.042 367.178 273.731 366.986 273.165C366.813 272.66 368.737 272.233 370.793 271.734C371.054 271.673 371.311 271.605 371.571 271.54C373.891 270.951 375.427 269.223 377.429 267.712C379.306 266.281 377.429 257.811 377.429 257.811L383.433 257.229C383.433 257.229 383.143 264.349 383.146 267.605C383.146 268.883 383.742 270.113 383.963 271.223C384.103 271.827 384.162 272.446 384.139 273.065Z" fill="#F9A38F"/>
<path d="M378.639 274.534C375.789 274.21 376.547 274.926 372.551 274.984C368.554 275.042 367.178 273.731 366.986 273.165C366.813 272.66 368.737 272.233 370.793 271.734L370.819 271.77C372.641 272.637 374.666 272.996 376.677 272.809C379.358 272.54 382.092 271.424 383.944 271.223C384.089 271.826 384.153 272.445 384.136 273.065C383.996 274.838 381.493 274.861 378.639 274.534Z" fill="#131F2D"/>
<path d="M366.621 126.669C365.587 122.443 367.084 120.472 368.437 119.426C369.088 117.87 369.807 116.75 370.556 116.326C371.923 115.556 373.556 115.471 374.698 115.536C374.447 115.328 374.147 115.187 373.826 115.125C374.536 115.022 376.104 115.721 376.104 115.721C385.968 111.941 387.517 126.381 387.308 129.737C387.1 133.094 387.133 137.045 392.261 139.689C402.053 144.732 389.007 163.742 389.007 163.742C389.254 161.03 376.674 146.722 370.113 142.437C368.515 140.097 367.946 135.964 367.904 135.641C368.18 138.919 368.743 140.757 369.248 141.79C366.273 139.049 365.827 132.475 366.621 126.669Z" fill="#131F2D"/>
<path d="M370.517 142.647C370.484 142.664 373.686 144.317 376.095 143.66C378.373 143.049 379.84 140.126 379.808 140.12C378.831 139.929 378.571 138.618 378.594 133L378.158 133.084L370.868 134.518C370.868 134.518 371.031 136.803 371.038 138.951C371.044 140.744 370.933 142.457 370.517 142.647Z" fill="#F9A38F"/>
<path d="M370.868 134.505C370.868 134.505 371.031 136.79 371.037 138.939C375.118 138.825 377.276 135.123 378.158 133.071L370.868 134.505Z" fill="#F9A38F"/>
<path d="M341.196 263.611C341.113 263.872 341.091 264.148 341.133 264.418C341.174 264.688 341.277 264.945 341.435 265.169C341.592 265.393 341.799 265.578 342.04 265.71C342.281 265.842 342.549 265.916 342.823 265.928L345.674 266.061L348.687 266.155C349.06 266.166 349.429 266.092 349.768 265.938C350.106 265.784 350.405 265.555 350.64 265.268C353.045 262.333 360.451 252.549 364.958 238.335C365.085 237.933 365.219 237.532 365.362 237.124C368.327 228.519 374.474 217.706 377.728 207.945C378.245 206.388 378.704 204.922 379.124 203.537C379.257 203.09 379.388 202.657 379.508 202.243C381.897 193.986 382.59 188.569 383.228 182.779L359.823 182.967C359.823 182.967 354.864 221.046 341.196 263.611Z" fill="#00A3FE"/>
<path d="M363.068 169.587C363.127 180.662 361.441 185.416 361.441 185.416C361.441 185.416 371.46 190.478 383.371 186.75L391.89 184.348C391.692 183.899 390.035 176.487 389.84 176.076C387.328 170.707 386.641 168.451 386.342 166.801C385.834 163.734 385.737 160.614 386.052 157.522C386.526 152.584 387.494 147.705 388.942 142.958C385.688 142.223 382.658 140.932 379.28 139.673C378.503 140.644 376.127 141.641 374.074 141.596C371.701 141.544 370.933 140.534 371.057 139.43C368.528 140.832 366.501 142.152 366.501 142.152C364.353 145.864 359.993 149.47 359.667 155.163C359.589 156.541 363.065 169.264 363.068 169.587Z" fill="white"/>
<path d="M383.195 170.807C384.217 172.248 386.179 181.002 391.061 182.102C388.545 175.863 386.635 173.128 386.335 171.212C385.827 167.641 385.73 164.024 386.046 160.431C384.419 157.583 383.195 155.632 383.195 155.632C383.065 155.172 380.592 147.583 379.808 154.366C379.023 161.15 382.043 169.199 383.195 170.807Z" fill="#4B9BA9"/>
<path d="M369.505 136.544C369.505 136.544 379.16 136.699 379.166 130.718C379.173 124.737 380.416 120.718 374.259 120.394C368.102 120.07 366.895 122.32 366.403 124.317C365.912 126.313 366.992 136.346 369.505 136.544Z" fill="#F9A38F"/>
<path d="M369.863 120.229C369.863 120.229 372.505 127.249 376.56 128.284C380.615 129.32 382.378 128.242 382.378 128.242C380.377 126.493 379.049 124.107 378.62 121.491C378.62 121.491 371.854 116.889 369.863 120.229Z" fill="#131F2D"/>
<path d="M370.517 120.799C370.517 120.799 368.542 122.365 368.06 123.889C367.578 125.414 367.363 128.546 366.433 128.443C366.433 128.443 364.441 123.672 366.677 120.973C369.065 118.129 370.517 120.799 370.517 120.799Z" fill="#131F2D"/>
<path d="M354.314 177.261L349.751 191.087L352.355 192.126L359.892 179.908L354.314 177.261Z" fill="#F9A38F"/>
<path d="M366.609 141.314C366.609 141.314 361.229 143.437 359.674 146.745C358.118 150.052 355.769 172.244 354.822 174.523C353.875 176.801 353.195 178.607 353.195 178.607C353.195 178.607 355.906 180.873 358.633 181.047C361.36 181.222 366.609 141.314 366.609 141.314Z" fill="#657285"/>
<path d="M371.044 139.408C371.044 139.408 365.456 153.133 365.294 155.913C365.131 158.694 364.643 201.333 364.643 201.333C364.643 201.333 364.968 203.275 361.193 202.476C357.418 201.676 356.429 200.841 356.429 200.841C356.429 200.841 360.041 174.539 359.055 165.39C358.069 156.24 366.615 141.317 366.615 141.317L371.044 139.408Z" fill="#657285"/>
<path d="M345.667 266.061L348.941 266.161C349.23 266.17 349.516 266.113 349.779 265.994C350.042 265.876 350.274 265.699 350.458 265.478C352.657 262.831 360.331 252.912 364.936 238.335C365.063 237.933 365.196 237.532 365.339 237.124C368.304 228.519 374.451 217.706 377.705 207.945C378.222 206.388 378.681 204.922 379.101 203.537C379.235 203.09 379.365 202.657 379.485 202.242L376.039 199.653C376.039 199.653 365.691 216.318 362.488 232.017C359.696 245.594 348.551 261.986 345.667 266.061Z" fill="#079ADB"/>
<path d="M375.671 233.432C375.616 240.646 375.958 256.734 376.843 264.588C376.881 264.936 377.047 265.257 377.309 265.49C377.571 265.723 377.91 265.851 378.262 265.851H380.702C381.734 265.851 382.502 265.851 383.016 265.834C383.231 265.832 383.439 265.756 383.604 265.618C383.769 265.481 383.881 265.291 383.921 265.08C386.348 252.782 388.086 242.581 389.359 233.759C390.423 226.373 391.37 220.043 392.099 214.593C392.827 209.142 393.338 204.518 393.524 200.637C393.55 200.026 393.573 199.43 393.582 198.854C393.592 198.278 393.582 197.708 393.582 197.161L373.361 195.203C373.624 208.563 375.704 229.001 375.671 233.432Z" fill="#00A3FE"/>
<path d="M380.703 265.851C381.63 265.851 382.33 265.851 382.85 265.851C383.112 265.847 383.365 265.754 383.566 265.588C383.766 265.421 383.903 265.19 383.954 264.935C386.365 252.717 388.093 242.555 389.359 233.771C390.423 226.386 391.37 220.056 392.099 214.606C392.828 209.155 393.339 204.531 393.524 200.65L386.101 204.99C386.101 204.99 390.839 206.65 389.03 219.23C387.221 231.81 383.218 264.071 380.703 265.851Z" fill="#079ADB"/>
<path d="M379.765 200.511C379.765 200.511 381.191 205.631 386.117 204.977C391.044 204.324 398.054 201.382 398.054 201.382C398.054 201.382 395.948 194.763 393.329 186.07C390.159 175.542 386.235 161.972 384.386 153.415C383.941 151.494 383.605 149.549 383.381 147.589L379.29 139.702C379.29 139.702 373.195 153.295 372.866 156.739C372.538 160.182 379.765 200.511 379.765 200.511Z" fill="#657285"/>
<path d="M384.669 156.214L379.274 139.689C379.274 139.689 386.088 141.702 389.512 143.421C389.512 143.421 391.65 146.162 392.971 152.483C392.971 152.483 394.37 167.671 391.249 173.225C391.249 173.225 381.392 175.186 365.623 169.794V166.202C365.623 166.202 382.87 167.102 386.404 167.497L384.669 156.214Z" fill="#F9A38F"/>
<path d="M379.967 163.917C380.188 169.471 381.503 180.254 393.218 186.025L393.312 186.07C390.143 175.542 386.218 161.972 384.37 153.415C382.215 156.613 379.846 160.849 379.967 163.917Z" fill="#5C6877"/>
<path d="M379.274 139.689C379.274 139.689 389.277 140.388 391.685 145.725C394.093 151.062 394.861 168.817 391.796 174.044C391.796 174.044 387.565 175.241 380.107 173.853L379.83 173.801C379.83 173.801 377.448 168.001 379.586 166.856C379.586 166.856 385.883 167.179 385.226 165.115C384.568 163.05 379.274 139.689 379.274 139.689Z" fill="#657285"/>
<path d="M354.194 168.422L354.487 169.364L370.901 164.286C370.966 164.207 371.01 164.113 371.03 164.012C371.049 163.911 371.043 163.808 371.012 163.71C370.992 163.614 370.942 163.528 370.869 163.462C370.797 163.396 370.705 163.355 370.608 163.344L354.194 168.422Z" fill="#B53C37"/>
<path d="M353.006 169.312L354.194 168.422L354.486 169.367L353.006 169.312Z" fill="#B53C37"/>
<path d="M350.399 190.711C350.399 190.711 346.237 192.999 345.687 194.744C345.137 196.488 345.518 200.136 346.179 200.084C346.839 200.032 347.825 196.158 348.372 195.877C348.919 195.595 349.674 194.789 349.674 195.388C349.674 195.987 349.127 197.077 349.4 197.239C349.674 197.401 350.552 195.715 351.154 195.388C351.756 195.061 352.01 192.365 352.596 191.643C353.182 190.922 350.399 190.711 350.399 190.711Z" fill="#F9A38F"/>
<path d="M365.623 166.202C365.623 166.202 361.897 163.936 360.335 164.26C358.773 164.584 354.802 167.477 356.706 168.098C358.61 168.72 360.172 168.069 360.911 168.519C361.649 168.969 362.189 169.794 365.623 169.785C369.056 169.775 365.623 166.202 365.623 166.202Z" fill="#F9A38F"/>
<g opacity="0.6">
<path opacity="0.6" d="M185.275 274.091H185.213C185.04 274.091 184.875 274.022 184.753 273.901C184.631 273.78 184.562 273.615 184.562 273.443L185.538 231.299L188.418 230.975L185.961 273.456C185.947 273.628 185.868 273.788 185.741 273.905C185.614 274.023 185.448 274.089 185.275 274.091Z" fill="#6CA3EA"/>
<path opacity="0.6" d="M168.49 274.091H168.428C168.255 274.091 168.09 274.022 167.967 273.901C167.845 273.78 167.777 273.615 167.777 273.443L168.753 231.299L171.633 230.975L169.186 273.437C169.175 273.613 169.097 273.779 168.968 273.901C168.838 274.022 168.667 274.09 168.49 274.091Z" fill="#6CA3EA"/>
<path opacity="0.6" d="M214.803 274.091H214.865C215.038 274.091 215.203 274.022 215.325 273.901C215.447 273.78 215.516 273.615 215.516 273.443L214.54 231.299L211.66 230.975L214.117 273.456C214.132 273.628 214.211 273.787 214.337 273.905C214.464 274.022 214.63 274.088 214.803 274.091Z" fill="#6CA3EA"/>
<path opacity="0.6" d="M166.583 228.674V199.796C166.582 198.587 166.821 197.39 167.286 196.274C167.751 195.157 168.432 194.142 169.291 193.288C170.15 192.433 171.17 191.755 172.293 191.292C173.416 190.83 174.619 190.591 175.834 190.591H196.755C197.971 190.591 199.174 190.83 200.297 191.292C201.419 191.755 202.439 192.433 203.299 193.288C204.158 194.142 204.839 195.157 205.304 196.274C205.769 197.39 206.008 198.587 206.007 199.796V229.784L166.583 228.674Z" fill="#6CA3EA"/>
<path opacity="0.6" d="M166.583 228.674H209.756V233.234H171.171C169.955 233.234 168.789 232.754 167.929 231.899C167.069 231.043 166.586 229.884 166.586 228.674H166.583Z" fill="#6CA3EA"/>
<path opacity="0.6" d="M214.361 228.674H184.272C183.007 228.674 181.981 229.694 181.981 230.953V230.956C181.981 232.214 183.007 233.234 184.272 233.234H214.361C215.626 233.234 216.652 232.214 216.652 230.956V230.953C216.652 229.694 215.626 228.674 214.361 228.674Z" fill="#6CA3EA"/>
</g>
<path d="M237.462 257.294C237.755 258.747 239.835 258.504 242.158 257.941C244.482 257.378 243.932 258.048 247.238 257.682C250.544 257.316 251.55 256.09 251.651 255.601C251.742 255.167 250.105 255.015 248.351 254.815L247.7 254.734C245.718 254.488 244.27 253.219 242.47 252.174C240.768 251.203 238.24 247.16 238.24 247.16L233.704 247.516C233.704 247.516 236.082 251.112 237.003 252.675C237.547 253.598 237.518 254.811 237.449 255.753C237.384 256.265 237.388 256.783 237.462 257.294Z" fill="#F9A38F"/>
<path d="M242.158 257.941C244.482 257.375 243.932 258.048 247.238 257.682C250.544 257.316 251.55 256.09 251.651 255.601C251.742 255.167 250.105 255.015 248.351 254.815V254.847C246.934 255.751 245.298 256.258 243.616 256.313C241.371 256.365 238.992 255.727 237.433 255.753C237.375 256.266 237.387 256.784 237.469 257.294C237.755 258.737 239.835 258.494 242.158 257.941Z" fill="#131F2D"/>
<path d="M198.474 263.766C197.572 264.944 199.124 266.336 201.093 267.695C203.062 269.055 202.187 269.087 204.65 271.314C207.114 273.54 208.698 273.476 209.134 273.226C209.57 272.977 208.555 271.686 207.55 270.246C207.419 270.068 207.296 269.883 207.169 269.699C206.046 268.061 206.043 266.139 205.643 264.106C205.259 262.184 208.418 255.112 208.418 255.112L203.345 254.465C203.345 254.465 202.694 258.734 202.112 260.456C201.786 261.469 200.368 262.135 199.613 262.705C199.186 263.005 198.803 263.363 198.474 263.766Z" fill="#F9A38F"/>
<path d="M201.11 267.708C203.062 269.068 202.203 269.1 204.667 271.327C207.13 273.553 208.715 273.489 209.151 273.239C209.587 272.99 208.572 271.699 207.566 270.259H207.527C205.91 269.799 204.449 268.914 203.297 267.695C201.77 266.058 200.693 263.86 199.636 262.721C199.21 263.018 198.827 263.37 198.497 263.77C197.573 264.957 199.131 266.356 201.11 267.708Z" fill="#131F2D"/>
<path d="M219.2 227.629L214.566 240.034L208.513 256.232C207.432 256.313 206.346 256.214 205.298 255.941C204.203 255.569 203.159 255.064 202.19 254.436C202.19 254.436 203.869 237.043 207.003 227.059C207.807 224.496 208.708 222.425 209.701 221.256C214.559 215.544 219.2 227.629 219.2 227.629Z" fill="#2C3747"/>
<path d="M214.488 207.929C211.452 206.958 202.301 207.534 193.599 209.223L192.268 206.903L173.472 205.443C173.472 205.443 167.266 219.127 170.667 227.842C171.165 229.137 172.157 229.946 173.846 229.972H174.123H188.939C198.285 229.972 208.718 223.583 210.069 223.315C212.278 222.875 213.163 227.27 215.37 231.881C217.576 236.493 236.138 252.316 236.138 252.316C236.138 252.316 238.989 252.345 240.167 251.905C241.436 251.432 241.898 250.818 241.898 250.818C241.898 250.818 221.335 210.126 214.488 207.929Z" fill="#364154"/>
<path d="M185.685 150.337C183.039 149.709 179.447 150.444 178.851 150.515C171.715 151.344 170.12 162.367 170.651 165.451C171.627 171.134 168.884 172.736 165.607 177.283C159.04 186.397 163.576 193.902 168.923 195.763C172.131 196.877 176.502 193.841 176.502 193.841C176.583 193.87 187.849 183.161 193.423 177.982C202.792 174.134 192.424 151.933 185.685 150.337Z" fill="#131F2D"/>
<path d="M187.211 176.332C187.247 176.332 184.308 178.251 181.91 177.85C179.658 177.474 177.272 174.549 177.305 174.539C178.213 174.264 179.02 173.206 178.451 167.742L178.88 167.785L186.078 168.471C186.078 168.471 186.14 170.697 186.345 172.778C186.518 174.539 186.791 176.186 187.211 176.332Z" fill="#F9A38F"/>
<path d="M186.079 168.48C186.079 168.48 186.14 170.707 186.345 172.788C182.385 173.073 179.935 169.694 178.88 167.794L186.079 168.48Z" fill="#F9A38F"/>
<path d="M187.598 170.322C187.598 170.322 178.265 171.406 177.679 165.616C177.093 159.826 175.486 156.066 181.422 155.127C187.357 154.188 188.74 156.282 189.407 158.169C190.074 160.056 190.009 169.888 187.598 170.322Z" fill="#F9A38F"/>
<path d="M188.291 155.195C188.291 155.195 183.784 161.61 179.961 163.008C176.137 164.406 174.324 163.525 174.324 163.525C175.535 161.733 176.361 159.711 176.752 157.587C176.837 157.089 177.055 156.622 177.382 156.236C177.709 155.85 178.134 155.557 178.613 155.389C181.357 154.434 186.648 152.978 188.291 155.195Z" fill="#131F2D"/>
<path d="M184.568 155.671C184.568 155.671 186.976 157.04 187.94 158.26C188.903 159.48 189.86 162.577 189.716 163.959C189.716 163.959 191.233 157.373 188.802 154.975C186.225 152.434 184.568 155.671 184.568 155.671Z" fill="#131F2D"/>
<path d="M194.39 191.695C194.107 210.44 194.312 206.524 192.248 208.304C191.751 208.731 190.354 208.987 188.516 209.107C182.736 209.489 172.57 208.54 172.19 207.489C170.855 203.812 171.799 202.67 170.686 197.045C170.569 196.447 170.426 195.8 170.257 195.103C169.329 191.239 168.428 189.925 171.718 183.714C174.702 178.089 177.923 173.597 178.203 173.762C186.075 178.41 186.586 174.429 186.586 174.429C186.586 174.429 194.526 182.549 194.39 191.695Z" fill="#00A3FE"/>
<path d="M214.566 240.034L208.383 256.905C208.383 256.905 206.157 257.627 204.539 257.394C203.594 257.275 202.704 256.88 201.985 256.258C201.985 256.258 203.876 237.043 207.009 227.059L214.566 240.034Z" fill="#364154"/>
<path d="M186.589 174.406C186.589 174.406 194.689 175.772 195.639 179.241C196.589 182.711 203.547 201.825 203.547 201.825C203.547 201.825 198.07 203.838 196.166 201.945C194.263 200.051 189.547 184.391 189.547 184.391L186.589 174.406Z" fill="#00A3FE"/>
<path d="M188.516 209.107C182.736 209.489 172.57 208.54 172.189 207.489C170.855 203.812 171.799 202.67 170.686 197.045L173.397 190.896C173.397 190.896 173.013 197.922 175.59 200.207C178.167 202.492 186.147 204.621 187.4 206.534C187.944 207.307 188.324 208.183 188.516 209.107Z" fill="#079ADB"/>
<path d="M188.988 205.107C188.988 205.107 190.709 206.582 191.197 206.702C191.449 206.776 191.717 206.776 191.969 206.702L190.713 205.239L188.988 205.107Z" fill="#F9A38F"/>
<path d="M188.304 203.366L192.665 204.485C192.606 204.596 192.52 204.69 192.414 204.758C192.307 204.825 192.185 204.864 192.06 204.87C191.451 204.885 190.842 204.844 190.24 204.747L188.304 203.366Z" fill="#F9A38F"/>
<path d="M180.914 205.757C180.914 205.757 187.136 203.003 188.304 203.366C189.473 203.728 192.47 205.307 192.938 205.955C193.407 206.602 190.485 205.874 189.573 205.815C188.981 205.78 187.621 206.586 186.928 206.977C184.061 208.615 182.069 208.469 182.069 208.469L180.914 205.757Z" fill="#F9A38F"/>
<path d="M178.203 173.74C178.203 173.74 169.397 175.38 167.767 177.808C164.21 183.102 156.635 205.042 160.878 207.984C165.655 211.295 182.619 208.851 182.619 208.851C182.619 208.851 183.182 206.226 182.398 204.968C181.614 203.709 168.848 201.628 168.259 201.048C167.67 200.469 174.08 191.986 173.397 190.368C171.21 185.174 178.203 173.74 178.203 173.74Z" fill="#00A3FE"/>
<path d="M213.004 204.822C213.004 204.822 219.164 206.476 219.798 207.411C220.433 208.346 221.673 211.269 221.618 212.029C221.562 212.79 219.883 210.528 219.255 209.948C218.845 209.573 217.368 209.353 216.652 209.236C214.82 208.942 213.938 208.107 213.251 207.693C212.94 207.522 212.587 207.444 212.232 207.466L213.004 204.822Z" fill="#F9A38F"/>
<path d="M219.258 209.094C219.258 209.094 219.633 211.178 219.909 211.554C220.045 211.756 220.237 211.915 220.462 212.01L220.42 210.211L219.258 209.094Z" fill="#F9A38F"/>
<path d="M219.798 207.427L222.301 210.803C222.195 210.847 222.079 210.863 221.965 210.849C221.851 210.835 221.743 210.793 221.65 210.725C221.198 210.379 220.779 209.991 220.4 209.566L219.798 207.427Z" fill="#F9A38F"/>
<path d="M213.241 207.709C213.241 207.709 213.811 209.087 214.953 209.583C216.095 210.078 216.928 210.819 217.114 210.554C217.299 210.288 216.248 208.88 216.248 208.88L213.241 207.709Z" fill="#F9A38F"/>
<path d="M201.91 197.304L214.868 205.45C214.868 205.45 213.508 207.262 213.053 207.427C210.654 208.301 199.863 207.463 196.167 201.945L201.91 197.304Z" fill="#00A3FE"/>
<path d="M196.775 206.159C197.54 206.159 205.145 205.634 205.145 205.634C205.145 205.634 204.927 206.974 205.398 207.693L197.985 209.1L196.462 208.657L196.775 206.159Z" fill="#FDDBBA"/>
<path d="M184.09 207.372L196.781 206.159C196.781 206.159 196.336 208.492 197.992 209.1L183.999 210.12C183.999 210.12 182.886 208.541 184.09 207.372Z" fill="#FF912B"/>
<path d="M205.125 205.799L196.554 206.447C196.554 206.447 196.616 206.152 196.775 206.149C196.934 206.146 205.291 205.54 205.291 205.54L205.262 205.773L205.125 205.799Z" fill="#FF912B"/>
<path d="M197.986 209.1L205.535 207.673L205.467 207.479L197.419 209.013L197.986 209.1Z" fill="#FF912B"/>
<path d="M110.129 274.023H110.06C109.965 274.022 109.87 274.003 109.782 273.966C109.694 273.929 109.615 273.874 109.548 273.806C109.481 273.738 109.429 273.658 109.394 273.569C109.359 273.481 109.342 273.386 109.344 273.291L110.431 226.224L113.627 225.852L110.9 273.288C110.892 273.486 110.807 273.673 110.663 273.809C110.519 273.946 110.328 274.023 110.129 274.023Z" fill="#6CA3EA"/>
<path d="M91.4986 274.023H91.4432C91.3476 274.023 91.2528 274.004 91.1647 273.967C91.0765 273.93 90.9967 273.875 90.93 273.807C90.8632 273.739 90.8109 273.658 90.7761 273.57C90.7413 273.481 90.7247 273.386 90.7273 273.291L91.8012 226.224L94.9968 225.852L92.2698 273.288C92.2614 273.486 92.1765 273.673 92.0327 273.809C91.889 273.946 91.6976 274.023 91.4986 274.023Z" fill="#6CA3EA"/>
<path d="M142.908 274.023H142.977C143.072 274.023 143.167 274.004 143.255 273.967C143.343 273.93 143.423 273.875 143.49 273.807C143.557 273.739 143.609 273.658 143.644 273.57C143.679 273.481 143.695 273.386 143.693 273.291L142.609 226.224L139.41 225.852L142.137 273.288C142.146 273.486 142.231 273.673 142.374 273.809C142.518 273.946 142.709 274.023 142.908 274.023Z" fill="#6CA3EA"/>
<path d="M89.3799 223.311V191.064C89.3761 189.719 89.6387 188.386 90.1527 187.142C90.6668 185.898 91.4222 184.766 92.3759 183.812C93.3295 182.859 94.4628 182.101 95.7109 181.583C96.9591 181.064 98.2976 180.795 99.6502 180.792H122.875C124.228 180.795 125.566 181.064 126.815 181.583C128.063 182.101 129.196 182.859 130.15 183.812C131.103 184.766 131.859 185.898 132.373 187.142C132.887 188.386 133.149 189.719 133.146 191.064V224.545L89.3799 223.311Z" fill="#6CA3EA"/>
<path d="M89.3799 223.311H137.308V228.402H94.4987C93.1411 228.402 91.8391 227.866 90.8792 226.911C89.9192 225.956 89.3799 224.662 89.3799 223.311Z" fill="#6CA3EA"/>
<path d="M142.4 223.311H109.035C107.621 223.311 106.474 224.451 106.474 225.857C106.474 227.263 107.621 228.402 109.035 228.402H142.4C143.815 228.402 144.962 227.263 144.962 225.857C144.962 224.451 143.815 223.311 142.4 223.311Z" fill="#6CA3EA"/>
<path d="M124.438 168.878C124.438 168.878 122.485 170.526 122.072 174.791C121.746 178.028 124.024 203.171 125.71 205.171C130.494 210.793 136.488 208.408 138.837 209.272L141.05 207.291C141.05 207.291 133.263 201.576 132.671 199.708C130.39 192.53 131.795 171.591 124.438 168.878Z" fill="#657285"/>
<path d="M123.041 148.373C123.041 148.373 123.172 143.761 117.057 142.855C110.942 141.948 109.247 143.372 108.212 144.923C107.177 146.473 105.225 152.81 105.42 155.328C105.615 157.846 112.579 160.965 112.475 162.448C112.371 163.93 123.041 148.373 123.041 148.373Z" fill="#131F2D"/>
<path d="M151.405 270.045C151.207 271.605 153.341 272.061 155.828 272.278C158.314 272.495 157.543 272.984 160.933 273.734C164.324 274.485 165.727 273.589 165.99 273.133C166.254 272.676 164.659 272.019 162.997 271.226L162.365 270.922C160.494 270.006 159.489 268.239 158.06 266.585C156.709 265.016 155.548 260.113 155.548 260.113L150.946 258.941C150.946 258.941 152.092 263.359 152.479 265.242C152.704 266.349 152.267 267.563 151.887 268.479C151.657 268.977 151.495 269.504 151.405 270.045Z" fill="#F9A38F"/>
<path d="M155.827 272.278C158.314 272.495 157.542 272.984 160.933 273.734C164.324 274.485 165.727 273.589 165.99 273.133C166.254 272.676 164.659 272.019 162.996 271.226L162.967 271.255C161.265 271.687 159.475 271.644 157.796 271.129C155.561 270.424 153.426 268.98 151.887 268.482C151.657 268.979 151.495 269.505 151.405 270.045C151.206 271.605 153.341 272.061 155.827 272.278Z" fill="#131F2D"/>
<path d="M116.946 206.515C116.946 206.515 147.715 209.686 152.785 214.373C157.855 219.059 156.953 262.695 156.953 262.695C156.163 263.508 155.583 263.491 154.334 263.391C153.136 263.3 150.696 262.274 150.696 262.274C150.696 262.274 144.106 240.846 144.024 235.885C143.943 230.923 142.902 222.506 140.809 222.007C138.717 221.509 113.799 224.273 111.076 216.466C108.352 208.66 112.879 202.204 112.879 202.204L116.946 206.515Z" fill="#079ADB"/>
<path d="M102.576 214.385C103.903 215.269 106.276 216.631 110.259 216.771C117.386 217.03 126.279 216.185 128.03 214.541C128.486 214.117 128.707 213.411 128.769 212.521C128.964 209.799 127.656 205.327 126.781 201.621C126.211 199.216 125.824 197.139 126.13 196.074C127.106 192.838 130.103 186.251 130.36 184.099C130.617 181.947 128.02 170.328 124.428 168.888C120.835 167.448 106.966 168.888 106.966 168.888C101.551 169.982 101.323 181.471 103.122 191.248C103.168 191.501 103.214 191.75 103.262 191.999C105.221 201.916 98.8725 211.916 102.576 214.385Z" fill="#657285"/>
<path d="M120.49 170.992C120.392 171.623 118.658 172.646 114.958 171.675C111.401 170.743 110.968 169.587 110.968 168.833C110.968 167.933 112.511 166.72 112.491 161.189L112.918 161.273L120.077 162.681C120.077 162.681 119.914 164.924 119.908 167.034C119.914 168.807 120.653 169.943 120.49 170.992Z" fill="#F9A38F"/>
<path d="M120.08 162.681C120.08 162.681 119.917 164.924 119.911 167.034C115.905 166.924 113.786 163.286 112.917 161.273L120.08 162.681Z" fill="#F9A38F"/>
<path d="M121.424 164.681C121.424 164.681 111.945 164.836 111.945 158.962C111.945 153.088 110.711 149.156 116.764 148.806C122.817 148.457 123.995 150.7 124.477 152.658C124.958 154.616 123.891 164.49 121.424 164.681Z" fill="#F9A38F"/>
<path d="M121.073 148.664C121.073 148.664 118.469 155.554 114.493 156.574C110.516 157.593 108.782 156.528 108.782 156.528C110.748 154.812 112.053 152.469 112.472 149.9C112.472 149.9 119.104 145.382 121.073 148.664Z" fill="#131F2D"/>
<path d="M120.428 149.224C120.428 149.224 122.381 150.761 122.84 152.256C123.298 153.752 123.526 156.833 124.428 156.726C124.428 156.726 126.38 152.043 124.187 149.392C121.857 146.583 120.428 149.224 120.428 149.224Z" fill="#131F2D"/>
<path d="M128.297 271.327C128.274 272.896 130.448 273.107 132.944 273.039C135.44 272.971 134.724 273.544 138.177 273.9C141.63 274.256 142.925 273.207 143.133 272.722C143.322 272.291 141.688 271.77 139.947 271.171L139.296 270.941C137.344 270.246 136.136 268.605 134.532 267.123C133.006 265.708 136.351 258.928 136.351 258.928L131.958 256.766C131.958 256.766 131.125 261.621 130.051 265.857C129.774 266.951 128.87 268.77 128.596 269.718C128.425 270.239 128.324 270.78 128.297 271.327Z" fill="#F9A38F"/>
<path d="M102.765 213.217C104.092 214.101 106.276 216.631 110.249 216.777C116.823 215.292 124.308 213.56 128.759 212.528C128.955 209.806 127.646 205.333 126.771 201.628C121.564 203.204 113.852 197.835 111.255 195.711C108.528 193.482 108.613 186.054 108.613 186.054L103.123 191.232C103.168 191.485 103.214 191.734 103.263 191.983C105.222 201.916 99.0615 210.748 102.765 213.217Z" fill="#5C6877"/>
<path d="M132.944 273.039C135.437 272.967 134.724 273.544 138.177 273.9C141.63 274.256 142.925 273.207 143.133 272.722C143.322 272.291 141.688 271.77 139.947 271.171L139.921 271.204C138.28 271.826 136.497 271.988 134.77 271.67C132.469 271.226 130.188 270.051 128.603 269.728C128.429 270.251 128.326 270.795 128.297 271.346C128.274 272.896 130.448 273.107 132.944 273.039Z" fill="#131F2D"/>
<path d="M110.317 208.379C118.128 208.159 141.46 209.997 145.941 213.372C151.473 217.509 135.7 262.242 135.7 262.242C134.899 262.327 134.094 262.365 133.289 262.355C130.786 262.074 129.768 261.313 129.768 261.313C129.768 261.313 129.826 234.982 131.668 229.946C133.37 225.292 134.415 223.648 132.283 223.37C130.152 223.091 103.545 226.467 101.323 218.48C99.5883 212.24 102.153 206.463 102.153 206.463C102.153 206.463 103.103 208.583 110.317 208.379Z" fill="#00A3FE"/>
<path d="M106.976 168.878C106.976 168.878 101.551 169.338 101.118 173.604C100.793 176.84 98.4366 199.818 100.142 201.812C104.922 207.434 120.871 208.628 123.221 209.479L123.871 206.822C123.871 206.822 106.849 198.291 107.106 196.352C107.363 194.414 112.182 168.111 106.976 168.878Z" fill="#657285"/>
<path d="M111.167 145.175C111.167 145.175 111.554 142.712 108.124 142.078C104.694 141.443 104.629 148.693 104.261 150.441C103.894 152.188 104.811 153.234 106.12 153.353C107.428 153.473 111.167 145.175 111.167 145.175Z" fill="#131F2D"/>
<path d="M124.057 206.705C124.057 206.705 128.906 205.34 130.061 205.657C131.216 205.974 135.173 208.57 134.617 209.291C134.06 210.013 130.575 208.867 128.971 209.081C127.367 209.295 126.127 210.084 124.971 209.913C124.167 209.777 123.376 209.569 122.609 209.291L124.057 206.705Z" fill="#F9A38F"/>
<path d="M124.057 206.706C124.057 206.706 126.429 205.492 127.106 204.803C127.126 204.783 127.15 204.767 127.177 204.758C127.204 204.749 127.232 204.746 127.26 204.749C127.288 204.752 127.315 204.761 127.339 204.776C127.363 204.791 127.384 204.811 127.399 204.835C127.581 205.12 127.75 205.667 126.917 206.21C125.72 206.997 124.057 206.706 124.057 206.706Z" fill="#F9A38F"/>
<path d="M141.05 207.291C141.05 207.291 146.081 207.566 147.071 208.24C148.06 208.913 150.953 212.657 150.195 213.146C149.436 213.635 146.511 211.44 144.923 211.126C143.335 210.812 141.906 211.156 140.868 210.622C140.151 210.234 139.471 209.783 138.837 209.272L141.05 207.291Z" fill="#F9A38F"/>
<path d="M106.484 274.447H86.0119C85.0356 273.252 85.3903 268.844 85.54 267.404C85.5693 267.113 85.5921 266.945 85.5921 266.945C85.5921 266.945 92.5821 261.384 93.5421 265.65C93.5714 265.786 93.6072 265.915 93.6462 266.045C94.8568 270.026 100.282 271.838 103.409 272.34C105.452 272.647 106.207 273.699 106.484 274.447Z" fill="#131F2D"/>
<path d="M50.2906 209.181C51.0293 209.181 85.3579 215.589 91.0364 222.58C93.8741 226.072 94.2906 266.404 94.2906 266.404C94.2906 266.404 90.7794 270.731 83.2003 268.22C83.2003 268.22 77.6422 240.626 78.0522 232.257C78.1661 229.943 54.5992 231.933 50.2841 230.81C45.9691 229.687 35.4352 220.366 37.7489 215.819C40.0627 211.272 50.2906 209.181 50.2906 209.181Z" fill="#2C3747"/>
<path d="M75.4977 206.382C75.4977 206.382 77.6943 208.265 79.9462 208.799C81.0567 209.038 82.1453 209.368 83.2004 209.787C85.2376 210.719 89.1068 214.871 88.7326 215.288C87.5806 216.612 82.9368 213.165 82.0484 213.408C81.1601 213.651 83.5031 215.654 82.5756 216.201C82.0875 216.483 81.1731 214.751 80.314 214.508C79.1555 214.185 78.3875 212.437 78.036 212.321C77.3624 212.088 74.541 209.573 74.541 209.573L75.4977 206.382Z" fill="#F9A38F"/>
<path d="M115.524 274.447H95.0617C94.0854 273.252 94.4401 268.844 94.5866 267.404C94.6191 267.113 94.6386 266.945 94.6386 266.945C94.6386 266.945 101.632 261.384 102.592 265.65C102.621 265.786 102.657 265.915 102.696 266.045C103.903 270.026 109.331 271.838 112.459 272.34C114.502 272.647 115.254 273.699 115.524 274.447Z" fill="#131F2D"/>
<path d="M60.7397 208.275C61.4784 208.275 95.807 214.686 101.486 221.677C104.323 225.169 104.74 265.501 104.74 265.501C104.74 265.501 101.235 269.828 93.6559 267.326C93.6559 267.326 88.0978 239.73 88.5078 231.36C88.6217 229.046 65.0515 231.037 60.7397 229.917C56.4279 228.797 45.8843 219.463 48.2078 214.916C50.5313 210.369 60.7397 208.275 60.7397 208.275Z" fill="#364154"/>
<path d="M58.5921 166.788C56.107 166.535 53.6585 166.004 51.293 165.205C48.4976 164.302 46.2425 162.985 47.6938 160.441C49.0346 158.098 51.2019 152.862 51.0554 148.525L56.2621 152.696L59.7994 155.532C59.7514 157.071 59.6178 158.606 59.3992 160.131C59.3276 160.665 59.2462 161.241 59.1486 161.856C59.11 162.099 59.1444 162.348 59.2474 162.572C59.3504 162.796 59.5176 162.984 59.7279 163.114L59.8092 163.163C60.1862 163.396 60.4732 163.749 60.6238 164.165C60.7743 164.58 60.7797 165.034 60.6391 165.453C60.4984 165.872 60.2199 166.232 59.8485 166.474C59.4771 166.716 59.0345 166.827 58.5921 166.788Z" fill="#F9A38F"/>
<path d="M59.7959 154.842C59.7959 154.842 59.9782 155.447 59.6658 157.687C56.5124 157.176 53.5674 154.677 53.5674 154.677C55.1717 154.237 55.7542 152.512 56.9517 152.674L59.7959 154.842Z" fill="#F9A38F"/>
<path d="M62.7121 155.347C62.7121 155.347 50.5869 157.35 49.4479 149.819C48.309 142.288 45.979 137.479 53.6784 135.88C61.3778 134.281 63.3141 136.932 64.3099 139.353C65.3056 141.774 65.8361 154.638 62.7121 155.347Z" fill="#F9A38F"/>
<path d="M66.0865 136.026C66.6072 137.838 65.2144 140.049 62.8746 140.774C59.4024 141.855 60.1671 146.091 58.6051 146.033C57.0431 145.974 56.4118 143.599 55.0255 145.499C53.8345 147.117 56.0018 149.039 55.8651 149.926C55.608 151.454 53.2032 154.574 51.0391 154.415C48.8751 154.256 44.8236 144.026 45.6339 140.861C46.4442 137.696 49.6854 134.356 52.7508 133.896C55.8163 133.437 60.0793 134.754 61.062 134.754C62.0448 134.754 65.8034 135.048 66.0865 136.026Z" fill="#131F2D"/>
<path d="M69.0931 206.019C68.8914 207.757 68.5237 208.932 67.9444 209.324C66.1383 210.528 63.74 212.023 61.065 213.505C51.579 218.768 38.5948 223.842 35.9524 214.952C32.8479 204.511 34.8883 184.905 37.9309 172.727C39.6817 165.713 44.5272 158.35 47.8042 158.357C53.3819 158.357 61.4067 159.833 64.6479 167.781C65.9008 170.859 67.7426 181.53 68.6831 191.3C69.2461 197.126 69.4869 202.628 69.0931 206.019Z" fill="#00A3FE"/>
<path d="M47.2412 158.425L48.5038 155.593C48.5038 155.593 59.7081 156.729 61.6085 163.131C61.6085 163.131 52.9491 158.561 47.2412 158.425Z" fill="#016EB9"/>
<path d="M69.0936 206.019C68.8918 207.757 68.5241 208.932 67.9449 209.324C66.1388 210.528 63.7404 212.023 61.0655 213.505C58.2734 211.819 52.5427 207.793 51.202 203.045C49.4513 196.841 50.6781 189.206 50.6781 189.206L69.0936 206.019Z" fill="#079ADB"/>
<path d="M49.5127 167.969C49.5127 167.969 50.489 194.637 52.0087 199.909C54.612 208.903 78.3254 212.104 78.3254 212.104C78.3254 212.104 79.7247 210.528 79.0999 207.913C79.0999 207.913 64.9213 196.799 64.508 194.682C64.0948 192.566 67.5963 178.228 63.5904 173.015C59.5844 167.801 52.2039 163.289 49.5127 167.969Z" fill="#00A3FE"/>
<path d="M19.7793 274.181H19.7012C19.5545 274.183 19.4091 274.154 19.2741 274.097C19.1391 274.04 19.0175 273.956 18.9169 273.85C18.8162 273.744 18.7389 273.618 18.6896 273.481C18.6403 273.343 18.6202 273.197 18.6306 273.052L22.8903 230.732L26.6066 231.056L20.5017 273.608C20.4739 273.776 20.3846 273.927 20.2512 274.033C20.1178 274.139 19.9496 274.191 19.7793 274.181Z" fill="#6CA3EA"/>
<path d="M41.7095 274.181H41.6314C41.4847 274.183 41.3393 274.154 41.2043 274.097C41.0693 274.04 40.9476 273.956 40.847 273.85C40.7464 273.744 40.669 273.618 40.6198 273.481C40.5705 273.343 40.5504 273.197 40.5608 273.052L44.8205 230.732L48.54 231.056L42.4189 273.608C42.3913 273.773 42.3039 273.923 42.1732 274.028C42.0426 274.134 41.8776 274.188 41.7095 274.181Z" fill="#6CA3EA"/>
<path d="M82.8813 274.181H82.9594C83.1061 274.183 83.2515 274.154 83.3865 274.097C83.5215 274.04 83.6432 273.956 83.7438 273.85C83.8444 273.744 83.9218 273.618 83.9711 273.481C84.0203 273.343 84.0404 273.197 84.0301 273.052L79.7703 230.732L76.0508 231.056L82.1687 273.602C82.1956 273.768 82.283 273.919 82.4144 274.026C82.5457 274.133 82.7118 274.188 82.8813 274.181Z" fill="#6CA3EA"/>
<path d="M20.9831 224.739L16.9381 189.394C16.4077 184.3 18.1226 179.313 25.5129 178.924L38.5297 178.138C46.2356 177.814 49.7144 184.2 50.6906 189.112L58.4096 227.949L20.9831 224.739Z" fill="#6CA3EA"/>
<path d="M79.5684 231.351H24.4553C24.0071 231.352 23.563 231.265 23.1485 231.096C22.734 230.926 22.3572 230.676 22.0398 230.362C21.7224 230.047 21.4705 229.673 21.2987 229.261C21.1269 228.849 21.0384 228.408 21.0384 227.962V224.574H79.5684C80.4721 224.574 81.3387 224.931 81.9777 225.566C82.6166 226.202 82.9756 227.063 82.9756 227.962C82.9756 228.861 82.6166 229.723 81.9777 230.358C81.3387 230.994 80.4721 231.351 79.5684 231.351Z" fill="#6CA3EA"/>
<path d="M55.3641 231.351H24.0652C23.2634 231.351 22.4944 231.034 21.9275 230.47C21.3605 229.906 21.042 229.141 21.042 228.344V224.577H55.3641C56.1658 224.577 56.9348 224.894 57.5017 225.458C58.0687 226.021 58.3872 226.786 58.3872 227.584V228.341C58.3876 228.736 58.3098 229.127 58.158 229.492C58.0063 229.858 57.7837 230.189 57.5029 230.469C57.2221 230.748 56.8887 230.97 56.5217 231.122C56.1547 231.273 55.7613 231.351 55.3641 231.351Z" fill="#6CA3EA"/>
<path d="M516.946 273.9H3.91813C3.33582 273.9 2.86377 274.369 2.86377 274.948V274.951C2.86377 275.531 3.33582 276 3.91813 276H516.946C517.528 276 518 275.531 518 274.951V274.948C518 274.369 517.528 273.9 516.946 273.9Z" fill="#6CA3EA"/>
<path d="M111.014 94.8782H93.8644C92.1625 94.8782 90.7827 96.2504 90.7827 97.9431V114.306C90.7827 115.999 92.1625 117.371 93.8644 117.371H111.014C112.716 117.371 114.096 115.999 114.096 114.306V97.9431C114.096 96.2504 112.716 94.8782 111.014 94.8782Z" fill="#6CA3EA"/>
<path d="M110.269 95.8524H94.6064C93.0518 95.8524 91.7915 97.1057 91.7915 98.6519V113.598C91.7915 115.144 93.0518 116.397 94.6064 116.397H110.269C111.823 116.397 113.084 115.144 113.084 113.598V98.6519C113.084 97.1057 111.823 95.8524 110.269 95.8524Z" fill="#DCEAFF"/>
<path d="M102.439 98.3865C102.705 98.3865 102.921 98.172 102.921 97.9075C102.921 97.643 102.705 97.4285 102.439 97.4285C102.173 97.4285 101.958 97.643 101.958 97.9075C101.958 98.172 102.173 98.3865 102.439 98.3865Z" fill="#6CA3EA"/>
<path d="M105.853 98.5839C105.899 98.5006 105.968 98.4328 106.053 98.389C106.138 98.3452 106.234 98.3275 106.329 98.3381C106.424 98.3487 106.513 98.3872 106.586 98.4486C106.659 98.5099 106.712 98.5915 106.738 98.6828C106.764 98.7742 106.763 98.8712 106.733 98.9616C106.704 99.052 106.648 99.1316 106.573 99.1904C106.498 99.2492 106.407 99.2844 106.312 99.2917C106.217 99.299 106.121 99.2779 106.038 99.2312C105.928 99.1692 105.847 99.0666 105.812 98.9454C105.777 98.8243 105.792 98.6944 105.853 98.5839Z" fill="#6CA3EA"/>
<path d="M109.192 101.222C109.272 101.171 109.365 101.146 109.46 101.148C109.555 101.15 109.647 101.18 109.725 101.234C109.803 101.289 109.863 101.365 109.897 101.453C109.932 101.54 109.939 101.637 109.919 101.729C109.899 101.821 109.852 101.905 109.783 101.971C109.715 102.037 109.629 102.081 109.535 102.098C109.442 102.115 109.346 102.104 109.258 102.067C109.171 102.029 109.097 101.967 109.045 101.888C109.011 101.835 108.987 101.775 108.976 101.713C108.965 101.651 108.966 101.587 108.979 101.525C108.993 101.463 109.019 101.404 109.055 101.352C109.092 101.3 109.138 101.256 109.192 101.222Z" fill="#6CA3EA"/>
<path d="M110.845 105.306C110.974 105.306 111.098 105.357 111.19 105.448C111.281 105.539 111.333 105.663 111.333 105.791C111.333 105.92 111.281 106.044 111.19 106.135C111.098 106.226 110.974 106.277 110.845 106.277C110.715 106.277 110.591 106.226 110.499 106.135C110.408 106.044 110.356 105.92 110.356 105.791C110.356 105.663 110.408 105.539 110.499 105.448C110.591 105.357 110.715 105.306 110.845 105.306Z" fill="#6CA3EA"/>
<path d="M109.657 110.863C109.923 110.863 110.139 110.648 110.139 110.384C110.139 110.119 109.923 109.905 109.657 109.905C109.391 109.905 109.175 110.119 109.175 110.384C109.175 110.648 109.391 110.863 109.657 110.863Z" fill="#6CA3EA"/>
<path d="M106.966 113.067C107.056 113.157 107.107 113.279 107.107 113.407C107.107 113.534 107.056 113.656 106.966 113.746C106.875 113.837 106.752 113.887 106.624 113.887C106.496 113.887 106.373 113.837 106.282 113.746C106.193 113.656 106.143 113.534 106.143 113.407C106.143 113.28 106.193 113.158 106.282 113.067C106.327 113.022 106.38 112.986 106.439 112.962C106.497 112.938 106.56 112.925 106.624 112.925C106.687 112.925 106.75 112.938 106.809 112.962C106.868 112.986 106.921 113.022 106.966 113.067Z" fill="#6CA3EA"/>
<path d="M102.439 115.106C102.705 115.106 102.921 114.891 102.921 114.627C102.921 114.362 102.705 114.148 102.439 114.148C102.173 114.148 101.958 114.362 101.958 114.627C101.958 114.891 102.173 115.106 102.439 115.106Z" fill="#6CA3EA"/>
<path d="M99.0092 98.5839C98.9636 98.5005 98.8941 98.4324 98.8095 98.3884C98.725 98.3443 98.6291 98.3263 98.5342 98.3365C98.4393 98.3467 98.3496 98.3848 98.2765 98.4458C98.2034 98.5069 98.1501 98.5881 98.1235 98.6793C98.097 98.7705 98.0982 98.8675 98.1272 98.958C98.1561 99.0484 98.2114 99.1283 98.2861 99.1875C98.3608 99.2466 98.4515 99.2823 98.5466 99.2901C98.6417 99.2979 98.7371 99.2774 98.8205 99.2312C98.9307 99.1692 99.0121 99.0667 99.0474 98.9458C99.0827 98.8248 99.069 98.6949 99.0092 98.5839Z" fill="#6CA3EA"/>
<path d="M95.6735 101.222C95.593 101.17 95.4989 101.143 95.403 101.144C95.3071 101.145 95.2137 101.175 95.1347 101.229C95.0557 101.283 94.9946 101.359 94.9592 101.448C94.9237 101.537 94.9155 101.634 94.9355 101.727C94.9555 101.82 95.0029 101.905 95.0717 101.972C95.1405 102.038 95.2275 102.083 95.3219 102.1C95.4162 102.118 95.5136 102.107 95.6016 102.069C95.6897 102.031 95.7646 101.968 95.8167 101.888C95.8865 101.781 95.9107 101.65 95.8839 101.525C95.857 101.4 95.7813 101.291 95.6735 101.222Z" fill="#6CA3EA"/>
<path d="M94.0174 105.306C93.9212 105.305 93.8271 105.333 93.7468 105.386C93.6666 105.439 93.6039 105.514 93.5668 105.602C93.5297 105.69 93.5199 105.788 93.5385 105.881C93.5571 105.975 93.6033 106.061 93.6713 106.129C93.7393 106.197 93.826 106.243 93.9204 106.261C94.0147 106.28 94.1125 106.27 94.2012 106.233C94.29 106.196 94.3657 106.134 94.4187 106.054C94.4717 105.974 94.4997 105.881 94.499 105.785C94.499 105.658 94.4483 105.536 94.358 105.446C94.2677 105.356 94.1452 105.306 94.0174 105.306Z" fill="#6CA3EA"/>
<path d="M95.2018 110.863C95.4678 110.863 95.6834 110.648 95.6834 110.384C95.6834 110.119 95.4678 109.905 95.2018 109.905C94.9358 109.905 94.7202 110.119 94.7202 110.384C94.7202 110.648 94.9358 110.863 95.2018 110.863Z" fill="#6CA3EA"/>
<path d="M97.8929 113.067C97.8258 113.134 97.7803 113.219 97.762 113.312C97.7436 113.405 97.7534 113.501 97.7899 113.588C97.8264 113.676 97.8882 113.75 97.9673 113.803C98.0464 113.855 98.1394 113.883 98.2345 113.883C98.3297 113.883 98.4227 113.855 98.5018 113.803C98.5809 113.75 98.6426 113.676 98.6792 113.588C98.7157 113.501 98.7255 113.405 98.7071 113.312C98.6888 113.219 98.6433 113.134 98.5762 113.067C98.5315 113.022 98.4782 112.986 98.4196 112.962C98.361 112.938 98.2981 112.925 98.2345 112.925C98.171 112.925 98.1081 112.938 98.0495 112.962C97.9909 112.986 97.9376 113.022 97.8929 113.067Z" fill="#6CA3EA"/>
<path d="M102.309 105.785C102.31 105.69 102.339 105.598 102.392 105.52C102.445 105.441 102.521 105.38 102.609 105.345C102.697 105.309 102.793 105.3 102.887 105.319C102.98 105.338 103.065 105.383 103.132 105.451C103.199 105.518 103.245 105.603 103.263 105.696C103.282 105.789 103.272 105.885 103.235 105.972C103.199 106.06 103.137 106.134 103.058 106.187C102.979 106.239 102.886 106.267 102.791 106.267C102.727 106.267 102.664 106.255 102.606 106.23C102.547 106.206 102.494 106.171 102.449 106.126C102.404 106.081 102.369 106.028 102.345 105.969C102.321 105.911 102.309 105.848 102.309 105.785Z" fill="#6CA3EA"/>
<path d="M102.858 99.7846H102.726V105.785H102.858V99.7846Z" fill="#6CA3EA"/>
<path d="M105.805 103.126L102.608 105.622L102.853 105.932L106.05 103.436L105.805 103.126Z" fill="#6CA3EA"/>
</g>
<defs>
<clipPath id="clip0_334_4250">
<rect width="518" height="276" fill="white"/>
</clipPath>
</defs>
</svg>
