<svg width="30" height="30" fill="none" xmlns="http://www.w3.org/2000/svg"><rect x="7.031" y="5.156" width=".938" height="4.688" rx=".469" stroke="#686778" stroke-width=".938"/><rect x="7.031" y="12.656" width=".938" height="4.688" rx=".469" stroke="#686778" stroke-width=".938"/><rect x="7.031" y="20.156" width=".938" height="4.688" rx=".469" stroke="#686778" stroke-width=".938"/><rect x="12.656" y="5.156" width=".938" height="4.688" rx=".469" stroke="#686778" stroke-width=".938"/><rect x="12.656" y="12.656" width=".938" height="4.688" rx=".469" stroke="#686778" stroke-width=".938"/><rect x=".469" y=".469" width="19.688" height=".938" rx=".469" stroke="#686778" stroke-width=".938"/><rect x=".469" y="28.594" width="29.063" height=".938" rx=".469" stroke="#686778" stroke-width=".938"/><path fill-rule="evenodd" clip-rule="evenodd" d="M3.875 2H16.75v18.747a5.134 5.134 0 012-.046V0H1.875v30h7.64a.14.14 0 01-.14-.14V28h-5.5V2z" fill="#686778"/><path fill-rule="evenodd" clip-rule="evenodd" d="M17.864 22.5c-1.14 0-2.094.58-2.591 1.377a2.022 2.022 0 01-1.989.933 2.008 2.008 0 00-.27-.018c-1.076 0-1.764.798-1.764 1.562v1.771h13.23v-1.302a1.89 1.89 0 01-.021-.083c-.088-.39-.505-.802-1.137-.802-.088 0-.172.008-.251.023a2.024 2.024 0 01-2.325-1.433C20.43 23.42 19.31 22.5 17.864 22.5zm-4.182.384a.147.147 0 01-.144.068 3.887 3.887 0 00-.525-.035c-2.009 0-3.638 1.539-3.638 3.437v3.505a.14.14 0 00.14.141h16.698a.14.14 0 00.141-.14v-3.472a.034.034 0 00-.033-.034.034.034 0 01-.033-.026c-.292-1.295-1.509-2.265-2.966-2.265-.206 0-.407.019-.601.056a.15.15 0 01-.172-.105c-.556-1.952-2.443-3.389-4.685-3.389-1.781 0-3.338.907-4.182 2.26z" fill="#686778"/><rect x="25.781" y="20.156" width="9.375" height=".938" rx=".469" transform="rotate(90 25.781 20.156)" stroke="#686778" stroke-width=".938"/><rect x="21.625" y="7.563" width="7.375" height="13" rx="3.688" stroke="#686778" stroke-width="2"/></svg>