<svg width="58" height="58" fill="none" xmlns="http://www.w3.org/2000/svg"><circle cx="29" cy="29" r="29" fill="#FCA844"/><g clip-path="url(#clip0_991_1162)" stroke="#fff" stroke-width="2" stroke-miterlimit="10" stroke-linecap="square"><path d="M40.091 15.629H16.844a2.9 2.9 0 00-2.054.854 2.925 2.925 0 00-.851 2.064v15.567c0 .775.306 1.517.85 2.064a2.9 2.9 0 002.055.855h6.78l4.844 5.838 4.843-5.838h6.78a2.9 2.9 0 002.055-.855c.545-.547.851-1.29.851-2.064V18.547c0-.774-.306-1.516-.851-2.064a2.9 2.9 0 00-2.055-.854v0zm-19.795 8.172h15.437M20.296 29.25h9.08"/></g><defs><clipPath id="clip0_991_1162"><path fill="#fff" transform="translate(13 13.75)" d="M0 0h31v31H0z"/></clipPath></defs></svg>