<svg width="32" height="30" fill="none" xmlns="http://www.w3.org/2000/svg"><path d="M29.813 6.47h-4.157V3.032A2.19 2.19 0 0023.47.845H8.53a2.19 2.19 0 00-2.187 2.187v8.375H2.187A2.19 2.19 0 000 13.595v9.937a2.19 2.19 0 002.188 2.188h2.374v1.871c0 .597.332 1.132.866 1.398a1.557 1.557 0 001.637-.15l4.14-3.12h5.92a2.19 2.19 0 002.188-2.187v-2.75h1.482l4.14 3.12a1.556 1.556 0 001.637.15c.534-.266.866-.802.866-1.398v-1.872h2.375A2.19 2.19 0 0032 18.595V8.657a2.19 2.19 0 00-2.188-2.187zm.312 12.125c0 .172-.14.312-.313.312H26.5a.938.938 0 00-.938.938v2.182l-3.89-2.931a.938.938 0 00-.563-.189h-6.234a.313.313 0 01-.313-.312V8.657c0-.172.14-.312.313-.312h14.938c.172 0 .312.14.312.312v9.938zm-13 5.25h-6.234a.938.938 0 00-.564.189l-3.89 2.93v-2.182a.938.938 0 00-.937-.937H2.187a.313.313 0 01-.312-.313v-9.937c0-.173.14-.313.313-.313h10.5v5.313a2.19 2.19 0 002.187 2.187h2.563v2.75c0 .172-.14.313-.313.313zM8.531 2.72H23.47c.172 0 .312.14.312.312V6.47h-8.906a2.19 2.19 0 00-2.188 2.187v2.75H8.22V3.032c0-.172.14-.312.312-.312z" fill="#E55050"/></svg>