<svg width="32" height="32" fill="none" xmlns="http://www.w3.org/2000/svg"><rect width="32" height="32" rx="5" fill="currentColor"/><path fill-rule="evenodd" clip-rule="evenodd" d="M16.614 10.523c.925.315 1.408 1.293 1.088 2.182-.327.889-1.342 1.358-2.267 1.05-.924-.315-1.407-1.292-1.088-2.181.327-.897 1.342-1.366 2.267-1.05zm2.046 6.134c.262-.154.548-.3.851-.316.32-.016.729.154.941.372.45.469.483 1.253-.016 1.697a1.376 1.376 0 01-.27.202c-.884.501-1.391.744-2.406.962.13.105.27.234.384.34.688.654 1.384 1.3 2.063 1.955.45.428.466 1.05.139 1.551-.352.534-1.072.671-1.637.364a2.24 2.24 0 01-.442-.34 133.547 133.547 0 00-2.21-2.084c-.098.088-.261.258-.384.38-.647.63-1.277 1.268-1.931 1.89-.533.526-1.335.477-1.85-.056a1.139 1.139 0 01-.09-1.479c.196-.234.417-.444.638-.655.5-.5 1.342-1.276 1.8-1.785-.826-.259-1.832-.566-2.52-1.05-.59-.421-.671-1.132-.278-1.698.147-.218.36-.372.695-.452.377-.09.745-.008 1.08.17.99.54 1.85.815 3.152.727.802-.097 1.595-.3 2.291-.695zm-1.211-8.42c2.234.759 3.404 3.119 2.619 5.268-.786 2.15-3.233 3.28-5.467 2.53-2.235-.76-3.405-3.12-2.62-5.27.787-2.157 3.234-3.288 5.468-2.529z" fill="#fff"/></svg>