<svg width="18" height="19" fill="none" xmlns="http://www.w3.org/2000/svg"><path fill-rule="evenodd" clip-rule="evenodd" d="M14.937 7.251c0 1.482-.225 2.505-1.016 3.828-.815 1.363-2.226 3.033-4.7 5.69-2.476-2.657-3.889-4.327-4.705-5.69C3.725 9.755 3.5 8.731 3.5 7.25c0-2.672 2.487-5.252 5.718-5.252 3.232 0 5.719 2.58 5.719 5.252zm1.5 0c0 3.422-1.113 5.193-6.486 10.935-.393.42-1.065.42-1.458 0C3.113 12.445 2 10.673 2 7.251 2 3.679 5.232.499 9.218.499c3.987 0 7.219 3.18 7.219 6.752zm-6.012.467a1.207 1.207 0 11-2.413 0 1.207 1.207 0 012.413 0zm1.5 0a2.707 2.707 0 11-5.413 0 2.707 2.707 0 015.413 0z" fill="currentColor"/></svg>