<svg width="24" height="25" fill="none" xmlns="http://www.w3.org/2000/svg"><path d="M12 11.993c1.455 0 2.634-1.169 2.634-2.61 0-1.442-1.18-2.61-2.634-2.61-1.455 0-2.635 1.168-2.635 2.61 0 1.441 1.18 2.61 2.635 2.61z" fill="#2C8ECC"/><path d="M19.452 16.765a10.392 10.392 0 003.087-7.382c0-2.77-1.11-5.425-3.087-7.383m-2.98 11.813a6.261 6.261 0 001.37-2.033 6.215 6.215 0 00-1.37-6.827M4.548 16.765a10.392 10.392 0 01-3.086-7.382c0-2.77 1.11-5.425 3.086-7.383M7.53 13.813a6.26 6.26 0 01-1.372-2.033A6.214 6.214 0 017.53 4.953M12 9.383V24m-4.216 0h8.43" stroke="#2C8ECC" stroke-width="2" stroke-miterlimit="10" stroke-linecap="square"/></svg>