<svg width="16" height="16" fill="none" xmlns="http://www.w3.org/2000/svg"><path d="M15.52 13.28l-2.24-2.24C14 9.92 14.4 8.64 14.4 7.2c0-4-3.2-7.2-7.2-7.2S0 3.2 0 7.2s3.2 7.2 7.2 7.2c1.44 0 2.72-.4 3.84-1.12l2.24 2.24c.64.64 1.6.64 2.24 0 .64-.64.64-1.6 0-2.24zM7.2 12.8c-3.12 0-5.6-2.48-5.6-5.6 0-3.12 2.48-5.6 5.6-5.6 3.12 0 5.6 2.48 5.6 5.6 0 3.12-2.56 5.6-5.6 5.6z" fill="currentColor"/><path d="M10.4 6.4H8V4c0-.48-.32-.8-.8-.8-.48 0-.8.4-.8.8v2.4H4c-.4 0-.8.32-.8.8 0 .48.32.8.8.8h2.4v2.4c0 .48.32.8.8.8.48 0 .8-.32.8-.8V8h2.4c.48 0 .8-.32.8-.8 0-.48-.4-.8-.8-.8z" fill="currentColor"/></svg>