<svg width="18" height="10" viewBox="0 0 18 10" fill="none" xmlns="http://www.w3.org/2000/svg">
<path d="M18 5.0017C18 4.57091 17.6563 4.22174 17.2322 4.22174L2.6081 4.22174L5.4606 1.32865C5.75969 1.02483 5.75969 0.530552 5.4606 0.226731C5.31329 0.0770884 5.11687 0 4.92045 0C4.72404 0 4.52762 0.0770884 4.38031 0.226731L0.224316 4.44848C-0.0747738 4.7523 -0.0747738 5.24657 0.224316 5.55039L4.38031 9.77213C4.6794 10.076 5.16597 10.076 5.46506 9.77213C5.76415 9.46831 5.76415 8.97404 5.46506 8.67022L2.61702 5.77712L17.2322 5.77712C17.6563 5.77712 18 5.43249 18 5.0017Z" fill="currentColor"/>
</svg>
