<svg width="22" height="24" viewBox="0 0 22 24" fill="none" xmlns="http://www.w3.org/2000/svg">
<path fill-rule="evenodd" clip-rule="evenodd" d="M16.5 11C16.5 14.5899 13.5899 17.5 10 17.5C6.41015 17.5 3.5 14.5899 3.5 11C3.5 7.41015 6.41015 4.5 10 4.5C13.5899 4.5 16.5 7.41015 16.5 11ZM15.1018 17.1624C13.717 18.3101 11.9391 19 10 19C5.58172 19 2 15.4183 2 11C2 6.58172 5.58172 3 10 3C14.4183 3 18 6.58172 18 11C18 12.9391 17.3101 14.717 16.1624 16.1018L19.9991 19.9384L18.9384 20.9991L15.1018 17.1624Z" fill="#0E4CD3"/>
</svg>
