<svg width="18" height="18" fill="none" xmlns="http://www.w3.org/2000/svg"><path d="M1.055 8.326V5.61a2.86 2.86 0 012.861-2.861.527.527 0 100-1.055A3.913 3.913 0 000 5.61v3.72c.3-.383.656-.722 1.055-1.004zm13.029-6.632a.527.527 0 100 1.055 2.86 2.86 0 012.861 2.861v2.716c.399.282.755.62 1.055 1.005V5.61a3.913 3.913 0 00-3.916-3.916z" fill="#707B8C"/><path fill-rule="evenodd" clip-rule="evenodd" d="M10.324 11.292a3.923 3.923 0 013.76-2.82A3.92 3.92 0 0118 12.39a3.92 3.92 0 01-3.916 3.916 3.921 3.921 0 01-3.91-3.691l-.417-.417A1.063 1.063 0 009 11.884c-.286 0-.555.11-.757.313l-.417.417a3.921 3.921 0 01-3.91 3.691A3.92 3.92 0 010 12.39a3.92 3.92 0 013.916-3.916 3.923 3.923 0 013.76 2.819c.375-.3.837-.463 1.324-.463.487 0 .949.163 1.324.463zm-3.555 1.097a2.9 2.9 0 11-5.8 0 2.9 2.9 0 015.8 0zm10.187 0a2.9 2.9 0 11-5.8 0 2.9 2.9 0 015.8 0z" fill="#707B8C"/></svg>