<svg width="22" height="26" fill="none" xmlns="http://www.w3.org/2000/svg"><path d="M13.48 10.653S14.548 4.62 10.193 2a7.166 7.166 0 01-.857 2.97 7.46 7.46 0 01-2.043 2.374c-1.86 1.573-5.361 5.101-5.324 8.874a8.395 8.395 0 001.316 4.567A8.875 8.875 0 006.907 24a5.316 5.316 0 01.6-2.087 5.522 5.522 0 011.396-1.7c.49-.363.9-.815 1.206-1.33a4.348 4.348 0 00.577-1.675A8.262 8.262 0 0113.828 20a7.833 7.833 0 011.297 3.92v.022a8.342 8.342 0 003.481-2.846 7.876 7.876 0 001.421-4.174c.095-3.06-.975-6.049-3.01-8.404" stroke="#2C8ECC" stroke-width="2" stroke-miterlimit="10" stroke-linecap="square"/></svg>