<svg width="16" height="16" fill="none" xmlns="http://www.w3.org/2000/svg"><path fill-rule="evenodd" clip-rule="evenodd" d="M8 16A8 8 0 108 0a8 8 0 000 16zm0-8.11c1.17 0 2.118-1.094 2.118-2.445C10.118 4.095 9.807 3 8 3 6.194 3 5.882 4.095 5.882 5.445c0 1.35.949 2.446 2.118 2.446zm3.995 3.636c-.039-2.353-.362-3.023-2.835-3.448 0 0-.348.422-1.16.422-.811 0-1.16-.422-1.16-.422-2.446.42-2.789 1.08-2.834 3.371-.004.187-.005.197-.006.175v.247S4.59 13 8 13s4-1.129 4-1.129v-.182c0 .013-.002-.013-.005-.163z" fill="#2C8ECC"/></svg>