<svg width="240" height="240" viewBox="0 0 24 24" fill="none" xmlns="http://www.w3.org/2000/svg"><path d="M3 1h14v4h4v18H3V1zm16 1.414l.586.586H19v-.586z" fill="#fff" stroke="#9BD2F4" stroke-width="2"/><rect x="1" y="9" width="22" height="10" rx=".1" fill="#fff" stroke="#9BD2F4" stroke-width="2"/><path d="M4.964 17a.185.185 0 01-.136-.056.185.185 0 01-.056-.136V11.6c0-.059.016-.107.048-.144a.195.195 0 01.144-.056h2.144c.64 0 1.144.152 1.512.456.368.299.552.739.552 1.32s-.184 1.021-.552 1.32c-.362.293-.866.44-1.512.44H5.916v1.872a.185.185 0 01-.056.136.17.17 0 01-.136.056h-.76zm2.104-2.952c.31 0 .547-.072.712-.216.166-.15.248-.368.248-.656 0-.277-.08-.493-.24-.648-.16-.16-.4-.24-.72-.24H5.9v1.76h1.168zM10.238 17a.185.185 0 01-.136-.056.185.185 0 01-.056-.136V11.6c0-.059.016-.107.048-.144a.195.195 0 01.144-.056h1.952c1.568 0 2.368.725 2.4 2.176.01.31.016.517.016.624 0 .101-.005.307-.016.616-.021.747-.221 1.299-.6 1.656-.379.352-.965.528-1.76.528h-1.992zm1.952-.92c.448 0 .77-.099.968-.296.197-.203.301-.533.312-.992.01-.32.016-.52.016-.6 0-.085-.006-.283-.016-.592-.01-.437-.123-.76-.336-.968-.208-.208-.536-.312-.984-.312h-.992v3.76h1.032zm3.673.92a.185.185 0 01-.136-.056.185.185 0 01-.056-.136V11.6c0-.059.016-.107.048-.144a.195.195 0 01.144-.056h3.472c.059 0 .107.019.144.056a.195.195 0 01.056.144v.56a.195.195 0 01-.056.144.214.214 0 01-.144.048h-2.568v1.52h2.408c.059 0 .107.019.144.056a.195.195 0 01.056.144v.56a.195.195 0 01-.056.144.214.214 0 01-.144.048h-2.408v1.984a.195.195 0 01-.056.144.214.214 0 01-.144.048h-.704z" fill="#2C8ECC"/></svg>