<svg width="30" height="34" fill="none" xmlns="http://www.w3.org/2000/svg"><path d="M9.89 27l1.415-1.414-.586-.586H9.89v2zm3.696 3.695l-1.414 1.415 1.414-1.415zm2.828 0L15 29.281l1.414 1.414zM20.11 27v-2h-.829l-.586.586L20.11 27zM2 2v-4a4 4 0 00-4 4h4zm0 23V2h-4v23h4zm0 0h-4a4 4 0 004 4v-4zm7.89 0H2v4h7.89v-4zM15 29.281l-3.695-3.695-2.829 2.828 3.696 3.696L15 29.28zm0 0l-2.828 2.829a4 4 0 005.656 0L15 29.28zm3.695-3.695L15 29.28l2.828 2.829 3.696-3.696-2.829-2.828zM28 25h-7.89v4H28v-4zm0 0v4a4 4 0 004-4h-4zm0-23v23h4V2h-4zm0 0h4a4 4 0 00-4-4v4zM2 2h26v-4H2v4z" fill="#49CCC4"/><path d="M15 6.26l1.81 3.666a2 2 0 001.505 1.094l4.047.588-2.928 2.854a2 2 0 00-.576 1.77l.692 4.03-3.62-1.902a2 2 0 00-1.86 0l-3.62 1.902.692-4.03a2 2 0 00-.576-1.77l-2.928-2.854 4.047-.588a2 2 0 001.505-1.094L15 6.26z" stroke="#49CCC4" stroke-width="2"/></svg>