<svg width="16" height="16" fill="none" xmlns="http://www.w3.org/2000/svg"><circle cx="8" cy="8" r="8" fill="#707B8C"/><g clip-path="url(#clip0)" fill="#fff"><path d="M2 8c.875-2.62 3.228-4.5 6-4.5.992 0 1.928.245 2.764.675L12.19 2.75l1.06 1.06-9.44 9.44-1.06-1.06 1.222-1.223A6.77 6.77 0 012 8zm6-3a3 3 0 00-3 3c0 .556.158 1.071.424 1.515L6.55 8.388A1.5 1.5 0 018 6.5c.134 0 .263.02.386.053l1.12-1.12A2.917 2.917 0 008 5zm0 6a3 3 0 003-3 2.97 2.97 0 00-.111-.767l1.676-1.677A6.84 6.84 0 0114 8c-.875 2.62-3.228 4.5-6 4.5a6.02 6.02 0 01-2.027-.352l1.26-1.26c.246.066.5.112.767.112z"/></g><defs><clipPath id="clip0"><path fill="#fff" transform="matrix(-1 0 0 1 14 2)" d="M0 0h12v12H0z"/></clipPath></defs></svg>