<svg width="26" height="26" fill="none" xmlns="http://www.w3.org/2000/svg"><path d="M15.098 24.5v-4.182A2.1 2.1 0 0013 18.228a2.1 2.1 0 00-2.099 2.09V24.5m-9.443-7.318v-3.137m23.084 3.137v-3.136" stroke="#2C8ECC" stroke-width="2" stroke-miterlimit="10" stroke-linecap="square"/><path d="M5.865 17.182H1.458V24.5h3.148m15.529-7.318h4.407V24.5h-3.148" stroke="#2C8ECC" stroke-width="2" stroke-miterlimit="10"/><path d="M18.246 8.818H7.753L4.605 22.41v2.09h16.789v-2.09L18.246 8.817z" stroke="#2C8ECC" stroke-width="2" stroke-miterlimit="10" stroke-linecap="square"/><path d="M21.394 1.5v7.318H4.605V1.5m4.198 0v2.09m4.197 0V1.5m4.197 0v2.09m-12.592 0h16.789" stroke="#2C8ECC" stroke-width="2" stroke-miterlimit="10" stroke-linecap="square"/></svg>