<svg width="18" height="18" viewBox="0 0 18 18" fill="none" xmlns="http://www.w3.org/2000/svg">
<g clip-path="url(#clip0)">
<path d="M1.05469 8.32644V5.61027C1.05469 4.02719 2.33578 2.74927 3.91641 2.74927C4.2075 2.74927 4.4434 2.51302 4.4434 2.22192C4.4434 1.93083 4.20715 1.69458 3.9157 1.69458C1.74937 1.69458 0 3.44782 0 5.61027V9.33085C0.300234 8.94695 0.656016 8.60804 1.05469 8.32644Z" fill="#707B8C"/>
<path d="M14.0836 1.69458C13.7925 1.69458 13.5566 1.93083 13.5566 2.22192C13.5566 2.51302 13.7929 2.74927 14.0843 2.74927C15.6671 2.74927 16.9454 4.03 16.9454 5.61027V8.32644C17.344 8.60804 17.6998 8.94695 18 9.33085V5.61027C18 3.4436 16.2468 1.69458 14.0836 1.69458Z" fill="#707B8C"/>
<path d="M14.0836 8.47266C12.3048 8.47266 10.7994 9.66473 10.3238 11.2919C9.94897 10.9921 9.48716 10.8289 9 10.8289C8.51284 10.8289 8.05099 10.9921 7.67616 11.2919C7.20056 9.66477 5.69521 8.47266 3.91641 8.47266C1.7569 8.47266 0 10.2296 0 12.3891C0 14.5486 1.7569 16.3055 3.91641 16.3055C6.00036 16.3055 7.70913 14.6693 7.82617 12.6141L8.24347 12.1968C8.44548 11.9948 8.71414 11.8836 9 11.8836C9.28586 11.8836 9.55448 11.9948 9.75653 12.1968L10.1738 12.614C10.2908 14.6692 11.9996 16.3054 14.0836 16.3054C16.2431 16.3054 18 14.5485 18 12.389C18 10.2295 16.2431 8.47266 14.0836 8.47266Z" fill="#707B8C"/>
</g>
<defs>
<clipPath id="clip0">
<rect width="18" height="18" fill="white"/>
</clipPath>
</defs>
</svg>
