<svg width="22" height="22" fill="none" xmlns="http://www.w3.org/2000/svg"><path d="M18.195 18.195A10.104 10.104 0 0111 21.175a10.104 10.104 0 01-7.194-2.98A10.104 10.104 0 01.825 11c0-2.719 1.058-5.272 2.98-7.194A10.104 10.104 0 0111 .825c2.719 0 5.272 1.058 7.195 2.98A10.104 10.104 0 0121.175 11c0 2.719-1.058 5.272-2.98 7.195zM17.143 4.857A8.631 8.631 0 0011 2.31c-2.319 0-4.5.904-6.143 2.546-3.387 3.387-3.387 8.899 0 12.286A8.631 8.631 0 0011 19.69c2.319 0 4.5-.904 6.143-2.546 3.387-3.387 3.387-8.9 0-12.286z" fill="#E55050" stroke="#E55050" stroke-width=".35"/><path d="M15.013 15.013a.72.72 0 01-1.021 0L11 12.022l-2.992 2.99a.72.72 0 01-1.02 0 .72.72 0 010-1.02L9.977 11l-2.99-2.99a.725.725 0 01.509-1.234.71.71 0 01.51.213l2.99 2.99 2.99-2.99a.725.725 0 01.51-.214c.185 0 .37.07.51.215a.72.72 0 01-.002 1.02L12.021 11l2.992 2.992a.72.72 0 010 1.02z" fill="#E55050" stroke="#E55050" stroke-width=".45"/></svg>