<svg width="32" height="32" fill="none" xmlns="http://www.w3.org/2000/svg"><rect width="32" height="32" rx="5" fill="currentColor"/><path fill-rule="evenodd" clip-rule="evenodd" d="M23.986 11.922c.13-.407 0-.703-.578-.703h-1.92c-.485 0-.708.259-.839.537 0 0-.988 2.368-2.367 3.904-.448.444-.652.592-.895.592-.13 0-.298-.148-.298-.555v-3.793c0-.482-.15-.704-.56-.704H13.51c-.298 0-.485.223-.485.445 0 .462.69.573.765 1.869v2.812c0 .611-.112.722-.354.722-.653 0-2.237-2.387-3.188-5.107-.186-.537-.373-.74-.857-.74H7.452c-.559 0-.652.258-.652.536 0 .5.652 3.016 3.038 6.347 1.585 2.276 3.84 3.498 5.872 3.498 1.23 0 1.379-.278 1.379-.74V19.12c0-.555.112-.648.503-.648.28 0 .783.148 1.92 1.24 1.305 1.295 1.529 1.887 2.255 1.887h1.92c.56 0 .82-.277.671-.814-.167-.537-.801-1.314-1.621-2.239-.448-.518-1.119-1.092-1.324-1.37-.28-.37-.205-.518 0-.85-.018 0 2.33-3.295 2.573-4.405z" fill="#fff"/></svg>