<svg width="24" height="24" viewBox="0 0 24 24" fill="none" xmlns="http://www.w3.org/2000/svg">
<path fill-rule="evenodd" clip-rule="evenodd" d="M0.199219 12.0002C0.199219 5.49386 5.49288 0.200195 11.9992 0.200195C18.5056 0.200195 23.7992 5.49386 23.7992 12.0002C23.7992 18.5065 18.5056 23.8002 11.9992 23.8002C5.49288 23.8002 0.199219 18.5065 0.199219 12.0002ZM2.35237 12.0002C2.35237 17.3197 6.67996 21.6468 11.9992 21.6468C17.3185 21.6468 21.6461 17.3197 21.6461 12.0002C21.6461 6.68067 17.3185 2.35359 11.9992 2.35359C6.67996 2.35359 2.35237 6.68067 2.35237 12.0002Z" fill="currentColor"/>
<rect x="10.75" y="6.00024" width="2.5" height="8" rx="1" fill="currentColor"/>
<rect x="10.75" y="15.0002" width="2.5" height="3" rx="1" fill="currentColor"/>
</svg>
