<svg width="58" height="58" fill="none" xmlns="http://www.w3.org/2000/svg"><circle cx="29" cy="29" r="29" fill="#E55050"/><g clip-path="url(#clip0_751_40293)"><path d="M41.88 21.236h-4.026v-3.33c0-1.168-.95-2.12-2.119-2.12h-14.47c-1.169 0-2.12.952-2.12 2.12v8.113H15.12a2.122 2.122 0 00-2.119 2.12v9.626c0 1.169.95 2.12 2.12 2.12h2.3v1.813c0 .577.321 1.096.838 1.354a1.508 1.508 0 001.586-.146l4.01-3.022h5.736c1.168 0 2.119-.95 2.119-2.119v-2.664h1.436l4.01 3.022a1.508 1.508 0 001.587.146c.517-.258.838-.777.838-1.355v-1.813h2.3c1.17 0 2.12-.95 2.12-2.119v-9.627c0-1.168-.95-2.119-2.12-2.119zm.304 11.746a.303.303 0 01-.303.303h-3.21a.908.908 0 00-.907.908v2.114l-3.768-2.84a.908.908 0 00-.547-.182H27.41a.303.303 0 01-.303-.303v-9.627c0-.167.136-.303.303-.303h14.47c.168 0 .304.136.304.303v9.627zM29.59 38.068h-6.04a.908.908 0 00-.547.183l-3.768 2.84v-2.115a.908.908 0 00-.908-.908H15.12a.303.303 0 01-.303-.303v-9.627c0-.167.136-.302.303-.302h10.172v5.146c0 1.169.95 2.12 2.12 2.12h2.482v2.663a.303.303 0 01-.303.303zm-8.325-20.465h14.47c.167 0 .303.136.303.303v3.33H27.41c-1.168 0-2.119.95-2.119 2.12v2.663h-4.33v-8.113c0-.167.137-.303.304-.303z" fill="#fff"/></g><defs><clipPath id="clip0_751_40293"><path fill="#fff" transform="translate(13 14)" d="M0 0h31v31H0z"/></clipPath></defs></svg>