<svg width="58" height="58" fill="none" xmlns="http://www.w3.org/2000/svg"><circle cx="29" cy="29" r="29" fill="#86909C"/><rect x="20.266" y="19.078" width=".969" height="4.844" rx=".484" stroke="#fff" stroke-width=".969"/><rect x="20.266" y="26.828" width=".969" height="4.844" rx=".484" stroke="#fff" stroke-width=".969"/><rect x="20.266" y="34.578" width=".969" height="4.844" rx=".484" stroke="#fff" stroke-width=".969"/><rect x="26.078" y="19.078" width=".969" height="4.844" rx=".484" stroke="#fff" stroke-width=".969"/><rect x="26.078" y="26.828" width=".969" height="4.844" rx=".484" stroke="#fff" stroke-width=".969"/><rect x="13.484" y="14.234" width="20.344" height=".969" rx=".484" stroke="#fff" stroke-width=".969"/><rect x="13.484" y="43.297" width="30.031" height=".969" rx=".484" stroke="#fff" stroke-width=".969"/><path fill-rule="evenodd" clip-rule="evenodd" d="M16.938 15.75h13.437v19.424a5.315 5.315 0 012-.033V13.75H14.937v31h7.896a.145.145 0 01-.145-.145V42.75h-5.75v-27z" fill="#fff"/><path fill-rule="evenodd" clip-rule="evenodd" d="M31.46 37c-1.18 0-2.164.599-2.678 1.423a2.09 2.09 0 01-2.055.964 2.074 2.074 0 00-.28-.019c-1.111 0-1.822.825-1.822 1.615v1.83h13.67v-1.346a2.018 2.018 0 01-.021-.086c-.09-.402-.521-.829-1.174-.829-.091 0-.178.009-.26.024a2.092 2.092 0 01-2.403-1.48C34.112 37.95 32.955 37 31.46 37zm-4.322.397a.152.152 0 01-.149.07 3.996 3.996 0 00-.542-.036c-2.076 0-3.76 1.59-3.76 3.552v3.622c0 .08.066.145.146.145h17.254c.08 0 .146-.065.146-.145v-3.588a.035.035 0 00-.035-.034.035.035 0 01-.034-.028c-.302-1.337-1.559-2.34-3.064-2.34-.213 0-.421.02-.622.058a.155.155 0 01-.177-.109c-.575-2.017-2.525-3.502-4.841-3.502-1.841 0-3.45.938-4.322 2.335z" fill="#fff"/><rect x="39.641" y="34.578" width="9.688" height=".969" rx=".484" transform="rotate(90 39.64 34.578)" stroke="#fff" stroke-width=".969"/><rect x="35.313" y="21.531" width="7.688" height="13.5" rx="3.844" stroke="#fff" stroke-width="2"/></svg>