<svg width="32" height="32" fill="none" xmlns="http://www.w3.org/2000/svg"><path d="M10.89 27l1.415-1.414-.586-.586h-.829v2zm3.696 3.695l-1.414 1.415 1.414-1.415zm2.828 0L16 29.281l1.414 1.414zM21.11 27v-2h-.829l-.586.586L21.11 27zM3 2v-4a4 4 0 00-4 4h4zm0 23V2h-4v23h4zm0 0h-4a4 4 0 004 4v-4zm7.89 0H3v4h7.89v-4zM16 29.281l-3.695-3.695-2.829 2.828 3.696 3.696L16 29.28zm0 0l-2.828 2.829a4 4 0 005.656 0L16 29.28zm3.695-3.695L16 29.28l2.828 2.829 3.696-3.696-2.829-2.828zM29 25h-7.89v4H29v-4zm0 0v4a4 4 0 004-4h-4zm0-23v23h4V2h-4zm0 0h4a4 4 0 00-4-4v4zM3 2h26v-4H3v4z" fill="#49CCC4"/><path d="M19.858 16.232l.986-.169-.986.17.692 4.03-3.62-1.904a2 2 0 00-1.86 0l-3.62 1.903.692-4.03a2 2 0 00-.576-1.77l-2.928-2.854 4.047-.588a2 2 0 001.505-1.094L16 6.26l1.81 3.666a2 2 0 001.505 1.094l4.047.588-2.928 2.854a2 2 0 00-.576 1.77z" stroke="#49CCC4" stroke-width="2"/></svg>