<svg width="32" height="32" fill="none" xmlns="http://www.w3.org/2000/svg"><rect x="7.5" y="5.5" width="1" height="5" rx=".5" stroke="#686778"/><rect x="7.5" y="13.5" width="1" height="5" rx=".5" stroke="#686778"/><rect x="7.5" y="21.5" width="1" height="5" rx=".5" stroke="#686778"/><rect x="13.5" y="5.5" width="1" height="5" rx=".5" stroke="#686778"/><rect x="13.5" y="13.5" width="1" height="5" rx=".5" stroke="#686778"/><rect x=".5" y=".5" width="21" height="1" rx=".5" stroke="#686778"/><rect x=".5" y="30.5" width="31" height="1" rx=".5" stroke="#686778"/><path fill-rule="evenodd" clip-rule="evenodd" d="M4 2h14v20.102a5.49 5.49 0 012-.02V0H2v32h8.15a.15.15 0 01-.15-.15V30H4V2z" fill="#686778"/><path fill-rule="evenodd" clip-rule="evenodd" d="M19.055 24c-1.217 0-2.233.618-2.764 1.469a2.157 2.157 0 01-2.121.995 2.14 2.14 0 00-.289-.02c-1.147 0-1.881.852-1.881 1.667V30h14.111v-1.39a1.997 1.997 0 01-.022-.087c-.093-.416-.538-.856-1.212-.856-.094 0-.183.009-.268.025a2.16 2.16 0 01-2.48-1.53C21.793 24.983 20.598 24 19.055 24zm-4.46.41a.156.156 0 01-.155.072 4.137 4.137 0 00-.559-.038c-2.143 0-3.881 1.642-3.881 3.667v3.739c0 .083.067.15.15.15h17.811a.15.15 0 00.15-.15v-3.703a.036.036 0 00-.036-.036.036.036 0 01-.035-.028c-.311-1.38-1.609-2.416-3.163-2.416-.22 0-.434.02-.642.06a.16.16 0 01-.183-.112C23.46 23.533 21.447 22 19.055 22c-1.9 0-3.561.968-4.46 2.41z" fill="#686778"/><rect x="27.5" y="21.5" width="10" height="1" rx=".5" transform="rotate(90 27.5 21.5)" stroke="#686778"/><rect x="23" y="8" width="8" height="14" rx="4" stroke="#686778" stroke-width="2"/></svg>