<svg width="24" height="26" fill="none" xmlns="http://www.w3.org/2000/svg"><path d="M12 19.545v5.454M6.527 25h10.948" stroke="#2C8ECC" stroke-width="2" stroke-miterlimit="10"/><path d="M18.57 10.818h-.608a4.307 4.307 0 00.607-2.181c0-2.41-1.96-4.364-4.379-4.364-.018 0-.036.006-.054.006A3.816 3.816 0 0010.358 1a3.825 3.825 0 00-3.831 3.818c0 .37.07.72.168 1.06-1.395.729-2.358 2.17-2.358 3.848 0 .415.077.808.185 1.188a4.367 4.367 0 00-3.47 4.267c0 2.41 1.961 4.363 4.38 4.363h13.137a4.371 4.371 0 004.38-4.364c0-2.41-1.961-4.363-4.38-4.363z" stroke="#2C8ECC" stroke-width="2" stroke-miterlimit="10" stroke-linecap="square"/></svg>