<svg width="24" height="24" fill="none" xmlns="http://www.w3.org/2000/svg"><path fill-rule="evenodd" clip-rule="evenodd" d="M.2 12C.2 5.494 5.492.2 12 .2 18.505.2 23.8 5.494 23.8 12c0 6.506-5.294 11.8-11.8 11.8C5.492 23.8.2 18.506.2 12zm2.152 0c0 5.32 4.328 9.647 9.647 9.647 5.32 0 9.647-4.327 9.647-9.647S17.318 2.354 12 2.354 2.352 6.68 2.352 12z" fill="CurrentColor"/><rect x="10.75" y="6" width="2.5" height="8" rx="1" fill="CurrentColor"/><rect x="10.75" y="15" width="2.5" height="3" rx="1" fill="CurrentColor"/></svg>