<svg width="240" height="240" viewBox="0 0 24 24" fill="none" xmlns="http://www.w3.org/2000/svg">
  <path d="M3 1h14v4h4v18H3V1zm16 1.41421L19.5858 3H19v-.58579z" fill="#fff" stroke="#9BD2F4" stroke-width="2"/>
  <rect x="1" y="9" width="22" height="10" rx="0.1" fill="#fff" stroke="#9BD2F4" stroke-width="2"/>
  <path d="M6.81116 17.08c-.72534 0-1.29067-.184-1.696-.552-.40534-.368-.61867-.9147-.64-1.64-.00534-.1547-.008-.3813-.008-.68 0-.304.00266-.5333.008-.688.02133-.7093.24-1.2533.656-1.632.416-.3787.976-.568 1.68-.568s1.264.1893 1.68.568c.42133.3787.64266.9227.664 1.632.01066.3093.016.5387.016.688 0 .144-.00534.3707-.016.68-.02667.7253-.24267 1.272-.648 1.64-.40534.368-.97067.552-1.696.552zm0-.92c.35733 0 .64266-.1067.856-.32.21333-.2187.328-.5493.344-.992.01066-.32.016-.536.016-.648 0-.1227-.00534-.3387-.016-.648-.016-.4427-.13067-.7707-.344-.984-.21334-.2187-.49867-.328-.856-.328-.352 0-.63467.1093-.848.328-.21334.2133-.328.5413-.344.984-.00534.1547-.008.3707-.008.648 0 .272.00266.488.008.648.016.4427.128.7733.336.992.21333.2133.49866.32.856.32zm3.60254.84c-.0534 0-.0987-.0187-.136-.056-.0374-.0373-.056-.0827-.056-.136V11.6c0-.0587.016-.1067.048-.144.0373-.0373.0853-.056.144-.056h1.952c1.568 0 2.368.7253 2.4 2.176.0106.3093.016.5173.016.624 0 .1013-.0054.3067-.016.616-.0214.7467-.2214 1.2987-.6 1.656-.3787.352-.9654.528-1.76.528h-1.992zm1.952-.92c.448 0 .7706-.0987.968-.296.1973-.2027.3013-.5333.312-.992.0106-.32.016-.52.016-.6 0-.0853-.0054-.2827-.016-.592-.0107-.4373-.1227-.76-.336-.968-.208-.208-.536-.312-.984-.312h-.992v3.76h1.032zm4.8034.92c-.0533 0-.0987-.0187-.136-.056-.0373-.0373-.056-.0827-.056-.136v-4.424h-1.48c-.0533 0-.0987-.0187-.136-.056-.0373-.0373-.056-.0827-.056-.136V11.6c0-.0587.016-.1067.048-.144.0373-.0373.0853-.056.144-.056h4.08c.0587 0 .1067.0187.144.056.0373.0373.056.0853.056.144v.592c0 .0533-.0187.0987-.056.136-.0373.0373-.0853.056-.144.056h-1.472v4.424c0 .0533-.0187.0987-.056.136-.0373.0373-.0853.056-.144.056h-.736z" fill="#2C8ECC"/>
</svg>
