<svg width="14" height="16" fill="none" xmlns="http://www.w3.org/2000/svg"><path d="M7 7.825c1.778 0 3.22-1.752 3.22-3.912C10.22 1.752 9.748 0 7 0S3.778 1.752 3.778 3.913c0 2.16 1.443 3.912 3.222 3.912zM.916 13.8c0-.133-.001-.038 0 0zm12.168.102c.001-.036 0-.25 0 0z" fill="currentColor"/><path d="M13.077 13.641c-.06-3.764-.552-4.837-4.313-5.516 0 0-.53.675-1.764.675-1.235 0-1.764-.675-1.764-.675C1.515 8.797.993 9.853.925 13.52c-.006.299-.008.315-.01.28l.001.396S1.812 16 7 16s6.083-1.806 6.083-1.806v-.292a2.433 2.433 0 01-.006-.261z" fill="currentColor"/></svg>