<svg width="26" height="26" fill="none" xmlns="http://www.w3.org/2000/svg"><path d="M15.097 20.316l3.095 3.083a3.675 3.675 0 002.623 1.098 3.685 3.685 0 002.623-1.098v0a3.657 3.657 0 001.102-2.613 3.646 3.646 0 00-1.102-2.613l-2.046-2.038" stroke="#2C8ECC" stroke-width="2" stroke-miterlimit="10" stroke-linecap="square"/><path d="M10.821 11.145l-3.593-3.58" stroke="#2C8ECC" stroke-width="2" stroke-miterlimit="10"/><path d="M5.024 8.297l2.204-.732.734-2.195-2.938-2.926L2.086 5.37l2.938 2.927zm19.178-2.695l-3.23 3.203L17.2 5.068l3.232-3.205a4.435 4.435 0 00-2.37-.32A5.9 5.9 0 0014.18 3.47a5.855 5.855 0 00-1.504 4.053 4.399 4.399 0 00.322 1.713l-10.34 9.075A3.575 3.575 0 001.46 20.83a3.56 3.56 0 00.982 2.609v0a3.45 3.45 0 002.633 1.058 3.46 3.46 0 002.537-1.267l9.156-10.254a7.087 7.087 0 003.017.21 5.974 5.974 0 002.843-1.457 5.939 5.939 0 001.68-2.71 5.293 5.293 0 00-.107-3.417v0z" stroke="#2C8ECC" stroke-width="2" stroke-miterlimit="10" stroke-linecap="square"/></svg>