<svg width="24" height="24" fill="none" xmlns="http://www.w3.org/2000/svg"><path d="M3 1h14v4h4v18H3V1zm16 1.414l.586.586H19v-.586z" fill="#fff" stroke="#9BD2F4" stroke-width="2"/><mask id="a" fill="#fff"><rect y="8" width="24" height="12" rx="1"/></mask><rect y="8" width="24" height="12" rx="1" fill="#fff" stroke="#9BD2F4" stroke-width="4" mask="url(#a)"/><path d="M6.811 17.08c-.725 0-1.29-.184-1.696-.552-.405-.368-.619-.915-.64-1.64a21.366 21.366 0 01-.008-.68c0-.304.003-.533.008-.688.021-.71.24-1.253.656-1.632.416-.379.976-.568 1.68-.568s1.264.19 1.68.568c.421.379.643.923.664 1.632.01.31.016.539.016.688 0 .144-.005.37-.016.68-.027.725-.243 1.272-.648 1.64-.405.368-.97.552-1.696.552zm0-.92c.357 0 .643-.107.856-.32.213-.219.328-.55.344-.992.01-.32.016-.536.016-.648 0-.123-.005-.339-.016-.648-.016-.443-.13-.77-.344-.984-.213-.219-.499-.328-.856-.328-.352 0-.635.11-.848.328-.213.213-.328.541-.344.984-.005.155-.008.37-.008.648 0 .272.003.488.008.648.016.443.128.773.336.992.213.213.499.32.856.32zm3.603.84a.185.185 0 01-.136-.056.185.185 0 01-.056-.136V11.6c0-.059.016-.107.048-.144a.195.195 0 01.144-.056h1.952c1.568 0 2.368.725 2.4 2.176.01.31.016.517.016.624 0 .101-.006.307-.016.616-.022.747-.222 1.299-.6 1.656-.379.352-.966.528-1.76.528h-1.992zm1.952-.92c.448 0 .77-.099.968-.296.197-.203.301-.533.312-.992.01-.32.016-.52.016-.6 0-.085-.006-.283-.016-.592-.011-.437-.123-.76-.336-.968-.208-.208-.536-.312-.984-.312h-.992v3.76h1.032zm4.803.92a.185.185 0 01-.136-.056.185.185 0 01-.056-.136v-4.424h-1.48a.185.185 0 01-.136-.056.185.185 0 01-.056-.136V11.6c0-.059.016-.107.048-.144a.195.195 0 01.144-.056h4.08c.059 0 .107.019.144.056a.195.195 0 01.056.144v.592a.185.185 0 01-.056.136.195.195 0 01-.144.056h-1.472v4.424a.185.185 0 01-.056.136.195.195 0 01-.144.056h-.736z" fill="#2C8ECC"/></svg>