<svg width="32" height="32" fill="none" xmlns="http://www.w3.org/2000/svg"><path d="M18.097 27.5v-4.183A2.1 2.1 0 0016 21.227a2.1 2.1 0 00-2.099 2.09V27.5M4.457 20.181v-3.136M27.541 20.181v-3.136" stroke="#2C8ECC" stroke-width="2" stroke-miterlimit="10" stroke-linecap="square"/><path d="M8.864 20.182H4.457V27.5h3.148M23.135 20.182h4.407V27.5h-3.148" stroke="#2C8ECC" stroke-width="2" stroke-miterlimit="10"/><path d="M21.246 11.818H10.753L7.605 25.41V27.5h16.789v-2.09l-3.148-13.592zM24.394 4.5v7.318H7.605V4.5M11.803 4.5v2.09M15.998 6.59V4.5M20.195 4.5v2.09M7.605 6.592h16.789" stroke="#2C8ECC" stroke-width="2" stroke-miterlimit="10" stroke-linecap="square"/></svg>