<svg width="58" height="58" fill="none" xmlns="http://www.w3.org/2000/svg"><circle cx="29" cy="29" r="29" fill="#60D2CC"/><mask id="a" fill="#fff"><path fill-rule="evenodd" clip-rule="evenodd" d="M16 13.75a2 2 0 00-2 2v23a2 2 0 002 2h7.89l3.696 3.695a2 2 0 002.828 0l3.696-3.695H42a2 2 0 002-2v-23a2 2 0 00-2-2H16z"/></mask><path d="M23.89 40.75l1.415-1.414-.586-.586h-.829v2zm3.696 3.695l-1.414 1.415 1.414-1.415zm2.828 0L29 43.031l1.414 1.414zm3.696-3.695v-2h-.829l-.586.586 1.415 1.414zM16 15.75v-4a4 4 0 00-4 4h4zm0 23v-23h-4v23h4zm0 0h-4a4 4 0 004 4v-4zm7.89 0H16v4h7.89v-4zM29 43.031l-3.695-3.695-2.829 2.828 3.696 3.696L29 43.03zm0 0l-2.828 2.829a4 4 0 005.656 0L29 43.03zm3.695-3.695L29 43.03l2.828 2.829 3.696-3.696-2.829-2.828zM42 38.75h-7.89v4H42v-4zm0 0v4a4 4 0 004-4h-4zm0-23v23h4v-23h-4zm0 0h4a4 4 0 00-4-4v4zm-26 0h26v-4H16v4z" fill="#fff" mask="url(#a)"/><path d="M32.858 29.982l.986-.169-.986.17.692 4.03-3.62-1.904a2 2 0 00-1.86 0l-3.62 1.903.692-4.03a2 2 0 00-.576-1.77l-2.928-2.854 4.047-.588a2 2 0 001.506-1.094L29 20.01l1.81 3.666a2 2 0 001.505 1.094l4.047.588-2.928 2.854a2 2 0 00-.575 1.77z" stroke="#fff" stroke-width="2"/></svg>