<svg width="17" height="16" fill="none" xmlns="http://www.w3.org/2000/svg"><path d="M14.12 2.063h-1.375v-.938A.626.626 0 0012.12.5a.626.626 0 00-.625.625v.938H4.683v-.938A.626.626 0 004.058.5a.626.626 0 00-.625.625v.938H2.12c-.812 0-1.5.624-1.5 1.5V14c0 .813.688 1.5 1.5 1.5h12c.813 0 1.5-.688 1.5-1.5V3.562c0-.874-.687-1.5-1.5-1.5zM4.12 4c.313 0 .625-.25.625-.625V3.25h6.813v.125a.626.626 0 001.25 0V3.25h1.312c.188 0 .375.188.375.375v1.438H1.808V3.625c0-.188.187-.375.375-.375h1.312v.125c0 .313.25.625.625.625zm10.313 9.938a.403.403 0 01-.375.374H2.183a.403.403 0 01-.375-.374V6.312h12.625v7.625z" fill="currentColor"/></svg>