<svg width="20" height="18" fill="none" xmlns="http://www.w3.org/2000/svg"><path d="M19.782 15.559L11.39.814a1.593 1.593 0 00-2.78 0L.218 15.56C-.4 16.644.37 18 1.608 18h16.785c1.235 0 2.007-1.356 1.39-2.441zm-1.39.95H1.608a.135.135 0 01-.116-.205L9.884 1.56a.133.133 0 01.232 0l8.393 14.744a.135.135 0 01-.116.205z" fill="#9BD2F4"/><path d="M9.999 6.187a.74.74 0 00-.735.745v4.275a.74.74 0 00.735.746.74.74 0 00.735-.746V6.932A.74.74 0 0010 6.187zm0 6.734a.74.74 0 00-.735.746v.445a.74.74 0 00.735.746.74.74 0 00.735-.746v-.445a.74.74 0 00-.735-.746z" fill="#9BD2F4"/></svg>