<svg width="240" height="240" viewBox="0 0 24 24" fill="none" xmlns="http://www.w3.org/2000/svg">
  <path d="M3 1h14v4h4v18H3V1zm16 1.41421L19.5858 3H19v-.58579z" fill="#fff" stroke="#9BD2F4" stroke-width="2"/>
  <rect x="1" y="9" width="22" height="10" rx="0.1" fill="#fff" stroke="#9BD2F4" stroke-width="2"/>
  <path d="M4.96444 17c-.05334 0-.09867-.0187-.136-.056-.03734-.0373-.056-.0827-.056-.136V11.6c0-.0587.016-.1067.048-.144.03733-.0373.08533-.056.144-.056h2.144c.64 0 1.144.152 1.512.456.368.2987.552.7387.552 1.32s-.184 1.0213-.552 1.32c-.36267.2933-.86667.44-1.512.44h-1.192v1.872c0 .0533-.01867.0987-.056.136-.032.0373-.07734.056-.136.056h-.76zm2.104-2.952c.30933 0 .54666-.072.712-.216.16533-.1493.248-.368.248-.656 0-.2773-.08-.4933-.24-.648-.16-.16-.4-.24-.72-.24h-1.168v1.76h1.168zM10.2379 17c-.0534 0-.0987-.0187-.136-.056-.0374-.0373-.056-.0827-.056-.136V11.6c0-.0587.016-.1067.048-.144.0373-.0373.0853-.056.144-.056h1.952c1.568 0 2.368.7253 2.4 2.176.0106.3093.016.5173.016.624 0 .1013-.0054.3067-.016.616-.0214.7467-.2214 1.2987-.6 1.656-.3787.352-.9654.528-1.76.528h-1.992zm1.952-.92c.448 0 .7706-.0987.968-.296.1973-.2027.3013-.5333.312-.992.0106-.32.016-.52.016-.6 0-.0853-.0054-.2827-.016-.592-.0107-.4373-.1227-.76-.336-.968-.208-.208-.536-.312-.984-.312h-.992v3.76h1.032zm3.673.92c-.0534 0-.0987-.0187-.136-.056-.0374-.0373-.056-.0827-.056-.136V11.6c0-.0587.016-.1067.048-.144.0373-.0373.0853-.056.144-.056h3.472c.0586 0 .1066.0187.144.056.0373.0373.056.0853.056.144v.56c0 .0587-.0187.1067-.056.144-.0374.032-.0854.048-.144.048h-2.568v1.52h2.408c.0586 0 .1066.0187.144.056.0373.0373.056.0853.056.144v.56c0 .0587-.0187.1067-.056.144-.0374.032-.0854.048-.144.048h-2.408v1.984c0 .0587-.0187.1067-.056.144-.0374.032-.0854.048-.144.048h-.704z" fill="#2C8ECC"/>
</svg>
