<svg width="20" height="20" fill="none" xmlns="http://www.w3.org/2000/svg"><g clip-path="url(#clip0)"><path d="M1.458 20h2.084A1.46 1.46 0 005 18.542v-.305C6.26 18.878 9.122 20 13.776 20h1.333a3.948 3.948 0 003.9-3.285l.933-5.417a3.959 3.959 0 00-3.9-4.631h-3.78a7.775 7.775 0 00.472-2.709C12.734.828 10.963 0 10.026 0 8.296 0 8.15 1.613 8.15 3.125c0 1.845-2.07 3.378-3.162 4.06a1.456 1.456 0 00-1.447-1.352H1.458A1.46 1.46 0 000 7.292v11.25A1.46 1.46 0 001.458 20zM9.401 3.125c0-1.875.317-1.875.625-1.875.587 0 1.458.722 1.458 2.708 0 1.847-.723 2.979-.728 2.987a.625.625 0 00.52.972h4.767a2.707 2.707 0 012.668 3.168l-.934 5.417a2.701 2.701 0 01-2.668 2.247h-1.333c-5.67.001-8.51-1.772-8.776-1.948V8.626c.694-.368 4.4-2.477 4.4-5.501zM1.25 7.292c0-.115.093-.209.208-.209h2.084c.115 0 .208.094.208.209v11.25a.21.21 0 01-.208.208H1.458a.208.208 0 01-.208-.208V7.292z" fill="#707B8C"/></g><defs><clipPath id="clip0"><path fill="#fff" d="M0 0h20v20H0z"/></clipPath></defs></svg>