<svg width="10" height="12" fill="none" xmlns="http://www.w3.org/2000/svg"><path d="M5 5.869c1.334 0 2.416-1.314 2.416-2.935C7.416 1.314 7.06 0 5 0S2.584 1.314 2.584 2.934C2.584 4.555 3.666 5.87 5 5.87zm4.563 4.558c0-.027 0-.188 0 0zm-.007-.197c-.044-2.823-.413-3.627-3.234-4.136 0 0-.398.506-1.323.506-.926 0-1.323-.506-1.323-.506C.885 6.597.494 7.39.442 10.139c-.004.224-.006.236-.006.21v.297S1.108 12 4.999 12c3.89 0 4.562-1.354 4.562-1.354v-.22c0 .016-.002-.015-.005-.195z" fill="#2C8ECC"/></svg>