<svg width="24" height="24" fill="none" xmlns="http://www.w3.org/2000/svg"><path d="M12 16.909v4.09M7.895 21h8.21" stroke="#2C8ECC" stroke-width="1.5" stroke-miterlimit="10"/><path d="M16.927 10.364h-.456a3.23 3.23 0 00.456-1.636 3.278 3.278 0 00-3.285-3.273c-.014 0-.027.004-.04.004a2.869 2.869 0 00-5.707.405c0 .278.052.54.126.795-1.047.547-1.769 1.627-1.769 2.887 0 .31.058.606.14.89a3.275 3.275 0 00-2.603 3.2 3.278 3.278 0 003.284 3.273h9.854a3.279 3.279 0 003.284-3.273 3.278 3.278 0 00-3.284-3.272z" stroke="#2C8ECC" stroke-width="1.5" stroke-miterlimit="10" stroke-linecap="square"/></svg>